<svg fill-rule="evenodd" stroke-miterlimit="10" viewBox="0 0 2000 500" xmlns="http://www.w3.org/2000/svg" xmlns:xlink="http://www.w3.org/1999/xlink"><defs><radialGradient id="a" cx="0" cy="0" gradientTransform="matrix(2000 0 0 500 0 250)" gradientUnits="userSpaceOnUse" r="1"><stop offset="0" stop-color="#1a63f6"/><stop offset="1" stop-color="#070187"/></radialGradient><path id="c" d="M1414.24 111.458a12.21 12.21 0 0 1 7.281 15.644 12.21 12.21 0 0 1-15.643 7.281 12.21 12.21 0 0 1-7.282-15.643 12.21 12.21 0 0 1 15.644-7.282z"/><path id="d" d="M1587.15 275.952a12.21 12.21 0 0 1 7.282 15.643 12.21 12.21 0 0 1-15.643 7.282 12.21 12.21 0 0 1-7.282-15.643 12.21 12.21 0 0 1 15.643-7.282z"/><path id="e" d="M1248.13 101.587a12.21 12.21 0 0 1 7.282 15.643 12.21 12.21 0 0 1-15.643 7.282 12.21 12.21 0 0 1-7.282-15.644 12.21 12.21 0 0 1 15.643-7.281z"/><path id="f" d="M1300.53 120.7a12.21 12.21 0 0 1 7.282 15.644 12.21 12.21 0 0 1-15.643 7.281 12.21 12.21 0 0 1-7.282-15.643 12.21 12.21 0 0 1 15.643-7.282z"/><clipPath id="b"><path d="M1171.04 386.2l303.1-39.39 11.42 87.898-303.1 39.39z"/></clipPath><clipPath id="g"><path d="M639.26 363.538l220.998 38.98-11.304 64.09-220.998-38.98 11.304-64.1z"/></clipPath><clipPath id="h"><path d="M237.504 257.475L510.647 154.42l29.886 79.21L267.4 336.687l-29.886-79.212z"/></clipPath><clipPath id="i"><path d="M663.436 193h273v114h-273z"/></clipPath><clipPath id="j"><path d="M1114.73 193.58h113.42V307h-113.42z"/></clipPath></defs><path d="M0 0h2000v500H0z" fill="url(#a)"/><g stroke="#fff"><g clip-path="url(#b)" stroke-width="1.53"><path d="M1274.9 401.3a15.69 15.69 0 0 1-13.515 17.552M1274.9 401.3c-1.113-8.562 4.952-16.44 13.515-17.552l60.77-7.898" fill="none"/><g fill="#b18be8"><path d="M1303.83 373.644a8.03 8.03 0 0 1 8.99 6.923 8.03 8.03 0 0 1-6.922 8.99 8.03 8.03 0 0 1-8.991-6.922 8.03 8.03 0 0 1 6.923-8.991zm36.37-4.726a8.03 8.03 0 0 1 8.991 6.922 8.03 8.03 0 0 1-6.923 8.99 8.03 8.03 0 0 1-8.99-6.922 8.03 8.03 0 0 1 6.922-8.99z"/></g><path d="M1385.3 418.537a15.69 15.69 0 0 0-17.552-13.515m17.552 13.515a15.69 15.69 0 0 0 17.552 13.515l60.77-7.898" fill="none"/><g fill="#4ed1a1"><path d="M1418.2 421.964a8.03 8.03 0 0 1 8.99 6.922 8.03 8.03 0 0 1-6.922 8.99 8.03 8.03 0 0 1-8.991-6.922 8.03 8.03 0 0 1 6.923-8.99zm36.4-4.727a8.03 8.03 0 0 1 8.99 6.922 8.03 8.03 0 0 1-6.922 8.991 8.03 8.03 0 0 1-8.99-6.923 8.03 8.03 0 0 1 6.922-8.99z"/></g><path d="M1196.98 427.213l210.273-27.326" fill="none"/><path d="M1203.9 418.222a8.03 8.03 0 0 1 8.99 6.923 8.03 8.03 0 0 1-6.922 8.99 8.03 8.03 0 0 1-8.99-6.922 8.03 8.03 0 0 1 6.922-8.991zm36.37-4.726a8.03 8.03 0 0 1 8.991 6.922 8.03 8.03 0 0 1-6.923 8.99 8.03 8.03 0 0 1-8.99-6.922 8.03 8.03 0 0 1 6.922-8.99zm67.23-8.736a8.03 8.03 0 0 1 8.99 6.922 8.03 8.03 0 0 1-6.922 8.991 8.03 8.03 0 0 1-8.99-6.923 8.03 8.03 0 0 1 6.922-8.99zm36.74-4.775a8.03 8.03 0 0 1 8.99 6.923 8.03 8.03 0 0 1-6.922 8.99 8.03 8.03 0 0 1-8.991-6.923 8.03 8.03 0 0 1 6.923-8.99zm69.94-9.09a8.03 8.03 0 0 1 8.991 6.923 8.03 8.03 0 0 1-6.923 8.99 8.03 8.03 0 0 1-8.99-6.922 8.03 8.03 0 0 1 6.922-8.991z" fill="#b3e3ff"/></g><g stroke-width="2.32"><path d="M1355.83 128.497c-4.5 12.336-18.206 18.716-30.542 14.217m30.542-14.217c4.5-12.336 18.206-18.716 30.54-14.217l87.552 31.934" fill="none"/><g fill="#b18be8"><use xlink:href="#c"/><path d="M1490.52 139.227a12.21 12.21 0 0 1 7.282 15.643 12.21 12.21 0 0 1-15.644 7.282 12.21 12.21 0 0 1-7.281-15.643 12.21 12.21 0 0 1 15.643-7.282z"/></g><path d="M1492.7 229.14c4.5-12.336-1.88-26.043-14.216-30.542m14.216 30.542c-4.5 12.335 1.88 26.042 14.217 30.54l87.552 31.934" fill="none"/></g><path d="M1467.13 114.493c-5.182 14.21-19.445 22.113-31.78 17.614m31.78-17.614c5.183-14.208 19.445-22.113 31.78-17.614l87.552 31.934" fill="none" stroke-width="2.51"/><g stroke-width="2.32"><g fill="#4ed1a1"><path d="M1534.75 256.84a12.21 12.21 0 0 1 7.282 15.644 12.21 12.21 0 0 1-15.644 7.282 12.21 12.21 0 0 1-7.281-15.644 12.21 12.21 0 0 1 15.643-7.282z"/><use x="112.49" xlink:href="#c" y="-17.421"/><use xlink:href="#d"/><path d="M1579.12 113.15a12.21 12.21 0 0 1 7.281 15.643 12.21 12.21 0 0 1-15.643 7.282 12.21 12.21 0 0 1-7.282-15.644 12.21 12.21 0 0 1 15.644-7.281z"/></g><path d="M1232.5 108.868l302.938 110.495" fill="none"/><g fill="#b3e3ff"><use xlink:href="#e"/><use xlink:href="#f"/><use x="149.24" xlink:href="#e" y="54.431"/><use x="149.77" xlink:href="#f" y="54.63"/><use x="-36.08" xlink:href="#d" y="-63.872"/></g></g><g clip-path="url(#g)" stroke-width="1.12"><path d="M708.713 396.924a11.52 11.52 0 0 1-13.324 9.328m13.324-9.328a11.52 11.52 0 0 1 13.324-9.329l44.3 7.816" fill="none"/><g fill="#b18be8"><path d="M735.05 383.91c3.202.565 5.343 3.623 4.778 6.824s-3.622 5.343-6.824 4.778-5.343-3.622-4.778-6.824 3.623-5.343 6.824-4.778zm26.52 4.677c3.202.564 5.343 3.622 4.778 6.824s-3.623 5.343-6.824 4.778-5.343-3.623-4.778-6.824 3.622-5.343 6.824-4.778z"/></g><path d="M782.26 433.253a11.52 11.52 0 0 0-9.328-13.323m9.328 13.323a11.52 11.52 0 0 0 9.329 13.324l44.3 7.816" fill="none"/><path d="M804.573 442.886c3.202.565 5.343 3.623 4.778 6.824s-3.622 5.343-6.824 4.778-5.343-3.622-4.778-6.824 3.623-5.343 6.824-4.778zm26.52 4.678c3.202.564 5.343 3.622 4.778 6.824s-3.622 5.343-6.824 4.778-5.343-3.623-4.778-6.824 3.623-5.343 6.824-4.778z" fill="#4ed1a1"/><path d="M648.427 397.97l153.318 27.043" fill="none"/><path d="M655.25 393.2c3.202.565 5.343 3.623 4.778 6.824s-3.622 5.343-6.824 4.778-5.343-3.622-4.778-6.824 3.623-5.343 6.824-4.778zm26.52 4.68c3.202.564 5.343 3.622 4.778 6.824s-3.622 5.343-6.824 4.778-5.343-3.623-4.778-6.824 3.622-5.343 6.824-4.778zm49.008 8.643c3.2.564 5.342 3.622 4.778 6.824s-3.623 5.343-6.825 4.778-5.343-3.623-4.778-6.824 3.623-5.343 6.825-4.778zm26.796 4.727c3.2.565 5.342 3.623 4.778 6.824s-3.623 5.343-6.825 4.778-5.343-3.622-4.778-6.824 3.623-5.343 6.825-4.778zm50.996 8.994c3.202.564 5.343 3.622 4.778 6.824s-3.623 5.343-6.824 4.778-5.343-3.623-4.778-6.824 3.622-5.343 6.824-4.778z" fill="#b3e3ff"/></g><g clip-path="url(#h)" stroke-width="1.46"><path d="M337.37 248.737c2.91 7.716-1 16.37-8.717 19.28m8.717-19.28c-2.91-7.716 1-16.37 8.717-19.28l54.766-20.663" fill="none"/><g fill="#b18be8"><path d="M358.2 216.696a7.67 7.67 0 0 1 9.875 4.465 7.67 7.67 0 0 1-4.465 9.875 7.67 7.67 0 0 1-9.875-4.465 7.67 7.67 0 0 1 4.465-9.875zm32.777-12.366a7.67 7.67 0 0 1 9.876 4.465 7.67 7.67 0 0 1-4.465 9.875 7.67 7.67 0 0 1-9.875-4.464 7.67 7.67 0 0 1 4.464-9.876z"/></g><path d="M443.773 240.575c-2.912-7.716-11.564-11.63-19.28-8.717m19.28 8.717c2.91 7.716 11.563 11.628 19.28 8.717l54.765-20.663" fill="none"/><path d="M475.13 236.544a7.67 7.67 0 0 1 9.876 4.465 7.67 7.67 0 0 1-4.465 9.875 7.67 7.67 0 0 1-9.875-4.465 7.67 7.67 0 0 1 4.464-9.875zm32.78-12.366a7.67 7.67 0 0 1 9.875 4.464 7.67 7.67 0 0 1-4.465 9.876 7.67 7.67 0 0 1-9.875-4.465 7.67 7.67 0 0 1 4.465-9.875z" fill="#4ed1a1"/><path d="M270.6 289.916l189.493-71.494" fill="none"/><path d="M275.075 280.04a7.67 7.67 0 0 1 9.875 4.465 7.67 7.67 0 0 1-4.465 9.875 7.67 7.67 0 0 1-9.875-4.465 7.67 7.67 0 0 1 4.465-9.875zm32.777-12.366a7.67 7.67 0 0 1 9.875 4.465 7.67 7.67 0 0 1-4.464 9.875 7.67 7.67 0 0 1-9.876-4.465 7.67 7.67 0 0 1 4.465-9.875zm60.57-22.852a7.67 7.67 0 0 1 9.875 4.465 7.67 7.67 0 0 1-4.465 9.875 7.67 7.67 0 0 1-9.875-4.465 7.67 7.67 0 0 1 4.465-9.875zm33.118-12.495a7.67 7.67 0 0 1 9.876 4.464 7.67 7.67 0 0 1-4.465 9.876 7.67 7.67 0 0 1-9.875-4.465 7.67 7.67 0 0 1 4.464-9.875zm63.028-23.78a7.67 7.67 0 0 1 9.876 4.465 7.67 7.67 0 0 1-4.465 9.875 7.67 7.67 0 0 1-9.876-4.465 7.67 7.67 0 0 1 4.465-9.875z" fill="#b3e3ff"/></g></g><g clip-path="url(#i)" fill-rule="nonzero"><path d="M827.036 231.8c-6 0-10.4 2.9-10.4 10 0 5.3 2.9 9 10.1 9 6.1 0 10.2-3.6 10.2-9.2 0-6.4-3.7-9.8-9.9-9.8zm-12 49.9c-1.4 1.7-2.8 3.6-2.8 5.8 0 4.3 5.5 5.7 13.2 5.7 6.3 0 14.9-.4 14.9-6.3 0-3.5-4.1-3.7-9.4-4zm32.2-49.6c2 2.5 4 6 4 11 0 12.1-9.5 19.1-23.2 19.1-3.5 0-6.6-.4-8.6-1l-3.6 5.8 10.7.7c18.8 1.2 29.9 1.7 29.9 16.2 0 12.5-11 19.6-29.9 19.6-19.7 0-27.2-5-27.2-13.6 0-4.9 2.2-7.5 6-11.1-3.6-1.5-4.8-4.2-4.8-7.2 0-2.4 1.2-4.6 3.2-6.6 2-2.1 4.1-4.1 6.7-6.5-5.3-2.6-9.4-8.3-9.4-16.3 0-12.5 8.3-21.1 24.9-21.1 4.7 0 7.5.4 10 1.1h21.2v9.2zm29.2-19.7c-6.2 0-9.8-3.6-9.8-9.8s3.6-9.6 9.8-9.6c6.3 0 9.9 3.4 9.9 9.6s-3.6 9.8-9.9 9.8zm-14.1 65.3v-8.6l5.6-.8c1.5-.2 1.7-.5 1.7-2.2v-32c0-1.2-.3-2-1.4-2.3l-5.9-2.1 1.2-8.8h22.5V266c0 1.7.1 2 1.7 2.2l5.5.8v8.6zm74.1-4.2c-4.7 2.3-11.5 4.3-17.7 4.3-12.9 0-17.8-5.2-17.8-17.5v-28.4c0-.7 0-1.1-.9-1.1h-7.6v-9.7c9.6-1.1 13.4-5.9 14.6-17.7h10.3v15.5c0 .8 0 1.1.9 1.1h15.2v10.9h-16.2v26c0 6.4 1.5 8.9 7.4 8.9 3 0 6.2-.8 8.8-1.7z" fill="#fff"/><g fill="#f05133"><path d="M724.536 239.3l-3.8-3.8c1.1 0 2.2-.2 3.2-.6l7.9 7.9-2 2h8.3c-2.4 2.4-3.1 6.3-1.7 9.4l-7 7-2.3-2.3v9.5c0-.1-.5-.5-.6-.6-.2-.2-.4-.4-.7-.5-.2-.2-.5-.3-.7-.5-.2-.1-.6-.4-.6-.4v-23.9h3.3z"/><path d="M775.236 255.4l-49.5 49.5a7.3 7.3 0 0 1-10.4 0l-49.7-49.8a7.3 7.3 0 0 1 0-10.4l34.1-34.1 12.9 12.9c-1.3 3.2-.7 7 1.9 9.5.9.8 1.8 1.5 2.9 1.9 0 0 .6.2 1.6.4.6.1 1.8.1 1.8.1l-3.4 3.4-3.7 3.8h3.7v23.7c-1 .4-2 1.1-2.9 1.9-3.4 3.4-3.4 8.9 0 12.3s8.9 3.4 12.4 0c2.9-2.9 3.3-7.4 1.2-10.8-.2-.4-.5-.7-.8-1.1h9.5l-2.3-2.3c2.4-2.4 4.7-4.9 7.2-7.2l.3-.3a4.67 4.67 0 0 0 1 .5c.3.1.6.1.6.1 2.5.2 5-.6 6.9-2.5 3.4-3.4 3.4-8.9 0-12.3-2.4-2.4-6-3.1-9-2.1 0 0-.8.3-1.5.8-.6.4-1 .8-1.2 1V236l-1.9 1.9-8-8c1.1-3.1.4-6.6-2.1-9-2.4-2.4-5.9-3.1-9-2.1l-13.1-13.2 10.4-10.4a7.3 7.3 0 0 1 10.4 0l49.7 49.8a7.49 7.49 0 0 1 0 10.4z"/></g></g><g clip-path="url(#j)"><g fill-rule="nonzero"><path d="M1194.83 294.24l-5.844-19.848h-35.092l-5.844 19.848h-17.15l30.4-87.9h20.997l29.702 87.9h-17.17zm-36.765-34.025h26.747l-11.923-40.5h-2.898z" fill="#fff"/><path d="M1202.63 305.582c-13.3 0-24.1-10.81-24.1-24.1s10.81-24.102 24.1-24.102 24.102 10.812 24.102 24.102-10.812 24.1-24.102 24.1z" fill="#bae0bd"/><path d="M1202.63 258.797c12.507 0 22.684 10.177 22.684 22.684s-10.177 22.684-22.684 22.684-22.684-10.177-22.684-22.684 10.177-22.684 22.684-22.684m0-2.835c-14.095 0-25.52 11.424-25.52 25.52s11.424 25.52 25.52 25.52 25.52-11.424 25.52-25.52-11.424-25.52-25.52-25.52z" fill="#0abe50"/></g><path d="M1190.78 281.552l7.854 7.85 17.665-17.668" fill="none" stroke="#fff" stroke-width="5.67"/></g><text fill="#fff" font-family="ArialMT, Arial, sans-serif" font-size="172" x="975.359" y="311.603">+</text><text fill="#fff" font-family="ArialMT, Arial, sans-serif" font-size="57.998" x="1221.36" y="265.286">spell</text><g stroke="#fff"><g stroke-width="2.12"><path d="M842.036 104.228c0-11.992-9.763-21.756-21.756-21.756m21.756 21.756c0 11.992 9.764 21.755 21.756 21.755h85.112" fill="none"/><g fill="#4ed1a1"><circle cx="886.768" cy="125.983" r="11.143"/><circle cx="937.707" cy="125.983" r="11.143"/></g></g><path d="M671.897 82.472h203.728" fill="none" stroke-width="1.82"/><g fill="#b3e3ff" stroke-width="2.12"><circle cx="737.344" cy="82.472" r="11.143"/><circle cx="788.814" cy="82.472" r="11.143"/><circle cx="886.768" cy="82.472" r="11.143"/></g></g></svg>