<svg fill-rule="evenodd" stroke-linecap="square" viewBox="0 0 2000 500" xmlns="http://www.w3.org/2000/svg" xmlns:xlink="http://www.w3.org/1999/xlink"><defs><path id="a" d="m1185.7 257.116a2 2 0 0 0 -2-2h-300.046a2 2 0 0 0 -2 2v6.924a2 2 0 0 0 2 2h300.046a2 2 0 0 0 2-2z"/><path id="b" d="m641.322 206.868h162.043c3.016 0 5.462 2.445 5.462 5.462v287.67h-172.967v-287.67c0-3.017 2.446-5.462 5.462-5.462z"/><path id="c" d="m788.8 341.78a2 2 0 0 0 -2-2h-129.82a2 2 0 0 0 -2 2v6.924a2 2 0 0 0 2 2h129.82a2 2 0 0 0 2-2z"/><path id="d" d="m1340.44 178.863 3.825 9.233-6.566 2.793-4.104-9.723-5.87 5.7v-29.156l21.103 21.154h-8.387z"/><path id="e" d="m1162.92 216.868c0-3.312-2.69-6-6-6h-246.47c-3.312 0-6 2.688-6 6v188.187c0 3.312 2.688 6 6 6h246.47c3.31 0 6-2.688 6-6z"/></defs><path d="m0 0h2000v500h-2000z" fill="#f1a51c"/><path d="m1364.14 500h-660.914v-407.836c0-3.016 2.446-5.462 5.462-5.462h650c3.016 0 5.462 2.446 5.462 5.462v407.836z" fill="#10273c"/><path d="m703.226 109.46h660.913v390.54h-660.913zm20.938-11.834a3.64 3.64 0 0 1 -3.641 3.641c-2 0-3.642-1.63-3.642-3.64s1.63-3.642 3.642-3.642a3.64 3.64 0 0 1 3.64 3.642m14.567-.001a3.64 3.64 0 1 1 -7.283-.001c0-2 1.63-3.642 3.64-3.642s3.642 1.63 3.642 3.642m14.566.001a3.641 3.641 0 1 1 -7.282 0c0-2 1.63-3.642 3.64-3.642a3.64 3.64 0 0 1 3.64 3.642" fill="#1f4c74"/><circle cx="1326.82" cy="145.874" fill="#10273c" fill-opacity=".5" r="19.117"/><g fill="none" stroke="#fff" stroke-width="3.64"><path d="m1322.26 141.322 8.203 8.203"/><path d="m1330.47 141.322-8.203 8.203"/></g><g fill="#496d8d"><path d="m1054.62 286.247a2 2 0 0 0 -2-2h-168.966a2 2 0 0 0 -2 2v6.924a2 2 0 0 0 2 2h168.966a2 2 0 0 0 2-2zm-71.917 173.877a2 2 0 0 0 -2-2h-97.048a2 2 0 0 0 -2 2v6.924a2 2 0 0 0 2 2h97.048a2 2 0 0 0 2-2z"/><use xlink:href="#a"/><use xlink:href="#a" y="173.877"/><use xlink:href="#a" y="-29.131"/><use xlink:href="#a" y="144.746"/><path d="m1169.33 198.854a2 2 0 0 0 -2-2h-283.67a2 2 0 0 0 -2 2v6.924a2 2 0 0 0 2 2h283.67a2 2 0 0 0 2-2zm0 173.876a2 2 0 0 0 -2-2h-283.67a2 2 0 0 0 -2 2v6.925a2 2 0 0 0 2 2h283.67a2 2 0 0 0 2-2z"/><use xlink:href="#a" y="-87.393"/><path d="m1185.7 343.6a2 2 0 0 0 -2-2h-300.046a2 2 0 0 0 -2 2v6.924a2 2 0 0 0 2 2h300.046a2 2 0 0 0 2-2z"/></g><path d="m1364.14 268.158v111.36l-185.527 120.482h-171.48l357.006-231.842zm-434.895-158.698h153.375l-379.394 246.38v-99.603l226.02-146.778z" fill="#fff" fill-opacity=".7"/><use xlink:href="#b"/><use fill="#1f4c74" xlink:href="#b"/><g fill="#496d8d"><use xlink:href="#c"/><path d="m731.447 371.82a2 2 0 0 0 -2-2h-72.47a2 2 0 0 0 -2 2v6.924a2 2 0 0 0 2 2h72.47a2 2 0 0 0 2-2z"/><use xlink:href="#c" y="-30.043"/><path d="m732.357 480.152a2 2 0 0 0 -2-2h-73.38a2 2 0 0 0 -2 2v6.924a2 2 0 0 0 2 2h73.38a2 2 0 0 0 2-2zm49.16-198.456a2 2 0 0 0 -2-2h-122.539a2 2 0 0 0 -2 2v6.924a2 2 0 0 0 2 2h122.538a2 2 0 0 0 2-2v-6.924zm0 168.404a2 2 0 0 0 -2-2h-122.539a2 2 0 0 0 -2 2v6.924a2 2 0 0 0 2 2h122.538a2 2 0 0 0 2-2v-6.924z"/><use xlink:href="#c" y="-90.126"/><use xlink:href="#c" y="78.29"/></g><path d="m808.827 386.888v63.855l-75.85 49.257h-97.117v-.786zm-99-180.02h93.548a5.44 5.44 0 0 1 3.193 1.03l-170.708 110.852v-63.854l73.957-48.028z" fill="#fff" fill-opacity=".7"/><use fill-rule="nonzero" xlink:href="#d"/><use fill="#fff" xlink:href="#d"/><g fill-rule="nonzero"><path d="m1341.84 186.856-3.357 1.4-5.645-13.426 3.352-1.41 5.65 13.427z"/><path d="m1329.55 162.09v20.37l5.406-5.218.78-.253h8.68l-14.866-14.9z"/></g><use xlink:href="#e"/><use fill="#fff" xlink:href="#e"/><path d="m1131.64 224.08c.583-.663 1.592-.726 2.253-.14l4.945 4.94 4.875-4.873a1.6 1.6 0 1 1 2.263 2.264l-4.873 4.872 4.802 4.8c.617.546.713 1.464.25 2.122l-.108.137c-.584.663-1.592.726-2.253.14l-4.946-4.942-4.874 4.874a1.6 1.6 0 1 1 -2.264-2.263l4.872-4.874-4.8-4.798c-.617-.546-.713-1.463-.25-2.122z" fill="#cecece" fill-opacity=".74" fill-rule="nonzero"/><text fill="#616161" font-family="LucidaGrande-Bold, Lucida Grande, sans-serif" font-size="23.723" font-weight="600" x="917.615" y="241.974">Modal</text><path d="m1086.9 335.035c1.4 0 2.534 1.134 2.534 2.534v7.602c0 1.4-1.134 2.534-2.534 2.534h-165.978c-1.4 0-2.534-1.135-2.534-2.534v-7.602c0-1.4 1.135-2.534 2.534-2.534zm36.744-24.074c1.4 0 2.534 1.135 2.534 2.534v7.602c0 1.4-1.135 2.534-2.534 2.534h-202.722c-1.4 0-2.534-1.134-2.534-2.534v-7.602c0-1.4 1.135-2.534 2.534-2.534zm21.54-24.073c1.4 0 2.534 1.135 2.534 2.534v7.602c0 1.4-1.135 2.534-2.534 2.534h-224.26c-1.4 0-2.534-1.134-2.534-2.534v-7.602c0-1.4 1.135-2.534 2.534-2.534zm0-24.073c1.4 0 2.534 1.135 2.534 2.534v7.602c0 1.4-1.135 2.534-2.534 2.534h-224.26c-1.4 0-2.534-1.134-2.534-2.534v-7.602c0-1.4 1.135-2.534 2.534-2.534z" fill="#d5e7ff" fill-opacity=".55"/><path d="m905.08 363.542h257.203m-257.835-113.397h257.203" fill="none" stroke="#e6e6e6" stroke-width="1.27"/><path d="m1076.76 379.58c0-2.208-1.792-4-4-4h-55.35c-2.208 0-4 1.792-4 4v12.272c0 2.208 1.792 4 4 4h55.35c2.208 0 4-1.792 4-4z" fill="#e4e4e4"/><path d="m1146.45 379.58c0-2.208-1.793-4-4-4h-55.35c-2.207 0-4 1.792-4 4v12.272c0 2.208 1.793 4 4 4h55.35c2.207 0 4-1.792 4-4z" fill="#9ec7ff"/></svg>