<svg xmlns="http://www.w3.org/2000/svg" xmlns:xlink="http://www.w3.org/1999/xlink" fill-rule="evenodd" stroke-linejoin="round" stroke-miterlimit="2" viewBox="0 0 2000 500"><linearGradient id="a" gradientUnits="userSpaceOnUse"><stop offset="0" stop-color="#ba2ba0"/><stop offset="1" stop-color="#470b96"/></linearGradient><linearGradient id="e" x1="1000" x2="1000" xlink:href="#a" y1="500"/><linearGradient id="f" x1="1102.36" x2="1102.36" xlink:href="#a" y1="277.961"/><linearGradient id="b" gradientUnits="userSpaceOnUse"><stop offset="0" stop-color="#ff4998"/><stop offset="1" stop-color="#5600ac"/></linearGradient><linearGradient id="g" x1="1117.77" x2="1117.77" xlink:href="#b" y1="178.491"/><linearGradient id="c" gradientUnits="userSpaceOnUse"><stop offset="0" stop-color="#ff7c58"/><stop offset="1" stop-color="#720bda"/></linearGradient><linearGradient id="h" x1="1085.51" x2="1085.51" xlink:href="#c" y1="101.559"/><linearGradient id="d" gradientUnits="userSpaceOnUse"><stop offset="0" stop-color="#ffb977"/><stop offset="1" stop-color="#8c22f7"/></linearGradient><linearGradient id="i" x1="1103.25" x2="1103.25" xlink:href="#d" y1="55.209"/><linearGradient id="j" x1="1392.06" x2="1392.06" xlink:href="#a" y1="409.742" y2="217.363"/><linearGradient id="k" x1="1391.15" x2="1391.15" xlink:href="#b" y1="382.578" y2="238.093"/><linearGradient id="l" x1="1396.37" x2="1396.37" xlink:href="#c" y1="364.18" y2="251.74"/><linearGradient id="m" x1="1394.2" x2="1394.2" xlink:href="#d" y1="342.515" y2="273.487"/><linearGradient id="n" x1="371.376" x2="371.376" xlink:href="#a" y1="250.005" y2="128.623"/><linearGradient id="o" x1="373.047" x2="373.047" xlink:href="#b" y1="226.277" y2="140.471"/><linearGradient id="p" x1="373.638" x2="373.638" xlink:href="#c" y1="209.039" y2="151.216"/><linearGradient id="q" x1="374.423" x2="374.423" xlink:href="#d" y1="199.908" y2="160.41"/><linearGradient id="r" x1="88.701" x2="88.701" xlink:href="#a" y1="500" y2="348.025"/><linearGradient id="s" x1="72.301" x2="72.301" xlink:href="#b" y1="500" y2="375.339"/><linearGradient id="t" x1="52.826" x2="52.826" xlink:href="#c" y1="500" y2="390.17"/><linearGradient id="u" x1="39.081" x2="39.081" xlink:href="#d" y1="500" y2="421.335"/><linearGradient id="v" x1="563.776" x2="563.776" xlink:href="#a" y1="140.29" y2="17.851"/><linearGradient id="w" x1="558.745" x2="558.745" xlink:href="#b" y1="120.319" y2="32.871"/><linearGradient id="x" x1="554.986" x2="554.986" xlink:href="#c" y1="103.514" y2="39.216"/><linearGradient id="y" x1="558.06" x2="558.06" xlink:href="#d" y1="90.247" y2="55.899"/><linearGradient id="z" x1="852.281" x2="852.281" xlink:href="#a" y1="499.915" y2="138.99"/><linearGradient id="A" x1="847.494" x2="847.494" xlink:href="#b" y1="499.915" y2="170.914"/><linearGradient id="B" x1="851.098" x2="851.098" xlink:href="#c" y1="499.915" y2="199.854"/><linearGradient id="C" x1="851.132" x2="851.132" xlink:href="#d" y1="499.915" y2="214.968"/><linearGradient id="D" x1="1183.51" x2="1183.51" xlink:href="#a" y1="416.174" y2="319.749"/><linearGradient id="E" x1="1184.81" x2="1184.81" xlink:href="#b" y1="395.211" y2="337.527"/><linearGradient id="F" x1="1187.68" x2="1187.68" xlink:href="#c" y1="385.415" y2="343.189"/><linearGradient id="G" x1="1187.17" x2="1187.17" xlink:href="#d" y1="379.695" y2="353.217"/><linearGradient id="H" x1="1870.59" x2="1870.59" xlink:href="#a" y1="434.035"/><linearGradient id="I" x1="1895.04" x2="1895.04" xlink:href="#b" y1="366.162"/><linearGradient id="J" x1="1923.95" x2="1923.95" xlink:href="#c" y1="315.21"/><linearGradient id="K" x1="1947.95" x2="1947.95" xlink:href="#d" y1="197.786"/><linearGradient id="L" x1="1440.45" x2="1440.45" xlink:href="#a" y1="416.166" y2="499.9"/><linearGradient id="M" x1="1435.91" x2="1435.91" xlink:href="#b" y1="432.962" y2="499.9"/><linearGradient id="N" x1="1438.09" x2="1438.09" xlink:href="#c" y1="449.844" y2="499.9"/><linearGradient id="O" x1="1440" x2="1440" xlink:href="#d" y1="465.175" y2="499.9"/><linearGradient id="P" x1="1708.4" x2="1708.4" xlink:href="#a" y1="454.964" y2="328.549"/><linearGradient id="Q" x1="1710.92" x2="1710.92" xlink:href="#b" y1="442.798" y2="343.45"/><linearGradient id="R" x1="1707.34" x2="1707.34" xlink:href="#c" y1="424.672" y2="357.191"/><linearGradient id="S" x1="1703.58" x2="1703.58" xlink:href="#d" y1="411.065" y2="368.873"/><linearGradient id="T" x1="1657.89" x2="1657.89" xlink:href="#a" y1="154.426" y2="33.044"/><linearGradient id="U" x1="373.03" x2="373.03" xlink:href="#b" y1="226.291" y2="140.485"/><linearGradient id="V" x1="1660.15" x2="1660.15" xlink:href="#c" y1="113.461" y2="55.638"/><linearGradient id="W" x1="1660.94" x2="1660.94" xlink:href="#d" y1="104.329" y2="64.831"/><linearGradient id="X" x1="126.497" x2="126.497" xlink:href="#a" y1="285.876" y2="22.934"/><linearGradient id="Y" x1="111.906" x2="111.906" xlink:href="#b" y1="257.836" y2="53.913"/><linearGradient id="Z" x1="97.947" x2="97.947" xlink:href="#c" y1="218.882" y2="82.512"/><linearGradient id="aa" x1="74.756" x2="74.756" xlink:href="#d" y1="194.579" y2="106.794"/><linearGradient id="ab" x1="921.5" x2="921.5" xlink:href="#a" y1="346.462" y2="250.03"/><linearGradient id="ac" x1="922.805" x2="922.805" xlink:href="#b" y1="325.492" y2="267.815"/><linearGradient id="ad" x1="925.682" x2="925.682" xlink:href="#c" y1="315.696" y2="273.47"/><linearGradient id="ae" x1="925.156" x2="925.156" xlink:href="#d" y1="309.976" y2="283.498"/><linearGradient id="af" x1="423.21" x2="423.21" xlink:href="#a" y1="485.235" y2="298.214"/><linearGradient id="ag" x1="422.326" x2="422.326" xlink:href="#b" y1="458.824" y2="318.368"/><linearGradient id="ah" x1="427.406" x2="427.406" xlink:href="#c" y1="440.931" y2="331.628"/><linearGradient id="ai" x1="425.295" x2="425.295" xlink:href="#d" y1="419.876" y2="352.77"/><path d="M0 0h2000v500H0z" fill="url(#e)"/><path d="M694.373 0c.6 75 29.3 159.6 129.6 175.4 43.3 6.8 82.3-7.4 124.9 10 67 27.3 70.3 73.6 165.8 89.6 137.3 22.9 204.8-90.5 340.8-157.8 62-30.8 61.5-89.2 46.4-117.2h-807.5z" fill="url(#f)"/><path d="M751.273 0c.5 53 43.1 141.4 152.6 124.9 30.9-4.7 107 .1 139.1 7 85.8 18.5 102.5 37.3 171 45.3 84.9 9.9 140.5-34.6 237.4-82.6 44.2-22 34.6-73.6 23.8-94.6z" fill="url(#g)"/><path d="M833.773 0c9.4 46 47 61.1 81.2 67 80.6 13.9 97.6 38 193.6 34.2 126.3-5 221.8-21.2 228.6-101.2z" fill="url(#h)"/><path d="M955.573 0c5 16 25 21 43.1 23 42.9 4.9 63.6 26.8 114.5 31.3 67.7 5.9 127.2-17.3 137.7-54.3z" fill="url(#i)"/><path d="M1371.8 220.18c-30.124 7.445-70.63 18.81-79.35 48.59-10.433 35.512 5.633 81.946 33.993 105.8 33.307 27.968 86.256 44.67 126.96 29.487 31.544-11.756 43.398-58.533 41.292-92.183-2.01-31.887-26.548-61.276-52.165-80.33-19.152-14.303-47.56-17.144-70.73-11.364z" fill="url(#j)"/><path d="M1353.96 249.764c-20.278 12.98-47.315 31.348-46.336 55.447 1.127 28.752 24.49 58.924 51.235 69.406 31.397 12.294 74.55 11.413 100.754-9.845 20.278-16.458 17.437-53.88 7.543-78.076-9.355-22.973-34.728-38.5-58.288-46.2-17.682-5.73-39.283-.734-54.908 9.258z" fill="url(#k)"/><path d="M1335.84 306.925c.735 19.005 4.85 47.17 22.58 54.124 20.768 8.13 60.688-.588 78.027-14.694 13.42-10.874 25.127-42.467 18.613-58.484-6.22-15.184-29.34-30.025-44.965-35.12-23.952-7.788-75.186 31.152-74.256 54.173z" fill="url(#l)"/><path d="M1371.15 327.742c9.1 4.016 17.682 17.388 27.136 14.303 11.118-3.674 29.878-11.51 32.082-23.022 3.772-19.837-2.008-32.62-17.486-38.744-7.984-3.135-20.572-13.813-40.753.5-10.726 7.592-27.625 35.266-.98 46.973z" fill="url(#m)"/><path d="M328.82 226.6c16.4 7.2 99.2 52.3 110.9-6.1 9.3-46.7-16.4-75.1-39.4-84.2-11.9-4.7-55.2-16.9-85.3 4.4-16.1 11.4-25.9 68.4 13.8 85.9z" fill="url(#n)"/><use xlink:href="#AK" fill="url(#o)"/><path d="M354.02 202.2c6.2 2.7 27.8 15.2 42-2.3 26.6-32.6.5-43.9-8.3-47.4-4.5-1.8-41.8-4.9-47.3 14.8-2 7.3-1.5 28.3 13.6 34.9z" fill="url(#p)"/><path d="M363.02 192.3c12.8 2.3 18.5 13.4 26.3 3.8 14.6-17.9-9.3-34.5-18.9-35.6-5.9-.6-11.9 1.8-14.9 12.6-1.1 4-1.4 17.6 7.5 19.2z" fill="url(#q)"/><path d="M176.175 500c6.45-35.744-13.97-80.158-37.347-107.85-27.157-32.17-76.214-44.043-118.285-44.126-6.862 0-13.928.822-20.543 2.507V500z" fill="url(#r)"/><path d="M133.2 500c4.438-7.806 7.848-15.818 9.984-24.2 8.546-33.403-23.83-70.832-53.288-88.663C64.3 371.65 29.417 373.2 0 381.55V500z" fill="url(#s)"/><path d="M92.648 500c5.505-9.04 9.655-17.626 11.627-25.473 5.67-22.104-6.738-64.833-26.254-76.625-18.53-11.216-54.602-8.75-75.145-1.9A28.03 28.03 0 0 0 0 397.163V500z" fill="url(#t)"/><path d="M60.56 500c8.916-12.737 22.474-35.786 15.818-49.63-11.586-23.994-27.733-33.074-48.892-27.363-6.78 1.807-17.83 1.9-27.486 9.203V500z" fill="url(#u)"/><path d="M558.16 137.227c16.7-6.4 107.3-32.8 74.6-82.4-26.2-39.8-64.4-41.8-87.2-32.1-11.8 5-51.1 26.8-57.5 63.2-3.5 19.4 29.6 66.8 70.1 51.3z" fill="url(#v)"/><path d="M558.66 118.527c10.2-3.9 55.3-15.3 45.5-50.3-12.4-44.8-46.5-36.6-60.4-30.6-7.2 3.1-43.8 20.7-27.8 49.6 5.7 10.5 18 40.8 42.7 31.3z" fill="url(#w)"/><path d="M558.86 102.127c6.3-2.5 30.4-8.8 28.3-31.2-4.1-41.9-30.6-31.6-39.2-27.8-4.4 1.9-33.1 26-23.2 43.9 3.6 6.4 18.8 21 34.1 15.1z" fill="url(#x)"/><path d="M558.26 88.827c10.7-7.4 22.5-3.5 21.3-15.9-2.2-23-30.9-18-38.4-12-4.6 3.7-7.2 9.6-1.7 19.5 2 3.6 11.4 13.5 18.8 8.4z" fill="url(#y)"/><path d="M642.486 499.915c1.196-60.65 69.363-98.322 49.716-143.425-23.576-54.072-127.706-36.475-151.625-90.377-17.853-40.32 13.924-109.426 56.806-123.606 44.59-14.693 117.285 18.707 120.96 64.835 2.22 27.42-20.416 60.565-22.467 91.83-3.673 57.062 125.145 23.918 198.608 102.934 38.44 41.344 115.32-8.543 172.64-6.065 45.018 1.964 117.54 44.078 98.92 103.874z" fill="url(#z)"/><path d="M694.423 499.915c-21.014-55.525 31.18-97.297 6.065-161.278-18.793-48.18-110.11-25.37-111.562-77.65-1.196-41.6-26.053-46.043-5.2-75 24.174-33.657 101.14-5.81 104.386 34.68 1.88 24.004-5.21 50.827-8.457 78.076-5.467 44.42 141.802 47.837 205.44 136.08 28.96 40.148 97.382 4.527 147.61 6.663 39.465 1.708 100.2 6.406 83.97 58.514H694.423z" fill="url(#A)"/><path d="M729.447 499.915c-17.34-46.13-23.92-106.266 15.546-118.31 49.375-15.034 68.424 72.353 159.057 96.186 39.893 10.507 103.532-13.838 143.766-26.225 22.38-6.92 62.273 4.784 48.777 48.35zM640.01 203.413c16.23 10.336 31.436 15.632 30.923 34.852-.854 34.255-17.94 42.882-33.57 34.853-18.793-9.738-35.11-27.848-34.425-47.068.77-19.306 20.843-32.973 37.073-22.637z" fill="url(#B)"/><path d="M761.565 499.915c-9.054-18.793-18.707-67.143 4.015-73.464 34.682-9.482 49.887 46.64 128.22 67.313 34.5 9.055 99.346-8.37 134.113-19.05 19.305-5.98 42.455-9.824 55.44 25.2zm-121.13-281.04c19.904 12.557 18.622 38.27 8.8 41.26-13.412 4.015-30.923-9.823-30.325-26.48s7.517-23.747 21.526-14.778z" fill="url(#C)"/><path d="M1147.6 353.712c.6 11.3-1.3 71.3 35.1 61.3 29.2-8.1 37.9-30.8 36.5-46.5-.7-8.1-6.2-36.2-26.9-47.3-11-5.8-46.1 4.9-44.7 32.5z" fill="url(#D)"/><path d="M1158.8 357.712c.3 7-1.6 36.5 21.4 37.4 29.5 1.3 31.3-21.1 30.4-30.6-.5-5-3.9-30.6-24.5-26.6-7.5 1.5-28.1 2.9-27.3 19.8z" fill="url(#E)"/><path d="M1168.7 361.012c.2 4.3-.7 20.1 13.3 23.3 26.1 5.7 25.1-12.3 24.5-18.3-.3-3.1-9.2-25.2-21.9-22.7-4.7 1-16.5 7.3-15.9 17.7z" fill="url(#F)"/><path d="M1176.9 363.312c2.3 8-2.3 14.4 5.4 16 14.3 3.2 16.9-15.2 14.8-20.9-1.3-3.5-4.4-6.2-11.4-4.9-2.6.6-10.5 4.3-8.8 9.8z" fill="url(#G)"/><path d="M1759.6 0c-47.8 61 11.5 79.5 25.9 129 11.8 40.7 62.9 57.5 87.2 92.3 47.4 67.7-38.3 161.2 127.2 212.8V0z" fill="url(#H)"/><path d="M1797.2 0c-12.1 40-11.1 66 21.9 108.6 27.3 35.3 61.4 39.2 73.5 77.7 21 66.5-17.5 188.7 107.2 179.3V0z" fill="url(#I)"/><path d="M1848 0c16.6 23 7.3 49.9 16.4 81.1 7.5 25.7 39.8 36.2 55.2 58.1 29.9 42.8-23.3 143.3 80.4 175.9V0z" fill="url(#J)"/><path d="M1898.4 0c-13.6 49 34.9 61.6 48.7 81.4 20 28.6-16.3 94.7 52.8 116.4V0z" fill="url(#K)"/><path d="M1479.2 419.2c-24.8-1.5-154.1-20.9-141.4 60.6 1.1 7.3 2.7 14 4.7 20H1544c.3-29.9-18.9-77.7-64.8-80.6z" fill="url(#L)"/><path d="M1467.12 435c-18.3-.9-95-13.3-104.5 36.5-2.2 11.4-2.1 21.5-.3 28.5h148.5s-.1-.8-.1-1.6c-1.6-16.7.8-61.1-43.6-63.4z" fill="url(#M)"/><path d="M1452.4 450.9c-11.1-.6-51.2-7.2-63.2 22.3-4.5 11.2-6.3 20.7-5.9 26.7h107c2-3 3-6.7 2.6-11-1-10.3-13.7-36.6-40.5-38z" fill="url(#N)"/><path d="M1412.62 499.9c-7.7-28 29.7-37.3 42.2-34.1 8 2 14.6 7.6 13.4 23.2-.2 2.4-1.4 8-3.7 11h-51.9z" fill="url(#O)"/><path d="M1608.6 386.884c-1.488 18.38 3.134 42.236 27.732 45.795 26.51 3.878 47.602 13.707 70.82 19.763 32.938 8.607 49.833-6.8 84.418-20.24 19.55-7.597 23.058-46.486 5.154-57.43-31.664-19.392-45.636-48.665-79.638-46.062-34.48 2.657-104.447 16.895-108.485 58.175z" fill="url(#P)"/><path d="M1622.47 388.16c-1.063 13.122 7.385 35.595 34.48 34 7.65-.478 26.086 2.444 33.736 4.834 20.507 6.43 24.173 11.37 40.695 14.823 20.508 4.25 35.01-5.525 59.715-15.14 28.742-11.157-22.1-84.58-75.97-83.144-31.133.744-89.254 9.988-92.654 44.627z" fill="url(#Q)"/><path d="M1660.88 408.24c19.39 5.153 23.004 11.316 46.486 12.484 30.92 1.54 68.003 11.582 71.456-7.862.053-19.7-45.105-56.474-83.303-55.624-39.846.797-91.22 35.967-34.64 51.002z" fill="url(#R)"/><path d="M1682.3 399.368c10.36 2.125 14.93 7.8 27.254 9.988 16.363 2.922 40.377 2.816 39.474-6.694-1.647-16.84-44.255-38.145-69.278-32.992-14.344 2.922-41.758 20.614 2.55 29.698z" fill="url(#S)"/><path d="M1615.36 131.008c16.4 7.2 99.2 52.3 110.9-6.1 9.4-46.7-16.4-75.1-39.4-84.2-11.9-4.7-55.2-16.9-85.3 4.4-16.1 11.4-25.9 68.4 13.8 85.9z" fill="url(#T)"/><use xlink:href="#AK" x="1286.54" y="-95.592" fill="url(#U)"/><path d="M1640.56 106.608c6.2 2.7 27.8 15.2 42-2.3 26.5-32.6.5-43.9-8.3-47.4-4.5-1.8-41.8-4.9-47.3 14.8-2 7.3-1.5 28.3 13.6 34.9z" fill="url(#V)"/><path d="M1649.46 96.708c12.8 2.3 18.5 13.4 26.3 3.8 14.6-17.9-9.3-34.5-18.9-35.6-5.9-.6-11.9 1.8-14.9 12.6-1 4-1.4 17.6 7.5 19.2z" fill="url(#W)"/><path d="M252.5 144.33c3.1 38.3-6.5 87.8-57.8 95.3-55.1 8-98.8 28.5-147.2 41.1-17.7 4.6-32.7 5.9-47.5 4.8v-261c8.6-1.5 17.1-2 26.8-1.3 71.9 5.5 217.3 35.2 225.7 121.1z" fill="url(#X)"/><path d="M223.6 146.93c2.2 27.3-15.4 74.1-71.7 70.7-15.9-1-54.1 5-70.1 10-41.5 12.9-49.7 23.1-81.8 30.2V56.93c9.9-2.2 20.5-3.3 30.9-3 64.8 1.7 185.7 20.9 192.7 93z" fill="url(#Y)"/><path d="M143.7 188.73c-40.2 10.7-47.7 23.5-96.6 26-15.4.8-31.1 2.5-47.1 4.2V98.73c23.5-10.3 48.1-16.7 71.7-16.2 83 1.8 189.7 74.8 72 106.2z" fill="url(#Z)"/><path d="M99.2 170.23c-21.5 4.4-31 16.3-56.6 20.8-13.2 2.3-29 3.8-42.6 3.5v-61.1c30.9-18.6 74.1-31.3 104.6-25 29.9 6.1 86.7 42.8-5.4 61.8z" fill="url(#aa)"/><path d="M885.588 284.027c.6 11.4-1.3 71.4 35.1 61.3 29.2-8 37.9-30.8 36.5-46.5-.7-8.1-6.2-36.2-26.9-47.3-10.9-5.8-46.1 4.9-44.7 32.5z" fill="url(#ab)"/><path d="M896.788 288.027c.3 7-1.6 36.5 21.5 37.4 29.5 1.3 31.2-21 30.4-30.6-.5-4.9-4-30.6-24.5-26.6-7.5 1.5-28.2 3-27.4 19.8z" fill="url(#ac)"/><path d="M906.688 291.327c.2 4.3-.7 20.1 13.3 23.3 26.1 5.7 25.1-12.3 24.5-18.3-.3-3.1-9.2-25.2-21.9-22.7-4.7.9-16.4 7.3-15.9 17.7z" fill="url(#ad)"/><path d="M914.888 293.627c2.4 7.9-2.3 14.3 5.4 16 14.3 3.2 16.9-15.2 14.8-20.8-1.3-3.6-4.4-6.3-11.4-4.9-2.6.4-10.5 4.1-8.8 9.7z" fill="url(#ae)"/><path d="M403.493 300.897c-29.3 7.3-68.7 18.3-77.2 47.2-10.1 34.5 5.5 79.7 33.1 102.9 32.4 27.2 83.8 43.4 123.5 28.7 30.6-11.4 42.2-57 40.1-89.6-2-31-25.8-59.6-50.7-78.1-18.7-13.9-46.3-16.6-68.8-11.1z" fill="url(#af)"/><path d="M386.193 329.697c-19.7 12.6-46 30.5-45.1 53.9 1.1 28 23.8 57.3 49.8 67.5 30.6 11.9 72.4 11.1 97.9-9.6 19.7-16 16.9-52.4 7.3-75.9-9.1-22.3-33.8-37.4-56.7-44.9-17-5.6-38-.7-53.2 9z" fill="url(#ag)"/><path d="M368.593 385.297c.7 18.5 4.7 45.9 21.9 52.6 20.2 7.9 59-.6 75.9-14.3 13.1-10.6 24.4-41.3 18.1-56.9-6-14.7-28.5-29.1-43.7-34.1-23.3-7.6-73.1 30.3-72.2 52.7z" fill="url(#ah)"/><path d="M402.893 405.497c8.9 3.9 17.2 16.9 26.4 13.9 10.8-3.6 29-11.2 31.2-22.4 3.7-19.3-1.9-31.7-17-37.7-7.8-3.1-20-13.5-39.7.5-10.4 7.4-26.8 34.3-.9 45.7z" fill="url(#ai)"/><defs><path id="AK" d="M342.42 213.7c10 4.4 50 28 67.7-3.7 22.6-40.6-7.5-58.8-21.5-64.4-7.3-2.9-45.7-16.1-54.6 15.7-3.3 11.6-15.9 41.7 8.4 52.4z"/></defs></svg>