<svg xmlns="http://www.w3.org/2000/svg" viewBox="0 0 2000 500" fill-rule="evenodd"><style>.B{fill-rule:nonzero}.C{fill:#77bdb7}.D{fill:#fff}.E{fill:#006964}.F{fill:#f3fafe}.G{fill:#a3d8d5}.H{fill-opacity:.5}.I{fill:#003532}.J{fill:#c8e0df}.K{fill-opacity:.33}</style><path d="M0 0h2000v500H0z" fill="#4b5f7f"/><path d="M0 432.814h2000V500H0z" fill="#2b3951"/><path d="M0 473.747h2000V500H0z" fill="#1d1530"/><g fill="#404a69"><path d="M1149.83 0h6.6v432.814h-6.6zM549.427 0h6.6v432.814h-6.6zm861.403 0h6.6v432.814h-6.6zM803.267 0h6.6v432.814h-6.6z"/><path d="M805.027 125.384h351.097v6.6H805.027zM556.02 324.47h247.286v6.6H556.02zm600.4-88.87h254.406v6.6H1156.42zm260.56-138.858h232.857v6.6H1416.98z"/><circle cx="822.966" cy="111.714" r="4.869"/><circle cx="822.966" cy="144.446" r="4.869"/><circle cx="1133.99" cy="144.446" r="4.869"/><circle cx="536.42" cy="166.28" r="4.869"/><circle cx="1168.71" cy="224.29" r="4.869"/><circle cx="1429.26" cy="85.432" r="4.869"/><circle cx="570.723" cy="312.317" r="4.869"/><circle cx="1398.75" cy="223.448" r="4.869"/><circle cx="1168.71" cy="255.187" r="4.869"/><circle cx="1429.26" cy="116.328" r="4.869"/><circle cx="570.723" cy="343.214" r="4.869"/><circle cx="1398.75" cy="254.344" r="4.869"/><circle cx="1133.99" cy="111.714" r="4.869"/><path d="M1649.83 0h6.6v432.814h-6.6zm261 0h6.6v432.814h-6.6z"/><path d="M1656.42 285.6h254.406v6.6H1656.42zm260.56-138.858h83.024v6.6h-83.024z"/><circle cx="1637.13" cy="116.403" r="4.869"/><circle cx="1668.71" cy="274.29" r="4.869"/><circle cx="1929.26" cy="135.432" r="4.869"/><circle cx="1898.75" cy="273.448" r="4.869"/><circle cx="1668.71" cy="305.187" r="4.869"/><circle cx="1929.26" cy="166.328" r="4.869"/><circle cx="1898.75" cy="304.344" r="4.869"/><circle cx="1637.13" cy="83.671" r="4.869"/><path d="M0 96.742h58.943v6.59H0z"/><path d="M58.943 0h6.6v432.814h-6.6zM319.94 0h6.6v432.814h-6.6z"/><path d="M65.534 285.6H319.94v6.6H65.534zm260.552-138.858h223.342v6.6H326.086z"/><circle cx="46.239" cy="116.403" r="4.869"/><circle cx="77.818" cy="274.29" r="4.869"/><circle cx="338.369" cy="135.432" r="4.869"/><circle cx="307.861" cy="273.448" r="4.869"/><circle cx="77.818" cy="305.187" r="4.869"/><circle cx="338.369" cy="166.328" r="4.869"/><circle cx="307.861" cy="304.344" r="4.869"/><circle cx="46.239" cy="83.671" r="4.869"/><circle cx="536.42" cy="133.548" r="4.869"/><circle cx="788.287" cy="310.613" r="4.869"/><circle cx="788.287" cy="345.18" r="4.869"/></g><path d="M997.672 214.59h30.485v30.485h-30.485z" class="C"/><path d="M997.672 219.946h30.485v1.498h-30.485zm0 6.104h30.485v1.498h-30.485zm0 6.105h30.485v1.498h-30.485zm0 6.105h30.485v1.498h-30.485z" class="B G"/><path d="M997.672 209.273v9.55h12.06c3.97 0 7.153 3.22 7.153 7.153v18.762h11.272V209.3h-30.484v-.037z" class="B C H"/><path d="M928.126 61.42v97.595a6.08 6.08 0 0 1-3.932 5.693c-.674.262-1.385.374-2.134.374-1.686 0-3.22-.674-4.307-1.797-1.124-1.086-1.798-2.622-1.798-4.307V61.42a6.11 6.11 0 0 1 6.105-6.105 6.53 6.53 0 0 1 2.134.375c.824.3 1.573.786 2.172 1.385a6.245 6.245 0 0 1 1.76 4.345z" fill="#01978f" class="B"/><path d="M928.126 61.42v97.595a6.08 6.08 0 0 1-3.932 5.693 6 6 0 0 1-2.172-1.386c-1.123-1.086-1.798-2.62-1.798-4.307V61.42a6.08 6.08 0 0 1 3.933-5.693 6 6 0 0 1 2.172 1.386c1.123 1.086 1.797 2.62 1.797 4.307z" class="B E"/><path d="M958.61 144.783v22.358c0 8.988-7.303 16.254-16.253 16.254h-4.082c-5.655 0-10.636-2.884-13.557-7.266-1.723-2.584-2.697-5.655-2.697-8.988v-22.358c0-8.2 6.067-14.98 13.932-16.104a15.83 15.83 0 0 1 2.322-.15h4.082a16.24 16.24 0 0 1 16.253 16.253z" fill="#59a8a2" class="B"/><path d="M935.954 128.68v26.253c0 9.887-4.72 18.276-11.235 21.197-1.723-2.584-2.697-5.655-2.697-8.988v-22.358c0-8.2 6.067-14.98 13.932-16.104z" class="B C"/><path d="M1097 61.42v97.595a6.08 6.08 0 0 0 3.933 5.693c.674.262 1.385.374 2.134.374 1.685 0 3.22-.674 4.307-1.797 1.124-1.086 1.798-2.622 1.798-4.307V61.42a6.11 6.11 0 0 0-6.105-6.105 6.53 6.53 0 0 0-2.134.375 6 6 0 0 0-2.173 1.385 6.245 6.245 0 0 0-1.76 4.345z" fill="#01978f" class="B"/><path d="M1097 61.42v97.595a6.08 6.08 0 0 0 3.933 5.693 6.02 6.02 0 0 0 2.172-1.386c1.123-1.086 1.797-2.62 1.797-4.307V61.42a6.08 6.08 0 0 0-3.932-5.693 6 6 0 0 0-2.172 1.386c-1.124 1.086-1.798 2.62-1.798 4.307z" class="B E"/><path d="M1066.5 144.783v22.358c0 8.988 7.302 16.254 16.253 16.254h4.082c5.655 0 10.636-2.884 13.557-7.266 1.723-2.584 2.697-5.655 2.697-8.988v-22.358c0-8.2-6.067-14.98-13.932-16.104a15.83 15.83 0 0 0-2.322-.15h-4.082a16.24 16.24 0 0 0-16.253 16.253z" fill="#59a8a2" class="B"/><path d="M1089.16 128.68v26.253c0 9.887 4.72 18.276 11.235 21.197 1.723-2.584 2.697-5.655 2.697-8.988v-22.358c0-8.2-6.067-14.98-13.932-16.104z" class="B C"/><path d="M1086.13 198.337c0 8.988-7.266 16.254-16.254 16.254h-113.85a16.24 16.24 0 0 1-16.253-16.254v-83.364a16.24 16.24 0 0 1 16.253-16.254h113.85c8.988 0 16.254 7.266 16.254 16.254v83.364z" class="B J"/><path d="M946.927 205.528v-83.365a16.24 16.24 0 0 1 16.253-16.253h113.85a16.19 16.19 0 0 1 7.34 1.76c-2.696-5.318-8.164-8.95-14.53-8.95H956a16.24 16.24 0 0 0-16.254 16.254v83.364c0 6.33 3.633 11.835 8.95 14.53a16.166 16.166 0 0 1-1.76-7.34z" class="B F"/><path d="M1001.94 144.446c0 8.464-6.853 15.317-15.317 15.317s-15.317-6.853-15.317-15.317 6.853-15.317 15.317-15.317c8.464.037 15.317 6.853 15.317 15.317z" class="B I"/><circle cx="994.601" cy="144.446" r="5.505" class="D"/><path d="M1054.63 144.446c0 8.464-6.854 15.317-15.317 15.317s-15.318-6.853-15.318-15.317 6.854-15.317 15.318-15.317c8.463.037 15.317 6.853 15.317 15.317z" class="B I"/><circle cx="1047.29" cy="144.446" r="5.505" class="D"/><g class="B"><path d="M1055.9 201.034h-83.027c-4.72 0-8.614-3.858-8.614-8.614v-5.618c0-4.718 3.858-8.613 8.614-8.613h83.027c4.72 0 8.614 3.857 8.614 8.613v5.618c-.038 4.72-3.895 8.614-8.614 8.614z" class="C"/><path d="M1053.14 196.84h-77.485a5.26 5.26 0 0 1-5.243-5.243v-3.97a5.26 5.26 0 0 1 5.243-5.243h77.485a5.26 5.26 0 0 1 5.243 5.243v3.97a5.26 5.26 0 0 1-5.243 5.243z" class="I"/><path d="M1064.1 290.84c0 28.65-23.22 51.83-51.832 51.83-28.65 0-51.83-23.22-51.83-51.83 0-28.65 23.22-51.832 51.83-51.832 28.65 0 51.832 23.182 51.832 51.832z" class="J"/><path d="M1040.7 247.472c5.356 8.164 8.464 17.94 8.464 28.425 0 28.65-23.22 51.83-51.83 51.83-10.486 0-20.26-3.108-28.425-8.464 9.25 14.12 25.242 23.444 43.367 23.444 28.65 0 51.832-23.22 51.832-51.83 0-18.163-9.288-34.155-23.407-43.405z" fill="#9fccc9"/></g><path d="M985.725 259.344h55.39v43.18h-55.39z" class="C"/><path d="M1032.43 295.26h-38.05a4.917 4.917 0 0 1-4.906-4.906V268.37c0-2.696 2.2-4.906 4.906-4.906h38.05c2.696 0 4.906 2.2 4.906 4.906v21.984a4.9 4.9 0 0 1-4.906 4.906z" class="B I"/><path d="M986.924 260.767h1.6v1.6h-1.6zm51.196 0h1.6v1.6h-1.6zm-51.196 38.65h1.6v1.6h-1.6zm51.196 0h1.6v1.6h-1.6z" fill="#b0e0e4"/><g class="B"><path d="M1001.5 299.416h-6.367a1.29 1.29 0 0 1-1.273-1.274 1.29 1.29 0 0 1 1.273-1.273h6.367a1.29 1.29 0 0 1 1.273 1.273c0 .712-.562 1.274-1.273 1.274zm30.8 0h-6.366c-.712 0-1.273-.6-1.273-1.274a1.29 1.29 0 0 1 1.273-1.273h6.366a1.29 1.29 0 0 1 1.274 1.273c0 .712-.562 1.274-1.274 1.274z" class="I"/><path d="M963.854 299.303c0-30.41 27.64-55.09 61.718-55.09 4.008 0 7.94.337 11.722 1.01-7.34-3.97-15.73-6.217-24.642-6.217-28.65 0-51.83 23.22-51.83 51.832 0 7.94 1.797 15.467 4.98 22.17a49.051 49.051 0 0 1-1.948-13.707z" class="F"/></g><ellipse cx="975.951" cy="267.096" rx="7.078" ry="12.246" class="E"/><path d="M895.32 398.397l-2.2-6.853c7.228-6.105 10.45-16.18 7.378-25.73-4.045-12.62-17.64-19.586-30.26-15.542s-19.586 17.64-15.542 30.26c1.686 5.28 5.094 9.588 9.363 12.5l-1.948 6.778c-6.366-3.707-11.46-9.662-13.856-17.227-5.206-16.178 3.745-33.593 19.923-38.8s33.593 3.746 38.8 19.924c4.232 13.145-.9 27.114-11.647 34.68zm84.114-125.42c-1.536 3.07-3.933 4.456-3.933 4.456-.187 0-18.163.487-37.637 8.8-25.092 10.7-40.072 28.987-44.53 54.303l-8.4-1.46-12.958-2.285c5.73-32.544 25.542-56.924 57.337-70.52 10.973-4.68 21.534-7.265 29.736-8.726 9.212-1.6 15.467-1.797 15.953-1.797 0 0 5.056 3.108 5.618 10.748.225 2.66-.375 4.83-1.198 6.48z" class="B C"/><path d="M964.34 256.722l-1.76.262c8.24 11.9 1.535 21.385 1.273 21.76l1.536-.262c.15-.037.337-.037.486-.075 1.087-1.685 5.918-10.336-1.535-21.684zm-67.672 71.044l.674-1.835c-5.056-5.955-11.385-7.378-16.066-7.378-1.723 0-3.258.187-4.457.412-.224.562-.4 1.16-.636 1.723 3.857-.9 13.52-1.124 20.485 7.078zm-10.86-26.14h-.188l-1.048 1.6c3.146-.337 11.534.45 18.65 11.085l.637-1c.112-.15.224-.337.337-.487-6.592-9.662-14.27-11.198-18.388-11.198zm14.082-16.74l-1.536 1.46c2.884.037 11.498 1.647 15.13 15.54l.412-.4c.337-.3.674-.637 1.05-.937-3.445-12.32-11-15.092-15.055-15.654zm19.548-13.82l-1.76.974c2.434.898 9.437 5.093 9.512 19.55l.6-.337c.412-.263.862-.487 1.274-.75-.3-12.958-6.254-17.752-9.625-19.437zm20.56-8.764l-2.06.712c2.734 1.124 9.213 5.805 7.154 20.485l1.947-.674c1.648-13.07-3.558-18.463-7.04-20.523z" class="G B"/><path d="M980.67 268.107c-.6 6.517-5.168 9.325-5.168 9.325-.187 0-18.163.487-37.637 8.8-25.092 10.71-40.072 28.987-44.53 54.303l-8.39-1.46a31.373 31.373 0 0 1-1.835-2.397c-.037 0 17.752-74.9 97.558-68.572z" class="B C H"/><path d="M899.477 342.596c-3.595-11.235-15.617-17.414-26.852-13.782-11.235 3.596-17.414 15.617-13.782 26.852 3.596 11.235 15.617 17.415 26.852 13.782 11.198-3.595 17.377-15.617 13.782-26.852z" class="B F"/><path d="M887.193 346.528c-1.423-4.456-6.217-6.89-10.673-5.467s-6.89 6.216-5.468 10.673 6.217 6.89 10.673 5.468c4.457-1.46 6.93-6.217 5.468-10.674z" class="B C"/><path d="M881.24 352.446a3.96 3.96 0 0 1-4.72-.412c-1.35-1.198-1.648-3.07-.936-4.644l5.655 5.056zm1.3-1.386l-5.73-5.13c1.46-1.048 3.52-1 4.906.262 1.424 1.236 1.723 3.296.824 4.87z" class="F B"/><path d="M974.902 261.104s-66.81-.374-93.663 63.853l-4.382-.225s21.87-63.03 96.66-65.388l1.386 1.76z" class="B D K"/><path d="M967.376 309.67c5.518-3.83 14.4-.585 19.843 7.242s5.364 17.293-.155 21.123-14.4.585-19.843-7.242-5.364-17.293.155-21.123z" class="E"/><g class="B"><path d="M985.65 337.203c-2.134 1.573-26.252 20.298-26.252 60.932H928.8c0-59.097 38.236-86.173 39.884-87.297 0 0 11.048-2.21 17.115 7.94a18.915 18.915 0 0 1 2.397 6.18c1.273 7.116-2.547 12.246-2.547 12.246z" class="C"/><path d="M983.03 339.375c-4.794-14.755-18.5-18.538-24.53-19.474-.45.45-.862.936-1.348 1.423 5.018.562 19.848 3.52 24.492 19.362a37.6 37.6 0 0 1 1.386-1.31zm-36.066-4.943l-.974 1.535c5.28.45 20.823 2.847 26.365 16.03l1.124-1.648c-5.917-12.47-20.4-15.28-26.515-15.916zm-7.902 14.456l-.712 1.6c5.543.112 20.598 1.536 27.714 13.407a40.1 40.1 0 0 1 .824-1.872c-7.5-11.198-21.684-12.958-27.826-13.145zM932.77 366.5l-.412 1.648c6.142-.6 21.497-.674 28.8 11.647.15-.786.337-1.573.487-2.322-7.828-11.235-22.32-11.497-28.875-10.973zm-3.37 19.174l-.15 1.648c6.142-1.124 20.56-2.472 30.222 7.04l.113-2.172c-9.925-8.65-23.706-7.602-30.185-6.516z" class="G"/><path d="M985.65 337.203c-2.134 1.573-26.252 20.298-26.252 60.932h-12.022c.824-18.05 6.554-59.097 40.783-73.14 1.31 7.08-2.51 12.21-2.51 12.21z" class="C H"/><path d="M977.598 426.7h-97.595c0-20.224 21.833-36.59 48.798-36.59 5.467 0 10.7.674 15.616 1.9 19.287 4.906 33.18 18.575 33.18 34.68z" class="J"/><path d="M977.598 426.7h-67.635c-.936-2.322-1.086-4.644.112-6.74l45.053-4.42c6.18-.6 9.25-7.864 5.318-12.658-3.483-4.232-8.613-8.576-16.066-10.86 19.324 4.906 33.218 18.575 33.218 34.68z" fill="#97c4c2"/><path d="M944.417 392.03c-40.97-2.81-52.88 30.222-52.88 30.222-.486 1.124-5.954 2.92-11.3 4.457h-.187c0-20.224 21.834-36.59 48.798-36.59 5.43 0 10.673.674 15.58 1.9z" fill="#e6f5f7"/></g><path d="M877.98 419.97h101.528v12.845H877.98z" fill="#66ada7"/><path d="M938.35 383.717s5.918-45.99 35.166-65.164l-3.408-4.232s-31.01 19.96-35.278 69.396h3.52z" class="B D K"/><path d="M875.696 423.714H983.03v6.104H875.696z" fill="#468f89"/><ellipse cx="1050.48" cy="267.096" rx="7.078" ry="12.246" class="E"/><path d="M1131.1 398.397l2.2-6.853c-7.228-6.105-10.45-16.18-7.378-25.73 4.045-12.62 17.64-19.586 30.26-15.542s19.587 17.64 15.542 30.26c-1.685 5.28-5.093 9.588-9.362 12.5l1.947 6.778c6.367-3.707 11.46-9.662 13.857-17.227 5.205-16.178-3.745-33.593-19.924-38.8s-33.593 3.746-38.8 19.924c-4.23 13.145.9 27.114 11.648 34.68zm-84.1-125.42c1.535 3.07 3.932 4.456 3.932 4.456.188 0 18.164.487 37.638 8.8 25.092 10.7 40.072 28.987 44.528 54.303l8.4-1.46 12.958-2.285c-5.73-32.544-25.578-56.887-57.374-70.48-10.973-4.682-21.534-7.266-29.735-8.726-9.213-1.6-15.467-1.798-15.954-1.798 0 0-5.056 3.108-5.618 10.748-.187 2.622.412 4.794 1.236 6.442z" class="B C"/><path d="M1062.1 256.722l1.76.262c-8.24 11.9-1.536 21.385-1.274 21.76l-1.535-.262c-.15-.037-.337-.037-.487-.075-1.086-1.685-5.917-10.336 1.536-21.684zm67.66 71.044l-.674-1.835c5.056-5.955 11.385-7.378 16.066-7.378a24.39 24.39 0 0 1 4.457.412c.225.562.412 1.16.637 1.723-3.858-.9-13.52-1.124-20.486 7.078zm10.86-26.14h.187l1.05 1.6c-3.146-.337-11.535.45-18.65 11.085l-.637-1c-.112-.15-.225-.337-.337-.487 6.6-9.662 14.268-11.198 18.388-11.198zm-14.08-16.74l1.535 1.46c-2.884.037-11.497 1.647-15.13 15.54l-.412-.4c-.337-.3-.674-.637-1.048-.937 3.445-12.32 11-15.092 15.055-15.654zm-19.54-13.82l1.76.974c-2.435.898-9.438 5.093-9.513 19.55l-.6-.337c-.412-.263-.86-.487-1.273-.75.3-12.958 6.254-17.752 9.625-19.437zm-20.57-8.764l2.06.712c-2.734 1.124-9.213 5.805-7.153 20.485l-1.947-.674c-1.648-13.07 3.557-18.463 7.04-20.523z" class="G B"/><path d="M1045.76 268.107c.6 6.517 5.168 9.325 5.168 9.325.188 0 18.164.487 37.638 8.8 25.092 10.71 40.072 28.987 44.528 54.303l8.39-1.46a31.118 31.118 0 0 0 1.835-2.397c.038 0-17.75-74.9-97.558-68.572z" class="B C H"/><path d="M1126.95 342.596c3.595-11.235 15.616-17.414 26.85-13.782 11.236 3.596 17.415 15.617 13.782 26.852-3.595 11.235-15.617 17.415-26.852 13.782-11.197-3.595-17.377-15.617-13.78-26.852z" class="B F"/><path d="M1139.23 346.528c1.423-4.456 6.217-6.89 10.674-5.467s6.89 6.216 5.467 10.673-6.216 6.89-10.673 5.468c-4.457-1.46-6.928-6.217-5.468-10.674z" class="B C"/><path d="M1145.2 352.446a3.96 3.96 0 0 0 4.72-.412c1.35-1.198 1.647-3.07.936-4.644l-5.655 5.056zm-1.32-1.386l5.73-5.13c-1.46-1.048-3.52-1-4.906.262-1.423 1.236-1.723 3.296-.824 4.87z" class="F B"/><path d="M1051.53 261.104s66.812-.374 93.664 63.853l4.382-.225s-21.87-63.03-96.66-65.388l-1.386 1.76z" class="B D K"/><path d="M1039.33 338.006c-5.518-3.83-5.588-13.295-.154-21.123s14.324-11.073 19.843-7.243 5.587 13.295.154 21.123-14.325 11.073-19.843 7.243z" class="E"/><g class="B"><path d="M1040.78 337.203c2.135 1.573 26.253 20.298 26.253 60.932h30.597c0-59.097-38.237-86.173-39.885-87.297 0 0-11.048-2.21-17.115 7.94-1.3 2.172-2.022 4.27-2.396 6.18-1.274 7.116 2.546 12.246 2.546 12.246z" class="C"/><path d="M1043.4 339.375c4.793-14.755 18.5-18.538 24.53-19.474.45.45.86.936 1.348 1.423-5.018.562-19.85 3.52-24.493 19.362a38.64 38.64 0 0 0-1.385-1.311zm36.06-4.943l.974 1.535c-5.28.45-20.822 2.847-26.365 16.03l-1.123-1.648c5.917-12.47 20.4-15.28 26.514-15.916zm7.9 14.456l.7 1.6c-5.543.112-20.598 1.536-27.713 13.407a41.183 41.183 0 0 0-.824-1.872c7.5-11.198 21.684-12.958 27.826-13.145zm6.3 17.602l.412 1.648c-6.142-.6-21.496-.674-28.8 11.647-.15-.786-.337-1.573-.487-2.322 7.827-11.235 22.32-11.497 28.874-10.973zm3.37 19.174l.15 1.648c-6.142-1.124-20.56-2.472-30.223 7.04l-.112-2.172c9.924-8.65 23.706-7.602 30.185-6.516z" class="G"/><path d="M1040.78 337.203c2.135 1.573 26.253 20.298 26.253 60.932h12.022c-.824-18.05-6.554-59.097-40.784-73.14-1.31 7.08 2.51 12.21 2.51 12.21z" class="C H"/><path d="M1048.83 426.7h97.596c0-20.224-21.834-36.59-48.798-36.59a64.43 64.43 0 0 0-15.617 1.9c-19.287 4.906-33.18 18.575-33.18 34.68z" class="J"/><path d="M1048.83 426.7h67.635c.937-2.322 1.087-4.644-.112-6.74l-45.1-4.382c-6.18-.6-9.25-7.865-5.318-12.658 3.483-4.232 8.613-8.577 16.066-10.86-19.287 4.87-33.18 18.538-33.18 34.642z" fill="#97c4c2"/><path d="M1082 392.03c40.97-2.81 52.88 30.222 52.88 30.222.487 1.124 5.955 2.92 11.3 4.457h.187c0-20.224-21.833-36.59-48.798-36.59-5.43 0-10.673.674-15.58 1.9z" fill="#e6f5f7"/></g><path d="M1046.96 419.97h101.528v12.845H1046.96z" fill="#66ada7"/><path d="M1088.08 383.717s-5.917-45.99-35.166-65.164l3.408-4.232s31.01 19.96 35.278 69.396h-3.52z" class="B D K"/><path d="M1043.4 423.714h107.333v6.104H1043.4z" fill="#468f89"/><path d="M999.17 278.33l-.225-.224v-3.034c.075-.3.262-.487.524-.524l.338.86v2.285l-.637.636zm.637.787v2.284l-.338.862c-.3-.075-.486-.263-.524-.525v-3.033l.225-.225.637.637zm2.808-1.2l.45.45-.45.45h-2.808l-.45-.45.45-.45h2.808zm0-.337v-2.284l.337-.862c.3.075.487.263.525.525v3.033l-.225.225-.637-.637zm.637.862l.225.224v3.034c-.075.3-.262.487-.525.524l-.337-.86v-2.247l.637-.674zm2.168-2.92v2.06l-.637.637-.224-.225v-2.8l.86.337zm-.86 5.955v-2.8l.224-.224.637.636v2.06l-.86.337zm4.12.75h-3.558c-.3-.075-.486-.262-.524-.524l.862-.337h2.92l.3.86zm-.337-6.9h-2.92l-.86-.337c.075-.3.262-.487.524-.524h3.558l-.3.86zm-.112 2.584l.45.45-.45.45h-2.8l-.45-.45.45-.45h2.8zm1.73.335l-.225-.224v-3.034c.075-.3.262-.487.524-.524l.337.86v2.285l-.636.636zm.674.862v2.284l-.337.862c-.3-.075-.487-.263-.525-.525v-3.033l.225-.225.637.637zm.224 2.247h2.584l.862.337c-.075.3-.262.487-.524.524h-3.26l.337-.86zm4.742-3.11l-.225-.224v-3.034c.075-.3.262-.487.524-.524l.337.86v2.285l-.636.636zm.636.862v2.284l-.337.862c-.3-.075-.487-.263-.524-.525v-3.033l.225-.225.636.637zm.225 2.247h2.584l.86.337c-.075.3-.262.487-.524.524h-3.258l.337-.86zm4.77-3.11l-.225-.224v-2.472l.525-.524.337.337v2.284l-.637.6zm.637.862v2.284l-.337.337-.525-.524v-2.472l.225-.225.637.6zm2.62-3.783h-2.397l-.45-.45.45-.45h2.397l.45.45-.45.45zm.412 6.48l-.45.45h-2.397l-.45-.45.45-.45h2.397l.45.45zm-.224-4.232V275.3l.337-.337.524.524v2.472l-.225.224-.636-.6zm.674.862l.224.224v2.472l-.524.524-.337-.337v-2.2l.637-.674zm1.27 2.92h.86v.86h-.86zm1.95 0h.86v.86h-.86zm1.95 0h.86v.86h-.86z" fill="#479580" class="B"/><clipPath id="A"><path d="M619.58 103.74H747.1V250H619.58z"/></clipPath><g clip-path="url(#A)" stroke-width=".36"><path d="M654.535 181.13c-2.76-.65-8.443-2.436-14.453-6.172 6.495-3.735 12.342-4.384 14.453-4.547a48.28 48.28 0 0 1 1.463-6.983c-2.112-1.624-6.17-4.87-9.906-9.745 6.007-.485 11.205.327 13.802.814 1.3-2.274 2.924-4.386 4.874-6.497a41.462 41.462 0 0 1-4.547-11.206c4.87 2.11 8.443 4.7 10.23 6.17 2.436-1.785 5.035-3.248 7.634-4.547 0-2.273 0-6.334.973-11.206 3.41 3.574 5.522 6.983 6.334 8.77 3.248-.65 6.66-.975 10.23-.812.65-1.787 1.95-4.87 4.223-8.607 1.624 4.223 2.274 7.632 2.6 9.42 3.572.812 6.983 1.948 10.23 3.574 5.198-4.386 10.07-6.334 15.753-7.797 0-7.146-.973-14.13-4.708-21.112-3.735-1.787-7.797-3.084-11.857-4.06a49.04 49.04 0 0 0-10.555 7.631 49.969 49.969 0 0 0-8.282-9.743c-1.626 0-4.7-.163-10.72.812a50.838 50.838 0 0 0-6.66 11.206c-3.572-2.275-7.956-4.223-12.99-5.522-2.923 1.3-5.685 2.762-8.445 4.386-.975 4.708-1.3 9.094-1.137 13.154a45.817 45.817 0 0 0-14.292-.488c-1.787 1.95-3.572 4.06-5.196 6.334.325 5.847 1.785 10.882 3.897 15.266a43.072 43.072 0 0 0-14.617 6.497c-.65 2.11-1.136 4.384-1.624 6.495 2.924 5.035 6.66 9.095 10.394 12.18-3.735 3.085-7.47 7.308-10.88 12.99a48.49 48.49 0 0 0 1.46 6.985h.164c3.896-8.12 8.606-13.48 13.154-17.052 9.257 6.332 18.35 8.12 19.65 8.282-.163-1.463-.488-2.923-.65-4.873zm61.714-69.02c3.248 4.872 4.384 10.88 4.71 14.3-2.924 1.137-7.47 3.248-11.855 6.822-.65-3.086-1.787-7.634-4.223-12.83 2.924-2.923 6.66-5.846 11.37-8.282zm-28.42-3.25c3.898 3.25 6.822 7.146 8.933 10.72-3.41 4.384-5.522 8.607-6.658 11.53-1.626-2.924-4.548-6.822-8.934-10.72 1.463-3.735 3.573-7.796 6.66-11.532zm-27.77 7.958c5.684 1.14 10.07 3.248 13.805 5.847a51.354 51.354 0 0 0-1.95 13.968c-2.923-2.112-7.144-4.7-12.666-6.497-.488-3.897-.325-8.444.81-13.318zm-6.01 17.865c1.138 6.334 3.25 11.205 4.873 14.292-3.735-.65-9.42-1.136-15.753-.325a36.692 36.692 0 0 1-4.06-14.78c5.522-.65 10.557-.162 14.94.812zm-28.42 25.985c4.71-3.41 9.907-5.198 14.617-6.17 3.41 5.36 7.632 9.256 10.555 11.692a40.89 40.89 0 0 0-15.102 5.846c-3.574-2.76-7.146-6.495-10.07-11.367z" stroke="#2db24a" class="D"/><g fill="#43b02a" stroke="#43b02a"><path d="M685.555 135.98c-.975-1.787-2.923-5.36-6.334-8.77-1.136 4.872-1.136 9.095-.975 11.206-.16 0 3.087-1.624 7.3-2.436zm-15.105 6.823a40.95 40.95 0 0 0-10.23-6.17 41.195 41.195 0 0 0 4.547 11.206c0 .324 2.272-2.438 5.683-5.035zm19.653-11.703c1.136-2.924 3.247-7.147 6.658-11.53a38.81 38.81 0 0 0-8.933-10.72c-3.086 3.9-5.196 7.797-6.66 11.694 4.386 3.735 7.147 7.633 8.934 10.557zm-30.046 23.396c-2.598-.487-7.794-1.3-13.804-.814 3.574 5.035 7.633 8.285 9.906 9.745-.16.163 1.138-4.222 3.898-8.93zm-24.197 17.538c5.847-3.735 11.37-5.36 15.104-5.846-2.923-2.436-7.146-6.333-10.557-11.692a39.23 39.23 0 0 0-14.616 6.171 36.43 36.43 0 0 0 10.069 11.367zm18.675-1.46c-2.272.162-7.958.65-14.453 4.548 6 3.735 11.693 5.522 14.453 6.17-.487-3.572-.487-7.308 0-10.72zm19.327-47.91c-3.574-2.436-8.12-4.547-13.805-5.847a42.995 42.995 0 0 0-.975 13.318c5.523 1.787 9.745 4.385 12.67 6.497 0-3.25.487-8.284 2.1-13.968zM723.88 110.8s4.547 13.966 4.7 21.113c-5.522 1.3-10.393 3.247-15.753 7.794 2.924 1.463 5.523 3.248 7.96 5.36 2.597 2.274 5.034 3.247 8.443 1.623 1.95-1.3 12.83-12.505 13.968-13.966 2.597-2.76 1.948-7.307-.812-9.418-6.822-6.334-18.515-12.506-18.515-12.506zm-100.85 45.3c4.872-3.25 9.745-5.36 14.617-6.497-2.1-4.384-3.574-9.42-3.898-15.266-4.7 6.66-8.444 14.13-10.72 21.763zm35.728-7.146c-1.624-3.087-3.735-8.12-4.872-14.292-4.386-.974-9.257-1.46-14.94-.65.325 5.683 1.95 10.555 4.06 14.778a49.53 49.53 0 0 1 15.753.163z"/><path d="M638.945 128.186c5.196-.65 10.068-.324 14.3.488-.162-4.062.163-8.446 1.138-13.156 2.76-1.624 5.52-3.085 8.444-4.384 5.197 1.3 9.42 3.248 12.992 5.522a50.845 50.845 0 0 1 6.66-11.206c-14.778 2.273-28.746 8.768-39.464 18.838-3.4 3.086-6.495 6.658-9.257 10.394 1.623-2.436 3.4-4.547 5.197-6.496zm-16.728 31.182l.812-3.248-.812 3.248zm9.745 15.59c-3.735-3.084-7.47-7.146-10.393-12.178-1.626 8.282-1.626 17.052-.327 25.17 3.087-5.683 6.822-9.745 10.72-12.993zm109.135 41.9c-10.233-9.743-12.342-16.077-20.95-9.42-23.548 18.515-57.5 7.47-64.636-21.275-1.3-.16-10.394-1.948-19.65-8.282-4.547 3.574-9.258 9.094-13.154 17.052h-.163c14.78 55.868 86.722 68.86 120.015 33.942 5.523-5.845.488-9.906-1.46-12.018zM716.25 112.1c-4.7 2.273-8.445 5.196-11.37 8.282 2.436 5.196 3.573 9.907 4.223 12.83 4.547-3.574 9.095-5.685 11.855-6.822-.325-3.247-1.46-9.257-4.7-14.3zM700 126.562a44.157 44.157 0 0 0-4.223 8.607c2.273.163 4.547.488 6.82.975-.16-1.95-.973-5.36-2.597-9.582zm18.024-18.027c-.8-.324-1.785-.65-2.597-.812.974.163 1.786.488 2.597.812zm-16.564 5.683a48.935 48.935 0 0 1 10.557-7.63c-6-1.463-12.18-2.112-18.84-2.112a50.395 50.395 0 0 1 8.283 9.743z"/></g></g><clipPath id="B"><path d="M1221.85 51.05h133.244v133.244H1221.85z"/></clipPath><g clip-path="url(#B)" class="B"><path d="M1285.5 183.823c-16.18-.59-26.195-5.387-28.743-13.77l-.296-.975-.042-16.438c-.047-18.812-.03-19.194.97-22.19 1.828-5.467 6.15-8.99 12.907-10.527l1.495-.34 18.58-.082 19.468-.236c3.722-.64 6.162-1.602 8.454-3.326 2.737-2.06 4.997-5.587 6.007-9.375.758-2.845.738-2.534.82-12.53l.076-9.29h13.384l1.3.363c6.962 1.945 12.016 8.54 14.17 18.49.827 3.826.836 3.968.838 13.73.001 9.5-.004 9.584-.667 12.7-.653 3.064-1.507 5.556-2.783 8.122-2.574 5.174-6.368 8.677-11.168 10.306-2.74.93-.447.853-27.417.93l-24.3.07v4.418l32.226.13.065 7.927-.035 8.758c-.133 1.106-.602 2.418-1.273 3.56-.69 1.177-2.8 3.282-4.215 4.227-4.327 2.872-10.925 4.623-19.62 5.207-2.926.196-7.07.252-10.2.14zm22.35-10.27c3.106-.504 5.33-3.544 4.817-6.586a5.905 5.905 0 0 0-4.855-4.864c-3.81-.632-7.274 2.867-6.596 6.66.493 2.76 2.706 4.702 5.595 4.912.107.008.575-.047 1.04-.122zm-69.236-23.447c-3.655-.664-7.254-2.88-9.798-6.03-4.817-5.966-7.25-15.914-6.944-28.404.19-7.784 1.354-13.56 3.722-18.476 3.05-6.336 7.6-10.093 13.764-11.344 1.348-.274 1.415-.275 25.158-.265l24.02-.073c.186-.07.213-.36.213-2.277l-.032-2.226c-.018-.018-7.284-.062-16.146-.098l-16.113-.066-.034-8.374c-.036-9.172-.043-9.066.742-10.75 2.722-5.84 10.74-9.387 23.59-10.437.93-.076 3.444-.173 5.588-.215 14.227-.28 24.662 2.323 30.148 7.516.608.575 1.4 1.433 1.76 1.908.82 1.078 1.84 3.136 2.23 4.5l.298 1.04v17.282l-.235 18.517c-.283 1.487-.964 3.576-1.53 4.7-1.963 3.892-5.578 6.696-10.37 8.042-3.113.875-1.7.817-22.3.907-20.458.09-19.222.04-22.1.852-5.57 1.574-9.663 5.913-11.326 12.008-.748 2.74-.73 2.483-.813 12.54l-.076 9.356-6.237.02c-4.71.017-6.47-.02-7.19-.152zm34.06-77.736c2.365-1.112 3.79-3.716 3.36-6.146-.395-2.242-1.935-4.03-4.023-4.676-3.34-1.032-6.823 1.096-7.44 4.543-.5 2.804 1.12 5.533 3.863 6.502.613.217 1.008.26 2.058.23 1.145-.034 1.405-.088 2.18-.452z" fill="#fed142"/><path d="M1238.62 150.105c-3.655-.664-7.254-2.88-9.798-6.03-4.817-5.966-7.25-15.914-6.944-28.404.19-7.784 1.354-13.56 3.722-18.476 3.05-6.336 7.6-10.093 13.764-11.344 1.348-.274 1.415-.275 25.158-.265l24.02-.073c.186-.07.213-.36.213-2.277l-.032-2.226c-.018-.018-7.284-.062-16.146-.098l-16.113-.066-.034-8.374c-.036-9.172-.043-9.066.742-10.75 2.722-5.84 10.74-9.387 23.59-10.437.93-.076 3.444-.173 5.588-.215 14.227-.28 24.662 2.323 30.148 7.516.608.575 1.4 1.433 1.76 1.908.82 1.078 1.84 3.136 2.23 4.5l.298 1.04v17.282l-.235 18.517c-.283 1.487-.964 3.576-1.53 4.7-1.963 3.892-5.578 6.696-10.37 8.042-3.113.875-1.7.817-22.3.907-20.458.09-19.222.04-22.1.852-5.57 1.574-9.663 5.913-11.326 12.008-.748 2.74-.73 2.483-.813 12.54l-.076 9.356-6.237.02c-4.71.017-6.47-.02-7.19-.152zm34.06-77.736c2.365-1.112 3.79-3.716 3.36-6.146-.395-2.242-1.935-4.03-4.023-4.676-3.34-1.032-6.823 1.096-7.44 4.543-.5 2.804 1.12 5.533 3.863 6.502.613.217 1.008.26 2.058.23 1.145-.034 1.405-.088 2.18-.452z" fill="#3571a3"/></g></svg>