<?xml version="1.0" encoding="UTF-8" standalone="no"?><!DOCTYPE svg PUBLIC "-//W3C//DTD SVG 1.1//EN" "http://www.w3.org/Graphics/SVG/1.1/DTD/svg11.dtd"><svg width="100%" height="100%" viewBox="0 0 1000 500" version="1.1" xmlns="http://www.w3.org/2000/svg" xmlns:xlink="http://www.w3.org/1999/xlink" xml:space="preserve" xmlns:serif="http://www.serif.com/" style="fill-rule:evenodd;clip-rule:evenodd;stroke-miterlimit:10;"><rect x="0" y="0" width="1000" height="500" style="fill:url(#_Radial1);"/><clipPath id="_clip2"><polygon points="515.665,375.759 784.441,340.83 794.57,418.775 525.794,453.704 515.665,375.759 "/></clipPath><g clip-path="url(#_clip2)"><g><path d="M607.768,389.139c0.987,7.593 -4.391,14.579 -11.984,15.565m11.984,-15.565c-0.986,-7.592 4.392,-14.578 11.985,-15.564l53.89,-7.004" style="fill:none;fill-rule:nonzero;stroke:#fff;stroke-width:1.36px;"/><path d="M633.417,364.624c3.894,-0.506 7.467,2.245 7.973,6.139c0.506,3.894 -2.245,7.466 -6.139,7.972c-3.894,0.506 -7.466,-2.244 -7.972,-6.138c-0.506,-3.894 2.244,-7.467 6.138,-7.973Z" style="fill:#b18be8;stroke:#fff;stroke-width:1.36px;"/><path d="M665.67,360.433c3.894,-0.506 7.467,2.244 7.973,6.138c0.506,3.894 -2.245,7.467 -6.139,7.973c-3.894,0.506 -7.466,-2.245 -7.972,-6.139c-0.506,-3.894 2.244,-7.466 6.138,-7.972Z" style="fill:#b18be8;stroke:#fff;stroke-width:1.36px;"/><path d="M705.655,404.433c-0.986,-7.593 -7.972,-12.971 -15.564,-11.984m15.564,11.984c0.987,7.593 7.972,12.972 15.565,11.985l53.89,-7.003" style="fill:none;fill-rule:nonzero;stroke:#fff;stroke-width:1.36px;"/><path d="M734.851,407.472c3.894,-0.506 7.466,2.245 7.972,6.139c0.506,3.894 -2.244,7.466 -6.138,7.972c-3.894,0.506 -7.467,-2.245 -7.973,-6.139c-0.506,-3.894 2.245,-7.466 6.139,-7.972Z" style="fill:#4ed1a1;stroke:#fff;stroke-width:1.36px;"/><path d="M767.104,403.281c3.894,-0.506 7.466,2.244 7.972,6.138c0.506,3.894 -2.244,7.466 -6.138,7.972c-3.894,0.506 -7.466,-2.244 -7.973,-6.138c-0.506,-3.894 2.245,-7.466 6.139,-7.972Z" style="fill:#4ed1a1;stroke:#fff;stroke-width:1.36px;"/><g><path d="M538.669,412.127l186.463,-24.232" style="fill:none;fill-rule:nonzero;stroke:#fff;stroke-width:1.36px;"/><path d="M544.807,404.154c3.894,-0.506 7.467,2.245 7.973,6.139c0.506,3.894 -2.245,7.466 -6.139,7.972c-3.894,0.506 -7.466,-2.244 -7.972,-6.138c-0.506,-3.894 2.244,-7.467 6.138,-7.973Z" style="fill:#b3e3ff;stroke:#fff;stroke-width:1.36px;"/><path d="M577.06,399.963c3.894,-0.506 7.467,2.244 7.973,6.138c0.506,3.894 -2.245,7.467 -6.139,7.973c-3.894,0.506 -7.466,-2.245 -7.972,-6.139c-0.506,-3.894 2.244,-7.466 6.138,-7.972Z" style="fill:#b3e3ff;stroke:#fff;stroke-width:1.36px;"/><path d="M636.662,392.218c3.893,-0.507 7.466,2.244 7.972,6.138c0.506,3.894 -2.245,7.466 -6.139,7.972c-3.894,0.506 -7.466,-2.244 -7.972,-6.138c-0.506,-3.894 2.245,-7.466 6.139,-7.972Z" style="fill:#b3e3ff;stroke:#fff;stroke-width:1.36px;"/><path d="M669.251,387.982c3.894,-0.506 7.466,2.245 7.972,6.139c0.506,3.894 -2.245,7.466 -6.139,7.972c-3.894,0.506 -7.466,-2.244 -7.972,-6.138c-0.506,-3.894 2.245,-7.467 6.139,-7.973Z" style="fill:#b3e3ff;stroke:#fff;stroke-width:1.36px;"/><path d="M731.271,379.923c3.894,-0.506 7.466,2.244 7.972,6.138c0.506,3.894 -2.245,7.466 -6.139,7.972c-3.894,0.506 -7.466,-2.244 -7.972,-6.138c-0.506,-3.894 2.245,-7.466 6.139,-7.972Z" style="fill:#b3e3ff;stroke:#fff;stroke-width:1.36px;"/></g></g></g><clipPath id="_clip3"><polygon points="172.642,79.278 339.457,125.519 326.047,173.895 159.232,127.654 172.642,79.278 "/></clipPath><g clip-path="url(#_clip3)"><g><path d="M223.506,110.038c-1.306,4.713 -6.206,7.486 -10.919,6.18m10.919,-6.18c1.306,-4.712 6.207,-7.486 10.919,-6.179l33.447,9.271" style="fill:none;fill-rule:nonzero;stroke:#fff;stroke-width:0.87px;"/><path d="M244.689,101.988c2.417,0.67 3.835,3.176 3.165,5.593c-0.67,2.417 -3.176,3.835 -5.593,3.165c-2.417,-0.67 -3.835,-3.176 -3.165,-5.592c0.67,-2.417 3.176,-3.836 5.593,-3.166Z" style="fill:#b18be8;stroke:#fff;stroke-width:0.87px;"/><path d="M264.707,107.537c2.417,0.67 3.835,3.176 3.165,5.593c-0.67,2.417 -3.176,3.835 -5.593,3.165c-2.417,-0.67 -3.835,-3.176 -3.165,-5.593c0.67,-2.416 3.176,-3.835 5.593,-3.165Z" style="fill:#b18be8;stroke:#fff;stroke-width:0.87px;"/><path d="M277.298,143.362c1.306,-4.713 -1.467,-9.613 -6.18,-10.919m6.18,10.919c-1.306,4.712 1.467,9.613 6.179,10.919l33.447,9.271" style="fill:none;fill-rule:nonzero;stroke:#fff;stroke-width:0.87px;"/><path d="M293.72,152.405c2.417,0.67 3.835,3.176 3.165,5.593c-0.67,2.416 -3.176,3.835 -5.593,3.165c-2.416,-0.67 -3.835,-3.176 -3.165,-5.593c0.67,-2.417 3.176,-3.835 5.593,-3.165Z" style="fill:#4ed1a1;stroke:#fff;stroke-width:0.87px;"/><path d="M313.738,157.954c2.417,0.67 3.835,3.176 3.165,5.592c-0.67,2.417 -3.176,3.835 -5.593,3.166c-2.416,-0.67 -3.835,-3.176 -3.165,-5.593c0.67,-2.417 3.176,-3.835 5.593,-3.165Z" style="fill:#4ed1a1;stroke:#fff;stroke-width:0.87px;"/><g><path d="M177.139,106.391l115.728,32.08" style="fill:none;fill-rule:nonzero;stroke:#fff;stroke-width:0.87px;"/><path d="M182.731,103.226c2.417,0.67 3.835,3.176 3.165,5.593c-0.669,2.417 -3.176,3.835 -5.592,3.165c-2.417,-0.67 -3.835,-3.176 -3.165,-5.593c0.67,-2.416 3.176,-3.835 5.592,-3.165Z" style="fill:#b3e3ff;stroke:#fff;stroke-width:0.87px;"/><path d="M202.749,108.775c2.417,0.67 3.835,3.176 3.165,5.593c-0.67,2.417 -3.176,3.835 -5.592,3.165c-2.417,-0.67 -3.835,-3.176 -3.165,-5.593c0.669,-2.416 3.175,-3.835 5.592,-3.165Z" style="fill:#b3e3ff;stroke:#fff;stroke-width:0.87px;"/><path d="M239.741,119.029c2.416,0.67 3.835,3.176 3.165,5.593c-0.67,2.417 -3.176,3.835 -5.593,3.165c-2.417,-0.67 -3.835,-3.176 -3.165,-5.593c0.67,-2.416 3.176,-3.835 5.593,-3.165Z" style="fill:#b3e3ff;stroke:#fff;stroke-width:0.87px;"/><path d="M259.967,124.636c2.417,0.67 3.835,3.176 3.165,5.593c-0.67,2.417 -3.176,3.835 -5.593,3.165c-2.416,-0.67 -3.835,-3.176 -3.165,-5.593c0.67,-2.417 3.176,-3.835 5.593,-3.165Z" style="fill:#b3e3ff;stroke:#fff;stroke-width:0.87px;"/><path d="M298.46,135.306c2.417,0.67 3.835,3.176 3.165,5.593c-0.67,2.417 -3.176,3.835 -5.593,3.165c-2.417,-0.67 -3.835,-3.176 -3.165,-5.593c0.67,-2.417 3.176,-3.835 5.593,-3.165Z" style="fill:#b3e3ff;stroke:#fff;stroke-width:0.87px;"/></g></g></g><clipPath id="_clip4"><polygon points="579.049,126.75 683.861,118.66 686.207,149.056 581.395,157.145 579.049,126.75 "/></clipPath><g clip-path="url(#_clip4)"><g><path d="M614.453,133.796c0.228,2.961 -1.996,5.558 -4.957,5.787m4.957,-5.787c-0.229,-2.961 1.996,-5.557 4.957,-5.786l21.014,-1.622" style="fill:none;fill-rule:nonzero;stroke:#fff;stroke-width:0.53px;"/><path d="M624.883,124.82c1.519,-0.117 2.847,1.02 2.964,2.539c0.117,1.518 -1.02,2.846 -2.539,2.964c-1.518,0.117 -2.846,-1.021 -2.964,-2.539c-0.117,-1.519 1.021,-2.847 2.539,-2.964Z" style="fill:#b18be8;stroke:#fff;stroke-width:0.53px;"/><path d="M637.461,123.849c1.518,-0.117 2.846,1.021 2.963,2.539c0.118,1.519 -1.02,2.847 -2.538,2.964c-1.519,0.117 -2.847,-1.021 -2.964,-2.539c-0.117,-1.519 1.02,-2.846 2.539,-2.964Z" style="fill:#b18be8;stroke:#fff;stroke-width:0.53px;"/><path d="M652.058,141.701c-0.229,-2.961 -2.826,-5.185 -5.786,-4.957m5.786,4.957c0.228,2.961 2.825,5.186 5.786,4.957l21.015,-1.622" style="fill:none;fill-rule:nonzero;stroke:#fff;stroke-width:0.53px;"/><path d="M663.304,143.469c1.519,-0.117 2.847,1.021 2.964,2.539c0.117,1.519 -1.02,2.847 -2.539,2.964c-1.518,0.117 -2.846,-1.021 -2.963,-2.539c-0.118,-1.519 1.02,-2.847 2.538,-2.964Z" style="fill:#4ed1a1;stroke:#fff;stroke-width:0.53px;"/><path d="M675.882,142.499c1.518,-0.118 2.846,1.02 2.964,2.538c0.117,1.519 -1.021,2.847 -2.539,2.964c-1.519,0.117 -2.847,-1.02 -2.964,-2.539c-0.117,-1.518 1.02,-2.846 2.539,-2.963Z" style="fill:#4ed1a1;stroke:#fff;stroke-width:0.53px;"/><g><path d="M587.223,141.301l72.713,-5.611" style="fill:none;fill-rule:nonzero;stroke:#fff;stroke-width:0.53px;"/><path d="M589.762,138.338c1.518,-0.117 2.846,1.02 2.964,2.539c0.117,1.518 -1.021,2.846 -2.539,2.963c-1.519,0.118 -2.847,-1.02 -2.964,-2.539c-0.117,-1.518 1.02,-2.846 2.539,-2.963Z" style="fill:#b3e3ff;stroke:#fff;stroke-width:0.53px;"/><path d="M602.339,137.367c1.519,-0.117 2.847,1.021 2.964,2.539c0.117,1.519 -1.02,2.847 -2.539,2.964c-1.518,0.117 -2.846,-1.021 -2.964,-2.539c-0.117,-1.519 1.021,-2.847 2.539,-2.964Z" style="fill:#b3e3ff;stroke:#fff;stroke-width:0.53px;"/><path d="M625.582,135.573c1.518,-0.117 2.846,1.021 2.963,2.539c0.117,1.519 -1.02,2.847 -2.539,2.964c-1.518,0.117 -2.846,-1.02 -2.963,-2.539c-0.118,-1.518 1.02,-2.846 2.539,-2.964Z" style="fill:#b3e3ff;stroke:#fff;stroke-width:0.53px;"/><path d="M638.29,134.593c1.518,-0.118 2.846,1.02 2.964,2.539c0.117,1.518 -1.021,2.846 -2.539,2.963c-1.519,0.117 -2.847,-1.02 -2.964,-2.539c-0.117,-1.518 1.02,-2.846 2.539,-2.963Z" style="fill:#b3e3ff;stroke:#fff;stroke-width:0.53px;"/><path d="M662.475,132.726c1.519,-0.117 2.847,1.02 2.964,2.539c0.117,1.518 -1.02,2.846 -2.539,2.964c-1.518,0.117 -2.846,-1.021 -2.964,-2.539c-0.117,-1.519 1.021,-2.847 2.539,-2.964Z" style="fill:#b3e3ff;stroke:#fff;stroke-width:0.53px;"/></g></g></g><clipPath id="_clip5"><polygon points="249.86,324.8 389.549,386.441 371.673,426.952 231.983,365.31 249.86,324.8 "/></clipPath><g clip-path="url(#_clip5)"><g><path d="M290.327,358.136c-1.741,3.946 -6.372,5.742 -10.318,4m10.318,-4c1.742,-3.946 6.372,-5.741 10.319,-4l28.007,12.359" style="fill:none;fill-rule:nonzero;stroke:#fff;stroke-width:0.76px;"/><path d="M309.842,353.813c2.024,0.893 2.942,3.262 2.049,5.285c-0.893,2.024 -3.262,2.942 -5.285,2.049c-2.024,-0.893 -2.942,-3.261 -2.049,-5.285c0.893,-2.024 3.261,-2.942 5.285,-2.049Z" style="fill:#b18be8;stroke:#fff;stroke-width:0.76px;"/><path d="M326.605,361.21c2.023,0.894 2.941,3.262 2.048,5.285c-0.893,2.024 -3.261,2.942 -5.285,2.049c-2.023,-0.893 -2.941,-3.261 -2.048,-5.285c0.893,-2.024 3.261,-2.942 5.285,-2.049Z" style="fill:#b18be8;stroke:#fff;stroke-width:0.76px;"/><path d="M333.023,394.083c1.741,-3.946 -0.054,-8.577 -4,-10.318m4,10.318c-1.742,3.946 0.053,8.577 4,10.318l28.007,12.359" style="fill:none;fill-rule:nonzero;stroke:#fff;stroke-width:0.76px;"/><path d="M346.201,404.071c2.024,0.893 2.942,3.261 2.049,5.285c-0.893,2.023 -3.261,2.941 -5.285,2.048c-2.024,-0.893 -2.942,-3.261 -2.049,-5.285c0.894,-2.023 3.262,-2.941 5.285,-2.048Z" style="fill:#4ed1a1;stroke:#fff;stroke-width:0.76px;"/><path d="M362.964,411.468c2.024,0.893 2.942,3.261 2.049,5.285c-0.893,2.024 -3.261,2.942 -5.285,2.048c-2.024,-0.893 -2.942,-3.261 -2.049,-5.284c0.893,-2.024 3.261,-2.942 5.285,-2.049Z" style="fill:#4ed1a1;stroke:#fff;stroke-width:0.76px;"/><g><path d="M250.325,349.037l96.91,42.764" style="fill:none;fill-rule:nonzero;stroke:#fff;stroke-width:0.76px;"/><path d="M255.61,346.988c2.024,0.894 2.942,3.262 2.049,5.285c-0.893,2.024 -3.261,2.942 -5.285,2.049c-2.024,-0.893 -2.942,-3.261 -2.049,-5.285c0.893,-2.024 3.261,-2.942 5.285,-2.049Z" style="fill:#b3e3ff;stroke:#fff;stroke-width:0.76px;"/><path d="M272.373,354.385c2.023,0.894 2.942,3.262 2.048,5.285c-0.893,2.024 -3.261,2.942 -5.285,2.049c-2.023,-0.893 -2.941,-3.261 -2.048,-5.285c0.893,-2.024 3.261,-2.942 5.285,-2.049Z" style="fill:#b3e3ff;stroke:#fff;stroke-width:0.76px;"/><path d="M303.349,368.055c2.024,0.893 2.942,3.261 2.049,5.285c-0.893,2.023 -3.262,2.941 -5.285,2.048c-2.024,-0.893 -2.942,-3.261 -2.049,-5.285c0.893,-2.023 3.261,-2.941 5.285,-2.048Z" style="fill:#b3e3ff;stroke:#fff;stroke-width:0.76px;"/><path d="M320.286,375.529c2.024,0.893 2.942,3.261 2.049,5.285c-0.893,2.023 -3.261,2.941 -5.285,2.048c-2.024,-0.893 -2.942,-3.261 -2.049,-5.285c0.893,-2.023 3.261,-2.941 5.285,-2.048Z" style="fill:#b3e3ff;stroke:#fff;stroke-width:0.76px;"/><path d="M352.52,389.753c2.024,0.893 2.942,3.261 2.048,5.284c-0.893,2.024 -3.261,2.942 -5.284,2.049c-2.024,-0.893 -2.942,-3.261 -2.049,-5.285c0.893,-2.024 3.261,-2.942 5.285,-2.048Z" style="fill:#b3e3ff;stroke:#fff;stroke-width:0.76px;"/></g></g></g><g><clipPath id="_clip6"><rect x="175.645" y="193" width="273" height="114"/></clipPath><g clip-path="url(#_clip6)"><g><path d="M339.245,231.8c-6,0 -10.4,2.9 -10.4,10c0,5.3 2.9,9 10.1,9c6.1,0 10.2,-3.6 10.2,-9.2c0,-6.4 -3.7,-9.8 -9.9,-9.8Zm-12,49.9c-1.4,1.7 -2.8,3.6 -2.8,5.8c0,4.3 5.5,5.7 13.2,5.7c6.3,0 14.9,-0.4 14.9,-6.3c0,-3.5 -4.1,-3.7 -9.4,-4l-15.9,-1.2Zm32.2,-49.6c2,2.5 4,6 4,11c0,12.1 -9.5,19.1 -23.2,19.1c-3.5,0 -6.6,-0.4 -8.6,-1l-3.6,5.8l10.7,0.7c18.8,1.2 29.9,1.7 29.9,16.2c0,12.5 -11,19.6 -29.9,19.6c-19.7,0 -27.2,-5 -27.2,-13.6c0,-4.9 2.2,-7.5 6,-11.1c-3.6,-1.5 -4.8,-4.2 -4.8,-7.2c0,-2.4 1.2,-4.6 3.2,-6.6c2,-2.1 4.1,-4.1 6.7,-6.5c-5.3,-2.6 -9.4,-8.3 -9.4,-16.3c0,-12.5 8.3,-21.1 24.9,-21.1c4.7,0 7.5,0.4 10,1.1l21.2,0l0,9.2l-9.9,0.7Z" style="fill:#fff;fill-rule:nonzero;"/><path d="M388.645,212.4c-6.2,0 -9.8,-3.6 -9.8,-9.8c0,-6.2 3.6,-9.6 9.8,-9.6c6.3,0 9.9,3.4 9.9,9.6c0,6.2 -3.6,9.8 -9.9,9.8Zm-14.1,65.3l0,-8.6l5.6,-0.8c1.5,-0.2 1.7,-0.5 1.7,-2.2l0,-32c0,-1.2 -0.3,-2 -1.4,-2.3l-5.9,-2.1l1.2,-8.8l22.5,0l0,45.1c0,1.7 0.1,2 1.7,2.2l5.5,0.8l0,8.6l-30.9,0.1Z" style="fill:#fff;fill-rule:nonzero;"/><path d="M448.645,273.5c-4.7,2.3 -11.5,4.3 -17.7,4.3c-12.9,0 -17.8,-5.2 -17.8,-17.5l0,-28.4c0,-0.7 0,-1.1 -0.9,-1.1l-7.6,0l0,-9.7c9.6,-1.1 13.4,-5.9 14.6,-17.7l10.3,0l0,15.5c0,0.8 0,1.1 0.9,1.1l15.2,0l0,10.9l-16.2,0l0,26c0,6.4 1.5,8.9 7.4,8.9c3,0 6.2,-0.8 8.8,-1.7l3,9.4Z" style="fill:#fff;fill-rule:nonzero;"/></g><path d="M236.745,239.3c-1.3,-1.3 -2.5,-2.5 -3.8,-3.8c1.1,0 2.2,-0.2 3.2,-0.6c2.6,2.6 5.3,5.3 7.9,7.9c-0.7,0.7 -1.3,1.4 -2,2l8.3,0c-2.4,2.4 -3.1,6.3 -1.7,9.4c-2.3,2.3 -4.7,4.7 -7,7c-0.8,-0.8 -1.6,-1.5 -2.3,-2.3l0,9.5c0,-0.1 -0.5,-0.5 -0.6,-0.6c-0.2,-0.2 -0.4,-0.4 -0.7,-0.5c-0.2,-0.2 -0.5,-0.3 -0.7,-0.5c-0.2,-0.1 -0.6,-0.4 -0.6,-0.4l0,-0.4l0,-23.5l3.3,0c-1.1,-1 -2.2,-2.1 -3.3,-3.2Z" style="fill:#f05133;fill-rule:nonzero;"/><path d="M287.445,255.4l-49.5,49.5c-2.9,2.9 -7.5,2.9 -10.4,0l-49.7,-49.8c-2.9,-2.9 -2.9,-7.5 0,-10.4l34.1,-34.1l12.9,12.9c-1.3,3.2 -0.7,7 1.9,9.5c0.9,0.8 1.8,1.5 2.9,1.9c0,0 0.6,0.2 1.6,0.4c0.6,0.1 1.8,0.1 1.8,0.1c-1.1,1.1 -2.3,2.2 -3.4,3.4c-1.8,1.8 -3.6,3.6 -3.7,3.8l3.7,0l0,23.7c-1,0.4 -2,1.1 -2.9,1.9c-3.4,3.4 -3.4,8.9 0,12.3c3.4,3.4 8.9,3.4 12.4,0c2.9,-2.9 3.3,-7.4 1.2,-10.8c-0.2,-0.4 -0.5,-0.7 -0.8,-1.1l9.5,0c-0.2,-0.2 -2.3,-2.3 -2.3,-2.3c2.4,-2.4 4.7,-4.9 7.2,-7.2c0.1,-0.1 0.3,-0.3 0.3,-0.3c0.3,0.2 0.7,0.4 1,0.5c0.3,0.1 0.6,0.1 0.6,0.1c2.5,0.2 5,-0.6 6.9,-2.5c3.4,-3.4 3.4,-8.9 0,-12.3c-2.4,-2.4 -6,-3.1 -9,-2.1c0,0 -0.8,0.3 -1.5,0.8c-0.6,0.4 -1,0.8 -1.2,1l0,-8.3l-1.9,1.9l-0.1,-0.1l-7.9,-7.9c1.1,-3.1 0.4,-6.6 -2.1,-9c-2.4,-2.4 -5.9,-3.1 -9,-2.1l-13.1,-13.2l10.4,-10.4c2.9,-2.9 7.5,-2.9 10.4,0l49.7,49.8c2.8,2.9 2.8,7.5 0,10.4Z" style="fill:#f05133;fill-rule:nonzero;"/></g><clipPath id="_clip7"><rect x="626.936" y="193.581" width="113.419" height="113.419"/></clipPath><g clip-path="url(#_clip7)"><path d="M707.035,294.24l-5.844,-19.848l-35.091,0l-5.844,19.848l-17.152,0l30.402,-87.899l20.996,0l29.702,87.899l-17.169,0Zm-36.765,-34.025l26.747,0l-11.923,-40.51l-2.898,0l-11.926,40.51Z" style="fill:#fff;fill-rule:nonzero;"/><path d="M714.835,305.582c-13.289,0 -24.101,-10.811 -24.101,-24.101c0,-13.29 10.812,-24.102 24.101,-24.102c13.29,0 24.102,10.812 24.102,24.102c0,13.29 -10.812,24.101 -24.102,24.101Z" style="fill:#bae0bd;fill-rule:nonzero;"/><path d="M714.835,258.797c12.508,0 22.684,10.177 22.684,22.684c0,12.507 -10.176,22.684 -22.684,22.684c-12.507,0 -22.683,-10.177 -22.683,-22.684c0,-12.507 10.176,-22.684 22.683,-22.684m0,-2.835c-14.095,0 -25.519,11.424 -25.519,25.519c0,14.095 11.424,25.519 25.519,25.519c14.096,0 25.52,-11.424 25.52,-25.519c0,-14.095 -11.424,-25.519 -25.52,-25.519Z" style="fill:#0abe50;fill-rule:nonzero;"/><path d="M702.986,281.552l7.854,7.851l17.665,-17.668" style="fill:none;fill-rule:nonzero;stroke:#fff;stroke-width:5.67px;"/></g><text x="487.568px" y="311.603px" style="font-family:'ArialMT', 'Arial', sans-serif;font-size:172px;fill:#fff;">+</text></g><defs><radialGradient id="_Radial1" cx="0" cy="0" r="1" gradientUnits="userSpaceOnUse" gradientTransform="matrix(1000,0,0,500,0,250)"><stop offset="0" style="stop-color:#1a63f6;stop-opacity:1"/><stop offset="1" style="stop-color:#070187;stop-opacity:1"/></radialGradient></defs></svg>