<svg xmlns="http://www.w3.org/2000/svg" fill-rule="evenodd" stroke-linejoin="round" stroke-miterlimit="2" viewBox="0 0 2000 500"><radialGradient id="a" cx="0" cy="0" gradientTransform="matrix(2000 0 0 500 0 500)" gradientUnits="userSpaceOnUse" r="1"><stop offset="0" stop-color="#0004ff"/><stop offset="1" stop-color="#e85936"/></radialGradient><path d="M0 0h2000v500H0z" fill="url(#a)"/><path d="M871.286 145.96h-3.3c-3.75 0-7.1-2.3-8.55-5.8 0-.05-.05-.1-.05-.1-1.45-3.5-.75-7.55 1.95-10.2l2.35-2.35a45.55 45.55 0 0 0-10.95-10.95l-2.35 2.35c-2.7 2.7-6.7 3.4-10.2 1.95-.05 0-.1-.05-.1-.05-3.5-1.45-5.8-4.8-5.8-8.55v-3.35c-2.5-.45-5.1-.65-7.75-.65s-5.2.25-7.75.65v3.3c0 3.75-2.3 7.1-5.8 8.55-.05 0-.1.05-.1.05-3.5 1.45-7.55.75-10.2-1.95l-2.35-2.35a45.55 45.55 0 0 0-10.95 10.95l2.35 2.35c2.7 2.7 3.4 6.7 1.95 10.2 0 .05-.05.1-.05.1-1.45 3.5-4.8 5.8-8.55 5.8h-3.3c-.45 2.5-.65 5.1-.65 7.75s.25 5.2.65 7.75h3.3c3.75 0 7.1 2.3 8.55 5.8 0 .05.05.1.05.1 1.45 3.5.75 7.55-1.95 10.2l-2.35 2.35a45.55 45.55 0 0 0 10.95 10.95l2.35-2.35c2.7-2.7 6.7-3.4 10.2-1.95.05 0 .1.05.1.05 3.5 1.45 5.8 4.8 5.8 8.55v3.3c2.5.45 5.1.65 7.75.65s5.2-.25 7.75-.65v-3.3c0-3.75 2.3-7.1 5.8-8.55.05 0 .1-.05.1-.05 3.5-1.45 7.55-.75 10.2 1.95l2.35 2.35a45.55 45.55 0 0 0 10.95-10.95l-2.35-2.35c-2.7-2.7-3.4-6.7-1.95-10.2 0-.05.05-.1.05-.1 1.45-3.5 4.8-5.8 8.55-5.8h3.3c.45-2.5.65-5.1.65-7.75 0-2.6-.25-5.15-.65-7.7zm-28.6 17.55c-1.4 2.75-3.7 5-6.4 6.45-17.6 9.15-35.15-8.4-26-26 1.4-2.75 3.7-5 6.4-6.45 17.6-9.15 35.15 8.4 26 26zm320.954 197.65h-2.1c-2.4 0-4.5-1.45-5.4-3.7 0 0 0-.05-.05-.05-.9-2.2-.5-4.75 1.2-6.45l1.5-1.5c-1.9-2.7-4.25-5.05-6.95-6.95l-1.5 1.5c-1.7 1.7-4.25 2.15-6.45 1.2 0 0-.05 0-.05-.05-2.2-.9-3.7-3.05-3.7-5.4v-2.1c-1.6-.25-3.25-.4-4.9-.4s-3.3.15-4.9.4v2.1c0 2.4-1.45 4.5-3.7 5.4 0 0-.05 0-.05.05-2.2.9-4.75.5-6.45-1.2l-1.5-1.5c-2.7 1.9-5.05 4.25-6.95 6.95l1.5 1.5c1.7 1.7 2.15 4.25 1.2 6.45 0 0 0 .05-.05.05-.9 2.2-3.05 3.7-5.4 3.7h-2.1c-.25 1.6-.4 3.25-.4 4.9s.15 3.3.4 4.9h2.1c2.4 0 4.5 1.45 5.4 3.7 0 0 0 .05.05.05.9 2.2.5 4.75-1.2 6.45l-1.5 1.5c1.9 2.7 4.25 5.05 6.95 6.95l1.5-1.5c1.7-1.7 4.25-2.15 6.45-1.2 0 0 .05 0 .05.05 2.2.9 3.7 3.05 3.7 5.4v2.1c1.6.25 3.25.4 4.9.4s3.3-.15 4.9-.4v-2.1c0-2.4 1.45-4.5 3.7-5.4 0 0 .05 0 .05-.05 2.2-.9 4.75-.5 6.45 1.2l1.5 1.5c2.7-1.9 5.05-4.25 6.95-6.95l-1.5-1.5c-1.7-1.7-2.15-4.25-1.2-6.45 0 0 0-.05.05-.05.9-2.2 3.05-3.7 5.4-3.7h2.1c.25-1.6.4-3.25.4-4.9s-.1-3.3-.4-4.9zm-18.1 11.1c-.9 1.75-2.35 3.15-4.05 4.05-11.15 5.8-22.25-5.35-16.45-16.45.9-1.75 2.35-3.15 4.05-4.05 11.15-5.8 22.25 5.3 16.45 16.45z" fill="#e6e7e8"/><path d="M1140.44 156.3v181.65H828.9V156.3c0-3.85 3.15-7 7-7h297.5c3.9 0 7.05 3.15 7.05 7z" fill="#414142"/><path d="M947.386 397.4l8.45-32.35h62.9l8.5 32.35z" fill="#cdcdce"/><path d="M1140.44 338v21.05a6.99 6.99 0 0 1-7 7h-297.5a6.99 6.99 0 0 1-7-7V338z" fill="#f2f3f4"/><path d="M941.686 397.26l5.75-.75h79.7l5.75.75h26.15c1.15 0 2.1.7 2.1 1.6v1.45c0 .9-.95 1.6-2.1 1.6h-147.05c-1.15 0-2.1-.7-2.1-1.6v-1.45c0-.9.95-1.6 2.1-1.6z" fill="#e5e6e7"/><path d="M840.336 161.6h288.7v164.1h-288.7z" fill="#0073bd"/><path d="M987.286 344.46c4.5 0 8.15 3.65 8.15 8.15s-3.65 8.15-8.15 8.15-8.15-3.65-8.15-8.15 3.65-8.15 8.15-8.15z" fill="#e6e7e8"/><path d="M840.336 161.6h288.7v31.2h-288.7z" fill="#004b81"/><path d="M1067.6 184.56H907.04a5.41 5.41 0 0 1-5.4-5.4 5.41 5.41 0 0 1 5.4-5.4h160.55a5.41 5.41 0 0 1 5.4 5.4c0 3-2.4 5.4-5.4 5.4z" fill="#f2f3f4"/><g fill="#f7f7fb"><circle cx="1084.74" cy="179.159" r="6.35"/><path d="M855.686 184.1l-5-4.95 5-4.95zm10.1 0l4.95-4.95-4.95-4.95zm18.35-6.8l2.35-2.35-2.35-2.3z"/><path d="M884.686 183.9c-2.7 0-4.95-2.2-4.95-4.95 0-2.7 2.2-4.95 4.95-4.95v1.85a3.12 3.12 0 0 0-3.1 3.1 3.12 3.12 0 0 0 3.1 3.1 3.12 3.12 0 0 0 3.1-3.1h1.85a4.93 4.93 0 0 1-4.95 4.95z" fill-rule="nonzero"/></g><path d="M884.586 192.8h200.1v37.4h-200.1z" fill="#fff"/><path d="M884.586 288.3h200.1v37.4h-200.1z" fill="#cdcdce"/><path d="M884.586 230.16h66.7v58.15h-66.7z" fill="#e85936"/><path d="M1018.04 230.16h66.7v58.15h-66.7z" fill="#00aaec"/><path d="M951.336 230.16h66.7v58.15h-66.7z" fill="#e6e7e8"/><g fill="#fff"><path d="M1236.9 182.66c-5.85-20.85-49.95-22.95-85.9-21.1l-10.55.65v5.7c10.65-.8 20.5-1.2 29.45-1.2 36.2 0 58.35 6.25 61.5 17.45 4.5 16-29.25 43.55-90.95 71.95l-11.45 5.15c-13.6 5.95-28.4 11.9-44.3 17.8-8.4 3.1-17.1 6.2-26.1 9.2-17.4 5.9-35.85 11.6-55.35 17.1-30.05 8.45-58.4 15.2-84.55 20.3-34.15 6.7-64.45 10.6-89.85 12.1-49.1 2.85-79.7-3.45-83.45-16.8-1.8-6.3 2.55-14.7 12.45-24.25 10.35-9.95 26.15-20.7 47.1-32.05 7.5-4.05 15.5-8.1 23.95-12.15v-6.3c-9.45 4.45-18.35 8.95-26.65 13.45-31.65 17.15-68.15 42-62.3 62.8 4.85 17.15 35.6 21.65 66.4 21.65 6.6 0 13.2-.2 19.55-.55l3.05-.15c15.95-.95 33.25-2.8 51.6-5.45 20.8-3.05 42.9-7.2 65.75-12.3 19.1-4.25 38.75-9.2 58.55-14.8 24.65-6.95 48.55-14.55 71.05-22.55l8.85-3.2a870.13 870.13 0 0 0 44.3-17.65l11.45-5.05a558.607 558.607 0 0 0 34.15-16.9c29.35-15.9 62.95-38.45 62.95-58.25-.1-1.6-.3-3.1-.7-4.6z" fill-rule="nonzero"/><circle cx="1237.49" cy="187.209" r="23.2"/></g><circle cx="1009.69" cy="303.309" fill="#3670e8" r="23.2"/><g fill="#61dafb"><path d="M1030.8 303.295c0-2.73-3.418-5.317-8.66-6.92 1.2-5.342.672-9.592-1.697-10.953-.546-.32-1.184-.47-1.88-.47v1.873c.386 0 .697.076.957.22 1.143.655 1.638 3.15 1.252 6.358-.093.8-.244 1.62-.43 2.47a40.78 40.78 0 0 0-5.333-.916 41.14 41.14 0 0 0-3.494-4.199c2.738-2.545 5.308-3.94 7.055-3.94v-1.873c-2.3 0-5.333 1.646-8.4 4.502-3.057-2.84-6.08-4.47-8.4-4.47v1.873c1.738 0 4.317 1.386 7.055 3.914a39.98 39.98 0 0 0-3.47 4.19 39.402 39.402 0 0 0-5.342.924 25.14 25.14 0 0 1-.436-2.435c-.395-3.2.092-5.703 1.226-6.367.252-.15.58-.218.966-.218v-1.873c-.706 0-1.344.15-1.898.47-2.36 1.36-2.9 5.602-1.672 10.927-5.224 1.613-8.626 4.2-8.626 6.913 0 2.73 3.42 5.316 8.66 6.92-1.2 5.34-.672 9.6 1.696 10.952.546.32 1.185.47 1.9.47 2.3 0 5.334-1.646 8.4-4.502 3.057 2.84 6.08 4.47 8.4 4.47.705 0 1.343-.15 1.898-.47 2.36-1.36 2.9-5.602 1.67-10.927 5.208-1.604 8.6-4.2 8.6-6.912zm-10.935-5.602a37.86 37.86 0 0 1-1.134 3.317 40.88 40.88 0 0 0-1.1-2.016 44.64 44.64 0 0 0-1.21-1.965c1.193.176 2.343.395 3.444.664zm-3.847 8.945a46.924 46.924 0 0 1-2.024 3.208 43.4 43.4 0 0 1-3.797.168c-1.268 0-2.536-.06-3.78-.16a46.28 46.28 0 0 1-2.033-3.191 43.857 43.857 0 0 1-1.747-3.343c.52-1.126 1.1-2.25 1.74-3.35a44.616 44.616 0 0 1 2.024-3.2 43.77 43.77 0 0 1 3.796-.168 46.79 46.79 0 0 1 3.78.16 46.06 46.06 0 0 1 2.032 3.192 43.48 43.48 0 0 1 1.747 3.342 46.99 46.99 0 0 1-1.738 3.352zm2.713-1.092a36.05 36.05 0 0 1 1.159 3.343 37.83 37.83 0 0 1-3.461.671c.412-.646.824-1.3 1.2-2 .386-.672.747-1.352 1.092-2.024zm-8.517 8.962a34.79 34.79 0 0 1-2.335-2.688 52.93 52.93 0 0 0 2.31.059 41.69 41.69 0 0 0 2.335-.06 35.026 35.026 0 0 1-2.3 2.688zm-6.25-4.948a37.64 37.64 0 0 1-3.443-.663 37.75 37.75 0 0 1 1.133-3.318 40.88 40.88 0 0 0 1.1 2.016c.394.672.798 1.327 1.2 1.965zm6.207-17.478c.78.806 1.562 1.705 2.335 2.688a51.37 51.37 0 0 0-2.3-.06 41.69 41.69 0 0 0-2.335.06 32.65 32.65 0 0 1 2.31-2.688zm-6.215 4.947c-.412.647-.823 1.3-1.2 2a48.577 48.577 0 0 0-1.092 2.015 36.34 36.34 0 0 1-1.16-3.342c1.1-.26 2.26-.488 3.46-.664zm-7.6 10.516c-2.974-1.27-4.897-2.932-4.897-4.25s1.923-3 4.897-4.25c.722-.3 1.5-.588 2.326-.848.48 1.646 1.1 3.36 1.9 5.115a39.394 39.394 0 0 0-1.865 5.1c-.83-.26-1.62-.546-2.35-.856zm4.518 12.002c-1.142-.655-1.638-3.15-1.25-6.358.092-.8.243-1.62.428-2.47a40.8 40.8 0 0 0 5.334.915 40.79 40.79 0 0 0 3.494 4.2c-2.738 2.545-5.3 3.94-7.056 3.94-.378-.01-.697-.084-.95-.227zm19.923-6.4c.395 3.208-.092 5.703-1.226 6.366-.252.152-.58.22-.966.22-1.74 0-4.317-1.386-7.055-3.914a39.78 39.78 0 0 0 3.468-4.191 39.32 39.32 0 0 0 5.342-.924c.193.848.345 1.663.437 2.444zm3.234-5.602c-.723.3-1.512.588-2.327.848-.48-1.646-1.1-3.36-1.9-5.115a39.246 39.246 0 0 0 1.865-5.1 26.49 26.49 0 0 1 2.36.857c2.973 1.268 4.897 2.93 4.897 4.25-.01 1.318-1.932 3-4.905 4.25z" fill-rule="nonzero"/><circle cx="1010.18" cy="303.295" r="3.838"/></g><circle cx="762.536" cy="288.959" fill="#0073bd" r="23.2"/><path d="M807.586 329.4c.45 0 .9-.3 1.1-.7l5.15-12.3c.15-.4.5-.75.9-.9l12.3-5.15c.45-.2.7-.6.7-1.1a1.13 1.13 0 0 0-.75-1.05l-30.8-11.85a1.26 1.26 0 0 0-1.25.25l-.05.05c-.3.3-.4.8-.25 1.25l11.85 30.8c.2.4.6.7 1.1.7m290.954-211.05h-9.8v20.45h-18.5v-16.2h-11.7v16.2h-16.85v-20.45h-9.8l33.3-29.3z" fill="#fff"/><path d="M1236.26 167.558c-4.308.352-8.2 2.114-11.355 5.144-7.408 7.135-8.174 19.1-1.726 27.176 3.004 3.76 7.258 6.22 11.883 6.862a21.37 21.37 0 0 0 4.862 0c7.268-1.013 13.3-6.404 15.442-13.786 1.56-5.392.846-11.267-1.938-15.997-2.977-5.065-7.725-8.35-13.292-9.223-.908-.14-3.074-.238-3.876-.176zm.308 6.254v4.537l-.854-.053c-2.414-.16-5.136-.58-5.136-.802 0-.202.696-1.7 1.216-2.607 1.013-1.788 2.678-3.665 3.964-4.475.194-.122.807-.47.807-.47zm5.937-3.744c2.38.775 4.607 2.14 6.52 4l.6.572-.194.273c-.36.5-1.356 1.233-2.414 1.762-.58.3-1.1.53-1.154.53-.062 0-.194-.247-.308-.538-.802-2.2-2.643-4.994-4.308-6.527l-.58-.53.396.062c.22.036.864.22 1.445.405zm-9.654.582c-1.348 1.392-2.185 2.6-3.083 4.396a24.64 24.64 0 0 0-.688 1.488l-.22.555c-.053.062-1.55-.546-2.22-.907-.784-.414-1.612-.978-1.612-1.102 0-.105 1.216-1.32 1.93-1.938a17.84 17.84 0 0 1 3.515-2.264c.916-.44 2.88-1.154 3.18-1.17.07 0-.3.423-.8.943zm6.66.282c1.2.96 2.502 2.58 3.4 4.2.53.943 1.198 2.476 1.12 2.555-.176.176-2.634.52-4.44.617l-1.17.062v-8.45s.218.15 1.092 1.016zm11.893 6.016c1.682 2.555 2.704 5.54 3.003 8.774l.062.634-3.55-.018-3.558-.026-.063-1.2c-.08-1.55-.282-3.1-.616-4.625-.38-1.735-.37-1.718-.238-1.718.255 0 1.867-.792 2.563-1.26a9.083 9.083 0 0 0 1.216-.97c.264-.273.5-.494.537-.494.027-.008.318.397.644.9zm-26.78.044c.643.476 2 1.154 2.95 1.5.617.22.722.282.688.432-.027.096-.15.625-.273 1.18-.335 1.436-.564 3.004-.688 4.74l-.105 1.524h-6.66v-.2c0-1.05.52-3.64 1.03-5.12.598-1.744 2.166-4.633 2.43-4.484.053.045.335.24.625.45zm6.554 2.493a33.95 33.95 0 0 0 4.219.502l1.172.053v6.316h-7.602l.053-1.26c.08-1.78.397-3.814.863-5.55.062-.238.124-.326.22-.3.07.027.545.132 1.074.23zm13.698.855c.405 1.726.608 3.1.73 5.065l.053.95h-7.24v-6.236l.203-.053c.105-.027.502-.053.88-.053.9 0 2.987-.23 3.982-.432 1.26-.264 1.137-.326 1.392.758zm-17.6 8.192l.106 1.083c.114 1.427.616 4.422.916 5.453.044.167.08.317.06.326a28.95 28.95 0 0 1-.986.431c-1.048.45-2.255 1.1-3.057 1.648l-.5.343-.397-.616c-1.56-2.405-2.528-5.33-2.82-8.448l-.06-.634h6.695zm9.302 2.45v2.863h-.43c-1.163 0-3.542.352-5.153.757-.476.124-.9.185-.934.15-.238-.246-1.057-5.232-1.057-6.386v-.247h7.576v2.863zm9-2.405c-.132 1.7-.6 4.633-.898 5.78-.08.3-.14.37-.255.334-1.25-.387-3.34-.74-4.88-.82l-1.128-.053v-5.7h7.197l-.036.458zm8.827.176c-.3 3.207-1.25 6.017-2.925 8.615l-.52.784c-.017.018-.3-.185-.625-.45a15.415 15.415 0 0 0-3.022-1.894l-1.03-.5c-.018-.01.097-.546.238-1.198.3-1.365.67-3.876.757-5.126l.062-.855h7.126l-.06.634zm-17.838 6.765v9.26l-.414-.23c-1.7-.916-3.285-2.74-4.457-5.1-.485-.978-1.12-2.572-1.12-2.8 0-.308 3.56-.987 5.708-1.092l.282-.018zm4.493.23c1.03.15 2.818.547 2.942.652.114.115-.44 1.648-1.066 2.925-1.084 2.237-2.255 3.7-3.85 4.818-.3.194-.556.36-.6.36-.036 0-.07-2.026-.07-4.5v-4.5l.863.053a35.42 35.42 0 0 1 1.78.193zm5.655 1.7c.96.485 2.114 1.234 2.713 1.762l.397.353-.705.713c-1.77 1.797-4.14 3.286-6.448 4.044-1.7.563-1.665.58-.767-.362 1.374-1.444 2.634-3.585 3.48-5.9.203-.563.397-1.03.423-1.03s.44.194.907.43zm-17.6.388c.837 2.387 2.132 4.625 3.585 6.175.3.317.502.582.45.582-.264 0-2.044-.705-2.933-1.155-1.797-.916-3.127-1.902-4.616-3.426-.916-.934-.952-.766.388-1.56.775-.467 2.6-1.33 2.783-1.34.053-.01.203.317.344.722z" fill-rule="nonzero"/><g fill="#fff" fill-opacity=".5"><path d="M938.086 181.9c0 15.45-12.55 28-28 28s-28-12.55-28-28 12.55-28 28-28c15.45-.05 28 12.5 28 28"/><path d="M938.086 181.9v.15a27.895 27.895 0 0 1-17.1 5.8c-15.45 0-28-12.55-28-28v-.15c4.75-3.65 10.65-5.8 17.1-5.8 15.45-.05 28 12.5 28 28"/></g><g fill="#415167"><path d="M893.2 203.223l-4.2-4.144-10.36 10.5 4.2 4.143 10.36-10.5z"/><path d="M929.336 200.86c-10.5 10.65-27.6 10.75-38.2.25-10.65-10.5-10.75-27.6-.25-38.2 10.5-10.65 27.6-10.75 38.2-.25 10.6 10.45 10.7 27.6.25 38.2m2.1 2.1c-11.65 11.8-30.6 11.9-42.4.3-11.8-11.65-11.9-30.6-.3-42.4 11.65-11.8 30.6-11.9 42.4-.3s11.9 30.6.3 42.4z"/></g><path d="M853.286 247.6c-1.5 1.55-4 1.55-5.55.05l-3.15-3.1c-1.55-1.5-1.55-4-.05-5.55l29.7-30.1c1.5-1.55 4-1.55 5.55-.05l3.15 3.1c1.55 1.5 1.55 4 .05 5.55z" fill="#e85936"/><g fill-rule="nonzero"><path d="M763.973 294H761.1a1.24 1.24 0 0 1-.204-.018 5.754 5.754 0 0 0-4.084 5.485v4.8h11.45v-4.8a5.742 5.742 0 0 0-4.084-5.485 1.26 1.26 0 0 1-.204.018z" fill="gray"/><path d="M755.125 305.802c0 .376.306.682.682.682h13.458a.683.683 0 0 0 0-1.365h-13.458a.683.683 0 0 0-.682.683zm8.848-13.462H761.1a.415.415 0 1 0 0 .83h2.873a.415.415 0 0 0 0-.83z" fill="#333"/><path d="M771.444 280.34a8.92 8.92 0 0 0-8.908-8.908c-4.266 0-7.84 3.015-8.706 7.025.968-1.68 2.067-2.928 3.33-3.785 1.5-1.02 3.2-1.495 5.377-1.495 3.95 0 7.163 3.214 7.163 7.163s-3.214 7.162-7.163 7.162a7.24 7.24 0 0 1-.943-.064v4.06h1.886v-1.93h.002a.42.42 0 0 1 .358-.416c4.335-.635 7.605-4.424 7.605-8.813z" fill="#e6e6e6"/><path d="M769.888 286.742a9.74 9.74 0 0 0 2.396-6.401c0-5.375-4.373-9.748-9.748-9.748s-9.748 4.373-9.748 9.748c0 .5.13.636.252.678.22.075.46-.004.554-.217 2.62-5.977 6-6.783 8.942-6.783a6.33 6.33 0 0 1 6.322 6.322 6.33 6.33 0 0 1-6.322 6.322 6.374 6.374 0 0 1-1.274-.13.435.435 0 0 0-.403.116c-.12.128-.106.296-.106.296v4.604a1.248 1.248 0 0 0-.714 1.859 6.59 6.59 0 0 0-4.059 6.069v4.8h-.164c-.84 0-1.523.684-1.523 1.523s.684 1.524 1.523 1.524h13.458a1.524 1.524 0 0 0 0-3.047h-.164v-4.8a6.59 6.59 0 0 0-4.058-6.069c.117-.2.186-.414.186-.654a1.26 1.26 0 0 0-.9-1.205v-1.624a9.75 9.75 0 0 0 5.568-3.184zm-.623 18.377c.376 0 .682.306.682.683a.68.68 0 0 1-.682.682h-13.458a.683.683 0 0 1 0-1.365zm-1.004-5.64v4.8h-11.45v-4.8a5.742 5.742 0 0 1 4.084-5.485 1.24 1.24 0 0 0 .204.018h2.873a1.26 1.26 0 0 0 .204-.018c2.4.72 4.084 2.96 4.084 5.485zm-3.873-6.722a.417.417 0 0 1-.415.415H761.1a.415.415 0 0 1 0-.83h2.873c.228 0 .415.186.415.415zm-.55-3.602a.42.42 0 0 0-.358.416h-.002v1.93h-1.886v-4.06a7.24 7.24 0 0 0 .943.064 7.17 7.17 0 0 0 7.162-7.162 7.17 7.17 0 0 0-7.162-7.162c-2.168 0-3.877.474-5.377 1.494-1.263.858-2.36 2.106-3.33 3.786.866-4 4.44-7.026 8.706-7.026a8.92 8.92 0 0 1 8.908 8.908c0 4.4-3.27 8.178-7.605 8.813z"/></g></svg>