<svg xmlns="http://www.w3.org/2000/svg" fill-rule="evenodd" clip-rule="evenodd" viewBox="0 0 750 300"><path fill="none" stroke="#0580f8" stroke-width="6.75" d="M511.176 253.587c0 19.639-15.92 35.559-35.559 35.559s-35.559-15.92-35.559-35.559 15.921-35.559 35.559-35.559c19.639 0 35.559 15.92 35.559 35.559z"/><text x="461.071" y="270.707" fill="#026dfa" stroke="#0274fa" stroke-width=".59" font-family="'LucidaGrande', 'Lucida Grande', sans-serif" font-size="42.346" font-weight="500">C</text><path fill="none" stroke="#ff6454" stroke-width="6.75" d="M355.088 77.766c0 19.639-15.921 35.559-35.559 35.559-19.639 0-35.559-15.92-35.559-35.559s15.92-35.559 35.559-35.559 35.559 15.921 35.559 35.559z"/><text x="305.427" y="93.202" fill="#ff6454" font-family="'LucidaGrande', 'Lucida Grande', sans-serif" font-size="42.346" font-weight="500">A</text><path fill="none" stroke="#00a474" stroke-width="6.75" d="M310.938 260.691c0 19.639-15.921 35.559-35.559 35.559-19.639 0-35.559-15.92-35.559-35.559s15.92-35.559 35.559-35.559 35.559 15.92 35.559 35.559z"/><text x="262.104" y="275.992" fill="#00a474" font-family="'LucidaGrande', 'Lucida Grande', sans-serif" font-size="42.346" font-weight="500">B</text><text x="237.804" y="164.583" font-family="'LucidaGrande', 'Lucida Grande', sans-serif" font-size="17.76" font-weight="500">0.3</text><text x="193.57" y="229.858" font-family="'LucidaGrande', 'Lucida Grande', sans-serif" font-size="17.76" font-weight="500">0.6</text><text x="522.565" y="236.205" font-family="'LucidaGrande', 'Lucida Grande', sans-serif" font-size="17.76" font-weight="500">0.1</text><text x="338.221" y="25.216" font-family="'LucidaGrande', 'Lucida Grande', sans-serif" font-size="17.76" font-weight="500">0.2</text><text x="306.179" y="177.382" font-family="'LucidaGrande', 'Lucida Grande', sans-serif" font-size="17.76" font-weight="500">0.4</text><path fill="none" stroke="#000" stroke-linecap="round" stroke-linejoin="round" stroke-miterlimit="1.5" stroke-width="1.13" d="M286.58 121.123c-29.032 51.207-19.517 91.807-19.517 91.807"/><path stroke="#000" stroke-linecap="round" stroke-linejoin="round" stroke-miterlimit="1.5" stroke-width="1.13" d="m290.86 113.325-.505 9.552-7.295-4.016z"/><path fill="none" stroke="#000" stroke-linecap="round" stroke-linejoin="round" stroke-miterlimit="1.5" stroke-width="1.13" d="M227.791 239.555c-.618-2.861-28.738-13.432-31.483 10.441-2.93 25.494 33.695 16.871 33.695 16.871"/><path stroke="#000" stroke-linecap="round" stroke-linejoin="round" stroke-miterlimit="1.5" stroke-width="1.12" d="m234.783 243.53-9.56.295 3.392-7.605z"/><path fill="none" stroke="#000" stroke-linecap="round" stroke-linejoin="round" stroke-miterlimit="1.5" stroke-width="1.13" d="M525.141 271.095c.925 2.777 30.028 10.229 30.161-13.8.142-25.662-35.328-13.11-35.328-13.11"/><path stroke="#000" stroke-linecap="round" stroke-linejoin="round" stroke-miterlimit="1.5" stroke-width="1.13" d="m517.758 267.903 9.472-1.332-2.545 7.929z"/><path fill="none" stroke="#000" stroke-linecap="round" stroke-linejoin="round" stroke-miterlimit="1.5" stroke-width="1.13" d="M329.715 29.156c2.664-1.211 7.022-30.935-16.888-28.547-25.535 2.55-9.332 36.508-9.332 36.508"/><path stroke="#000" stroke-linecap="round" stroke-linejoin="round" stroke-miterlimit="1.5" stroke-width="1.13" d="m327.315 36.833-2.318-9.28 8.151 1.7z"/><path fill="none" stroke="#000" stroke-linecap="round" stroke-linejoin="round" stroke-miterlimit="1.5" stroke-width="1.13" d="M284.492 211.154c29.033-51.208 19.518-91.808 19.518-91.808"/><path stroke="#000" stroke-linecap="round" stroke-linejoin="round" stroke-miterlimit="1.5" stroke-width="1.13" d="m280.212 218.951.506-9.552 7.294 4.016z"/><g stroke="#000" stroke-linecap="round" stroke-linejoin="round" stroke-miterlimit="1.5" stroke-width="1.13"><path fill="none" d="M420.776 248.388c-60.301-15.259-98.829 4.192-98.829 4.192"/><path d="m429.918 250.576-9.847 1.915 1.998-8.085z"/></g><g stroke="#000" stroke-linecap="round" stroke-linejoin="round" stroke-miterlimit="1.5" stroke-width="1.13"><path fill="none" d="M328.425 261.833c60.301 15.259 98.829-4.192 98.829-4.192"/><path d="m319.283 259.645 9.847-1.915-1.998 8.086z"/></g><g stroke="#000" stroke-linecap="round" stroke-linejoin="round" stroke-miterlimit="1.5" stroke-width="1.12"><path fill="none" d="M356.852 123.441c38.602 70.171 84.102 94.099 84.102 94.099"/><path d="m350.909 112.893 9.449 8.304-7.41 3.825z"/></g><g stroke="#000" stroke-linecap="round" stroke-linejoin="round" stroke-miterlimit="1.5" stroke-width="1.13"><path fill="none" d="M443.551 202.493c-36.552-69.617-81.19-93.687-81.19-93.687"/><path d="m449.184 212.958-9.181-8.287 7.473-3.698z"/></g><text x="360.346" y="238.287" font-family="'LucidaGrande', 'Lucida Grande', sans-serif" font-size="17.76" font-weight="500">0.1</text><text x="364.786" y="285.35" font-family="'LucidaGrande', 'Lucida Grande', sans-serif" font-size="17.76" font-weight="500">0.2</text><g stroke="#000" stroke-linecap="round" stroke-linejoin="round" stroke-miterlimit="1.5" stroke-width="1.13"><path fill="none" d="M420.776 248.388c-60.301-15.259-98.829 4.192-98.829 4.192"/><path d="m429.918 250.576-9.847 1.915 1.998-8.085z"/></g><text x="429.609" y="172.25" font-family="'LucidaGrande', 'Lucida Grande', sans-serif" font-size="17.76" font-weight="500">0.4</text><text x="361.652" y="189.448" font-family="'LucidaGrande', 'Lucida Grande', sans-serif" font-size="17.76" font-weight="500">0.7</text></svg>
