<svg xmlns="http://www.w3.org/2000/svg" fill-rule="evenodd" stroke-miterlimit="10" clip-rule="evenodd" viewBox="0 0 1000 300"><radialGradient id="a" cx="141.975" cy="140.025" r="59.975" gradientUnits="userSpaceOnUse"><stop offset="0" stop-color="#fff" stop-opacity="0"/><stop offset=".58" stop-color="#ffe3e3" stop-opacity=".133"/><stop offset=".74" stop-color="#ff9494" stop-opacity=".518"/><stop offset=".87" stop-color="#ff3131"/><stop offset=".87" stop-color="#ff1a1a"/><stop offset=".88" stop-color="#ff0707"/><stop offset=".88" stop-color="red"/><stop offset=".9" stop-color="#840000" stop-opacity=".518"/><stop offset=".92" stop-color="#200" stop-opacity=".133"/><stop offset="1" stop-opacity="0"/></radialGradient><circle cx="141.975" cy="140.025" r="59.975" fill="url(#a)" transform="matrix(4.721 0 -.0181 2.07283 -167.73 -111.26)"/><path fill="none" stroke="#dcbcbc" stroke-dasharray="2.55 2.55" stroke-width="1.7" d="M-11.627-11.627h23.254" transform="matrix(0 2.32853 2.368 0 564.798 233.297)"/><path fill="#dcbcbc" fill-rule="nonzero" d="m537.264 270.58 8.305-16.332-8.305 6.124-8.304-6.124"/><path fill="none" stroke="#dcbcbc" stroke-dasharray="2.55 2.55" stroke-width="1.7" d="M35.499 66.681h23.963" transform="matrix(0 2.32853 2.368 0 491.799 -59.606)"/><path fill="#dcbcbc" fill-rule="nonzero" d="m649.7 89.063 8.304-16.333-8.305 6.124-8.304-6.124"/><circle cy="-31.181" r="1.993" fill="#dcbcbc" transform="matrix(0 -2.32853 -2.368 0 463.427 278.83)"/><path fill="none" stroke="#0f0" stroke-width="1.72" d="M-3.736 38.958c39.399-58.905 111.563-78.843 92.797 0" transform="matrix(1.31651 -1.93548 -1.96829 -1.29457 618.865 322.033)"/><path fill="#0f0" fill-rule="nonzero" d="m649.698 95.662 12.682 13.352-2.946-9.793 8.736-5.524"/><circle r="1.993" fill="#8f2727" transform="matrix(0 -2.32853 -2.368 0 537.264 206.223)"/><path fill="none" stroke="#8f2727" stroke-width="1.72" d="M-15.449 77.96c50.309-51.884 158.459-49.62 95.294 0" transform="matrix(1.283 -1.95713 -1.9903 -1.26162 712.25 274.342)"/><path fill="#8f2727" fill-rule="nonzero" d="m649.698 23.056 18.439 2.394-8.61-5.73 3.183-9.733"/></svg>
