<svg xmlns="http://www.w3.org/2000/svg" fill-rule="evenodd" stroke-miterlimit="10" clip-rule="evenodd" viewBox="0 0 317 113"><path fill="none" stroke="#000f6f" stroke-width=".6" d="M101.648 3.005v98.645H3.004V3.005z"/><path fill="none" stroke="#9a9a9a" stroke-dasharray="2.24,2.24" stroke-width=".6" d="M15.783 52.327h73.086"/><path fill="none" stroke="#9a9a9a" stroke-linecap="square" stroke-width=".6" d="M15.633 49.936v4.782m73.386 0v-4.782"/><path fill="none" stroke="#000" stroke-width=".6" d="M40.444 52.327h23.764"/><path fill="none" stroke="#000" stroke-linecap="square" stroke-width=".6" d="M40.294 49.936v4.782m24.064 0v-4.782"/><path fill="none" stroke="#000f6f" stroke-width=".6" d="M207.801 3.005v98.645h-98.645V3.005z"/><path fill="none" stroke="#9a9a9a" stroke-dasharray="2.24,2.24" stroke-width=".6" d="M121.487 89.319V15.336m0 73.983h73.983m-49.322 0V15.336m-24.661 49.322h73.983m-24.661 24.661V15.336m-49.322 24.661h73.983m0 49.322V15.336m-73.983 0h73.983"/><path fill="none" stroke="#000" stroke-width=".6" d="M146.148 64.658V39.997h24.661v24.661h-24.661"/><path fill="none" stroke="#000f6f" stroke-width=".6" d="M313.955 3.004v98.646h-98.646V3.004z"/><path fill="none" stroke="#9a9a9a" stroke-dasharray="2.24,2.24" stroke-width=".6" d="M242.213 74.746V20.939m0 53.807h53.807m-44.839-8.968V11.972m0 53.806h53.806m-44.839 8.968V20.939m-17.935 35.872h53.807m-26.904 8.967V11.972m-17.935 35.871h53.806m-26.903 26.903V20.939m-35.871 17.936h53.807m-8.968 26.903V11.972m-35.871 17.935h53.806m-8.967 44.839V20.939m-53.807 0h53.807m8.967 44.839V11.972m-53.806 0h53.806m-80.71 80.71 26.904-26.904m-26.904 8.968 26.904-26.903m-26.904 8.968 26.904-26.904m-26.904 8.968 26.904-26.903m-8.968 80.71 26.903-26.904m-26.903 8.968 26.903-26.903m-26.903 8.968 26.903-26.904m-26.903 8.968 26.903-26.903m-8.968 80.71 26.904-26.904m-26.904 8.968 26.904-26.903m-26.904 8.968 26.904-26.904m-26.904 8.968 26.904-26.903m-8.968 80.71 26.903-26.904m-26.903 8.968 26.903-26.903m-26.903 8.968 26.903-26.904m-26.903 8.968 26.903-26.903"/><path fill="#fff" fill-rule="nonzero" stroke="#000" stroke-width=".6" d="M260.148 56.811V38.875h17.936v17.936h-17.936"/><path fill="#fff" fill-rule="nonzero" stroke="#000" stroke-width=".6" d="m269.116 47.843 8.968-8.968v17.936l-8.968 8.967V47.843"/><path fill="#fff" fill-rule="nonzero" stroke="#000" stroke-width=".6" d="M260.148 38.875h17.936l-8.968 8.968h-17.935l8.967-8.968"/><path fill="none" stroke="#9a9a9a" stroke-dasharray="2.24,2.24" stroke-width=".6" d="M233.245 83.714V29.907m0 53.807h53.807m-35.871 0V29.907m-17.936 35.871h53.807m-17.936 17.936V29.907m-35.871 17.936h53.807m0 35.871V29.907m-53.807 0h53.807"/><path fill="#fff" fill-rule="nonzero" stroke="#000" stroke-width=".6" d="M251.181 65.778V47.843h17.935v17.935h-17.935"/><path fill="none" stroke="#9a9a9a" stroke-dasharray="2.24,2.24" stroke-width=".6" d="M224.277 92.682V38.875m0 53.807h53.807m-35.871 0V38.875m-17.936 35.871h53.807m-17.936 17.936V38.875m-35.871 17.936h53.807m0 35.871V38.875m-53.807 0h53.807"/><text x="151.576" y="110.167" font-family="'ArialMT', 'Arial', sans-serif" font-size="9">(b)</text><text x="257.749" y="110.167" font-family="'ArialMT', 'Arial', sans-serif" font-size="9">(c)</text><text x="45.504" y="110.533" font-family="'ArialMT', 'Arial', sans-serif" font-size="9">(a)</text></svg>
