<svg xmlns="http://www.w3.org/2000/svg" fill-rule="evenodd" stroke-miterlimit="10" viewBox="0 0 2000 500"><style>.B{fill-rule:nonzero}.C{stroke:#0b968f}.D{stroke-width:2.53}</style><linearGradient id="A" x2="2000" y1="322.163" y2="322.163" gradientUnits="userSpaceOnUse"><stop offset="0" stop-color="#ffa4a4"/><stop offset="1" stop-color="#ff9d4c"/></linearGradient><path fill="#083f3f" d="M0 0h2000v500H0z"/><path fill="url(#A)" d="M0 164.424q73.32-25.53 180.288 39.807c106.972 65.337 272.837-40.673 428.486-40.673s212.74 126.586 556.5 161.202 381.61-180.433 622.597-180.433q125.499 0 212.14 355.673H0z"/><g class="B"><path fill="#c9faf0" d="M780.64 94.375h500v312.5h-500z"/><path fill="#fff" d="M886.154 151.875h288.974V406.25H886.154z"/><path fill="#067c7c" d="M787.05 69.375h487.18c3.516 0 6.4 2.82 6.4 6.25v18.75h-500v-18.75c0-3.43 2.894-6.25 6.4-6.25z"/></g><path fill="none" d="M924.615 188.75h68.847m-68.847 25h4.744m-4.744 12.5h4.744m-4.744 12.5h4.744m-4.744 25h197.95m-197.95 12.5h190.64m-190.64 12.5h203.077m-203.077 12.5h197.95m-197.95 12.5H1120m-195.385 12.5h197.95m-197.95 25H1120m-195.385 12.5h197.95m-197.95 12.5h200.513m-187.692-162.5h179.102m-179.102 12.5h190.64m-190.64 12.5h170.128" class="C D"/><g fill="#0b968f"><ellipse cx="798.205" cy="81.875" rx="3.846" ry="3.75"/><ellipse cx="811.026" cy="81.875" rx="3.846" ry="3.75"/><ellipse cx="823.846" cy="81.875" rx="3.846" ry="3.75"/></g><path fill="#fff" d="M1185.77 188.125h75.64v97.5h-75.64z" class="B"/><path fill="none" d="M1195.13 206.25h52.693m-52.693 12.5h56.026m-56.026 12.5h50m-50 12.5h56.026m-56.026 12.5h56.026m-56.026 12.5h50" class="C D"/><path fill="#7dead5" d="M1211.67 313.125h116.667v113.75H1211.67z" class="B"/><g fill="none" class="D"><path d="m1228.85 336.625 70.128-2.75m-69.615 15.25L1310.9 346m-81.025 15.625 61.025-2.375m-50 30.75 62.052 2.625m-62.564 9.875 70.512 2.875" class="C"/><ellipse cx="1282.18" cy="341.25" stroke="#c9faf0" rx="13.462" ry="13.125"/></g><path fill="#08c4b2" d="M671.667 113.125h155.128v317.5H671.667z" class="B"/><path fill="none" d="M697.692 146.25h103.462m-103.462-12.5h47.18m-47.18 50h57.436m-57.436 50h49.744m-49.744 50h67.693m-67.693 50h49.744m-49.744 50h60m-60-225h82.95m-82.95 37.5h103.462m-103.462 12.5h95.77m-95.77 37.5h103.462m-103.462 12.5h98.462m-98.462 37.5h103.462m-103.462 12.5h82.95m-82.95 37.5h103.462m-103.462 12.5h98.462m-98.462 37.5h103.462m-103.462 12.5h93.334" class="C D"/></svg>
