<svg clip-rule="evenodd" fill-rule="evenodd" stroke-linejoin="round" stroke-miterlimit="2" viewBox="0 0 500 500" xmlns="http://www.w3.org/2000/svg"><path d="m500 0v500h-500v-80.811c1.941 15.783 6.15 29.298 12.626 40.546 7.58 13.165 18.323 23.167 32.229 30.006 13.907 6.839 33.512 10.259 58.817 10.259 23.937 0 43.571-5.186 58.902-15.559s25.533-23.025 30.605-37.957c5.073-14.932 7.609-36.704 7.609-65.314v-136.27h-77.624v154.565c0 15.274-2.024 26.131-6.07 32.571-4.047 6.44-10.401 9.66-19.064 9.66-5.472 0-9.689-1.083-12.653-3.248-4.331-3.306-7.409-7.637-9.233-12.995-1.823-5.357-1.71-4.396-1.824-15.453l-74.32.812v-410.812zm0 500-37.444-77.111c-1.824-3.648-5.443-8.834-10.857-15.559-5.415-6.725-9.547-11.114-12.396-13.166-4.218-3.077-10.943-6.155-20.176-9.232 11.513-2.622 20.575-5.928 27.186-9.917 10.372-6.269 18.522-14.448 24.45-24.536 5.927-10.087 8.891-22.084 8.891-35.991 0-15.958-3.876-29.493-11.627-40.607s-17.953-18.722-30.605-22.826c-12.653-4.103-30.947-6.155-54.884-6.155h-129.089l4.446 255.1h73.349v-106.178h6.839c7.068.001 13.394 1.938 18.979 5.814 4.104 2.963 8.777 9.403 14.02 19.32l43.778 81.044zm-134.731-204.49c14.135 0 23.766 2.166 28.895 6.497 5.13 4.331 7.694 10.544 7.694 18.637 0 5.471-1.624 10.315-4.873 14.533-3.248 4.217-7.437 6.839-12.566 7.865-10.145 2.28-16.984 3.419-20.518 3.419h-32.657v-50.951z"/></svg>