<svg clip-rule="evenodd" fill-rule="evenodd" stroke-linejoin="round" stroke-miterlimit="2" viewBox="0 0 2000 500" xmlns="http://www.w3.org/2000/svg" xmlns:xlink="http://www.w3.org/1999/xlink"><linearGradient id="b" gradientTransform="matrix(0 500 -1000 0 1000 0)" gradientUnits="userSpaceOnUse" x2="1"><stop offset="0" stop-color="#ffe500"/><stop offset="1" stop-color="#c95858"/></linearGradient><linearGradient id="a"><stop offset="0" stop-color="#c300ff"/><stop offset="1" stop-color="#00059d"/></linearGradient><linearGradient id="c" gradientTransform="rotate(90 321.305 452.255) scale(171.4)" gradientUnits="userSpaceOnUse" x2="1" xlink:href="#a"/><linearGradient id="d" gradientTransform="rotate(90 396.785 527.735) scale(71.6221)" gradientUnits="userSpaceOnUse" x2="1" xlink:href="#a"/><linearGradient id="e" gradientTransform="rotate(90 225.61 547.95) scale(71.6221)" gradientUnits="userSpaceOnUse" x2="1" xlink:href="#a"/><linearGradient id="f" gradientTransform="rotate(90 350.958 573.562) scale(107.64)" gradientUnits="userSpaceOnUse" x2="1" xlink:href="#a"/><linearGradient id="g" gradientTransform="rotate(90 287.121 637.399) scale(43.6843)" gradientUnits="userSpaceOnUse" x2="1" xlink:href="#a"/><linearGradient id="h" gradientTransform="rotate(90 389.84 685.64) scale(98.1627)" gradientUnits="userSpaceOnUse" x2="1" xlink:href="#a"/><linearGradient id="i" gradientTransform="rotate(90 472.265 603.215) scale(144.83)" gradientUnits="userSpaceOnUse" x2="1" xlink:href="#a"/><linearGradient id="j" gradientTransform="rotate(90 436.99 789.45) scale(41.5)" gradientUnits="userSpaceOnUse" x2="1" xlink:href="#a"/><linearGradient id="k" gradientTransform="rotate(90 547.745 678.695) scale(41.5)" gradientUnits="userSpaceOnUse" x2="1" xlink:href="#a"/><linearGradient id="l" gradientTransform="rotate(90 517.009 709.432) scale(142.447)" gradientUnits="userSpaceOnUse" x2="1" xlink:href="#a"/><path d="M0 0h2000v500H0z" fill="url(#b)"/><path d="M1333.46 63.545c0-8.279-6.721-15-15-15H681.53c-8.279 0-15 6.721-15 15v372.91c0 8.279 6.721 15 15 15h636.93c8.279 0 15-6.721 15-15z" fill="#544a4a" fill-opacity=".32"/><path d="M839.06 137.498a6.552 6.552 0 0 0-6.55-6.549H714.611a6.552 6.552 0 0 0-6.55 6.549v158.301a6.553 6.553 0 0 0 6.55 6.55H832.51a6.553 6.553 0 0 0 6.55-6.55z" fill="url(#c)"/><path d="M990.02 134.53a3.583 3.583 0 0 0-3.582-3.581H862.602a3.582 3.582 0 0 0-3.581 3.581v64.46a3.583 3.583 0 0 0 3.581 3.581h123.836a3.583 3.583 0 0 0 3.582-3.581z" fill="url(#d)"/><path d="M839.06 325.92a3.583 3.583 0 0 0-3.581-3.581H711.642a3.583 3.583 0 0 0-3.581 3.581v64.46a3.583 3.583 0 0 0 3.581 3.581h123.837a3.583 3.583 0 0 0 3.581-3.581z" fill="url(#e)"/><path d="M990.02 227.986a5.384 5.384 0 0 0-5.382-5.382H864.403a5.384 5.384 0 0 0-5.382 5.382v96.876a5.384 5.384 0 0 0 5.382 5.382h120.235a5.385 5.385 0 0 0 5.382-5.382z" fill="url(#f)"/><path d="M990.02 352.461a2.186 2.186 0 0 0-2.185-2.184h-126.63a2.185 2.185 0 0 0-2.184 2.184v39.316c0 1.206.978 2.184 2.184 2.184h126.63a2.185 2.185 0 0 0 2.185-2.184z" fill="url(#g)"/><path d="M1140.98 300.707a4.91 4.91 0 0 0-4.908-4.908H1014.89a4.91 4.91 0 0 0-4.909 4.908v88.346a4.91 4.91 0 0 0 4.909 4.908h121.182a4.91 4.91 0 0 0 4.908-4.908z" fill="url(#h)"/><path d="M1140.98 137.498a6.552 6.552 0 0 0-6.55-6.549h-117.899a6.552 6.552 0 0 0-6.55 6.549v131.731a6.553 6.553 0 0 0 6.55 6.55h117.899a6.553 6.553 0 0 0 6.55-6.55z" fill="url(#i)"/><path d="M1291.94 354.536c0-1.145-.93-2.075-2.075-2.075h-126.849c-1.145 0-2.075.93-2.075 2.075v37.35c0 1.146.93 2.075 2.075 2.075h126.849a2.076 2.076 0 0 0 2.075-2.075z" fill="url(#j)"/><path d="M1291.94 133.024c0-1.146-.93-2.075-2.075-2.075h-126.849a2.076 2.076 0 0 0-2.075 2.075v37.35c0 1.145.93 2.075 2.075 2.075h126.849c1.145 0 2.075-.93 2.075-2.075z" fill="url(#k)"/><path d="M1291.94 198.973a6.553 6.553 0 0 0-6.55-6.55h-117.899a6.553 6.553 0 0 0-6.55 6.55V328.32a6.553 6.553 0 0 0 6.55 6.55h117.899a6.553 6.553 0 0 0 6.55-6.55z" fill="url(#l)"/><path d="M1333.46 63.545c0-8.279-6.721-15-15-15H681.53c-8.279 0-15 6.721-15 15v17.597h666.93z" fill="#fff" fill-opacity=".42"/><circle cx="685.963" cy="64.843" fill="#ff0900" r="7.5"/><circle cx="708.061" cy="64.843" fill="#fff100" r="7.5"/><circle cx="730.159" cy="64.843" fill="#19b100" fill-opacity=".66" r="7.5"/></svg>