<svg xmlns="http://www.w3.org/2000/svg" xmlns:xlink="http://www.w3.org/1999/xlink" fill-rule="evenodd" stroke-miterlimit="10" viewBox="0 0 2000 500"><radialGradient id="A" cx="0" cy="0" gradientTransform="matrix(2811.48 0 0 702.888 1982.2 498.722)" gradientUnits="userSpaceOnUse" r="1"><stop offset="0" stop-color="#481368"/><stop offset="1" stop-color="#662d91"/></radialGradient><linearGradient id="B" gradientUnits="userSpaceOnUse"><stop offset="0" stop-color="#ee2a7b" stop-opacity="0"/><stop offset="1" stop-color="#ee2a7b" stop-opacity=".65"/></linearGradient><linearGradient id="C" x1="1200.88" x2="997.322" xlink:href="#B" y1="84.955" y2="288.513"/><linearGradient id="D" x1="1734.2" x2="1539.59" xlink:href="#B" y1="378.859" y2="266.501"/><linearGradient id="E" x1="1025.09" x2="1025.09" xlink:href="#B" y1="-21.826" y2="137.24"/><linearGradient id="F" x1="298.184" x2="377.717" xlink:href="#B" y1="320.114" y2="182.359"/><linearGradient id="G" x1="1075.73" x2="991.731" xlink:href="#B" y1="429.435" y2="345.436"/><linearGradient id="H" x1="1383.71" x2="1299.711" xlink:href="#B" y1="165.043" y2="249.042"/><linearGradient id="I" x1="1814.6" x2="1814.6" xlink:href="#B" y1="96.608" y2="215.401"/><linearGradient id="J" x1="655.504" x2="916.818" xlink:href="#B" y1="288.334" y2="27.02"/><linearGradient id="K" x1="354.996" x2="190.595" xlink:href="#B" y1="102.287" y2="266.688"/><path d="M0 0h2000v500H0z" fill="url(#A)"/><circle cx="1137.9" cy="147.937" fill="url(#C)" r="120.548"/><path d="M1764.88 319.745c13.44 50.165-16.374 101.806-66.54 115.248s-101.806-16.373-115.248-66.54 16.373-101.806 66.54-115.248 101.806 16.373 115.248 66.54z" fill="url(#D)"/><circle cx="1025.09" cy="27.389" fill="url(#E)" r="66.606"/><path d="M289.5 335.175c-31.836-18.38-42.76-59.15-24.38-90.986s59.15-42.76 90.985-24.38 42.76 59.15 24.38 90.986-59.15 42.76-90.986 24.38z" fill="url(#F)"/><circle cx="1049.75" cy="403.437" fill="url(#G)" r="49.748"/><path d="M1307.97 191.023c0-27.457 22.292-49.748 49.748-49.748s49.75 22.29 49.75 49.748-22.292 49.748-49.75 49.748-49.748-22.29-49.748-49.748z" fill="url(#H)"/><path d="M1779.4 168.538c-19.415-19.415-19.415-50.94 0-70.354s50.94-19.415 70.354 0 19.415 50.94 0 70.354-50.94 19.415-70.354 0z" fill="url(#I)"/><circle cx="736.371" cy="207.471" fill="url(#J)" r="154.721"/><circle cx="304.12" cy="153.16" fill="url(#K)" r="97.34"/><g fill="none" stroke-width="5"><path d="M136.744 500c59.963 0 428.734-339.98 525.542-235.674 38.37 41.304 159.235-55.043 177.306 60.238 21.473 137.065 146.444 0 104.2-52.697-49.402-61.58-59.846-193.45 21.12-166.388 42.244 14.075 123.094 130.278 202.183 147.62 171.087 37.617 120.277-306.468 253.227-177.363C1451.42 105.982 1522.14 0 1522.14 0" stroke="#ffde17"/><path d="M1522.14 0c-2.23 3.854-73.89 110.087-106.628 81.015-8.566-7.707-16.428-13.74-23.82-18.012-116.052-68.532-59.493 234.25-219.55 200.57-78.034-16.504-157.358-130.362-200.07-146.28-43.417-16.17-60.9 13.656-61.253 55.546-.235 35.523 12.438 76.073 30.275 103.637 30.392 46.665-60.432 144.855-98.334 84.282-5.046-8.126-8.8-18.934-10.913-33.344-15.137-104.306-124.853-8.797-167.918-51.022-99.155-97.437-448.346 219.84-507.37 223.61" stroke="#ffd619"/><path d="M1525.66 0c-4.576 8.043-80.933 114.61-115.432 86.796-9.035-7.29-17.25-13.153-25.11-17.258-128.49-67.695-47.994 237.433-207.346 205.512-77.094-15.667-154.54-126.927-198.193-144.856-42.478-17.5-60.666 8.965-63.13 49.766-2.113 35.7 8.566 74.648 21.59 101.458 23.116 47.42-66.065 130.194-104.67 77.245-5.045-6.954-8.566-15.918-10.09-28.234-11.734-92.4-109.247 2.346-157.7-40.97C564.77 199.313 235.4 492.04 177.56 500" stroke="#ffcd1b"/><path d="M1529.66 0c-3.946 6.81-27.615 47.798-57.244 74.004-23.23 20.547-51.526 30.33-67.46 18.657-9.505-6.954-18.07-12.65-26.285-16.505-141.28-66.773-36.61 240.868-195.26 210.372-76.04-14.578-151.725-123.324-196.198-143.43-41.54-18.85-60.432 4.272-65.01 43.984-4.107 35.858 4.46 73.308 12.908 99.363 15.724 48.593-71.814 115.282-111.007 69.957-5.045-5.865-8.214-12.902-9.152-23.04-8.214-80.43-93.288 13.49-147.384-30.915C566.185 219.253 267.985 487.936 211.19 500" stroke="#ffc41d"/><path d="M1533.54 0c-4.476 7.757-30.292 51.525-55.442 76.08-28.906 28.22-58.443 36.3-78.9 22.78-9.974-6.535-19-12.065-27.693-15.667-155.363-65.6-24.173 244.386-182.234 215.734-74.865-13.573-148.792-119.47-193.97-141.924-40.6-20.19-60.314-.838-67.12 37.7-6.337 36.026-.235 72.22 3.52 97.018 7.745 50.603-77.916 99.11-117.813 62.5-5.045-4.692-7.744-9.72-8.214-17.51-4.224-67.526-75.803 25.47-136.235-20.023C568.408 240.533 293.96 483.412 238.338 500" stroke="#febb1e"/><path d="M1536.84 0c-5.366 9.23-29.362 56.11-53.833 80.166-31.72 31.185-66.784 38.457-89.438 24.978-10.327-6.2-19.95-11.394-29.102-14.913-169.678-64.175-11.734 247.906-169.09 221.012-73.81-12.567-145.858-115.45-191.857-140.33-39.662-21.448-60.314-5.865-69.232 31.417-8.684 36.277-5.398 71.297-5.867 94.672-.94 53.033-84.488 82.44-124.62 54.792-5.163-3.52-7.393-6.45-7.275-11.897.47-54.457-57.968 37.45-125.088-9.132C571.344 261.3 321.788 478.887 267.458 500" stroke="#fcb120"/><path d="M1540.83 0c-6.18 10.697-33.292 62.788-56.046 86.902-31.244 33.11-72.192 37.112-96.5 24.023-10.795-5.78-20.77-10.89-30.274-14.16-183.056-62.75-.235 251.09-157.006 225.955-72.753-11.645-143.276-111.763-189.86-138.907-38.724-22.62-60.315-10.557-71.1 25.636-10.913 36.445-16.43 70.46-14.55 92.577-23.82 53.285-97.864 72.387-130.955 47.755-5.985-1.675-6.923-3.435-6.454-6.702 6.22-42.225-41.305 48.34-114.762.92-98.803-63.673-320.3 130.78-373.7 156" stroke="#fba920"/><path d="M1545.04 0c-7.152 12.347-33.6 68.644-57.835 93.292-33.815 34.393-78.633 35.775-104.198 23.33-11.148-5.446-21.59-10.305-31.566-13.405-196.55-61.16 11.265 254.273-144.92 230.815-71.696-10.724-140.577-107.993-187.984-137.484-38.02-23.7-60.432-15.248-73.105 19.856-13.142 36.612-21.708 69.203-23.234 90.4-33.795 54.373-104.905 58.31-137.174 40.633-6.22-.502-7.275-.502-5.632-1.59 1.994-30.496-24.408 58.98-104.553 10.975C578.15 299.01 385.382 470.593 333.164 500" stroke="#f9a021"/><path d="M1549.48 0c-8.377 14.46-34.648 77.37-61.32 103.03-36.84 35.444-84.574 31.897-111.256 20.38-11.617-5.027-22.647-9.55-32.974-12.483-212.39-59.065 24.642 257.96-130.837 236.595-70.406-9.718-137.644-103.636-185.638-135.89-37.08-24.967-60.666-20.778-75.334 13.153-15.84 36.863-23.234 68.784-33.326 87.886-31.8 60.32-113.12 41.9-144.567 32.422-6.336.922-6.923 3.017-4.576 4.44 5.28-16.505-4.342 71.213-92.584 22.704C582.725 320.46 419.75 465.734 368.824 500" stroke="#f89621"/><path d="M1553.85 0c-21.064 48.05-37.075 76.79-54.228 101.352-24.9 35.656-82.767 45.888-128.46 28.34-12.086-4.692-23.586-8.965-34.382-11.646-227.06-56.886 37.08 261.31-117.695 241.874-69.233-8.714-134.945-99.447-183.525-134.3-36.376-26.14-61.02-25.888-77.447 6.87-18.54 36.947-29.922 67.694-42.713 85.623-44.355 62.08-120.746 26.56-151.372 24.715-6.454 2.262-6.69 6.284-3.638 10.054 8.45-3.52 14.668 82.188-81.436 33.596-91.646-46.414-236.685 75.816-286.44 114.522" stroke="#f78d21"/><path d="M1558.94 0c-1.182 2.042-39.057 83.844-55.186 107.695-26.405 39.05-90.357 44.056-137.756 27.694-12.556-4.273-24.408-8.378-35.672-10.892-240.672-54.792 48.58 264.494-105.61 246.733-68.177-7.792-132.48-95.593-181.53-132.875-35.672-27.145-61.37-30.58-79.324 1.09-21.004 37.114-36.142 66.437-51.396 83.445-56.677 63.086-127.787 12.483-157.7 17.677-6.688 3.52-6.336 9.216-2.816 15.165 11.265 8.378 32.387 91.906-71.1 43.65-89.298-41.387-214.7 57.808-263.408 100.62" stroke="#f68521"/><path d="M1562.7 0c-7.4 20.765-37.183 90.194-54.187 114.72-29.43 42.447-98.566 42.078-148.26 26.952-12.908-3.937-25.346-7.708-36.963-10.053-255.34-52.363 61.018 267.845-92.584 252.094-67.003-6.87-129.9-91.404-179.418-131.367-34.968-28.234-61.723-35.774-81.436-5.11-23.82 37.2-42.83 65.014-60.784 81.183-70.523 63.422-137.644-5.1-164.515 9.97-7.5 4.19-6.572 12.65-1.878 20.778 12.908 21.866 51.983 101.96-59.962 54.624-86.482-36.612-192.594 39.874-240.118 87.2" stroke="#f47b21"/><path d="M1568.23 0c-24.272 62.84-38.775 97.502-55.475 121.183-32.247 45.727-106.823 40.86-158.61 27.275-13.377-3.518-26.402-6.953-38.488-9.215-271.18-49.598 74.513 271.28-78.386 257.79-65.83-5.948-127.2-86.88-177.07-129.692-34.264-29.5-62.192-41.387-83.666-11.896-26.99 37.198-49.988 63.254-70.992 78.67-85.544 63.087-145.037-20.107-171.908 1.676-7.393 6.032-5.985 16.002-.822 26.726 17.015 35.523 73.457 112.098-47.993 66.354-83.55-31.418-164.07 20.018-210.302 72.13" stroke="#f37122"/><path d="M1570.42 0c-5.933 29.32-32.933 103.49-51.605 128.297-46.175 61.345-149.942 30.066-211.38 20.156-288.196-46.498 88.828 275.218-63.366 263.908-107.604-8.043-202.77-217.83-260.737-147.035-157.592 192.61-227.646 32.088-261.558 68.868S854.138 501 686.924 446.292C606.426 419.9 545.056 443.694 500.23 501" stroke="#f26522"/></g></svg>