<svg viewBox="0 0 755 231" xmlns="http://www.w3.org/2000/svg" fill-rule="evenodd" clip-rule="evenodd" stroke-linecap="round" stroke-linejoin="round" stroke-miterlimit="1.5"><path d="M11.186 145.434v-1.671h108.52v-1.551l2.386 2.386-2.386 2.387v-1.551H11.186z"/><path d="M66.122 157.853h-1.67V91.532h-1.551l2.386-2.387 2.386 2.387h-1.551v66.321z"/><path d="M16.367 139.427c3.885 0 21.075-.219 29.958-15.928 7.267-12.85 7.495-20.608 18.962-20.791 12.811-.204 10.329 9.527 19.345 20.791 9.184 11.474 17.534 16.821 30.908 16.828" fill="none" stroke="#f00" stroke-width="3px"/><ellipse cx="65.287" cy="134.601" rx="63.787" ry="61.302" fill="none" stroke="#000" stroke-width="3px" stroke-dasharray="6,9,0,0"/><path d="M419.52 145.434v-1.671h108.52v-1.551l2.386 2.386-2.386 2.387v-1.551H419.52z"/><path d="M474.456 157.853h-1.67V91.532h-1.551l2.386-2.387 2.386 2.387h-1.551v66.321z"/><path d="M424.7 139.427c3.886 0 10.308 1.279 15.684-15.948 5.787-18.547 4.49 14.057 16.792 8.206 6.656-3.165 8.472-28.85 16.445-28.977 12.81-.204 10.328 9.527 19.345 20.791 9.184 11.474 17.533 16.821 30.908 16.828" fill="none" stroke="#f00" stroke-width="3px"/><ellipse cx="473.621" cy="134.601" rx="63.787" ry="61.302" fill="none" stroke="#000" stroke-width="3px" stroke-dasharray="6,9,0,0"/><path d="M613.319 145.434v-1.671h108.52v-1.551l2.386 2.386-2.386 2.387v-1.551h-108.52z"/><path d="M668.255 157.853h-1.67V91.532h-1.551l2.386-2.387 2.386 2.387h-1.551v66.321z"/><path d="M618.499 139.427c3.886 0 10.308 1.279 15.684-15.948 5.788-18.547 4.49 14.057 16.792 8.206 3.266-1.553 6.609 9.633 8.844 2.916 2.319-6.972 3.541-31.828 7.601-31.893 6.355-.101 7.437 33.856 9.536 37.619 2.132 3.823 5.265-22.504 9.809-16.828 3.776 4.718 9.379-23.495 13.281-20.794 5.587 3.867 9.752 37.618 17.627 37.622" fill="none" stroke="#f00" stroke-width="3px"/><ellipse cx="667.42" cy="134.601" rx="63.787" ry="61.302" fill="none" stroke="#000" stroke-width="3px" stroke-dasharray="6,9,0,0"/><ellipse cx="66.772" cy="32.391" rx="21.147" ry="21.356" fill="#ebebeb" stroke="#000cff" stroke-width="2.25px"/><text x="120.283" y="147.248" font-family="'Arial-ItalicMT', 'Arial', sans-serif" font-style="italic" font-size="44.653px" transform="matrix(.65623 0 0 .66273 -24.603 -62.554)">z</text><text x="142.609" y="162.118" font-family="'Arial-ItalicMT', 'Arial', sans-serif" font-style="italic" font-size="26.033px" transform="matrix(.65623 0 0 .66273 -24.603 -62.554)">0</text><ellipse cx="345.225" cy="32.286" rx="21.147" ry="21.356" fill="#ebebeb"/><text x="120.283" y="147.248" font-family="'Arial-ItalicMT', 'Arial', sans-serif" font-style="italic" font-size="44.653px" transform="matrix(.65623 0 0 .66273 250.099 -62.659)">z</text><text x="142.609" y="162.118" font-family="'Arial-ItalicMT', 'Arial', sans-serif" font-style="italic" font-size="26.033px" transform="matrix(.65623 0 0 .66273 250.099 -62.659)">i-1</text><ellipse cx="195.168" cy="32.391" rx="21.147" ry="21.356" fill="#ebebeb"/><text x="120.283" y="147.248" font-family="'Arial-ItalicMT', 'Arial', sans-serif" font-style="italic" font-size="44.653px" transform="matrix(.65623 0 0 .66273 103.793 -62.554)">z</text><text x="142.609" y="162.118" font-family="'Arial-ItalicMT', 'Arial', sans-serif" font-style="italic" font-size="26.033px" transform="matrix(.65623 0 0 .66273 103.793 -62.554)">1</text><ellipse cx="473.621" cy="32.286" rx="21.147" ry="21.356" fill="#ebebeb"/><text x="120.283" y="147.248" font-family="'Arial-ItalicMT', 'Arial', sans-serif" font-style="italic" font-size="44.653px" transform="matrix(.65623 0 0 .66273 382.245 -62.659)">z</text><text x="142.609" y="162.118" font-family="'Arial-ItalicMT', 'Arial', sans-serif" font-style="italic" font-size="26.033px" transform="matrix(.65623 0 0 .66273 382.245 -62.659)">i</text><ellipse cx="667.42" cy="32.181" rx="21.147" ry="21.356" fill="#ebebeb" stroke="#0c9a00" stroke-width="2.25px"/><text x="120.283" y="147.248" font-family="'Arial-ItalicMT', 'Arial', sans-serif" font-style="italic" font-size="44.653px" transform="matrix(.65623 0 0 .66273 576.044 -62.764)">z</text><text x="142.609" y="162.118" font-family="'Arial-ItalicMT', 'Arial', sans-serif" font-style="italic" font-size="26.033px" transform="matrix(.65623 0 0 .66273 576.044 -62.764)">k</text><text x="699.52" y="45.472" font-family="'Arial-ItalicMT', 'Arial', sans-serif" font-style="italic" font-size="32.67px">=<tspan x="720.559px 731.596px" y="45.472px 45.472px"> x</tspan></text><path d="M96.479 36.129v-7.475h60.234v-6.941l10.678 10.678-10.678 10.679v-6.941H96.479zm278.453-.105v-7.475h60.234v-6.941l10.678 10.678-10.678 10.678v-6.94h-60.234z" fill="#ebebeb"/><text x="252.307" y="34.058" font-family="'ArialMT', 'Arial', sans-serif" font-size="39.612px">.<tspan x="263.204px 274.102px" y="34.058px 34.058px">..</tspan></text><text x="592.224" y="34.163" font-family="'ArialMT', 'Arial', sans-serif" font-size="39.612px">.<tspan x="603.122px 614.02px" y="34.163px 34.163px">..</tspan></text><text x="159.829" y="98.18" font-family="'Arial-ItalicMT', 'Arial', sans-serif" font-style="italic" font-size="43.56px" transform="translate(29.179 -31.528) scale(.47434)">f</text><text x="174.545" y="112.686" font-family="'Arial-ItalicMT', 'Arial', sans-serif" font-style="italic" font-size="25.396px" transform="translate(29.179 -31.528) scale(.47434)">1</text><text x="190.193" y="98.18" font-family="'Arial-ItalicMT', 'Arial', sans-serif" font-style="italic" font-size="43.56px" transform="translate(29.179 -31.528) scale(.47434)">(<tspan x="207.312" y="98.18">z</tspan></text><text x="231.706" y="112.686" font-family="'Arial-ItalicMT', 'Arial', sans-serif" font-style="italic" font-size="25.396px" transform="translate(29.179 -31.528) scale(.47434)">0</text><text x="247.353" y="98.18" font-family="'Arial-ItalicMT', 'Arial', sans-serif" font-style="italic" font-size="43.56px" transform="translate(29.179 -31.528) scale(.47434)">)</text><text x="159.829" y="98.18" font-family="'Arial-ItalicMT', 'Arial', sans-serif" font-style="italic" font-size="43.56px" transform="translate(309.835 -31.528) scale(.47434)">f</text><text x="174.545" y="112.686" font-family="'Arial-ItalicMT', 'Arial', sans-serif" font-style="italic" font-size="25.396px" transform="translate(309.835 -31.528) scale(.47434)">i</text><text x="181.711" y="98.18" font-family="'Arial-ItalicMT', 'Arial', sans-serif" font-style="italic" font-size="43.56px" transform="translate(309.835 -31.528) scale(.47434)">(<tspan x="198.83" y="98.18">z</tspan></text><text x="223.224" y="112.686" font-family="'Arial-ItalicMT', 'Arial', sans-serif" font-style="italic" font-size="25.396px" transform="translate(309.835 -31.528) scale(.47434)">i<tspan x="230.39px 240.371px" y="112.686px 112.686px">-1</tspan></text><text x="256.018" y="98.18" font-family="'Arial-ItalicMT', 'Arial', sans-serif" font-style="italic" font-size="43.56px" transform="translate(309.835 -31.528) scale(.47434)">)</text><path d="M502.432 36.024v-7.475h60.234v-6.941l10.678 10.678-10.678 10.678v-6.94h-60.234z" fill="#ebebeb"/><g font-family="'Arial-ItalicMT', 'Arial', sans-serif" font-style="italic" transform="translate(437.335 -31.528) scale(.47434)"><text x="159.829" y="98.18" font-size="43.56px">f</text><text x="174.545" y="112.686" font-size="25.396px">i<tspan x="181.711px 198.065px" y="112.686px 112.686px">+1</tspan></text><text x="213.713" y="98.18" font-size="43.56px">(<tspan x="230.832" y="98.18">z</tspan></text><text x="255.226" y="112.686" font-size="25.396px">i</text><text x="262.392" y="98.18" font-size="43.56px">)</text></g><g font-family="'Arial-ItalicMT', 'Arial', sans-serif" font-style="italic" transform="translate(-32.017 176.937) scale(.47434)"><text x="159.829" y="98.18" font-size="43.56px">z</text><text x="184.223" y="112.686" font-size="25.396px">0</text><text x="199.87" y="98.18" font-size="43.56px">~<tspan x="227.922" y="98.18">p</tspan></text><text x="254.762" y="112.686" font-size="25.396px">0</text><text x="270.41" y="98.18" font-size="43.56px">(<tspan x="287.529" y="98.18">z</tspan></text><text x="311.923" y="112.686" font-size="25.396px">0</text><text x="327.57" y="98.18" font-size="43.56px">)</text></g><g font-family="'Arial-ItalicMT', 'Arial', sans-serif" font-style="italic" transform="translate(359.827 176.937) scale(.47434)"><text x="159.829" y="98.18" font-size="43.56px">z</text><text x="184.223" y="112.686" font-size="25.396px">i</text><text x="191.389" y="98.18" font-size="43.56px">~<tspan x="219.441" y="98.18">p</tspan></text><text x="246.28" y="112.686" font-size="25.396px">i</text><text x="253.446" y="98.18" font-size="43.56px">(<tspan x="270.566" y="98.18">z</tspan></text><text x="294.959" y="112.686" font-size="25.396px">i</text><text x="302.125" y="98.18" font-size="43.56px">)</text></g><g font-family="'Arial-ItalicMT', 'Arial', sans-serif" font-style="italic" transform="translate(552.96 176.937) scale(.47434)"><text x="159.829" y="98.18" font-size="43.56px">z</text><text x="184.223" y="112.686" font-size="25.396px">k</text><text x="198.444" y="98.18" font-size="43.56px">~<tspan x="226.496" y="98.18">p</tspan></text><text x="253.336" y="112.686" font-size="25.396px">k</text><text x="267.557" y="98.18" font-size="43.56px">(<tspan x="284.677" y="98.18">z</tspan></text><text x="309.071" y="112.686" font-size="25.396px">k</text><text x="323.292" y="98.18" font-size="43.56px">)</text></g><g><path d="M11.186 145.434v-1.671h108.52v-1.551l2.386 2.386-2.386 2.387v-1.551H11.186z"/><path d="M66.122 157.853h-1.67V91.532h-1.551l2.386-2.387 2.386 2.387h-1.551v66.321z"/><path d="M16.367 139.427c3.885 0 21.075-.219 29.958-15.928 7.267-12.85 7.495-20.608 18.962-20.791 12.811-.204 10.329 9.527 19.345 20.791 9.184 11.474 17.534 16.821 30.908 16.828" fill="none" stroke="#f00" stroke-width="3px"/><ellipse cx="65.287" cy="134.601" rx="63.787" ry="61.302" fill="none" stroke="#000" stroke-width="3px" stroke-dasharray="6,9,0,0"/></g><g><path d="M419.52 145.434v-1.671h108.52v-1.551l2.386 2.386-2.386 2.387v-1.551H419.52z"/><path d="M474.456 157.853h-1.67V91.532h-1.551l2.386-2.387 2.386 2.387h-1.551v66.321z"/><path d="M424.7 139.427c3.886 0 10.308 1.279 15.684-15.948 5.787-18.547 4.49 14.057 16.792 8.206 6.656-3.165 8.472-28.85 16.445-28.977 12.81-.204 10.328 9.527 19.345 20.791 9.184 11.474 17.533 16.821 30.908 16.828" fill="none" stroke="#f00" stroke-width="3px"/><ellipse cx="473.621" cy="134.601" rx="63.787" ry="61.302" fill="none" stroke="#000" stroke-width="3px" stroke-dasharray="6,9,0,0"/></g><g><path d="M613.319 145.434v-1.671h108.52v-1.551l2.386 2.386-2.386 2.387v-1.551h-108.52z"/><path d="M668.255 157.853h-1.67V91.532h-1.551l2.386-2.387 2.386 2.387h-1.551v66.321z"/><path d="M618.499 139.427c3.886 0 10.308 1.279 15.684-15.948 5.788-18.547 4.49 14.057 16.792 8.206 3.266-1.553 6.609 9.633 8.844 2.916 2.319-6.972 3.541-31.828 7.601-31.893 6.355-.101 7.437 33.856 9.536 37.619 2.132 3.823 5.265-22.504 9.809-16.828 3.776 4.718 9.379-23.495 13.281-20.794 5.587 3.867 9.752 37.618 17.627 37.622" fill="none" stroke="#f00" stroke-width="3px"/><ellipse cx="667.42" cy="134.601" rx="63.787" ry="61.302" fill="none" stroke="#000" stroke-width="3px" stroke-dasharray="6,9,0,0"/></g><g><ellipse cx="66.772" cy="32.391" rx="21.147" ry="21.356" fill="#ebebeb" stroke="#000cff" stroke-width="2.25px"/><text x="120.283" y="147.248" font-family="'Arial-ItalicMT', 'Arial', sans-serif" font-style="italic" font-size="44.653px" transform="matrix(.65623 0 0 .66273 -24.603 -62.554)">z</text><text x="142.609" y="162.118" font-family="'Arial-ItalicMT', 'Arial', sans-serif" font-style="italic" font-size="26.033px" transform="matrix(.65623 0 0 .66273 -24.603 -62.554)">0</text></g><g><ellipse cx="345.225" cy="32.286" rx="21.147" ry="21.356" fill="#ebebeb"/><text x="120.283" y="147.248" font-family="'Arial-ItalicMT', 'Arial', sans-serif" font-style="italic" font-size="44.653px" transform="matrix(.65623 0 0 .66273 250.099 -62.659)">z</text><text x="142.609" y="162.118" font-family="'Arial-ItalicMT', 'Arial', sans-serif" font-style="italic" font-size="26.033px" transform="matrix(.65623 0 0 .66273 250.099 -62.659)">i-1</text></g><g><ellipse cx="195.168" cy="32.391" rx="21.147" ry="21.356" fill="#ebebeb"/><text x="120.283" y="147.248" font-family="'Arial-ItalicMT', 'Arial', sans-serif" font-style="italic" font-size="44.653px" transform="matrix(.65623 0 0 .66273 103.793 -62.554)">z</text><text x="142.609" y="162.118" font-family="'Arial-ItalicMT', 'Arial', sans-serif" font-style="italic" font-size="26.033px" transform="matrix(.65623 0 0 .66273 103.793 -62.554)">1</text></g><g><ellipse cx="473.621" cy="32.286" rx="21.147" ry="21.356" fill="#ebebeb"/><text x="120.283" y="147.248" font-family="'Arial-ItalicMT', 'Arial', sans-serif" font-style="italic" font-size="44.653px" transform="matrix(.65623 0 0 .66273 382.245 -62.659)">z</text><text x="142.609" y="162.118" font-family="'Arial-ItalicMT', 'Arial', sans-serif" font-style="italic" font-size="26.033px" transform="matrix(.65623 0 0 .66273 382.245 -62.659)">i</text></g><g><ellipse cx="667.42" cy="32.181" rx="21.147" ry="21.356" fill="#ebebeb" stroke="#0c9a00" stroke-width="2.25px"/><text x="120.283" y="147.248" font-family="'Arial-ItalicMT', 'Arial', sans-serif" font-style="italic" font-size="44.653px" transform="matrix(.65623 0 0 .66273 576.044 -62.764)">z</text><text x="142.609" y="162.118" font-family="'Arial-ItalicMT', 'Arial', sans-serif" font-style="italic" font-size="26.033px" transform="matrix(.65623 0 0 .66273 576.044 -62.764)">k</text></g><text x="699.52" y="45.472" font-family="'Arial-ItalicMT', 'Arial', sans-serif" font-style="italic" font-size="32.67px">=<tspan x="720.559px 731.596px" y="45.472px 45.472px"> x</tspan></text><path d="M96.479 36.129v-7.475h60.234v-6.941l10.678 10.678-10.678 10.679v-6.941H96.479zm278.453-.105v-7.475h60.234v-6.941l10.678 10.678-10.678 10.678v-6.94h-60.234z" fill="#ebebeb"/><text x="252.307" y="34.058" font-family="'ArialMT', 'Arial', sans-serif" font-size="39.612px">.<tspan x="263.204px 274.102px" y="34.058px 34.058px">..</tspan></text><text x="592.224" y="34.163" font-family="'ArialMT', 'Arial', sans-serif" font-size="39.612px">.<tspan x="603.122px 614.02px" y="34.163px 34.163px">..</tspan></text><g font-family="'Arial-ItalicMT', 'Arial', sans-serif" font-style="italic" transform="translate(29.179 -31.528) scale(.47434)"><text x="159.829" y="98.18" font-size="43.56px">f</text><text x="174.545" y="112.686" font-size="25.396px">1</text><text x="190.193" y="98.18" font-size="43.56px">(<tspan x="207.312" y="98.18">z</tspan></text><text x="231.706" y="112.686" font-size="25.396px">0</text><text x="247.353" y="98.18" font-size="43.56px">)</text></g><g font-family="'Arial-ItalicMT', 'Arial', sans-serif" font-style="italic" transform="translate(309.835 -31.528) scale(.47434)"><text x="159.829" y="98.18" font-size="43.56px">f</text><text x="174.545" y="112.686" font-size="25.396px">i</text><text x="181.711" y="98.18" font-size="43.56px">(<tspan x="198.83" y="98.18">z</tspan></text><text x="223.224" y="112.686" font-size="25.396px">i<tspan x="230.39px 240.371px" y="112.686px 112.686px">-1</tspan></text><text x="256.018" y="98.18" font-size="43.56px">)</text></g><path d="M502.432 36.024v-7.475h60.234v-6.941l10.678 10.678-10.678 10.678v-6.94h-60.234z" fill="#ebebeb"/><g font-family="'Arial-ItalicMT', 'Arial', sans-serif" font-style="italic" transform="translate(437.335 -31.528) scale(.47434)"><text x="159.829" y="98.18" font-size="43.56px">f</text><text x="174.545" y="112.686" font-size="25.396px">i<tspan x="181.711px 198.065px" y="112.686px 112.686px">+1</tspan></text><text x="213.713" y="98.18" font-size="43.56px">(<tspan x="230.832" y="98.18">z</tspan></text><text x="255.226" y="112.686" font-size="25.396px">i</text><text x="262.392" y="98.18" font-size="43.56px">)</text></g><g font-family="'Arial-ItalicMT', 'Arial', sans-serif" font-style="italic" transform="translate(-32.017 176.937) scale(.47434)"><text x="159.829" y="98.18" font-size="43.56px">z</text><text x="184.223" y="112.686" font-size="25.396px">0</text><text x="199.87" y="98.18" font-size="43.56px">~<tspan x="227.922" y="98.18">p</tspan></text><text x="254.762" y="112.686" font-size="25.396px">0</text><text x="270.41" y="98.18" font-size="43.56px">(<tspan x="287.529" y="98.18">z</tspan></text><text x="311.923" y="112.686" font-size="25.396px">0</text><text x="327.57" y="98.18" font-size="43.56px">)</text></g><g font-family="'Arial-ItalicMT', 'Arial', sans-serif" font-style="italic" transform="translate(359.827 176.937) scale(.47434)"><text x="159.829" y="98.18" font-size="43.56px">z</text><text x="184.223" y="112.686" font-size="25.396px">i</text><text x="191.389" y="98.18" font-size="43.56px">~<tspan x="219.441" y="98.18">p</tspan></text><text x="246.28" y="112.686" font-size="25.396px">i</text><text x="253.446" y="98.18" font-size="43.56px">(<tspan x="270.566" y="98.18">z</tspan></text><text x="294.959" y="112.686" font-size="25.396px">i</text><text x="302.125" y="98.18" font-size="43.56px">)</text></g><g font-family="'Arial-ItalicMT', 'Arial', sans-serif" font-style="italic" transform="translate(552.96 176.937) scale(.47434)"><text x="159.829" y="98.18" font-size="43.56px">z</text><text x="184.223" y="112.686" font-size="25.396px">k</text><text x="198.444" y="98.18" font-size="43.56px">~<tspan x="226.496" y="98.18">p</tspan></text><text x="253.336" y="112.686" font-size="25.396px">k</text><text x="267.557" y="98.18" font-size="43.56px">(<tspan x="284.677" y="98.18">z</tspan></text><text x="309.071" y="112.686" font-size="25.396px">k</text><text x="323.292" y="98.18" font-size="43.56px">)</text></g></svg>