<svg height="393.27505" viewBox="0 0 441.3436 393.27505" width="441.3436" xmlns="http://www.w3.org/2000/svg" xmlns:xlink="http://www.w3.org/1999/xlink"><clipPath id="a"><path d="m45.05663 121.0784c36.4785 36.5358 47.46615 77.6727 34.06462 127.5319 62.83055-46.2153 126.98865-53.342 198.42765-22.037-25.1664-45.9626-24.1881-89.0656 3.0334-133.84169-54.4867-3.36238-92.0891-28.28008-116.4206-77.14807-19.7491 59.14095-58.013 93.02746-119.10507 105.49486"/></clipPath><g transform="matrix(1.3333333 0 0 -1.3333333 0 393.27507)"><g font-size="9.96264"><text font-family="CMR10" transform="matrix(1 0 0 -1 3.318452 124.842)"><tspan x="0" y="0">h</tspan></text><text font-family="CMR10" transform="matrix(1 0 0 -1 8.853269 124.842)"><tspan x="0" y="0">e</tspan></text><text font-family="CMR10" transform="matrix(1 0 0 -1 13.28111 124.842)"><tspan x="0" y="0">t</tspan></text><text font-family="CMR10" transform="matrix(1 0 0 -1 17.15548 124.842)"><tspan x="0" y="0">e</tspan></text><text font-family="CMR10" transform="matrix(1 0 0 -1 21.58332 124.842)"><tspan x="0" y="0">r</tspan></text><text font-family="CMR10" transform="matrix(1 0 0 -1 25.48536 124.842)"><tspan x="0" y="0">o</tspan></text><text font-family="CMR10" transform="matrix(1 0 0 -1 30.46669 124.842)"><tspan x="0" y="0">t</tspan></text><text font-family="CMR10" transform="matrix(1 0 0 -1 34.34106 124.842)"><tspan x="0" y="0">i</tspan></text><text font-family="CMR10" transform="matrix(1 0 0 -1 37.10847 124.842)"><tspan x="0" y="0">c</tspan></text><text font-family="CMMI10" transform="matrix(1 0 0 -1 6.292042 112.8868)"><tspan x="0" y="0">S</tspan></text><text font-family="CMMI10" transform="matrix(1 0 0 -1 12.97529 112.8868)"><tspan x="0" y="0">O</tspan></text><text font-family="CMR10" transform="matrix(1 0 0 -1 20.85131 112.8868)"><tspan x="0" y="0">(</tspan></text><text font-family="CMR10" transform="matrix(1 0 0 -1 24.72568 112.8868)"><tspan x="0" y="0">3</tspan></text><text font-family="CMR10" transform="matrix(1 0 0 -1 29.70701 112.8868)"><tspan x="0" y="0">2</tspan></text><text font-family="CMR10" transform="matrix(1 0 0 -1 34.68835 112.8868)"><tspan x="0" y="0">)</tspan></text><text font-family="CMR10" transform="matrix(1 0 0 -1 60.01198 266.576)"><tspan x="0" y="0">h</tspan></text><text font-family="CMR10" transform="matrix(1 0 0 -1 65.5468 266.576)"><tspan x="0" y="0">e</tspan></text><text font-family="CMR10" transform="matrix(1 0 0 -1 69.97464 266.576)"><tspan x="0" y="0">t</tspan></text><text font-family="CMR10" transform="matrix(1 0 0 -1 73.84901 266.576)"><tspan x="0" y="0">e</tspan></text><text font-family="CMR10" transform="matrix(1 0 0 -1 78.27685 266.576)"><tspan x="0" y="0">r</tspan></text><text font-family="CMR10" transform="matrix(1 0 0 -1 82.17889 266.576)"><tspan x="0" y="0">o</tspan></text><text font-family="CMR10" transform="matrix(1 0 0 -1 87.16022 266.576)"><tspan x="0" y="0">t</tspan></text><text font-family="CMR10" transform="matrix(1 0 0 -1 91.03459 266.576)"><tspan x="0" y="0">i</tspan></text><text font-family="CMR10" transform="matrix(1 0 0 -1 93.802 266.576)"><tspan x="0" y="0">c</tspan></text><text font-family="CMMI10" transform="matrix(1 0 0 -1 52.37401 254.6209)"><tspan x="0" y="0">E</tspan></text><text font-family="CMR10" transform="matrix(1 0 0 -1 60.30259 254.6209)"><tspan x="0" y="0">(</tspan></text><text font-family="CMR10" transform="matrix(1 0 0 -1 64.17696 254.6209)"><tspan x="0" y="0">8</tspan></text><text font-family="CMR10" transform="matrix(1 0 0 -1 69.1583 254.6209)"><tspan x="0" y="0">)</tspan></text><text font-family="CMSY10" transform="matrix(1 0 0 -1 75.24654 254.6209)"><tspan x="0" y="0">×</tspan></text><text font-family="CMMI10" transform="matrix(1 0 0 -1 85.20915 254.6209)"><tspan x="0" y="0">E</tspan></text><text font-family="CMR10" transform="matrix(1 0 0 -1 93.13773 254.6209)"><tspan x="0" y="0">(</tspan></text><text font-family="CMR10" transform="matrix(1 0 0 -1 97.0121 254.6209)"><tspan x="0" y="0">8</tspan></text><text font-family="CMR10" transform="matrix(1 0 0 -1 101.9934 254.6209)"><tspan x="0" y="0">)</tspan></text><text font-family="CMR10" transform="matrix(1 0 0 -1 255.5478 232.0303)"><tspan x="0" y="0">T</tspan></text><text font-family="CMR10" transform="matrix(1 0 0 -1 262.4663 232.0303)"><tspan x="0" y="0">y</tspan></text><text font-family="CMR10" transform="matrix(1 0 0 -1 267.7244 232.0303)"><tspan x="0" y="0">p</tspan></text><text font-family="CMR10" transform="matrix(1 0 0 -1 273.5359 232.0303)"><tspan x="0" y="0">e</tspan></text><text font-family="CMR10" transform="matrix(1 0 0 -1 281.2846 232.0303)"><tspan x="0" y="0">I</tspan></text><text font-family="CMR10" transform="matrix(1 0 0 -1 285.159 232.0303)"><tspan x="0" y="0">I</tspan></text><text font-family="CMR10" transform="matrix(1 0 0 -1 292.0775 232.0303)"><tspan x="0" y="0">A</tspan></text><text font-family="CMR10" transform="matrix(1 0 0 -1 284.1021 90.29628)"><tspan x="0" y="0">T</tspan></text><text font-family="CMR10" transform="matrix(1 0 0 -1 291.0206 90.29628)"><tspan x="0" y="0">y</tspan></text><text font-family="CMR10" transform="matrix(1 0 0 -1 296.2787 90.29628)"><tspan x="0" y="0">p</tspan></text><text font-family="CMR10" transform="matrix(1 0 0 -1 302.0903 90.29628)"><tspan x="0" y="0">e</tspan></text><text font-family="CMR10" transform="matrix(1 0 0 -1 309.839 90.29628)"><tspan x="0" y="0">I</tspan></text><text font-family="CMR10" transform="matrix(1 0 0 -1 313.7134 90.29628)"><tspan x="0" y="0">I</tspan></text><text font-family="CMR10" transform="matrix(1 0 0 -1 320.6319 90.29628)"><tspan x="0" y="0">B</tspan></text><text font-family="CMR10" transform="matrix(1 0 0 -1 149.4943 5.255836)"><tspan x="0" y="0">T</tspan></text><text font-family="CMR10" transform="matrix(1 0 0 -1 156.4128 5.255836)"><tspan x="0" y="0">y</tspan></text><text font-family="CMR10" transform="matrix(1 0 0 -1 161.6708 5.255836)"><tspan x="0" y="0">p</tspan></text><text font-family="CMR10" transform="matrix(1 0 0 -1 167.4824 5.255836)"><tspan x="0" y="0">e</tspan></text><text font-family="CMR10" transform="matrix(1 0 0 -1 175.2311 5.255836)"><tspan x="0" y="0">I</tspan></text></g><path d="m-143.861-13.69368c-8.2875 45.86957 4.8592 82.47069 40.4386 112.58182" fill="none" stroke="#000" stroke-miterlimit="10" stroke-width=".3985" transform="translate(164.1617 149.4252)"/><path d="m-1.19551 1.59401c.09964-.59775 1.19551-1.4944 1.49437-1.59401-.29886-.09961-1.39473-.99626-1.49437-1.59401" style="fill:none;stroke:#000;stroke-width:.31879;stroke-linecap:round;stroke-linejoin:round;stroke-miterlimit:10" transform="matrix(.17781 -.98418 .98418 .17781 20.30065 135.7316)"/><path d="m-1.19551 1.59401c.09964-.59775 1.19551-1.4944 1.49437-1.59401-.29886-.09961-1.39473-.99626-1.49437-1.59401" style="fill:none;stroke:#000;stroke-width:.31879;stroke-linecap:round;stroke-linejoin:round;stroke-miterlimit:10" transform="matrix(.7657 .64806 -.64806 .7657 60.73925 248.3133)"/><text font-family="CMR10" font-size="9.96264" transform="matrix(1 0 0 -1 29.02752 190.1031)"><tspan x="0" y="0">c</tspan></text><text font-family="CMR10" font-size="9.96264" transform="matrix(1 0 0 -1 33.45536 190.1031)"><tspan x="0" y="0">o</tspan></text><text font-family="CMR10" font-size="9.96264" transform="matrix(1 0 0 -1 38.43669 190.1031)"><tspan x="0" y="0">m</tspan></text><text font-family="CMR10" font-size="9.96264" transform="matrix(1 0 0 -1 46.73892 190.1031)"><tspan x="0" y="0">p</tspan></text><text font-family="CMR10" font-size="9.96264" transform="matrix(1 0 0 -1 52.27374 190.1031)"><tspan x="0" y="0">a</tspan></text><text font-family="CMR10" font-size="9.96264" transform="matrix(1 0 0 -1 57.25507 190.1031)"><tspan x="0" y="0">c</tspan></text><text font-family="CMR10" font-size="9.96264" transform="matrix(1 0 0 -1 61.68291 190.1031)"><tspan x="0" y="0">-</tspan></text><text font-family="CMR10" font-size="9.96264" transform="matrix(1 0 0 -1 27.64379 178.1479)"><tspan x="0" y="0">t</tspan></text><text font-family="CMR10" font-size="9.96264" transform="matrix(1 0 0 -1 31.51816 178.1479)"><tspan x="0" y="0">i</tspan></text><text font-family="CMR10" font-size="9.96264" transform="matrix(1 0 0 -1 34.28557 178.1479)"><tspan x="0" y="0">f</tspan></text><text font-family="CMR10" font-size="9.96264" transform="matrix(1 0 0 -1 39.82039 178.1479)"><tspan x="0" y="0">c</tspan></text><text font-family="CMR10" font-size="9.96264" transform="matrix(1 0 0 -1 44.24823 178.1479)"><tspan x="0" y="0">a</tspan></text><text font-family="CMR10" font-size="9.96264" transform="matrix(1 0 0 -1 49.22956 178.1479)"><tspan x="0" y="0">t</tspan></text><text font-family="CMR10" font-size="9.96264" transform="matrix(1 0 0 -1 53.10393 178.1479)"><tspan x="0" y="0">i</tspan></text><text font-family="CMR10" font-size="9.96264" transform="matrix(1 0 0 -1 55.87134 178.1479)"><tspan x="0" y="0">o</tspan></text><text font-family="CMR10" font-size="9.96264" transform="matrix(1 0 0 -1 60.85268 178.1479)"><tspan x="0" y="0">n</tspan></text><path d="m-54.33817 125.6457c59.31673 19.688 110.62999 9.1174 157.33747-32.40707" fill="none" stroke="#000" stroke-miterlimit="10" stroke-width=".3985" transform="translate(164.1617 149.4252)"/><path d="m-1.19551 1.59401c.09964-.59775 1.19551-1.4944 1.49437-1.59401-.29886-.09961-1.39473-.99626-1.49437-1.59401" style="fill:none;stroke:#000;stroke-width:.31879;stroke-linecap:round;stroke-linejoin:round;stroke-miterlimit:10" transform="matrix(-.94963 -.31519 .31519 -.94963 109.8235 275.0709)"/><path d="m-1.19551 1.59401c.09964-.59775 1.19551-1.4944 1.49437-1.59401-.29886-.09961-1.39473-.99626-1.49437-1.59401" style="fill:none;stroke:#000;stroke-width:.31879;stroke-linecap:round;stroke-linejoin:round;stroke-miterlimit:10" transform="matrix(.75072 -.66745 .66745 .75072 267.161 242.6639)"/><text font-family="CMR10" font-size="9.96264" transform="matrix(1 0 0 -1 149.2572 271.3274)"><tspan x="0" y="0">M</tspan></text><text font-family="CMR10" font-size="9.96264" transform="matrix(1 0 0 -1 158.3896 271.3274)"><tspan x="0" y="0">-</tspan></text><text font-family="CMR10" font-size="9.96264" transform="matrix(1 0 0 -1 161.7105 271.3274)"><tspan x="0" y="0">t</tspan></text><text font-family="CMR10" font-size="9.96264" transform="matrix(1 0 0 -1 165.5849 271.3274)"><tspan x="0" y="0">h</tspan></text><text font-family="CMR10" font-size="9.96264" transform="matrix(1 0 0 -1 171.1197 271.3274)"><tspan x="0" y="0">e</tspan></text><text font-family="CMR10" font-size="9.96264" transform="matrix(1 0 0 -1 175.5475 271.3274)"><tspan x="0" y="0">o</tspan></text><text font-family="CMR10" font-size="9.96264" transform="matrix(1 0 0 -1 180.5288 271.3274)"><tspan x="0" y="0">r</tspan></text><text font-family="CMR10" font-size="9.96264" transform="matrix(1 0 0 -1 184.4309 271.3274)"><tspan x="0" y="0">y</tspan></text><path d="m120.6191 76.80061c32.4521-37.5666 40.2381-78.28045 23.9308-125.168" fill="none" stroke="#000" stroke-miterlimit="10" stroke-width=".3985" transform="translate(164.1617 149.4252)"/><path d="m-1.19551 1.59401c.09964-.59775 1.19551-1.4944 1.49437-1.59401-.29886-.09961-1.39473-.99626-1.49437-1.59401" style="fill:none;stroke:#000;stroke-width:.31879;stroke-linecap:round;stroke-linejoin:round;stroke-miterlimit:10" transform="matrix(-.65494 .75818 -.75818 -.65494 284.7807 226.2258)"/><path d="m-1.19551 1.59401c.09964-.59775 1.19551-1.4944 1.49437-1.59401-.29886-.09961-1.39473-.99626-1.49437-1.59401" style="fill:none;stroke:#000;stroke-width:.31879;stroke-linecap:round;stroke-linejoin:round;stroke-miterlimit:10" transform="matrix(-.32928 -.94678 .94678 -.32928 308.7116 101.0578)"/><text font-family="CMR10" font-size="9.96264" transform="matrix(1 0 0 -1 270.4966 156.688)"><tspan x="0" y="0">T</tspan></text><text font-family="CMR10" font-size="9.96264" transform="matrix(1 0 0 -1 277.6918 156.688)"><tspan x="0" y="0">-</tspan></text><text font-family="CMR10" font-size="9.96264" transform="matrix(1 0 0 -1 281.0127 156.688)"><tspan x="0" y="0">d</tspan></text><text font-family="CMR10" font-size="9.96264" transform="matrix(1 0 0 -1 286.5475 156.688)"><tspan x="0" y="0">u</tspan></text><text font-family="CMR10" font-size="9.96264" transform="matrix(1 0 0 -1 292.0824 156.688)"><tspan x="0" y="0">a</tspan></text><text font-family="CMR10" font-size="9.96264" transform="matrix(1 0 0 -1 297.0637 156.688)"><tspan x="0" y="0">l</tspan></text><text font-family="CMR10" font-size="9.96264" transform="matrix(1 0 0 -1 299.8311 156.688)"><tspan x="0" y="0">i</tspan></text><text font-family="CMR10" font-size="9.96264" transform="matrix(1 0 0 -1 302.5985 156.688)"><tspan x="0" y="0">t</tspan></text><text font-family="CMR10" font-size="9.96264" transform="matrix(1 0 0 -1 306.1961 156.688)"><tspan x="0" y="0">y</tspan></text><path d="m137.1509-64.9942c-25.1093-48.886-63.61414-73.7137-118.50574-76.4116" fill="none" stroke="#000" stroke-miterlimit="10" stroke-width=".3985" transform="translate(164.1617 149.4252)"/><path d="m-1.19551 1.59401c.09964-.59775 1.19551-1.4944 1.49437-1.59401-.29886-.09961-1.39473-.99626-1.49437-1.59401" style="fill:none;stroke:#000;stroke-width:.31879;stroke-linecap:round;stroke-linejoin:round;stroke-miterlimit:10" transform="matrix(.45758 .89082 -.89082 .45758 301.3126 84.43101)"/><path d="m-1.19551 1.59401c.09964-.59775 1.19551-1.4944 1.49437-1.59401-.29886-.09961-1.39473-.99626-1.49437-1.59401" style="fill:none;stroke:#000;stroke-width:.31879;stroke-linecap:round;stroke-linejoin:round;stroke-miterlimit:10" transform="matrix(-.9992 -.04909 .04909 -.9992 182.8068 8.019476)"/><text font-family="CMR10" font-size="9.96264" transform="matrix(1 0 0 -1 205.3705 44.42794)"><tspan x="0" y="0">o</tspan></text><text font-family="CMR10" font-size="9.96264" transform="matrix(1 0 0 -1 210.3518 44.42794)"><tspan x="0" y="0">r</tspan></text><text font-family="CMR10" font-size="9.96264" transform="matrix(1 0 0 -1 214.2538 44.42794)"><tspan x="0" y="0">i</tspan></text><text font-family="CMR10" font-size="9.96264" transform="matrix(1 0 0 -1 217.0212 44.42794)"><tspan x="0" y="0">e</tspan></text><text font-family="CMR10" font-size="9.96264" transform="matrix(1 0 0 -1 221.4491 44.42794)"><tspan x="0" y="0">n</tspan></text><text font-family="CMR10" font-size="9.96264" transform="matrix(1 0 0 -1 226.7072 44.42794)"><tspan x="0" y="0">t</tspan></text><text font-family="CMR10" font-size="9.96264" transform="matrix(1 0 0 -1 230.5815 44.42794)"><tspan x="0" y="0">i</tspan></text><text font-family="CMR10" font-size="9.96264" transform="matrix(1 0 0 -1 233.3489 44.42794)"><tspan x="0" y="0">f</tspan></text><text font-family="CMR10" font-size="9.96264" transform="matrix(1 0 0 -1 236.3931 44.42794)"><tspan x="0" y="0">o</tspan></text><text font-family="CMR10" font-size="9.96264" transform="matrix(1 0 0 -1 241.3744 44.42794)"><tspan x="0" y="0">l</tspan></text><text font-family="CMR10" font-size="9.96264" transform="matrix(1 0 0 -1 244.1418 44.42794)"><tspan x="0" y="0">d</tspan></text><text font-family="CMR10" font-size="9.96264" transform="matrix(1 0 0 -1 208.9819 32.47278)"><tspan x="0" y="0">a</tspan></text><text font-family="CMR10" font-size="9.96264" transform="matrix(1 0 0 -1 213.9633 32.47278)"><tspan x="0" y="0">c</tspan></text><text font-family="CMR10" font-size="9.96264" transform="matrix(1 0 0 -1 218.3911 32.47278)"><tspan x="0" y="0">t</tspan></text><text font-family="CMR10" font-size="9.96264" transform="matrix(1 0 0 -1 222.2655 32.47278)"><tspan x="0" y="0">i</tspan></text><text font-family="CMR10" font-size="9.96264" transform="matrix(1 0 0 -1 225.0329 32.47278)"><tspan x="0" y="0">o</tspan></text><text font-family="CMR10" font-size="9.96264" transform="matrix(1 0 0 -1 230.0142 32.47278)"><tspan x="0" y="0">n</tspan></text><text font-family="CMR10" font-size="9.96264" transform="matrix(1 0 0 -1 238.8699 32.47278)"><tspan x="0" y="0">Ω</tspan></text><path d="m-18.63976-138.8971c-58.4095 9.5174-96.42354 40.57665-117.38574 95.91839" fill="none" stroke="#000" stroke-miterlimit="10" stroke-width=".3985" transform="translate(164.1617 149.4252)"/><path d="m-1.19551 1.59401c.09964-.59775 1.19551-1.4944 1.49437-1.59401-.29886-.09961-1.39473-.99626-1.49437-1.59401" style="fill:none;stroke:#000;stroke-width:.31879;stroke-linecap:round;stroke-linejoin:round;stroke-miterlimit:10" transform="matrix(.98744 -.16087 .16087 .98744 145.5219 10.52813)"/><path d="m-1.19551 1.59401c.09964-.59775 1.19551-1.4944 1.49437-1.59401-.29886-.09961-1.39473-.99626-1.49437-1.59401" style="fill:none;stroke:#000;stroke-width:.31879;stroke-linecap:round;stroke-linejoin:round;stroke-miterlimit:10" transform="matrix(-.35526 .93787 -.93787 -.35526 28.13617 106.4465)"/><text font-family="CMR10" font-size="9.96264" transform="matrix(1 0 0 -1 76.34235 46.80476)"><tspan x="0" y="0">S</tspan></text><text font-family="CMR10" font-size="9.96264" transform="matrix(1 0 0 -1 81.87717 46.80476)"><tspan x="0" y="0">-</tspan></text><text font-family="CMR10" font-size="9.96264" transform="matrix(1 0 0 -1 85.19804 46.80476)"><tspan x="0" y="0">d</tspan></text><text font-family="CMR10" font-size="9.96264" transform="matrix(1 0 0 -1 90.73286 46.80476)"><tspan x="0" y="0">u</tspan></text><text font-family="CMR10" font-size="9.96264" transform="matrix(1 0 0 -1 96.26768 46.80476)"><tspan x="0" y="0">a</tspan></text><text font-family="CMR10" font-size="9.96264" transform="matrix(1 0 0 -1 101.249 46.80476)"><tspan x="0" y="0">l</tspan></text><text font-family="CMR10" font-size="9.96264" transform="matrix(1 0 0 -1 104.0164 46.80476)"><tspan x="0" y="0">i</tspan></text><text font-family="CMR10" font-size="9.96264" transform="matrix(1 0 0 -1 106.7838 46.80476)"><tspan x="0" y="0">t</tspan></text><text font-family="CMR10" font-size="9.96264" transform="matrix(1 0 0 -1 110.3815 46.80476)"><tspan x="0" y="0">y</tspan></text><g clip-path="url(#a)" fill="none" stroke="#00008b" stroke-miterlimit="10" stroke-width=".3985"><path d="m-114.8532-28.3468c0 2.34825-1.9036 4.25184-4.2518 4.25184-2.3483 0-4.2519-1.90359-4.2519-4.25184s1.9036-4.25185 4.2519-4.25185c2.3482 0 4.2518 1.9036 4.2518 4.25185z" transform="translate(164.1617 149.4252)"/><path d="m-110.6014-28.3468c0 4.69652-3.8071 8.50368-8.5036 8.50368-4.6966 0-8.5037-3.80716-8.5037-8.50368s3.8071-8.50368 8.5037-8.50368c4.6965 0 8.5036 3.80716 8.5036 8.50368z" transform="translate(164.1617 149.4252)"/><path d="m-106.3495-28.3468c0 7.04477-5.7108 12.75552-12.7555 12.75552-7.0448 0-12.7556-5.71075-12.7556-12.75552s5.7108-12.75553 12.7556-12.75553c7.0447 0 12.7555 5.71076 12.7555 12.75553z" transform="translate(164.1617 149.4252)"/><path d="m-102.0977-28.3468c0 9.39303-7.6143 17.00737-17.0073 17.00737-9.3931 0-17.0074-7.61434-17.0074-17.00737 0-9.39304 7.6143-17.00737 17.0074-17.00737 9.393 0 17.0073 7.61433 17.0073 17.00737z" transform="translate(164.1617 149.4252)"/><path d="m-97.84584-28.3468c0 11.74127-9.51796 21.2592-21.25916 21.2592-11.7413 0-21.2593-9.51793-21.2593-21.2592s9.518-21.2592 21.2593-21.2592c11.7412 0 21.25916 9.51793 21.25916 21.2592z" transform="translate(164.1617 149.4252)"/><path d="m-93.594-28.3468c0 14.08954-11.4215 25.51105-25.511 25.51105-14.0896 0-25.5111-11.42151-25.5111-25.51105s11.4215-25.51105 25.5111-25.51105c14.0895 0 25.511 11.42151 25.511 25.51105z" transform="translate(164.1617 149.4252)"/><path d="m-80.78857 99.18512c0 2.34828-1.9036 4.25188-4.25185 4.25188s-4.25185-1.9036-4.25185-4.25188c0-2.34825 1.9036-4.25185 4.25185-4.25185s4.25185 1.9036 4.25185 4.25185z" transform="translate(164.1617 149.4252)"/><path d="m-76.53674 99.18512c0 4.69648-3.80716 8.50368-8.50368 8.50368s-8.50368-3.8072-8.50368-8.50368c0-4.69652 3.80716-8.50368 8.50368-8.50368s8.50368 3.80716 8.50368 8.50368z" transform="translate(164.1617 149.4252)"/><path d="m-72.2849 99.18512c0 7.04478-5.71075 12.75548-12.75552 12.75548s-12.75552-5.7107-12.75552-12.75548c0-7.04477 5.71075-12.75552 12.75552-12.75552s12.75552 5.71075 12.75552 12.75552z" transform="translate(164.1617 149.4252)"/><path d="m-68.03305 99.18512c0 9.39298-7.61435 17.00738-17.00737 17.00738-9.39304 0-17.00738-7.6144-17.00738-17.00738 0-9.39304 7.61434-17.00737 17.00738-17.00737 9.39302 0 17.00737 7.61433 17.00737 17.00737z" transform="translate(164.1617 149.4252)"/><path d="m-63.78122 99.18512c0 11.74128-9.51793 21.25918-21.2592 21.25918-11.74129 0-21.25918-9.5179-21.25918-21.25918 0-11.74129 9.51789-21.2592 21.25918-21.2592 11.74127 0 21.2592 9.51791 21.2592 21.2592z" transform="translate(164.1617 149.4252)"/><path d="m-59.52937 99.18512c0 14.08958-11.42151 25.51108-25.51105 25.51108s-25.51108-11.4215-25.51108-25.51108c0-14.08954 11.42154-25.51105 25.51108-25.51105s25.51105 11.42151 25.51105 25.51105z" transform="translate(164.1617 149.4252)"/><path d="m117.6391 77.14807c0 2.34825-1.9036 4.25185-4.2519 4.25185-2.3482 0-4.2518-1.9036-4.2518-4.25185s1.9036-4.25185 4.2518-4.25185c2.3483 0 4.2519 1.9036 4.2519 4.25185z" transform="translate(164.1617 149.4252)"/><path d="m121.8909 77.14807c0 4.69652-3.8072 8.50368-8.5037 8.50368s-8.5037-3.80716-8.5037-8.50368 3.8072-8.50367 8.5037-8.50367 8.5037 3.80715 8.5037 8.50367z" transform="translate(164.1617 149.4252)"/><path d="m126.1428 77.14807c0 7.04477-5.7108 12.75553-12.7556 12.75553-7.0447 0-12.7555-5.71076-12.7555-12.75553s5.7108-12.75552 12.7555-12.75552c7.0448 0 12.7556 5.71075 12.7556 12.75552z" transform="translate(164.1617 149.4252)"/><path d="m130.3946 77.14807c0 9.39303-7.6143 17.00737-17.0074 17.00737-9.393 0-17.00733-7.61434-17.00733-17.00737s7.61433-17.00737 17.00733-17.00737c9.3931 0 17.0074 7.61434 17.0074 17.00737z" transform="translate(164.1617 149.4252)"/><path d="m134.6464 77.14807c0 11.74127-9.5179 21.2592-21.2592 21.2592-11.7412 0-21.25918-9.51793-21.25918-21.2592s9.51798-21.2592 21.25918-21.2592c11.7413 0 21.2592 9.51793 21.2592 21.2592z" transform="translate(164.1617 149.4252)"/><path d="m138.8983 77.14807c0 14.08954-11.4215 25.51103-25.5111 25.51103-14.08952 0-25.51101-11.42149-25.51101-25.51103s11.42149-25.51105 25.51101-25.51105c14.0896 0 25.5111 11.42151 25.5111 25.51105z" transform="translate(164.1617 149.4252)"/><path d="m120.6725-56.69362c0 2.34825-1.9036 4.25185-4.2519 4.25185-2.3482 0-4.2518-1.9036-4.2518-4.25185 0-2.34823 1.9036-4.25183 4.2518-4.25183 2.3483 0 4.2519 1.9036 4.2519 4.25183z" transform="translate(164.1617 149.4252)"/><path d="m124.9243-56.69362c0 4.69652-3.8072 8.50369-8.5037 8.50369s-8.5037-3.80717-8.5037-8.50369c0-4.6965 3.8072-8.50368 8.5037-8.50368s8.5037 3.80718 8.5037 8.50368z" transform="translate(164.1617 149.4252)"/><path d="m129.1762-56.69362c0 7.04477-5.7108 12.75552-12.7556 12.75552-7.0447 0-12.7555-5.71075-12.7555-12.75552 0-7.04475 5.7108-12.75552 12.7555-12.75552 7.0448 0 12.7556 5.71077 12.7556 12.75552z" transform="translate(164.1617 149.4252)"/><path d="m133.428-56.69362c0 9.39304-7.6143 17.00737-17.0074 17.00737-9.393 0-17.00733-7.61433-17.00733-17.00737 0-9.39302 7.61433-17.00735 17.00733-17.00735 9.3931 0 17.0074 7.61433 17.0074 17.00735z" transform="translate(164.1617 149.4252)"/><path d="m137.6798-56.69362c0 11.74129-9.5179 21.25922-21.2592 21.25922s-21.25918-9.51793-21.25918-21.25922c0-11.74127 9.51788-21.2592 21.25918-21.2592s21.2592 9.51793 21.2592 21.2592z" transform="translate(164.1617 149.4252)"/><path d="m141.9317-56.69362c0 14.08956-11.4215 25.51105-25.5111 25.51105-14.0895 0-25.51101-11.42149-25.51101-25.51105 0-14.08954 11.42151-25.51105 25.51101-25.51105 14.0896 0 25.5111 11.42151 25.5111 25.51105z" transform="translate(164.1617 149.4252)"/><path d="m4.25183-133.8417c0 2.3483-1.90359 4.2519-4.25183 4.2519s-4.25183-1.9036-4.25183-4.2519c0-2.3482 1.90359-4.2518 4.25183-4.2518s4.25183 1.9036 4.25183 4.2518z" transform="translate(164.1617 149.4252)"/><path d="m8.50368-133.8417c0 4.6965-3.80718 8.5037-8.50368 8.5037s-8.50368-3.8072-8.50368-8.5037 3.80718-8.5037 8.50368-8.5037 8.50368 3.8072 8.50368 8.5037z" transform="translate(164.1617 149.4252)"/><path d="m12.75552-133.8417c0 7.0448-5.71077 12.7555-12.75552 12.7555s-12.75552-5.7107-12.75552-12.7555 5.71077-12.7555 12.75552-12.7555 12.75552 5.7107 12.75552 12.7555z" transform="translate(164.1617 149.4252)"/><path d="m17.00735-133.8417c0 9.393-7.61433 17.0074-17.00735 17.0074s-17.00735-7.6144-17.00735-17.0074 7.61433-17.0074 17.00735-17.0074 17.00735 7.6144 17.00735 17.0074z" transform="translate(164.1617 149.4252)"/><path d="m21.2592-133.8417c0 11.7413-9.51793 21.2592-21.2592 21.2592s-21.2592-9.5179-21.2592-21.2592 9.51793-21.2592 21.2592-21.2592 21.2592 9.5179 21.2592 21.2592z" transform="translate(164.1617 149.4252)"/><path d="m25.51105-133.8417c0 14.0895-11.42151 25.5111-25.51105 25.5111s-25.51105-11.4216-25.51105-25.5111 11.42151-25.511 25.51105-25.511 25.51105 11.4215 25.51105 25.511z" transform="translate(164.1617 149.4252)"/><path d="m-114.8532-28.3468c0 2.34825-1.9036 4.25184-4.2518 4.25184-2.3483 0-4.2519-1.90359-4.2519-4.25184s1.9036-4.25185 4.2519-4.25185c2.3482 0 4.2518 1.9036 4.2518 4.25185z" transform="translate(164.1617 149.4252)"/><path d="m-110.6014-28.3468c0 4.69652-3.8071 8.50368-8.5036 8.50368-4.6966 0-8.5037-3.80716-8.5037-8.50368s3.8071-8.50368 8.5037-8.50368c4.6965 0 8.5036 3.80716 8.5036 8.50368z" transform="translate(164.1617 149.4252)"/><path d="m-106.3495-28.3468c0 7.04477-5.7108 12.75552-12.7555 12.75552-7.0448 0-12.7556-5.71075-12.7556-12.75552s5.7108-12.75553 12.7556-12.75553c7.0447 0 12.7555 5.71076 12.7555 12.75553z" transform="translate(164.1617 149.4252)"/><path d="m-102.0977-28.3468c0 9.39303-7.6143 17.00737-17.0073 17.00737-9.3931 0-17.0074-7.61434-17.0074-17.00737 0-9.39304 7.6143-17.00737 17.0074-17.00737 9.393 0 17.0073 7.61433 17.0073 17.00737z" transform="translate(164.1617 149.4252)"/><path d="m-97.84584-28.3468c0 11.74127-9.51796 21.2592-21.25916 21.2592-11.7413 0-21.2593-9.51793-21.2593-21.2592s9.518-21.2592 21.2593-21.2592c11.7412 0 21.25916 9.51793 21.25916 21.2592z" transform="translate(164.1617 149.4252)"/><path d="m-93.594-28.3468c0 14.08954-11.4215 25.51105-25.511 25.51105-14.0896 0-25.5111-11.42151-25.5111-25.51105s11.4215-25.51105 25.5111-25.51105c14.0895 0 25.511 11.42151 25.511 25.51105z" transform="translate(164.1617 149.4252)"/></g><path d="m45.05663 121.0784c36.4785 36.5358 47.46615 77.6727 34.06462 127.5319 62.83055-46.2153 126.98865-53.342 198.42765-22.037-25.1664-45.9626-24.1881-89.0656 3.0334-133.84169-54.4867-3.36238-92.0891-28.28008-116.4206-77.14807-19.7491 59.14095-58.013 93.02746-119.10507 105.49486" fill="#808080" fill-opacity=".3"/><path d="m-119.105-28.3468c36.47846 36.53575 47.46611 77.67268 34.06458 127.53192 62.83052-46.21533 126.98868-53.34204 198.42762-22.03705-25.16636-45.96258-24.18804-89.06558 3.0334-133.84169-54.48664-3.36238-92.08907-28.28008-116.4206-77.14808-19.74911 59.14096-58.01295 93.02749-119.105 105.4949" fill="none" stroke="#808080" stroke-miterlimit="10" stroke-width="1.19553" transform="translate(164.1617 149.4252)"/><text font-family="CMR10" font-size="9.96264" transform="matrix(1 0 0 -1 123.0099 157.6276)"><tspan x="0" y="0">p</tspan></text><text font-family="CMR10" font-size="9.96264" transform="matrix(1 0 0 -1 128.5447 157.6276)"><tspan x="0" y="0">a</tspan></text><text font-family="CMR10" font-size="9.96264" transform="matrix(1 0 0 -1 133.526 157.6276)"><tspan x="0" y="0">r</tspan></text><text font-family="CMR10" font-size="9.96264" transform="matrix(1 0 0 -1 137.428 157.6276)"><tspan x="0" y="0">a</tspan></text><text font-family="CMR10" font-size="9.96264" transform="matrix(1 0 0 -1 142.4094 157.6276)"><tspan x="0" y="0">m</tspan></text><text font-family="CMR10" font-size="9.96264" transform="matrix(1 0 0 -1 150.7116 157.6276)"><tspan x="0" y="0">e</tspan></text><text font-family="CMR10" font-size="9.96264" transform="matrix(1 0 0 -1 155.1394 157.6276)"><tspan x="0" y="0">t</tspan></text><text font-family="CMR10" font-size="9.96264" transform="matrix(1 0 0 -1 159.0138 157.6276)"><tspan x="0" y="0">e</tspan></text><text font-family="CMR10" font-size="9.96264" transform="matrix(1 0 0 -1 163.4417 157.6276)"><tspan x="0" y="0">r</tspan></text><text font-family="CMR10" font-size="9.96264" transform="matrix(1 0 0 -1 170.6646 157.6276)"><tspan x="0" y="0">s</tspan></text><text font-family="CMR10" font-size="9.96264" transform="matrix(1 0 0 -1 174.5943 157.6276)"><tspan x="0" y="0">p</tspan></text><text font-family="CMR10" font-size="9.96264" transform="matrix(1 0 0 -1 180.1291 157.6276)"><tspan x="0" y="0">a</tspan></text><text font-family="CMR10" font-size="9.96264" transform="matrix(1 0 0 -1 185.1104 157.6276)"><tspan x="0" y="0">c</tspan></text><text font-family="CMR10" font-size="9.96264" transform="matrix(1 0 0 -1 189.5383 157.6276)"><tspan x="0" y="0">e</tspan></text><text font-family="CMR10" font-size="9.96264" transform="matrix(1 0 0 -1 197.287 157.6276)"><tspan x="0" y="0">o</tspan></text><text font-family="CMR10" font-size="9.96264" transform="matrix(1 0 0 -1 202.2683 157.6276)"><tspan x="0" y="0">f</tspan></text><text font-family="CMBX12" font-size="14.3462" transform="matrix(1 0 0 -1 128.3372 137.0936)"><tspan x="0" y="0">M</tspan></text><text font-family="CMBX12" font-size="14.3462" transform="matrix(1 0 0 -1 143.6465 137.0936)"><tspan x="0" y="0">-</tspan></text><text font-family="CMBX12" font-size="14.3462" transform="matrix(1 0 0 -1 149.0263 137.0936)"><tspan x="0" y="0">T</tspan></text><text font-family="CMBX12" font-size="14.3462" transform="matrix(1 0 0 -1 160.2508 137.0936)"><tspan x="0" y="0">h</tspan></text><text font-family="CMBX12" font-size="14.3462" transform="matrix(1 0 0 -1 169.2172 137.0936)"><tspan x="0" y="0">e</tspan></text><text font-family="CMBX12" font-size="14.3462" transform="matrix(1 0 0 -1 176.5813 137.0936)"><tspan x="0" y="0">o</tspan></text><text font-family="CMBX12" font-size="14.3462" transform="matrix(1 0 0 -1 184.651 137.0936)"><tspan x="0" y="0">r</tspan></text><text font-family="CMBX12" font-size="14.3462" transform="matrix(1 0 0 -1 191.2429 137.0936)"><tspan x="0" y="0">y</tspan></text></g></svg>