<svg clip-rule="evenodd" fill-rule="evenodd" stroke-linejoin="round" stroke-miterlimit="1.414" viewBox="0 0 291 291" xmlns="http://www.w3.org/2000/svg"><g fill-rule="nonzero"><path d="M290.187 0L263.75 261.15 144.916 290.2 26.409 261.191 0 0z" fill="#264de4"/><path d="M241.118 244.521L263.71 21.356H145.094v246.639z" fill="#2965f1"/><g fill="#ebebeb"><path d="M60.542 118.228l3.256 32.034h81.296v-32.034zm84.552-64.837H53.999l3.303 32.034h87.792zm0 181.361v-33.328l-.16.037-40.459-9.633-2.586-25.549H65.421l5.089 50.298 74.416 18.216z"/></g><path d="M189.702 150.262l-4.216 41.545-40.518 9.643v33.328l74.475-18.201.547-5.412 8.536-84.335.887-8.602 6.558-64.837h-91.003v32.034h51.19l-3.305 32.803h-47.885v32.034z" fill="#fff"/></g></svg>