<svg viewBox="0 0 400 400" xmlns="http://www.w3.org/2000/svg"><g fill="#e535ab"><path d="M57.468 302.66l-14.376-8.3 160.15-277.38 14.376 8.3z"/><path d="M39.8 272.2h320.3v16.6H39.8z"/><path d="M206.348 374.026l-160.21-92.5 8.3-14.376 160.21 92.5z"/><path d="M345.522 132.947l-160.21-92.5 8.3-14.376 160.21 92.5z"/><path d="M54.482 132.883l-8.3-14.375 160.21-92.5 8.3 14.375z"/><path d="M342.568 302.663l-160.15-277.38 14.376-8.3 160.15 277.38z"/><path d="M52.5 107.5h16.6v185H52.5zm278.4 0h16.6v185h-16.6z"/><path d="M203.522 367l-7.25-12.558 139.34-80.45 7.25 12.557z"/><path d="M369.5 297.9c-9.6 16.7-31 22.4-47.7 12.8s-22.4-31-12.8-47.7 31-22.4 47.7-12.8c16.8 9.7 22.5 31 12.8 47.7M90.9 137c-9.6 16.7-31 22.4-47.7 12.8s-22.4-31-12.8-47.7 31-22.4 47.7-12.8c16.7 9.7 22.4 31 12.8 47.7M30.5 297.9c-9.6-16.7-3.9-38 12.8-47.7 16.7-9.6 38-3.9 47.7 12.8 9.6 16.7 3.9 38-12.8 47.7-16.8 9.6-38.1 3.9-47.7-12.8M309.1 137c-9.6-16.7-3.9-38 12.8-47.7 16.7-9.6 38-3.9 47.7 12.8 9.6 16.7 3.9 38-12.8 47.7-16.7 9.6-38.1 3.9-47.7-12.8M200 395.8c-19.3 0-34.9-15.6-34.9-34.9S180.7 326 200 326s34.9 15.6 34.9 34.9c0 19.2-15.6 34.9-34.9 34.9M200 74c-19.3 0-34.9-15.6-34.9-34.9S180.7 4.2 200 4.2s34.9 15.6 34.9 34.9S219.3 74 200 74"/></g></svg>