<svg clip-rule="evenodd" fill-rule="evenodd" stroke-linejoin="round" stroke-miterlimit="1.414" viewBox="0 0 512 512" xmlns="http://www.w3.org/2000/svg"><g fill-rule="nonzero"><path d="M46.595 460.819L0 0h512l-46.645 460.746L255.687 512z" fill="#e44d26"/><path d="M256 472.824l169.423-41.416 39.86-393.729H256z" fill="#f16529"/><path d="M256 208.59h-84.817l-5.858-57.875H256V94.197H95.275l1.534 15.163 15.754 155.747H256zm0 146.782l-.281.066-71.385-16.996-4.564-45.076H115.427l8.98 88.741 131.298 32.139.295-.072z" fill="#ebebeb"/><g fill="#fff"><path d="M255.778 208.59v56.517h78.929l-7.44 73.299-71.489 17.013v58.8l131.403-32.112.964-9.549 15.062-148.792 1.564-15.176h-17.273zm0-114.393v56.518h154.825l1.286-12.704 2.921-28.651 1.532-15.163z"/></g></g></svg>