<svg clip-rule="evenodd" fill-rule="evenodd" stroke-linejoin="round" stroke-miterlimit="1.414" viewBox="0 0 512 512" xmlns="http://www.w3.org/2000/svg"><g fill-rule="nonzero"><path d="M248.613 51.571c1.697 3.325 3.999 8.569 5.938 11.766 1.333 2.175 2.787 4.093 4.483 5.884 4.968 5.243 9.694 10.743 13.935 16.626 10.058 13.94 16.843 29.415 21.69 46.17 2.909 10.231 4.484 20.718 4.605 31.334.485 31.717-9.815 58.959-30.657 81.596-3.393 3.581-7.028 6.906-10.906 9.848-2.06 0-3.029-1.663-3.877-3.198-1.575-2.813-2.545-6.011-3.029-9.208-.727-3.837-1.212-7.674-.97-11.638v-1.791c-.121-.383-1.939-176.494-1.212-177.389z" fill="#599636"/><path d="M248.613 51.187c-.242-.511-.484-.127-.727.128.122 2.558-.727 4.86-2.06 7.035-1.454 2.174-3.392 3.836-5.331 5.627-10.785 9.848-19.267 21.742-26.052 35.043-8.967 17.905-13.693 37.089-15.026 57.296-.606 7.29 2.181 32.997 4.362 40.415 5.938 19.696 16.601 36.194 30.415 50.518 3.393 3.453 7.028 6.651 10.784 9.72 1.091 0 1.212-1.023 1.454-1.79a36.683 36.683 0 0 0 1.091-4.988c1.09-6.395 1.696-12.79 2.423-19.184 0-.768-.969-179.18-1.333-179.819z" fill="#6cac48"/><path d="M254.551 262.596c.242-2.941 1.575-5.371 3.029-7.801-1.454-.64-2.544-1.919-3.393-3.325-.727-1.279-1.333-2.814-1.817-4.221-1.697-5.371-2.06-10.999-2.545-16.498v-3.325c-.606.511-.727 4.859-.727 5.499a133.992 133.992 0 0 1-2.181 17.266c-.364 2.302-.606 4.604-1.939 6.65 0 .256 0 .512.121.895 2.182 6.779 2.787 13.685 3.151 20.719v2.558c0 3.07-.121 2.43 2.302 3.453.97.384 2.06.512 3.03 1.279.727 0 .848-.639.848-1.151-.121-1.407-.364-2.813-.364-4.22 0-3.965-.121-7.802 0-11.767-.121-2.046.243-4.092.485-6.011z" fill="#c2bfbf"/><path d="M19.126 338.127v14.01c0 .553 0 1.106.087 1.659.175 1.659 1.135 2.673 2.62 3.133 1.31.369 2.707.646 4.017.83.786.092 1.048.461 1.135 1.29.088 3.134-.174 3.503-3.056 3.319-6.724-.369-13.449-.461-20.173 0h-.698c-2.096.092-2.271-.093-2.271-2.305 0-.368.087-.829.087-1.198 0-.737.437-1.014 1.048-1.014 1.398-.184 2.708-.553 4.017-.829 1.834-.461 2.882-1.659 3.057-3.595.262-2.12.262-4.332.262-6.452.262-8.203.174-16.499.087-24.702 0-1.567-.611-2.765-1.921-3.503a24.358 24.358 0 0 0-4.978-2.212c-.524-.184-1.048-.276-1.484-.553-1.223-.645-1.31-1.843-.088-2.58a4.146 4.146 0 0 1 1.485-.553 76.148 76.148 0 0 0 15.544-4.148c1.048-.369 1.31-.277 1.397.83.088.737 0 1.474-.087 2.119-.175 1.199-.175 2.397-.175 3.503 0 .461.088.922.524 1.198.437.277.874 0 1.223-.276 1.834-1.475 3.668-2.858 5.676-4.056 2.882-1.659 5.938-3.134 9.257-3.595 4.017-.553 7.51.553 10.566 3.319 1.31 1.198 2.358 2.58 3.319 4.055.873 1.291.96 1.383 2.096.461 3.318-2.581 6.811-4.885 10.566-6.544 3.93-1.751 7.947-2.028 11.964-.553 4.104 1.567 6.899 4.608 8.558 8.756 1.397 3.318 2.009 6.821 2.009 10.323v24.702c0 1.659.698 2.765 2.183 3.503 1.659.737 3.493 1.014 5.239 1.382 1.136.277 1.136.277 1.136 1.475-.175 3.042-.437 3.226-3.231 3.042-6.987-.461-14.06-.369-21.046 0-1.397.092-1.397.092-1.485-1.383v-.461c-.087-2.488-.087-2.488 2.183-3.041a21.015 21.015 0 0 0 2.271-.646c1.747-.553 2.62-1.751 2.707-3.594l.262-6.913c0-5.991.175-12.075-.175-18.066-.087-1.567-.349-3.134-.96-4.701-2.183-5.622-6.986-7.65-11.615-7.097-3.493.369-6.549 1.844-9.431 3.964-.611.46-1.048 1.013-.961 1.935.786 5.899.262 11.798.35 17.697.087 4.24 0 8.572 0 12.812 0 2.304.873 3.41 2.969 3.963 1.31.369 2.62.646 4.017.922.611.092.961.369.961 1.106v.738c-.088 2.58-.262 2.765-2.708 2.673-6.986-.369-13.972-.277-20.871 0-2.358.092-2.62-.185-2.445-2.766.087-1.474.262-1.566 1.572-1.843l2.882-.553c2.62-.553 3.493-1.567 3.667-4.424.088-2.028.262-4.148.262-6.176.088-6.175.262-12.351-.174-18.526-.175-2.304-.699-4.517-1.834-6.637-1.747-3.41-4.541-5.161-8.209-5.345-3.755-.277-7.073 1.198-10.217 3.041-2.183 1.291-3.144 2.95-2.969 5.623.087 4.608-.088 9.032 0 13.457-.088 0 0 0 0 0v-.001.001zm164.524.553v12.996c0 .922.087 1.843.175 2.765.174 1.383.873 2.212 2.095 2.581 1.485.461 3.057.737 4.629.829.873.093 1.048.461 1.135 1.199v.645c-.087 3.226-.437 3.594-3.406 3.41-6.637-.461-13.273-.369-19.91 0-.874 0-1.747.092-2.62.092-.524 0-.699-.276-.786-.645a9.63 9.63 0 0 1 0-3.871c.087-.553.437-.737.961-.83 1.222-.184 2.357-.461 3.58-.737 2.183-.553 2.969-1.475 3.056-3.871.175-2.581.262-5.162.262-7.743v-22.674c0-1.659-.611-2.673-2.008-3.41-1.572-.922-3.231-1.567-4.978-2.212-.524-.185-1.048-.369-1.484-.645-1.136-.83-1.223-2.028-.175-2.95.524-.461 1.048-.645 1.747-.737 5.589-.922 11.003-2.212 16.242-4.425.612-.276.874-.092 1.136.461s.349 1.199.262 1.844c-.088 1.474-.175 2.857-.262 4.332 0 .553-.262 1.29.174 1.567.524.368.874-.461 1.31-.738 2.62-2.212 5.415-4.24 8.471-5.714 2.707-1.291 5.502-2.212 8.645-2.028 5.851.369 10.043 3.502 12.75 8.941 1.397 2.857 2.009 5.991 2.271 9.217a87.55 87.55 0 0 1 .262 6.82c0 6.36.087 12.628.087 18.988v1.382c.087 1.567.611 2.581 2.096 3.134 1.572.553 3.056.922 4.716 1.198 1.397.185 1.484.461 1.571 1.844v.461c-.174 3.133-.349 3.226-3.318 3.041a173.43 173.43 0 0 0-19.561 0c-.873.092-1.747 0-2.62.092-.524 0-.873-.092-.961-.645-.174-1.198-.349-2.396-.087-3.687.087-.553.349-.829.961-.921 1.31-.185 2.707-.369 4.017-.738 1.397-.368 2.183-1.29 2.358-2.765.087-.829.174-1.751.174-2.581 0-6.452 0-12.904-.087-19.264 0-2.212-.087-4.424-.524-6.636-1.048-4.793-4.454-8.019-9.082-8.572-4.017-.461-7.597.645-11.003 2.95-1.659 1.106-2.358 2.673-2.358 4.608v13.918c0-.276 0-.276.087-.276z" fill="#47474a"/><path d="M439.431 312.595c-.96-6.728-3.318-12.719-7.423-17.973-3.667-4.701-8.121-8.203-13.448-10.508-5.502-2.396-11.353-3.133-17.291-3.318-2.445-.092-35.804.461-38.249 0-.611-.092-1.048.092-1.397.646-.437.737-.874 1.382-1.136 2.119-1.048 2.489-1.048 2.305 1.485 2.673 2.096.369 4.104.553 6.113 1.199 1.834.645 3.144 1.751 3.58 3.871.175 1.014.349 33.458.349 48.574 0 3.595-.087 7.189-.349 10.784-.087.83-.174 1.659-.436 2.397-.35 1.106-.961 2.027-2.009 2.488-1.135.553-2.358.922-3.668 1.014-2.358.277-2.707.369-3.493 3.134-.087.369-.174.737-.262 1.014-.174 1.198-.087 1.382 1.048 1.382 5.24.092 21.745.277 26.111.277 2.445-.092 6.375.184 10.217-.185 2.358-.276 4.716-.46 7.074-.921 8.034-1.567 15.195-5.07 21.308-10.692 3.58-3.318 6.287-7.19 8.383-11.614 2.445-5.162 3.493-10.784 3.755-16.499.437-3.225.262-6.544-.262-9.862zm-12.662 13.088c-.35 5.899-1.485 11.614-4.367 16.776-3.667 6.728-8.907 11.429-16.155 13.088-3.144.737-6.288 1.014-9.519.553-2.358-.277-4.628-.553-6.811-1.382-3.93-1.475-5.327-4.056-5.415-8.019-.174-5.807 0-46.455-.087-55.58 0-3.318 1.397-4.055 3.668-4.147 3.406-.277 6.899-.185 10.304.184a35.212 35.212 0 0 1 10.567 2.765 25.265 25.265 0 0 1 6.899 4.516c4.716 4.24 7.859 9.586 9.519 15.854 1.397 5.069 1.659 10.231 1.397 15.392zM512 334.716c0-.553 0-1.014-.088-1.567-.785-5.069-3.318-8.94-7.248-11.89-2.532-1.935-5.414-3.226-8.383-4.148-.524-.184-.961-.368-1.485-.46.088-.461.35-.553.612-.646 1.746-.921 3.406-1.935 4.89-3.318 2.707-2.396 4.541-5.346 5.414-8.94.524-1.936.524-3.871.35-5.899-.437-5.07-2.533-9.033-6.375-11.982-4.017-3.134-8.733-4.425-13.623-4.517-9.431-.184-18.95 0-28.381 0-2.707 0-5.415.185-8.209-.276-.524-.092-1.223-.277-1.659.368-.699 1.199-1.398 2.397-1.659 3.779-.088.646.087 1.014.785 1.106 2.009.277 4.018.646 6.026.922 2.358.369 4.017 1.751 4.192 3.963.174 1.567.262 3.042.262 4.609 0 5.715-.088 11.521-.175 17.236-.174 11.337-.087 22.766-.087 34.103 0 2.028-.262 3.964-.612 5.992-.262 1.382-.96 2.304-2.27 2.765-1.747.553-3.406 1.106-5.24 1.106-1.135 0-1.834.461-2.271 1.567-.349.829-.698 1.751-.786 2.58-.174 1.106.088 1.475 1.136 1.291.786-.092 29.604.645 35.018.092 3.231-.369 6.462-.83 9.606-1.843 5.501-1.844 10.566-4.517 14.584-9.033 3.318-3.687 5.239-8.111 5.414-13.273.262-1.198.262-2.396.262-3.687zm-42.354-37.698c.175-2.488.175-4.885.262-7.373 0-1.383.524-2.028 1.834-2.305 2.096-.46 4.192-.276 6.288-.184 2.096.184 4.104.461 6.2 1.106 3.842 1.198 6.812 3.503 8.558 7.374a13.822 13.822 0 0 1 1.223 5.622c.087 2.581-.088 5.07-1.048 7.558-1.485 3.41-3.843 5.623-7.249 6.268-3.405.645-13.099.368-14.583.368-1.31 0-1.397-.184-1.397-1.566v-8.757c-.175-2.58-.262-5.346-.088-8.111zm28.382 49.588c-1.485 4.148-4.192 7.005-8.035 8.572-2.095.83-4.191 1.291-6.462 1.199-2.707-.093-5.414 0-8.121-.553-3.668-.83-5.327-4.517-5.589-7.19-.436-4.701-.174-9.493-.262-12.996v-12.167c0-1.474.175-1.935 1.659-1.935 2.707-.092 5.415-.185 8.209.092 1.921.184 3.755.369 5.589.737 3.93.922 7.51 2.489 10.305 5.715 2.27 2.581 3.493 5.715 3.755 9.125.262 3.226.087 6.36-1.048 9.402v-.001.001z" fill="#c2bfbf"/><g fill="#47474a"><path d="M276.13 318.771c.785.092 1.571.276 2.27.368 2.445.092 5.327-.829 6.2-4.424.437-1.751.524-3.41 0-5.254-.524 0-.786.461-1.048.645-1.31 1.106-2.794 1.752-4.366 1.936-3.144.369-6.288.184-9.344-1.014-1.397-.553-2.794-1.106-4.279-1.567-2.969-1.014-6.113-1.475-9.257-1.29-4.453.369-8.645 1.935-12.575 4.147-4.191 2.397-7.161 5.992-8.558 10.877-.786 2.857-.873 5.806-.524 8.756.873 6.728 4.192 11.429 10.13 13.918.349.092.611.277.961.369.786.461.873.921.174 1.567-.698.553-1.397 1.106-2.183 1.567-1.746 1.106-3.493 2.212-5.239 3.41-1.31.829-1.485 1.475-1.048 2.949.524 1.752 1.484 3.226 2.794 4.424a14.444 14.444 0 0 0 4.017 2.581c.961.461.961.738.088 1.475-1.66 1.29-3.319 2.489-4.978 3.779s-3.319 2.765-4.716 4.424c-2.008 2.397-2.707 5.162-2.096 8.296.699 3.318 2.184 5.991 4.541 8.295 2.271 2.212 4.978 3.779 8.034 4.608 4.891 1.475 9.956 1.567 14.933.553 7.161-1.382 13.361-4.792 18.339-10.415 3.406-3.779 5.414-8.203 5.589-13.549.262-6.452-3.493-11.89-9.431-13.457-1.572-.369-3.144-.645-4.716-.922-4.803-.645-9.606-.921-14.409-1.29-1.572-.092-3.144-.369-4.454-1.198-1.659-1.106-2.095-3.226-1.048-4.609.786-1.014 1.747-1.659 2.97-1.751.96-.092 1.833-.184 2.794-.276 5.676-.646 10.567-3.042 14.758-7.098 2.184-2.12 3.668-4.793 4.454-7.835 1.048-3.963 1.048-8.018.175-12.074-.262-1.014-.175-1.106 1.048-.922zm-21.396 45.901c.524.092 1.048 0 1.572 0 3.668.184 7.423.461 11.003 1.475 1.223.368 2.271.829 3.406 1.382 3.493 2.028 4.803 5.53 4.367 9.309-.524 4.148-2.708 7.098-6.113 9.033-2.271 1.291-4.803 1.936-7.423 2.212-.961.092-1.834 0-2.795 0-3.056.092-6.025-.276-8.907-1.567-2.008-.829-3.668-2.028-5.152-3.687-3.057-3.225-4.541-9.124.087-13.917 2.795-2.765 5.938-4.609 9.955-4.24zm9.956-28.758c-1.834 4.886-5.851 6.36-9.868 5.715-3.668-.553-6.375-2.673-8.122-6.175-2.27-4.701-2.882-9.586-1.572-14.656.961-3.779 3.144-6.636 6.987-7.281 4.89-.922 9.518.921 12.051 6.083 1.222 2.489 1.834 5.53 1.834 9.862-.088 1.752-.437 4.148-1.31 6.452zm-110.033-6.267c-.786-4.978-2.532-9.494-5.763-13.273-4.803-5.622-10.916-8.019-17.815-8.111-6.025-.092-11.702 1.751-16.767 5.069-5.065 3.319-8.558 8.019-10.217 14.103-1.485 5.346-1.397 10.784-.262 16.222 3.056 14.563 13.71 20.831 26.46 19.909 3.755-.277 7.336-1.567 10.741-3.318 5.065-2.489 8.733-6.452 11.266-11.706 2.008-4.332 2.881-8.941 2.794-14.194-.087-1.291-.175-3.042-.437-4.701zm-12.4 20.462c-1.572 4.424-4.541 7.097-8.995 7.742-3.842.553-7.423-.461-10.654-2.857-2.357-1.843-4.191-4.148-5.501-6.913-3.581-7.742-4.192-15.854-2.358-24.149.611-2.581 1.834-4.885 3.668-6.728 3.231-3.134 6.986-3.872 11.178-2.95 4.017.922 7.073 3.226 9.518 6.729 2.445 3.502 3.668 7.558 4.367 11.797.349 2.12.349 4.333.436 5.715 0 4.424-.349 8.019-1.659 11.614zm203.21-19.725c-.698-5.346-2.532-10.231-6.113-14.286-4.715-5.439-10.828-7.743-17.64-7.835-5.851-.092-11.265 1.659-16.243 4.701-5.589 3.502-9.431 8.479-10.915 15.208-1.747 7.558-1.048 14.932 2.095 21.937 2.882 6.452 7.772 10.6 14.235 12.443 7.16 2.028 13.972 1.106 20.609-2.304 5.763-2.95 9.868-7.558 12.226-13.826 1.397-3.687 1.921-7.65 2.008-12.259.088-.829-.087-2.304-.262-3.779zm-12.051 18.527c-1.397 4.977-4.366 8.203-9.344 8.94-3.668.553-7.161-.368-10.304-2.58-2.708-1.936-4.629-4.517-6.026-7.558-1.572-3.227-2.445-6.637-2.795-10.139-.523-4.333-.523-8.572.437-12.905.175-.829.437-1.659.786-2.488 2.445-6.452 7.859-9.402 14.234-7.927 4.28 1.014 7.511 3.503 9.956 7.282 2.358 3.686 3.493 7.742 4.017 12.074.262 1.751.349 3.595.262 5.162 0 3.594-.262 6.913-1.223 10.139z"/></g></g></svg>