<svg clip-rule="evenodd" fill-rule="evenodd" stroke-linejoin="round" stroke-miterlimit="1.414" viewBox="0 0 2270 2500" xmlns="http://www.w3.org/2000/svg"><g fill="#8cc84b" fill-rule="nonzero"><path d="M1033.07 26.677c62.002-35.489 142.758-35.649 204.706 0 311.654 176.101 623.406 351.925 935.006 528.133 58.608 33.013 97.811 98.238 97.214 165.77v1059.49c.437 70.328-42.64 137.112-104.472 169.377-310.63 175.13-621.099 350.474-931.675 525.604-63.284 36.183-145.661 33.396-206.968-5.754-93.127-53.986-186.413-107.705-279.549-161.637-19.031-11.346-40.485-20.377-53.924-38.829 11.88-16.012 33.121-18.007 50.38-24.998 38.873-12.361 74.576-32.203 110.287-51.457 9.031-6.181 20.056-3.812 28.712 1.719 79.635 45.659 158.566 92.645 238.467 137.868 17.046 9.841 34.305-3.224 48.875-11.346 304.823-172.28 610.02-343.91 914.79-516.243 11.292-5.433 17.535-17.42 16.618-29.79.213-349.503.053-699.068.107-1048.57 1.291-14.035-6.831-26.939-19.522-32.684-309.552-174.328-618.943-348.924-928.442-523.297-10.952-7.529-25.486-7.55-36.46-.053-309.499 174.426-618.837 349.182-928.335 523.502-12.647 5.753-21.134 18.443-19.629 32.532.054 349.503 0 699.068 0 1048.62-1.096 12.333 5.644 24.112 16.832 29.415 82.591 46.835 165.289 93.34 247.934 140.015 46.559 25.061 103.724 39.951 155.021 20.75 45.267-16.235 76.998-62.429 76.134-110.492.428-347.464-.213-694.981.321-1042.39-1.131-15.425 13.501-28.169 28.498-26.717 39.684-.267 79.421-.534 119.104.107 16.565-.374 27.964 16.235 25.916 31.775-.16 349.664.427 699.336-.267 1049 .107 93.189-38.179 194.589-124.377 240.186-106.191 55.01-237.443 43.344-342.351-9.405-90.82-45.33-177.49-98.826-266.698-147.388C43.33 1917.402.467 1850.352.904 1780.077v-1059.5c-.65-68.93 40.111-135.34 100.545-167.872C412.025 377.433 722.548 202.027 1033.07 26.674z"/><path d="M1304.01 760.593c135.456-8.719 280.467-5.165 402.358 61.565 94.374 51.136 146.695 158.458 148.36 263.305-2.636 14.142-17.42 21.943-30.921 20.973-39.3-.054-78.61.534-117.911-.268-16.671.642-26.36-14.73-28.453-29.468-11.293-50.166-38.651-99.851-85.869-124.047-72.483-36.291-156.526-34.465-235.563-33.708-57.7 3.063-119.746 8.059-168.629 41.99-37.529 25.702-48.928 77.586-35.534 119.371 12.628 30.004 47.263 39.684 75.6 48.607 163.241 42.694 336.225 38.446 496.349 94.632 66.294 22.905 131.145 67.434 153.836 136.845 29.683 93.028 16.672 204.224-49.515 278.907-53.675 61.458-131.849 94.908-209.818 113.075-103.724 23.129-211.367 23.716-316.703 13.448-99.049-11.292-202.123-37.315-278.587-104.802-65.385-56.773-97.321-145.233-94.151-230.612.757-14.418 15.113-24.473 28.926-23.288 39.577-.321 79.153-.428 118.73.053 15.808-1.131 27.528 12.53 28.338 27.429 7.303 47.797 25.265 97.963 66.944 126.301 80.436 51.893 181.364 48.34 273.466 49.791 76.304-3.384 161.959-4.408 224.227-54.841 32.853-28.765 42.587-76.891 33.708-118.294-9.618-34.955-46.185-51.243-77.586-61.894-161.148-50.976-336.064-32.479-495.654-90.126-64.789-22.896-127.44-66.186-152.331-132.747-34.732-94.205-18.818-210.726 54.306-282.889 71.299-71.78 174.222-99.423 272.077-109.317z"/></g></svg>