<svg clip-rule="evenodd" fill-rule="evenodd" stroke-miterlimit="10" viewBox="0 0 1000 900" xmlns="http://www.w3.org/2000/svg"><ellipse cx="500.02" cy="449.745" fill="#00d8ff" rx="90.899" ry="92.282"/><g fill="none" stroke="#00d8ff" stroke-width="24.54"><path d="M500.02 262.121c122.035 0 235.444 17.783 320.893 47.661 102.997 35.998 166.313 90.561 166.313 139.963 0 51.514-67.112 109.456-177.709 146.66-83.623 28.126-193.652 42.807-309.527 42.807-118.737 0-231.252-13.785-315.799-43.117C77.207 559.005 12.774 500.28 12.774 449.796c0-49.01 60.454-103.141 162.01-139.087 85.825-30.424 202.004-48.588 325.236-48.588z"/><path d="M339.137 356.525c60.962-107.324 132.772-198.142 200.939-258.403C622.278 25.529 700.421-2.845 742.598 21.778c43.932 25.757 59.876 113.702 36.362 229.556-17.78 87.574-60.221 191.631-118.097 293.577-59.308 104.398-127.251 196.433-194.525 256.127-85.115 75.54-167.449 102.873-210.509 77.652-41.811-24.49-57.846-104.707-37.752-211.969 16.958-90.634 59.49-201.862 121.06-310.196z"/><path d="M339.29 545.128c-61.104-107.211-102.794-215.74-120.148-305.817-20.915-108.519-6.089-191.498 35.987-216.255 43.892-25.757 126.936 4.121 214.06 82.669 65.874 59.375 133.513 148.69 191.592 250.481 59.47 104.377 104.072 210.073 121.426 299.099 21.951 112.599 4.181 198.627-38.878 223.931-41.771 24.551-118.219-1.442-199.731-72.655-68.878-60.209-142.565-153.182-204.308-261.453z"/></g></svg>