<svg clip-rule="evenodd" fill-rule="evenodd" stroke-linejoin="round" stroke-miterlimit="1.414" viewBox="0 0 2500 2148" xmlns="http://www.w3.org/2000/svg"><g fill-rule="nonzero"><path d="M2401.82 1654.42c-133.391 69.977-824.383 355.925-971.491 433.115-147.109 77.199-228.831 76.452-345.047 20.537-116.207-55.914-851.546-354.863-984.009-418.59C35.076 1657.644.259 1630.758.259 1605.365v-254.277s957.324-209.752 1111.87-265.558c154.539-55.806 208.16-57.821 339.677-9.336 131.535 48.505 917.957 191.308 1047.94 239.223l-.058 250.68c.019 25.137-29.974 52.711-97.871 88.323" fill="#912626"/><path d="M2401.77 1401.65c-133.381 69.947-824.353 355.905-971.462 433.084-147.099 77.209-228.821 76.453-345.027 20.538-116.217-55.875-851.526-354.873-983.98-418.56-132.453-63.727-135.226-107.584-5.116-158.86 130.11-51.295 861.387-340.055 1015.96-395.861 154.539-55.786 208.151-57.82 339.668-9.315 131.526 48.485 818.378 323.644 948.342 371.549 130.012 47.965 135.001 87.458 1.62 157.425" fill="#c6302b"/><path d="M2401.82 1242.99c-133.391 69.986-824.383 355.925-971.491 433.144-147.109 77.169-228.831 76.422-345.047 20.508-116.217-55.885-851.546-354.864-984.009-418.59C35.076 1246.213.259 1219.366.259 1193.964V939.658s957.324-209.743 1111.87-265.549c154.539-55.806 208.16-57.83 339.677-9.335 131.545 48.495 917.967 191.268 1047.94 239.193l-.058 250.71c.019 25.127-29.974 52.701-97.871 88.313" fill="#912626"/><path d="M2401.77 990.212c-133.381 69.967-824.353 355.906-971.462 433.115-147.099 77.179-228.821 76.422-345.027 20.508-116.217-55.875-851.526-354.864-983.98-418.561-132.453-63.707-135.226-107.573-5.116-158.869 130.11-51.266 861.397-340.045 1015.96-395.841 154.539-55.797 208.151-57.821 339.668-9.326 131.526 48.485 818.378 323.625 948.342 371.55 130.012 47.954 135.001 87.458 1.62 157.424" fill="#c6302b"/><path d="M2401.82 816.298c-133.391 69.967-824.383 355.926-971.491 433.144-147.109 77.179-228.831 76.423-345.047 20.509-116.217-55.885-851.546-354.874-984.009-418.571C35.076 819.512.259 792.655.259 767.283V512.966s957.324-209.732 1111.87-265.529c154.539-55.815 208.16-57.82 339.677-9.335 131.545 48.495 917.967 191.268 1047.94 239.193l-.058 250.7c.019 25.108-29.974 52.681-97.871 88.303" fill="#912626"/><path d="M2401.77 563.525c-133.381 69.966-824.353 355.925-971.462 433.104-147.099 77.18-228.821 76.423-345.027 20.538-116.207-55.914-851.526-354.883-983.97-418.59-132.463-63.697-135.226-107.574-5.126-158.859 130.11-51.276 861.397-340.016 1015.96-395.832 154.539-55.806 208.151-57.811 339.668-9.316 131.526 48.495 818.378 323.635 948.342 371.56 130.012 47.915 135.001 87.428 1.62 157.395" fill="#c6302b"/><path d="M1555.44 316.156l-214.898 22.454-48.105 116.506-77.699-130.008-248.143-22.444 185.158-67.205-55.556-103.162 173.354 68.237 163.424-53.85-44.171 106.669zm-275.833 565.215L878.546 713.953l574.688-88.785zM723.568 380.914c169.643 0 307.164 53.654 307.164 119.828 0 66.193-137.521 119.837-307.164 119.837s-307.164-53.654-307.164-119.837c0-66.174 137.521-119.828 307.164-119.828" fill="#fff"/><path d="M1809.41 348.004l340.126 135.276-339.834 135.147-.292-270.432" fill="#621b1c"/><path d="M1433.12 497.813l376.291-149.809.292 270.423-36.896 14.524z" fill="#9a2928"/></g></svg>