<svg clip-rule="evenodd" fill-rule="evenodd" stroke-linejoin="round" stroke-miterlimit="1.414" viewBox="0 0 2500 2500" xmlns="http://www.w3.org/2000/svg"><path d="M1732.24 1745.98c92.256-10.06 162.246-93.835 159.063-194.376-3.174-100.531-82.715-180.962-178.154-180.962h-6.358c-98.633 3.353-174.98 90.481-171.797 194.365 3.184 50.271 22.266 93.835 50.899 123.995-108.164 224.537-273.594 388.742-521.739 526.141-168.613 93.834-343.584 127.348-518.554 103.895-143.164-20.111-254.512-87.128-324.512-197.73-101.797-164.205-111.338-341.824-25.439-519.433 60.449-127.349 155.878-221.183 216.328-268.101-12.725-43.564-31.817-117.288-41.358-170.902-461.299 351.875-413.574 827.745-273.594 1052.27 104.981 167.569 318.135 271.454 553.555 271.454 63.623 0 127.246-6.707 190.879-23.454 407.217-83.785 715.811-338.481 890.781-717.163zm559.922-415.549c-241.787-298.261-598.096-462.466-1005.31-462.466h-50.899c-28.633-60.321-89.082-100.542-155.888-100.542h-6.368c-98.613 3.354-174.961 90.482-171.787 194.377 3.184 100.531 82.715 180.962 178.155 180.962h6.357c69.99-3.354 130.439-50.271 155.889-113.945h57.265c241.787 0 470.84 73.724 677.637 217.83 159.063 110.591 273.594 254.696 337.217 428.952 54.082 140.752 50.898 278.15-6.367 395.449-89.073 177.609-238.594 274.797-435.84 274.797-127.256 0-248.145-40.221-311.778-70.381-34.99 33.513-98.623 87.127-143.164 120.651C1554.088 2463.133 1694.068 2500 1827.682 2500c305.41 0 531.289-177.619 617.187-355.228 92.256-194.376 85.889-529.494-152.705-814.341zm-1616.13 472.506c3.184 100.542 82.715 180.962 178.155 180.962h6.367c98.623-3.343 174.971-90.481 171.787-194.365-3.174-100.542-82.715-180.963-178.154-180.963h-6.358c-6.367 0-15.918 0-22.265 3.343-130.44-227.879-184.522-475.859-165.43-743.959 12.715-201.073 76.348-375.339 187.695-519.444 92.256-123.995 270.41-184.316 391.309-187.659 337.217-6.707 480.371 435.649 489.922 613.268 41.357 10.05 111.347 33.514 159.072 50.271C1849.948 281.504 1531.814 0 1226.413 0 940.085 0 676.032 217.83 571.042 539.544c-146.338 428.952-50.898 841.148 127.256 1166.21-15.898 23.454-25.449 60.321-22.266 97.188v-.01z" fill="#764abc" fill-rule="nonzero"/></svg>