<svg clip-rule="evenodd" fill-rule="evenodd" stroke-linejoin="round" stroke-miterlimit="1.414" viewBox="0 0 2500 2500" xmlns="http://www.w3.org/2000/svg"><g fill-rule="nonzero"><path d="M933.426 39.462c323.461-83.038 680.954-34.65 966.222 141.592 359.278 215.076 593.831 621.917 599.796 1040.71 13.132 422.968-207.097 842.363-561.002 1072.37-393.892 265.25-938.774 275.415-1341.03 23.301-410.002-244.95-649.327-739.014-587.847-1213.37C59.086 602.826 445.831 160.742 933.423 39.475v-.01z" fill="#010101"/><path d="M883.885 244.383c611.134-244.949 1360.73 207.3 1423.98 863.275 98.481 590.248-390.905 1190.06-988.315 1207.39-568.159 56.757-1117.22-425.375-1133.33-996.497-42.374-462.404 262-921.226 697.665-1074.17z" fill="#fff"/><path d="M945.355 1186.52c273.94-224.037 541.905-455.841 821.809-673.306-146.819 225.834-297.808 448.667-444.627 674.49-125.928.602-251.846.602-377.182-1.194zm231.566 124.853c126.519 0 252.447 0 378.375 1.796-275.724 222.834-542.496 456.424-823.002 673.296 146.819-225.833 297.808-449.258 444.627-675.092z" fill="#010101"/></g></svg>