<svg clip-rule="evenodd" fill-rule="evenodd" stroke-linejoin="round" stroke-miterlimit="2" viewBox="0 0 500 500" xmlns="http://www.w3.org/2000/svg" xmlns:xlink="http://www.w3.org/1999/xlink"><linearGradient id="a" gradientTransform="matrix(-500 500 -500 -500 500 0)" gradientUnits="userSpaceOnUse" x2="1"><stop offset="0" stop-color="#f3b660"/><stop offset="1" stop-color="#dc6f92"/></linearGradient><path d="m0 0h500v500h-500z" fill="url(#a)"/><g fill="#fff"><path d="m500 0h-500v500h500zm-490 10v480h480v-480z"/><path d="m323.902 66.279-1.315 6.857c-2.034 12.996-1.298 16.713 4.279 21.536l5.384 4.455-5.577 24.868c-3.332 14.836-7.418 27.27-10.014 31.356-2.227 3.525-4.823 8.716-5.384 11.505-.929 3.332-4.086 6.681-8.909 9.645-4.261 2.42-12.626 8.909-18.554 14.118-4.735 4.261-7.997 6.874-9.768 7.997l-5.788 4.577c-1.859 2.981-2.911 5.384-3.314 7.208-.404 1.876-.176 3.121.421 4.033.578.877 1.578 1.491 2.946 1.877 1.619.379 3.286.515 4.945.403a52.591 52.591 0 0 0 11.084-1.964 53.406 53.406 0 0 0 3.034-.929c1.298-1.596 4.297-4.613 9.61-9.856 14.1-13.907 19.484-21.519 13.925-19.467-2.052.737-1.122-1.122 2.403-4.84 7.435-7.243 11.697-18.186 20.606-52.507 7.05-27.095 7.05-27.481 12.241-27.481 2.438 0 9.33.421 9.33.421v-33.812zm67.326 55.506c-1.123 0-2.982 1.683-4.086 3.542-2.035 3.332.368 5.367 30.988 24.482 18.186 11.522 32.847 21.343 32.479 22.097-.368.544-15.222 10.207-33.023 21.343-32.303 20.028-32.479 20.221-29.515 24.307 3.718 4.823 0 6.489 41.932-19.677l30.445-19.484v-14.661l-33.97-20.975c-18.362-11.504-34.321-20.781-35.25-20.974zm-282.088 2.052c-.929 0-16.888 9.47-35.249 20.781l-34.339 20.975v14.661l34.146 21.343c18.94 11.68 34.899 21.343 35.635 21.343.737 0 2.228-1.684 3.718-3.718 2.228-3.525.351-5.016-31.006-24.868-29.866-18.747-33.022-21.343-30.041-23.377 1.859-1.298 15.959-10.031 31.181-19.484 34.707-21.343 32.848-19.87 30.059-24.324-1.105-1.842-2.981-3.508-4.086-3.332zm152.294.403c-5.121-.035-16.134 7.769-49.104 34.689-1.421 3.385-1.543 5.717-.895 7.225.421 1.035 1.193 1.754 2.263 2.28 1.052.526 2.42.842 3.928.965 2.999.263 6.542-.211 9.4-.772l1.929-.438a6.78 6.78 0 0 1 2.526-2.07c2.034-1.122 10.575-8.909 19.115-17.257 15.03-15.222 18.555-22.097 12.434-24.324a4.201 4.201 0 0 0 -1.578-.298zm38.512 10.575c-4.507.123-12.627 5.349-26.534 16.45-6.98 5.665-11.399 8.716-13.766 9.347l-9.19 7.261c-3.455 6.313-3.963 10.224-3.052 12.381a4.384 4.384 0 0 0 2.421 2.35c1.339.529 2.768.797 4.209.789a38.222 38.222 0 0 0 10.171-1.49 60.796 60.796 0 0 0 5.104-1.614l.508-.21.93-.491c1.753-2.263 5.787-6.524 10.838-11.435 15.959-15.397 24.113-26.341 22.447-30.427-.754-1.981-2.051-2.981-4.086-2.911zm-42.51 18.94c-1.298.141-4.209 2.385-9.453 6.98-7.576 6.699-15.836 10.558-18.695 8.839-.664.15-1.33.29-1.999.421-2.911.579-6.541 1.052-9.786.789a12.418 12.418 0 0 1 -4.419-1.105 5.907 5.907 0 0 1 -2.946-2.981c-.649-1.578-.649-3.543.087-6.051l-11.399 9.365-25.797 21.343v34.601l84.53-66.589a7.184 7.184 0 0 1 .28-2.157c.649-2.35.614-3.542-.403-3.437zm36.372 11.207c-1.28 0-3.42 1.806-6.839 5.436-4.648 4.963-11.961 9.769-15.837 10.751l-.596.315c-.636.263-1.279.509-1.929.737-1.052.351-2.42.771-3.998 1.192-3.157.86-7.086 1.649-10.593 1.561a12.847 12.847 0 0 1 -4.823-.947 6.038 6.038 0 0 1 -3.227-3.157c-1.017-2.437-.613-5.857 1.614-10.715l-74.569 58.733v21.132h32.76l69.483-54.576c1.806-1.999 4.524-4.735 8.19-8.155 9.821-9.102 12.048-12.241 12.048-16.888 0-3.613-.404-5.437-1.684-5.437zm16.538 34.197-5.945 5.928c-3.332 3.157-9.278 7.05-13.346 8.716l-.807.351-.053.087-.175.176c-.158.123-.228.14-.351.193a60.45 60.45 0 0 1 -4.945 1.631 53.672 53.672 0 0 1 -11.399 2.017 18.152 18.152 0 0 1 -5.437-.474 6.391 6.391 0 0 1 -3.823-2.525c-.842-1.298-1.087-3.034-.614-5.174a19.488 19.488 0 0 1 1.666-4.384l-56.067 44.299h74.569l8.909-10.207c12.241-14.275 17.818-24.482 17.818-33.215z" fill-rule="nonzero"/><text font-family="Arial, sans-serif" font-size="65" transform="translate(-1.073 -81.23)" x="58.526" y="452.572">styled</text><text font-family="Arial, sans-serif" font-size="65" transform="translate(-1.073 -81.23)" x="58.526" y="519.698">components</text></g></svg>