<svg xmlns="http://www.w3.org/2000/svg" xmlns:xlink="http://www.w3.org/1999/xlink" viewBox="0 0 1000 500" fill-rule="evenodd" stroke-linecap="square" stroke-linejoin="round" stroke-miterlimit="10"><style>.B{font-family:LucidaGrande,Lucida Grande,sans-serif}.C{font-weight:500}.D{font-size:17.54px}.E{font-size:19.719px}.F{fill-rule:nonzero}.G{stroke-width:1.18}.H{stroke-width:2.38}.I{stroke-linecap:butt}</style><path d="M0 0h1000v500H0z" fill="url(#A)"/><g class="F"><path d="M169.483 344.06h661.034V155.94H169.483v188.12" fill="#fff"/><g class="G"><path d="M169.483 180.915l13.22 2.76 19.833 5.08 26.44 7.003 13.22 2.767 13.22 1.8 13.22.633 13.223-.638 13.22-1.816 13.22-2.775 19.83-5.196 26.442-6.883 13.223-2.712 13.218-1.962 13.22-1.13 13.22-.3 13.22.526 13.22 1.283 13.223 1.988 13.218 2.626 19.83 4.914 39.662 10.606 13.223 2.484 13.218 1.296 13.22-.177 13.22-1.76 13.22-3.222 13.22-4.36 52.883-19.423 13.22-3.483 13.22-2.594 13.223-1.66 13.22-.66 13.218.408 13.22 1.536 13.22 2.63 13.22 3.55 39.662 12.1 13.22 2.906 13.22 1.743 6.6.402v20.628l-13.22-9.014-13.22-7.925-13.22-6.71-13.218-5.54-13.224-4.5-13.22-3.632-13.22-2.845-13.22-2.05-13.22-1.155-13.218-.107-13.224 1.032-13.22 2.155-13.22 3.15-13.22 3.94-19.83 6.953-19.828 7.964-13.223 5.965-13.22 6.636-13.22 7.397-19.83 12.37-33.05 21.62L500 255.32l-13.22 6.613-13.22 5.168-6.61 1.98-6.6 1.557-6.608 1.126-6.6.698-6.613.26-6.6-.162-6.61-.588-6.6-.998-13.22-3.193-13.22-4.706-13.22-6.067-13.218-7.22-19.834-12.29-26.44-16.695-13.22-7.2-6.6-3.05-6.6-2.597-6.608-2.083-6.61-1.523-6.612-.928-6.61-.313-6.6.316-6.6.933-6.61 1.526-6.6 2.1-6.6 2.602-13.22 6.514-13.218 7.8-39.665 25.446v-69.417" fill="#aaf" stroke="#aaf"/><path d="M169.483 324.106l13.22 2.778 13.22 3.733 33.052 10.69 6.61 1.422 6.6.87 13.22.454 33.054-.083 6.608-.37 6.6-.873 6.6-1.42 13.22-4.01 19.83-6.683 13.22-3.724 13.223-2.746 13.218-1.73 13.22-.8 13.22-.03 13.22.603 19.83 1.845 19.83 2.754 19.83 3.48 59.496 11.183 13.218 1.447 13.22.797 19.83.348 39.662-.15 13.22-1.032 6.6-1.184 6.61-1.7 13.22-4.734 26.444-10.937 6.61-1.86 6.6-1.072 6.608-.133 6.6.865 6.6 1.842 6.61 2.7 26.44 13.223 6.6 1.913 6.613 1.034 13.22.533 13.218-.412 13.22-1.166 13.22-1.878 6.6-1.153v5.333H169.483v-19.954" fill="#ecffec" stroke="#ecffec"/></g></g><g fill="none"><g stroke="#000" class="H"><path d="M169.483 236.562l6.6-3.22 6.61-3.193 6.6-3.14 6.6-3.06 6.613-2.958 6.61-2.83 6.608-2.673 6.6-2.503 6.6-2.3 6.61-2.103 6.6-1.874 6.6-1.635 6.61-1.385 6.6-1.123 6.6-.863 6.61-.6 6.612-.327 6.61-.06 6.608.204 6.6.457 6.6.7 6.61.933 6.6 1.152 6.6 1.35 6.61 1.533 6.6 1.69 6.6 1.83 6.61 1.947 6.613 2.033 6.6 2.1 19.828 6.42 6.61 2.1 6.6 2.022 6.6 1.926 6.61 1.81 6.6 1.667 6.6 1.502 6.61 1.317 6.6 1.115 6.613.897 6.6.66 6.608.412 6.6.16 6.61-.102 6.6-.37 6.6-.638 6.61-.906 6.6-1.168 6.6-1.43 6.61-1.678 6.6-1.9 6.613-2.137 6.6-2.346 6.61-2.532 6.607-2.704 6.61-2.85 6.6-2.976 6.6-3.075 6.61-3.15 6.6-3.198 6.6-3.224 6.61-3.22 6.6-3.185 6.613-3.13 6.6-3.047 6.61-2.934 6.607-2.803 6.61-2.65 6.6-2.47 6.6-2.276 6.61-2.062 6.6-1.836 6.6-1.592 6.61-1.343 6.6-1.08 6.6-.815 6.613-.55 6.61-.28 6.6-.015 6.608.245 6.6.5 6.6.742 6.61.97 6.6 1.186 6.6 1.382 6.61 1.56 6.6 1.716 6.6 1.85 6.613 1.962 6.61 2.05 6.6 2.108 13.218 4.29 6.61 2.126 6.6 2.083 6.6 2.006 6.61 1.9 6.6 1.787" stroke-dasharray="7.08,7.08" class="I"/><path d="M169.483 215.624l6.6-1.393 6.61-1.382 6.6-1.354 6.6-1.316 6.613-1.257 6.61-1.194 6.608-1.11 6.6-1.013 6.6-.9 6.61-.786 6.6-.66 6.6-.523 6.61-.38 6.6-.227 6.6-.078 6.61.076 6.612.224 6.61.376 6.608.518 6.6.656 6.6.78 6.61.9 6.6 1.006 6.6 1.094 6.61 1.176 6.6 1.236 6.6 1.288 6.61 1.32 13.223 2.68 6.6 1.33 6.608 1.302 6.6 1.26 6.61 1.207 6.6 1.145 6.6 1.066 6.61.977 6.6.88 6.6.774 6.61.66 6.6.535 6.613.4 6.6.272 6.608.13 6.6-.016 6.61-.17 6.6-.32 6.6-.483 6.61-.646 6.6-.807 6.6-.975 6.61-1.14 6.6-1.307 6.613-1.47 6.6-1.633 6.61-1.787 6.607-1.94 6.61-2.077 6.6-2.2 6.6-2.328 6.61-2.435 6.6-2.524 6.6-2.595 6.61-2.647 19.833-8.03 6.61-2.63 6.607-2.563 6.61-2.475 6.6-2.354 6.6-2.218 6.61-2.05 6.6-1.87 6.6-1.66 6.61-1.44 6.6-1.196 6.6-.946 6.613-.685 6.61-.415 6.6-.144 6.608.128 6.6.4 6.6.66 6.61.914 6.6 1.16 6.6 1.387 6.61 1.6 6.6 1.8 6.6 1.967 6.613 2.116 6.61 2.25 6.6 2.357 6.608 2.44 6.6 2.506 6.61 2.547 6.6 2.566 6.6 2.57 6.61 2.547 6.6 2.517"/></g><use xlink:href="#B" stroke="#00f" class="G"/></g><g stroke="#000" class="F"><path d="M268.638 206.455c1.24 0 2.435-.5 3.313-1.395a4.8 4.8 0 0 0 1.372-3.368c0-1.264-.494-2.474-1.372-3.365s-2.072-1.395-3.313-1.395a4.63 4.63 0 0 0-3.31 1.395 4.78 4.78 0 0 0-1.372 3.365c0 1.265.5 2.477 1.372 3.368a4.64 4.64 0 0 0 3.31 1.395zm416.452-33.9a4.64 4.64 0 0 0 3.313-1.395 4.81 4.81 0 0 0 1.372-3.365 4.8 4.8 0 0 0-1.372-3.368 4.64 4.64 0 0 0-6.623 0 4.8 4.8 0 0 0-1.372 3.368 4.81 4.81 0 0 0 1.372 3.365 4.63 4.63 0 0 0 3.31 1.395zm-74.917 22.875a4.66 4.66 0 0 0 3.313-1.395 4.816 4.816 0 0 0 1.372-3.37 4.81 4.81 0 0 0-1.372-3.368 4.65 4.65 0 0 0-3.313-1.395 4.598 4.598 0 0 0-3.3 1.395 4.8 4.8 0 0 0-1.375 3.368c0 1.265.494 2.474 1.375 3.37a4.603 4.603 0 0 0 3.3 1.395zm161.405-11.434a4.59 4.59 0 0 0 3.3-1.395 4.85 4.85 0 0 0 1.372-3.368 4.83 4.83 0 0 0-1.372-3.368 4.64 4.64 0 0 0-3.31-1.395 4.65 4.65 0 0 0-3.313 1.395 4.806 4.806 0 0 0-1.372 3.368 4.8 4.8 0 0 0 1.372 3.368 4.645 4.645 0 0 0 3.313 1.395z" stroke-width=".57"/><path d="M771.578 185.198c1.552 0 3.04-.63 4.14-1.746s1.714-2.63 1.714-4.21-.617-3.093-1.714-4.21-2.59-1.743-4.14-1.743-3.044.627-4.142 1.743a6.02 6.02 0 0 0 0 8.418 5.81 5.81 0 0 0 4.142 1.746z" fill="red" class="H"/></g><use xlink:href="#B" fill="none" stroke="green" class="H"/><g stroke="#000"><path d="M708.103 318.528l-5.855-11.906h11.7l-5.855 11.906" fill="red" stroke-width=".57" class="F I"/><g fill="none" class="G"><path d="M169.483 155.94h661.034m0 188.12V155.94M169.483 344.06h661.034m-661.034 0V155.94"/></g></g><text x="592.033" y="280.635" class="B C E">po</text><text x="616.149" y="280.635" class="B C E">st</text><text x="634.015" y="280.635" class="B C E">e</text><text x="645.913" y="280.635" class="B C E">rio</text><text x="671.364" y="280.635" class="B C E">r</text><text x="685.416" y="280.635" class="B C E">m</text><text x="704.069" y="280.635" class="B C E">e</text><text x="715.965" y="280.635" class="B C E">a</text><text x="727.769" y="280.635" class="B C E">n</text><text x="746.307" y="280.635" class="B C E">µ(</text><text x="764.761" y="280.635" class="B C E">x</text><text x="776.652" y="280.635" class="B C E">)</text><text x="192.805" y="313.062" class="B C D">po</text><text x="214.261" y="313.062" class="B C D">st</text><text x="230.155" y="313.062" class="B C D">e</text><text x="240.742" y="313.062" class="B C D">rio</text><text x="263.381" y="313.062" class="B C D">r u</text><text x="286.659" y="313.062" class="B C D">n</text><text x="297.69" y="313.062" class="B C D">c</text><text x="307.01" y="313.062" class="B C D">e</text><text x="317.597" y="313.062" class="B C D">r</text><text x="324.654" y="313.062" class="B C D">t</text><text x="331.431" y="313.062" class="B C D">a</text><text x="341.929" y="313.062" class="B C D">i</text><text x="346.917" y="313.062" class="B C D">nt</text><text x="364.723" y="313.062" class="B C D">y µ</text><text x="390.002" y="313.062" class="B C D">(</text><text x="395.669" y="313.062" class="B C D">x</text><text x="405.598" y="313.062" class="B C D">)</text><text x="415.571" y="313.062" class="B C D">±</text><text x="436.102" y="313.062" class="B C D">σ</text><text x="446.043" y="313.062" class="B C D">(</text><text x="451.653" y="313.062" class="B C D">x</text><text x="461.582" y="313.062" class="B C D">)</text><path d="M359.252 299.54l-.854-1.416L403.82 269.8l-1.26-2.088 4.43 1.082-1.06 4.5-1.257-2.087-45.423 28.325zm230.688-27.595l-.567 1.557-113.42-42.894-.84 2.3-1.897-4.214 4.147-1.93-.84 2.294 113.416 42.897z"/><defs><linearGradient id="A" x1="791.769" y1="79.234" x2="54.102" y2="402.722" gradientUnits="userSpaceOnUse"><stop offset="0" stop-color="#1e6cff"/><stop offset=".48" stop-color="#699eff"/><stop offset="1" stop-color="#80aeff"/></linearGradient><path id="B" d="M169.483 324.106l6.6 1.265 6.61 1.513 6.6 1.755 6.6 1.978 6.613 2.15 13.22 4.53 6.6 2.145 6.6 1.863 6.61 1.422 6.6.87 6.6.37 6.61.083 6.6.008 19.833-.008 6.61-.083 6.608-.37 6.6-.873 6.6-1.42 6.61-1.863 6.6-2.148 6.6-2.268 6.61-2.263 6.6-2.152 6.6-1.973 6.61-1.75 6.613-1.502 6.6-1.246 6.6-.985 6.608-.745 6.6-.512 6.61-.295 6.6-.102 6.6.073 6.61.23 6.6.373 6.6.502 6.61.617 6.6.726 6.613.826 6.6.92 6.608 1.01 6.6 1.084 6.61 1.166 6.6 1.228 6.6 1.285 6.61 1.327 13.22 2.702 6.61 1.33 6.6 1.283 6.613 1.202 6.6 1.092 6.61.964 6.607.805 6.61.642 6.6.473 6.6.324 6.61.196 6.6.102 6.6.05 13.22.023 6.613-.002 6.6-.008 6.61-.04 6.607-.126 6.61-.334 6.6-.698 6.6-1.18 6.61-1.7 6.6-2.18 6.6-2.555 6.61-2.806 6.6-2.9 6.6-2.79 6.613-2.44 6.61-1.86 6.6-1.072 6.608-.133 6.6.865 6.6 1.842 6.61 2.7 6.6 3.33 6.6 3.613 6.61 3.452 6.6 2.83 6.6 1.913 6.613 1.034 6.61.437 6.6.096 6.608-.115 6.6-.297 6.61-.486 6.6-.68 6.6-.857 6.61-1.02 6.6-1.153"/></defs></svg>