<?xml version="1.0" encoding="UTF-8" standalone="no"?><!DOCTYPE svg PUBLIC "-//W3C//DTD SVG 1.1//EN" "http://www.w3.org/Graphics/SVG/1.1/DTD/svg11.dtd"><svg width="100%" height="100%" viewBox="0 0 253 72" version="1.1" xmlns="http://www.w3.org/2000/svg" xmlns:xlink="http://www.w3.org/1999/xlink" xml:space="preserve" xmlns:serif="http://www.serif.com/" style="fill-rule:evenodd;clip-rule:evenodd;stroke-linecap:square;stroke-linejoin:round;stroke-miterlimit:10;"><g><g><path d="M0,72l253,0l0,-72l-253,0l0,72" style="fill:#fff;fill-rule:nonzero;"/><path d="M0,9.559l5.06,1.056l7.591,1.945l10.119,2.68l5.06,1.059l5.06,0.693l5.06,0.242l5.061,-0.244l5.059,-0.695l5.06,-1.062l7.59,-1.989l10.12,-2.634l5.061,-1.038l5.059,-0.751l5.06,-0.432l5.06,-0.111l5.06,0.201l5.06,0.491l5.061,0.761l5.059,1.005l7.59,1.881l15.18,4.059l5.061,0.951l5.059,0.496l5.06,-0.068l5.06,-0.674l5.06,-1.233l5.06,-1.669l20.24,-7.434l5.06,-1.333l5.06,-0.993l5.061,-0.635l5.06,-0.253l5.059,0.156l5.06,0.588l5.06,1.007l5.06,1.359l15.18,4.635l5.06,1.112l5.06,0.667l2.53,0.154l0,7.895l-5.06,-3.45l-5.06,-3.033l-5.06,-2.568l-5.059,-2.12l-5.061,-1.723l-5.06,-1.39l-5.06,-1.089l-5.06,-0.785l-5.06,-0.442l-5.059,-0.041l-5.061,0.395l-5.06,0.825l-5.06,1.206l-5.06,1.508l-7.59,2.661l-7.589,3.048l-5.061,2.283l-5.06,2.54l-5.06,2.831l-7.59,4.735l-12.65,8.274l-5.06,2.967l-5.06,2.531l-5.06,1.978l-2.53,0.758l-2.53,0.596l-2.529,0.431l-2.53,0.267l-2.531,0.099l-2.53,-0.062l-2.53,-0.225l-2.53,-0.382l-5.06,-1.222l-5.06,-1.801l-5.06,-2.322l-5.059,-2.764l-7.591,-4.704l-10.12,-6.39l-5.06,-2.755l-2.53,-1.168l-2.53,-0.994l-2.529,-0.797l-2.53,-0.583l-2.531,-0.355l-2.53,-0.12l-2.53,0.121l-2.53,0.357l-2.53,0.584l-2.53,0.8l-2.53,0.996l-5.06,2.493l-5.059,2.985l-15.181,9.739l0,-26.568" style="fill:#aaf;fill-rule:nonzero;stroke:#aaf;stroke-width:0.45px;"/><g><path d="M0,64.363l5.06,1.063l5.06,1.429l12.65,4.091l2.53,0.544l2.53,0.333l5.06,0.174l12.651,-0.032l2.529,-0.142l2.53,-0.334l2.53,-0.544l5.06,-1.535l7.59,-2.558l5.06,-1.425l5.061,-1.051l5.059,-0.662l5.06,-0.31l5.06,-0.011l5.06,0.231l7.59,0.706l7.59,1.054l7.59,1.332l22.771,4.28l5.059,0.554l5.06,0.305l7.59,0.133l15.18,-0.057l5.06,-0.395l2.53,-0.453l2.53,-0.651l5.06,-1.812l10.121,-4.186l2.53,-0.712l2.53,-0.41l2.529,-0.051l2.53,0.331l2.53,0.705l2.53,1.033l10.12,5.061l2.53,0.732l2.531,0.396l5.06,0.204l5.059,-0.158l5.06,-0.446l5.06,-0.719l2.53,-0.441l0,2.041l-253,0l0,-7.637" style="fill:#ecffec;fill-rule:nonzero;stroke:#ecffec;stroke-width:0.45px;"/><g><path d="M0,30.857l2.53,-1.233l2.53,-1.222l2.53,-1.202l2.53,-1.171l2.531,-1.132l2.53,-1.083l2.529,-1.023l2.53,-0.958l2.53,-0.884l2.53,-0.805l2.53,-0.717l2.53,-0.626l2.53,-0.53l2.53,-0.43l2.53,-0.33l2.53,-0.226l2.531,-0.125l2.53,-0.023l2.529,0.078l2.53,0.175l2.53,0.268l2.53,0.357l2.53,0.441l2.53,0.516l2.53,0.587l2.53,0.647l2.53,0.701l2.53,0.745l2.531,0.778l2.53,0.804l2.53,0.818l2.529,0.822l2.53,0.817l2.53,0.8l2.53,0.774l2.53,0.737l2.53,0.693l2.53,0.638l2.53,0.575l2.53,0.504l2.53,0.427l2.531,0.343l2.53,0.253l2.529,0.158l2.53,0.061l2.53,-0.039l2.53,-0.142l2.53,-0.244l2.53,-0.347l2.53,-0.447l2.53,-0.547l2.53,-0.642l2.53,-0.731l2.531,-0.818l2.53,-0.898l2.53,-0.969l2.529,-1.035l2.53,-1.091l2.53,-1.139l2.53,-1.177l2.53,-1.206l2.53,-1.224l2.53,-1.234l2.53,-1.232l2.53,-1.219l2.531,-1.198l2.53,-1.166l2.53,-1.123l2.529,-1.073l2.53,-1.014l2.53,-0.946l2.53,-0.871l2.53,-0.789l2.53,-0.703l2.53,-0.609l2.53,-0.514l2.53,-0.414l2.53,-0.312l2.531,-0.21l2.53,-0.107l2.53,-0.006l2.529,0.094l2.53,0.191l2.53,0.284l2.53,0.371l2.53,0.454l2.53,0.529l2.53,0.597l2.53,0.657l2.53,0.708l2.531,0.751l2.53,0.784l2.53,0.807l2.529,0.82l2.53,0.822l2.53,0.814l2.53,0.797l2.53,0.768l2.53,0.731l2.53,0.684" style="fill:none;stroke:#000;stroke-width:0.91px;stroke-linecap:butt;stroke-dasharray:2.71,2.71;"/><path d="M0,22.843l2.53,-0.533l2.53,-0.529l2.53,-0.518l2.53,-0.504l2.531,-0.481l2.53,-0.457l2.529,-0.425l2.53,-0.388l2.53,-0.348l2.53,-0.301l2.53,-0.253l2.53,-0.2l2.53,-0.145l2.53,-0.087l2.53,-0.03l2.53,0.029l2.531,0.086l2.53,0.144l2.529,0.198l2.53,0.251l2.53,0.299l2.53,0.344l2.53,0.385l2.53,0.419l2.53,0.45l2.53,0.473l2.53,0.493l2.53,0.505l2.531,0.512l2.53,0.513l2.53,0.509l2.529,0.498l2.53,0.482l2.53,0.462l2.53,0.438l2.53,0.408l2.53,0.374l2.53,0.337l2.53,0.296l2.53,0.253l2.53,0.205l2.531,0.157l2.53,0.104l2.529,0.05l2.53,-0.006l2.53,-0.065l2.53,-0.123l2.53,-0.185l2.53,-0.247l2.53,-0.309l2.53,-0.373l2.53,-0.437l2.53,-0.5l2.531,-0.563l2.53,-0.625l2.53,-0.684l2.529,-0.742l2.53,-0.795l2.53,-0.846l2.53,-0.891l2.53,-0.932l2.53,-0.966l2.53,-0.993l2.53,-1.013l2.53,-1.025l2.531,-1.028l2.53,-1.021l2.53,-1.007l2.529,-0.981l2.53,-0.947l2.53,-0.901l2.53,-0.849l2.53,-0.785l2.53,-0.716l2.53,-0.635l2.53,-0.551l2.53,-0.458l2.53,-0.362l2.531,-0.262l2.53,-0.159l2.53,-0.055l2.529,0.049l2.53,0.153l2.53,0.253l2.53,0.35l2.53,0.444l2.53,0.531l2.53,0.612l2.53,0.685l2.53,0.753l2.531,0.81l2.53,0.861l2.53,0.902l2.529,0.934l2.53,0.959l2.53,0.975l2.53,0.982l2.53,0.984l2.53,0.975l2.53,0.963" style="fill:none;stroke:#000;stroke-width:0.91px;"/><path d="M0,64.363l2.53,0.484l2.53,0.579l2.53,0.672l2.53,0.757l2.531,0.823l2.53,0.866l2.529,0.868l2.53,0.821l2.53,0.713l2.53,0.544l2.53,0.333l2.53,0.142l2.53,0.032l2.53,0.003l5.06,0l2.531,-0.003l2.53,-0.032l2.529,-0.142l2.53,-0.334l2.53,-0.544l2.53,-0.713l2.53,-0.822l2.53,-0.868l2.53,-0.866l2.53,-0.824l2.53,-0.755l2.53,-0.67l2.531,-0.575l2.53,-0.477l2.53,-0.377l2.529,-0.285l2.53,-0.196l2.53,-0.113l2.53,-0.039l2.53,0.028l2.53,0.088l2.53,0.143l2.53,0.192l2.53,0.236l2.53,0.278l2.531,0.316l2.53,0.352l2.529,0.386l2.53,0.415l2.53,0.446l2.53,0.47l2.53,0.492l2.53,0.508l2.53,0.517l2.53,0.517l2.53,0.509l2.53,0.491l2.531,0.46l2.53,0.418l2.53,0.369l2.529,0.308l2.53,0.246l2.53,0.181l2.53,0.124l2.53,0.075l2.53,0.039l2.53,0.019l2.53,0.006l2.53,0.003l2.531,-0.001l2.53,-0.003l2.53,-0.015l2.529,-0.048l2.53,-0.128l2.53,-0.267l2.53,-0.452l2.53,-0.651l2.53,-0.834l2.53,-0.978l2.53,-1.074l2.53,-1.11l2.53,-1.068l2.531,-0.934l2.53,-0.712l2.53,-0.41l2.529,-0.051l2.53,0.331l2.53,0.705l2.53,1.033l2.53,1.274l2.53,1.383l2.53,1.321l2.53,1.083l2.53,0.732l2.531,0.396l2.53,0.167l2.53,0.037l2.529,-0.044l2.53,-0.114l2.53,-0.186l2.53,-0.26l2.53,-0.328l2.53,-0.391l2.53,-0.441" style="fill:none;stroke:#00f;stroke-width:0.45px;"/><path d="M37.95,19.334c0.475,0 0.932,-0.192 1.268,-0.534c0.336,-0.341 0.525,-0.805 0.525,-1.289c0,-0.484 -0.189,-0.947 -0.525,-1.288c-0.336,-0.343 -0.793,-0.534 -1.268,-0.534c-0.475,0 -0.931,0.191 -1.267,0.534c-0.337,0.341 -0.525,0.804 -0.525,1.288c0,0.484 0.188,0.948 0.525,1.289c0.336,0.342 0.792,0.534 1.267,0.534Z" style="fill-rule:nonzero;stroke:#000;stroke-width:0.22px;stroke-linecap:butt;"/><path d="M197.34,6.363c0.475,0 0.932,-0.191 1.268,-0.534c0.336,-0.342 0.525,-0.806 0.525,-1.288c0,-0.484 -0.189,-0.948 -0.525,-1.289c-0.336,-0.342 -0.793,-0.534 -1.268,-0.534c-0.475,0 -0.931,0.192 -1.267,0.534c-0.336,0.341 -0.525,0.805 -0.525,1.289c0,0.482 0.189,0.946 0.525,1.288c0.336,0.343 0.792,0.534 1.267,0.534Z" style="fill-rule:nonzero;stroke:#000;stroke-width:0.22px;stroke-linecap:butt;"/><path d="M168.667,15.118c0.475,0 0.932,-0.193 1.268,-0.534c0.336,-0.343 0.525,-0.806 0.525,-1.29c0,-0.483 -0.189,-0.947 -0.525,-1.289c-0.336,-0.342 -0.793,-0.534 -1.268,-0.534c-0.476,0 -0.931,0.192 -1.267,0.534c-0.337,0.342 -0.526,0.806 -0.526,1.289c0,0.484 0.189,0.947 0.526,1.29c0.336,0.341 0.791,0.534 1.267,0.534Z" style="fill-rule:nonzero;stroke:#000;stroke-width:0.22px;stroke-linecap:butt;"/><path d="M230.442,10.742c0.476,0 0.931,-0.192 1.267,-0.534c0.337,-0.341 0.525,-0.805 0.525,-1.289c0,-0.484 -0.188,-0.947 -0.525,-1.289c-0.336,-0.342 -0.791,-0.534 -1.267,-0.534c-0.475,0 -0.932,0.192 -1.268,0.534c-0.336,0.342 -0.525,0.805 -0.525,1.289c0,0.484 0.189,0.948 0.525,1.289c0.336,0.342 0.793,0.534 1.268,0.534Z" style="fill-rule:nonzero;stroke:#000;stroke-width:0.22px;stroke-linecap:butt;"/><path d="M230.442,11.198c0.594,0 1.164,-0.241 1.585,-0.668c0.42,-0.427 0.656,-1.007 0.656,-1.611c0,-0.604 -0.236,-1.184 -0.656,-1.611c-0.421,-0.427 -0.991,-0.667 -1.585,-0.667c-0.595,0 -1.165,0.24 -1.585,0.667c-0.419,0.427 -0.656,1.007 -0.656,1.611c0,0.604 0.237,1.184 0.656,1.611c0.42,0.427 0.99,0.668 1.585,0.668Z" style="fill:#f00;fill-rule:nonzero;stroke:#000;stroke-width:0.91px;stroke-linecap:butt;"/><path d="M0,64.363l2.53,0.484l2.53,0.579l2.53,0.672l2.53,0.757l2.531,0.823l2.53,0.866l2.529,0.868l2.53,0.821l2.53,0.713l2.53,0.544l2.53,0.333l2.53,0.142l2.53,0.032l2.53,0.003l5.06,0l2.531,-0.003l2.53,-0.032l2.529,-0.142l2.53,-0.334l2.53,-0.544l2.53,-0.713l2.53,-0.822l2.53,-0.868l2.53,-0.866l2.53,-0.824l2.53,-0.755l2.53,-0.67l2.531,-0.575l2.53,-0.477l2.53,-0.377l2.529,-0.285l2.53,-0.196l2.53,-0.113l2.53,-0.039l2.53,0.028l2.53,0.088l2.53,0.143l2.53,0.192l2.53,0.236l2.53,0.278l2.531,0.316l2.53,0.352l2.529,0.386l2.53,0.415l2.53,0.446l2.53,0.47l2.53,0.492l2.53,0.508l2.53,0.517l2.53,0.517l2.53,0.509l2.53,0.491l2.531,0.46l2.53,0.418l2.53,0.369l2.529,0.308l2.53,0.246l2.53,0.181l2.53,0.124l2.53,0.075l2.53,0.039l2.53,0.019l2.53,0.006l2.53,0.003l2.531,-0.001l2.53,-0.003l2.53,-0.015l2.529,-0.048l2.53,-0.128l2.53,-0.267l2.53,-0.452l2.53,-0.651l2.53,-0.834l2.53,-0.978l2.53,-1.074l2.53,-1.11l2.53,-1.068l2.531,-0.934l2.53,-0.712l2.53,-0.41l2.529,-0.051l2.53,0.331l2.53,0.705l2.53,1.033l2.53,1.274l2.53,1.383l2.53,1.321l2.53,1.083l2.53,0.732l2.531,0.396l2.53,0.167l2.53,0.037l2.529,-0.044l2.53,-0.114l2.53,-0.186l2.53,-0.26l2.53,-0.328l2.53,-0.391l2.53,-0.441" style="fill:none;stroke:#008000;stroke-width:0.91px;"/><path d="M206.148,62.228l-2.241,-4.557l4.482,0l-2.241,4.557" style="fill:#f00;fill-rule:nonzero;stroke:#000;stroke-width:0.22px;stroke-linecap:butt;"/></g></g></g><path d="M0,0l253,0" style="fill:none;stroke:#000;stroke-width:0.45px;"/><path d="M253,72l0,-72" style="fill:none;stroke:#000;stroke-width:0.45px;"/><path d="M0,72l253,0" style="fill:none;stroke:#000;stroke-width:0.45px;"/><path d="M0,72l0,-72" style="fill:none;stroke:#000;stroke-width:0.45px;"/><g><text x="161.724px" y="47.725px" style="font-family:'LucidaGrande', 'Lucida Grande', sans-serif;font-weight:500;font-size:7.547px;">po</text><text x="170.954px" y="47.725px" style="font-family:'LucidaGrande', 'Lucida Grande', sans-serif;font-weight:500;font-size:7.547px;">st</text><text x="177.792px" y="47.725px" style="font-family:'LucidaGrande', 'Lucida Grande', sans-serif;font-weight:500;font-size:7.547px;">e</text><text x="182.346px" y="47.725px" style="font-family:'LucidaGrande', 'Lucida Grande', sans-serif;font-weight:500;font-size:7.547px;">rio<tspan x="192.087px " y="47.725px ">r</tspan></text><text x="197.465px" y="47.725px" style="font-family:'LucidaGrande', 'Lucida Grande', sans-serif;font-weight:500;font-size:7.547px;">m</text><g><text x="204.604px" y="47.725px" style="font-family:'LucidaGrande', 'Lucida Grande', sans-serif;font-weight:500;font-size:7.547px;">e</text><text x="209.157px" y="47.725px" style="font-family:'LucidaGrande', 'Lucida Grande', sans-serif;font-weight:500;font-size:7.547px;">a</text></g><g><text x="213.675px" y="47.725px" style="font-family:'LucidaGrande', 'Lucida Grande', sans-serif;font-weight:500;font-size:7.547px;">n</text><text x="220.77px" y="47.725px" style="font-family:'LucidaGrande', 'Lucida Grande', sans-serif;font-weight:500;font-size:7.547px;">µ(<tspan x="227.833px " y="47.725px ">x</tspan></text></g><text x="232.384px" y="47.725px" style="font-family:'LucidaGrande', 'Lucida Grande', sans-serif;font-weight:500;font-size:7.547px;">)</text></g><g><text x="8.926px" y="60.136px" style="font-family:'LucidaGrande', 'Lucida Grande', sans-serif;font-weight:500;font-size:6.713px;">po</text><text x="17.138px" y="60.136px" style="font-family:'LucidaGrande', 'Lucida Grande', sans-serif;font-weight:500;font-size:6.713px;">st</text><text x="23.221px" y="60.136px" style="font-family:'LucidaGrande', 'Lucida Grande', sans-serif;font-weight:500;font-size:6.713px;">e</text><text x="27.273px" y="60.136px" style="font-family:'LucidaGrande', 'Lucida Grande', sans-serif;font-weight:500;font-size:6.713px;">rio<tspan x="35.938px " y="60.136px ">r</tspan> u</text><text x="44.847px" y="60.136px" style="font-family:'LucidaGrande', 'Lucida Grande', sans-serif;font-weight:500;font-size:6.713px;">n</text><text x="49.069px" y="60.136px" style="font-family:'LucidaGrande', 'Lucida Grande', sans-serif;font-weight:500;font-size:6.713px;">c</text><text x="52.636px" y="60.136px" style="font-family:'LucidaGrande', 'Lucida Grande', sans-serif;font-weight:500;font-size:6.713px;">e</text><text x="56.688px" y="60.136px" style="font-family:'LucidaGrande', 'Lucida Grande', sans-serif;font-weight:500;font-size:6.713px;">r</text><text x="59.389px" y="60.136px" style="font-family:'LucidaGrande', 'Lucida Grande', sans-serif;font-weight:500;font-size:6.713px;">t</text><text x="61.983px" y="60.136px" style="font-family:'LucidaGrande', 'Lucida Grande', sans-serif;font-weight:500;font-size:6.713px;">a</text><text x="66.001px" y="60.136px" style="font-family:'LucidaGrande', 'Lucida Grande', sans-serif;font-weight:500;font-size:6.713px;">i</text><text x="67.91px" y="60.136px" style="font-family:'LucidaGrande', 'Lucida Grande', sans-serif;font-weight:500;font-size:6.713px;">nt</text><text x="74.725px" y="60.136px" style="font-family:'LucidaGrande', 'Lucida Grande', sans-serif;font-weight:500;font-size:6.713px;">y µ<tspan x="84.4px " y="60.136px ">(</tspan></text><text x="86.569px" y="60.136px" style="font-family:'LucidaGrande', 'Lucida Grande', sans-serif;font-weight:500;font-size:6.713px;">x</text><text x="90.369px" y="60.136px" style="font-family:'LucidaGrande', 'Lucida Grande', sans-serif;font-weight:500;font-size:6.713px;">)</text><text x="94.186px" y="60.136px" style="font-family:'LucidaGrande', 'Lucida Grande', sans-serif;font-weight:500;font-size:6.713px;">±</text><text x="102.044px" y="60.136px" style="font-family:'LucidaGrande', 'Lucida Grande', sans-serif;font-weight:500;font-size:6.713px;">σ</text><text x="105.849px" y="60.136px" style="font-family:'LucidaGrande', 'Lucida Grande', sans-serif;font-weight:500;font-size:6.713px;">(</text><text x="107.996px" y="60.136px" style="font-family:'LucidaGrande', 'Lucida Grande', sans-serif;font-weight:500;font-size:6.713px;">x</text><text x="111.796px" y="60.136px" style="font-family:'LucidaGrande', 'Lucida Grande', sans-serif;font-weight:500;font-size:6.713px;">)</text></g><path d="M72.631,54.961l-0.327,-0.542l17.385,-10.841l-0.482,-0.799l1.696,0.414l-0.406,1.726l-0.481,-0.799l-17.385,10.841Z"/><path d="M160.923,44.399l-0.217,0.596l-43.41,-16.417l-0.321,0.877l-0.726,-1.613l1.587,-0.739l-0.321,0.878l43.408,16.418Z"/></g></svg>