<svg clip-rule="evenodd" fill-rule="evenodd" stroke-linejoin="round" stroke-miterlimit="1.41421" viewBox="0 0 291 291" xmlns="http://www.w3.org/2000/svg"><g fill-rule="nonzero"><path d="m290.187 0-26.437 261.15-118.834 29.05-118.507-29.009-26.409-261.191z" fill="#264de4"/><path d="m241.118 244.521 22.592-223.165h-118.616v246.639z" fill="#2965f1"/><g fill="#ebebeb"><path d="m60.542 118.228 3.256 32.034h81.296v-32.034z"/><path d="m145.094 53.391h-.126-90.969l3.303 32.034h87.792z"/><path d="m145.094 234.752v-33.328l-.16.037-40.459-9.633-2.586-25.549h-19.66-16.808l5.089 50.298 74.416 18.216z"/></g><path d="m189.702 150.262-4.216 41.545-40.518 9.643v33.328l74.475-18.201.547-5.412 8.536-84.335.887-8.602 6.558-64.837h-91.003v32.034h51.19l-3.305 32.803h-47.885v32.034z" fill="#fff"/></g></svg>