<svg height="144.49777mm" viewBox="0 0 362.73401 511.99998" width="102.3716mm" xmlns="http://www.w3.org/2000/svg"><g transform="translate(-74.633)"><path d="m437.367 100.62-33.046 370.199-148.543 41.181-148.134-41.123-33.011-370.257z" fill="#264de4"/><path d="m376.03 447.246 28.24-316.352h-148.27v349.629z" fill="#2965f1"/><g fill="#ebebeb"><path d="m150.31 268.217 4.07 45.41h101.62v-45.41z"/><path d="m256 176.305h-.157-113.711l4.128 45.411h109.74z"/><path d="m256 433.399v-47.246l-.199.053-50.574-13.656-3.233-36.217h-24.575-21.01l6.362 71.301 93.02 25.823z"/></g><path d="m160 0h55v23h-32v23h32v23h-55z"/><path d="m226 0h55v20h-32v4h32v46h-55v-21h32v-4h-32z"/><path d="m292 0h55v20h-32v4h32v46h-55v-21h32v-4h-32z"/><path d="m311.761 313.627-5.271 58.894-50.647 13.67v47.244l93.094-25.801.683-7.672 10.671-119.551 1.108-12.194 8.198-91.912h-113.754v45.411h63.988l-4.132 46.501h-59.856v45.41z" fill="#fff"/></g></svg>