<?xml version="1.0" encoding="UTF-8" standalone="no"?><!DOCTYPE svg PUBLIC "-//W3C//DTD SVG 1.1//EN" "http://www.w3.org/Graphics/SVG/1.1/DTD/svg11.dtd"><svg width="100%" height="100%" viewBox="0 0 2000 2000" version="1.1" xmlns="http://www.w3.org/2000/svg" xmlns:xlink="http://www.w3.org/1999/xlink" xml:space="preserve" xmlns:serif="http://www.serif.com/" style="fill-rule:evenodd;clip-rule:evenodd;stroke-linejoin:round;stroke-miterlimit:1.41421;"><path d="M2000.82,1823.2c0,97.635 -79.994,176.453 -176.442,176.453l-1645.6,0c-97.634,0 -176.442,-79.995 -176.442,-176.453l0,-1646.76c0,-97.624 79.984,-176.442 176.442,-176.442l1645.6,0c97.624,0 176.442,79.984 176.442,176.442l0,1646.76Z" style="fill:#f6981c;fill-rule:nonzero;"/><path d="M2000.82,628.138l-179.972,-121.158c3.53,-15.287 5.884,-31.761 5.884,-48.224c0,-117.628 -95.282,-212.899 -212.91,-212.899c-117.628,0 -212.899,95.271 -212.899,212.899c0,45.87 15.277,88.221 39.997,123.501l-390.517,596.367c-16.484,-3.54 -32.937,-5.883 -49.411,-5.883c-51.764,0 -99.988,18.816 -137.622,50.577l-261.133,-150.565c1.167,-9.414 2.354,-18.817 2.354,-29.418c0,-117.628 -95.271,-212.889 -212.899,-212.889c-117.629,0 -212.899,95.261 -212.899,212.889c0,29.418 5.883,56.471 16.463,82.358l-195.259,181.149l0,192.896l289.363,-269.37c30.584,16.463 64.708,25.876 101.155,25.876c56.471,0 107.048,-22.336 144.692,-57.637l255.25,147.035c-2.343,13.204 -3.524,26.588 -3.531,39.998c0,117.628 95.271,212.899 212.899,212.899c117.629,0 212.899,-95.271 212.899,-212.899c0,-49.401 -16.473,-94.095 -44.693,-129.375l389.341,-594.024c17.64,4.707 36.467,8.237 56.471,8.237c49.4,0 94.094,-16.463 130.551,-44.694l256.426,172.912l0,-170.558Z" style="fill:#fff;fill-rule:nonzero;"/><path d="M1744.4,625.795c-36.467,28.22 -81.161,44.693 -130.551,44.693c-20.004,0 -38.831,-2.353 -56.471,-8.236l-386.988,592.836c28.22,35.301 44.694,81.161 44.694,129.406c0,117.628 -95.271,212.888 -212.899,212.888c-117.628,0 -212.909,-95.26 -212.909,-212.888c0,-14.131 1.176,-27.054 3.54,-39.997l-254.073,-147.046c-37.634,35.301 -89.398,57.637 -144.692,57.637c-36.457,0 -70.571,-9.403 -101.165,-25.866l-289.363,269.359l0,323.467c0,97.635 79.984,176.443 176.452,176.443l1645.6,0c97.624,0 176.442,-79.985 176.442,-176.443l0,-1024.52l-257.613,-171.735Z" style="fill:#f05620;fill-rule:nonzero;"/></svg>