<svg enable-background="new 0 0 400 400" viewBox="0 0 400 400" xmlns="http://www.w3.org/2000/svg"><g fill="#e535ab"><path d="m122-.4h16.6v320.3h-16.6z" transform="matrix(-.866 -.5 .5 -.866 163.3196 363.3136)"/><path d="m39.8 272.2h320.3v16.6h-320.3z"/><path d="m37.9 312.2h185v16.6h-185z" transform="matrix(-.866 -.5 .5 -.866 83.0693 663.3409)"/><path d="m177.1 71.1h185v16.6h-185z" transform="matrix(-.866 -.5 .5 -.866 463.3409 283.0693)"/><path d="m122.1-13h16.6v185h-16.6z" transform="matrix(-.5 -.866 .866 -.5 126.7903 232.1221)"/><path d="m109.6 151.6h320.3v16.6h-320.3z" transform="matrix(-.5 -.866 .866 -.5 266.0828 473.3766)"/><path d="m52.5 107.5h16.6v185h-16.6z"/><path d="m330.9 107.5h16.6v185h-16.6z"/><path d="m262.4 240.1h14.5v160.9h-14.5z" transform="matrix(-.5 -.866 .866 -.5 126.7953 714.2875)"/><path d="m369.5 297.9c-9.6 16.7-31 22.4-47.7 12.8s-22.4-31-12.8-47.7 31-22.4 47.7-12.8c16.8 9.7 22.5 31 12.8 47.7"/><path d="m90.9 137c-9.6 16.7-31 22.4-47.7 12.8s-22.4-31-12.8-47.7 31-22.4 47.7-12.8c16.7 9.7 22.4 31 12.8 47.7"/><path d="m30.5 297.9c-9.6-16.7-3.9-38 12.8-47.7 16.7-9.6 38-3.9 47.7 12.8 9.6 16.7 3.9 38-12.8 47.7-16.8 9.6-38.1 3.9-47.7-12.8"/><path d="m309.1 137c-9.6-16.7-3.9-38 12.8-47.7 16.7-9.6 38-3.9 47.7 12.8 9.6 16.7 3.9 38-12.8 47.7-16.7 9.6-38.1 3.9-47.7-12.8"/><path d="m200 395.8c-19.3 0-34.9-15.6-34.9-34.9s15.6-34.9 34.9-34.9 34.9 15.6 34.9 34.9c0 19.2-15.6 34.9-34.9 34.9"/><path d="m200 74c-19.3 0-34.9-15.6-34.9-34.9s15.6-34.9 34.9-34.9 34.9 15.6 34.9 34.9-15.6 34.9-34.9 34.9"/></g></svg>