<svg clip-rule="evenodd" fill-rule="evenodd" stroke-linejoin="round" stroke-miterlimit="1.41421" viewBox="0 0 512 512" xmlns="http://www.w3.org/2000/svg"><g fill-rule="nonzero"><path d="m46.595 460.819-46.595-460.819h512l-46.645 460.746-209.668 51.254z" fill="#e44d26"/><path d="m256 472.824 169.423-41.416 39.86-393.729h-209.283z" fill="#f16529"/><path d="m256 208.59h-84.817l-5.858-57.875h90.675v-56.518h-.222-160.503l1.534 15.163 15.754 155.747h143.437z" fill="#ebebeb"/><path d="m256 355.372-.281.066-71.385-16.996-4.564-45.076h-34.687-29.656l8.98 88.741 131.298 32.139.295-.072z" fill="#ebebeb"/><g fill="#fff"><path d="m255.778 208.59v56.517h78.929l-7.44 73.299-71.489 17.013v58.8l131.403-32.112.964-9.549 15.062-148.792 1.564-15.176h-17.273z"/><path d="m255.778 94.197v56.518h154.825l1.286-12.704 2.921-28.651 1.532-15.163z"/></g></g></svg>