<svg viewBox="0 0 512 512" xmlns="http://www.w3.org/2000/svg"><path d="m107.644 470.877-33.011-370.257h362.734l-33.046 370.199-148.543 41.181z" fill="#e44d26"/><path d="m256 480.523 120.03-33.277 28.24-316.352h-148.27z" fill="#f16529"/><path d="m256 268.217h-60.09l-4.15-46.501h64.24v-45.411h-.157-113.711l1.087 12.183 11.161 125.139h101.62z" fill="#ebebeb"/><path d="m256 386.153-.199.053-50.574-13.656-3.233-36.217h-24.575-21.01l6.362 71.301 93.02 25.823.209-.058z" fill="#ebebeb"/><path d="m108.382 0h23.077v22.8h21.11v-22.8h23.078v69.044h-23.077v-23.12h-21.11v23.12h-23.077v-69.044z"/><path d="m205.994 22.896h-20.316v-22.896h63.72v22.896h-20.325v46.148h-23.078v-46.148z"/><path d="m259.511 0h24.063l14.802 24.26 14.787-24.26h24.072v69.044h-22.982v-34.222l-15.877 24.549h-.397l-15.888-24.549v34.222h-22.58z"/><path d="m348.72 0h23.084v46.222h32.453v22.822h-55.537z"/><g fill="#fff"><path d="m255.843 268.217v45.41h55.918l-5.271 58.894-50.647 13.67v47.244l93.094-25.801.683-7.672 10.671-119.551 1.108-12.194h-12.237z"/><path d="m255.843 176.305v28.204 17.096.111h109.542.146l.911-10.207 2.069-23.021 1.086-12.183z"/></g></svg>