<svg width="512" height="512" xmlns="http://www.w3.org/2000/svg" xmlns:svg="http://www.w3.org/2000/svg">
 <metadata id="metadata27">image/svg+xml</metadata>
 <g>
  <title>Layer 1</title>
  <g stroke="null" id="svg_1">
   <g stroke="null" transform="matrix(8.72472 0 0 8.72472 -186.72 -149.063)" id="g862">
    <path stroke="null" d="m49.8649,24.34078c0.19132,0.35531 0.45097,0.9156 0.66962,1.25724c0.15032,0.23232 0.31431,0.43731 0.50563,0.62862c0.56029,0.5603 1.09326,1.14792 1.57155,1.77654c1.13425,1.48956 1.89953,3.14311 2.44616,4.93331c0.32798,1.09325 0.50563,2.21384 0.51929,3.34809c0.05466,3.38908 -1.10691,6.29987 -3.45741,8.7187c-0.38264,0.38263 -0.79261,0.73794 -1.22991,1.05225c-0.23232,0 -0.34164,-0.17765 -0.4373,-0.34164c-0.17766,-0.30064 -0.28698,-0.64229 -0.34164,-0.98393c-0.08199,-0.40997 -0.13666,-0.81994 -0.10933,-1.24357c0,-0.06833 0,-0.123 0,-0.19132c-0.01367,-0.041 -0.21865,-18.85863 -0.13666,-18.95429z" id="path2" stroke-width="0.13666" fill="#599636"/>
    <path stroke="null" d="m49.8649,24.29978c-0.02733,-0.05466 -0.05466,-0.01367 -0.08199,0.01366c0.01367,0.27332 -0.08199,0.5193 -0.23231,0.75162c-0.16399,0.23231 -0.38264,0.40997 -0.60129,0.60129c-1.21625,1.05225 -2.17284,2.32316 -2.93812,3.74439c-1.01126,1.91319 -1.54422,3.96304 -1.69454,6.12222c-0.06833,0.77894 0.24598,3.52574 0.49196,4.31835c0.66962,2.10451 1.8722,3.86739 3.43008,5.39794c0.38264,0.36897 0.79261,0.71062 1.21625,1.03859c0.12299,0 0.13666,-0.10931 0.16399,-0.19131c0.05466,-0.17765 0.09566,-0.3553 0.12299,-0.53296c0.12299,-0.68328 0.19132,-1.36657 0.27331,-2.04985c0,-0.08199 -0.10932,-19.1456 -0.15032,-19.21393l-0.00001,0z" id="path8" stroke-width="0.13666" fill="#6cac48"/>
    <path stroke="null" d="m50.53452,46.88914c0.02733,-0.31431 0.17765,-0.57396 0.34164,-0.83361c-0.16399,-0.06833 -0.28698,-0.20498 -0.38264,-0.35531c-0.08199,-0.13665 -0.15032,-0.30064 -0.20498,-0.45096c-0.19132,-0.57396 -0.23232,-1.17525 -0.28698,-1.76287c0,0 0,0 0,0l0,0c0,-0.05466 0,-0.123 0,-0.17766c0,0 0,0 0,0c0,-0.05466 0,-0.12299 0,-0.17765c-0.06833,0.05466 -0.08199,0.51929 -0.08199,0.58762c-0.041,0.62862 -0.12299,1.24358 -0.24598,1.84487c-0.041,0.24598 -0.06833,0.49196 -0.21865,0.71061c0,0.02733 0,0.05466 0.01367,0.09566c0.24598,0.72429 0.31431,1.46223 0.3553,2.21384c0,0.09566 0,0.17766 0,0.27332c0,0.32798 -0.01367,0.25964 0.25965,0.36897c0.10933,0.041 0.23232,0.05466 0.34164,0.13666c0.08199,0 0.09566,-0.06833 0.09566,-0.123c-0.01367,-0.15032 -0.041,-0.30064 -0.041,-0.45096c0,-0.42364 -0.01367,-0.83361 0,-1.25724c-0.01367,-0.21865 0.02733,-0.43731 0.05466,-0.64229z" id="path10" stroke-width="0.13666" fill="#c2bfbf"/>
   </g>
   <g stroke="null" transform="matrix(6.28772 0 0 6.28772 -170.322 -80.4534)" id="g880">
    <path stroke="null" d="m30.67151,65.34927c0,0.69697 0,1.39394 0,2.07723c0,0.08199 0,0.16396 0.01367,0.24596c0.02733,0.24599 0.17766,0.3963 0.40997,0.46463c0.20499,0.05466 0.42364,0.09566 0.62862,0.12299c0.12299,0.01367 0.16399,0.06833 0.17766,0.19132c0.01367,0.46463 -0.02733,0.51929 -0.4783,0.49197c-1.05226,-0.05466 -2.10451,-0.06833 -3.15677,0c-0.041,0 -0.08199,0 -0.10933,0c-0.32797,0.01366 -0.3553,-0.01367 -0.3553,-0.34164c0,-0.05466 0.01367,-0.12299 0.01367,-0.17767c0,-0.10931 0.06833,-0.15031 0.16398,-0.15031c0.21866,-0.02734 0.42364,-0.08199 0.62863,-0.12299c0.28697,-0.06833 0.45096,-0.24599 0.47829,-0.53296c0.041,-0.31432 0.041,-0.64229 0.041,-0.9566c0.041,-1.21628 0.02733,-2.44622 0.01366,-3.66246c0,-0.23232 -0.09566,-0.40997 -0.30064,-0.5193c-0.24598,-0.13665 -0.50563,-0.24598 -0.77894,-0.32796c-0.08199,-0.02733 -0.16399,-0.041 -0.23232,-0.08199c-0.19132,-0.09566 -0.20498,-0.27332 -0.01367,-0.38264c0.06833,-0.041 0.15032,-0.06833 0.23232,-0.08199c0.8336,-0.12299 1.63988,-0.32798 2.43249,-0.61496c0.16398,-0.05466 0.20498,-0.041 0.21865,0.12299c0.01367,0.10933 0,0.21866 -0.01367,0.31431c-0.02733,0.17766 -0.02733,0.35531 -0.02733,0.5193c0,0.06833 0.01366,0.13666 0.08199,0.17765c0.06833,0.041 0.13665,0 0.19132,-0.041c0.28698,-0.21865 0.57395,-0.42363 0.88827,-0.60129c0.45096,-0.24598 0.92926,-0.46463 1.44856,-0.53296c0.62862,-0.08199 1.17524,0.08199 1.65354,0.49197c0.20499,0.17765 0.36898,0.38264 0.5193,0.60129c0.13665,0.19132 0.15032,0.20498 0.32797,0.06833c0.5193,-0.38264 1.06593,-0.72428 1.65355,-0.97027c0.61495,-0.25964 1.24358,-0.30064 1.8722,-0.08199c0.64228,0.23232 1.07958,0.68328 1.33923,1.29824c0.21865,0.49197 0.31431,1.01126 0.31431,1.53056c0,0.80629 0,1.61258 0,2.43254c0,0.40998 0,0.81995 0,1.22993c0,0.24598 0.10933,0.40997 0.34164,0.51929c0.25965,0.10933 0.54663,0.15031 0.81994,0.20499c0.17766,0.04099 0.17766,0.04099 0.17766,0.21864c-0.02733,0.45097 -0.06833,0.47829 -0.50563,0.45097c-1.09326,-0.06832 -2.20017,-0.05466 -3.29343,0c-0.21865,0.01366 -0.21865,0.01366 -0.23231,-0.20499c0,-0.02733 0,-0.04099 0,-0.06833c-0.01367,-0.36897 -0.01367,-0.36897 0.34164,-0.45097c0.12299,-0.02733 0.23231,-0.05466 0.3553,-0.09566c0.27332,-0.08199 0.40997,-0.25964 0.42364,-0.53296c0.01367,-0.34164 0.02733,-0.68328 0.041,-1.02493c0,-0.88829 0.02733,-1.79025 -0.02733,-2.67853c-0.01367,-0.23232 -0.05466,-0.46463 -0.15032,-0.69695c-0.34164,-0.83361 -1.09326,-1.13425 -1.81754,-1.05226c-0.54662,0.05466 -1.02492,0.27332 -1.47589,0.58762c-0.09566,0.06833 -0.16399,0.15033 -0.15032,0.28698c0.12299,0.87461 0.041,1.74923 0.05466,2.62385c0.01367,0.62863 0,1.27094 0,1.89956c0,0.34164 0.13666,0.50563 0.46463,0.58762c0.20499,0.05466 0.40997,0.09566 0.62862,0.13667c0.09566,0.01367 0.15033,0.05466 0.15033,0.16399c0,0.041 0,0.08199 0,0.10931c-0.01367,0.38264 -0.041,0.40997 -0.42364,0.39632c-1.09325,-0.05466 -2.18651,-0.041 -3.2661,0c-0.36897,0.01366 -0.40997,-0.02734 -0.38263,-0.40997c0.01367,-0.21865 0.041,-0.23232 0.24598,-0.27332c0.15032,-0.02733 0.30064,-0.05466 0.45097,-0.08199c0.40997,-0.08199 0.54662,-0.23232 0.57395,-0.65594c0.01367,-0.30064 0.041,-0.61496 0.041,-0.9156c0.01367,-0.91563 0.041,-1.83125 -0.02733,-2.74686c-0.02733,-0.34164 -0.10932,-0.66962 -0.28698,-0.98393c-0.27331,-0.50563 -0.71061,-0.76527 -1.28457,-0.79261c-0.58762,-0.041 -1.10692,0.17765 -1.59888,0.45096c-0.34164,0.19132 -0.49197,0.4373 -0.46464,0.83361c0.01367,0.68328 -0.01366,1.33924 0,1.99522c-0.01366,0 0,0 0,0l0,-0.00002l0,-0.00002z" id="path4" stroke-width="0.13666" fill="#47474a"/>
    <g stroke="null" id="g870">
     <path stroke="null" id="path6" d="m56.41763,65.43127c0,0.6423 0,1.28461 0,1.9269c0,0.13665 0.01366,0.27332 0.02733,0.40997c0.02733,0.20498 0.13666,0.32796 0.32798,0.38264c0.23232,0.06833 0.4783,0.10932 0.72428,0.12299c0.13666,0.01367 0.16399,0.06833 0.17765,0.17765c0,0.02733 0,0.05466 0,0.09566c-0.01367,0.4783 -0.06833,0.53296 -0.53296,0.50563c-1.03859,-0.06833 -2.07718,-0.05466 -3.11577,0c-0.13666,0 -0.27331,0.01367 -0.40997,0.01367c-0.08199,0 -0.10933,-0.041 -0.12299,-0.09566c-0.041,-0.19132 -0.041,-0.38264 0,-0.57395c0.01367,-0.08199 0.06833,-0.10932 0.15032,-0.12299c0.19132,-0.02734 0.36897,-0.06834 0.56029,-0.10932c0.34165,-0.08199 0.46464,-0.21865 0.4783,-0.57396c0.02733,-0.38264 0.041,-0.76528 0.041,-1.14793c0,-1.12061 0,-2.24123 0,-3.36181c0,-0.24599 -0.09566,-0.39631 -0.31431,-0.50563c-0.24598,-0.13666 -0.50563,-0.23232 -0.77894,-0.32798c-0.08199,-0.02733 -0.16399,-0.05466 -0.23232,-0.09566c-0.17765,-0.12299 -0.19132,-0.30064 -0.02733,-0.43731c0.08199,-0.06833 0.16399,-0.09566 0.27332,-0.10933c0.8746,-0.13665 1.72187,-0.32797 2.54181,-0.65595c0.09566,-0.041 0.13666,-0.01367 0.17765,0.06833c0.041,0.08199 0.05466,0.17766 0.041,0.27332c-0.01367,0.21865 -0.02733,0.42363 -0.041,0.64228c0,0.08199 -0.041,0.19132 0.02733,0.23232c0.08199,0.05466 0.13666,-0.06833 0.20499,-0.10933c0.40997,-0.32797 0.84727,-0.62862 1.32557,-0.84727c0.42365,-0.19132 0.86095,-0.32798 1.35291,-0.30064c0.9156,0.05466 1.57155,0.51929 1.99519,1.32557c0.21865,0.42363 0.31432,0.88826 0.35532,1.36657c0.02733,0.32798 0.04099,0.66962 0.04099,1.01127c0,0.94295 0.01367,1.87225 0.01367,2.81519c0,0.06832 0,0.13666 0,0.20499c0.01366,0.23232 0.09566,0.38263 0.32796,0.46463c0.24598,0.08199 0.4783,0.13667 0.73795,0.17765c0.21865,0.02733 0.23232,0.06833 0.24599,0.27332c0,0.02732 0,0.041 0,0.06833c-0.02734,0.46463 -0.05466,0.47829 -0.51929,0.45096c-1.02493,-0.05466 -2.04985,-0.05466 -3.06111,0c-0.13665,0.01366 -0.27331,0 -0.40997,0.01366c-0.08199,0 -0.13665,-0.01366 -0.15032,-0.09566c-0.02733,-0.17765 -0.05466,-0.35532 -0.01367,-0.54662c0.01367,-0.08199 0.05466,-0.12299 0.15033,-0.13667c0.20498,-0.02733 0.42363,-0.05466 0.62862,-0.10933c0.21864,-0.05466 0.34164,-0.19131 0.36897,-0.40997c0.01367,-0.12299 0.02733,-0.25964 0.02733,-0.38264c0,-0.9566 0,-1.91322 -0.01366,-2.85617c0,-0.32799 -0.01367,-0.65596 -0.08199,-0.98394c-0.16399,-0.71061 -0.69695,-1.18891 -1.42123,-1.27091c-0.62862,-0.06833 -1.18891,0.09566 -1.72187,0.43731c-0.25965,0.16399 -0.36898,0.39631 -0.36898,0.68328c0,0.4783 0,0.9566 0,1.44858c0,0.20499 0,0.40998 0,0.61497c0,-0.041 0,-0.041 0.01367,-0.041l-0.00001,0l-0.00003,-0.00002z" stroke-width="0.13666" fill="#47474a"/>
     <path stroke="null" id="path12" d="m96.44438,61.56385c-0.15031,-0.99759 -0.51929,-1.88586 -1.16158,-2.66479c-0.57396,-0.69695 -1.27091,-1.21626 -2.10452,-1.55789c-0.86094,-0.35531 -1.77654,-0.46463 -2.70581,-0.49196c-0.38264,-0.01367 -5.60292,0.06833 -5.98556,0c-0.09566,-0.01367 -0.16399,0.01366 -0.21865,0.09566c-0.06833,0.10932 -0.13666,0.20498 -0.17766,0.31431c-0.16399,0.36897 -0.16399,0.34164 0.23232,0.3963c0.32798,0.05466 0.6423,0.08199 0.9566,0.17765c0.28698,0.09566 0.49196,0.25965 0.56029,0.57396c0.02734,0.15033 0.05466,4.96064 0.05466,7.20185c0,0.53297 -0.01367,1.06595 -0.05466,1.59891c-0.01366,0.123 -0.02733,0.24599 -0.06833,0.35532c-0.05466,0.16399 -0.15032,0.30065 -0.31431,0.36897c-0.17766,0.08199 -0.36898,0.13667 -0.57396,0.15034c-0.36897,0.04099 -0.42365,0.05466 -0.54663,0.46462c-0.01366,0.05466 -0.02733,0.10934 -0.041,0.15032c-0.02733,0.17766 -0.01367,0.20499 0.16399,0.20499c0.81995,0.01366 3.40276,0.041 4.08604,0.041c0.38264,-0.01367 0.99759,0.02733 1.59888,-0.02734c0.36897,-0.041 0.73795,-0.06833 1.10693,-0.13667c1.25724,-0.23232 2.37783,-0.7516 3.33443,-1.58522c0.56028,-0.49197 0.98393,-1.06594 1.31189,-1.7219c0.38264,-0.7653 0.54663,-1.59892 0.58764,-2.44619c0.06831,-0.47829 0.041,-0.97026 -0.041,-1.46223l0,-0.00001zm-1.98151,1.94053c-0.0547,0.8746 -0.23232,1.72189 -0.68327,2.4872c-0.57396,0.9976 -1.39391,1.69456 -2.52816,1.94054c-0.49197,0.10933 -0.98392,0.15033 -1.48956,0.08199c-0.36897,-0.041 -0.72427,-0.08199 -1.06593,-0.20497c-0.61495,-0.21866 -0.8336,-0.6013 -0.84727,-1.18893c-0.02734,-0.86096 0,-6.88756 -0.01366,-8.24046c0,-0.49197 0.21865,-0.60129 0.57396,-0.61496c0.53296,-0.041 1.07959,-0.02733 1.61255,0.02733c0.57396,0.05466 1.12059,0.19132 1.65355,0.40997c0.3963,0.16399 0.76527,0.39631 1.07958,0.66962c0.73796,0.62862 1.22992,1.42123 1.48957,2.35049c0.21864,0.75162 0.25964,1.5169 0.21864,2.28218l0,0.00001z" stroke-width="0.13666" fill="#c2bfbf"/>
     <path stroke="null" id="path14" d="m107.80057,64.84364c0,-0.08199 0,-0.15032 -0.0137,-0.23232c-0.12299,-0.75164 -0.51929,-1.32559 -1.13425,-1.76289c-0.39632,-0.28698 -0.84727,-0.4783 -1.31191,-0.61496c-0.08199,-0.02733 -0.15031,-0.05466 -0.23231,-0.06833c0.01369,-0.06833 0.0547,-0.08199 0.0957,-0.09566c0.27331,-0.13666 0.53296,-0.28698 0.76527,-0.49196c0.42364,-0.35531 0.71062,-0.79261 0.84727,-1.32557c0.08199,-0.28698 0.08199,-0.57396 0.0547,-0.87461c-0.06831,-0.75161 -0.39632,-1.33923 -0.9976,-1.77653c-0.62862,-0.46464 -1.36656,-0.65596 -2.13184,-0.66962c-1.47589,-0.02733 -2.96545,0 -4.44135,0c-0.42364,0 -0.84727,0.02733 -1.28458,-0.041c-0.082,-0.01367 -0.19131,-0.041 -0.25964,0.05466c-0.10933,0.17765 -0.21866,0.35531 -0.25965,0.56029c-0.01369,0.09566 0.0137,0.15032 0.12299,0.16399c0.31431,0.041 0.62862,0.09566 0.94292,0.13666c0.36897,0.05466 0.62862,0.25964 0.65595,0.58762c0.0273,0.23232 0.041,0.45097 0.041,0.68328c0,0.84728 -0.0137,1.70821 -0.0273,2.55548c-0.02731,1.68088 -0.0137,3.37545 -0.0137,5.05636c0,0.30065 -0.041,0.58765 -0.0957,0.88828c-0.041,0.20499 -0.15031,0.34164 -0.35532,0.40997c-0.27331,0.08199 -0.53296,0.16399 -0.81994,0.16399c-0.17765,0 -0.28697,0.06833 -0.3553,0.23231c-0.0547,0.123 -0.10933,0.25965 -0.12299,0.38264c-0.02731,0.16399 0.01369,0.21865 0.17765,0.19133c0.12299,-0.01366 4.63266,0.09566 5.47993,0.01366c0.50563,-0.05466 1.01126,-0.12299 1.50323,-0.27331c0.86093,-0.27332 1.65354,-0.66962 2.28217,-1.33924c0.51929,-0.54662 0.81994,-1.2026 0.84727,-1.96789c0.041,-0.17766 0.041,-0.35532 0.041,-0.54664l0.00002,0zm-6.62785,-5.58928c0.0273,-0.36897 0.0273,-0.72428 0.041,-1.09325c0,-0.20498 0.08199,-0.30064 0.28698,-0.34164c0.32798,-0.06833 0.65594,-0.041 0.98392,-0.02733c0.32797,0.02733 0.64228,0.06833 0.97026,0.16399c0.6013,0.17765 1.06593,0.51929 1.33924,1.09325c0.12299,0.25965 0.19131,0.54663 0.19131,0.83361c0.01369,0.38263 -0.01369,0.75161 -0.16399,1.12058c-0.23232,0.50563 -0.60129,0.83361 -1.13425,0.92927c-0.53296,0.09566 -2.04985,0.05466 -2.28217,0.05466c-0.20499,0 -0.21864,-0.02733 -0.21864,-0.23232c0,-0.4373 0,-0.8746 0,-1.29824c0,0 0,0 0,0c-0.02731,-0.38264 -0.041,-0.79261 -0.01369,-1.20258l0.00003,0zm4.44135,7.35219c-0.23232,0.61497 -0.65596,1.0386 -1.25726,1.27092c-0.32796,0.12299 -0.65594,0.19131 -1.01125,0.17766c-0.42363,-0.01367 -0.84727,0 -1.2709,-0.08199c-0.57396,-0.12299 -0.83361,-0.66962 -0.87461,-1.06594c-0.0683,-0.69696 -0.0273,-1.40759 -0.041,-1.9269c0,-0.7243 0,-1.25726 0,-1.80388c0,-0.21866 0.02731,-0.28698 0.25964,-0.28698c0.42365,-0.01367 0.84728,-0.02732 1.28458,0.01367c0.30064,0.02733 0.58762,0.05466 0.8746,0.10932c0.61496,0.13666 1.17525,0.36897 1.61256,0.84727c0.35532,0.38265 0.54662,0.84729 0.58762,1.35293c0.041,0.47831 0.0137,0.94296 -0.16398,1.39393l0.00001,-0.00001l-0.00001,0.00001z" stroke-width="0.13666" fill="#c2bfbf"/>
     <path stroke="null" id="path16" d="m70.8896,62.47945c0.12299,0.01366 0.24598,0.041 0.35529,0.05466c0.38264,0.01366 0.8336,-0.12299 0.97028,-0.65596c0.06833,-0.25965 0.08199,-0.50563 0,-0.77894c-0.08199,0 -0.12299,0.06833 -0.16399,0.09566c-0.20499,0.16398 -0.4373,0.25964 -0.68328,0.28697c-0.49197,0.05466 -0.98392,0.02733 -1.46223,-0.15032c-0.21865,-0.08199 -0.43729,-0.16399 -0.66962,-0.23231c-0.46463,-0.15033 -0.9566,-0.21866 -1.44855,-0.19132c-0.69695,0.05466 -1.35291,0.28698 -1.96786,0.61495c-0.65594,0.35531 -1.12057,0.88827 -1.33923,1.61255c-0.12299,0.42364 -0.13667,0.86094 -0.08199,1.29825c0.13665,0.99761 0.65595,1.69458 1.58521,2.06357c0.05466,0.01367 0.09566,0.041 0.15033,0.05466c0.12299,0.06833 0.13665,0.13665 0.02733,0.23232c-0.10933,0.08199 -0.21865,0.16399 -0.34164,0.23232c-0.27332,0.16399 -0.54662,0.32797 -0.81995,0.50564c-0.20498,0.12299 -0.23231,0.21864 -0.16398,0.43729c0.08199,0.25965 0.23231,0.4783 0.4373,0.65595c0.19131,0.16399 0.39629,0.28698 0.62862,0.38264c0.15032,0.06834 0.15032,0.10933 0.01367,0.21865c-0.25965,0.19132 -0.5193,0.36897 -0.77894,0.5603c-0.25965,0.19131 -0.5193,0.40997 -0.73795,0.65596c-0.31431,0.3553 -0.42364,0.76527 -0.32798,1.2299c0.10933,0.49197 0.34165,0.88828 0.71062,1.22991c0.35532,0.32797 0.77895,0.56029 1.25724,0.68328c0.76527,0.21865 1.55788,0.23232 2.33683,0.08199c1.12059,-0.20499 2.09084,-0.7106 2.86979,-1.54422c0.53297,-0.5603 0.84727,-1.21623 0.8746,-2.00885c0.041,-0.9566 -0.54662,-1.76287 -1.47589,-1.99519c-0.24598,-0.05466 -0.49196,-0.09566 -0.73794,-0.13667c-0.75162,-0.09565 -1.50323,-0.13665 -2.25484,-0.19131c-0.24599,-0.01367 -0.49197,-0.05466 -0.69695,-0.17765c-0.25965,-0.16399 -0.32798,-0.4783 -0.16399,-0.68328c0.12299,-0.15033 0.27332,-0.24599 0.46465,-0.25965c0.15031,-0.01367 0.28696,-0.02734 0.43729,-0.041c0.88828,-0.09566 1.65354,-0.45098 2.3095,-1.05229c0.34164,-0.31432 0.57394,-0.71062 0.69695,-1.16161c0.16398,-0.58764 0.16398,-1.18892 0.02733,-1.7902c-0.041,-0.15033 -0.02733,-0.16399 0.16399,-0.13666l0,0.00001l-0.00002,0zm-3.34809,6.80558c0.08199,0.01366 0.16399,0 0.24598,0c0.57396,0.02733 1.16158,0.06832 1.72187,0.21866c0.19131,0.05466 0.35531,0.12299 0.53296,0.20498c0.54663,0.30064 0.75163,0.81994 0.68329,1.38023c-0.08199,0.61496 -0.42364,1.05225 -0.9566,1.33923c-0.35532,0.19132 -0.75161,0.28699 -1.16158,0.32798c-0.15031,0.01366 -0.28698,0 -0.43729,0c-0.4783,0.01366 -0.94293,-0.04099 -1.39391,-0.23232c-0.31431,-0.12299 -0.57396,-0.30066 -0.80627,-0.54663c-0.47829,-0.4783 -0.71061,-1.35291 0.01366,-2.06351c0.43731,-0.40997 0.92928,-0.6833 1.55789,-0.62862l0,-0.00001zm1.55788,-4.26373c-0.28698,0.7243 -0.9156,0.94296 -1.54422,0.84729c-0.57395,-0.08199 -0.9976,-0.39632 -1.2709,-0.91563c-0.35531,-0.69696 -0.45097,-1.42125 -0.24599,-2.17286c0.15033,-0.5603 0.49197,-0.98393 1.09326,-1.07959c0.76527,-0.13666 1.48956,0.13665 1.88586,0.90194c0.19131,0.36897 0.28698,0.81993 0.28698,1.46222c-0.01367,0.25966 -0.06834,0.61497 -0.20499,0.95663z" stroke-width="0.13666" fill="#47474a"/>
     <path stroke="null" id="path18" d="m51.88063,64.092c-0.12299,-0.73795 -0.3963,-1.40756 -0.90193,-1.96786c-0.75162,-0.8336 -1.70821,-1.18892 -2.7878,-1.20258c-0.94293,-0.01366 -1.8312,0.25965 -2.62381,0.75162c-0.79261,0.49196 -1.33923,1.18892 -1.59888,2.09084c-0.23232,0.79263 -0.21865,1.59892 -0.041,2.40521c0.4783,2.15919 2.14551,3.08846 4.1407,2.95181c0.58762,-0.041 1.14791,-0.23232 1.68087,-0.49197c0.79261,-0.36897 1.36657,-0.95659 1.76287,-1.73553c0.31432,-0.64229 0.45097,-1.3256 0.43731,-2.10456c-0.01367,-0.19132 -0.02733,-0.45097 -0.06833,-0.69696l0,-0.00002zm-1.94052,3.03384c-0.24599,0.65595 -0.71062,1.05228 -1.40757,1.14793c-0.60129,0.08199 -1.16158,-0.06834 -1.66721,-0.42364c-0.36897,-0.27332 -0.65595,-0.61496 -0.86094,-1.02493c-0.56029,-1.14795 -0.65595,-2.35056 -0.36897,-3.58048c0.09566,-0.38264 0.28698,-0.72428 0.57396,-0.99759c0.50563,-0.46464 1.09325,-0.57396 1.74921,-0.43731c0.62862,0.13666 1.10691,0.47831 1.48955,0.9976c0.38264,0.51929 0.57396,1.12058 0.68329,1.74921c0.05466,0.31432 0.05466,0.6423 0.06833,0.8473c0,0.65596 -0.05466,1.18894 -0.25965,1.7219l0,0.00001z" stroke-width="0.13666" fill="#47474a"/>
     <path stroke="null" id="path20" d="m81.74014,64.20134c-0.10932,-0.79262 -0.3963,-1.5169 -0.9566,-2.11819c-0.73795,-0.80628 -1.69455,-1.14792 -2.76047,-1.16159c-0.9156,-0.01366 -1.76287,0.24599 -2.54181,0.69695c-0.87461,0.5193 -1.4759,1.25725 -1.70821,2.25484c-0.27332,1.1206 -0.16399,2.21389 0.32796,3.25249c0.45097,0.9566 1.21626,1.57156 2.22751,1.84486c1.12058,0.30065 2.18652,0.16399 3.22511,-0.34164c0.90192,-0.43729 1.54422,-1.12057 1.91319,-2.04986c0.21865,-0.54664 0.30064,-1.13428 0.31431,-1.81757c0.01367,-0.12299 -0.01366,-0.34165 -0.04099,-0.5603l-0.00001,0zm-1.88586,2.74686c-0.21865,0.73794 -0.68328,1.21624 -1.46223,1.32557c-0.57395,0.08199 -1.12058,-0.05466 -1.61254,-0.38264c-0.42365,-0.28699 -0.72429,-0.66962 -0.94294,-1.12059c-0.24598,-0.47831 -0.38263,-0.98395 -0.4373,-1.50326c-0.08199,-0.6423 -0.08199,-1.27093 0.06834,-1.91323c0.02733,-0.12299 0.06833,-0.24598 0.12299,-0.36897c0.38264,-0.9566 1.2299,-1.39391 2.22751,-1.17525c0.66962,0.15033 1.17524,0.5193 1.55788,1.07959c0.36898,0.54663 0.54663,1.14792 0.62862,1.79022c0.041,0.25965 0.05466,0.53298 0.041,0.7653c0,0.53297 -0.041,1.02496 -0.19131,1.50327l-0.00001,0z" stroke-width="0.13666" fill="#47474a"/>
    </g>
   </g>
  </g>
 </g>
</svg>