<svg height="2148" preserveAspectRatio="xMinYMin meet" viewBox="0 0 256 220" width="2500" xmlns="http://www.w3.org/2000/svg"><path d="m245.97 168.943c-13.662 7.121-84.434 36.22-99.501 44.075-15.067 7.856-23.437 7.78-35.34 2.09-11.902-5.69-87.216-36.112-100.783-42.597-6.78-3.24-10.346-5.976-10.346-8.56v-25.876s98.05-21.345 113.879-27.024c15.828-5.679 21.32-5.884 34.79-.95 13.472 4.936 94.018 19.468 107.331 24.344l-.006 25.51c.002 2.558-3.07 5.364-10.024 8.988" fill="#912626"/><path d="m245.965 143.22c-13.661 7.118-84.431 36.218-99.498 44.072-15.066 7.857-23.436 7.78-35.338 2.09-11.903-5.686-87.214-36.113-100.78-42.594-13.566-6.485-13.85-10.948-.524-16.166 13.326-5.22 88.224-34.605 104.055-40.284 15.828-5.677 21.319-5.884 34.789-.948 13.471 4.934 83.819 32.935 97.13 37.81 13.316 4.881 13.827 8.9.166 16.02" fill="#c6302b"/><path d="m245.97 127.074c-13.662 7.122-84.434 36.22-99.501 44.078-15.067 7.853-23.437 7.777-35.34 2.087-11.903-5.687-87.216-36.112-100.783-42.597-6.78-3.24-10.346-5.972-10.346-8.557v-25.879s98.05-21.344 113.879-27.023c15.828-5.679 21.32-5.885 34.79-.95 13.473 4.935 94.019 19.464 107.331 24.341l-.006 25.513c.002 2.557-3.07 5.363-10.024 8.987" fill="#912626"/><path d="m245.965 101.351c-13.661 7.12-84.431 36.218-99.498 44.075-15.066 7.854-23.436 7.777-35.338 2.087-11.903-5.686-87.214-36.112-100.78-42.594-13.566-6.483-13.85-10.947-.524-16.167 13.326-5.217 88.225-34.604 104.055-40.282 15.828-5.678 21.319-5.884 34.789-.949 13.471 4.934 83.819 32.933 97.13 37.81 13.316 4.88 13.827 8.9.166 16.02" fill="#c6302b"/><path d="m245.97 83.653c-13.662 7.12-84.434 36.22-99.501 44.078-15.067 7.854-23.437 7.777-35.34 2.087-11.903-5.687-87.216-36.113-100.783-42.595-6.78-3.243-10.346-5.976-10.346-8.558v-25.88s98.05-21.343 113.879-27.021c15.828-5.68 21.32-5.884 34.79-.95 13.473 4.935 94.019 19.464 107.331 24.341l-.006 25.512c.002 2.555-3.07 5.361-10.024 8.986" fill="#912626"/><path d="m245.965 57.93c-13.661 7.12-84.431 36.22-99.498 44.074-15.066 7.854-23.436 7.777-35.338 2.09-11.902-5.69-87.214-36.114-100.779-42.597-13.567-6.482-13.85-10.947-.525-16.166 13.326-5.218 88.225-34.601 104.055-40.281 15.828-5.679 21.319-5.883 34.789-.948 13.471 4.935 83.819 32.934 97.13 37.811 13.316 4.876 13.827 8.897.166 16.017" fill="#c6302b"/><path d="m159.283 32.757-22.01 2.285-4.927 11.856-7.958-13.23-25.415-2.284 18.964-6.839-5.69-10.498 17.755 6.944 16.738-5.48-4.524 10.855zm-28.251 57.518-41.077-17.037 58.86-9.035zm-56.95-50.928c17.375 0 31.46 5.46 31.46 12.194 0 6.736-14.085 12.195-31.46 12.195s-31.46-5.46-31.46-12.195c0-6.734 14.085-12.194 31.46-12.194" fill="#fff"/><path d="m185.295 35.998 34.836 13.766-34.806 13.753-.03-27.52" fill="#621b1c"/><path d="m146.755 51.243 38.54-15.245.03 27.519-3.779 1.478z" fill="#9a2928"/></svg>