<svg xmlns="http://www.w3.org/2000/svg" fill-rule="evenodd" stroke-linejoin="round" stroke-miterlimit="2" clip-rule="evenodd" viewBox="0 0 2000 500"><linearGradient id="a" x1="0" x2="1" y1="0" y2="0" gradientTransform="scale(1403.2 496.131)rotate(90 .259 .454)" gradientUnits="userSpaceOnUse"><stop offset="0" stop-color="#590660"/><stop offset=".2" stop-color="#55025b"/><stop offset=".53" stop-color="#4a0050"/><stop offset=".95" stop-color="#38003c"/><stop offset="1" stop-color="#350039"/></linearGradient><linearGradient id="b" x1="0" x2="1" y1="0" y2="0" gradientTransform="rotate(-101.524 495.887 -330.991)scale(150.1701)" gradientUnits="userSpaceOnUse"><stop offset="0" stop-color="#590660"/><stop offset=".19" stop-color="#590660"/><stop offset=".34" stop-color="#55025b"/><stop offset=".59" stop-color="#4a0050"/><stop offset=".92" stop-color="#38003c"/><stop offset=".96" stop-color="#350039"/><stop offset="1" stop-color="#350039"/></linearGradient><linearGradient id="c" x1="0" x2="1" y1="0" y2="0" gradientTransform="rotate(90 581.746 825.573)scale(315.157)" gradientUnits="userSpaceOnUse"><stop offset="0" stop-color="#590660"/><stop offset=".17" stop-color="#55025b"/><stop offset=".44" stop-color="#4a0050"/><stop offset=".79" stop-color="#38003c"/><stop offset=".84" stop-color="#350039"/><stop offset="1" stop-color="#350039"/></linearGradient><linearGradient id="d" x1="0" x2="1" y1="0" y2="0" gradientTransform="rotate(90 639.611 876.748)scale(323.388)" gradientUnits="userSpaceOnUse"><stop offset="0" stop-color="#590660"/><stop offset=".16" stop-color="#590660"/><stop offset=".31" stop-color="#55025b"/><stop offset=".56" stop-color="#4a0050"/><stop offset=".87" stop-color="#38003c"/><stop offset=".91" stop-color="#350039"/><stop offset="1" stop-color="#350039"/></linearGradient><path fill="url(#a)" d="M0 0h2000v499.999H0z"/><g fill-rule="nonzero"><path fill="url(#b)" d="M0 0v317.614L1185.35 0z"/><path fill="#410046" d="M0 331.783v168.216h168.216c0-92.903-75.313-168.216-168.216-168.216m2000-226.824a33 33 0 0 0-4.278.849c-18.762 5.027-23.657 22.641-27.978 38.181-4.42 15.9-7.853 25.755-18.246 28.539-10.393 2.792-18.29-4.033-30.068-15.593-11.51-11.3-24.559-24.107-43.316-19.079-18.761 5.027-23.657 22.641-27.975 38.182-4.419 15.9-7.852 25.754-18.242 28.539s-18.292-4.036-30.068-15.595c-11.51-11.3-24.556-24.101-43.316-19.079-18.76 5.027-23.655 22.641-27.973 38.182-4.419 15.898-7.852 25.753-18.242 28.537-10.386 2.79-18.287-4.035-30.062-15.594-11.508-11.3-24.554-24.11-43.312-19.08-18.76 5.025-23.654 22.64-27.973 38.181-4.419 15.899-7.851 25.754-18.24 28.537-10.394 2.785-18.291-4.034-30.066-15.592-11.512-11.303-24.561-24.111-43.318-19.081-18.76 5.027-23.655 22.642-27.973 38.181-4.419 15.9-7.852 25.754-18.242 28.538-10.386 2.791-18.289-4.035-30.064-15.594-11.51-11.3-24.555-24.11-43.314-19.08-18.76 5.027-23.654 22.642-27.972 38.182-4.418 15.9-7.851 25.755-18.239 28.537-10.391 2.784-18.288-4.036-30.063-15.595-11.51-11.298-24.554-24.098-43.314-19.08-18.759 5.027-23.654 22.641-27.973 38.182-4.417 15.901-7.85 25.754-18.239 28.537-10.386 2.781-18.288-4.035-30.063-15.595-11.509-11.298-24.552-24.098-43.313-19.08-18.76 5.026-23.654 22.641-27.973 38.182-4.418 15.899-7.851 25.754-18.24 28.538-10.389 2.782-18.288-4.038-30.063-15.596-11.51-11.298-24.551-24.1-43.314-19.081-18.757 5.026-23.651 22.641-27.969 38.182-4.417 15.898-7.849 25.753-18.236 28.534-10.379 2.786-18.285-4.034-30.061-15.593-11.51-11.3-24.559-24.11-43.31-19.08-18.758 5.026-23.651 22.64-27.968 38.18-4.417 15.898-7.849 25.752-18.235 28.536-10.39 2.773-18.289-4.037-30.064-15.597-11.509-11.297-24.552-24.1-43.313-19.079-18.759 5.027-23.654 22.641-27.972 38.182-4.419 15.898-7.851 25.755-18.24 28.537-10.392 2.782-18.287-4.035-30.063-15.596-11.51-11.298-24.552-24.1-43.313-19.079-18.761 5.027-23.654 22.64-27.973 38.181a376 376 0 0 1-.996 3.523h14.352c4.395-15.795 7.84-25.589 18.19-28.362 10.384-2.792 18.288 4.035 30.064 15.595 4.494 4.411 9.225 9.047 14.435 12.766h41.032c9.132-7.836 12.636-20.412 15.818-31.868 4.418-15.899 7.851-25.755 18.239-28.538 10.391-2.778 18.289 4.037 30.063 15.596 11.511 11.299 24.559 24.1 43.315 19.08 18.757-5.025 23.65-22.64 27.968-38.181 4.417-15.898 7.848-25.752 18.235-28.535 10.389-2.781 18.286 4.034 30.061 15.592 11.508 11.3 24.552 24.107 43.311 19.081 18.757-5.026 23.65-22.64 27.969-38.18 4.416-15.898 7.848-25.753 18.235-28.535 10.385-2.784 18.288 4.035 30.064 15.595 11.51 11.3 24.552 24.101 43.312 19.08 18.761-5.027 23.655-22.641 27.974-38.182 4.418-15.898 7.85-25.754 18.24-28.536 10.388-2.786 18.287 4.032 30.063 15.594 11.509 11.298 24.556 24.101 43.313 19.08 18.759-5.027 23.654-22.641 27.972-38.182 4.418-15.899 7.851-25.755 18.239-28.536 10.384-2.793 18.288 4.032 30.063 15.595 11.51 11.297 24.554 24.098 43.314 19.079 18.759-5.026 23.653-22.641 27.972-38.181 4.418-15.899 7.85-25.755 18.239-28.538 10.386-2.785 18.288 4.036 30.064 15.594 11.511 11.301 24.553 24.108 43.315 19.079 18.76-5.026 23.654-22.64 27.973-38.181 4.418-15.899 7.85-25.754 18.241-28.537 10.388-2.79 18.291 4.035 30.068 15.594 11.509 11.3 24.551 24.099 43.316 19.08 18.76-5.027 23.654-22.642 27.973-38.183 4.418-15.899 7.851-25.753 18.24-28.536 10.385-2.784 18.287 4.033 30.062 15.594 11.51 11.3 24.563 24.106 43.313 19.079 18.76-5.026 23.655-22.641 27.973-38.181 4.419-15.899 7.851-25.755 18.242-28.537 10.392-2.79 18.289 4.035 30.065 15.594 11.51 11.3 24.559 24.106 43.318 19.08 18.76-5.028 23.655-22.642 27.974-38.183 4.419-15.9 7.852-25.753 18.243-28.539 10.392-2.781 18.291 4.035 30.067 15.595 11.511 11.3 24.554 24.102 43.317 19.078 18.763-5.026 23.658-22.64 27.979-38.181 4.42-15.9 7.853-25.756 18.246-28.539.236-.064.47-.116.703-.17z"/><path fill="#410046" fill-opacity=".5" d="M0 321.797 1200.96 0h-46.122L-.002 309.439v12.358z"/><path fill="url(#c)" d="M2000 499.999V182.385L814.65 499.999z"/><path fill="#c571ae" fill-opacity=".2" d="m747.849 89.933-16.316 4.374L757.842 0h15.096zM672.627 0H657.53l-34.417 123.366 16.318-4.374zm50.156 0h-15.097l-30.362 108.836 16.317-4.374zM622.471 0h-15.097l-38.47 137.896 16.32-4.374zM514.696 152.425l16.319-4.371L572.318 0H557.22zm-54.207 14.532 16.316-4.373L522.163 0h-15.097zM973.561 0h-15.097l-10.096 36.189 16.318-4.374zm50.154 0h-15.097l-6.041 21.657 16.316-4.371zM873.25 0h-15.098l-18.203 65.248 16.319-4.375zm-50.156 0h-15.097l-22.256 79.775 16.317-4.37zm100.312 0h-15.098L894.16 50.716l16.316-4.372zM419.419 8.711l-16.317 4.372-51.032 182.932 16.316-4.372zm-54.207 14.531-16.319 4.372-51.032 182.93 16.319-4.372zM0 253.651 39.957 110.42l-16.316 4.374L0 199.542zM1058.78 0l-1.989 7.127 16.317-4.372.768-2.755zM94.171 95.89l-16.316 4.374-51.033 182.93 16.317-4.374zm312.112 85.595 16.32-4.374L472.011 0h-15.099zM311.008 37.771l-16.316 4.374-51.034 182.93 16.316-4.373zM202.589 66.83l-16.316 4.374-51.034 182.93 16.317-4.373zM81.032 268.662l16.316-4.372 51.033-182.93-16.318 4.371zM256.798 52.301l-16.315 4.374-51.032 182.93 16.315-4.373z"/><path fill="url(#d)" d="M1965.83 210.673c-26.565-26.083-44.393-41.463-67.821-35.182-23.438 6.28-31.181 28.511-41.149 64.379-9.745 35.061-20.786 74.8-63.107 86.142-42.335 11.322-71.757-17.553-97.724-43.045-26.569-26.079-44.395-41.475-67.833-35.181-23.44 6.278-31.183 28.512-41.152 64.38-9.743 35.061-20.787 74.8-63.107 86.136-42.328 11.347-71.751-17.547-97.72-43.042-26.567-26.077-44.395-41.464-67.824-35.183-23.439 6.282-31.181 28.515-41.148 64.383-9.744 35.06-20.785 74.799-63.106 86.139-42.323 11.322-71.75-17.558-97.717-43.045-26.565-26.086-44.395-41.484-67.821-35.183-23.437 6.276-31.182 28.511-41.149 64.38-3.998 14.39-8.222 29.567-14.733 43.248h967.286V240.618c-12.397-8.571-23.575-19.54-34.175-29.945"/><path fill="#410046" d="M37.971 372.851c-10.572 0-19.869-7.139-22.609-17.361a23.26 23.26 0 0 1 2.339-17.77c3.127-5.417 8.178-9.291 14.22-10.91a23.5 23.5 0 0 1 6.072-.802c10.572 0 19.868 7.139 22.608 17.36 1.62 6.042.788 12.352-2.339 17.77-3.129 5.417-8.178 9.292-14.22 10.911-1.987.532-4.03.802-6.071.802m.022-35.571c-1.057 0-2.119.141-3.155.419a12.06 12.06 0 0 0-7.374 5.657 12.07 12.07 0 0 0-1.213 9.216c1.421 5.302 6.24 9.006 11.719 9.006 1.057 0 2.118-.14 3.154-.418a12.06 12.06 0 0 0 7.374-5.659 12.06 12.06 0 0 0 1.213-9.215c-1.42-5.302-6.239-9.006-11.718-9.006m87.555 12.105c-10.573 0-19.869-7.139-22.608-17.36a23.27 23.27 0 0 1 2.339-17.77 23.26 23.26 0 0 1 14.219-10.911 23.5 23.5 0 0 1 6.071-.803c10.572 0 19.87 7.139 22.609 17.36 3.341 12.473-4.086 25.34-16.559 28.68a23.4 23.4 0 0 1-6.071.804m.023-35.571c-1.058 0-2.119.141-3.155.418a12.07 12.07 0 0 0-7.374 5.659 12.07 12.07 0 0 0-1.213 9.217c1.42 5.301 6.239 9.004 11.719 9.004 1.057 0 2.118-.141 3.154-.418 6.468-1.733 10.32-8.406 8.588-14.874-1.421-5.303-6.24-9.006-11.719-9.006m87.553 12.103c-10.571 0-19.868-7.139-22.606-17.359-3.341-12.472 4.086-25.339 16.557-28.68a23.5 23.5 0 0 1 6.073-.803c10.572 0 19.869 7.139 22.608 17.36a23.26 23.26 0 0 1-2.34 17.77 23.26 23.26 0 0 1-14.219 10.91c-1.987.533-4.03.802-6.073.802m.024-35.569c-1.058 0-2.118.141-3.154.418-6.467 1.734-10.319 8.406-8.587 14.874 1.421 5.303 6.24 9.005 11.718 9.005 1.058 0 2.119-.141 3.155-.418 3.134-.84 5.753-2.849 7.375-5.658s2.053-6.083 1.214-9.217c-1.423-5.301-6.242-9.004-11.721-9.004m87.554 12.103c-10.572 0-19.869-7.139-22.607-17.361a23.26 23.26 0 0 1 2.339-17.769 23.27 23.27 0 0 1 14.218-10.91 23.5 23.5 0 0 1 6.074-.802c10.573 0 19.869 7.139 22.609 17.361 3.341 12.472-4.087 25.337-16.559 28.679a23.5 23.5 0 0 1-6.074.802m.024-35.57c-1.057 0-2.119.141-3.155.419a12.06 12.06 0 0 0-7.375 5.659 12.07 12.07 0 0 0-1.213 9.214c1.421 5.304 6.24 9.006 11.719 9.006 1.058 0 2.12-.141 3.156-.419 6.468-1.732 10.32-8.405 8.587-14.873-1.42-5.302-6.24-9.006-11.719-9.006m87.554 12.105c-10.572 0-19.868-7.139-22.608-17.361a23.26 23.26 0 0 1 2.339-17.769 23.27 23.27 0 0 1 14.219-10.911 23.5 23.5 0 0 1 6.072-.802c10.573 0 19.869 7.139 22.609 17.362a23.27 23.27 0 0 1-2.339 17.769c-3.129 5.416-8.178 9.291-14.22 10.909-1.986.533-4.03.803-6.072.803m.023-35.571c-1.057 0-2.118.141-3.154.418a12.07 12.07 0 0 0-7.374 5.659 12.07 12.07 0 0 0-1.213 9.216c1.42 5.302 6.239 9.005 11.719 9.005 1.057 0 2.119-.141 3.154-.418a12.06 12.06 0 0 0 7.374-5.659 12.06 12.06 0 0 0 1.213-9.214c-1.421-5.304-6.24-9.007-11.719-9.007m87.555 12.105c-10.573 0-19.869-7.139-22.608-17.361a23.26 23.26 0 0 1 2.34-17.769 23.26 23.26 0 0 1 14.219-10.91 23.5 23.5 0 0 1 6.073-.803c10.571 0 19.868 7.139 22.607 17.361 3.341 12.471-4.086 25.337-16.557 28.679a23.5 23.5 0 0 1-6.074.803m.024-35.571a12.2 12.2 0 0 0-3.154.418 12.07 12.07 0 0 0-7.376 5.658 12.07 12.07 0 0 0-1.213 9.215c1.42 5.303 6.239 9.006 11.719 9.006 1.057 0 2.119-.141 3.155-.418 6.467-1.734 10.32-8.406 8.588-14.873-1.422-5.302-6.241-9.006-11.719-9.006m87.554 12.103c-10.572 0-19.869-7.139-22.608-17.36-3.342-12.47 4.086-25.337 16.557-28.679a23.4 23.4 0 0 1 6.074-.803c10.571 0 19.868 7.139 22.607 17.361a23.26 23.26 0 0 1-2.339 17.769 23.26 23.26 0 0 1-14.218 10.911 23.5 23.5 0 0 1-6.073.801m.023-35.569c-1.058 0-2.119.141-3.155.418-6.469 1.734-10.32 8.406-8.588 14.874 1.42 5.303 6.241 9.005 11.719 9.005 1.058 0 2.118-.141 3.154-.418 3.133-.84 5.753-2.85 7.375-5.659s2.053-6.082 1.213-9.215c-1.421-5.302-6.24-9.005-11.718-9.005m87.556 12.104c-10.574 0-19.871-7.139-22.61-17.361a23.26 23.26 0 0 1 2.339-17.769 23.26 23.26 0 0 1 14.221-10.911 23.5 23.5 0 0 1 6.072-.801c10.571 0 19.867 7.138 22.607 17.357 3.342 12.475-4.087 25.341-16.559 28.683a23.4 23.4 0 0 1-6.07.802m.022-35.569c-1.057 0-2.119.14-3.155.418a12.07 12.07 0 0 0-7.376 5.657 12.07 12.07 0 0 0-1.213 9.216c1.421 5.303 6.241 9.006 11.72 9.006a12.2 12.2 0 0 0 3.153-.419c6.469-1.733 10.322-8.407 8.589-14.876-1.42-5.301-6.239-9.002-11.718-9.002m87.554 12.103c-10.573 0-19.869-7.139-22.608-17.362a23.26 23.26 0 0 1 2.338-17.768c3.127-5.418 8.178-9.292 14.22-10.912a23.5 23.5 0 0 1 6.071-.802c10.573 0 19.869 7.139 22.61 17.36 3.342 12.474-4.088 25.34-16.559 28.681a23.5 23.5 0 0 1-6.072.803m.021-35.571c-1.057 0-2.119.141-3.154.418a12.07 12.07 0 0 0-7.375 5.659 12.06 12.06 0 0 0-1.212 9.216c1.42 5.303 6.238 9.006 11.719 9.006 1.057 0 2.119-.14 3.155-.418 6.468-1.732 10.32-8.406 8.587-14.875-1.42-5.303-6.239-9.006-11.72-9.006m87.556 12.105c-10.574 0-19.87-7.14-22.609-17.362-1.619-6.04-.787-12.351 2.34-17.768 3.125-5.417 8.176-9.291 14.217-10.911a23.5 23.5 0 0 1 6.074-.803c10.572 0 19.869 7.139 22.609 17.361a23.27 23.27 0 0 1-2.34 17.77 23.26 23.26 0 0 1-14.22 10.91c-1.987.532-4.03.803-6.071.803m.024-35.571c-1.058 0-2.12.141-3.157.418-3.132.84-5.752 2.85-7.373 5.659s-2.053 6.082-1.213 9.213c1.421 5.304 6.239 9.008 11.719 9.008 1.057 0 2.118-.141 3.154-.418a12.07 12.07 0 0 0 7.375-5.658 12.07 12.07 0 0 0 1.213-9.216c-1.421-5.303-6.24-9.006-11.718-9.006m87.555 12.104c-10.573 0-19.871-7.139-22.61-17.362a23.27 23.27 0 0 1 2.34-17.769 23.26 23.26 0 0 1 14.218-10.908 23.4 23.4 0 0 1 6.074-.803c10.571 0 19.868 7.139 22.607 17.36 3.34 12.472-4.087 25.339-16.557 28.681-1.988.531-4.03.801-6.072.801m.022-35.57c-1.058 0-2.119.14-3.157.418a12.06 12.06 0 0 0-7.373 5.658 12.06 12.06 0 0 0-1.213 9.215c1.42 5.303 6.239 9.006 11.72 9.006 1.058 0 2.12-.141 3.155-.419 6.465-1.732 10.317-8.406 8.585-14.875-1.42-5.3-6.239-9.003-11.717-9.003m87.551 12.103c-10.571 0-19.868-7.139-22.606-17.361-3.341-12.471 4.086-25.338 16.558-28.679a23.5 23.5 0 0 1 6.074-.802c10.571 0 19.868 7.139 22.606 17.361a23.26 23.26 0 0 1-2.339 17.769 23.26 23.26 0 0 1-14.219 10.909c-1.988.534-4.03.803-6.074.803m.027-35.57c-1.057 0-2.12.141-3.156.419a12.06 12.06 0 0 0-7.375 5.658 12.07 12.07 0 0 0-1.212 9.216c1.421 5.302 6.239 9.004 11.717 9.004 1.058 0 2.119-.141 3.155-.418a12.06 12.06 0 0 0 7.376-5.658 12.06 12.06 0 0 0 1.212-9.215c-1.422-5.303-6.239-9.006-11.717-9.006m87.553 12.104c-10.573 0-19.869-7.139-22.609-17.36-3.341-12.472 4.086-25.339 16.559-28.68a23.4 23.4 0 0 1 6.072-.803c10.573 0 19.869 7.139 22.609 17.361a23.27 23.27 0 0 1-2.34 17.769 23.26 23.26 0 0 1-14.219 10.911c-1.986.531-4.03.802-6.072.802m.023-35.57c-1.057 0-2.118.141-3.154.418-6.468 1.734-10.321 8.406-8.587 14.875 1.42 5.301 6.239 9.004 11.719 9.004 1.057 0 2.119-.141 3.155-.418a12.07 12.07 0 0 0 7.374-5.658 12.07 12.07 0 0 0 1.212-9.215c-1.42-5.303-6.24-9.006-11.719-9.006m87.557 12.103c-10.572 0-19.867-7.138-22.608-17.359-3.341-12.472 4.087-25.338 16.558-28.68a23.5 23.5 0 0 1 6.072-.803c10.572 0 19.868 7.139 22.609 17.36 3.341 12.472-4.088 25.339-16.559 28.68a23.5 23.5 0 0 1-6.072.802m.022-35.569c-1.057 0-2.119.141-3.155.418-6.467 1.734-10.319 8.406-8.586 14.874 1.421 5.302 6.239 9.005 11.719 9.005 1.057 0 2.119-.141 3.155-.418 6.467-1.734 10.32-8.406 8.587-14.875-1.421-5.301-6.24-9.004-11.72-9.004"/><path fill="#590660" d="M935.744 485.387c-9.519 0-17.888-6.427-20.354-15.63-3.009-11.231 3.679-22.815 14.908-25.823 1.791-.48 3.63-.723 5.468-.723 9.518 0 17.888 6.428 20.354 15.631 3.008 11.23-3.68 22.814-14.908 25.823-1.79.479-3.63.722-5.468.722m.023-37.554c-1.435 0-2.872.189-4.273.565-8.767 2.349-13.989 11.394-11.639 20.163 1.925 7.186 8.459 12.204 15.889 12.204 1.434 0 2.871-.19 4.272-.565 8.767-2.35 13.989-11.394 11.64-20.163-1.925-7.186-8.46-12.204-15.889-12.204m92.433 12.779c-9.517 0-17.886-6.428-20.352-15.632-3.008-11.229 3.68-22.813 14.908-25.822a21 21 0 0 1 5.469-.723c9.518 0 17.887 6.428 20.353 15.631a20.94 20.94 0 0 1-2.107 15.999 20.94 20.94 0 0 1-12.802 9.823c-1.79.48-3.631.724-5.469.724m.025-37.555c-1.434 0-2.872.19-4.273.566-8.766 2.349-13.988 11.394-11.64 20.162 1.925 7.186 8.459 12.205 15.887 12.205 1.435 0 2.873-.19 4.274-.566a16.35 16.35 0 0 0 9.996-7.67 16.35 16.35 0 0 0 1.644-12.492c-1.925-7.186-8.458-12.205-15.888-12.205m92.445 12.779c-9.517 0-17.885-6.428-20.352-15.632a20.94 20.94 0 0 1 2.107-15.997 20.95 20.95 0 0 1 12.802-9.824 21.2 21.2 0 0 1 5.468-.722c9.519 0 17.888 6.427 20.355 15.63a20.95 20.95 0 0 1-2.107 15.998 20.94 20.94 0 0 1-12.802 9.823c-1.791.48-3.632.724-5.471.724m.025-37.554c-1.434 0-2.872.19-4.272.566a16.35 16.35 0 0 0-9.995 7.67 16.35 16.35 0 0 0-1.645 12.49c1.926 7.187 8.458 12.206 15.887 12.206 1.435 0 2.874-.19 4.275-.566a16.35 16.35 0 0 0 9.995-7.67 16.35 16.35 0 0 0 1.645-12.491c-1.925-7.186-8.46-12.205-15.89-12.205m95.935 9.607c-9.518 0-17.888-6.427-20.354-15.63-3.008-11.23 3.679-22.814 14.908-25.823a21.2 21.2 0 0 1 5.468-.722c9.518 0 17.888 6.427 20.354 15.63 3.008 11.23-3.68 22.814-14.908 25.823-1.79.479-3.63.722-5.468.722m.023-37.554c-1.435 0-2.872.19-4.273.566-8.767 2.348-13.988 11.393-11.639 20.162 1.925 7.186 8.459 12.205 15.889 12.205 1.435 0 2.872-.19 4.273-.566 8.766-2.349 13.988-11.394 11.639-20.162-1.925-7.186-8.459-12.205-15.889-12.205m92.437 12.779c-9.517 0-17.885-6.428-20.351-15.631-3.008-11.23 3.679-22.813 14.908-25.823 1.79-.479 3.63-.722 5.468-.722 9.519 0 17.888 6.427 20.353 15.63a20.94 20.94 0 0 1-2.107 16 20.95 20.95 0 0 1-12.802 9.823c-1.79.479-3.63.723-5.469.723m.025-37.555c-1.434 0-2.872.191-4.272.566-8.767 2.349-13.989 11.394-11.641 20.162 1.926 7.186 8.459 12.206 15.888 12.206 1.434 0 2.872-.191 4.273-.566 4.247-1.138 7.797-3.862 9.996-7.67s2.783-8.245 1.645-12.492c-1.925-7.187-8.459-12.206-15.889-12.206m92.445 12.779c-9.517 0-17.886-6.428-20.352-15.631a20.95 20.95 0 0 1 2.106-15.998 20.95 20.95 0 0 1 12.802-9.824 21.2 21.2 0 0 1 5.469-.722c9.518 0 17.887 6.428 20.354 15.63 1.457 5.44.709 11.122-2.107 15.999s-7.362 8.366-12.801 9.823c-1.791.48-3.632.723-5.471.723m.025-37.554c-1.435 0-2.872.19-4.273.566a16.35 16.35 0 0 0-9.995 7.67 16.35 16.35 0 0 0-1.645 12.491c1.926 7.186 8.459 12.205 15.888 12.205 1.434 0 2.873-.19 4.274-.566a16.35 16.35 0 0 0 9.995-7.67 16.35 16.35 0 0 0 1.645-12.491c-1.925-7.186-8.459-12.205-15.889-12.205m90.375 11.308c-9.519 0-17.889-6.428-20.354-15.63-3.009-11.231 3.678-22.815 14.907-25.824a21.2 21.2 0 0 1 5.469-.722c9.517 0 17.887 6.427 20.354 15.63 3.007 11.23-3.68 22.814-14.908 25.824-1.79.479-3.63.722-5.468.722m.022-37.555c-1.434 0-2.872.19-4.272.566-8.768 2.349-13.989 11.394-11.64 20.162 1.926 7.186 8.46 12.205 15.89 12.205 1.434 0 2.871-.19 4.272-.565 8.766-2.35 13.989-11.395 11.64-20.163-1.926-7.186-8.46-12.205-15.89-12.205m92.438 12.78c-9.516 0-17.885-6.428-20.351-15.632-3.008-11.229 3.68-22.813 14.908-25.822a21 21 0 0 1 5.469-.723c9.518 0 17.887 6.428 20.353 15.631 1.457 5.44.709 11.122-2.107 15.999s-7.363 8.366-12.802 9.823c-1.791.48-3.631.724-5.47.724m.026-37.555c-1.435 0-2.872.19-4.273.566-8.767 2.349-13.989 11.394-11.64 20.162 1.925 7.186 8.458 12.205 15.887 12.205 1.435 0 2.872-.19 4.273-.566a16.35 16.35 0 0 0 9.996-7.67 16.35 16.35 0 0 0 1.645-12.492c-1.925-7.186-8.459-12.205-15.888-12.205m92.434 12.779c-9.517 0-17.886-6.428-20.352-15.632a20.95 20.95 0 0 1 2.107-15.998 20.95 20.95 0 0 1 12.802-9.823 21.2 21.2 0 0 1 5.468-.722c9.518 0 17.888 6.427 20.354 15.63a20.95 20.95 0 0 1-2.106 15.998 20.94 20.94 0 0 1-12.802 9.823c-1.791.48-3.632.724-5.471.724m.025-37.554c-1.435 0-2.872.19-4.272.566a16.35 16.35 0 0 0-9.996 7.669 16.36 16.36 0 0 0-1.645 12.491c1.926 7.187 8.459 12.206 15.888 12.206a16.5 16.5 0 0 0 4.274-.566c4.248-1.138 7.798-3.862 9.996-7.67s2.783-8.245 1.645-12.491c-1.926-7.186-8.46-12.205-15.89-12.205m95.945 9.607c-9.519 0-17.888-6.427-20.354-15.63-3.009-11.231 3.678-22.815 14.907-25.823a21 21 0 0 1 5.469-.723c9.518 0 17.888 6.428 20.354 15.631 3.008 11.23-3.68 22.814-14.908 25.823-1.79.479-3.63.722-5.468.722m.022-37.554c-1.434 0-2.872.19-4.272.565-8.767 2.349-13.989 11.394-11.639 20.163 1.925 7.186 8.459 12.205 15.889 12.205 1.434 0 2.871-.19 4.272-.566 8.767-2.349 13.989-11.394 11.64-20.163-1.925-7.186-8.46-12.204-15.89-12.204m92.438 12.779c-9.517 0-17.886-6.428-20.352-15.631-3.008-11.23 3.68-22.814 14.908-25.823a21 21 0 0 1 5.469-.723c9.518 0 17.887 6.428 20.353 15.631a20.95 20.95 0 0 1-2.107 15.999 20.95 20.95 0 0 1-12.802 9.824c-1.79.479-3.631.723-5.469.723m.025-37.555c-1.435 0-2.872.191-4.273.566-8.766 2.349-13.988 11.394-11.64 20.162 1.925 7.186 8.459 12.206 15.887 12.206 1.435 0 2.873-.191 4.273-.567a16.35 16.35 0 0 0 9.996-7.669 16.36 16.36 0 0 0 1.645-12.493c-1.925-7.186-8.458-12.205-15.888-12.205m92.435 12.779c-9.517 0-17.885-6.428-20.352-15.631a20.95 20.95 0 0 1 2.107-15.998 20.95 20.95 0 0 1 12.802-9.824 21.2 21.2 0 0 1 5.468-.722c9.518 0 17.888 6.427 20.355 15.63a20.95 20.95 0 0 1-2.107 15.998 20.95 20.95 0 0 1-12.802 9.824 21.2 21.2 0 0 1-5.471.723m.025-37.554c-1.434 0-2.872.19-4.272.566a16.35 16.35 0 0 0-9.996 7.67 16.35 16.35 0 0 0-1.644 12.49c1.925 7.187 8.458 12.206 15.887 12.206 1.435 0 2.874-.19 4.275-.566a16.35 16.35 0 0 0 9.995-7.67 16.35 16.35 0 0 0 1.645-12.491c-1.925-7.186-8.46-12.205-15.89-12.205"/><path fill="#fff" d="M855.962 227.494c0-17.393 14.116-31.508 31.508-31.508h27.007c7.408 0 13.504 6.095 13.504 13.503s-6.096 13.504-13.504 13.504H887.47c-2.469 0-4.501 2.032-4.501 4.501V362.53a4.5 4.5 0 0 0 4.501 4.501h135.036c2.469 0 4.501-2.032 4.501-4.501v-27.007c0-7.408 6.096-13.504 13.504-13.504s13.503 6.096 13.503 13.504v27.007c0 17.285-14.223 31.508-31.508 31.508H887.47c-17.285 0-31.508-14.223-31.508-31.508z"/><path fill="#fff" d="M945.986 137.47c0-17.392 14.115-31.508 31.508-31.508h135.036c17.392 0 31.508 14.116 31.508 31.508v135.036c0 17.285-14.223 31.508-31.508 31.508H977.494c-17.285 0-31.508-14.223-31.508-31.508zm31.508-4.501c-2.469 0-4.501 2.032-4.501 4.501v135.036a4.5 4.5 0 0 0 4.501 4.501h135.036c2.469 0 4.501-2.032 4.501-4.501V137.47c0-2.469-2.032-4.501-4.501-4.501zM551.4 237.748c0-9.468 7.684-17.153 17.153-17.153h14.702c4.033 0 7.351 3.319 7.351 7.351 0 4.033-3.318 7.352-7.351 7.352h-14.702a2.46 2.46 0 0 0-2.451 2.45v73.512a2.45 2.45 0 0 0 2.451 2.45h73.511a2.46 2.46 0 0 0 2.451-2.45v-14.703c0-4.032 3.318-7.351 7.351-7.351s7.351 3.319 7.351 7.351v14.703c0 9.41-7.743 17.153-17.153 17.153h-73.511c-9.41 0-17.153-7.743-17.153-17.153z"/><path fill="#fff" d="M600.408 188.74c0-9.468 7.684-17.153 17.152-17.153h73.512c9.468 0 17.153 7.685 17.153 17.153v73.512c0 9.41-7.743 17.153-17.153 17.153H617.56c-9.409 0-17.152-7.743-17.152-17.153zm17.152-2.45a2.46 2.46 0 0 0-2.45 2.45v73.512a2.45 2.45 0 0 0 2.45 2.45h73.512a2.463 2.463 0 0 0 2.451-2.45V188.74a2.463 2.463 0 0 0-2.451-2.45zm685.45 51.458c0-9.468 7.685-17.153 17.153-17.153h14.702c4.033 0 7.352 3.319 7.352 7.351 0 4.033-3.319 7.352-7.352 7.352h-14.702a2.46 2.46 0 0 0-2.45 2.45v73.512a2.45 2.45 0 0 0 2.45 2.45h73.512a2.46 2.46 0 0 0 2.45-2.45v-14.703c0-4.032 3.319-7.351 7.351-7.351 4.033 0 7.352 3.319 7.352 7.351v14.703c0 9.41-7.743 17.153-17.153 17.153h-73.512c-9.41 0-17.153-7.743-17.153-17.153z"/><path fill="#fff" d="M1352.02 188.74c0-9.468 7.685-17.153 17.153-17.153h73.512c9.468 0 17.152 7.685 17.152 17.153v73.512c0 9.41-7.743 17.153-17.152 17.153h-73.512c-9.41 0-17.153-7.743-17.153-17.153zm17.153-2.45a2.46 2.46 0 0 0-2.45 2.45v73.512a2.45 2.45 0 0 0 2.45 2.45h73.512a2.46 2.46 0 0 0 2.45-2.45V188.74a2.46 2.46 0 0 0-2.45-2.45z"/></g></svg>
