<svg clip-rule="evenodd" fill-rule="evenodd" stroke-linejoin="round" stroke-miterlimit="2" viewBox="0 0 2000 500" xmlns="http://www.w3.org/2000/svg" xmlns:xlink="http://www.w3.org/1999/xlink"><linearGradient id="a" gradientTransform="matrix(0 496.131 -1403.2 0 999.999 96.7253)" gradientUnits="userSpaceOnUse" x1="0" x2="1" y1="0" y2="0"><stop offset="0" stop-color="#590660"/><stop offset=".2" stop-color="#55025b"/><stop offset=".53" stop-color="#4a0050"/><stop offset=".95" stop-color="#38003c"/><stop offset="1" stop-color="#350039"/></linearGradient><linearGradient id="b" gradientTransform="matrix(-29.9999 -147.143 147.143 -29.9999 919.271 88.7763)" gradientUnits="userSpaceOnUse" x1="0" x2="1" y1="0" y2="0"><stop offset="0" stop-color="#590660"/><stop offset=".19" stop-color="#590660"/><stop offset=".34" stop-color="#55025b"/><stop offset=".59" stop-color="#4a0050"/><stop offset=".92" stop-color="#38003c"/><stop offset=".96" stop-color="#350039"/><stop offset="1" stop-color="#350039"/></linearGradient><linearGradient id="c" gradientTransform="matrix(0 315.157 -315.157 0 1407.32 243.827)" gradientUnits="userSpaceOnUse" x1="0" x2="1" y1="0" y2="0"><stop offset="0" stop-color="#590660"/><stop offset=".17" stop-color="#55025b"/><stop offset=".44" stop-color="#4a0050"/><stop offset=".79" stop-color="#38003c"/><stop offset=".84" stop-color="#350039"/><stop offset="1" stop-color="#350039"/></linearGradient><linearGradient id="d" gradientTransform="matrix(0 323.388 -323.388 0 1516.36 237.137)" gradientUnits="userSpaceOnUse" x1="0" x2="1" y1="0" y2="0"><stop offset="0" stop-color="#590660"/><stop offset=".16" stop-color="#590660"/><stop offset=".31" stop-color="#55025b"/><stop offset=".56" stop-color="#4a0050"/><stop offset=".87" stop-color="#38003c"/><stop offset=".91" stop-color="#350039"/><stop offset="1" stop-color="#350039"/></linearGradient><path d="m0 0h2000v499.999h-2000z" fill="url(#a)"/><g fill-rule="nonzero"><path d="m0 0v317.614l1185.35-317.614z" fill="url(#b)"/><path d="m0 331.783v168.216h168.216c0-92.903-75.313-168.216-168.216-168.216z" fill="#410046"/><path d="m2000 104.959c-1.394.185-2.817.457-4.278.849-18.762 5.027-23.657 22.641-27.978 38.181-4.42 15.9-7.853 25.755-18.246 28.539-10.393 2.792-18.29-4.033-30.068-15.593-11.51-11.3-24.559-24.107-43.316-19.079-18.761 5.027-23.657 22.641-27.975 38.182-4.419 15.9-7.852 25.754-18.242 28.539-10.391 2.786-18.292-4.036-30.068-15.595-11.51-11.3-24.556-24.101-43.316-19.079-18.76 5.027-23.655 22.641-27.973 38.182-4.419 15.898-7.852 25.753-18.242 28.537-10.386 2.79-18.287-4.035-30.062-15.594-11.508-11.3-24.554-24.11-43.312-19.08-18.76 5.025-23.654 22.64-27.973 38.181-4.419 15.899-7.851 25.754-18.24 28.537-10.394 2.785-18.291-4.034-30.066-15.592-11.512-11.303-24.561-24.111-43.318-19.081-18.76 5.027-23.655 22.642-27.973 38.181-4.419 15.9-7.852 25.754-18.242 28.538-10.386 2.791-18.289-4.035-30.064-15.594-11.51-11.3-24.555-24.11-43.314-19.08-18.76 5.027-23.654 22.642-27.972 38.182-4.418 15.9-7.851 25.755-18.239 28.537-10.391 2.784-18.288-4.036-30.063-15.595-11.51-11.298-24.554-24.098-43.314-19.08-18.759 5.027-23.654 22.641-27.973 38.182-4.417 15.901-7.85 25.754-18.239 28.537-10.386 2.781-18.288-4.035-30.063-15.595-11.509-11.298-24.552-24.098-43.313-19.08-18.76 5.026-23.654 22.641-27.973 38.182-4.418 15.899-7.851 25.754-18.24 28.538-10.389 2.782-18.288-4.038-30.063-15.596-11.51-11.298-24.551-24.1-43.314-19.081-18.757 5.026-23.651 22.641-27.969 38.182-4.417 15.898-7.849 25.753-18.236 28.534-10.379 2.786-18.285-4.034-30.061-15.593-11.51-11.3-24.559-24.11-43.31-19.08-18.758 5.026-23.651 22.64-27.968 38.18-4.417 15.898-7.849 25.752-18.235 28.536-10.39 2.773-18.289-4.037-30.064-15.597-11.509-11.297-24.552-24.1-43.313-19.079-18.759 5.027-23.654 22.641-27.972 38.182-4.419 15.898-7.851 25.755-18.24 28.537-10.392 2.782-18.287-4.035-30.063-15.596-11.51-11.298-24.552-24.1-43.313-19.079-18.761 5.027-23.654 22.64-27.973 38.181-.337 1.212-.667 2.383-.996 3.523h14.352c4.395-15.795 7.84-25.589 18.19-28.362 10.384-2.792 18.288 4.035 30.064 15.595 4.494 4.411 9.225 9.047 14.435 12.766h41.032c9.132-7.836 12.636-20.412 15.818-31.868 4.418-15.899 7.851-25.755 18.239-28.538 10.391-2.778 18.289 4.037 30.063 15.596 11.511 11.299 24.559 24.1 43.315 19.08 18.757-5.025 23.65-22.64 27.968-38.181 4.417-15.898 7.848-25.752 18.235-28.535 10.389-2.781 18.286 4.034 30.061 15.592 11.508 11.3 24.552 24.107 43.311 19.081 18.757-5.026 23.65-22.64 27.969-38.18 4.416-15.898 7.848-25.753 18.235-28.535 10.385-2.784 18.288 4.035 30.064 15.595 11.51 11.3 24.552 24.101 43.312 19.08 18.761-5.027 23.655-22.641 27.974-38.182 4.418-15.898 7.85-25.754 18.24-28.536 10.388-2.786 18.287 4.032 30.063 15.594 11.509 11.298 24.556 24.101 43.313 19.08 18.759-5.027 23.654-22.641 27.972-38.182 4.418-15.899 7.851-25.755 18.239-28.536 10.384-2.793 18.288 4.032 30.063 15.595 11.51 11.297 24.554 24.098 43.314 19.079 18.759-5.026 23.653-22.641 27.972-38.181 4.418-15.899 7.85-25.755 18.239-28.538 10.386-2.785 18.288 4.036 30.064 15.594 11.511 11.301 24.553 24.108 43.315 19.079 18.76-5.026 23.654-22.64 27.973-38.181 4.418-15.899 7.85-25.754 18.241-28.537 10.388-2.79 18.291 4.035 30.068 15.594 11.509 11.3 24.551 24.099 43.316 19.08 18.76-5.027 23.654-22.642 27.973-38.183 4.418-15.899 7.851-25.753 18.24-28.536 10.385-2.784 18.287 4.033 30.062 15.594 11.51 11.3 24.563 24.106 43.313 19.079 18.76-5.026 23.655-22.641 27.973-38.181 4.419-15.899 7.851-25.755 18.242-28.537 10.392-2.79 18.289 4.035 30.065 15.594 11.51 11.3 24.559 24.106 43.318 19.08 18.76-5.028 23.655-22.642 27.974-38.183 4.419-15.9 7.852-25.753 18.243-28.539 10.392-2.781 18.291 4.035 30.067 15.595 11.511 11.3 24.554 24.102 43.317 19.078 18.763-5.026 23.658-22.64 27.979-38.181 4.42-15.9 7.853-25.756 18.246-28.539.236-.064.47-.116.703-.17v-14.02z" fill="#410046"/><path d="m0 321.797 1200.96-321.797h-46.122l-1154.84 309.439v12.358z" fill="#410046" fill-opacity=".5"/><path d="m2000 499.999v-317.614l-1185.35 317.614z" fill="url(#c)"/><path d="m747.849 89.933-16.316 4.374 26.309-94.307h15.096zm-75.222-89.933h-15.097l-34.417 123.366 16.318-4.374zm50.156 0h-15.097l-30.362 108.836 16.317-4.374zm-100.312 0h-15.097l-38.47 137.896 16.32-4.374zm-107.775 152.425 16.319-4.371 41.303-148.054h-15.098zm-54.207 14.532 16.316-4.373 45.358-162.584h-15.097zm513.072-166.957h-15.097l-10.096 36.189 16.318-4.374zm50.154 0h-15.097l-6.041 21.657 16.316-4.371zm-150.465 0h-15.098l-18.203 65.248 16.319-4.375 16.982-60.873zm-50.156 0h-15.097l-22.256 79.775 16.317-4.37zm100.312 0h-15.098l-14.148 50.716 16.316-4.372zm-503.987 8.711-16.317 4.372-51.032 182.932 16.316-4.372 51.033-182.932zm-54.207 14.531-16.319 4.372-51.032 182.93 16.319-4.372zm-365.212 230.409 39.957-143.231-16.316 4.374-23.641 84.748v54.109zm1058.78-253.651-1.989 7.127 16.317-4.372.768-2.755zm-964.609 95.89-16.316 4.374-51.033 182.93 16.317-4.374zm312.112 85.595 16.32-4.374 49.408-177.111h-15.099zm-95.275-143.714-16.316 4.374-51.034 182.93 16.316-4.373zm-108.419 29.059-16.316 4.374-51.034 182.93 16.317-4.373zm-121.557 201.832 16.316-4.372 51.033-182.93-16.318 4.371zm175.766-216.361-16.315 4.374-51.032 182.93 16.315-4.373z" fill="#c571ae" fill-opacity=".2"/><path d="m1965.83 210.673c-26.565-26.083-44.393-41.463-67.821-35.182-23.438 6.28-31.181 28.511-41.149 64.379-9.745 35.061-20.786 74.8-63.107 86.142-42.335 11.322-71.757-17.553-97.724-43.045-26.569-26.079-44.395-41.475-67.833-35.181-23.44 6.278-31.183 28.512-41.152 64.38-9.743 35.061-20.787 74.8-63.107 86.136-42.328 11.347-71.751-17.547-97.72-43.042-26.567-26.077-44.395-41.464-67.824-35.183-23.439 6.282-31.181 28.515-41.148 64.383-9.744 35.06-20.785 74.799-63.106 86.139-42.323 11.322-71.75-17.558-97.717-43.045-26.565-26.086-44.395-41.484-67.821-35.183-23.437 6.276-31.182 28.511-41.149 64.38-3.998 14.39-8.222 29.567-14.733 43.248h967.286v-259.381c-12.397-8.571-23.575-19.54-34.175-29.945z" fill="url(#d)"/><path d="m37.971 372.851c-10.572 0-19.869-7.139-22.609-17.361-1.62-6.042-.789-12.352 2.339-17.77 3.127-5.417 8.178-9.291 14.22-10.91 1.987-.532 4.03-.802 6.072-.802 10.572 0 19.868 7.139 22.608 17.36 1.62 6.042.788 12.352-2.339 17.77-3.129 5.417-8.178 9.292-14.22 10.911-1.987.532-4.03.802-6.071.802zm.022-35.571c-1.057 0-2.119.141-3.155.419-3.134.839-5.752 2.848-7.374 5.657-1.621 2.809-2.053 6.082-1.213 9.216 1.421 5.302 6.24 9.006 11.719 9.006 1.057 0 2.118-.14 3.154-.418 3.134-.84 5.752-2.848 7.374-5.659 1.622-2.81 2.053-6.082 1.213-9.215-1.42-5.302-6.239-9.006-11.718-9.006z" fill="#410046"/><path d="m125.548 349.385c-10.573 0-19.869-7.139-22.608-17.36-1.619-6.042-.788-12.353 2.339-17.77 3.127-5.418 8.177-9.292 14.219-10.911 1.987-.532 4.03-.803 6.071-.803 10.572 0 19.87 7.139 22.609 17.36 3.341 12.473-4.086 25.34-16.559 28.68-1.986.533-4.028.804-6.071.804zm.023-35.571c-1.058 0-2.119.141-3.155.418-3.133.84-5.752 2.849-7.374 5.659-1.622 2.809-2.053 6.083-1.213 9.217 1.42 5.301 6.239 9.004 11.719 9.004 1.057 0 2.118-.141 3.154-.418 6.468-1.733 10.32-8.406 8.588-14.874-1.421-5.303-6.24-9.006-11.719-9.006z" fill="#410046"/><path d="m213.124 325.917c-10.571 0-19.868-7.139-22.606-17.359-3.341-12.472 4.086-25.339 16.557-28.68 1.988-.532 4.03-.803 6.073-.803 10.572 0 19.869 7.139 22.608 17.36 1.619 6.042.788 12.354-2.34 17.77-3.128 5.418-8.177 9.292-14.219 10.91-1.987.533-4.03.802-6.073.802zm.024-35.569c-1.058 0-2.118.141-3.154.418-6.467 1.734-10.319 8.406-8.587 14.874 1.421 5.303 6.24 9.005 11.718 9.005 1.058 0 2.119-.141 3.155-.418 3.134-.84 5.753-2.849 7.375-5.658s2.053-6.083 1.214-9.217c-1.423-5.301-6.242-9.004-11.721-9.004z" fill="#410046"/><path d="m300.702 302.451c-10.572 0-19.869-7.139-22.607-17.361-1.62-6.041-.789-12.352 2.339-17.769 3.127-5.416 8.177-9.291 14.218-10.91 1.988-.533 4.031-.802 6.074-.802 10.573 0 19.869 7.139 22.609 17.361 3.341 12.472-4.087 25.337-16.559 28.679-1.987.533-4.031.802-6.074.802zm.024-35.57c-1.057 0-2.119.141-3.155.419-3.133.84-5.753 2.848-7.375 5.659-1.621 2.809-2.052 6.081-1.213 9.214 1.421 5.304 6.24 9.006 11.719 9.006 1.058 0 2.12-.141 3.156-.419 6.468-1.732 10.32-8.405 8.587-14.873-1.42-5.302-6.24-9.006-11.719-9.006z" fill="#410046"/><path d="m388.28 278.986c-10.572 0-19.868-7.139-22.608-17.361-1.62-6.041-.789-12.353 2.339-17.769 3.127-5.417 8.178-9.292 14.219-10.911 1.987-.532 4.03-.802 6.072-.802 10.573 0 19.869 7.139 22.609 17.362 1.619 6.041.788 12.352-2.339 17.769-3.129 5.416-8.178 9.291-14.22 10.909-1.986.533-4.03.803-6.072.803zm.023-35.571c-1.057 0-2.118.141-3.154.418-3.134.84-5.752 2.85-7.374 5.659-1.621 2.809-2.053 6.082-1.213 9.216 1.42 5.302 6.239 9.005 11.719 9.005 1.057 0 2.119-.141 3.154-.418 3.134-.84 5.753-2.848 7.374-5.659 1.623-2.809 2.053-6.081 1.213-9.214-1.421-5.304-6.24-9.007-11.719-9.007z" fill="#410046"/><path d="m475.858 255.52c-10.573 0-19.869-7.139-22.608-17.361-1.619-6.042-.788-12.353 2.34-17.769 3.127-5.417 8.177-9.291 14.219-10.91 1.986-.532 4.03-.803 6.073-.803 10.571 0 19.868 7.139 22.607 17.361 3.341 12.471-4.086 25.337-16.557 28.679-1.989.532-4.033.803-6.074.803zm.024-35.571c-1.058 0-2.12.141-3.154.418-3.135.84-5.754 2.849-7.376 5.658-1.621 2.809-2.053 6.081-1.213 9.215 1.42 5.303 6.239 9.006 11.719 9.006 1.057 0 2.119-.141 3.155-.418 6.467-1.734 10.32-8.406 8.588-14.873-1.422-5.302-6.241-9.006-11.719-9.006z" fill="#410046"/><path d="m563.436 232.052c-10.572 0-19.869-7.139-22.608-17.36-3.342-12.47 4.086-25.337 16.557-28.679 1.988-.534 4.031-.803 6.074-.803 10.571 0 19.868 7.139 22.607 17.361 1.619 6.041.788 12.353-2.339 17.769-3.127 5.418-8.177 9.292-14.218 10.911-1.989.532-4.031.801-6.073.801zm.023-35.569c-1.058 0-2.119.141-3.155.418-6.469 1.734-10.32 8.406-8.588 14.874 1.42 5.303 6.241 9.005 11.719 9.005 1.058 0 2.118-.141 3.154-.418 3.133-.84 5.753-2.85 7.375-5.659s2.053-6.082 1.213-9.215c-1.421-5.302-6.24-9.005-11.718-9.005z" fill="#410046"/><path d="m651.015 208.587c-10.574 0-19.871-7.139-22.61-17.361-1.62-6.042-.789-12.352 2.339-17.769 3.127-5.417 8.178-9.292 14.221-10.911 1.986-.532 4.03-.801 6.072-.801 10.571 0 19.867 7.138 22.607 17.357 3.342 12.475-4.087 25.341-16.559 28.683-1.987.533-4.029.802-6.07.802zm.022-35.569c-1.057 0-2.119.14-3.155.418-3.135.84-5.754 2.848-7.376 5.657-1.621 2.81-2.052 6.082-1.213 9.216 1.421 5.303 6.241 9.006 11.72 9.006 1.058 0 2.119-.141 3.153-.419 6.469-1.733 10.322-8.407 8.589-14.876-1.42-5.301-6.239-9.002-11.718-9.002z" fill="#410046"/><path d="m738.591 185.121c-10.573 0-19.869-7.139-22.608-17.362-1.619-6.04-.789-12.352 2.338-17.768 3.127-5.418 8.178-9.292 14.22-10.912 1.987-.532 4.029-.802 6.071-.802 10.573 0 19.869 7.139 22.61 17.36 3.342 12.474-4.088 25.34-16.559 28.681-1.987.532-4.031.803-6.072.803zm.021-35.571c-1.057 0-2.119.141-3.154.418-3.133.84-5.752 2.85-7.375 5.659-1.622 2.809-2.052 6.083-1.212 9.216 1.42 5.303 6.238 9.006 11.719 9.006 1.057 0 2.119-.14 3.155-.418 6.468-1.732 10.32-8.406 8.587-14.875-1.42-5.303-6.239-9.006-11.72-9.006z" fill="#410046"/><path d="m826.168 161.655c-10.574 0-19.87-7.14-22.609-17.362-1.619-6.04-.787-12.351 2.34-17.768 3.125-5.417 8.176-9.291 14.217-10.911 1.988-.533 4.031-.803 6.074-.803 10.572 0 19.869 7.139 22.609 17.361 1.619 6.042.787 12.353-2.34 17.77-3.127 5.418-8.179 9.292-14.22 10.91-1.987.532-4.03.803-6.071.803zm.024-35.571c-1.058 0-2.12.141-3.157.418-3.132.84-5.752 2.85-7.373 5.659s-2.053 6.082-1.213 9.213c1.421 5.304 6.239 9.008 11.719 9.008 1.057 0 2.118-.141 3.154-.418 3.134-.84 5.752-2.849 7.375-5.658 1.621-2.809 2.052-6.083 1.213-9.216-1.421-5.303-6.24-9.006-11.718-9.006z" fill="#410046"/><path d="m913.747 138.188c-10.573 0-19.871-7.139-22.61-17.362-1.619-6.041-.787-12.352 2.34-17.769 3.127-5.416 8.177-9.291 14.218-10.908 1.987-.534 4.03-.803 6.074-.803 10.571 0 19.868 7.139 22.607 17.36 3.34 12.472-4.087 25.339-16.557 28.681-1.988.531-4.03.801-6.072.801zm.022-35.57c-1.058 0-2.119.14-3.157.418-3.132.84-5.752 2.848-7.373 5.658-1.622 2.809-2.053 6.081-1.213 9.215 1.42 5.303 6.239 9.006 11.72 9.006 1.058 0 2.12-.141 3.155-.419 6.465-1.732 10.317-8.406 8.585-14.875-1.42-5.3-6.239-9.003-11.717-9.003z" fill="#410046"/><path d="m1001.32 114.721c-10.571 0-19.868-7.139-22.606-17.361-3.341-12.471 4.086-25.338 16.558-28.679 1.988-.532 4.03-.802 6.074-.802 10.571 0 19.868 7.139 22.606 17.361 1.619 6.042.788 12.352-2.339 17.769-3.127 5.416-8.177 9.292-14.219 10.909-1.988.534-4.03.803-6.074.803zm.027-35.57c-1.057 0-2.12.141-3.156.419-3.133.839-5.753 2.848-7.375 5.658-1.621 2.81-2.051 6.083-1.212 9.216 1.421 5.302 6.239 9.004 11.717 9.004 1.058 0 2.119-.141 3.155-.418 3.135-.84 5.754-2.848 7.376-5.658 1.622-2.809 2.052-6.081 1.212-9.215-1.422-5.303-6.239-9.006-11.717-9.006z" fill="#410046"/><path d="m1088.9 91.255c-10.573 0-19.869-7.139-22.609-17.36-3.341-12.472 4.086-25.339 16.559-28.68 1.987-.533 4.029-.803 6.072-.803 10.573 0 19.869 7.139 22.609 17.361 1.618 6.041.787 12.353-2.34 17.769-3.127 5.418-8.177 9.293-14.219 10.911-1.986.531-4.03.802-6.072.802zm.023-35.57c-1.057 0-2.118.141-3.154.418-6.468 1.734-10.321 8.406-8.587 14.875 1.42 5.301 6.239 9.004 11.719 9.004 1.057 0 2.119-.141 3.155-.418 3.133-.84 5.752-2.849 7.374-5.658 1.621-2.809 2.052-6.083 1.212-9.215-1.42-5.303-6.24-9.006-11.719-9.006z" fill="#410046"/><path d="m1176.48 67.788c-10.572 0-19.867-7.138-22.608-17.359-3.341-12.472 4.087-25.338 16.558-28.68 1.987-.532 4.03-.803 6.072-.803 10.572 0 19.868 7.139 22.609 17.36 3.341 12.472-4.088 25.339-16.559 28.68-1.987.532-4.031.802-6.072.802zm.022-35.569c-1.057 0-2.119.141-3.155.418-6.467 1.734-10.319 8.406-8.586 14.874 1.421 5.302 6.239 9.005 11.719 9.005 1.057 0 2.119-.141 3.155-.418 6.467-1.734 10.32-8.406 8.587-14.875-1.421-5.301-6.24-9.004-11.72-9.004z" fill="#410046"/><path d="m935.744 485.387c-9.519 0-17.888-6.427-20.354-15.63-3.009-11.231 3.679-22.815 14.908-25.823 1.791-.48 3.63-.723 5.468-.723 9.518 0 17.888 6.428 20.354 15.631 3.008 11.23-3.68 22.814-14.908 25.823-1.79.479-3.63.722-5.468.722zm.023-37.554c-1.435 0-2.872.189-4.273.565-8.767 2.349-13.989 11.394-11.639 20.163 1.925 7.186 8.459 12.204 15.889 12.204 1.434 0 2.871-.19 4.272-.565 8.767-2.35 13.989-11.394 11.64-20.163-1.925-7.186-8.46-12.204-15.889-12.204z" fill="#590660"/><path d="m1028.2 460.612c-9.517 0-17.886-6.428-20.352-15.632-3.008-11.229 3.68-22.813 14.908-25.822 1.791-.48 3.631-.723 5.469-.723 9.518 0 17.887 6.428 20.353 15.631 1.457 5.44.71 11.122-2.107 15.999-2.816 4.878-7.362 8.366-12.802 9.823-1.79.48-3.631.724-5.469.724zm.025-37.555c-1.434 0-2.872.19-4.273.566-8.766 2.349-13.988 11.394-11.64 20.162 1.925 7.186 8.459 12.205 15.887 12.205 1.435 0 2.873-.19 4.274-.566 4.247-1.138 7.797-3.861 9.996-7.67 2.199-3.807 2.782-8.244 1.644-12.492-1.925-7.186-8.458-12.205-15.888-12.205z" fill="#590660"/><path d="m1120.67 435.836c-9.517 0-17.885-6.428-20.352-15.632-1.457-5.439-.709-11.121 2.107-15.997 2.816-4.877 7.362-8.366 12.802-9.824 1.791-.479 3.63-.722 5.468-.722 9.519 0 17.888 6.427 20.355 15.63 1.456 5.44.709 11.121-2.107 15.998-2.816 4.878-7.362 8.366-12.802 9.823-1.791.48-3.632.724-5.471.724zm.025-37.554c-1.434 0-2.872.19-4.272.566-4.247 1.138-7.797 3.861-9.995 7.67-2.199 3.807-2.783 8.243-1.645 12.49 1.926 7.187 8.458 12.206 15.887 12.206 1.435 0 2.874-.19 4.275-.566 4.247-1.138 7.797-3.862 9.995-7.67 2.199-3.808 2.783-8.244 1.645-12.491-1.925-7.186-8.46-12.205-15.89-12.205z" fill="#590660"/><path d="m1216.63 407.889c-9.518 0-17.888-6.427-20.354-15.63-3.008-11.23 3.679-22.814 14.908-25.823 1.791-.479 3.63-.722 5.468-.722 9.518 0 17.888 6.427 20.354 15.63 3.008 11.23-3.68 22.814-14.908 25.823-1.79.479-3.63.722-5.468.722zm.023-37.554c-1.435 0-2.872.19-4.273.566-8.767 2.348-13.988 11.393-11.639 20.162 1.925 7.186 8.459 12.205 15.889 12.205 1.435 0 2.872-.19 4.273-.566 8.766-2.349 13.988-11.394 11.639-20.162-1.925-7.186-8.459-12.205-15.889-12.205z" fill="#590660"/><path d="m1309.09 383.114c-9.517 0-17.885-6.428-20.351-15.631-3.008-11.23 3.679-22.813 14.908-25.823 1.79-.479 3.63-.722 5.468-.722 9.519 0 17.888 6.427 20.353 15.63 1.458 5.441.71 11.122-2.107 16-2.816 4.877-7.362 8.365-12.802 9.823-1.79.479-3.63.723-5.469.723zm.025-37.555c-1.434 0-2.872.191-4.272.566-8.767 2.349-13.989 11.394-11.641 20.162 1.926 7.186 8.459 12.206 15.888 12.206 1.434 0 2.872-.191 4.273-.566 4.247-1.138 7.797-3.862 9.996-7.67s2.783-8.245 1.645-12.492c-1.925-7.187-8.459-12.206-15.889-12.206z" fill="#590660"/><path d="m1401.56 358.338c-9.517 0-17.886-6.428-20.352-15.631-1.457-5.44-.71-11.122 2.106-15.998 2.816-4.877 7.362-8.366 12.802-9.824 1.791-.479 3.631-.722 5.469-.722 9.518 0 17.887 6.428 20.354 15.63 1.457 5.44.709 11.122-2.107 15.999s-7.362 8.366-12.801 9.823c-1.791.48-3.632.723-5.471.723zm.025-37.554c-1.435 0-2.872.19-4.273.566-4.247 1.138-7.797 3.862-9.995 7.67-2.199 3.807-2.783 8.244-1.645 12.491 1.926 7.186 8.459 12.205 15.888 12.205 1.434 0 2.873-.19 4.274-.566 4.247-1.138 7.797-3.861 9.995-7.67 2.199-3.808 2.783-8.244 1.645-12.491-1.925-7.186-8.459-12.205-15.889-12.205z" fill="#590660"/><path d="m1491.96 332.092c-9.519 0-17.889-6.428-20.354-15.63-3.009-11.231 3.678-22.815 14.907-25.824 1.791-.479 3.631-.722 5.469-.722 9.517 0 17.887 6.427 20.354 15.63 3.007 11.23-3.68 22.814-14.908 25.824-1.79.479-3.63.722-5.468.722zm.022-37.555c-1.434 0-2.872.19-4.272.566-8.768 2.349-13.989 11.394-11.64 20.162 1.926 7.186 8.46 12.205 15.89 12.205 1.434 0 2.871-.19 4.272-.565 8.766-2.35 13.989-11.395 11.64-20.163-1.926-7.186-8.46-12.205-15.89-12.205z" fill="#590660"/><path d="m1584.42 307.317c-9.516 0-17.885-6.428-20.351-15.632-3.008-11.229 3.68-22.813 14.908-25.822 1.791-.48 3.63-.723 5.469-.723 9.518 0 17.887 6.428 20.353 15.631 1.457 5.44.709 11.122-2.107 15.999s-7.363 8.366-12.802 9.823c-1.791.48-3.631.724-5.47.724zm.026-37.555c-1.435 0-2.872.19-4.273.566-8.767 2.349-13.989 11.394-11.64 20.162 1.925 7.186 8.458 12.205 15.887 12.205 1.435 0 2.872-.19 4.273-.566 4.248-1.138 7.798-3.861 9.996-7.67 2.199-3.808 2.783-8.245 1.645-12.492-1.925-7.186-8.459-12.205-15.888-12.205z" fill="#590660"/><path d="m1676.88 282.541c-9.517 0-17.886-6.428-20.352-15.632-1.457-5.44-.709-11.121 2.107-15.998 2.815-4.876 7.362-8.365 12.802-9.823 1.791-.479 3.63-.722 5.468-.722 9.518 0 17.888 6.427 20.354 15.63 1.457 5.44.709 11.121-2.106 15.998-2.816 4.878-7.363 8.366-12.802 9.823-1.791.48-3.632.724-5.471.724zm.025-37.554c-1.435 0-2.872.19-4.272.566-4.247 1.137-7.797 3.861-9.996 7.669-2.198 3.808-2.783 8.244-1.645 12.491 1.926 7.187 8.459 12.206 15.888 12.206 1.435 0 2.873-.191 4.274-.566 4.248-1.138 7.798-3.862 9.996-7.67s2.783-8.245 1.645-12.491c-1.926-7.186-8.46-12.205-15.89-12.205z" fill="#590660"/><path d="m1772.85 254.594c-9.519 0-17.888-6.427-20.354-15.63-3.009-11.231 3.678-22.815 14.907-25.823 1.791-.48 3.631-.723 5.469-.723 9.518 0 17.888 6.428 20.354 15.631 3.008 11.23-3.68 22.814-14.908 25.823-1.79.479-3.63.722-5.468.722zm.022-37.554c-1.434 0-2.872.19-4.272.565-8.767 2.349-13.989 11.394-11.639 20.163 1.925 7.186 8.459 12.205 15.889 12.205 1.434 0 2.871-.19 4.272-.566 8.767-2.349 13.989-11.394 11.64-20.163-1.925-7.186-8.46-12.204-15.89-12.204z" fill="#590660"/><path d="m1865.31 229.819c-9.517 0-17.886-6.428-20.352-15.631-3.008-11.23 3.68-22.814 14.908-25.823 1.791-.48 3.631-.723 5.469-.723 9.518 0 17.887 6.428 20.353 15.631 1.457 5.441.709 11.122-2.107 15.999-2.816 4.878-7.363 8.366-12.802 9.824-1.79.479-3.631.723-5.469.723zm.025-37.555c-1.435 0-2.872.191-4.273.566-8.766 2.349-13.988 11.394-11.64 20.162 1.925 7.186 8.459 12.206 15.887 12.206 1.435 0 2.873-.191 4.273-.567 4.248-1.138 7.798-3.861 9.996-7.669 2.199-3.808 2.783-8.245 1.645-12.493-1.925-7.186-8.458-12.205-15.888-12.205z" fill="#590660"/><path d="m1957.77 205.043c-9.517 0-17.885-6.428-20.352-15.631-1.457-5.44-.709-11.122 2.107-15.998 2.816-4.877 7.362-8.366 12.802-9.824 1.791-.479 3.63-.722 5.468-.722 9.518 0 17.888 6.427 20.355 15.63 1.456 5.44.709 11.122-2.107 15.998-2.816 4.878-7.362 8.366-12.802 9.824-1.791.479-3.632.723-5.471.723zm.025-37.554c-1.434 0-2.872.19-4.272.566-4.247 1.138-7.797 3.861-9.996 7.67-2.198 3.807-2.782 8.244-1.644 12.49 1.925 7.187 8.458 12.206 15.887 12.206 1.435 0 2.874-.19 4.275-.566 4.247-1.138 7.797-3.862 9.995-7.67 2.199-3.808 2.783-8.244 1.645-12.491-1.925-7.186-8.46-12.205-15.89-12.205z" fill="#590660"/><path d="m855.962 227.494c0-17.393 14.116-31.508 31.508-31.508h27.007c7.408 0 13.504 6.095 13.504 13.503s-6.096 13.504-13.504 13.504h-27.007c-2.469 0-4.501 2.032-4.501 4.501v135.036c0 2.485 2.016 4.501 4.501 4.501h135.036c2.469 0 4.501-2.032 4.501-4.501v-27.007c0-7.408 6.096-13.504 13.504-13.504s13.503 6.096 13.503 13.504v27.007c0 17.285-14.223 31.508-31.508 31.508h-135.036c-17.285 0-31.508-14.223-31.508-31.508z" fill="#fff"/><path d="m945.986 137.47c0-17.392 14.115-31.508 31.508-31.508h135.036c17.392 0 31.508 14.116 31.508 31.508v135.036c0 17.285-14.223 31.508-31.508 31.508h-135.036c-17.285 0-31.508-14.223-31.508-31.508zm31.508-4.501c-2.469 0-4.501 2.032-4.501 4.501v135.036c0 2.485 2.016 4.501 4.501 4.501h135.036c2.469 0 4.501-2.032 4.501-4.501v-135.036c0-2.469-2.032-4.501-4.501-4.501z" fill="#fff"/><path d="m551.4 237.748c0-9.468 7.684-17.153 17.153-17.153h14.702c4.033 0 7.351 3.319 7.351 7.351 0 4.033-3.318 7.352-7.351 7.352h-14.702c-1.345 0-2.451 1.106-2.451 2.45v73.512c0 1.352 1.098 2.45 2.451 2.45h73.511c1.345 0 2.451-1.106 2.451-2.45v-14.703c0-4.032 3.318-7.351 7.351-7.351s7.351 3.319 7.351 7.351v14.703c0 9.41-7.743 17.153-17.153 17.153h-73.511c-9.41 0-17.153-7.743-17.153-17.153z" fill="#fff"/><path d="m600.408 188.74c0-9.468 7.684-17.153 17.152-17.153h73.512c9.468 0 17.153 7.685 17.153 17.153v73.512c0 9.41-7.743 17.153-17.153 17.153h-73.512c-9.409 0-17.152-7.743-17.152-17.153zm17.152-2.45c-1.344 0-2.45 1.106-2.45 2.45v73.512c0 1.353 1.098 2.45 2.45 2.45h73.512c1.344 0 2.451-1.106 2.451-2.45v-73.512c0-1.344-1.107-2.45-2.451-2.45z" fill="#fff"/><path d="m1303.01 237.748c0-9.468 7.685-17.153 17.153-17.153h14.702c4.033 0 7.352 3.319 7.352 7.351 0 4.033-3.319 7.352-7.352 7.352h-14.702c-1.344 0-2.45 1.106-2.45 2.45v73.512c0 1.352 1.097 2.45 2.45 2.45h73.512c1.344 0 2.45-1.106 2.45-2.45v-14.703c0-4.032 3.319-7.351 7.351-7.351 4.033 0 7.352 3.319 7.352 7.351v14.703c0 9.41-7.743 17.153-17.153 17.153h-73.512c-9.41 0-17.153-7.743-17.153-17.153z" fill="#fff"/><path d="m1352.02 188.74c0-9.468 7.685-17.153 17.153-17.153h73.512c9.468 0 17.152 7.685 17.152 17.153v73.512c0 9.41-7.743 17.153-17.152 17.153h-73.512c-9.41 0-17.153-7.743-17.153-17.153zm17.153-2.45c-1.344 0-2.45 1.106-2.45 2.45v73.512c0 1.353 1.097 2.45 2.45 2.45h73.512c1.344 0 2.45-1.106 2.45-2.45v-73.512c0-1.344-1.106-2.45-2.45-2.45z" fill="#fff"/></g></svg>
