<svg xmlns="http://www.w3.org/2000/svg" xmlns:xlink="http://www.w3.org/1999/xlink" fill-rule="evenodd" stroke-linejoin="round" stroke-miterlimit="2" viewBox="0 0 2000 500"><style>.B{fill:#b0b0b0}.C{fill:#ffa186}.D{fill:#fff}.E{fill:#ccddf3}.F{fill:#d3d3d3}.G{fill:#ffe791}.H{fill:#6e798f}.I{fill:#cfe4f0}.J{fill:#7d879a}.K{fill:#ffe99c}.L{fill:#d3e8f1}.M{fill:#ffab92}.N{fill-rule:nonzero}</style><path d="M0 0h2000v500H0z" fill="#00239c" class="N"/><path d="M2000 500H0v-78.978s134.312-41.9 238.74-42.47c68.2-.372 192.743 29.7 261.544 28.62 85.282-1.34 101.794-51.866 164.26-44.34 52.25 6.295 87.836 52.725 109.94 57.986 77.9 18.544 181.212 3.46 222.2-6.205 2.344-.553 182.447-91.8 196.833-94.126 41.625-6.732 134.68-17.877 193.417-3.14 80.245 20.135 150.082 57.063 174.982 62.226 149.87 31.077 157.13-76.035 260.594-83.482 57.69-4.151 177.49 42.882 177.49 42.882z" fill="#0056ff"/><g class="N"><path d="M736.403 196.158h170.912a4.95 4.95 0 0 0 4.949-4.948V73.52a4.95 4.95 0 0 0-4.949-4.948H736.403a4.95 4.95 0 0 0-4.949 4.948V191.2a4.95 4.95 0 0 0 4.949 4.948zm538.637 116.29h-170.912a4.95 4.95 0 0 0-4.949 4.948v117.692a4.95 4.95 0 0 0 4.949 4.949h170.912a4.95 4.95 0 0 0 4.949-4.949V317.395a4.95 4.95 0 0 0-4.949-4.948zm-367.4-107.07H736.736a4.95 4.95 0 0 0-4.947 4.949v117.7a4.95 4.95 0 0 0 4.947 4.949H907.65a4.952 4.952 0 0 0 4.948-4.95v-117.7a4.95 4.95 0 0 0-4.948-4.949zm0 136.506H736.736a4.95 4.95 0 0 0-4.947 4.949v89.217a4.95 4.95 0 0 0 4.947 4.949H907.65a4.95 4.95 0 0 0 4.948-4.949v-89.217a4.95 4.95 0 0 0-4.948-4.949zm195.73-37.754h170.912a4.951 4.951 0 0 0 4.95-4.948V181.5a4.951 4.951 0 0 0-4.95-4.948H1103.38a4.95 4.95 0 0 0-4.949 4.948v117.7a4.95 4.95 0 0 0 4.949 4.948zm0-136.493h170.912a4.95 4.95 0 0 0 4.95-4.95V73.52a4.951 4.951 0 0 0-4.95-4.948H1103.38a4.95 4.95 0 0 0-4.949 4.948v89.168a4.95 4.95 0 0 0 4.949 4.95zm-23.5-99.067H930.32a4.95 4.95 0 0 0-4.945 4.948v178.575a4.95 4.95 0 0 0 4.945 4.949h149.56a4.95 4.95 0 0 0 4.95-4.949V73.52a4.95 4.95 0 0 0-4.95-4.948zm0 196.877H930.32a4.95 4.95 0 0 0-4.945 4.949v164.34a4.95 4.95 0 0 0 4.945 4.949h149.56a4.95 4.95 0 0 0 4.95-4.949v-164.34a4.95 4.95 0 0 0-4.95-4.949z" fill="#c3d3e8"/><path d="M903.705 183.2a4.95 4.95 0 0 1-4.949 4.948H727.844a4.95 4.95 0 0 1-4.949-4.948V65.508a4.95 4.95 0 0 1 4.949-4.948h170.912a4.95 4.95 0 0 1 4.949 4.948z" class="D"/><path d="M903.705 75.922V65.508a4.95 4.95 0 0 0-4.949-4.948H727.844a4.95 4.95 0 0 0-4.949 4.948v10.414z" class="C"/><g class="D"><use xlink:href="#B"/><path d="M749.713 68.94a2.3 2.3 0 0 1-2.299 2.299 2.3 2.3 0 0 1-2.297-2.299 2.3 2.3 0 0 1 2.297-2.299 2.3 2.3 0 0 1 2.299 2.299zm10 0a2.3 2.3 0 0 1-2.297 2.299 2.3 2.3 0 0 1-2.3-2.299 2.3 2.3 0 0 1 2.3-2.299 2.3 2.3 0 0 1 2.297 2.299z"/></g><path d="M737.414 88.777h152.278v64.815H737.414z" class="B"/><path d="M812.406 137.785c-9.168 0-16.6-7.43-16.6-16.6s7.433-16.6 16.6-16.6a16.6 16.6 0 0 1 16.598 16.6c0 9.17-7.432 16.6-16.598 16.6zm0-36.275a19.68 19.68 0 0 0-19.676 19.674 19.68 19.68 0 0 0 19.676 19.674c10.868 0 19.673-8.807 19.673-19.674S823.27 101.5 812.406 101.5zm-6.148 28.28l14.755-8.607-14.755-8.607z" fill="#feffff"/><path d="M737.414 162.176h12.168v12.166h-12.168z" class="F"/><path d="M754.93 162.176h12.166v12.166H754.93z" class="C"/><path d="M772.442 162.176h12.166v12.166h-12.166z" class="F"/><path d="M789.956 162.176h12.166v12.166h-12.166z" class="E"/><path d="M807.47 162.176h12.166v12.166H807.47zm17.513 0h12.168v12.166h-12.168z" class="F"/><path d="M842.496 162.176h12.166v12.166h-12.166z" class="C"/><path d="M860 162.176h12.168v12.166H860z" class="F"/><path d="M877.523 162.176h12.168v12.166h-12.168z" class="E"/><path d="M1271.43 427.076a4.95 4.95 0 0 1-4.948 4.949H1095.57a4.95 4.95 0 0 1-4.948-4.949V309.384c0-2.73 2.217-4.95 4.948-4.95h170.913a4.952 4.952 0 0 1 4.948 4.95z" class="D"/><path d="M1271.43 319.798v-10.414c0-2.73-2.217-4.95-4.948-4.95H1095.57a4.952 4.952 0 0 0-4.948 4.95v10.414z" class="G"/><g class="B"><use xlink:href="#C"/><use xlink:href="#C" x="10"/><path d="M1127.44 312.818a2.3 2.3 0 0 1-2.298 2.298 2.3 2.3 0 0 1-2.297-2.298 2.3 2.3 0 0 1 2.297-2.3 2.3 2.3 0 0 1 2.298 2.3z"/></g><path d="M904.04 320.006a4.95 4.95 0 0 1-4.948 4.948H728.178a4.95 4.95 0 0 1-4.949-4.948v-117.69a4.95 4.95 0 0 1 4.949-4.948H899.09a4.95 4.95 0 0 1 4.948 4.948z" class="D"/><path d="M904.04 212.73v-10.414a4.95 4.95 0 0 0-4.948-4.948H728.178a4.95 4.95 0 0 0-4.949 4.948v10.414z" class="G"/><g class="B"><path d="M740.047 205.748a2.3 2.3 0 0 1-2.299 2.299 2.296 2.296 0 0 1-2.297-2.3 2.3 2.3 0 0 1 2.297-2.299 2.3 2.3 0 0 1 2.299 2.299z"/><use xlink:href="#B" x="10.335" y="136.808"/><path d="M760.048 205.748a2.3 2.3 0 0 1-2.297 2.299 2.3 2.3 0 0 1-2.299-2.299 2.3 2.3 0 0 1 2.299-2.299 2.3 2.3 0 0 1 2.297 2.299z"/></g><path d="M904.04 428.04a4.95 4.95 0 0 1-4.948 4.949H728.178a4.95 4.95 0 0 1-4.949-4.949v-89.217a4.95 4.95 0 0 1 4.949-4.949H899.09a4.95 4.95 0 0 1 4.948 4.949z" class="D"/><path d="M904.04 349.235v-10.413a4.95 4.95 0 0 0-4.948-4.949H728.178a4.95 4.95 0 0 0-4.949 4.949v10.413z" class="C"/><path d="M740.047 342.256a2.3 2.3 0 0 1-2.299 2.297 2.296 2.296 0 0 1-2.297-2.297 2.3 2.3 0 0 1 2.297-2.301c1.27 0 2.3 1.032 2.3 2.3zm10 0a2.3 2.3 0 0 1-2.299 2.297 2.3 2.3 0 0 1-2.298-2.297 2.3 2.3 0 0 1 2.298-2.3c1.268 0 2.3 1.032 2.3 2.3zm10 0a2.3 2.3 0 0 1-2.297 2.297 2.3 2.3 0 0 1-2.299-2.297 2.3 2.3 0 0 1 2.3-2.3 2.3 2.3 0 0 1 2.297 2.301zm510.632-51.086a4.95 4.95 0 0 1-4.948 4.949H1094.82a4.95 4.95 0 0 1-4.948-4.949v-117.7a4.95 4.95 0 0 1 4.948-4.949h170.913a4.95 4.95 0 0 1 4.948 4.949z" class="D"/><path d="M1270.68 183.89v-10.41a4.95 4.95 0 0 0-4.948-4.949H1094.82a4.95 4.95 0 0 0-4.948 4.949v10.412z" class="C"/><g class="D"><use xlink:href="#D"/><use xlink:href="#E"/><use xlink:href="#F"/><path d="M1270.68 154.677a4.95 4.95 0 0 1-4.948 4.949H1094.82a4.95 4.95 0 0 1-4.948-4.949v-89.17a4.95 4.95 0 0 1 4.948-4.948h170.913a4.95 4.95 0 0 1 4.948 4.948z"/></g><path d="M1270.68 75.922V65.508a4.95 4.95 0 0 0-4.948-4.948H1094.82a4.95 4.95 0 0 0-4.948 4.948v10.414z" class="H"/><g fill="#d4d4d4"><use xlink:href="#D" y="-107.972"/><use xlink:href="#E" y="-107.972"/><use xlink:href="#F" y="-107.972"/></g><path d="M1076.27 244.083a4.947 4.947 0 0 1-4.95 4.95H921.764a4.95 4.95 0 0 1-4.948-4.949V65.508a4.95 4.95 0 0 1 4.948-4.948h149.557a4.95 4.95 0 0 1 4.949 4.948z" class="D"/><path d="M1076.27 75.922V65.508a4.95 4.95 0 0 0-4.949-4.948H921.764a4.95 4.95 0 0 0-4.948 4.948v10.414z" class="G"/><g class="B"><use xlink:href="#B" x="193.919"/><use xlink:href="#E" x="-173.068" y="-107.972"/><use xlink:href="#B" x="213.922"/></g><path d="M1076.27 426.726a4.95 4.95 0 0 1-4.949 4.948H921.764a4.95 4.95 0 0 1-4.948-4.948v-164.34a4.95 4.95 0 0 1 4.948-4.949h149.557a4.947 4.947 0 0 1 4.95 4.95z" class="D"/><path d="M1076.27 272.798v-10.413a4.947 4.947 0 0 0-4.95-4.95H921.764a4.95 4.95 0 0 0-4.948 4.949v10.413z" class="H"/><g fill="#d4d4d4"><use xlink:href="#G"/><path d="M943.632 265.816c0 1.272-1.028 2.3-2.297 2.3a2.3 2.3 0 0 1-2.297-2.3 2.3 2.3 0 0 1 2.297-2.298 2.3 2.3 0 0 1 2.297 2.298z"/><use xlink:href="#G" x="20.003"/><path d="M768.88 267.036a2.3 2.3 0 0 1-2.299 2.299 2.3 2.3 0 0 1-2.298-2.299c0-1.268 1.03-2.3 2.298-2.3a2.3 2.3 0 0 1 2.299 2.3z"/><use xlink:href="#H"/><use xlink:href="#H" x="10"/><use xlink:href="#I"/><use xlink:href="#I" x="10"/><path d="M868.75 267.036a2.3 2.3 0 0 1-2.299 2.299 2.3 2.3 0 0 1-2.298-2.299c0-1.268 1.03-2.3 2.298-2.3s2.3 1.032 2.3 2.3z"/></g><path d="M1180.76 331.777h77.702v33.073h-77.702zM737.748 224.692h77.702v33.07h-77.702z" class="B"/><path d="M821.835 225.457h32.256v13.73h-32.256zm37.06 0h32.256v13.73h-32.256zm70.67 139.393h30.192v13.73h-30.192zm34.686 0h30.2v13.73h-30.2zm34.683 0h30.2v13.73h-30.2zm105.817-229h46.6v13.73h-46.6zm53.55 0h46.6v13.73h-46.6zm53.54 0h46.6v13.73h-46.6zm-178.22 229h30.2v13.73h-30.2zM821.835 244.033h32.256v13.73h-32.256zm37.06 0h32.256v13.73h-32.256z" class="F"/><path d="M1105.14 331.777h71.07v4.036h-71.07z" class="B"/><path d="M1105.14 339.035h24.6v4.038h-24.6z" class="E"/><path d="M1134.94 339.035h40.976v4.038h-40.976zm-29.8 7.26h71.07v4.034h-71.07zm0 7.256h51.094v4.038h-51.094z" class="B"/><path d="M1161.82 353.552h14.1v4.038h-14.1z" class="C"/><path d="M1105.14 360.812h71.07v4.038h-71.07zM738.748 275.86H891.15v4.034H738.748z" class="B"/><path d="M738.748 283.12h52.772v4.034h-52.772z" class="C"/><path d="M802.642 283.12H890.5v4.034h-87.868zm-63.894 7.258H891.15v4.038H738.748z" class="B"/><path d="M985.393 100.902h40.746v4.036h-40.746z" class="C"/><path d="M985.393 108.16h78.4v4.038h-78.4zm176.427-1.23h96.636v4.036h-96.636zm0 16.708h96.636v4.038h-96.636z" class="B"/><path d="M1161.82 115.655h42.942v4.038h-42.942z" class="C"/><path d="M944.1 137.33h93.9v1.667h-93.9zm0 5.386h78.414v1.667H944.1z" class="B"/><path d="M929.46 119.693h134.343v7.9H929.46z" class="I"/><path d="M738.748 297.638h109.564v4.036H738.748z" class="B"/><path d="M860.28 297.638h30.23v4.036h-30.23z" class="E"/><path d="M738.748 304.898H891.15v4.036H738.748zm190.816-74.373h134.24v4.036h-134.24zm.568-7.26h77.396v4.038h-77.396z" class="B"/><path d="M929.564 216.005h134.24v4.038h-134.24z" class="E"/><path d="M967.3 208.748h96.504v4.036H967.3z" class="B"/><path d="M930.132 208.748h26.624v4.036h-26.624z" class="C"/><path d="M1017.25 223.265h46.562v4.036h-46.562zm-87.686-21.777h134.24v4.038h-134.24zm-.118 209.092h69.486v4.034h-69.486zm.118-7.26h134.24v4.038h-134.24zm36.956-7.26h57.656v4.036H966.52z" class="B"/><path d="M929.564 396.06h27.192v4.036h-27.192z" class="C"/><path d="M1030.88 396.06h32.924v4.036h-32.924z" class="B"/><path d="M1007.53 410.58h56.28v4.034h-56.28z" class="E"/><path d="M929.564 388.8h134.24v4.036h-134.24zm29.956-47.747h74.328v4.036H959.52zm-14.606 10.48h103.545v4.04H944.914zm160.226 46.137h153.7v4.034h-153.7z" class="B"/><path d="M1105.14 404.965h42.504V409h-42.504z" class="E"/><path d="M1225.1 404.965h34.223V409H1225.1z" class="C"/><path d="M1152.63 404.965h67.08V409h-67.08z" class="B"/><path d="M1105.14 373.634h15.917v15.914h-15.917zm22.92 0h15.917v15.914h-15.917z" class="F"/><path d="M1150.97 373.634h15.917v15.914h-15.917z" class="E"/><path d="M1173.88 373.634h15.917v15.914h-15.917zm22.92 0h15.92v15.914h-15.92zm22.9 0h15.923v15.914H1219.7zm22.92 0h15.92v15.914h-15.92zm-137.48 39.258h154.166v6.205H1105.14z" class="F"/><path d="M1104.3 199.33h15.115v73.052H1104.3zm23.2 0h15.1v73.052h-15.1zm23.15 0h15.115v73.052h-15.115zm23.17 0h15.117v73.052h-15.117zm23.18 0h15.108v73.052H1197zm23.16 0h15.113v73.052h-15.113zm23.18 0h15.115v73.052h-15.115z" fill="#e6e7e8"/><path d="M1212.1 272.384v-63.228h-15.108v62.38c-.003.29-.046.574-.108.847z" class="C"/><path d="M1235.28 199.33h-15.113l-.016 73.053h15.135l-.006-.02z" class="G"/><path d="M1188.94 272.384V224.34h-15.116l-.01 48.044z" class="H"/><path d="M1165.77 272.384v-35.196h-15.114v35.053l-.043.143z" fill="#cee5ef"/><path d="M1142.6 272.384v-30.057h-15.11l-.014 30.057z" class="G"/><path d="M1104.3 251.13h15.115v21.252H1104.3z" class="C"/><path d="M1243.34 199.33h15.115v73.052h-15.115z" class="H"/><path d="M1104.24 275.4h15.268v5.084h-15.268zm23.16 0h15.268v5.084H1127.4zm23.18 0h15.268v5.084h-15.268zm23.17 0h15.268v5.084h-15.268zm23.17 0h15.268v5.084h-15.268zm23.18 0h15.264v5.084H1220.1zm23.16 0h15.264v5.084h-15.264z" fill="#e6e7e8"/><path d="M738.748 412.47v-31.065l25.3-16.362 24.832 6.673 25.763-8.883 25.3 9.273 25.3-6.096 25.275 8.98-.037 42.346z" class="H"/><path d="M738.748 419.677V395.92l25.3-8.27 24.832 1.15 25.752-10.22 25.3 11.486 25.3-2.415 25.503 4.23-.265 26.09z" class="G"/><path d="M738.748 420.917v-17.97l25.3-7.026 25.296 7.398 25.603-14.52 24.995 14.147 25.3-8.71 25.275 9.958v15.483z" fill="#cee5ef"/><path d="M738.748 420.917v-5.188l25.535-10.05 25.062 9.92 25.288-8.613 25.3 8.613 25.3-1.8 25.275-1.338v8.448z" class="C"/><path d="M789.345 420.925l-25.296-.008h25.296zm-.464-49.21l-24.832-6.673 25.296 3.187v3.326z" class="D"/><path d="M788.881 388.8l-24.832-1.15v-22.608l24.832 6.673.464-.16v17.062z" class="J"/><path d="M789.345 403.32l-25.296-7.398v-8.27l24.832 1.15.464-.183z" class="K"/><path d="M789.345 415.597l-25.062-9.919-.234.093v-9.85l25.296 7.398z" class="L"/><path d="M789.345 420.917H764.05V405.77l.234-.093 25.062 9.92z" class="M"/><path d="M839.932 420.925l-25.3-.008h25.3z" class="D"/><path d="M839.932 390.06l-25.291-11.478.003-15.75 25.288 9.273z" class="J"/><path d="M839.932 402.94l-24.984-14.14-.31.176v-10.394l25.29 11.478z" class="K"/><path d="M839.932 415.593l-25.297-8.607.004-18 .31-.176 24.984 14.14z" class="L"/><path d="M839.932 420.917h-25.3l.002-13.93 25.297 8.607z" class="M"/><path d="M890.54 420.925l-25.298-.008h25.275V414.2l.023-2.137zm0-29.079l-.037-.007.014-16.85-25.265-8.977v-3.18l25.288 9.273z" class="D"/><path d="M890.503 391.839l-25.256-4.187.005-21.64 25.265 8.977z" class="J"/><path d="M890.517 414.2v-10.006l-25.27-9.956v-6.586l25.293 4.194v20.217z" class="K"/><path d="M865.243 413.807l.004-19.569 25.27 9.956v8.275z" class="L"/><path d="M890.517 420.917h-25.275l.001-7.1 25.274-1.338z" class="M"/><path d="M959.758 89.43l18.277 22.947H941.48l9.14-11.473z" fill="#6d7991"/><path d="M942.696 95.76l13.236 16.617h-26.47l6.617-8.31z" fill="#cce5ee"/><use xlink:href="#J" class="I"/><path d="M944.1 153.245h93.9v1.666h-93.9zm0 5.385h78.414v1.67H944.1z" class="B"/><path d="M940.27 156.772a5.405 5.405 0 1 1-10.81-.002 5.405 5.405 0 0 1 10.81.002z" class="C"/><path d="M944.1 169.16h93.9v1.667h-93.9zm0 5.385h78.414v1.667H944.1z" class="B"/><path d="M940.27 172.687a5.406 5.406 0 1 1-10.811-.001 5.406 5.406 0 0 1 10.811.001z" class="I"/><path d="M944.1 185.074h93.9v1.666h-93.9zm0 5.386h78.414v1.667H944.1z" class="B"/><use xlink:href="#J" y="47.742" class="I"/><path d="M1048.45 136.97h15.348v7.413h-15.348z" class="B"/><path d="M1048.45 153.065h15.348v7.413h-15.348z" class="C"/><path d="M1048.45 169.16h15.348v7.413h-15.348zm0 16.096h15.348v7.413h-15.348z" class="B"/><path d="M991.2 293.314c2.8-1.153 7.354-1.153 10.1 0 2.745 1.158 4.717 4.93 4.386 8.365l-.876 8.992c-.345 3.44-3.448 6.26-6.913 6.26h-3.406c-3.473 0-6.577-2.82-6.913-6.26l-.88-8.992c-.335-3.436 1.698-7.207 4.51-8.365zm-.11 28h10.186c3.472 0 8.243 2.057 10.616 4.576l4.255 4.533c4.424-4.828 7.148-11.24 7.148-18.302 0-14.98-12.136-27.117-27.112-27.117S969.08 297.14 969.08 312.12c0 7.064 2.726 13.478 7.15 18.302l4.26-4.533c2.37-2.52 7.15-4.576 10.61-4.576z" class="C"/><path d="M1016.16 330.423l-4.255-4.533c-2.373-2.52-7.144-4.576-10.616-4.576h-10.186c-3.46 0-8.24 2.057-10.6 4.576l-4.26 4.533c4.956 5.404 12.053 8.8 19.964 8.8s15.008-3.406 19.964-8.8zm-28.582-19.753c.336 3.44 3.44 6.26 6.913 6.26h3.406c3.465 0 6.568-2.82 6.913-6.26l.876-8.992c.33-3.436-1.64-7.207-4.386-8.365-2.736-1.153-7.28-1.153-10.1 0s-4.846 4.93-4.5 8.365z" fill="#feffff"/><path d="M1104.2 88.314h39.69v39.69h-39.69z" class="B"/><g class="D"><path d="M1100.52 134.861l-2.52-2.512 49.665-49.826 2.52 2.513z"/><path d="M1147.75 134.785l-49.825-49.665 2.513-2.52 49.825 49.665z"/></g><path d="M1161.26 89.43h63.824v6.508h-63.824z" class="E"/><path d="M1079.6 95.75c-2.927-.235-6.228.372-8.687 1.62-.653.33-5.178 3.3-10.085 6.576L868.076 232.87l-41.797 28.356c-1.45 1.44-2.975 3.694-3.707 5.43-1.34 3.253-1.613 7.5-.703 10.763.876 3.14-1.517-.608 22.7 35.6l53.5 79.988c1.836 2.76 3.803 5.513 4.356 6.127 4.246 4.582 10.537 6.417 16.668 4.875 2.587-.66 3.34-1.104 13.16-7.68l100.745-67.382 64.098-42.87 27.9-18.67 41.797-28.356c1.45-1.44 2.975-3.694 3.707-5.43 1.34-3.253 1.613-7.5.703-10.763-.88-3.14 1.517.608-22.7-35.6l-37.763-56.435-15.855-23.707c-4.42-6.623-6.56-8.743-10.26-10.14-2.378-.878-3.17-1.083-5.044-1.223zm2.75 11.473c3.382 1.792.013-3.023 48.288 69.142l24.093 36.033c5.82 8.7 6.386 9.807 6.715 13.164.193 1.94-.493 5.558-1.382 7.288-1.53 2.977-2.23 3.568-12.948 10.8l-28.602 19.2-138.472 92.626-57.63 38.15c-2.42 1.04-4.74 1.272-7.6.728-3.023-.574-5.035-1.545-6.985-3.415-1.337-1.27-12.66-18.092-69.458-103.067-5.862-8.77-6.38-9.833-6.715-13.297-.208-2.157.677-5.977 1.852-7.923 1.804-3.032-.265-1.577 47.2-33.277l181.56-121.433c7.576-5.07 8.88-5.732 12.018-6.182 2.395-.348 5.864.283 8.077 1.45zm-4.18 64.09l-13.9 9.333-8.508 5.75 4.776 7 4.824-3.128 4.984-3.125 17.542 25.822c.102.02 2-1.145 4.273-2.618l4.087-2.626-17.682-26.355 4.95-3.238 4.947-3.213-4.923-7.227zM1031.7 202.4l-11.32 7.574 11.12 16.622 11.298 16.66c.105.02 1.94-1.186 4.123-2.673l3.973-2.73-1.664-2.672-4.384-6.668-2.747-4.004 12.76-8.7-2.295-3.434-2.347-3.58c-.012-.08-2.942 1.825-6.48 4.234-5.536 3.77-6.496 4.3-6.72 3.947l-1.917-3.014-1.637-2.533 7.193-4.742 7.197-4.767-2.404-3.56-2.435-3.54zm-42.716 28.582l-3.78 2.575.497 3.308c1.187 7.857 4 20.977 7.248 33.777l1.285 5.1 4.326-2.768 4.302-2.77-2.304-8.737 5.852-3.9 6.077-3.936c.138-.025 1.786 1.17 3.704 2.632l3.5 2.674 8.805-6.04-1.277-.887-5.735-4.22c-6.595-4.894-14.162-10.185-19.5-13.6l-9.192-5.76c-.023-.004-1.743 1.142-3.807 2.573zm11.113 12.844l4.097 2.973 1.656 1.28-3.812 2.597c-3.258 2.22-3.854 2.536-4.024 2.156-.232-.474-2.9-12.04-2.86-12.3.014-.076.595.247 1.282.725l3.662 2.57zm-44.615 12.72c-2.367.06-5.33.864-8.098 2.186-3 1.412-8.762 5.382-11.835 8.173l-2.387 2.143 20.886 31.06 1.225 1.732 8.2-5.405-2.378-3.558-3.928-5.967-1.56-2.358 1.473-.98 1.448-1 3.406 1.395c1.9.76 5.317 2.322 7.62 3.455l4.158 2.073 4.676-3.05c2.567-1.68 4.58-3.12 4.467-3.223-1.145-1.02-12.48-6.5-15.802-7.6l-1.156-.407.5-1.002c2.147-4.117 1.856-7.95-.908-12.008-1.696-2.5-3.585-4.108-5.757-4.947-1.822-.694-2.106-.748-4.26-.702zm.828 10.466c.416.35.956 1.172 1.234 1.815.995 2.385-.132 4.367-4.072 7.208l-2.483 1.803-2.54-3.828c-1.424-2.1-2.55-3.912-2.52-4.067.093-.5 4.57-3.204 5.96-3.6 1.702-.507 3.397-.265 4.423.678zm-44.047 19.47c-3.613-.016-8.15 1.32-12.024 3.53-4.028 2.313-12.568 8.8-12.7 9.64.002.136 4.847 7.482 10.802 16.322l10.82 16.083 1.906-.868c2.7-1.256 8.182-4.447 10.18-5.943 6.144-4.592 9.65-9.8 10.293-15.16.755-6.4-2.54-13.87-8.4-19.188-2.744-2.474-7.443-4.383-10.864-4.417zm2.824 11.087c2.785 1.973 5.55 6.032 6.247 9.138 1.046 4.64-.597 8.08-5.595 11.7l-2.5 1.8-6.517-9.697-6.493-9.963c.142-.75 4.765-3.515 6.95-4.17 2.87-.876 5.598-.438 7.917 1.18z" fill="#fb1717"/></g><defs><path id="B" d="M739.713 68.94a2.3 2.3 0 0 1-2.299 2.299 2.3 2.3 0 0 1-2.298-2.299 2.3 2.3 0 0 1 2.298-2.299 2.3 2.3 0 0 1 2.299 2.299z"/><path id="C" d="M1107.44 312.818a2.3 2.3 0 0 1-2.297 2.298 2.3 2.3 0 0 1-2.297-2.298 2.3 2.3 0 0 1 2.297-2.3 2.3 2.3 0 0 1 2.297 2.3z"/><path id="D" d="M1106.7 176.912a2.3 2.3 0 0 1-2.297 2.299 2.3 2.3 0 0 1-2.301-2.299c0-1.27 1.032-2.3 2.3-2.3a2.3 2.3 0 0 1 2.297 2.299z"/><path id="E" d="M1116.7 176.912a2.3 2.3 0 0 1-2.297 2.299 2.3 2.3 0 0 1-2.297-2.299 2.3 2.3 0 0 1 2.297-2.299 2.3 2.3 0 0 1 2.297 2.299z"/><path id="F" d="M1126.7 176.912a2.3 2.3 0 0 1-2.301 2.299 2.3 2.3 0 0 1-2.298-2.299 2.3 2.3 0 0 1 2.298-2.299 2.3 2.3 0 0 1 2.3 2.3z"/><path id="G" d="M933.632 265.816a2.3 2.3 0 0 1-2.299 2.3 2.3 2.3 0 0 1-2.298-2.3 2.3 2.3 0 0 1 2.298-2.298 2.3 2.3 0 0 1 2.299 2.298z"/><path id="H" d="M778.88 267.036a2.3 2.3 0 0 1-2.297 2.299 2.3 2.3 0 0 1-2.299-2.299 2.3 2.3 0 0 1 2.299-2.3 2.3 2.3 0 0 1 2.297 2.3z"/><path id="I" d="M848.75 267.036a2.3 2.3 0 0 1-2.299 2.299 2.3 2.3 0 0 1-2.297-2.299 2.3 2.3 0 0 1 2.297-2.3 2.3 2.3 0 0 1 2.299 2.3z"/><path id="J" d="M940.27 140.858a5.405 5.405 0 1 1-10.81-.002 5.405 5.405 0 0 1 10.81.002z"/></defs></svg>