<svg xmlns="http://www.w3.org/2000/svg" xmlns:xlink="http://www.w3.org/1999/xlink" fill-rule="evenodd" stroke-linejoin="round" stroke-miterlimit="2" viewBox="0 0 2000 500"><style>.B{fill:#341270}.C{fill:#3d1273}.D{fill:#491279}.E{fill:#55147f}.F{fill:#241c6d}.G{fill:#25176d}.H{fill:#23226d}.I{fill:#22296d}.J{fill:#df99ff}.K{fill:#c43f57}</style><path d="M0 0h2000v500H0z" fill="#26136e"/><path d="M1053.57 414.184c90.46 0 164.184-73.776 164.184-164.184S1144.03 85.816 1053.57 85.816c-90.408 0-164.183 73.776-164.183 164.184 0 90.46 73.775 164.184 164.183 164.184z" fill="#331178"/><path d="M1053.57 392.092c78.266 0 142.092-63.827 142.092-142.092s-63.826-142.092-142.092-142.092S911.48 171.735 911.48 250s63.826 142.092 142.09 142.092z" fill="#3a1580"/><path d="M1053.57 357.755c59.337 0 107.756-48.418 107.756-107.755s-48.42-107.755-107.756-107.755S945.815 190.663 945.815 250s48.42 107.755 107.755 107.755z" fill="#44158f"/><path d="M1053.57 323.724c40.613 0 73.725-33.112 73.725-73.724s-33.112-73.724-73.725-73.724-73.724 33.112-73.724 73.724 33.112 73.724 73.724 73.724z" fill="#521b96"/><path d="M717.245 152.602c33.98 0 61.684-27.755 61.684-61.735s-27.705-61.683-61.684-61.683S655.5 56.888 655.5 90.867c.05 33.98 27.755 61.735 61.735 61.735z" class="B"/><path d="M717.245 144.286c29.388 0 53.367-23.98 53.367-53.42 0-29.387-23.98-53.367-53.367-53.367s-53.418 23.98-53.418 53.367c.05 29.44 24.03 53.42 53.418 53.42z" class="C"/><path d="M717.245 131.378c22.296 0 40.46-18.215 40.46-40.51s-18.214-40.46-40.46-40.46c-22.296 0-40.5 18.214-40.5 40.46.05 22.296 18.214 40.51 40.5 40.51z" class="D"/><path d="M717.245 118.57c15.255 0 27.704-12.45 27.704-27.704s-12.45-27.704-27.704-27.704-27.704 12.45-27.704 27.704S702 118.57 717.245 118.57z" class="E"/><path d="M1739.17 345.28c-33.98 0-61.684 27.755-61.684 61.734S1705.2 468.7 1739.17 468.7s61.735-27.704 61.735-61.684c-.05-33.98-27.755-61.734-61.735-61.734z" class="B"/><path d="M1739.17 353.597c-29.388 0-53.367 23.98-53.367 53.418 0 29.388 23.98 53.368 53.367 53.368s53.418-23.98 53.418-53.368c-.05-29.438-24.03-53.418-53.418-53.418z" class="C"/><use xlink:href="#B" class="D"/><use xlink:href="#C" class="E"/><path d="M1914.08 206.756c-33.98 0-61.684 27.755-61.684 61.735s27.704 61.684 61.684 61.684 61.735-27.705 61.735-61.684c-.05-33.98-27.755-61.735-61.735-61.735z" class="B"/><path d="M1914.08 215.072c-29.388 0-53.367 23.98-53.367 53.42 0 29.388 23.98 53.367 53.367 53.367s53.418-23.98 53.418-53.367c-.05-29.44-24.03-53.42-53.418-53.42z" class="C"/><use xlink:href="#B" x="174.91" y="-138.525" class="D"/><use xlink:href="#C" x="174.91" y="-138.523" class="E"/><path d="M1395.2 489.388c50.357 0 91.378-41.072 91.378-91.378 0-50.357-41.072-91.428-91.378-91.428-50.357 0-91.428 41.07-91.428 91.428s41.02 91.378 91.428 91.378z" fill="#23196e"/><path d="M1395.2 477.092c43.572 0 79.082-35.5 79.082-79.082s-35.5-79.08-79.082-79.08-79.082 35.5-79.082 79.08c-.05 43.572 35.51 79.082 79.082 79.082z" fill="#211f6f"/><path d="M1395.2 457.96c33 0 59.95-26.94 59.95-59.95s-26.94-60-59.95-60c-33.06 0-60 26.94-60 60s26.94 59.95 60 59.95z" fill="#1d2870"/><path d="M1395.2 439.03c22.602 0 41.02-18.42 41.02-41.02S1417.802 357 1395.2 357s-41.02 18.418-41.02 41.02c-.05 22.602 18.367 41.02 41.02 41.02z" fill="#1a2e72"/><path d="M244.95 10.612c-50.357 0-91.377 41.072-91.377 91.378 0 50.357 41.07 91.428 91.377 91.428 50.357 0 91.43-41.07 91.43-91.428s-41.02-91.378-91.43-91.378z" fill="#23196e"/><path d="M244.95 22.908c-43.57 0-79.082 35.5-79.082 79.082s35.51 79.08 79.082 79.08 79.082-35.5 79.082-79.08c.05-43.572-35.51-79.082-79.082-79.082z" fill="#211f6f"/><path d="M244.95 42.04c-33 0-59.95 26.94-59.95 59.95s26.94 60 59.95 60c33.06 0 60-26.94 60-60s-26.94-59.95-60-59.95z" fill="#1d2870"/><path d="M244.95 60.97c-22.602 0-41.02 18.42-41.02 41.02S222.348 143 244.95 143s41.02-18.418 41.02-41.02c.05-22.602-18.367-41.02-41.02-41.02z" fill="#1a2e72"/><path d="M1351.02 128.06c12.858 0 23.317-10.46 23.317-23.316s-10.46-23.316-23.317-23.316-23.316 10.46-23.316 23.316 10.46 23.316 23.316 23.316z" class="B"/><path d="M1351.02 124.95c11.123 0 20.204-9.082 20.204-20.153 0-11.123-9.08-20.204-20.204-20.204s-20.153 9.08-20.153 20.204c-.05 11.07 9.03 20.153 20.153 20.153z" class="C"/><path d="M1351.02 120.05c8.42 0 15.307-6.888 15.307-15.306s-6.888-15.306-15.307-15.306-15.306 6.888-15.306 15.306 6.837 15.306 15.306 15.306z" class="D"/><path d="M1351.02 115.204c5.766 0 10.46-4.694 10.46-10.46s-4.694-10.46-10.46-10.46-10.46 4.694-10.46 10.46 4.694 10.46 10.46 10.46z" class="E"/><path d="M289.134 371.94c-12.857 0-23.317 10.46-23.317 23.316s10.46 23.316 23.317 23.316 23.316-10.46 23.316-23.316-10.46-23.316-23.316-23.316z" class="B"/><path d="M289.134 375.05c-11.123 0-20.204 9.082-20.204 20.153 0 11.123 9.08 20.204 20.204 20.204s20.153-9.08 20.153-20.204c.05-11.07-9.03-20.153-20.153-20.153z" class="C"/><path d="M289.134 379.95c-8.42 0-15.306 6.888-15.306 15.306s6.887 15.306 15.306 15.306 15.306-6.888 15.306-15.306-6.837-15.306-15.306-15.306z" class="D"/><path d="M289.134 384.796c-5.766 0-10.46 4.694-10.46 10.46s4.693 10.46 10.46 10.46 10.46-4.694 10.46-10.46-4.694-10.46-10.46-10.46z" class="E"/><path d="M1767.64 18.597c-24.95 0-45.255 20.306-45.255 45.255s20.357 45.255 45.255 45.255c24.95 0 45.306-20.357 45.306-45.255-.05-24.898-20.357-45.255-45.306-45.255z" class="F"/><path d="M1767.64 24.72c-21.58 0-39.183 17.602-39.183 39.184s17.602 39.184 39.183 39.184 39.184-17.602 39.184-39.184-17.602-39.184-39.184-39.184z" fill="#23236d"/><path d="M1767.64 34.158c-16.377 0-29.694 13.316-29.694 29.694s13.317 29.694 29.694 29.694 29.694-13.316 29.694-29.694c0-16.326-13.316-29.694-29.694-29.694z" fill="#222c6d"/><path d="M1767.64 43.546c-11.173 0-20.306 9.133-20.306 20.306s9.133 20.306 20.306 20.306 20.306-9.132 20.306-20.306-9.132-20.306-20.306-20.306z" fill="#22356e"/><path d="M774.745 243.367c9.694 0 17.653-7.908 17.653-17.653s-7.908-17.602-17.653-17.602c-9.694 0-17.602 7.908-17.602 17.602s7.908 17.653 17.602 17.653z" class="G"/><path d="M774.745 241.02c8.418 0 15.255-6.836 15.255-15.255s-6.837-15.255-15.255-15.255c-8.367 0-15.255 6.837-15.255 15.255 0 8.368 6.888 15.255 15.255 15.255z" class="F"/><path d="M774.745 237.296a11.61 11.61 0 0 0 11.582-11.582 11.61 11.61 0 0 0-11.582-11.581 11.61 11.61 0 0 0-11.582 11.581c0 6.378 5.255 11.582 11.582 11.582z" class="H"/><path d="M774.745 233.673c4.388 0 7.908-3.57 7.908-7.908s-3.57-7.908-7.908-7.908-7.908 3.572-7.908 7.908 3.57 7.908 7.908 7.908z" class="I"/><use xlink:href="#D" class="G"/><path d="M1681.67 256.862c-8.418 0-15.255 6.837-15.255 15.255s6.837 15.255 15.255 15.255c8.367 0 15.255-6.836 15.255-15.255 0-8.367-6.888-15.255-15.255-15.255z" class="F"/><path d="M1681.67 260.587a11.61 11.61 0 0 0-11.582 11.581 11.61 11.61 0 0 0 11.582 11.582 11.61 11.61 0 0 0 11.582-11.582c0-6.377-5.256-11.58-11.582-11.58z" class="H"/><path d="M1681.67 264.21c-4.388 0-7.908 3.572-7.908 7.908s3.57 7.91 7.908 7.91 7.908-3.572 7.908-7.91-3.57-7.908-7.908-7.908z" class="I"/><path d="M568.766 469.46c9.693 0 17.653-7.908 17.653-17.653s-7.91-17.602-17.653-17.602c-9.694 0-17.603 7.908-17.603 17.602s7.91 17.653 17.603 17.653z" class="G"/><path d="M568.766 467.113c8.418 0 15.255-6.837 15.255-15.255s-6.837-15.255-15.255-15.255c-8.368 0-15.256 6.837-15.256 15.255 0 8.367 6.888 15.255 15.256 15.255z" class="F"/><path d="M568.766 463.389c6.377 0 11.581-5.204 11.581-11.582s-5.204-11.582-11.581-11.582c-6.378 0-11.582 5.204-11.582 11.582s5.255 11.582 11.582 11.582z" class="H"/><path d="M568.766 459.766c4.387 0 7.908-3.57 7.908-7.908s-3.572-7.908-7.908-7.908-7.91 3.57-7.91 7.908 3.572 7.908 7.91 7.908z" class="I"/><use xlink:href="#D" x="205.98" y="-226.092" class="G"/><path d="M1887.65 30.77c-8.418 0-15.255 6.836-15.255 15.255s6.837 15.255 15.255 15.255c8.368 0 15.255-6.837 15.255-15.255 0-8.368-6.887-15.255-15.255-15.255z" class="F"/><path d="M1887.65 34.494a11.61 11.61 0 0 0-11.581 11.582 11.61 11.61 0 0 0 11.581 11.581 11.61 11.61 0 0 0 11.582-11.581c0-6.378-5.255-11.582-11.582-11.582z" class="H"/><path d="M1887.65 38.117c-4.387 0-7.908 3.57-7.908 7.908s3.572 7.908 7.908 7.908 7.908-3.572 7.908-7.908-3.57-7.908-7.908-7.908z" class="I"/><path d="M750.138 379.67c35.786 0 64.973-29.187 64.973-64.973s-29.187-64.972-64.973-64.972-64.973 29.187-64.973 64.972c0 35.66 29.187 64.973 64.973 64.973z" fill="#69f"/><path d="M794.807 267.363c2.41 2.284 4.695 4.822 6.852 7.487-4.95.127-9.898.127-14.974.127-31.725 0-61.04-1.65-84.515-4.315.888-1.015 1.776-1.903 2.792-2.92 12.7.635 26.268.89 40.1.89 17.64 0 34.4-.38 49.745-1.27zm14.847 20.938c.38.888.76 1.904 1.142 2.792-16.75 18.4-53.68 38.324-95.682 50.125-7.488 2.03-14.72 3.807-21.7 5.203-2.92-5.203-5.076-10.786-6.472-16.75 14.213-1.015 30.836-3.933 48.602-8.883 28.68-7.994 55.075-19.796 74.1-32.486zm3.553 42.638c-.127.635-.38 1.396-.634 2.03-13.452 6.218-28.426 11.675-44.162 16.116-25.887 7.36-49.237 10.152-66.622 9-2.538-2.92-4.95-6.09-6.98-9.39 17.004 5.71 47.968 4.188 83.753-5.964 12.183-3.3 23.73-7.36 34.644-11.802zm-21.446 33.756c-5.584 4.695-12.055 8.375-19.035 10.913-17.258-.127-33.628-.634-48.73-1.523-7.36-3.3-13.96-7.74-19.543-13.324 22.97 2.41 51.14 3.934 81.47 3.934z" fill="#66bdff"/><path d="M797.09 359.746c-11.802 12.31-28.426 19.923-46.953 19.923-35.913 0-64.973-29.187-64.973-64.973 0-35.912 29.187-64.972 64.973-64.972l-21.32 14.212 3.553 6.092-4.95 12.31 4.06 16.116 7.994 4.695 1.016 9-7.234 9.39-13.96-2.41-.634.634-8.883 15.863 6.472 11.548.634.127 17.512.76 11.548-7.233 4.442 5.33 5.456 1.016-1.395 5.583h.76l13.324 1.142c2.538-1.27.762-.38 1.016-.634l8.502-9.39-11.802-7.233 2.538-6.09 11.675-3.934 5.33 9.137-3.3 8.248 3.934 5.33-10.913 9.264-4.315-1.396-1.903 3.172 7.614 4.695 12.31-6.725zm-5.457-35.278l-5.7-1.016-.127-3.807 4.822-1.396.254-.126 3.172 2.41-.38 1.522zm-68.272 19.923l-1.015-1.015 1.142-2.41 1.142.888zm15.1-15.355l-2.538-1.396-1.396 1.142v2.157l2.538 1.016 2.538-3.173zM761.94 266.6l-1.523-2.792 1.142-1.27 2.157.38v3.3zm-13.832 18.78l-2.538-3.172 1.776-1.015 2.538.76.38 2.538zm14.847 8.25l-12.183.38-2.538 6.598 4.95 4.315 6.47-4.06-1.015-3.68 3.553-.76zm-43.527-23.857l-6.09 1.523-2.157 7.614 8.375 3.933 3.934-6.218zm-12.055 39.466l-.635 2.03 2.03 1.523 1.015-2.792zm2.03 8.756l-6.6-1.777-3.172 5.71 5.456 3.933 7.995-6.725zm13.325-16.37l3.933-.38-.126 2.538h-3.68v-2.157zm-9.39-11.548l-4.315-.127v2.92l4.696 1.395z" fill="#426ec7"/><path d="M791.76 364.695c-5.584 4.695-12.055 8.375-19.035 10.913-17.258-.127-33.628-.634-48.73-1.523-7.36-3.3-13.96-7.74-19.543-13.324 20.558 2.284 45.176 3.553 71.825 3.807l.89.507.888-.507h7.995c1.776.127 3.68.127 5.7.127zm-89.845-6.6c-2.538-2.92-4.95-6.09-6.98-9.39 13.324 4.442 35.024 4.442 60.91-.507l-1.015 4.314c-20.43 4.823-38.704 6.6-52.917 5.584zm-8.375-11.548c-2.92-5.203-5.076-10.786-6.472-16.75 8.756-.634 18.273-1.903 28.552-3.934l-5.457 9.772 3.427 6.218a553.797 553.797 0 0 1-20.05 4.695zm8.63-75.886c.888-1.015 1.776-1.903 2.792-2.92l26.65.762.76 1.27-1.27 3.3-9.898-.76-1.65-2.792-6.09 1.523-.127.507c-3.934-.127-7.614-.38-11.167-.888zm73.348 76.394L778.3 344l-1.142-.76a33.3 33.3 0 0 1 1.649-.381l5.203-1.523-1.142 2.792.38.508c-2.792.76-5.203 1.65-7.74 2.41zm-37.055-18.02l-2.538-1.396-1.396 1.142v2.157l2.538 1.016 2.538-3.173z" fill="#2f83c4"/><path d="M750.138 249.597c35.913 0 64.973 29.06 64.973 64.972 0 29.06-19.035 53.68-45.43 62.054 23.858-9.644 40.608-32.994 40.608-60.277 0-35.913-29.06-64.973-64.972-64.973a66.162 66.162 0 0 0-19.543 2.92c7.487-3.046 15.863-4.695 24.365-4.695z" class="J"/><path d="M1655.37 168.4c-18.6 18.598-18.6 48.937 0 67.535s48.936 18.6 67.535 0 18.6-48.937 0-67.535c-18.533-18.533-48.937-18.6-67.535 0z" fill="#69f"/><path d="M1690.52 249.983c-2.44.066-4.946-.066-7.452-.33 2.506-2.638 5.078-5.2 7.716-7.848 16.488-16.488 32.58-30.866 46.167-41.682.066.99.066 1.913.066 2.968-6.925 6.265-14.114 13.2-21.303 20.38-9.167 9.168-17.675 18.07-25.194 26.513zm-18.598-3.166c-.66-.263-1.385-.593-2.045-.857-.857-18.27 7.98-47.816 23.677-75.78 2.836-4.946 5.672-9.63 8.574-13.98a46.81 46.81 0 0 1 12.069 5.342c-6.86 7.914-13.982 18.07-20.643 29.876-10.75 19.06-18.335 38.912-21.632 55.4zm-24.007-20.313a9.163 9.163 0 0 1-.726-1.385c3.76-10.223 8.706-20.84 14.576-31.327 9.63-17.28 20.313-30.866 29.943-39.308 2.835.198 5.737.593 8.507 1.253-11.805 5.87-27.106 22.754-40.43 46.628-4.616 8.047-8.507 16.16-11.87 24.14zm-6.397-28.69c.46-5.343 1.912-10.62 4.22-15.565 9.035-8.904 17.807-17.148 26.117-24.535 5.54-2.1 11.278-3.23 17.08-3.23-13.2 10.684-28.623 24.534-44.386 40.297l-3.033 3.034z" fill="#66bdff"/><path d="M1641.32 203.157c-.264-12.53 4.42-25.128 14.048-34.757 18.664-18.665 48.936-18.6 67.535 0 18.665 18.664 18.6 48.937 0 67.535l3.693-18.466-5.012-1.32-3.825-8.97-10.487-6.266-6.595 1.715-5.2-4.155-1.12-8.64 8.508-6v-.66l-3.628-12.86-9.365-2.638-.396.264-9.497 8.706-2.242 9.76-5.08-.462-3.363 2.31-2.177-3.628-.396.396-7.518 6.33c-.66 1.98-.198.594-.198.858l.462 9.3 9.893-2.374 1.846 4.484-4.023 8.113-7.518-1.98-2.573-6.002-4.814-.725.857-10.487 2.968-1.516-.66-2.64-6.398 1.517-2.902 9.893zm21.17 15.5l3.496-2.44 2.045 1.913-1.78 3.232-.066.198-2.902.395-.594-.99zm25.128-45.837h1.056l.66 1.846-1.055.132zm.132 15.828l2.045-.593.132-1.32-1.12-1.122-1.847.792.33 2.968zm20.248 44.65l2.242.66.066 1.253-1.32.923-1.715-1.715zm-2.572-16.95l2.968.33-.396 1.45-1.715.923-1.517-1.12zm-12.004 3.43l6.134-6.53-2.11-4.75-4.814.33-1.253 5.474 2.44 1.385-1.45 2.242zm35.02-10.223l2.374-3.957-2.836-5.078-6.397 2.308 1.187 5.276zm-14.246-26.777l-.725-1.385-1.847.264.924 1.98zm-5.606-3.495l4.353-2.506-1.32-4.617-4.88.792-.66 7.65zm1.583 15.433l-1.846 2.242-1.254-1.385 1.913-1.912 1.12 1.12zm10.882 1.12l2.31-2.176-1.517-1.517-3.166 1.714z" fill="#426ec7"/><path d="M1641.52 197.815c.46-5.343 1.912-10.62 4.22-15.565 9.035-8.904 17.807-17.148 26.117-24.535 5.54-2.1 11.278-3.23 17.08-3.23-11.87 9.497-25.325 21.632-39.307 35.35l-.726.198-.198.726-4.155 4.155c-.99.857-1.978 1.846-3.033 2.902zm50.124-43.265c2.836.198 5.737.593 8.507 1.253-9.233 4.617-20.51 15.894-31.393 31.92l-1.715-2.77c8.112-13.125 16.686-23.545 24.6-30.404zm10.354 1.65a46.81 46.81 0 0 1 12.069 5.342c-4.22 4.88-8.507 10.486-12.794 16.884l-2.243-7.915-5.012-1.45a409.34 409.34 0 0 1 7.98-12.86zm34.955 43.924c.066.99.066 1.913.066 2.968a653.375 653.375 0 0 0-14.246 13.454l-1.055-.264-1.055-2.374 5.54-4.748 2.308.593 2.374-3.957-.197-.33c2.1-1.978 4.155-3.76 6.265-5.342zm-77.824-1.583l.132 3.034.99-.198c-.198.33-.396.66-.66 1.055l-1.913 3.496-.857-2.045-.462-.066c1.055-1.846 1.847-3.56 2.77-5.276zm28.623-9.893l2.045-.593.132-1.32-1.12-1.122-1.847.792.33 2.968z" fill="#2f83c4"/><path d="M1722.97 236c-18.665 18.665-48.87 18.665-67.535 0-15.104-15.103-18.006-37.8-8.64-55.862-7.387 17.412-3.957 38.253 10.222 52.433 18.665 18.664 48.87 18.664 67.536 0a48.73 48.73 0 0 0 8.64-11.674c-2.3 5.474-5.804 10.684-10.223 15.103zm-382.4-6.46l3.47.153h-.817c-19.847 0-35.918 16.07-35.918 35.918 0 18.674 14.235 33.98 32.45 35.766-19.44-.4-35.102-16.327-35.102-35.92.05-19.847 16.122-35.918 35.918-35.918z" class="J"/><path d="M1340.56 301.327c19.796 0 35.92-16.123 35.92-35.92 0-19.745-16.123-35.867-35.92-35.867-19.745 0-35.867 16.122-35.867 35.867 0 19.796 16.122 35.92 35.867 35.92z" fill="#f66"/><path d="M1340.56 229.54c19.847 0 35.92 16.07 35.92 35.867 0 19.847-16.072 35.92-35.92 35.92-3.622-.97-11.224-1.582-10-4.95.612-1.684 5.408.663 10.153 1.07 6.327.46 12.96-.816 13.725-2.857 1.07-3.06-6.53-1.02-15.306-1.48-10.41-.56-22.347-3.622-22.04-8.47.255-3.674 10.714 1.07 21.02 2 10.5.97 20.868-1.94 21.43-8.062.56-6.224-9.592-4.642-21.327-4.898-10.97-.255-24.898-3.98-25.357-10.612-.5-7.143 10.714-4.183 21.327-4.388 10.714-.204 20.867-3.622 18.98-10.765-1.02-3.877-7.398-1.428-15.306-1.07-7.96.357-17.5-1.327-18.112-4.592-1.123-6.123 13.265-11.94 20.816-12.704z" class="K"/><path d="M305.8 295.604a63.29 63.29 0 0 1-5.667-.25h1.333c32.42 0 58.674-26.253 58.674-58.674 0-30.503-23.253-55.506-53.007-58.423 31.754.666 57.34 26.67 57.34 58.673-.083 32.42-26.336 58.674-58.673 58.674z" class="J"/><path d="M305.8 178.34c-32.337 0-58.674 26.336-58.674 58.673 0 32.254 26.337 58.59 58.674 58.59 32.254 0 58.6-26.337 58.6-58.59 0-32.337-26.336-58.673-58.6-58.673z" fill="#f66"/><path d="M305.8 295.604c-32.42 0-58.674-26.253-58.674-58.59 0-32.42 26.253-58.673 58.674-58.673 5.917 1.584 18.335 2.584 16.335 8.084-1 2.75-8.834-1.083-16.585-1.75-10.335-.75-21.17 1.334-22.42 4.667-1.75 5 10.668 1.667 25.002 2.417 17.002.917 36.505 5.918 36.005 13.835-.417 6-17.502-1.75-34.338-3.25-17.168-1.584-34.087 3.167-35.004 13.168-.916 10.168 15.67 7.584 34.838 8 17.918.417 40.67 6.5 41.42 17.335.834 11.668-17.502 6.834-34.837 7.168-17.502.333-34.088 5.917-31.004 17.585 1.667 6.334 12.085 2.334 25.003 1.75 13.002-.583 28.587 2.167 29.587 7.5 1.833 10-21.67 19.502-34.004 20.753z" class="K"/><path d="M643.488 182.4c7.86 0 14.26-6.4 14.26-14.258 0-7.838-6.4-14.238-14.26-14.238-7.838 0-14.238 6.4-14.238 14.238 0 7.858 6.4 14.258 14.238 14.258z" fill="#f66"/><path d="M633.738 159.422c5.474-5.667 14.495-5.822 20.147-.362 5.666 5.474 5.82 14.495.347 20.16-1.276.767-3.547 2.77-4.17 1.5-.312-.64 1.68-1.36 3.106-2.603 1.876-1.68 3.342-3.925 2.97-4.706-.578-1.15-2.092 1.583-4.644 3.962-3.03 2.816-7.198 5.38-8.497 3.956-.98-1.086 3.26-2.763 6.366-5.452 3.175-2.734 5.202-6.493 3.61-8.34-1.623-1.877-3.97 1.457-7.28 4.737-3.098 3.06-8.003 6.01-10.024 4.312-2.18-1.824 1.76-4.212 4.63-7.298 2.897-3.116 4.72-6.957 2.16-8.388-1.388-.778-2.448 1.718-4.527 4.074-2.093 2.37-5.206 4.63-6.307 3.904-2.057-1.368.25-7.08 2.115-9.446z" class="K"/><path d="M643.488 153.903l1.378.06h-.324c-7.88 0-14.26 6.38-14.26 14.258 0 7.413 5.65 13.49 12.88 14.198-7.716-.162-13.934-6.48-13.934-14.26.02-7.878 6.4-14.258 14.258-14.258z" class="J"/><path d="M1331.53 405.5c60.102 0 110.97 39.796 127.602 94.5H1203.98c16.58-54.694 67.398-94.5 127.55-94.5zM279.754 75.02c-47.717 0-88.103-31.595-101.308-75.02H381.02c-13.164 43.424-53.5 75.02-101.267 75.02z" fill="#96f"/><path d="M187.52 21.104c-3.726-6.602-6.805-13.69-9.033-21.104h197.918c-14.664 40.83-53.753 70.037-99.607 70.037-37.55 0-70.482-19.525-89.278-48.933z" fill="#321791"/><path d="M193.595 22.238C190.8 17.297 188.532 5.51 186.83 0h147.526c-7.453 20.74-17.337 13.165-37.55 21.752-9.438 4-25.803 30.462-36.7 30.462-10.45 0-20.66-7.292-29.773-10.978-15.31-6.197-27.95-5.266-36.74-18.998zM304.22 58.33a1.59 1.59 0 0 1-1.58-1.62c0-.89.73-1.62 1.58-1.62.89 0 1.58.73 1.58 1.62s-.69 1.62-1.58 1.62zm-29.246 5.55a1.86 1.86 0 0 1-1.863-1.864c0-1.053.8-1.904 1.863-1.904 1.013 0 1.863.85 1.863 1.904-.04 1.013-.85 1.864-1.863 1.864zm7.413-8.426c-1.418 0-2.593-1.175-2.593-2.592s1.135-2.593 2.593-2.593c1.418 0 2.552 1.175 2.552 2.593.04 1.417-1.134 2.592-2.552 2.592zm43.585-25.357c-2.146 0-3.888-1.783-3.888-3.97s1.742-3.97 3.888-3.97c2.188 0 3.93 1.783 3.93 3.97-.04 2.187-1.783 3.97-3.93 3.97zm19.444 1.336c-4.496 0-8.142-3.686-8.142-8.263 0-4.537 3.646-8.263 8.142-8.263s8.142 3.686 8.142 8.263c-.04 4.577-3.686 8.263-8.142 8.263z" fill="#220b78"/><path d="M169.2 38.522a.71.71 0 0 0-.689.689.71.71 0 0 0 .689.688.71.71 0 0 0 .689-.688c-.04-.405-.324-.69-.69-.69z" fill="#fff"/><path d="M1447.7 473.418c4.694 8.317 8.572 17.245 11.378 26.582h-249.286c18.47-51.43 67.704-88.214 125.46-88.214 47.296 0 88.776 24.592 112.45 61.632z" fill="#321791"/><path d="M1440.05 472c3.52 6.224 6.378 21.07 8.52 28h-185.816c9.388-26.122 21.837-16.582 47.296-27.398 11.888-5.05 32.5-38.367 46.225-38.367 13.163 0 26.02 9.183 37.5 13.826 19.285 7.806 35.204 6.633 46.275 23.93zm-139.337-45.46c1.072 0 2 .867 2 2.04 0 1.123-.918 2.04-2 2.04-1.122 0-2-.918-2-2.04s.868-2.04 2-2.04zm36.837-7a2.34 2.34 0 0 1 2.347 2.347c0 1.326-1.02 2.398-2.347 2.398-1.275 0-2.347-1.072-2.347-2.398.05-1.276 1.072-2.347 2.347-2.347zm-9.337 10.612a3.29 3.29 0 0 1 3.266 3.265 3.257 3.257 0 0 1-3.266 3.266c-1.785 0-3.214-1.48-3.214-3.266-.05-1.785 1.43-3.265 3.214-3.265zm-54.898 31.94c2.704 0 4.898 2.245 4.898 5s-2.194 5-4.898 5c-2.755 0-4.95-2.245-4.95-5 .05-2.755 2.245-5 4.95-5zm-24.49-1.684c5.663 0 10.255 4.643 10.255 10.408 0 5.715-4.592 10.408-10.255 10.408s-10.256-4.642-10.256-10.408c.05-5.765 4.643-10.408 10.256-10.408z" fill="#220b78"/><path d="M868.265 135.97c4.286 0 7.806-3.52 7.806-7.806s-3.52-7.806-7.806-7.806-7.806 3.52-7.806 7.806c0 4.337 3.52 7.806 7.806 7.806zm719.885 225.943c-4.286 0-7.807 3.52-7.807 7.806s3.52 7.807 7.807 7.807 7.806-3.52 7.806-7.807a7.81 7.81 0 0 0-7.806-7.806z" fill="#7c1370"/><path d="M872.55 121.633c2.143 1.428 3.52 3.826 3.52 6.53 0 4.337-3.52 7.806-7.806 7.806-.306 0-.612 0-.918-.05-2.143-1.377-3.52-3.826-3.52-6.53 0-4.286 3.52-7.806 7.806-7.806.306 0 .612.05.918.05zm711.32 254.617c-2.143-1.43-3.52-3.827-3.52-6.53a7.81 7.81 0 0 1 7.807-7.806c.306 0 .612 0 .918.05 2.143 1.378 3.52 3.827 3.52 6.53 0 4.286-3.52 7.806-7.806 7.806-.306 0-.612-.05-.918-.05z" fill="#be2385"/><path d="M1053.57 303.776c29.643 0 53.776-24.184 53.776-53.776s-24.133-53.776-53.776-53.776-53.775 24.184-53.775 53.776 24.133 53.776 53.775 53.776z" fill="#6838a4"/><path d="M1053.57 292.296c23.266 0 42.296-18.98 42.296-42.296s-18.98-42.296-42.296-42.296c-23.265 0-42.295 18.98-42.295 42.296s19.03 42.296 42.295 42.296z" fill="#794dae"/><path d="M1053.57 283c18.164 0 33.01-14.796 33.01-33s-14.796-33-33.01-33c-18.163 0-33 14.847-33 33s14.847 33 33 33z" fill="#9e7ec5"/><path d="M1053.57 278.57c15.715 0 28.572-12.806 28.572-28.57 0-15.714-12.806-28.57-28.572-28.57-15.714 0-28.57 12.857-28.57 28.57s12.857 28.57 28.57 28.57z" fill="#fff"/><path d="M1235.3 96.888c7.908 0 14.337-6.43 14.337-14.337s-6.43-14.337-14.337-14.337-14.337 6.43-14.337 14.337 6.43 14.337 14.337 14.337zM404.848 403.112c-7.908 0-14.337 6.43-14.337 14.337s6.43 14.337 14.337 14.337 14.337-6.43 14.337-14.337-6.43-14.337-14.337-14.337z" fill="#366"/><path d="M1243.57 94.286c-2.347 1.683-5.204 2.602-8.265 2.602-7.908 0-14.337-6.43-14.337-14.337a14.04 14.04 0 0 1 1.43-6.173 14.127 14.127 0 0 1 8.265-2.654c7.908 0 14.337 6.43 14.337 14.337 0 2.245-.5 4.337-1.43 6.225zm-4.6-21.174a.97.97 0 0 1 .969.97c0 .5-.46.97-.97.97a.97.97 0 0 1-.97-.969c-.05-.562.408-.97.97-.97zm5.97 4.082c.204 0 .357.153.357.357s-.153.357-.357.357-.357-.204-.357-.357.153-.357.357-.357zm-848.367 328.52c2.347-1.683 5.204-2.602 8.265-2.602 7.908 0 14.337 6.43 14.337 14.337 0 2.194-.5 4.286-1.43 6.173a14.127 14.127 0 0 1-8.265 2.654c-7.908 0-14.337-6.43-14.337-14.337 0-2.245.5-4.337 1.43-6.225zm4.592 21.174a.97.97 0 0 1-.97-.97c0-.5.46-.97.97-.97a.97.97 0 0 1 .969.969c.05.562-.408.97-.97.97zm-5.97-4.082c-.204 0-.357-.153-.357-.357s.153-.357.357-.357.357.204.357.357-.153.357-.357.357z" fill="#699"/><path d="M1230.3 75.867c.816 0 1.53.664 1.53 1.53s-.715 1.53-1.53 1.53a1.531 1.531 0 1 1 0-3.062zm4.44 12c.204 0 .357.153.357.357s-.153.357-.357.357-.357-.153-.357-.357.153-.357.357-.357zm2.5-9.388c.204 0 .357.153.357.358s-.153.357-.357.357-.357-.153-.357-.357.204-.358.357-.358zm4.235 4.847c.204 0 .357.153.357.357a.35.35 0 0 1-.357.358c-.204 0-.358-.204-.358-.358s.205-.357.358-.357zm-2.143 7.04c.408 0 .714.306.714.714s-.306.766-.714.766-.715-.357-.715-.766.307-.714.715-.714zm-6.378 3.776c.408 0 .765.306.765.714s-.357.765-.765.765-.714-.357-.714-.765.306-.714.714-.714zm9.847-2.296c.5 0 .97.46.97.97a.97.97 0 0 1-.97.97.94.94 0 0 1-.97-.97c0-.5.46-.97.97-.97zm-3.265-11.174c.5 0 .97.46.97.97a.97.97 0 0 1-.969.969.97.97 0 0 1-.97-.969c-.05-.5.4-.97.97-.97zm-13.52.868a.97.97 0 0 1 .97.969.97.97 0 0 1-.97.969.97.97 0 0 1-.969-.969c0-.5.46-.97.97-.97zM409.848 424.133c-.816 0-1.53-.664-1.53-1.53s.715-1.53 1.53-1.53a1.531 1.531 0 1 1 0 3.062zm-4.44-12c-.204 0-.357-.153-.357-.357s.153-.357.357-.357.357.153.357.357-.153.357-.357.357zm-2.5 9.388c-.204 0-.357-.153-.357-.358s.153-.357.357-.357.357.153.357.357-.204.358-.357.358zm-4.234-4.847a.349.349 0 0 1-.358-.357.35.35 0 0 1 .358-.358c.204 0 .357.204.357.358s-.204.357-.357.357zm2.142-7.04c-.408 0-.714-.306-.714-.714s.306-.766.714-.766.715.357.715.766-.306.714-.715.714zm6.378-3.776c-.408 0-.765-.306-.765-.714s.357-.765.765-.765.714.357.714.765-.306.714-.714.714zm-9.847 2.296c-.5 0-.97-.46-.97-.97a.97.97 0 0 1 .969-.97.94.94 0 0 1 .97.97c0 .5-.46.97-.97.97zm3.265 11.174c-.5 0-.97-.46-.97-.97a.97.97 0 0 1 .969-.969.97.97 0 0 1 .97.969c.05.5-.408.97-.97.97zm13.52-.868a.97.97 0 0 1-.97-.969.97.97 0 0 1 .97-.969.97.97 0 0 1 .969.969c0 .5-.46.97-.97.97z" fill="#366"/><path d="M764.592 475.765c.46 0 .97.102 1.377.357s48.98-27.244 49.235-26.836c.306.46-47.755 28.775-47.755 29.336a2.8 2.8 0 1 1-5.612 0 2.77 2.77 0 0 1 2.755-2.857zM1691.82 22.117c-.46 0-.97-.102-1.378-.357s-48.98 27.245-49.234 26.837c-.306-.46 47.755-28.776 47.755-29.337a2.8 2.8 0 0 1 2.806-2.806 2.799 2.799 0 0 1 2.806 2.806 2.77 2.77 0 0 1-2.755 2.857z" fill="#ffc"/><path d="M764.592 480.765c1.224 0 2.194-1.02 2.194-2.194a2.21 2.21 0 0 0-2.194-2.193c-1.224 0-2.194.97-2.194 2.193a2.21 2.21 0 0 0 2.194 2.194zM1691.82 17.117a2.21 2.21 0 0 0-2.194 2.194 2.21 2.21 0 0 0 2.194 2.194 2.18 2.18 0 0 0 2.194-2.194c0-1.224-1.02-2.194-2.194-2.194z" fill="#ff6"/><path d="M764.44 480.255a1.48 1.48 0 0 0 1.479-1.479 1.48 1.48 0 0 0-1.479-1.48 1.48 1.48 0 0 0-1.48 1.48 1.48 1.48 0 0 0 1.48 1.479zm927.54-462.627a1.48 1.48 0 1 0 1.48 1.479 1.48 1.48 0 0 0-1.48-1.479z" fill="#fc0"/><path d="M824.898 443.367c.102-.05 74.898-43.52 75-43.367s-74.337 44.133-74.5 44.235c-1.02.612-1.428-.306-.5-.868z" fill="#ffc"/><path d="M0 10.706c54.3 42.12 89.32 107.962 89.32 182.048C89.32 266.78 54.3 332.68 0 374.8V10.706z" fill="#96f"/><path d="M0 350.664V14.23c44.99 42.003 73.07 101.81 73.07 168.188S44.99 308.662 0 350.664z" fill="#039"/><path d="M0 276.698V26c11.232 10.516 28.26 25.632 35.908 39.134 12.606 22.166 6.154 37.163 6.154 64.467 0 16.19 14.936 53.83 11.35 69.784C47.26 226.75 39.433 260.626 0 276.698z" fill="#082c73"/><g fill="#fff"><path d="M935.714 58.878c.715 0 1.276-.562 1.276-1.276s-.56-1.224-1.276-1.224-1.275.56-1.275 1.224a1.26 1.26 0 0 0 1.275 1.276zM1520.7 439.005a1.26 1.26 0 0 0-1.276 1.276c0 .714.56 1.224 1.276 1.224s1.275-.56 1.275-1.224a1.26 1.26 0 0 0-1.275-1.276zm-1401.247-378a1.26 1.26 0 0 0 1.275-1.276c0-.714-.56-1.224-1.275-1.224s-1.276.56-1.276 1.224a1.26 1.26 0 0 0 1.276 1.276zm733.965-17.168c.715 0 1.276-.562 1.276-1.276a1.275 1.275 0 1 0-2.551 0c0 .714.612 1.276 1.275 1.276zM1603 454.056a1.276 1.276 0 1 0 0 2.551 1.26 1.26 0 0 0 1.276-1.275c0-.715-.612-1.276-1.276-1.276zM820.663 144.643a1.275 1.275 0 1 0 0-2.551 1.26 1.26 0 0 0-1.275 1.275c0 .664.56 1.276 1.275 1.276zM1635.75 353.24a1.275 1.275 0 1 0 0 2.551 1.26 1.26 0 0 0 1.275-1.276c0-.663-.56-1.275-1.275-1.275z"/><use xlink:href="#E"/><path d="M1841.73 127.147a1.26 1.26 0 1 0 0 2.551 1.26 1.26 0 0 0 1.275-1.275c0-.664-.56-1.276-1.275-1.276zM890.918 272.602a1.275 1.275 0 1 0 0-2.551 1.26 1.26 0 0 0-1.275 1.276c0 .714.612 1.275 1.275 1.275zM1565.5 225.28a1.26 1.26 0 1 0 0 2.551c.715 0 1.276-.562 1.276-1.276s-.612-1.275-1.276-1.275zM822.795 359.536c.92 0 1.644-.723 1.644-1.578s-.724-1.644-1.644-1.644a1.63 1.63 0 0 0-1.644 1.644c0 .92.8 1.578 1.644 1.578zm810.825-221.2c-.92 0-1.644.724-1.644 1.58a1.67 1.67 0 0 0 1.644 1.643c.92 0 1.644-.723 1.644-1.643s-.8-1.58-1.644-1.58zM849.643 339.95a1.275 1.275 0 1 0 0-2.551 1.26 1.26 0 0 0-1.276 1.275 1.3 1.3 0 0 0 1.276 1.276zm757.127-182.016a1.26 1.26 0 0 0-1.276 1.275c0 .715.562 1.276 1.276 1.276s1.275-.562 1.275-1.276c0-.663-.56-1.275-1.275-1.275zM959.235 434.388a1.275 1.275 0 1 0 0-2.551 1.26 1.26 0 0 0-1.276 1.275c0 .766.612 1.276 1.276 1.276zm988.795-42.2a1.26 1.26 0 1 0 0 2.551c.715 0 1.276-.562 1.276-1.276 0-.765-.612-1.275-1.276-1.275zM925.255 457.092a1.26 1.26 0 0 0 1.276-1.276c0-.716-.562-1.224-1.276-1.224s-1.275.56-1.275 1.224a1.26 1.26 0 0 0 1.275 1.276z"/><use xlink:href="#F"/><path d="M663.663 383.866c.92 0 1.644-.723 1.644-1.643a1.63 1.63 0 0 0-1.644-1.644c-.92 0-1.644.723-1.644 1.644.065.92.8 1.643 1.644 1.643zm1129.087-269.85a1.63 1.63 0 1 0 0 3.288c.92 0 1.644-.723 1.644-1.644-.066-.92-.8-1.644-1.644-1.644zm-776.78 215.83a1.275 1.275 0 1 0 0-2.551 1.275 1.275 0 1 0 0 2.551zm117.13 52.908a1.275 1.275 0 1 0 0-2.551 1.26 1.26 0 0 0-1.275 1.276c0 .714.612 1.275 1.275 1.275zm-626.058-265.5a1.26 1.26 0 0 0-1.276 1.275c0 .715.562 1.276 1.276 1.276a1.26 1.26 0 0 0 1.275-1.276c0-.714-.612-1.275-1.275-1.275zM1242.76 279.44a1.26 1.26 0 1 0 0-2.551 1.275 1.275 0 1 0 0 2.551zM397.4 220.56a1.275 1.275 0 1 0 0 2.551 1.26 1.26 0 0 0 1.276-1.275c0-.715-.562-1.276-1.276-1.276zm925.97-40.662a1.275 1.275 0 1 0 0-2.551 1.26 1.26 0 0 0-1.275 1.275c0 .715.612 1.276 1.275 1.276z"/><use xlink:href="#G"/><path d="M1303.2 132.04a1.275 1.275 0 1 0 0-2.551 1.275 1.275 0 1 0 0 2.551zM336.94 367.96a1.26 1.26 0 1 0 0 2.551 1.276 1.276 0 1 0 0-2.551zm1463.65 43.385c.714 0 1.276-.562 1.276-1.276s-.562-1.275-1.276-1.275a1.26 1.26 0 0 0-1.275 1.275 1.23 1.23 0 0 0 1.275 1.276zM1274.24 22.45a1.26 1.26 0 0 0 1.275-1.276 1.276 1.276 0 1 0-2.551 0c0 .664.56 1.276 1.276 1.276zm-908.32 455.1a1.275 1.275 0 1 0 0 2.551 1.26 1.26 0 0 0 1.276-1.275c0-.664-.56-1.276-1.276-1.276z"/><use xlink:href="#E" x="1298.146" y="-19.595"/><path d="M1907.78 448.13a1.26 1.26 0 0 0 1.275-1.275c0-.714-.56-1.276-1.275-1.276s-1.276.562-1.276 1.276.562 1.275 1.276 1.275zm-513.85-205.222a1.275 1.275 0 1 0 0-2.551 1.275 1.275 0 1 0 0 2.551zm56.67 54.184a1.275 1.275 0 1 0 0-2.551 1.26 1.26 0 0 0-1.275 1.275c0 .715.612 1.276 1.275 1.276z"/><use xlink:href="#G" x="-127.245" y="-117.194"/><path d="M1420.4 386.53c.714 0 1.276-.562 1.276-1.276s-.562-1.224-1.276-1.224-1.275.56-1.275 1.224c0 .714.56 1.276 1.275 1.276z"/><use xlink:href="#F" x="-1762.254" y="-256.012"/><path d="M1257.86 378.98c.714 0 1.276-.562 1.276-1.276s-.562-1.275-1.276-1.275a1.26 1.26 0 0 0-1.275 1.275c0 .714.56 1.276 1.275 1.276zM382.297 121.02c-.714 0-1.276.562-1.276 1.276s.562 1.275 1.276 1.275a1.26 1.26 0 0 0 1.276-1.275c0-.715-.562-1.276-1.276-1.276zm808.773 319.694a1.275 1.275 0 1 0 0-2.551 1.26 1.26 0 0 0-1.275 1.276c.05.714.612 1.275 1.275 1.275zM449.083 59.286a1.276 1.276 0 1 0 0 2.551 1.26 1.26 0 0 0 1.275-1.276c-.05-.714-.612-1.275-1.275-1.275zm682.817 5.97c.714 0 1.224-.56 1.224-1.275s-.56-1.276-1.224-1.276a1.275 1.275 0 1 0 0 2.551zm-623.634 369.5c-.714 0-1.224.56-1.224 1.275s.56 1.276 1.224 1.276a1.275 1.275 0 1 0 0-2.551zm167.5-406.02c.715 0 1.225-.56 1.225-1.275s-.56-1.276-1.225-1.276c-.714 0-1.275.562-1.275 1.276.05.714.56 1.275 1.275 1.275zM683 35.46a2.069 2.069 0 0 0 2.092-2.092 2.1 2.1 0 0 0-2.092-2.09 2.14 2.14 0 0 0-2.092 2.091c0 1.174.97 2.092 2.092 2.092zm1090.4 426.963a2.07 2.07 0 0 0-2.092 2.092 2.1 2.1 0 0 0 2.092 2.092c1.122 0 2.1-.97 2.1-2.092 0-1.173-.97-2.092-2.1-2.092zM751.582 18.52a2.1 2.1 0 0 0 2.09-2.09 2.14 2.14 0 0 0-2.09-2.092c-1.174 0-2.092.97-2.092 2.092 0 1.173.918 2.1 2.092 2.1zm953.248 460.842c-1.122 0-2.092.92-2.092 2.092a2.14 2.14 0 0 0 2.092 2.092c1.174 0 2.092-.97 2.092-2.092a2.07 2.07 0 0 0-2.092-2.092zM776.786 42.45a2.14 2.14 0 0 0 2.092-2.092c0-1.173-.97-2.092-2.092-2.092a2.07 2.07 0 0 0-2.092 2.092c0 1.174.918 2.092 2.092 2.092zm902.844 412.984a2.14 2.14 0 0 0-2.092 2.092c0 1.173.97 2.1 2.092 2.1a2.07 2.07 0 0 0 2.092-2.1 2.07 2.07 0 0 0-2.092-2.092zM936.122 30.5c1.174 0 2.092-.97 2.092-2.092 0-1.173-.918-2.1-2.092-2.1-1.122 0-2.1.97-2.1 2.1a2.14 2.14 0 0 0 2.09 2.092zM1520.3 467.372c-1.173 0-2.1.97-2.1 2.092a2.07 2.07 0 0 0 2.1 2.092 2.14 2.14 0 0 0 2.092-2.092 2.14 2.14 0 0 0-2.092-2.092zM119.86 32.628c1.173 0 2.092-.97 2.092-2.092a2.07 2.07 0 0 0-2.092-2.092 2.14 2.14 0 0 0-2.092 2.092 2.14 2.14 0 0 0 2.092 2.092zm624.987 162.474a2.101 2.101 0 0 0 2.092-2.092 2.14 2.14 0 0 0-2.092-2.092c-1.174 0-2.092.97-2.092 2.092 0 1.174.918 2.092 2.092 2.092zM1711.57 302.78a2.102 2.102 0 0 0-2.092 2.1 2.14 2.14 0 0 0 2.092 2.092c1.173 0 2.092-.97 2.092-2.092a2.07 2.07 0 0 0-2.092-2.091zM538.868 421.195c1.122 0 2.1-.92 2.1-2.092a2.14 2.14 0 0 0-2.09-2.092c-1.174 0-2.092.97-2.092 2.092a2.07 2.07 0 0 0 2.092 2.092zM1917.55 76.688a2.101 2.101 0 0 0-2.092 2.092 2.14 2.14 0 0 0 2.092 2.092c1.174 0 2.092-.97 2.092-2.092a2.069 2.069 0 0 0-2.092-2.092zM901.07 370.255a2.1 2.1 0 0 0 2.092-2.092 2.14 2.14 0 0 0-2.092-2.092c-1.173 0-2.1.97-2.1 2.092s.918 2.092 2.1 2.092zm-264.6 80.612a2.1 2.1 0 0 0 2.09-2.09c0-1.12-.918-2.092-2.1-2.092a2.14 2.14 0 0 0-2.092 2.092c0 1.173.97 2.1 2.092 2.1zM1819.94 47.015c-1.173 0-2.092.97-2.092 2.092s.92 2.092 2.092 2.092a2.14 2.14 0 0 0 2.092-2.092c0-1.173-.97-2.092-2.092-2.092zm-699.64 420.23a2.069 2.069 0 0 0 2.092-2.092 2.101 2.101 0 0 0-2.092-2.092 2.14 2.14 0 0 0-2.092 2.092 2.07 2.07 0 0 0 2.092 2.092zm-600.452-434.5a2.07 2.07 0 0 0-2.092 2.092c0 1.122.92 2.092 2.092 2.092a2.14 2.14 0 0 0 2.092-2.092 2.07 2.07 0 0 0-2.092-2.092zM1217.55 245.5c1.173 0 2.092-.97 2.092-2.092a2.07 2.07 0 0 0-2.092-2.091 2.103 2.103 0 0 0-2.092 2.1c0 1.123.92 2.092 2.092 2.092zm-794.947 9c-1.173 0-2.092.97-2.092 2.092a2.07 2.07 0 0 0 2.092 2.091 2.102 2.102 0 0 0 2.092-2.1 2.1 2.1 0 0 0-2.092-2.092zm996.577 92.694a2.07 2.07 0 0 0 2.092-2.092c0-1.122-.92-2.092-2.092-2.092a2.14 2.14 0 0 0-2.092 2.092c0 1.174.97 2.092 2.092 2.092zM220.97 152.806c-1.173 0-2.1.918-2.1 2.092 0 1.122.918 2.092 2.1 2.092a2.14 2.14 0 0 0 2.092-2.092c0-1.174-.97-2.092-2.092-2.092zm865.2-36.94c1.174 0 2.092-.97 2.092-2.1a2.069 2.069 0 0 0-2.092-2.092 2.1 2.1 0 0 0-2.09 2.092c0 1.174.918 2.1 2.1 2.1zm781.05 248.793a2.14 2.14 0 0 0 2.092-2.092c0-1.173-.97-2.092-2.092-2.092s-2.092.92-2.092 2.092a2.14 2.14 0 0 0 2.092 2.092zM954.44 229.54c.46 0 .867-.408.867-.868s-.408-.867-.867-.867-.868.408-.868.867a.86.86 0 0 0 .868.868zm547.54 38.802c-.46 0-.867.408-.867.867s.408.868.867.868.867-.4.867-.868a.86.86 0 0 0-.867-.867zM138.177 231.658c.46 0 .867-.408.867-.867s-.408-.868-.867-.868-.867.4-.867.868a.86.86 0 0 0 .867.867zM953.57 83.622c.46 0 .868-.408.868-.867a.86.86 0 0 0-.868-.867c-.46 0-.867.408-.867.867s.408.867.867.867z"/></g><path d="M1463.24 171.332c4.286 0 7.806-3.52 7.806-7.806s-3.52-7.806-7.806-7.806-7.806 3.52-7.806 7.806c0 4.336 3.52 7.806 7.806 7.806z" fill="#7c1370"/><path d="M1467.53 156.995c2.143 1.43 3.52 3.827 3.52 6.53 0 4.336-3.52 7.806-7.806 7.806-.306 0-.612 0-.918-.05-2.143-1.378-3.52-3.827-3.52-6.53 0-4.286 3.52-7.806 7.806-7.806.306 0 .613.05.92.05z" fill="#be2385"/><path d="M1530.7 94.24a1.26 1.26 0 0 0 1.275-1.276c0-.714-.56-1.224-1.275-1.224s-1.276.56-1.276 1.224c0 .715.562 1.276 1.276 1.276zM109.464 405.76a1.26 1.26 0 0 0-1.275 1.276c0 .714.56 1.224 1.275 1.224s1.276-.56 1.276-1.224a1.26 1.26 0 0 0-1.276-1.276zM1448.4 79.2a1.26 1.26 0 1 0 0-2.551 1.26 1.26 0 0 0-1.276 1.275c0 .715.613 1.276 1.276 1.276zM191.76 420.8a1.275 1.275 0 1 0 0 2.551 1.26 1.26 0 0 0 1.276-1.275c0-.715-.613-1.276-1.276-1.276zm1223.88-240.805a1.275 1.275 0 1 0 0-2.551 1.26 1.26 0 0 0-1.276 1.276c0 .663.562 1.275 1.276 1.275zm-1191.125 140a1.275 1.275 0 1 0 0 2.551 1.26 1.26 0 0 0 1.276-1.276c0-.663-.56-1.275-1.276-1.275zM1531.1 65.873c1.174 0 2.092-.97 2.092-2.092a2.069 2.069 0 0 0-2.092-2.092 2.14 2.14 0 0 0-2.092 2.092 2.14 2.14 0 0 0 2.092 2.092zM109.056 434.127c-1.173 0-2.092.97-2.092 2.092a2.07 2.07 0 0 0 2.092 2.092 2.14 2.14 0 0 0 2.092-2.092 2.14 2.14 0 0 0-2.092-2.092zM1548.55 118.985c.46 0 .867-.408.867-.867a.86.86 0 0 0-.867-.868c-.46 0-.867.408-.867.868s.408.867.867.867zM91.607 381.015a.893.893 0 0 0-.867.867.86.86 0 0 0 .867.868c.46 0 .867-.408.867-.868s-.408-.867-.867-.867zM1502.84 414.26a.893.893 0 0 0-.867.868.86.86 0 0 0 .867.867c.46 0 .868-.408.868-.867s-.408-.868-.868-.868zM137.3 85.74c.46 0 .867-.408.867-.868a.86.86 0 0 0-.867-.867.894.894 0 0 0-.868.867.9.9 0 0 0 .868.868zm963.06-50.79c.46 0 .867-.408.867-.867a.86.86 0 0 0-.867-.868c-.5 0-.867.357-.867.868a.86.86 0 0 0 .867.867zm178.94 118.418c.46 0 .867-.408.867-.867s-.408-.867-.867-.867-.868.408-.868.867a.83.83 0 0 0 .868.867zM360.868 346.633c-.46 0-.867.408-.867.867s.408.867.867.867.868-.408.868-.867c0-.5-.357-.867-.868-.867zM1857.38 482.06c.46 0 .867-.408.867-.867a.86.86 0 0 0-.867-.868.894.894 0 0 0-.868.868.83.83 0 0 0 .868.867zM1438 265.5a.867.867 0 1 0 0-1.734c-.46 0-.867.408-.867.867s.408.867.867.867zm-1235.856-31a.867.867 0 1 0 0 1.734c.46 0 .867-.408.867-.867s-.408-.867-.867-.867zm937.256 41.112c.46 0 .867-.408.867-.867s-.408-.867-.867-.867a.867.867 0 1 0 0 1.734zm-638.634-51.224c-.46 0-.867.408-.867.867s.408.867.867.867a.867.867 0 1 0 0-1.734zm687.804 149.5a.9.9 0 0 0 .868-.868c0-.458-.408-.867-.868-.867s-.867.408-.867.867a.86.86 0 0 0 .867.868zM451.583 126.122a.9.9 0 0 0-.868.868c0 .46.41.867.868.867s.867-.408.867-.867a.86.86 0 0 0-.867-.868zm374.13 82.705a.867.867 0 1 0 0-1.735.893.893 0 0 0-.867.867.86.86 0 0 0 .867.868zm804.986 80.23a.868.868 0 1 0 0 1.735c.46 0 .867-.408.867-.868a.86.86 0 0 0-.867-.867zM619.735 434.92a.867.867 0 1 0 0-1.734.893.893 0 0 0-.867.867.86.86 0 0 0 .867.867zM1836.68 62.963a.867.867 0 1 0 0 1.735c.46 0 .867-.408.867-.867a.86.86 0 0 0-.867-.868zM738.724 110.255c.46 0 .868-.408.868-.867s-.408-.868-.868-.868-.867.4-.867.868a.86.86 0 0 0 .867.867zM1717.7 387.628c-.46 0-.867.408-.867.867s.408.867.867.867.868-.408.868-.867a.86.86 0 0 0-.868-.867zM736.224 173.57c.46 0 .868-.408.868-.867s-.408-.867-.868-.867-.867.408-.867.867.408.867.867.867zM1720.2 324.3c-.46 0-.867.408-.867.868s.408.867.867.867.868-.408.868-.867-.408-.868-.868-.868zM530.245 399.664c.46 0 .867-.408.867-.867s-.408-.868-.867-.868-.867.4-.867.868.408.867.867.867zM1926.17 98.22c-.46 0-.868.408-.868.867s.4.867.868.867.867-.408.867-.867-.408-.867-.867-.867zM649.065 265.24c.6 0 1.117-.526 1.117-1.118s-.526-1.118-1.117-1.118-1.118.46-1.118 1.118.46 1.118 1.118 1.118zm1158.285-32.598c-.592 0-1.118.526-1.118 1.118s.526 1.118 1.118 1.118 1.118-.46 1.118-1.118-.46-1.118-1.118-1.118zM717.245 90.867a.86.86 0 0 0 .867-.867c0-.46-.408-.867-.867-.867s-.867.408-.867.867a.86.86 0 0 0 .867.867zM1739.17 407.015a.86.86 0 0 0-.867.868c0 .46.408.867.867.867s.867-.408.867-.867a.86.86 0 0 0-.867-.868zM796.735 166.02c.46 0 .867-.408.867-.867a.86.86 0 0 0-.867-.867.894.894 0 0 0-.868.867c-.05.46.357.867.868.867zm862.945 165.842a.893.893 0 0 0-.867.868.86.86 0 0 0 .867.867c.46 0 .867-.408.867-.867.05-.46-.357-.868-.867-.868zm-1068.925 60.25c.46 0 .868-.408.868-.867a.86.86 0 0 0-.868-.868c-.46 0-.867.4-.867.868-.05.46.357.867.867.867zM1865.66 105.77a.894.894 0 0 0-.868.867.86.86 0 0 0 .868.867c.46 0 .867-.408.867-.867.05-.46-.357-.867-.867-.867zM706.173 446.735c.46 0 .868-.408.868-.868s-.408-.867-.868-.867-.867.408-.867.867a.86.86 0 0 0 .867.868zM1750.24 51.148c-.46 0-.867.408-.867.867s.408.868.867.868a.9.9 0 0 0 .868-.868.86.86 0 0 0-.868-.867zM884.898 479.694c.46 0 .867-.408.867-.867a.86.86 0 0 0-.867-.868.893.893 0 0 0-.867.868.86.86 0 0 0 .867.867zm585.872-28.214a.9.9 0 0 0 .868-.868c0-.46-.4-.867-.868-.867s-.867.408-.867.867c.05.5.408.868.867.868zM1287.2 330.153c.46 0 .867-.408.867-.867s-.408-.868-.867-.868a.868.868 0 1 0 0 1.735zM352.96 169.847c-.46 0-.867.408-.867.867s.408.868.867.868a.867.867 0 1 0 0-1.735z" fill="#fff"/><defs><path id="B" d="M1739.17 366.505c-22.296 0-40.46 18.214-40.46 40.5s18.214 40.46 40.46 40.46c22.296 0 40.5-18.214 40.5-40.46-.05-22.296-18.214-40.5-40.5-40.5z"/><path id="C" d="M1739.17 379.31c-15.255 0-27.704 12.45-27.704 27.704s12.45 27.704 27.704 27.704 27.704-12.45 27.704-27.704-12.45-27.704-27.704-27.704z"/><path id="D" d="M1681.67 254.515c-9.694 0-17.653 7.908-17.653 17.653s7.908 17.602 17.653 17.602c9.694 0 17.602-7.908 17.602-17.602s-7.908-17.653-17.602-17.653z"/><path id="E" d="M614.684 370.736c.714 0 1.275-.562 1.275-1.276s-.561-1.275-1.275-1.275-1.276.561-1.276 1.275c0 .663.562 1.276 1.276 1.276z"/><path id="F" d="M1982 369.482c-.714 0-1.276.562-1.276 1.276s.562 1.224 1.276 1.224 1.275-.56 1.275-1.224c0-.714-.56-1.276-1.275-1.276z"/><path id="G" d="M316.787 320.102c-.714 0-1.276.56-1.276 1.276s.562 1.275 1.276 1.275a1.26 1.26 0 0 0 1.275-1.275c0-.715-.612-1.276-1.275-1.276z"/></defs></svg>