<svg clip-rule="evenodd" fill="white" fill-rule="evenodd" stroke-linejoin="round" stroke-miterlimit="1.41421" viewBox="0 0 439 439" xmlns="http://www.w3.org/2000/svg"><path d="m409.135 111.947c-19.608-34.439-46.205-61.704-79.798-81.801-33.598-20.099-70.277-30.146-110.063-30.146-39.781 0-76.472 10.05-110.063 30.146-33.596 20.096-60.192 47.362-79.8 81.801-19.605 34.438-29.408 72.044-29.408 112.818 0 48.978 13.94 93.021 41.827 132.139 27.884 39.121 63.906 66.191 108.063 81.214 5.14.978 8.945.29 11.419-2.046 2.475-2.339 3.711-5.269 3.711-8.777 0-.585-.049-5.851-.144-15.804-.098-9.952-.144-18.634-.144-26.043l-6.567 1.165c-4.187.786-9.469 1.119-15.846 1.025-6.374-.091-12.991-.776-19.842-2.049-6.854-1.262-13.229-4.189-19.13-8.774-5.898-4.585-10.085-10.587-12.56-17.996l-2.855-6.735c-1.903-4.484-4.899-9.465-8.992-14.924-4.093-5.465-8.232-9.17-12.419-11.12l-1.999-1.467c-1.332-.975-2.568-2.151-3.711-3.515-1.142-1.365-1.997-2.73-2.568-4.098-.572-1.368-.098-2.49 1.427-3.371s4.281-1.308 8.28-1.308l5.708.874c3.807.782 8.516 3.119 14.133 7.023 5.614 3.902 10.229 8.974 13.846 15.214 4.38 8.002 9.657 14.099 15.846 18.295 6.184 4.196 12.419 6.29 18.699 6.29s11.704-.488 16.274-1.459c4.565-.976 8.848-2.442 12.847-4.392 1.713-13.078 6.377-23.125 13.988-30.148-10.848-1.168-20.601-2.928-29.264-5.269-8.658-2.343-17.605-6.146-26.835-11.419-9.235-5.266-16.896-11.805-22.985-19.606-6.09-7.805-11.088-18.052-14.987-30.731-3.901-12.684-5.852-27.316-5.852-43.9 0-23.613 7.52-43.706 22.557-60.292-7.044-17.753-6.379-37.654 1.997-59.701 5.52-1.758 13.706-.439 24.554 3.95 10.85 4.39 18.794 8.151 23.84 11.269s9.089 5.759 12.135 7.902c17.705-5.071 35.976-7.607 54.818-7.607s37.117 2.536 54.823 7.607l10.849-7.021c7.419-4.685 16.18-8.978 26.262-12.88 10.088-3.901 17.802-4.975 23.134-3.217 8.562 22.049 9.325 41.948 2.279 59.701 15.036 16.586 22.559 36.684 22.559 60.292 0 16.584-1.958 31.262-5.853 44.044-3.9 12.784-8.941 23.02-15.125 30.731-6.191 7.709-13.901 14.197-23.131 19.462-9.232 5.269-18.182 9.072-26.84 11.415-8.662 2.344-18.415 4.105-29.263 5.275 9.894 8.777 14.842 22.631 14.842 41.556v61.748c0 3.508 1.19 6.436 3.572 8.777 2.379 2.336 6.136 3.024 11.276 2.045 44.163-15.021 80.185-42.092 108.068-81.213 27.88-39.119 41.825-83.161 41.825-132.14-.01-40.768-9.818-78.371-29.414-112.809z" fill-rule="nonzero"/></svg>