<svg xmlns="http://www.w3.org/2000/svg" viewBox="0 0 2000 500" fill-rule="evenodd"><style>.B{fill-opacity:.16}.C{fill-opacity:.24}</style><path d="M0 0h2000v500H0z" fill="url(#A)"/><g fill="none" stroke="#dadada" stroke-width="1.33"><path d="M971.56 42.925l266.616 96.223 342.632 122.124m-648.3-204.084l266.292 96.48 342.956 121.867M893.624 70.94l304.392 112.607 38.472 12.6 266.385 93.142M853.552 84.865l151.685 56.548 76.74 28.83 78.5 31.297 74.456 23.047 75.98 26.095 38.724 12.518 113.164 40M814.5 99.128l75.307 27.604 75.978 29.085 114.605 49.247 40.193 17.5 36.875 10.14 112.694 32.262 40.467 12.4 113.13 40.1M774.936 112.88l75.377 28.4 38.94 14.445c12.485 4.858 24.965 9.752 37.22 15.164 13.307 5.877 26.4 12.217 39.393 18.78 12.9 6.523 25.277 14.053 38.232 20.463 12.8 6.33 26.024 11.72 38.956 17.753 12.86 5.998 25.043 13.594 38.417 18.337 12.215 4.332 25.208 6.034 37.8 9.1 12.78 3.1 25.45 6.708 38.316 9.434 12.628 2.676 25.472 4.233 38.125 6.787 12.258 2.474 24.536 4.95 36.593 8.267 25.5 7.017 50.387 16.095 75.437 24.574l76.444 26.85m-648.473-204.25l75.324 28.674c13.158 4.897 26.562 9.145 39.582 14.395 12.78 5.154 25.363 10.812 37.787 16.774 13.04 6.257 25.77 13.14 38.544 19.924 12.55 6.664 25.5 12.673 37.428 20.4 14.074 9.136 26.14 21.105 40.004 30.554 12.275 8.366 24.034 18.375 38.126 23.07 11.703 3.9 24.494 3.378 36.828 3.667 12.216.287 24.4-2.443 36.6-1.918 13.5.58 26.826 3.344 40.15 5.588 12.428 2.094 24.84 4.375 37.1 7.344 12.594 3.05 24.974 6.935 37.36 10.743 12.915 3.97 25.723 8.286 38.523 12.617l75.892 26.506M695.47 140.898s77.292 28.5 115.256 44.456c12.618 5.3 25.058 11.032 37.368 17.014 13.1 6.366 26.166 12.845 38.808 20.078 13.247 7.58 26.5 15.3 38.743 24.396 13.9 10.326 25.75 23.203 39.23 34.084 12.748 10.3 23.673 24.663 39.336 29.465 11.544 3.54 24.183-.378 36.18-1.733 12.992-1.466 25.546-6.4 38.612-6.905 12.02-.455 23.973 2.104 35.902 3.65 12.4 1.6 24.805 3.42 37.08 5.85 13.46 2.664 26.855 5.747 40.035 9.558 38.128 11.027 112.7 38.435 112.7 38.435M578.142 182.498l151.445 57.078c13.296 5.394 26.288 11.5 39.475 17.168l39.325 16.64c25.207 10.686 49.788 22.98 75.6 32.108 49.187 17.394 100.62 27.686 150.5 42.98 13.243 4.06 26.363 8.517 39.487 12.95l113.416 39.423M538.92 196.6l112.768 41.53L768 282.293l76.716 30.815 75.32 23.133 152.47 51.894 75.653 26.804M498.677 210.684l305.385 111.18 37.46 13.052 152.882 53.656 76.524 26.153 36.998 14.306M460.133 224.438L802.36 348.196l152.957 53.913 114.065 40.676M420.57 238.36l609.25 218.348"/><path d="M1048.28 42.913L419.187 265.928M1086.46 56.36L771.062 169.943 457.367 279.375M1123.68 70.048l-274.345 99.784-38.92 14.916-315.828 108.315M1162.06 83.97l-195.7 72.28-119.777 46.077-155.232 50.68-158.374 53.977M1200.1 97.895l-115.232 41.765-40.12 16.666-157.8 66.708L730.53 267.34l-39.996 12.746-119.52 40.824m668.135-209.77s-105.762 36.645-156.943 59.137c-26.552 11.67-51.642 26.42-77.662 39.233-26.112 12.858-51.157 28.436-78.726 37.772-12.855 4.354-26.672 5.103-39.858 8.32-12.86 3.136-25.327 7.8-38.247 10.693-13.2 2.948-26.756 4.152-40.043 6.728-13.42 2.602-26.817 5.378-40.048 8.812-13.456 3.5-26.714 7.722-39.95 11.974-39.462 12.677-117.616 40.347-117.616 40.347M1276.5 125.062s-78.13 26.876-116.176 42.894c-26.942 11.342-53.266 24.16-79.22 37.613-13.183 6.834-26.408 13.7-38.808 21.868-13.596 8.954-25.47 20.318-38.83 29.62-12.436 8.66-24.08 19.375-38.4 24.333-12.444 4.3-26.14 3.652-39.304 4.016-13.87.384-27.732-2.73-41.586-1.936-13.1.752-25.912 4.16-38.855 6.316-13.512 2.25-27.152 3.88-40.5 6.913-12.842 2.914-25.425 6.893-37.996 10.814-40.13 12.52-119.4 40.564-119.4 40.564m667.135-209.43s-77.445 27.967-115.46 43.734c-14.082 5.84-28.05 12-41.682 18.826-12.725 6.374-25.174 13.314-37.378 20.637-12.795 7.676-25.608 15.424-37.53 24.394-14.156 10.652-26.367 23.696-40.178 34.792-12.752 10.245-23.768 24.364-39.362 29.303-12.575 3.983-26.436.297-39.56-1.045-12.992-1.33-25.518-6.356-38.566-6.915-13.13-.562-26.214 2.03-39.26 3.617-13.888 1.7-27.8 3.4-41.497 6.283-13.045 2.756-25.812 6.714-38.6 10.523-40.304 12.012-120.03 38.866-120.03 38.866"/><path d="M1429.32 179.397l-117.16 43.017-38.898 15.1-39.793 16.986-117.686 51.45-78.355 20.566-38.22 11.6-40.08 10.496-38.496 12.562-120.405 41.24M1467.7 192.64l-195.357 72.393-116.746 45.376-121.242 38.5-195.75 66.755m666.095-209.09l-312.37 114.24-118.593 40.38-198.13 68.395m667.133-209.432l-313.666 112.717-315.427 110.298m667.133-209.09L951.687 457.087m439.253-291.274l-116.26 43.455-40.47 15.373-37.958 19.172-39.292 20.796-39.357 18.3-38.456 19.3-80.313 18.14-38.797 7-38.082 9.094-42.66 12.726-117.452 39.66m591.407-236.6l-77.533 28.257-39.218 15.56c-13.516 5.438-27.324 10.227-40.468 16.5-26.83 12.828-53.122 27-78.1 43.13-13.583 8.778-25.496 19.938-38.834 29.085-13.357 9.16-25.743 20.892-41.182 25.783-11.857 3.757-24.82 1.978-37.256 2.024-12.988.05-25.946-2.388-38.922-1.82-12.563.55-25.015 2.785-37.385 5.045-27.26 4.982-54.348 11.132-80.994 18.743-40.37 11.53-119.2 40.697-119.2 40.697"/><path d="M656.758 155l113.225 42.772c13.304 5.32 26.62 10.653 39.6 16.72 13.344 6.236 26.312 13.255 39.3 20.204 12.95 6.93 26.257 13.315 38.505 21.422 12.968 8.584 24.036 19.795 36.807 28.668 12.716 8.834 24.68 20.014 39.534 24.386 12.5 3.68 28.093 1.627 41.122 1.793 11.57.147 21.135-1.688 32.673-.82 13.05.98 25.958 3.4 38.852 5.648 12.653 2.197 25.257 4.712 37.762 7.634 12.96 3.028 25.865 6.34 38.585 10.25 38.244 11.757 113.283 39.672 113.283 39.672m-648.64-204.934l114.775 43.45 38.184 15.35c12.944 5.628 25.775 11.542 38.346 17.96 12.68 6.475 24.63 14.322 37.354 20.7 12.908 6.48 26.426 11.676 39.487 17.843 12.44 5.874 24.07 13.598 37.02 18.243 11.842 4.248 24.507 5.707 36.74 8.643 13.217 3.173 26.307 6.898 39.608 9.697 13.018 2.74 26.255 4.34 39.3 6.94 11.944 2.38 23.908 4.756 35.667 7.927 13.22 3.564 26.146 8.147 39.144 12.452l113.62 39.13"/></g><circle cx="996.319" cy="251.074" r="66.031" fill="url(#B)"/><g stroke="#005f8d" stroke-width=".3" fill="url(#C)"><path d="M1003.16 189.275l-5.318.095c-6.862.188-13.684 1.4-20.403 2.81-2.86.6-5.6 1.68-8.432 2.394-3.136.79-6.565.67-9.474 2.082-2.262 1.098-3.946 3.122-5.83 4.79-.754.666-1.457 1.388-2.186 2.082-1.352 1.285-2.8 2.477-4.06 3.85-1.92 2.093-7.365 4.703-5.3 6.663 1.37 1.306 3.058-2.292 4.27-3.748 1.443-1.734 2.58-1.557 3.435-1.77.843-.21-2.96 3.118-1.874 5.414.34.715 2.495-.47 2.082-1.145-.62-1.014.032-4.555 2.082-4.893 1.154-.2-1.82 2.133-1.353 4.893.307 1.818-2.016 3.787-1.145 5.413.286.534.966-3.527 2.915-4.164 1.45-.475 3.003-.826 3.54-2.082.802-1.88 2.822-4.797 4.684-3.956.703.317-.34 4.106 3.54.52.74-.683-.404 2.15.104 3.02 1.022 1.75.176 2.826-1.25 3.02-1.73.235-3.147-1.86-4.893-1.874-1.624-.013-3.225.77-4.58 1.666-2.636 1.74-.114 6.456 2.3 5.31 2.566-1.224 1.448.436-.104 2.707-1.803 2.637-4.613 5.922-8.016 1.457-.71-.93-1.312-2.083-3.123-.728-2.983 2.23-.87-3.9-.625-6.038.14-1.225-.84-3.1-3.123-1.145-8.997 7.67-9.57 22.137-10.306 33.936-.257 4.145 2.156 5.416 2.082 12.388-.016 1.532.44 3.068 1.04 4.477 1.528 3.57 1.854 8.37 3.436 13.012 2.36 6.93 5.632 16.55 12.842 17.818 1.374.242 2.983-1.044 3.46-2.356.584-1.606-1.682-3.247-1.398-4.932.2-1.18 1.734-1.79 2.06-2.944.482-1.7-.015-3.552-.308-5.295-.33-1.956-1.432-3.75-1.614-5.726-.156-1.7-.217-3.537.47-5.1.675-1.54 2.194-2.557 3.383-3.748 1.57-1.573 3.82-2.56 4.945-4.476 1.652-2.813 3.52-7.18 3.852-9.317.227-1.465-2.95 1.967-5.414.937-1.188-.497-2.67-.67-3.487-1.666-.49-.595-.256-1.536-.573-2.238-.43-.956-1.264-1.683-1.77-2.602-.4-.73-.757-1.492-.99-2.3-.216-.743-.232-1.53-.365-2.29-.175-1.01-.476-2-.572-3.02-.103-1.088.035-2.186 0-3.28-.026-.817-.093-1.632-.156-2.446-.074-.956-.51-1.938-.26-2.863.227-.84.67-2.365 1.5-2.134 1.493.41.006 3.126.364 4.633.19.802.798 1.477.937 2.3.182 1.06-.34 2.165-.156 3.227.233 1.35 1.05 2.53 1.56 3.8.875 2.166-.08 5.066.677 6.663.6 1.264 2.77.623 4.164.52.647-.047 1.266-.294 1.874-.52.647-.24 1.228-.64 1.874-.885.738-.28 1.665-.167 2.273-.67 1.203-.997 3.843-2.016 5.963-3.165.556-.302 1.39-.5 1.546-1.105.297-1.18.765-2.338 2.06-2.723.893-.266.413-1.962 0-2.797-.288-.58-.972-.878-1.546-1.178-1.648-.862-.634-3.702-1.178-3.018-.657.826-2.348 2.48-3.975 2.135-1.805-.384-1.58-1.55-1.546-2.356.04-.936-1.898-1.055-1.987-1.987-.422-4.398.948-5.213 2.502-1.325.564 1.41 2.297 3.75 3.534 2.87 2.12-1.506 1.97.434 2.65 1.03 2.82 2.48 7.836-.367 11.188 1.325 1.473.743 2.39 2.294 3.387 3.607 1.458 1.92 2.65 4.04 3.754 6.183 1.453 2.825 1.47 6.552 3.754 8.76 1.76 1.7 1.44 5.77 3.386 6.404.874.285 1.408-1.22 1.914-1.988.73-1.11 1.187-2.4 1.546-3.68.314-1.123.78-2.324.515-3.46-.408-1.748.123-2.37 1.03-2.797 1.213-.572 2.282-1.424 3.313-2.282 1.788-1.488 2.336-5.313 3.9-5.3 1.577.014 4.96-1.236 5.963-1.693 1.417-.645 1.023 2.644 2.282 4.564 2.402 3.663-.4 8.965 1.03 13.103 1.36 3.907 4.435 6.996 6.92 10.305 1.883 2.507 3.52 5.342 6.037 7.214 5.402 4.02-.298-5.91-2.062-8.392-1.813-2.553-6.342-2.318-7.95-5.005-2.012-3.363-2.02-8.287-.92-11.4 1.245-3.53 2.1-4.668 3.13-.22.652 2.823-.574 6.647 1.62 8.54 2.788 2.405 2.766 6.157 5.447 7.803 3.75 2.3.73-5.822-1.62-6.33-5.252-1.138-2.52-14.102 1.62-7.214 2.666 4.435 10.364 2.534 2.798-8.244-3.475-4.95 3.018-6.168 5.447-7.36 4.07-2 3.638-9.642 1.325-13.544-5.97-10.073-6.35-12.873.736-5.3 2.045 2.186 1.145-6.215 0-8.98-1.992-4.808-6.876-7.92-11.042-11.04-4.253-3.187-8.895-6.128-13.986-7.656-5.065-1.52-10.426-1.845-15.763-1.83zm-27.688 20.188c1.15.008.476.928-1.156 2.328.273 2.88.565 5.76-.884 8.833-1.094.234-2.256.298-4.122-1.398-.676-.27 2.463-3.742 1.988-4.123-2.628-2.1-.766-4.5-.516-4.416 2.466-.86 3.953-1.23 4.7-1.224z"/><path d="M963.07 285.975c-.287.27-.676 1.947-2.082 1.796-2.033-.22-.884 2.635-.755 4.58.1 1.35.377 3.357 1.588 4.762 2 2.324 2.89-1.288 2.992-2.16.032-.265-.183-4.286.052-5.36.49-2.228-.43-4.897-1.795-3.618zm93.38-9.941c-.043-.948-1.726.838-2.446 1.457-1.533 1.318-2.54 3.147-3.852 4.685-1.053 1.234-2.482 2.202-3.227 3.643-1.287 2.488-5.633 3.584-7.34 6.56-1.636 2.852-4.565 8.2-2.343 9.94.582.456 7.915-8.82 8.85-7.807.426.462 10.81-8.563 10.358-18.478zm-12.29-13.429c-6.053 4.508-3.82 11.02.73 8.484 2.63-1.466 2.465-6.77 3.747-9.213 1.078-2.053 4.237-2.72 4.893-4.945.958-3.247-.677-6.86-2.082-9.94-2.768-6.07-2.148-6.225-3.123-3.644-.496 1.313 1.63 5.956.99 9.317-.78 4.102-4.275 9.288-5.153 9.942z"/></g><g fill="#fff"><circle cx="403.461" cy="175.111" r="2.62"/><circle cx="403.461" cy="175.111" r="6.08" class="B"/><circle cx="403.461" cy="175.111" r="4.494" class="C"/><circle cx="820.319" cy="26.347" r="2.62"/><circle cx="820.319" cy="26.347" r="6.08" class="B"/><circle cx="820.319" cy="26.347" r="4.494" class="C"/><circle cx="1609.32" cy="214.428" r="2.62"/><circle cx="1609.32" cy="214.428" r="6.08" class="B"/><circle cx="1609.32" cy="214.428" r="4.494" class="C"/><circle cx="1896.67" cy="261.192" r="2.62"/><circle cx="1896.67" cy="261.192" r="6.08" class="B"/><circle cx="1896.67" cy="261.192" r="4.494" class="C"/><circle cx="387.015" cy="279.49" r="3.235"/><circle cx="387.015" cy="279.49" r="7.508" class="B"/><circle cx="387.015" cy="279.49" r="5.549" class="C"/><circle cx="1020.37" cy="406.829" r="3.235"/><circle cx="1020.37" cy="406.829" r="7.508" class="B"/><circle cx="1020.37" cy="406.829" r="5.549" class="C"/><circle cx="98.111" cy="412.638" r="3.235"/><circle cx="98.111" cy="412.638" r="7.508" class="B"/><circle cx="98.111" cy="412.638" r="5.549" class="C"/><circle cx="1832.46" cy="84.144" r="3.235"/><circle cx="1832.46" cy="84.144" r="7.508" class="B"/><circle cx="1832.46" cy="84.144" r="5.549" class="C"/><circle cx="803.873" cy="130.726" r="3.235"/><circle cx="803.873" cy="130.726" r="7.508" class="B"/><circle cx="803.873" cy="130.726" r="5.549" class="C"/><circle cx="827.987" cy="387.785" r="3.235"/><circle cx="827.987" cy="387.785" r="7.508" class="B"/><circle cx="827.987" cy="387.785" r="5.549" class="C"/><circle cx="1640.08" cy="65.1" r="3.235"/><circle cx="1640.08" cy="65.1" r="7.508" class="B"/><circle cx="1640.08" cy="65.1" r="5.549" class="C"/><circle cx="1592.87" cy="318.807" r="3.235"/><circle cx="1592.87" cy="318.807" r="7.508" class="B"/><circle cx="1592.87" cy="318.807" r="5.549" class="C"/><circle cx="1880.23" cy="365.571" r="3.235"/><circle cx="1880.23" cy="365.571" r="7.508" class="B"/><circle cx="1880.23" cy="365.571" r="5.549" class="C"/><circle cx="308.336" cy="316.688" r="3.235"/><circle cx="308.336" cy="316.688" r="7.508" class="B"/><circle cx="308.336" cy="316.688" r="5.549" class="C"/><circle cx="725.195" cy="167.924" r="3.235"/><circle cx="725.195" cy="167.924" r="7.508" class="B"/><circle cx="725.195" cy="167.924" r="5.549" class="C"/><circle cx="1358.55" cy="295.263" r="3.235"/><circle cx="1358.55" cy="295.263" r="7.508" class="B"/><circle cx="1358.55" cy="295.263" r="5.549" class="C"/><circle cx="749.309" cy="424.983" r="3.235"/><circle cx="749.309" cy="424.983" r="7.508" class="B"/><circle cx="749.309" cy="424.983" r="5.549" class="C"/><circle cx="1561.4" cy="102.297" r="3.235"/><circle cx="1561.4" cy="102.297" r="7.508" class="B"/><circle cx="1561.4" cy="102.297" r="5.549" class="C"/><circle cx="1514.19" cy="356.005" r="3.235"/><circle cx="1514.19" cy="356.005" r="7.508" class="B"/><circle cx="1514.19" cy="356.005" r="5.549" class="C"/><circle cx="1801.55" cy="402.769" r="3.235"/><circle cx="1801.55" cy="402.769" r="7.508" class="B"/><circle cx="1801.55" cy="402.769" r="5.549" class="C"/><circle cx="177.75" cy="213.739" r="4.045"/><circle cx="177.75" cy="213.739" r="9.387" class="B"/><circle cx="177.75" cy="213.739" r="6.939" class="C"/><circle cx="594.609" cy="64.975" r="4.045"/><circle cx="594.609" cy="64.975" r="9.387" class="B"/><circle cx="594.609" cy="64.975" r="6.939" class="C"/><circle cx="1225.9" cy="178.204" r="4.045"/><circle cx="1225.9" cy="178.204" r="9.387" class="B"/><circle cx="1225.9" cy="178.204" r="6.939" class="C"/><circle cx="618.723" cy="322.034" r="4.045"/><circle cx="618.723" cy="322.034" r="9.387" class="B"/><circle cx="618.723" cy="322.034" r="6.939" class="C"/><circle cx="1252.08" cy="449.373" r="4.045"/><circle cx="1252.08" cy="449.373" r="9.387" class="B"/><circle cx="1252.08" cy="449.373" r="6.939" class="C"/><circle cx="329.819" cy="455.182" r="4.045"/><circle cx="329.819" cy="455.182" r="9.387" class="B"/><circle cx="329.819" cy="455.182" r="6.939" class="C"/><circle cx="1383.61" cy="253.056" r="4.045"/><circle cx="1383.61" cy="253.056" r="9.387" class="B"/><circle cx="1383.61" cy="253.056" r="6.939" class="C"/><circle cx="1670.96" cy="299.82" r="4.045"/><circle cx="1670.96" cy="299.82" r="9.387" class="B"/><circle cx="1670.96" cy="299.82" r="6.939" class="C"/><circle cx="101.817" cy="100.824" r="2.62"/><circle cx="101.817" cy="100.824" r="6.08" class="B"/><circle cx="101.817" cy="100.824" r="4.494" class="C"/><circle cx="542.789" cy="209.119" r="2.62"/><circle cx="542.789" cy="209.119" r="6.08" class="B"/><circle cx="542.789" cy="209.119" r="4.494" class="C"/><circle cx="1166.52" cy="346.959" r="2.62"/><circle cx="1166.52" cy="346.959" r="6.08" class="B"/><circle cx="1166.52" cy="346.959" r="4.494" class="C"/><circle cx="959.648" cy="60.355" r="2.62"/><circle cx="959.648" cy="60.355" r="6.08" class="B"/><circle cx="959.648" cy="60.355" r="4.494" class="C"/><circle cx="1307.67" cy="140.141" r="2.62"/><circle cx="1307.67" cy="140.141" r="6.08" class="B"/><circle cx="1307.67" cy="140.141" r="4.494" class="C"/><circle cx="1595.03" cy="186.905" r="2.62"/><circle cx="1595.03" cy="186.905" r="6.08" class="B"/><circle cx="1595.03" cy="186.905" r="4.494" class="C"/><circle cx="123.84" cy="351.032" r="2.62"/><circle cx="123.84" cy="351.032" r="6.08" class="B"/><circle cx="123.84" cy="351.032" r="4.494" class="C"/><circle cx="532.215" cy="181.511" r="2.62"/><circle cx="532.215" cy="181.511" r="6.08" class="B"/><circle cx="532.215" cy="181.511" r="4.494" class="C"/><circle cx="564.812" cy="459.327" r="2.62"/><circle cx="564.812" cy="459.327" r="6.08" class="B"/><circle cx="564.812" cy="459.327" r="4.494" class="C"/><circle cx="1376.9" cy="136.642" r="2.62"/><circle cx="1376.9" cy="136.642" r="6.08" class="B"/><circle cx="1376.9" cy="136.642" r="4.494" class="C"/><circle cx="1329.7" cy="390.349" r="2.62"/><circle cx="1329.7" cy="390.349" r="6.08" class="B"/><circle cx="1329.7" cy="390.349" r="4.494" class="C"/><circle cx="407.437" cy="396.159" r="2.62"/><circle cx="407.437" cy="396.159" r="6.08" class="B"/><circle cx="407.437" cy="396.159" r="4.494" class="C"/><circle cx="1617.05" cy="437.113" r="2.62"/><circle cx="1617.05" cy="437.113" r="6.08" class="B"/><circle cx="1617.05" cy="437.113" r="4.494" class="C"/><circle cx="474.913" cy="323.938" r="2.62"/><circle cx="474.913" cy="323.938" r="6.08" class="B"/><circle cx="474.913" cy="323.938" r="4.494" class="C"/><circle cx="1108.27" cy="451.277" r="2.62"/><circle cx="1108.27" cy="451.277" r="6.08" class="B"/><circle cx="1108.27" cy="451.277" r="4.494" class="C"/><circle cx="186.009" cy="457.087" r="2.62"/><circle cx="186.009" cy="457.087" r="6.08" class="B"/><circle cx="186.009" cy="457.087" r="4.494" class="C"/><circle cx="1920.36" cy="128.592" r="2.62"/><circle cx="1920.36" cy="128.592" r="6.08" class="B"/><circle cx="1920.36" cy="128.592" r="4.494" class="C"/><circle cx="915.886" cy="432.233" r="2.62"/><circle cx="915.886" cy="432.233" r="6.08" class="B"/><circle cx="915.886" cy="432.233" r="4.494" class="C"/><circle cx="1727.98" cy="109.548" r="2.62"/><circle cx="1727.98" cy="109.548" r="6.08" class="B"/><circle cx="1727.98" cy="109.548" r="4.494" class="C"/><circle cx="1680.77" cy="363.255" r="2.62"/><circle cx="1680.77" cy="363.255" r="6.08" class="B"/><circle cx="1680.77" cy="363.255" r="4.494" class="C"/><circle cx="1968.13" cy="410.019" r="2.62"/><circle cx="1968.13" cy="410.019" r="6.08" class="B"/><circle cx="1968.13" cy="410.019" r="4.494" class="C"/></g><defs><linearGradient id="A" x1="1000" y1="459.589" x2="1000" y2="182.523" gradientUnits="userSpaceOnUse"><stop offset="0" stop-color="#00062b"/><stop offset="1" stop-color="#00094c"/></linearGradient><radialGradient id="B" cx="0" cy="0" r="1" gradientUnits="userSpaceOnUse" gradientTransform="matrix(81.0804 -1.66561 1.35738 66.076 982.775 238.118)"><stop offset="0" stop-color="#0d0f60"/><stop offset=".57" stop-color="#14189b"/><stop offset="1" stop-color="#1873b7"/></radialGradient><radialGradient id="C" cx="0" cy="0" r="1" gradientUnits="userSpaceOnUse" gradientTransform="matrix(78.9416 -31.1285 14.4227 36.576 961.15 231.053)"><stop offset="0" stop-color="#eed189"/><stop offset="1" stop-color="#1d582e"/></radialGradient></defs></svg>