<svg xmlns="http://www.w3.org/2000/svg" fill-rule="evenodd" stroke-linejoin="round" stroke-miterlimit="2" viewBox="0 0 1000 500"><style>.B{fill-rule:nonzero}.C{fill:#32544d}.D{fill:#fff}.E{fill:#f3e9e0}.F{fill:#ecf6f5}.G{fill:#f0cf97}.H{fill:#d75f74}.I{fill:#0ba79f}</style><path d="M0 0h1000v500H0z" fill="#ffe8ba"/><g class="E"><circle cx="494.335" cy="285.125" r="40.056"/><circle cx="494.335" cy="285.125" r="35.567"/></g><path d="M529.204 265.467c-6.887-12.16-19.92-20.355-34.87-20.355-22.1 0-40.057 17.914-40.057 40.056 0 9.154 3.095 17.566 8.238 24.322 11.42-13.163 33.693-33.91 66.688-44.023z" opacity=".8" class="B F"/><g class="C"><path d="M490.28 323.307h6.8v5.797h-6.8z"/><path d="M494.335 327.23c-23.232 0-42.106-18.873-42.106-42.105s18.917-42.105 42.106-42.105 42.105 18.917 42.105 42.105-18.874 42.105-42.105 42.105zm0-80.07c-20.922 0-37.965 17.042-37.965 37.964s17.043 37.964 37.965 37.964 37.964-17.042 37.964-37.964-17.043-37.964-37.964-37.964z" class="B"/></g><path d="M526.633 287.696a2.575 2.575 0 0 1-2.572-2.57c0-10.46-5.623-20.268-14.645-25.586-1.22-.74-1.657-2.3-.916-3.53s2.3-1.657 3.53-.916c10.6 6.233 17.173 17.784 17.173 30.075 0 1.395-1.177 2.528-2.57 2.528zm-21.358 30.424a2.62 2.62 0 0 1-2.44-1.7 2.59 2.59 0 0 1 1.569-3.312 29.92 29.92 0 0 0 17.391-16.52c.567-1.307 2.05-1.96 3.4-1.395 1.308.567 1.962 2.05 1.395 3.4-3.75 9.023-11.202 16.127-20.4 19.396-.35.088-.654.13-.915.13z" class="D B"/><path d="M471.507 411.26c.03-2.79 10.188-4.95 22.672-4.82s22.596 2.5 22.567 5.29-10.188 4.95-22.672 4.82-22.596-2.5-22.567-5.29z" opacity=".3" class="G"/><g class="B"><path d="M498.388 334.335c0 .174-.13.305-.305.305h-8.76a.298.298 0 0 1-.305-.305v-4.926c0-.174.13-.305.305-.305h8.76c.174 0 .305.13.305.305z" class="E"/><path d="M502.703 342.66s-.392-4.14-3.487-4.14h-11.332c-3.095 0-3.487 4.14-3.487 4.14l-2.267 66.426c0 3.967 3.967 3.792 3.967 3.792h14.906s3.967.175 3.967-3.792-2.267-66.426-2.267-66.426z" class="H"/><path d="M501.047 414.448h-14.994c-2.702 0-5.448-1.657-5.448-5.362 0-3.966 2.135-63.942 2.266-66.513v-.088c.174-1.917 1.482-5.535 5.013-5.535h11.376c3.574 0 4.838 3.618 5.012 5.535v.088l2.267 66.513c0 2.093-.915 3.75-2.572 4.62-1.22.697-2.44.74-2.92.74zm-14.95-3.095h14.95c.087 0 .784 0 1.395-.35.436-.218.915-.654.915-1.918 0-3.835-2.18-64.116-2.223-66.34-.044-.305-.392-2.702-1.918-2.702H487.84c-1.526 0-1.874 2.397-1.918 2.702l-2.223 66.34c0 1.875 1.264 2.267 2.398 2.267zm11.986-75.667h-8.76a1.36 1.36 0 0 1-1.351-1.351v-4.926a1.36 1.36 0 0 1 1.351-1.351h8.76a1.36 1.36 0 0 1 1.351 1.351v4.926a1.36 1.36 0 0 1-1.351 1.351zm-8.02-2.05h7.28v-3.487h-7.28z" class="C"/><path d="M499.74 340.132c0 .174-.13.305-.305.305h-11.68a.298.298 0 0 1-.305-.305v-5.667c0-.174.13-.305.305-.305h11.68c.175 0 .305.13.305.305z" class="E"/><path d="M499.434 341.483h-11.68a1.36 1.36 0 0 1-1.351-1.351v-5.667a1.36 1.36 0 0 1 1.351-1.351h11.68a1.36 1.36 0 0 1 1.351 1.351v5.667a1.36 1.36 0 0 1-1.351 1.351zm-10.984-2.092h10.243v-4.228H488.45z" class="C"/><path d="M498.127 395.487c-1.395 0-2.572-1.133-2.572-2.528l-.35-15.3c-.043-1.438 1.1-2.615 2.528-2.66s2.616 1.1 2.66 2.528l.35 15.3c.043 1.44-1.1 2.616-2.528 2.66zm-.567-23.842c-1.395 0-2.572-1.133-2.572-2.528l-.523-22.534c-.043-1.44 1.1-2.616 2.528-2.66 1.44 0 2.616 1.1 2.66 2.528l.523 22.534c.044 1.44-1.1 2.616-2.528 2.66z" opacity=".6" fill="#f0f7f7"/></g><g class="E"><circle cx="686.09" cy="272.979" r="40.056"/><circle cx="686.09" cy="272.979" r="35.567"/></g><path d="M720.96 253.32c-6.886-12.16-19.92-20.355-34.87-20.355-22.1 0-40.057 17.914-40.057 40.056 0 9.154 3.095 17.566 8.238 24.322 11.42-13.12 33.693-33.91 66.688-44.023z" class="B F"/><g class="C"><path d="M681.382 311.16h8.325v15.69h-8.325z"/><path d="M686.1 315.084c-23.232 0-42.105-18.917-42.105-42.105 0-23.232 18.917-42.105 42.105-42.105s42.105 18.917 42.105 42.105c0 23.232-18.873 42.105-42.105 42.105zm0-80.07c-20.922 0-37.964 17.043-37.964 37.965s17.042 37.964 37.964 37.964 37.964-17.042 37.964-37.964-17-37.965-37.964-37.965z" class="B"/></g><path d="M718.388 275.594a2.576 2.576 0 0 1-2.572-2.572c0-10.46-5.623-20.268-14.645-25.585-1.22-.74-1.656-2.3-.915-3.53s2.3-1.656 3.53-.915c10.592 6.233 17.173 17.783 17.173 30.075a2.57 2.57 0 0 1-2.57 2.528zm-21.358 30.38a2.623 2.623 0 0 1-2.44-1.7 2.59 2.59 0 0 1 1.569-3.312 29.922 29.922 0 0 0 17.392-16.52c.566-1.307 2.048-1.96 3.4-1.395 1.308.567 1.962 2.05 1.395 3.4-3.748 9.023-11.202 16.127-20.398 19.44-.35.044-.654.087-.916.087z" class="D B"/><path d="M663.27 423.406c.03-2.79 10.188-4.95 22.672-4.82s22.596 2.5 22.567 5.29-10.19 4.95-22.673 4.82-22.595-2.5-22.566-5.29z" class="G"/><g class="B"><path d="M694.46 330.514s-.393-4.14-3.487-4.14H679.64c-3.095 0-3.487 4.14-3.487 4.14l-2.223 90.748c0 3.966 3.966 3.792 3.966 3.792h14.907s3.967.174 3.967-3.792l-2.3-90.748z" class="I"/><path d="M692.802 426.58h-14.994c-2.702 0-5.448-1.657-5.448-5.362 0-3.922 2.136-87.217 2.223-90.79v-.088c.174-1.917 1.482-5.535 5.012-5.535h11.377c3.574 0 4.838 3.618 5.012 5.535v.088l2.267 90.79c0 2.093-.916 3.75-2.572 4.62-1.177.697-2.397.74-2.877.74zm-14.95-3.095h14.95c.087 0 .785 0 1.395-.35.436-.218.915-.654.915-1.918 0-3.835-2.18-87.74-2.223-90.617-.043-.35-.392-2.703-1.917-2.703h-11.377c-1.525 0-1.874 2.354-1.917 2.703l-2.223 90.617c0 1.875 1.307 2.267 2.397 2.267z" class="C"/><path d="M689.882 383.34c-1.395 0-2.572-1.133-2.572-2.528l-.348-15.3c-.044-1.438 1.1-2.615 2.528-2.66s2.615 1.1 2.658 2.528l.35 15.3c.044 1.44-1.1 2.616-2.528 2.66zm-.567-23.84c-1.394 0-2.57-1.133-2.57-2.528l-.523-22.534c-.044-1.44 1.1-2.616 2.528-2.66 1.438 0 2.615 1.1 2.658 2.528l.524 22.534c.043 1.44-1.1 2.616-2.53 2.66z" fill="#f0f7f7"/><path d="M575.296 256.334c0 .174-.13.305-.305.305h-11.55a.298.298 0 0 1-.306-.305v-16.476c0-.175.13-.305.306-.305h11.55c.174 0 .305.13.305.305z" class="C"/></g><circle cx="569.194" cy="182.497" r="60.542" class="E"/><circle cx="569.194" cy="182.497" fill="#ece7d9" r="54.353"/><g class="B"><path d="M570.066 121.955c-33.43 0-60.543 27.11-60.543 60.542 0 11.987 3.487 23.145 9.46 32.516 15.91-15.91 51.825-45.94 109.84-47.074-6.45-26.414-30.293-45.984-58.755-45.984z" class="F"/><path d="M569.194 245.61c-34.826 0-63.158-28.33-63.158-63.157s28.332-63.158 63.158-63.158 63.114 28.332 63.114 63.158c.044 34.87-28.288 63.157-63.114 63.157zm0-121.085c-31.95 0-57.97 25.978-57.97 57.97 0 31.95 25.978 57.97 57.97 57.97 31.95 0 57.97-25.978 57.97-57.97 0-31.95-26.022-57.97-57.97-57.97z" class="C"/><path d="M598.528 222.685c-1.482 0-2.92-.698-3.792-1.962-1.482-2.092-1.002-5.012 1.1-6.494 6.538-4.62 11.42-11.028 14.166-18.525.87-2.44 3.574-3.66 5.97-2.8s3.66 3.574 2.8 5.97a48.35 48.35 0 0 1-17.522 22.927c-.872.6-1.788.872-2.703.872zm18.437-35.655a4.67 4.67 0 0 1-4.663-4.663 39.17 39.17 0 0 0-19.484-33.78 4.69 4.69 0 0 1-1.7-6.364 4.69 4.69 0 0 1 6.364-1.7 48.56 48.56 0 0 1 24.104 41.844c.043 2.57-2.05 4.663-4.62 4.663z" class="D"/></g><path d="M525.303 360.168c.037-3.464 12.662-6.145 28.177-5.983s28.08 3.105 28.045 6.568-12.66 6.145-28.176 5.983-28.082-3.104-28.046-6.568z" class="G"/><g class="B"><path d="M584.842 340.762c-.218-2.05-1.613-2.354-1.613-2.354h-1.395l-1.83-77.803c-.35-4.838-4.84-5.187-4.84-5.187H563.3s-4.5.35-4.838 5.187-1.83 77.803-1.83 77.803h-1.395s-1.395.35-1.613 2.354c-.217 2.048-.653 9.85 2.572 15.168 3.487 5.666 8.107 6.06 12.858 6.102h.35c4.75 0 9.415-.436 12.858-6.102 3.226-5.317 2.8-13.12 2.572-15.168z" fill="#43aaa0"/><path d="M575.122 255.418h-11.856s-4.5.35-4.838 5.187v.35h21.532v-.35c-.35-4.838-4.838-5.187-4.838-5.187zm-18.525 83h-1.394s-1.395.35-1.613 2.354c-.218 2.048-.654 9.85 2.572 15.168 3.487 5.666 8.15 6.06 12.858 6.102h.348c4.75 0 9.415-.436 12.86-6.102 3.27-5.317 2.833-13.12 2.57-15.168-.218-2.05-1.612-2.354-1.612-2.354h-1.395v-.087h-25.194z" class="H"/><g class="C"><path d="M581.616 262.523h-24.844l.087-1.656c0-.175 0-.305.044-.393.348-4.88 4.27-6.45 6.276-6.625h12.074c2.005.13 5.928 1.744 6.276 6.625a1.49 1.49 0 0 0 .044.393zm-21.357-3.138h17.87c-.74-2.005-2.658-2.354-3.094-2.397h-11.682c-.392.043-2.353.348-3.094 2.397zm9.11 104.173h-.348c-5.1 0-10.374-.567-14.2-6.843-3.792-6.2-2.92-15.125-2.8-16.128.26-2.44 1.918-3.486 2.833-3.704l.26-.044v-.087h28.245v.087h.087l.174.044c.916.218 2.528 1.264 2.834 3.704.13 1.003.958 9.938-2.8 16.128-3.923 6.276-9.197 6.843-14.297 6.843zm-13.817-23.58c-.13.087-.348.393-.436 1.003-.043.348-.915 8.76 2.354 14.166 3.008 4.925 6.843 5.317 11.55 5.317h.348c4.708 0 8.543-.436 11.55-5.317 3.313-5.405 2.397-13.818 2.354-14.166-.087-.6-.262-.872-.436-1.003h-2.572v-.087H558.08v.087z"/><path d="M569.368 363.558h-.348c-5.1 0-10.374-.567-14.2-6.843-3.792-6.2-2.92-15.125-2.79-16.128.26-2.44 1.918-3.486 2.833-3.704l.26-.044 1.83-76.365c.35-4.88 4.272-6.45 6.277-6.625h12.073c2.005.13 5.928 1.744 6.277 6.625.305 4.5 1.613 65.6 1.83 76.365h.088l.174.044c.915.218 2.528 1.264 2.833 3.704.13 1.003.96 9.938-2.79 16.128-3.967 6.276-9.24 6.843-14.34 6.843zm-13.817-23.58c-.13.087-.348.393-.436 1.003-.043.348-.915 8.76 2.354 14.166 3.008 4.925 6.843 5.317 11.55 5.317h.348c4.708 0 8.543-.436 11.55-5.317 3.313-5.405 2.397-13.818 2.354-14.166-.087-.6-.262-.872-.436-1.003h-2.615l-.044-1.525c0-.74-1.482-73.01-1.83-77.716-.218-3.225-2.876-3.66-3.356-3.705H563.3c-.48.044-3.138.523-3.356 3.705-.35 4.75-1.83 77.018-1.83 77.716l-.044 1.525z"/></g><path d="M575.296 323.5c-1.395 0-2.57-1.133-2.57-2.528l-.48-18.83c-.043-1.44 1.1-2.616 2.528-2.66s2.615 1.1 2.66 2.528l.48 18.83c.044 1.438-1.1 2.615-2.528 2.658zm-.654-26.848c-1.394 0-2.57-1.134-2.57-2.528l-.654-26.85c-.044-1.438 1.1-2.615 2.528-2.66s2.615 1.1 2.66 2.528l.654 26.85c.043 1.438-1.1 2.615-2.528 2.66zm-5.1 62.286h-.436c-1.438-.044-2.572-1.264-2.485-2.66.044-1.44 1.264-2.572 2.66-2.485 1.657.044 2.964-.348 3.923-1.264 1.7-1.612 2.092-4.576 2.092-5.58a2.575 2.575 0 0 1 2.572-2.57 2.576 2.576 0 0 1 2.572 2.57c0 .567-.13 5.84-3.662 9.284-1.83 1.744-4.315 2.703-7.235 2.703z" class="D"/></g><path d="M171.435 413.015c.018-1.732 16.34-2.968 36.424-2.758s36.377 1.786 36.36 3.518-16.34 2.968-36.425 2.758-36.377-1.786-36.358-3.518z" opacity=".3" class="G"/><g class="E"><circle cx="242.981" cy="307.368" opacity=".7" r="41.103"/><circle cx="242.981" cy="307.368" r="36.482"/><path d="M217.657 356.883c-.74 1.22-2.3 1.657-3.53.916l-4.97-2.964c-1.22-.74-1.656-2.3-.915-3.53l3.27-5.535c.74-1.22 2.3-1.657 3.53-.916l4.97 2.964c1.22.74 1.656 2.3.915 3.53z" class="B"/></g><path d="M215.434 359.193a3.43 3.43 0 0 1-1.831-.523l-4.97-2.963a3.624 3.624 0 0 1-1.264-4.97l3.27-5.536a3.66 3.66 0 0 1 3.139-1.787c.653 0 1.264.174 1.83.523l4.97 2.964a3.624 3.624 0 0 1 1.264 4.97l-3.27 5.535c-.697 1.134-1.874 1.787-3.138 1.787zm-1.7-13.686c-.567 0-1.046.305-1.35.74l-3.27 5.536c-.436.74-.174 1.7.567 2.135l4.968 2.964c.262.13.523.218.785.218.567 0 1.046-.305 1.35-.784l3.27-5.536c.436-.74.175-1.7-.566-2.136l-4.97-2.964c-.262-.087-.523-.174-.785-.174z" class="B C"/><path d="M284.084 308.24c.305-14.34-6.93-28.375-20.138-36.22-19.527-11.55-44.72-5.1-56.27 14.428-4.795 8.063-6.45 17.13-5.45 25.76 16.912-5.58 47.423-12.248 81.857-3.967z" opacity=".8" class="B F"/><path d="M242.98 350.563c-7.715 0-15.3-2.092-21.924-6.015-9.938-5.884-16.956-15.255-19.832-26.414s-1.22-22.796 4.663-32.7c7.715-13.076 21.968-21.183 37.18-21.183 7.715 0 15.3 2.092 21.924 6.015 20.486 12.117 27.286 38.662 15.17 59.104-7.76 13.032-22.012 21.183-37.18 21.183zm.044-82.205c-13.73 0-26.632 7.323-33.606 19.135-5.318 8.98-6.8 19.483-4.228 29.552 2.572 10.112 8.935 18.568 17.914 23.885a38.79 38.79 0 0 0 19.832 5.449c13.73 0 26.632-7.323 33.606-19.135 10.94-18.524 4.795-42.497-13.686-53.438a38.797 38.797 0 0 0-19.832-5.448z" class="B C"/><path d="M271.487 326.852c-.436 0-.915-.13-1.308-.35-1.22-.74-1.656-2.3-.915-3.53 5.492-9.24 5.666-20.88.436-30.293a2.62 2.62 0 0 1 1.002-3.53 2.62 2.62 0 0 1 3.53 1.003c6.06 11.027 5.884 24.626-.523 35.436a2.6 2.6 0 0 1-2.223 1.264zM242.98 343.1c-2.223 0-4.5-.218-6.67-.654-1.395-.26-2.3-1.613-2.048-3.05.26-1.395 1.612-2.3 3.05-2.05 8.412 1.613 17.173-.392 24.016-5.535a2.585 2.585 0 1 1 3.095 4.141c-6.277 4.663-13.817 7.148-21.445 7.148z" class="D B"/><path d="M226.244 352.568c-.74 1.22-2.31 1.657-3.53.916l-13.6-8.02c-1.22-.74-1.656-2.31-.915-3.53l1.482-2.484c.74-1.22 2.3-1.657 3.53-.916l13.6 8.064c1.22.74 1.657 2.3.916 3.53z" class="B I"/><path d="M224.02 354.878a3.43 3.43 0 0 1-1.831-.523l-13.6-8.02a3.442 3.442 0 0 1-1.656-2.223c-.262-.96-.088-1.917.392-2.746l1.482-2.484a3.637 3.637 0 0 1 3.138-1.787 3.43 3.43 0 0 1 1.831.523l13.6 8.063a3.624 3.624 0 0 1 1.264 4.97l-1.482 2.485c-.654 1.1-1.874 1.743-3.138 1.743zm-12.118-15.735c-.566 0-1.046.306-1.35.785l-1.482 2.484c-.218.35-.26.785-.174 1.177s.35.74.697.96l13.6 8.064c.262.13.524.218.785.218.567 0 1.046-.305 1.35-.74l1.482-2.485c.436-.74.175-1.7-.566-2.135l-13.556-8.108a1.51 1.51 0 0 0-.785-.218z" class="B C"/><path d="M220.767 356.582l-13.954-8.258-32.255 54.503 13.954 8.258z" fill="#eaac58"/><g class="B"><path d="M189.064 413.24l-16.65-9.85 33.867-57.186 16.65 9.85zm-12.38-10.94l11.29 6.67 30.685-51.87-11.29-6.67z" class="C"/><path d="M190.415 412.108c-.74 1.22-2.3 1.656-3.53.915l-13.6-8.063c-1.22-.74-1.656-2.3-.915-3.53l1.482-2.484c.74-1.22 2.3-1.656 3.53-.915l13.642 8.02c1.22.74 1.657 2.3.916 3.53z" class="I"/><path d="M188.192 414.418a3.43 3.43 0 0 1-1.831-.523l-13.6-8.063a3.624 3.624 0 0 1-1.264-4.97l1.482-2.485a3.659 3.659 0 0 1 3.138-1.787c.654 0 1.265.174 1.83.523l13.6 8.064a3.624 3.624 0 0 1 1.264 4.97l-1.482 2.484a3.69 3.69 0 0 1-3.138 1.787zm-12.117-15.735c-.567 0-1.046.305-1.35.785l-1.482 2.484c-.436.74-.175 1.7.566 2.136l13.6 8.064c.26.13.523.218.784.218.567 0 1.046-.305 1.35-.785l1.482-2.484c.436-.74.175-1.7-.566-2.136l-13.6-8.064a1.51 1.51 0 0 0-.784-.218z" class="C"/><path d="M193.466 393.584c-1.22-.74-1.656-2.3-.915-3.53l5.97-10.112c.74-1.22 2.3-1.656 3.53-.915s1.656 2.3.915 3.53l-5.97 10.112c-.698 1.264-2.3 1.657-3.53.916zm9.284-15.692c-1.22-.74-1.656-2.3-.915-3.53l10.243-17.304c.74-1.22 2.3-1.657 3.53-.916s1.657 2.3.916 3.53l-10.243 17.304c-.698 1.264-2.3 1.656-3.53.915z" opacity=".6" class="D"/><path d="M349.22 433.054c25.41.262 45.94 4.098 45.897 8.587s-20.66 7.89-46.07 7.628-45.94-4.097-45.897-8.587 20.704-7.89 46.07-7.628z" fill-opacity=".6" class="G"/><path d="M360.945 323.39c-.043.218-.26.306-.436.262l-13.38-3.618c-.218-.043-.305-.26-.262-.436L352 300.55c.043-.218.26-.305.436-.262l13.38 3.618c.218.044.305.262.26.436z" class="C"/></g><circle cx="377.029" cy="232.162" r="72.616" class="E"/><circle cx="377.029" cy="232.162" fill="#ece7d9" r="65.206"/><g class="B"><path d="M397.08 162.335c-38.706-10.504-78.588 12.38-89.05 51.084a72.59 72.59 0 0 0 .741 40.623c23.407-13.38 74.404-36.918 141.92-20.006.74-32.603-20.748-62.765-53.612-71.7z" class="F"/><path d="M377.072 307.35a75.43 75.43 0 0 1-19.7-2.615c-40.013-10.853-63.724-52.217-52.915-92.23 8.848-32.7 38.706-55.53 72.53-55.53a75.52 75.52 0 0 1 19.701 2.615c40.013 10.853 63.768 52.218 52.915 92.23-8.848 32.7-38.662 55.53-72.53 55.53zm-.087-145.232c-31.513 0-59.278 21.27-67.516 51.738-10.112 37.267 11.986 75.798 49.253 85.9a70.984 70.984 0 0 0 18.35 2.44c31.514 0 59.28-21.27 67.517-51.738 10.112-37.267-11.987-75.798-49.254-85.9a70.52 70.52 0 0 0-18.35-2.441z" class="C"/><path d="M399.825 287.125c-1.918 0-3.705-1.177-4.36-3.05-.872-2.397.35-5.1 2.8-5.972a47.58 47.58 0 0 0 22.665-17.347c1.482-2.092 4.402-2.615 6.494-1.133s2.616 4.402 1.134 6.494c-6.713 9.546-16.084 16.694-27.068 20.704a4.78 4.78 0 0 1-1.656.305zm32.56-35.48c-.392 0-.828-.043-1.22-.174a4.62 4.62 0 0 1-3.269-5.71c4.446-16.4-.218-34.042-12.16-46.115-1.83-1.83-1.787-4.795.044-6.582a4.63 4.63 0 0 1 6.581.044c14.297 14.427 19.832 35.523 14.558 55.094-.6 2.048-2.484 3.443-4.533 3.443z" class="D"/><g class="H"><path d="M345.515 420.283c.393-2.397-1.133-3.27-1.133-3.27l-1.613-.435 22.273-90.662c1.134-5.71-3.966-7.496-3.966-7.496l-6.67-1.788-.392-.087-6.67-1.787s-5.318-1.002-7.235 4.446c-1.918 5.492-26.545 89.484-26.545 89.484l-1.613-.436s-1.743-.043-2.615 2.223c-.915 2.267-3.836 11.202-1.743 18.35 2.223 7.627 7.497 9.59 12.99 11.07.087 0 .13.043.174.043s.13.044.174.044c5.492 1.482 11.028 2.484 16.825-3.008 5.405-5.1 7.366-14.296 7.758-16.694z"/><path d="M354.363 316.633l-.392-.087-6.67-1.787s-5.317-1.002-7.235 4.446c-.044.087-.087.262-.13.392l24.932 6.756c.044-.174.044-.305.087-.392 1.133-5.7-3.966-7.497-3.966-7.497z"/></g><path d="M313.566 408.69l-1.613-.436s-1.743-.043-2.615 2.223c-.915 2.267-3.836 11.202-1.743 18.35 2.223 7.627 7.497 9.59 12.99 11.07.043 0 .13.043.174.043s.13.044.174.044c5.492 1.482 11.028 2.484 16.825-3.008 5.405-5.143 7.366-14.296 7.758-16.737.393-2.397-1.133-3.27-1.133-3.27l-1.613-.436s0-.044.044-.087l-29.16-7.89c-.087.087-.087.13-.087.13z" fill="#8963aa"/><g class="C"><path d="M366.088 328.27l-28.113-7.628.523-1.57.13-.436c1.743-5.012 5.97-5.58 7.67-5.58.697 0 1.22.087 1.307.087l.13.044 13.817 3.75c2.18.784 6.06 3.704 4.97 9.24-.043.13-.043.262-.087.436zm-23.972-9.72l21.488 5.84c0-3.182-2.66-4.315-3.05-4.446l-13.556-3.66c-.087 0-.348-.044-.654-.044-1.394-.043-3.138.392-4.227 2.3zM327.95 442.687c-2.18 0-4.272-.436-6.2-.872l-1.394-.392c-.088 0-.13-.043-.218-.043l-1.482-.393c-5.274-1.612-10.418-4.097-12.64-11.725-2.397-8.238 1.352-18.22 1.788-19.352.915-2.354 2.8-3.226 4.053-3.226h.218l.35.087.043-.087 32.08 8.674-.043.087.348.087.175.088c.915.523 2.354 2.092 1.918 4.838-.175 1.177-1.962 11.725-8.238 17.6-3.14 3.138-6.713 4.62-10.766 4.62zm-6.713-4.228l.13.044c2.485.654 4.577 1.1 6.625 1.1 3.27 0 6.06-1.177 8.718-3.75 5.58-5.274 7.235-15.386 7.28-15.822.13-.96-.13-1.395-.305-1.57l-2.8-.74.044-.087-26.24-7.105-.043.087-2.8-.74c-.26.087-.697.305-1.1 1.22-.174.392-3.88 9.937-1.7 17.347 2.005 6.8 6.363 8.5 11.9 10.025z"/><path d="M327.95 442.687c-2.18 0-4.272-.436-6.2-.915l-1.394-.392c-.044 0-.13-.044-.175-.044l-1.438-.392c-5.318-1.613-10.417-4.097-12.684-11.725-2.397-8.238 1.35-18.22 1.787-19.353.915-2.354 2.8-3.225 4.054-3.225h.218l.348.087 26.153-88.1c1.743-5.056 5.97-5.58 7.67-5.58.697 0 1.22.087 1.307.087l.13.044 13.817 3.75c2.18.784 6.06 3.704 4.97 9.24-1.046 5.318-19.004 77.54-21.924 89.223l.35.087.174.087c.915.523 2.354 2.092 1.918 4.838-.175 1.177-1.962 11.725-8.238 17.61-3.226 3.182-6.8 4.664-10.853 4.664zm-6.713-4.228l.13.044c2.485.654 4.577 1.1 6.625 1.1 3.27 0 6.06-1.177 8.718-3.75 5.58-5.274 7.235-15.386 7.28-15.822.13-.96-.13-1.395-.305-1.57l-2.8-.74.35-1.482c.218-.828 21.14-84.95 22.273-90.574.828-4.14-2.485-5.536-2.92-5.7l-13.555-3.66c-.087 0-.35-.044-.654-.044-1.613 0-3.748.6-4.75 3.487-1.874 5.405-26.283 88.57-26.5 89.397l-.436 1.482-2.79-.74c-.262.087-.698.305-1.1 1.22-.174.392-3.88 9.937-1.7 17.347 2.005 6.8 6.364 8.5 11.9 10.025z"/></g><path d="M339.85 397.27a3.137 3.137 0 0 1-2.223-3.748l5.36-21.968c.393-1.656 2.092-2.702 3.75-2.266s2.702 2.092 2.266 3.748l-5.36 21.968c-.392 1.656-2.092 2.702-3.748 2.266h-.044zm7.67-31.252a3.14 3.14 0 0 1-2.223-3.749l7.628-31.295c.392-1.657 2.092-2.703 3.75-2.267 1.656.392 2.702 2.092 2.266 3.75l-7.628 31.295c-.392 1.656-2.092 2.702-3.748 2.267zm-25.367 70.436l-.523-.13c-1.657-.523-2.572-2.222-2.05-3.88s2.223-2.57 3.88-2.048c1.918.566 3.53.523 4.926-.262 2.44-1.35 3.835-4.62 4.184-5.797.48-1.656 2.18-2.615 3.792-2.18 1.656.436 2.615 2.135 2.18 3.792-.174.697-1.96 6.712-7.148 9.6-2.746 1.525-5.928 1.83-9.24.915z" class="D"/></g><path d="M732.9 270.77c.018-1.732 16.34-2.968 36.424-2.758s36.377 1.786 36.36 3.518-16.34 2.968-36.424 2.758-36.377-1.786-36.36-3.518z" class="G"/><g class="E"><circle cx="735.848" cy="162.491" opacity=".7" r="41.103"/><circle cx="735.848" cy="162.491" r="36.482"/></g><g class="B"><path d="M758.513 128.23c-11.942-7.89-27.72-9.327-41.364-2.3-20.224 10.33-28.2 35.088-17.87 55.27 4.27 8.368 11.027 14.6 18.873 18.35 4.315-17.26 14.95-46.638 40.36-71.31z" opacity=".8" class="F"/><path d="M735.848 205.642a42.98 42.98 0 0 1-38.444-23.537c-5.23-10.243-6.19-21.968-2.615-32.908 3.53-10.984 11.158-19.876 21.4-25.15 6.146-3.138 12.728-4.75 19.615-4.75 16.3 0 31.034 9.023 38.443 23.537 5.23 10.243 6.2 21.968 2.616 32.908-3.53 10.984-11.16 19.876-21.402 25.15-6.145 3.182-12.727 4.75-19.614 4.75zm-.043-82.162c-6.2 0-12.16 1.44-17.74 4.272-9.284 4.75-16.17 12.815-19.353 22.71-3.225 9.894-2.354 20.486 2.397 29.77 6.713 13.12 20.007 21.27 34.783 21.27 6.19 0 12.16-1.438 17.74-4.27 9.284-4.75 16.17-12.815 19.352-22.71 3.226-9.894 2.354-20.486-2.397-29.77-6.712-13.12-20.05-21.27-34.782-21.27z" class="C"/><path d="M765.313 150.025c-.96 0-1.83-.523-2.3-1.395-4.882-9.6-14.602-15.953-25.368-16.607a2.597 2.597 0 0 1 .305-5.186c12.597.74 23.93 8.194 29.683 19.396.654 1.264.13 2.833-1.133 3.487-.35.218-.785.305-1.177.305zm-5.318 37.703a2.57 2.57 0 0 1-1.787-.698c-1.046-.96-1.1-2.615-.13-3.66 5.84-6.233 8.848-14.732 8.15-23.275-.13-1.44.96-2.66 2.398-2.8s2.658.96 2.8 2.397c.785 9.982-2.702 19.92-9.545 27.2-.48.566-1.177.828-1.875.828z" class="D"/><path d="M799.53 249.708c-3.75-6.19-34.478-47.51-34.478-47.51l-7.366 4.228-7.67 3.66 19.44 55.355c2.964 6.582 11.332 2.267 11.332 2.267l14.2-7.4c-.044 0 8.28-4.446 4.533-10.592z" fill="#e9cd4f"/><path d="M775.25 270.674c-3.356 0-5.84-1.57-7.192-4.577-2.964-6.58-18.83-53.525-19.483-55.486l-.436-1.308 8.848-4.228 8.5-4.88.828 1.09 34.565 47.597c1.177 1.918 1.482 3.923.915 5.885-1.176 4.228-5.884 6.8-6.102 6.886l-14.21 7.454c-.13.087-3.05 1.57-6.233 1.57zm-23.32-59.758l18.96 53.917c.828 1.874 2.223 2.746 4.36 2.746 2.44 0 4.794-1.177 4.838-1.22l14.166-7.454c.043 0 3.748-2.048 4.533-4.97.305-1.133.13-2.266-.6-3.443-3.313-5.492-28.637-39.62-33.562-46.246l-6.277 3.618z" class="C"/><path d="M788.414 246.963c-1.177.828-2.8.523-3.618-.654l-6.668-9.677c-.83-1.176-.523-2.8.653-3.617s2.8-.523 3.618.653l6.67 9.677c.785 1.22.523 2.833-.654 3.618zM778.04 231.97c-1.176.828-2.8.523-3.617-.654l-11.377-16.563c-.828-1.177-.523-2.8.654-3.618s2.8-.523 3.618.654l11.376 16.563c.828 1.177.567 2.8-.654 3.618z" opacity=".6" class="D"/><path d="M754.198 199.278l-.828.436-14.122 7.4c3.443 6.582 12.16 2.615 12.16 2.615l12.16-6.364s8.237-4.88 4.75-11.507z" class="H"/><path d="M745.873 212.224c-3.574 0-6.233-1.57-7.802-4.5l-.6-1.133 31.383-16.432.6 1.133c3.182 6.102-2.05 11.29-5.23 13.207l-.043.043-12.248 6.408c-.13 0-2.877 1.264-6.06 1.264zm-4.794-4.62c1.09 1.352 2.702 2.05 4.794 2.05 2.44 0 4.664-.96 4.97-1.046l12.117-6.32c.48-.305 6.06-3.836 4.75-8.543z" class="C"/></g></svg>