<svg xmlns="http://www.w3.org/2000/svg" fill-rule="evenodd" stroke-linejoin="round" stroke-miterlimit="2" clip-rule="evenodd" viewBox="0 0 500 500"><path d="M500 0v500H0v-80.811q2.912 23.674 12.626 40.546 11.37 19.747 32.229 30.006T103.672 500q35.905 0 58.902-15.559c22.997-15.559 25.533-23.025 30.605-37.957q7.61-22.398 7.609-65.314V244.9h-77.624v154.565q0 22.911-6.07 32.571t-19.064 9.66q-8.207 0-12.653-3.248-6.497-4.958-9.233-12.995c-1.823-5.357-1.71-4.396-1.824-15.453L0 410.812V0zm0 500-37.444-77.111q-2.736-5.472-10.857-15.559-8.123-10.088-12.396-13.166-6.327-4.616-20.176-9.232 17.27-3.933 27.186-9.917 15.558-9.404 24.45-24.536 8.89-15.13 8.891-35.991 0-23.937-11.627-40.607c-11.627-16.67-17.953-18.722-30.605-22.826q-18.979-6.155-54.884-6.155H253.449l4.446 255.1h73.349V393.822h6.839q10.602 0 18.979 5.814 6.156 4.445 14.02 19.32L414.86 500zM365.269 295.51q21.202 0 28.895 6.497 7.695 6.497 7.694 18.637 0 8.206-4.873 14.533-4.872 6.326-12.566 7.865-15.217 3.42-20.518 3.419h-32.657V295.51z"/></svg>
