<svg clip-rule="evenodd" fill-rule="evenodd" stroke-linejoin="round" stroke-miterlimit="2" viewBox="0 0 2000 500" xmlns="http://www.w3.org/2000/svg"><linearGradient id="a" gradientTransform="matrix(0 500 -1000 0 960.205 0)" gradientUnits="userSpaceOnUse" x2="1"><stop offset="0" stop-color="#00c5ff"/><stop offset=".28" stop-color="#00e0ff"/><stop offset=".5" stop-color="#00ecff"/><stop offset=".75" stop-color="#0df"/><stop offset="1" stop-color="#00adff"/></linearGradient><path d="M0 0h2000v500H0z" fill="url(#a)"/><path d="M964.55 270.059a5.19 5.19 0 0 0-5.887-4.38l-192.762 28.292a5.192 5.192 0 0 0-4.381 5.888l13.564 92.413a5.192 5.192 0 0 0 5.888 4.38l192.762-28.293a5.19 5.19 0 0 0 4.38-5.887z" fill="#24ddaf"/><path d="M860.494 323.692c4.027-3.506 11.246-4.56 16.101-2.363l93.464 42.291c4.865 2.201 3.99 4.693-1.892 5.557l-181.628 26.658c-5.91.867-7.429-1.279-3.409-4.779z" fill="#1fd6a9"/><path d="M767.985 294.122a14.222 14.222 0 0 1 3.483-.968l181.628-26.658a14.296 14.296 0 0 1 3.657-.072c2.894.479 3.349 2.537.721 5.408l-70.464 76.984c-6.97 7.615-19.814 9.49-28.659 4.206l-89.549-53.497c-3.345-1.998-3.475-4.113-.817-5.403z" fill="#1b2d4c" fill-opacity=".1"/><path d="M769.576 298.711c-4.865-2.202-3.991-4.694 1.892-5.557l181.628-26.658c5.91-.868 7.428 1.278 3.409 4.778l-77.365 67.364c-4.027 3.507-11.245 4.56-16.101 2.363z" fill="#61ffd8"/><path d="M1129.36 374.134c-8.065-8.066-21.161-8.066-29.227 0-8.065 8.065-8.065 21.161 0 29.227l213.937 213.937c8.066 8.065 21.162 8.065 29.227 0 8.066-8.066 8.066-21.162 0-29.227z" fill="#0045ff"/><path d="M1140.54 326.863c-8.065-8.065-21.162-8.065-29.227 0-8.066 8.066-8.066 21.162 0 29.227l231.98 231.981c8.066 8.065 21.162 8.065 29.228 0 8.065-8.066 8.065-21.162 0-29.227z" fill="#ffe700"/><path d="M1222.82 292.233c-8.066-8.066-21.162-8.066-29.227 0-8.066 8.065-8.066 21.161 0 29.227l208.157 208.157c8.065 8.065 21.161 8.065 29.227 0 8.065-8.066 8.065-21.162 0-29.228z" fill="#ffb740"/><path d="M1154.47 282.342c-8.066-8.066-21.162-8.066-29.227 0-8.066 8.065-8.066 21.161 0 29.227l247.275 247.275c8.065 8.065 21.161 8.065 29.227 0 8.065-8.066 8.065-21.162 0-29.227z" fill="#00ffc5"/><path d="M724.936 143.433c6.12 6.12 16.057 6.12 22.177 0s6.12-16.057 0-22.177L536.9-88.956c-6.12-6.12-16.057-6.12-22.177 0-6.119 6.119-6.119 16.056 0 22.176z" fill="#0640db"/><path d="M720.003 182.853c6.12 6.12 16.057 6.12 22.177 0s6.12-16.057 0-22.176L514.723-66.78c-6.119-6.12-16.056-6.12-22.176 0s-6.12 16.057 0 22.177z" fill="#e3cd00"/><path d="M652.882 204.438c6.12 6.12 16.057 6.12 22.177 0 6.12-6.119 6.12-16.056 0-22.176L470.37-22.427c-6.119-6.12-16.056-6.12-22.176 0s-6.12 16.057 0 22.177z" fill="#ff5040"/><path d="M712.444 219.646c6.119 6.12 16.056 6.12 22.176 0 6.12-6.119 6.12-16.056 0-22.176L492.547-44.603c-6.12-6.12-16.057-6.12-22.177 0-6.119 6.119-6.119 16.056 0 22.176z" fill="#f09"/><path d="M1155.73 94.693a4.647 4.647 0 0 0-4.206-5.044L977.873 73.904a4.646 4.646 0 0 0-5.045 4.206l-7.548 83.25a4.647 4.647 0 0 0 4.206 5.045l173.651 15.745a4.646 4.646 0 0 0 5.044-4.206z" fill="#24ddaf"/><path d="M1053.95 119.572c4.239-2.208 10.74-1.613 14.505 1.316l72.469 56.368c3.773 2.934 2.49 4.919-2.809 4.439l-163.621-14.836c-5.324-.482-6.196-2.668-1.966-4.871z" fill="#1fd6a9"/><path d="M979.651 74.471a12.727 12.727 0 0 1 3.233-.112l163.621 14.835a12.82 12.82 0 0 1 3.197.703c2.417 1.023 2.383 2.91-.505 4.858l-77.432 52.23c-7.66 5.167-19.228 4.109-25.818-2.341l-66.717-65.3c-2.492-2.439-2.162-4.307.421-4.873z" fill="#1b2d4c" fill-opacity=".1"/><path d="M980.074 78.798c-3.772-2.935-2.489-4.92 2.81-4.439l163.621 14.835c5.324.483 6.196 2.668 1.966 4.872l-81.423 42.415c-4.238 2.208-10.74 1.614-14.505-1.315z" fill="#61ffd8"/></svg>