<svg xmlns="http://www.w3.org/2000/svg" viewBox="283.495 96.255 259.005 197.509" width="259.005" height="197.509" fill="none"><path d="M485.149 236.491c-12.53-12.53-32.845-12.53-45.375 0s-12.53 32.845 0 45.375 32.845 12.53 45.375 0 12.53-32.845 0-45.375m-98.594 0c-12.53-12.53-32.845-12.53-45.375 0s-12.53 32.845 0 45.375 32.845 12.53 45.375 0 12.53-32.845 0-45.375m98.594-128.339c-12.53-12.53-32.845-12.53-45.375 0s-12.53 32.845 0 45.375 32.845 12.53 45.375 0 12.53-32.845 0-45.375m-96.255 0c-12.53-12.53-32.845-12.53-45.375 0s-12.53 32.845 0 45.375 32.845 12.53 45.375 0 12.53-32.845 0-45.375m141.708 64.17c-12.53-12.53-32.845-12.53-45.375 0s-12.53 32.845 0 45.375 32.845 12.53 45.375 0 12.53-32.845 0-45.375m-189.835 0c-12.53-12.53-32.845-12.53-45.375 0s-12.53 32.845 0 45.375 32.845 12.53 45.375 0 12.53-32.845 0-45.375m96.255 0c-12.53-12.53-32.845-12.53-45.375 0s-12.53 32.845 0 45.375 32.845 12.53 45.375 0 12.53-32.845 0-45.375" stroke="#a8c9ff" stroke-width="5"/><path d="M510.254 194.384h0v-.031-.013l-.214-4.081c-.16-2.353-1.1-7.38-1.694-9.622-2.035-7.687-5.939-14.976-9.619-21.955a220.67 220.67 0 0 0-15.959-25.491c-6.557-9.124-15.852-17.59-27.967-13.349-5.936 2.075-10.545 6.865-14.057 12.079-1.681 2.493-3.292 5.03-4.799 7.634-5.097 8.8-9.673 17.892-13.703 27.229-2.538 5.87-5.093 11.879-7.072 18.032-1.979-6.153-4.534-12.161-7.072-18.032-4.03-9.337-8.606-18.429-13.703-27.229-1.507-2.604-3.118-5.14-4.799-7.634-3.513-5.214-8.121-10.003-14.057-12.079-12.115-4.241-21.41 4.224-27.967 13.349a220.67 220.67 0 0 0-15.959 25.491c-3.68 6.978-7.583 14.268-9.619 21.955-.595 2.243-1.534 7.269-1.694 9.622l-.214 4.081h0v.043h0c.003.21.024 1.227.197 4.081.16 2.353 1.1 7.38 1.694 9.622 2.035 7.674 5.939 14.966 9.635 21.945a220.67 220.67 0 0 0 15.959 25.491c6.557 9.124 15.852 17.59 27.967 13.349 5.936-2.075 10.545-6.865 14.057-12.079 1.681-2.493 3.292-5.03 4.799-7.634 5.097-8.8 9.673-17.892 13.703-27.229 2.538-5.882 5.093-11.886 7.072-18.036 1.979 6.15 4.534 12.154 7.072 18.036a259.45 259.45 0 0 0 13.703 27.229c1.507 2.604 3.118 5.14 4.799 7.634 3.513 5.214 8.121 10.003 14.057 12.079 12.115 4.241 21.41-4.225 27.967-13.349a220.67 220.67 0 0 0 15.959-25.491c3.696-6.978 7.6-14.271 9.635-21.945.595-2.243 1.534-7.269 1.694-9.622l.197-4.081zm-8.69-.022l-.066 1.425c-.445 7.199-2.446 13.837-5.073 20.133-3.616 8.656-8.619 16.818-13.649 24.732-2.824 4.442-6.327 8.666-11.029 11.002-3.633 1.801-7.781 2.366-11.831 2.209-3.85-.15-7.754-.963-11.046-2.971s-5.745-5.057-7.767-8.305c-4.321-6.942-7.807-14.438-11.243-21.848-3.028-6.531-6.016-13.111-8.509-19.869-.733-1.998-1.814-4.328-1.821-6.497v-.023c.008-2.169 1.089-4.499 1.821-6.497 2.493-6.758 5.481-13.339 8.509-19.869 3.436-7.41 6.922-14.906 11.243-21.848 2.022-3.249 4.475-6.297 7.767-8.305s7.196-2.821 11.046-2.971c4.051-.157 8.198.408 11.831 2.209 4.702 2.336 8.205 6.561 11.029 11.002 5.03 7.914 10.033 16.076 13.649 24.732 2.627 6.297 4.629 12.934 5.073 20.133.027.439.06 1.28.066 1.425zm-90.722-.022v.033c-.011 2.166-1.09 4.492-1.821 6.487-2.493 6.758-5.481 13.339-8.509 19.869-3.436 7.41-6.922 14.906-11.243 21.848-2.039 3.249-4.505 6.307-7.797 8.315s-7.196 2.821-11.046 2.971c-4.051.157-8.198-.408-11.831-2.209-4.702-2.336-8.205-6.561-11.029-11.002-5.03-7.914-10.033-16.076-13.649-24.732-2.627-6.297-4.629-12.934-5.073-20.133-.027-.439-.06-1.28-.066-1.425l.066-1.425c.444-7.199 2.446-13.837 5.073-20.133 3.616-8.656 8.619-16.818 13.649-24.732 2.824-4.442 6.327-8.666 11.029-11.002 3.633-1.801 7.781-2.366 11.831-2.209 3.85.15 7.754.963 11.046 2.971s5.759 5.057 7.797 8.305c4.321 6.942 7.807 14.438 11.243 21.848 3.028 6.531 6.016 13.111 8.509 19.869.731 1.995 1.81 4.321 1.821 6.487z" fill="#99e8c1"/></svg>
