<svg xmlns="http://www.w3.org/2000/svg" xmlns:xlink="http://www.w3.org/1999/xlink" fill-rule="evenodd" stroke-linejoin="round" stroke-miterlimit="2" viewBox="0 0 2000 500"><style>.B{fill-rule:nonzero}.C{fill:#375e70}.D{fill:#3b7893}.E{fill:#4d8daf}.F{fill:#437489}.G{fill:#396372}.H{fill:#d1d3d4}.I{fill:#a7a9ac}.J{fill:#244956}.K{fill:#bfb0a9}.L{fill:#d7c1b9}.M{fill:#d76729}.N{fill:#c15a28}.O{fill:#7cb150}.P{fill:#7dba53}.Q{fill:#74a749}.R{fill:#b2a4a1}.S{fill:#bcbec0}</style><linearGradient id="A" gradientUnits="userSpaceOnUse" x1="1000" x2="1000" y2="500"><stop offset="0" stop-color="#00a899"/><stop offset="1" stop-color="#00c3ff"/></linearGradient><linearGradient id="B" gradientUnits="userSpaceOnUse" x1="1006.38" x2="1006.38" y1="36.227" y2="465.54"><stop offset="0" stop-color="#97ff00"/><stop offset="1" stop-color="#00c3ff"/></linearGradient><path d="M0 0h2000v500H0z" fill="url(#A)"/><path d="M754.507 261.136C408.58 139.233 371.706 377.197 0 247.898V0h2000v328.297c-47.153-13.594-120.498-72.417-246.875-40.377-260.138 65.952-160.153 52.07-436.522-30.837-251.053-75.31-205.107 129.854-562.096 4.053z" fill="#1a202c" class="B"/><circle cx="1006.38" cy="250.884" fill="url(#B)" r="214.657"/><g class="B"><path d="M951.673 371.483v-3.622h-5.325v-3.62h-20.7v-13.727H829.1V343.3h3.602l3.046-19.15v-42.093h-62.69l9.74 61.244h3.736v7.203H767.22a7.46 7.46 0 0 0-7.457 7.457v5.996h-30.648a6.73 6.73 0 0 0-6.726 6.727 6.725 6.725 0 0 0 6.726 6.726l228.415-.025v-5.91z" fill="#4584a0"/><path d="M1158.02 331.12c-10.393 4.304-22.308-.633-26.612-11.027s.634-22.307 11.027-26.61 22.308.633 26.612 11.027-.634 22.308-11.027 26.61m43.395-27.058l13.93-7.696-7.795-18.828-15.295 4.405a51.51 51.51 0 0 0-11.661-11.657l4.41-15.3-18.826-7.8-7.703 13.935a51.495 51.495 0 0 0-16.488-.007l-7.697-13.932-18.828 7.796 4.405 15.295a51.55 51.55 0 0 0-11.657 11.661l-15.3-4.41-7.8 18.826 13.934 7.703a51.553 51.553 0 0 0-.007 16.488l-13.93 7.697 7.795 18.827 15.295-4.404a51.55 51.55 0 0 0 11.661 11.657l-4.4 15.3 18.825 7.8 7.703-13.935a51.495 51.495 0 0 0 16.488.007l7.697 13.932 18.828-7.796-4.405-15.295a51.526 51.526 0 0 0 11.657-11.66l15.3 4.4 7.8-18.825-13.935-7.704a51.553 51.553 0 0 0 .007-16.488" fill="#367084"/><path d="M1158.02 331.12c-10.393 4.304-22.308-.633-26.612-11.027s.634-22.307 11.027-26.61 22.308.633 26.612 11.027-.634 22.308-11.027 26.61m-7.792-57.124c-21.156 0-38.306 17.15-38.306 38.305s17.15 38.306 38.306 38.306 38.305-17.15 38.305-38.306-17.15-38.305-38.305-38.305" class="C"/></g><path d="M1122.22 334.73l42.69-.002.002 42.7-42.69.002z" fill="#5ba6a6"/><path d="M1122.22 372.718l42.7-.002.001 4.7-42.69.002z" fill="#3d8785"/><path d="M860.63 334.73l42.7-.002.002 42.7-42.7.002z" fill="#5ba6a6"/><path d="M860.632 372.718l42.7-.002.001 4.7-42.69.002z" fill="#3d8785"/><path d="M894.7 336.7h6.658l.001 6.658h-6.66z" fill="#ca2026"/><path d="M898.652 337.864l-.298.66h.493l-.573 1.005.186-.724h-.362l.123-.942h-1.882v.955a1.69 1.69 0 0 0 1.613 1.687l-.093 1.327h-.823a.125.125 0 0 0 0 .25h2.072a.125.125 0 0 0 0-.25h-.822l-.094-1.33a1.69 1.69 0 0 0 1.528-1.683v-.955z" fill="#f2ddc3" class="B"/><path d="M811.154 306.356h7.662v71.063h-7.662zm91.284 0h7.663v71.063h-7.663z" fill="#ccc"/><path d="M902.438 306.356h3.83v71.063h-3.83zm-91.284 0h3.83v71.063h-3.83z" fill="#bcbbbb"/><path d="M818.816 307.944h83.622v32.616h-83.622z" fill="#f2c436"/><path d="M891.1 340.56h11.327v-27.047zm-13.658 0h-16.825l13.66-32.616h16.824zm-30.484 0h-16.825l13.66-32.616h16.824zm-16.824-32.616h-11.328v27.047z" fill="#232725" class="B"/><path d="M876.464 330.445h36.76v46.974h-36.76z" class="D"/><g class="B"><g class="C"><use xlink:href="#D"/><path d="M912.93 377.42h-36.47a1.42 1.42 0 0 1-1.418-1.418v-2.263a1.42 1.42 0 0 1 1.418-1.418h36.47a1.42 1.42 0 0 1 1.419 1.418V376a1.42 1.42 0 0 1-1.419 1.418m0-13.888h-36.47a1.42 1.42 0 0 1-1.418-1.418v-2.263a1.42 1.42 0 0 1 1.418-1.418h36.47a1.42 1.42 0 0 1 1.419 1.418v2.263a1.42 1.42 0 0 1-1.419 1.418"/><use xlink:href="#D" y="13.889"/><path d="M830.887 346.065l8.94 8.94-8.94 8.942zm0-24.062l8.94 8.94-8.94 8.94zm0-24.06l8.94 8.94-8.94 8.942zm0-24.062l8.94 8.94-8.94 8.94zm0-24.062l8.94 8.94-8.94 8.94zm0-24.06l8.94 8.94-8.94 8.94zm0-24.062l8.94 8.94-8.94 8.94zm0-24.062l8.94 8.94-8.94 8.94zm0-24.06l8.94 8.94-8.94 8.94zm19.69-1.8l-8.94 8.94-8.94-8.94zm1.8 19.692l-8.94-8.94 8.94-8.94zm0 24.06l-8.94-8.94 8.94-8.94zm0 24.062l-8.94-8.94 8.94-8.94zm0 24.062l-8.94-8.94 8.94-8.94zm0 24.06l-8.94-8.94 8.94-8.94zm0 24.062l-8.94-8.94 8.94-8.94zm0 24.062l-8.94-8.942 8.94-8.94zm0 24.06l-8.94-8.94 8.94-8.94zm0 24.062l-8.94-8.942 8.94-8.94zm-1.8-19.692l-8.94 8.94-8.94-8.94zm0-2.56h-17.88l8.94-8.94zm0-21.502l-8.94 8.94-8.94-8.94zm0-2.56h-17.88l8.94-8.94zm0-21.5l-8.94 8.94-8.94-8.94zm0-2.56h-17.88l8.94-8.94zm0-21.502l-8.94 8.94-8.94-8.94zm0-2.56h-17.88l8.94-8.94zm0-21.502l-8.94 8.94-8.94-8.94zm0-2.56h-17.88l8.94-8.942zm0-21.502l-8.94 8.94-8.94-8.94zm0-2.56h-17.88l8.94-8.94zm0-21.502l-8.94 8.94-8.94-8.94zm0-2.56h-17.88l8.94-8.94zm-17.88-24.06l8.94-8.94 8.94 8.94zm17.88 2.56l-8.94 8.94-8.94-8.94zm-17.88 189.934l8.94-8.94 8.94 8.94zm22.25 2.557V149.202h-26.62v219.112z"/></g><g class="D"><path d="M1207.62 158.324l8.94-8.94 8.94 8.94zm-24.062 0l8.94-8.94 8.94 8.94zm-24.062 0l8.94-8.94 8.94 8.94zm-24.06 0l8.94-8.94 8.94 8.94zm-24.062 0l8.94-8.94 8.94 8.94zm-24.06 0l8.94-8.94 8.94 8.94zm-24.062 0l8.94-8.94 8.94 8.94zm-24.062 0l8.94-8.94 8.94 8.94zm-24.06 0l8.94-8.94 8.94 8.94zm-1.8-19.692l8.94 8.94-8.94 8.94zm19.692-1.8l-8.94 8.94-8.94-8.94zm24.06 0l-8.94 8.94-8.94-8.94zm24.062 0l-8.94 8.94-8.94-8.94zm24.062 0l-8.94 8.94-8.94-8.94zm24.06 0l-8.94 8.94-8.94-8.94zm24.062 0l-8.94 8.94-8.94-8.94zm24.06 0l-8.94 8.94-8.94-8.94zm24.062 0l-8.94 8.94-8.94-8.94zm24.062 0l-8.94 8.94-8.94-8.94zm-19.692 1.8l8.94 8.94-8.94 8.94zm-2.56 0v17.882l-8.94-8.94zm-21.502 0l8.94 8.94-8.94 8.94zm-2.56 0v17.882l-8.94-8.94zm-21.502 0l8.942 8.94-8.942 8.94zm-2.56 0v17.882l-8.94-8.94zm-21.502 0l8.94 8.94-8.94 8.94zm-2.56 0v17.882l-8.94-8.94zm-21.502 0l8.94 8.94-8.94 8.94zm-2.56 0v17.882l-8.94-8.94zm-21.502 0l8.94 8.94-8.94 8.94zm-2.56 0v17.882l-8.94-8.94zm-21.502 0l8.94 8.94-8.94 8.94zm-2.56 0v17.882l-8.94-8.94zm-24.06 17.882l-8.94-8.94 8.94-8.94zm2.56-17.882l8.94 8.94-8.94 8.94zm189.932 17.882l-8.94-8.94 8.94-8.94zm2.558-22.252h-219.112v26.62h219.112z"/><path d="M1227.3 180.557l-8.94-8.94 8.94-8.94zm0 24.06l-8.94-8.94 8.94-8.94zm0 24.062l-8.94-8.94 8.94-8.94zm0 24.06l-8.94-8.94 8.94-8.94zm0 24.062l-8.94-8.94 8.94-8.94zm0 24.062l-8.94-8.94 8.94-8.94zm0 24.06l-8.94-8.94 8.94-8.94zm0 24.062l-8.94-8.94 8.94-8.94zm0 24.06l-8.94-8.94 8.94-8.94zm-19.692 1.8l8.94-8.94 8.94 8.94zm-1.8-19.692l8.94 8.94-8.94 8.94zm0-24.06l8.94 8.94-8.94 8.94zm0-24.062l8.94 8.94-8.94 8.94zm0-24.06l8.94 8.94-8.94 8.94zm0-24.062l8.94 8.94-8.94 8.94zm0-24.06l8.94 8.94-8.94 8.94zm0-24.062l8.94 8.94-8.94 8.94zm0-24.062l8.94 8.94-8.94 8.94zm0-24.06l8.94 8.94-8.94 8.94zm1.8 19.692l8.94-8.942 8.94 8.942zm0 2.56h17.882l-8.94 8.94zm0 21.502l8.94-8.94 8.94 8.94zm0 2.56h17.882l-8.94 8.94zm0 21.502l8.94-8.94 8.94 8.94zm0 2.56h17.882l-8.94 8.94zm0 21.5l8.94-8.94 8.94 8.94zm0 2.56h17.882l-8.94 8.94zm0 21.502l8.94-8.94 8.94 8.94zm0 2.56h17.882l-8.94 8.94zm0 21.5l8.94-8.94 8.94 8.94zm0 2.56h17.882l-8.94 8.94zm0 21.502l8.94-8.94 8.94 8.94zm0 2.56h17.882l-8.94 8.94zm17.882 24.06l-8.94 8.94-8.94-8.94zm-17.882-2.56l8.94-8.94 8.94 8.94zm17.882-189.933l-8.94 8.94-8.94-8.94zm-22.25-2.558V377.42h26.62V158.307zm-168.42 22.263l-8.94-8.94 8.94-8.94zm0 24.06l-8.94-8.94 8.94-8.94zm0 24.062l-8.94-8.94 8.94-8.94zm0 24.06l-8.94-8.94 8.94-8.94zm0 24.062l-8.94-8.94 8.94-8.94zm0 24.062l-8.94-8.94 8.94-8.94zm0 24.06l-8.94-8.94 8.94-8.94zm0 24.062l-8.94-8.94 8.94-8.94zm0 24.06l-8.94-8.94 8.94-8.94zm-19.692 1.8l8.94-8.94 8.94 8.94zm-1.8-19.692l8.94 8.94-8.94 8.94zm0-24.06l8.94 8.94-8.94 8.94zm0-24.062l8.94 8.94-8.94 8.94zm0-24.06l8.94 8.94-8.94 8.94zm0-24.062l8.94 8.94-8.94 8.94zm0-24.06l8.94 8.94-8.94 8.94zm0-24.062l8.94 8.94-8.94 8.94zm0-24.062l8.94 8.94-8.94 8.94zm0-24.06l8.94 8.94-8.94 8.94zm1.8 19.692l8.94-8.942 8.94 8.942zm0 2.56H1033l-8.94 8.94zm0 21.502l8.94-8.94 8.94 8.94zm0 2.56H1033l-8.94 8.94zm0 21.502l8.94-8.94 8.94 8.94zm0 2.56H1033l-8.94 8.94zm0 21.5l8.94-8.94 8.94 8.94zm0 2.56H1033l-8.94 8.94zm0 21.502l8.94-8.94 8.94 8.94zm0 2.56H1033l-8.94 8.94zm0 21.5l8.94-8.94 8.94 8.94zm0 2.56H1033l-8.94 8.94zm0 21.502l8.94-8.94 8.94 8.94zm0 2.56H1033l-8.94 8.94zm17.882 24.06l-8.94 8.94-8.94-8.94zm-17.882-2.56l8.94-8.94 8.94 8.94zM1033 160.865l-8.94 8.94-8.94-8.94zm-22.252-2.558V377.42h26.622V158.307zm-184.98 61.27l-8.94-8.94 8.94-8.94zm0 24.062l-8.94-8.94 8.94-8.94zm0 24.06l-8.94-8.94 8.94-8.94zm0 24.062l-8.94-8.94 8.94-8.94zm0 24.06l-8.94-8.94 8.94-8.942zm0 24.062l-8.94-8.94 8.94-8.94zm0 24.062l-8.94-8.94 8.94-8.94zm-19.692 1.8l8.94-8.94 8.94 8.94zm-1.8-19.692l8.94 8.94-8.94 8.94zm0-24.062l8.94 8.94-8.94 8.94zm0-24.062l8.94 8.942-8.94 8.94zm0-24.06l8.94 8.94-8.94 8.94zm0-24.062l8.94 8.94-8.94 8.94zm0-24.06l8.94 8.94-8.94 8.94zm0-24.062l8.94 8.94-8.94 8.94zm1.8 19.692l8.94-8.94 8.94 8.94zm0 2.56h17.882l-8.94 8.94zm0 21.5l8.94-8.94 8.94 8.94zm0 2.56h17.882l-8.94 8.94zm0 21.502l8.94-8.94 8.94 8.94zm0 2.56h17.882l-8.94 8.94zm0 21.502l8.94-8.94 8.94 8.94zm0 2.56h17.882l-8.94 8.942zm0 21.502l8.94-8.94 8.94 8.94zm0 2.56h17.882l-8.94 8.94zm17.882 24.062l-8.94 8.94-8.94-8.94zm-17.882-2.56l8.94-8.94 8.94 8.94zm17.882-141.8l-8.94 8.94-8.94-8.94zm4.37-2.56h-26.622v171h26.622zM975.8 146.642l8.94-8.94 8.94 8.94zM974 126.95l8.94 8.94-8.94 8.94zm-2.56 17.882l-8.94-8.94 8.94-8.94zm-19.692 1.8l8.94-8.94 8.94 8.94zm-1.8-19.692l8.94 8.94-8.94 8.94zm19.692-1.8l-8.94 8.942-8.94-8.942zm-22.252 19.692l-8.94-8.94 8.94-8.94zm-19.692 1.8l8.94-8.94 8.94 8.94zm-1.8-19.692l8.94 8.94-8.94 8.94zm19.692-1.8l-8.94 8.942-8.94-8.942zm-22.25 19.692l-8.94-8.94 8.94-8.94zm-19.692 1.8l8.94-8.94 8.94 8.94zm-1.8-19.692l8.94 8.94-8.94 8.94zm19.692-1.8l-8.94 8.942-8.94-8.942zm-22.252 19.692l-8.94-8.94 8.94-8.94zm-19.692 1.8l8.94-8.94 8.94 8.94zm-1.8-19.692l8.94 8.94-8.94 8.94zm19.692-1.8l-8.94 8.942-8.94-8.942zm-22.252 19.692l-8.94-8.94 8.94-8.94zm-19.7 1.8l8.94-8.94 8.94 8.94zm-1.8-19.692l8.94 8.94-8.94 8.94zm19.692-1.8l-8.94 8.942-8.94-8.942zm-22.252 19.692l-8.94-8.94 8.94-8.94zm-19.692 1.8l8.94-8.94 8.94 8.94zm-1.8-19.692l8.94 8.94-8.94 8.94zm19.692-1.8l-8.94 8.942-8.94-8.942zm-22.252 19.692l-8.94-8.94 8.94-8.94zm-19.692 1.8l8.94-8.94 8.94 8.94zm-1.8-19.692l8.94 8.94-8.94 8.94zm19.7-1.8l-8.94 8.942-8.94-8.942zm-22.25 19.692l-8.94-8.94 8.94-8.94zm-19.692 1.8l8.94-8.94 8.94 8.94zm-1.8-19.692l8.94 8.94-8.94 8.94zm19.692-1.8l-8.94 8.942-8.94-8.942zm172.074-2.56H778.947v26.62h221.06z"/></g><path d="M1234.43 361.536h-33.12l6.463 15.752h20.195z" class="K"/><use xlink:href="#E" class="L"/></g><path d="M1216.48 346.493h2.783v11.774h-2.783z" class="M"/><path d="M1216.48 346.493h1.144v11.774h-1.144z" class="N"/><g class="B"><path d="M1233.85 333.615c0 8.827-7.155 15.982-15.98 15.982s-15.982-7.155-15.982-15.982 7.155-15.982 15.982-15.982 15.98 7.155 15.98 15.982" class="O"/><path d="M1217.87 317.633a15.9 15.9 0 0 0-8.906 2.711 15.917 15.917 0 0 0-3.65 10.167c0 8.827 7.155 15.982 15.98 15.982 3.298 0 6.362-1 8.906-2.71a15.92 15.92 0 0 0 3.65-10.167c0-8.826-7.155-15.982-15.982-15.982" class="P"/><use xlink:href="#F" class="Q"/><path d="M1234.43 361.536l-32.243 2.142-.878-2.142z" class="R"/><path d="M1137.54 361.536h-33.122l6.464 15.752h20.195z" class="K"/><use xlink:href="#E" x="-96.89" class="L"/></g><path d="M1119.6 346.493h2.783v11.774h-2.783z" class="M"/><path d="M1119.6 346.493h1.144v11.774h-1.144z" class="N"/><g class="B"><path d="M1136.96 333.615c0 8.827-7.155 15.982-15.982 15.982s-15.98-7.155-15.98-15.982 7.155-15.982 15.98-15.982 15.982 7.155 15.982 15.982" class="O"/><path d="M1120.98 317.633a15.9 15.9 0 0 0-8.906 2.711 15.917 15.917 0 0 0-3.65 10.167c0 8.827 7.155 15.982 15.98 15.982 3.298 0 6.36-1 8.906-2.71a15.92 15.92 0 0 0 3.65-10.167c0-8.826-7.155-15.982-15.982-15.982" class="P"/><use xlink:href="#F" x="-96.89" class="Q"/><path d="M1137.54 361.536l-32.243 2.142-.879-2.142z" class="R"/><path d="M1184.86 301.63l-25.63 63.608h61.916l-25.63-63.608c-1.933-4.796-8.723-4.796-10.655 0" fill="#f2c436"/><path d="M1222.5 377.42h-64.63a5.378 5.378 0 0 1-5.384-5.384v-1.414a5.384 5.384 0 0 1 5.384-5.384h64.63a5.383 5.383 0 0 1 5.384 5.384v1.414c0 2.974-2.4 5.384-5.384 5.384" fill="#d19d1c"/><path d="M1157.9 377.42h64.6c2.982 0 5.398-2.727 5.398-6.09H1152.5c0 3.364 2.417 6.09 5.4 6.09" fill="#c6911a"/><path d="M1159.23 365.237h61.916l-1.586-3.935h-58.744z" fill="#eabb36"/><path d="M1174.13 328.275h32.128l-4.455-11.058h-23.217zm-9.43 23.425h51.007l-4.456-11.057h-42.096z" fill="#f9db85"/><path d="M1128.15 352.07H873.473a8.82 8.82 0 0 1-8.815-8.815V173.842a8.82 8.82 0 0 1 8.815-8.815h254.677a8.82 8.82 0 0 1 8.816 8.815v169.413a8.82 8.82 0 0 1-8.816 8.815" fill="#f1f1f2"/><path d="M1128.15 164.204H873.474a8.814 8.814 0 0 0-8.816 8.815v153.183h272.308V173.02a8.814 8.814 0 0 0-8.816-8.815" fill="#354a61"/><path d="M871.533 175.773v138.86a4.694 4.694 0 0 0 4.694 4.694h249.168c2.592 0 4.694-2.1 4.694-4.694v-138.86a4.695 4.695 0 0 0-4.694-4.694H876.227a4.695 4.695 0 0 0-4.694 4.694" class="H"/></g><path d="M942.714 352.076h116.195v16.895H942.714z" fill="#bbbdbf"/><g class="B"><path d="M1058.9 354.646c0 9.91-116.194 9.91-116.194 0v-2.57H1058.9z" fill="#a6a8ab"/><path d="M1102.03 377.42H899.6c-2.705 0-4.897-1.89-4.897-4.224s2.192-4.224 4.897-4.224h202.44c2.705 0 4.897 1.89 4.897 4.224s-2.192 4.224-4.897 4.224" fill="#f1f1f2"/><path d="M1007.05 339.407a6.244 6.244 0 1 1-12.487-.001 6.244 6.244 0 0 1 12.487.001" fill="#dbdbdd"/></g><path d="M947.378 149.202H974v3.75h-26.62z" class="C"/><path d="M951.41 152.952h18.56v3.75h-18.56z" class="D"/><path d="M878.32 197.325h119.845v114.78H878.32zm124.88 0h119.845v114.78H1003.2z" class="S"/><g class="H"><path d="M881.415 210.124h113.152v44.6H881.415zm0 49.578h113.152v7.228H881.415zm126.785 21.842h109.343v5.64H1008.2zm0 8.876h109.343v5.64H1008.2zm0 8.876h109.343v5.64H1008.2z"/><use xlink:href="#G" class="B"/></g><path d="M992.25 205.022a1.48 1.48 0 0 1-1.478-1.478 1.48 1.48 0 0 1 1.478-1.478 1.48 1.48 0 0 1 1.478 1.478 1.48 1.48 0 0 1-1.478 1.478m-2.406-.56a.56.56 0 0 1-.559.559h-91.14a.56.56 0 0 1-.559-.559v-1.838a.56.56 0 0 1 .559-.559h91.14a.56.56 0 0 1 .559.559zm-96.093.56a1.48 1.48 0 0 1-1.478-1.478 1.48 1.48 0 0 1 1.478-1.478 1.48 1.48 0 0 1 1.478 1.478 1.48 1.48 0 0 1-1.478 1.478m-4.752 0a1.48 1.48 0 0 1-1.478-1.478 1.48 1.48 0 0 1 1.478-1.478 1.48 1.48 0 0 1 1.477 1.478 1.48 1.48 0 0 1-1.477 1.478m-4.753 0a1.48 1.48 0 0 1-1.478-1.478 1.48 1.48 0 0 1 1.478-1.478 1.48 1.48 0 0 1 1.478 1.478 1.48 1.48 0 0 1-1.478 1.478m-2.83.792h113.152v-4.54H881.415zm116.265 52.272l-70.5-34.174a1.303 1.303 0 0 1-.604-1.74l4.12-8.503a1.305 1.305 0 0 1 1.742-.604l70.5 34.174c.647.314.918 1.094.604 1.74l-4.122 8.503a1.3 1.3 0 0 1-1.74.604" class="I B"/><path d="M935.683 228.034l-8.503-4.122a1.303 1.303 0 0 1-.604-1.74l4.12-8.503a1.305 1.305 0 0 1 1.742-.604l8.502 4.122c.648.314.918 1.093.604 1.74l-4.12 8.502a1.302 1.302 0 0 1-1.74.605" class="B S"/><path d="M1116.23 233.397l-106.734.023c-.72 0-1.303-.584-1.303-1.303l-.003-9.45c0-.72.583-1.304 1.303-1.304l106.734-.022a1.3 1.3 0 0 1 1.303 1.303l.003 9.448a1.303 1.303 0 0 1-1.303 1.304" class="B H"/><path d="M1018.94 233.417l-9.45.003c-.72 0-1.303-.583-1.303-1.303l-.003-9.45c0-.72.583-1.304 1.303-1.304l9.45-.003c.72 0 1.303.584 1.303 1.303l.003 9.45c0 .72-.583 1.304-1.303 1.304" class="B I"/><path d="M1116.23 253.464l-106.734.023c-.72 0-1.303-.583-1.303-1.303l-.003-9.45c0-.72.583-1.303 1.303-1.303l106.734-.023c.72 0 1.303.583 1.303 1.303l.003 9.45a1.3 1.3 0 0 1-1.303 1.303" class="B H"/><path d="M1018.94 253.484l-9.45.003c-.72 0-1.303-.583-1.303-1.303l-.003-9.45c0-.72.583-1.303 1.303-1.303l9.45-.003c.72 0 1.303.583 1.303 1.303l.003 9.45c0 .72-.583 1.303-1.303 1.303" class="B I"/><path d="M1116.23 273.532l-106.734.022a1.3 1.3 0 0 1-1.303-1.302l-.003-9.45c0-.72.583-1.304 1.303-1.304l106.734-.023c.72 0 1.303.584 1.303 1.304l.003 9.448a1.303 1.303 0 0 1-1.303 1.304" class="B H"/><path d="M1018.94 273.552l-9.45.003c-.72 0-1.303-.584-1.303-1.303l-.003-9.45c0-.72.583-1.304 1.303-1.304l9.45-.003c.72 0 1.303.583 1.303 1.303l.003 9.45c0 .72-.583 1.304-1.303 1.304" class="B I"/><path d="M790.918 129.69h-1.34a4.161 4.161 0 0 0-4.162 4.162v23.625a4.16 4.16 0 0 0 4.162 4.162h1.34a4.162 4.162 0 0 0 4.162-4.162V133.85a4.163 4.163 0 0 0-4.162-4.162" fill="#d8d8d8" class="B"/><path d="M788.805 128.623v1.285a4.843 4.843 0 0 1 2.885 0v-1.285a4.93 4.93 0 0 0-4.925-4.925h-1.35v2.885h1.35c1.125 0 2.04.915 2.04 2.04" fill="#b5b1b1" class="B"/><path d="M788.803 128.575l.002.048v1.286a4.81 4.81 0 0 1 1.443-.22c.502 0 .987.077 1.442.22v-1.286l-.002-.05a4.86 4.86 0 0 0-1.44-.218c-.503 0-.99.077-1.445.22" fill="#a5a4a4" class="B"/><path d="M789.347 368.314h77.96a4.226 4.226 0 0 1 4.226 4.227v.65a4.226 4.226 0 0 1-4.226 4.227h-77.96a4.23 4.23 0 0 1-4.227-4.227v-.65a4.23 4.23 0 0 1 4.227-4.227" class="B C"/><path d="M878.32 179.323h244.984v12.272H878.32z" class="S"/><path d="M922.034 188.053v-5.187c0-.774.628-1.402 1.402-1.402h185.696c.774 0 1.402.628 1.402 1.402v5.187c0 .774-.628 1.402-1.402 1.402H923.436a1.402 1.402 0 0 1-1.402-1.402" class="B H"/><path d="M955.453 156.703h1.73v55.816h-1.73zm8.74 0h1.73v55.816h-1.73zm-11.467 59.567h15.923v3.087h-15.923z" class="C"/><g class="B"><path d="M968.65 219.355h-15.923l3.072 5.496h9.78z" class="D"/><path d="M964.953 230.218l-.378.472c-.376.47-.6 1.026-.755 1.6a3.22 3.22 0 0 1-3.313 2.463 3.271 3.271 0 0 1-3.094-3.094 3.25 3.25 0 0 1 2.567-3.336c1.002-.214 1.692-1.142 1.692-2.166v-1.315h-2.02v1.317a.21.21 0 0 1-.166.205 5.27 5.27 0 0 0-4.062 5.745c.295 2.623 2.563 4.647 5.202 4.667h.04a5.22 5.22 0 0 0 3.637-1.46 5.33 5.33 0 0 0 .959-1.231c.683-1.2.586-2.712-.182-3.87a.08.08 0 0 0-.127-.006m-170.445-92.8h29.56a4.26 4.26 0 0 1 4.26 4.261v49.917h-38.08V141.68a4.26 4.26 0 0 1 4.26-4.261" class="C"/><path d="M797.133 141.682h24.31a2.74 2.74 0 0 1 2.734 2.734v24.31a2.74 2.74 0 0 1-2.734 2.734h-24.31a2.74 2.74 0 0 1-2.734-2.734v-24.31a2.74 2.74 0 0 1 2.734-2.734" fill="#2f5360"/><path d="M797.582 143.108h23.41a1.76 1.76 0 0 1 1.757 1.757v23.41a1.76 1.76 0 0 1-1.757 1.757h-23.41a1.76 1.76 0 0 1-1.757-1.757v-23.41a1.76 1.76 0 0 1 1.757-1.757" fill="#d8d8d8"/></g><path d="M790.248 191.26h38.08v6.066h-38.08z" fill="#2f5360"/><g class="B"><g fill="#b5b1b1"><use xlink:href="#H"/><use xlink:href="#H" y="1.924"/><use xlink:href="#H" y="3.848"/><use xlink:href="#H" y="5.77"/><use xlink:href="#H" y="7.694"/><use xlink:href="#H" x="1.803"/><use xlink:href="#H" x="1.803" y="1.924"/><use xlink:href="#H" x="1.803" y="3.848"/><use xlink:href="#H" x="1.803" y="5.77"/><use xlink:href="#H" x="1.803" y="7.694"/></g><g class="H"><path d="M1121.03 185.46c0-2.206-1.788-3.994-3.995-3.994a3.994 3.994 0 1 0 0 7.989 3.995 3.995 0 0 0 3.995-3.995"/><use xlink:href="#I"/><use xlink:href="#I" x="-12.846"/><use xlink:href="#I" x="-25.693"/></g><path d="M969.243 216.27h-17.108a1.615 1.615 0 0 1-1.615-1.615v-.52c0-.892.723-1.616 1.615-1.616h17.108c.892 0 1.615.724 1.615 1.616v.52c0 .892-.723 1.615-1.615 1.615" class="E"/></g><path d="M1148.3 191.055h40.72v7.894h-40.72z" fill="#367084"/><g class="B"><path d="M1148.3 198.95h40.72l-7.855 14.055h-25.012z" class="D"/><path d="M1157.77 226.73l.967 1.206c.962 1.2 1.563 2.624 1.93 4.117a8.257 8.257 0 0 0 2.332 4.005 8.24 8.24 0 0 0 6.141 2.292c4.24-.195 7.717-3.67 7.913-7.913a8.318 8.318 0 0 0-6.566-8.532c-2.562-.546-4.326-2.918-4.326-5.538v-3.362h5.164v3.367a.54.54 0 0 0 .427.524c6.656 1.518 11.164 7.793 10.386 14.693-.755 6.707-6.553 11.884-13.303 11.934l-.1.001a13.36 13.36 0 0 1-9.301-3.732 13.53 13.53 0 0 1-2.454-3.147c-1.746-3.097-1.497-6.937.466-9.9a.203.203 0 0 1 .325-.015m-13.49-35.675h48.78c.892 0 1.615-.723 1.615-1.615v-6.36c0-.892-.723-1.615-1.615-1.615h-48.78c-.892 0-1.615.723-1.615 1.615v6.36c0 .892.723 1.615 1.615 1.615" class="C"/><g class="H"><path d="M889.623 275.406a4.104 4.104 0 1 1-8.208 0 4.104 4.104 0 0 1 8.208 0"/><use xlink:href="#G" y="13.516"/><path d="M889.623 288.922a4.104 4.104 0 1 1-8.208 0 4.104 4.104 0 0 1 8.208 0"/><use xlink:href="#G" y="27.032"/><path d="M889.623 302.438a4.103 4.103 0 1 1-8.207.001 4.103 4.103 0 0 1 8.207-.001"/></g><path d="M1128.26 377.42l12.444-110.588h2.862l-12.443 110.588zm-24.1 0l12.443-110.588h2.862l-12.443 110.588z" fill="#284c59"/><path d="M1129.21 368.984l-.3 2.664h-21.223l.3-2.664z" class="F"/><path d="M1127.74 371.648h1.166l.3-2.664h-1.165zm-20.04 0h1.166l.3-2.664H1108z" class="G"/><path d="M1130.74 355.372l-.3 2.663h-21.222l.3-2.663z" class="F"/><path d="M1129.28 358.035h1.165l.3-2.663h-1.166zm-20.06 0h1.166l.3-2.663h-1.166z" class="G"/><path d="M1132.27 341.76l-.3 2.664h-21.222l.3-2.664z" class="F"/><path d="M1130.8 344.423h1.166l.3-2.664h-1.166zm-20.05 0h1.165l.3-2.664h-1.166z" class="G"/><path d="M1133.8 328.147l-.3 2.664h-21.223l.3-2.664z" class="F"/><path d="M1132.34 330.8h1.166l.3-2.663h-1.166zm-20.06 0h1.166l.3-2.663h-1.166z" class="G"/><path d="M1135.34 314.535l-.3 2.663h-21.222l.3-2.663z" class="F"/><path d="M1133.87 317.198h1.166l.3-2.663h-1.166zm-20.07 0h1.166l.3-2.663h-1.166z" class="G"/><path d="M1136.87 300.922l-.3 2.663h-21.223l.3-2.663z" class="F"/><path d="M1135.4 303.585h1.166l.3-2.663h-1.165zm-20.06 0h1.166l.3-2.663h-1.166z" class="G"/><path d="M1138.4 287.3l-.3 2.663h-21.223l.3-2.663z" class="F"/><path d="M1136.93 289.973h1.165l.3-2.663h-1.166zm-20.05 0h1.166l.3-2.663h-1.166z" class="G"/><path d="M1139.93 273.697l-.3 2.664h-21.222l.3-2.664z" class="F"/><path d="M1118.4 276.36h1.166l.3-2.664h-1.166zm20.06 0h1.166l.3-2.664h-1.166z" class="G"/><path d="M1131.92 377.42l-12.443-110.588h-2.862l12.443 110.588zm24.08 0l-12.444-110.588h-2.862l12.443 110.588z" class="C"/><path d="M1130.97 368.984l.3 2.664h21.223l-.3-2.664z" class="E"/><path d="M1132.43 371.648h-1.165l-.3-2.664h1.166zm20.07 0h-1.166l-.3-2.664h1.166z" class="D"/><path d="M1129.44 355.372l.3 2.663h21.222l-.3-2.663z" class="E"/><path d="M1130.9 358.035h-1.166l-.3-2.663h1.166zm20.06 0h-1.166l-.3-2.663h1.166z" class="D"/><path d="M1127.9 341.76l.3 2.664h21.223l-.3-2.664z" class="E"/><path d="M1129.37 344.423h-1.166l-.3-2.664h1.166zm20.06 0h-1.166l-.3-2.664h1.166z" class="D"/><path d="M1126.37 328.147l.3 2.664h21.222l-.3-2.664z" class="E"/><path d="M1127.84 330.8h-1.166l-.3-2.663h1.166zm20.06 0h-1.166l-.3-2.663h1.165z" class="D"/><path d="M1124.84 314.535l.3 2.663h21.223l-.3-2.663z" class="E"/><path d="M1126.3 317.198h-1.166l-.3-2.663H1126zm20.07 0h-1.166l-.3-2.663h1.166z" class="D"/><path d="M1123.3 300.922l.3 2.663h21.223l-.3-2.663z" class="E"/><path d="M1124.78 303.585h-1.166l-.3-2.663h1.166zm20.05 0h-1.166l-.3-2.663h1.166z" class="D"/><path d="M1121.78 287.3l.3 2.663h21.222l-.3-2.663z" class="E"/><path d="M1123.25 289.973h-1.166l-.3-2.663h1.166zm20.05 0h-1.166l-.3-2.663H1143z" class="D"/><path d="M1120.25 273.697l.3 2.664h21.222l-.3-2.664z" class="E"/><path d="M1121.7 276.36h-1.166l-.3-2.664h1.165zm20.07 0h-1.166l-.3-2.664h1.166z" class="D"/></g><path d="M1112.78 265.312h34.616v1.52h-34.616z" class="G"/><path d="M1112.78 261.82h34.616v3.492h-34.616z" class="F"/><g class="B"><path d="M1138.76 238.675h-24.834v19.986a3.16 3.16 0 0 0 3.159 3.159h18.516a3.16 3.16 0 0 0 3.159-3.159z" class="C"/><path d="M1126.55 238.675h-9.368v20.52a1.56 1.56 0 1 0 3.123 0v-12.06a1.56 1.56 0 1 1 3.122-.001v4.97a1.56 1.56 0 0 0 1.561 1.561c.862 0 1.562-.7 1.562-1.56z" class="E"/><path d="M1126.35 252.75c-3.744 0-7.245-1.124-9.86-3.167-3-2.345-4.587-5.683-4.587-9.654a1.01 1.01 0 1 1 2.022 0c0 7.42 6.44 10.8 12.424 10.8s12.423-3.38 12.423-10.8a1.01 1.01 0 1 1 2.022 0c0 3.97-1.586 7.31-4.587 9.654-2.613 2.043-6.114 3.167-9.858 3.167" class="J"/><use xlink:href="#J" class="C"/><path d="M1114.8 349.556h-24.81a1.37 1.37 0 0 0-1.372 1.372v1.843a1.37 1.37 0 0 0 1.372 1.372h24.81a1.37 1.37 0 0 0 1.371-1.372v-1.843a1.37 1.37 0 0 0-1.371-1.372" class="E"/><use xlink:href="#K" class="J"/><path d="M1114.88 326.28h-24.975v19.282a3.994 3.994 0 0 0 3.994 3.994h16.986a3.995 3.995 0 0 0 3.995-3.994z" class="C"/><path d="M1114.8 321.694h-24.81a1.37 1.37 0 0 0-1.372 1.371v1.844a1.37 1.37 0 0 0 1.372 1.371h24.81a1.37 1.37 0 0 0 1.371-1.371v-1.844a1.37 1.37 0 0 0-1.371-1.371" class="E"/><use xlink:href="#K" y="-27.863" class="J"/></g><path d="M1035.72 334.73l42.69-.002.002 42.7-42.69.002z" fill="#f2c363"/><path d="M1035.72 372.718l42.7-.002.001 4.7-42.69.002z" fill="#e1b061"/><g class="B"><use xlink:href="#J" x="-29.8" class="C"/><path d="M1085 349.556h-24.81a1.37 1.37 0 0 0-1.372 1.372v1.843a1.37 1.37 0 0 0 1.372 1.372H1085c.757 0 1.372-.614 1.372-1.372v-1.843c0-.758-.615-1.372-1.372-1.372" class="E"/><path d="M1072.6 368.297c-3.765 0-7.286-1.13-9.914-3.185-3.018-2.358-4.613-5.716-4.613-9.7a1.017 1.017 0 0 1 2.033 0c0 7.463 6.477 10.862 12.494 10.862s12.495-3.4 12.495-10.862a1.017 1.017 0 0 1 2.033 0c0 3.994-1.595 7.352-4.613 9.7-2.628 2.054-6.15 3.185-9.915 3.185" class="J"/></g><path d="M918.766 330.445h36.76v46.974h-36.76z" class="D"/><g class="B C"><use xlink:href="#L"/><path d="M955.23 377.42h-36.47a1.42 1.42 0 0 1-1.418-1.418v-2.263a1.42 1.42 0 0 1 1.418-1.418h36.47a1.42 1.42 0 0 1 1.418 1.418V376a1.42 1.42 0 0 1-1.418 1.418m0-13.888h-36.47a1.42 1.42 0 0 1-1.418-1.418v-2.263a1.42 1.42 0 0 1 1.418-1.418h36.47a1.42 1.42 0 0 1 1.418 1.418v2.263a1.42 1.42 0 0 1-1.418 1.418"/><use xlink:href="#L" y="13.889"/></g><path d="M1157.43 162.895h4.256v18.57h-4.256zm17.97 0h4.256v18.57h-4.256z" fill="#354a61"/><g class="B"><path d="M1182.43 132.25h-27.105a1.77 1.77 0 0 0-1.77 1.77v27.106a1.77 1.77 0 0 0 1.77 1.769h27.105a1.77 1.77 0 0 0 1.77-1.769V134.02a1.77 1.77 0 0 0-1.77-1.77" class="C"/><path d="M811.2 361.536h-33.122l6.463 15.752h20.196z" class="K"/><use xlink:href="#E" x="-423.238" class="L"/></g><path d="M793.238 346.493h2.783v11.774h-2.783z" class="M"/><path d="M793.237 346.493h1.144v11.774h-1.144z" class="N"/><g class="B"><path d="M810.61 333.615c0 8.827-7.155 15.982-15.982 15.982s-15.982-7.155-15.982-15.982 7.156-15.982 15.982-15.982 15.982 7.155 15.982 15.982" class="O"/><path d="M794.63 317.633a15.9 15.9 0 0 0-8.906 2.711 15.917 15.917 0 0 0-3.65 10.167c0 8.827 7.156 15.982 15.982 15.982a15.91 15.91 0 0 0 8.906-2.711 15.92 15.92 0 0 0 3.65-10.167c0-8.826-7.155-15.982-15.982-15.982" class="P"/><path d="M794.357 339.804a5.388 5.388 0 1 1-10.777-.001 5.388 5.388 0 0 1 10.777.001" class="Q"/><path d="M811.2 361.536l-32.243 2.142-.88-2.142z" class="R"/></g><defs><path id="D" d="M912.93 335.544h-36.47a1.42 1.42 0 0 1-1.418-1.419v-2.262a1.42 1.42 0 0 1 1.418-1.418h36.47a1.42 1.42 0 0 1 1.419 1.418v2.262a1.42 1.42 0 0 1-1.419 1.419"/><path id="E" d="M1235.63 358.266h-35.525a1.12 1.12 0 0 0-1.119 1.119v1.032a1.12 1.12 0 0 0 1.119 1.119h35.525a1.12 1.12 0 0 0 1.119-1.119v-1.032a1.12 1.12 0 0 0-1.119-1.119"/><path id="F" d="M1217.6 339.804a5.388 5.388 0 1 1-10.776 0 5.388 5.388 0 1 1 10.776 0"/><path id="G" d="M992.248 277.904h-93.22a2.32 2.32 0 0 1-2.319-2.319v-.358a2.32 2.32 0 0 1 2.319-2.319h93.22a2.32 2.32 0 0 1 2.319 2.319v.358a2.32 2.32 0 0 1-2.319 2.319"/><path id="H" d="M787.844 135.47a.6.6 0 1 1-1.202 0 .6.6 0 1 1 1.202 0"/><path id="I" d="M915.66 185.46a3.995 3.995 0 1 0-7.99.003 3.995 3.995 0 0 0 7.99-.003"/><path id="J" d="M1114.88 354.143h-24.975v19.28a3.994 3.994 0 0 0 3.994 3.995h16.986a3.995 3.995 0 0 0 3.995-3.995z"/><path id="K" d="M1102.4 368.297c-3.765 0-7.286-1.13-9.914-3.185-3.018-2.358-4.613-5.716-4.613-9.7a1.017 1.017 0 0 1 2.033 0c0 7.463 6.476 10.862 12.494 10.862s12.495-3.4 12.495-10.862a1.017 1.017 0 0 1 2.033 0c0 3.994-1.596 7.352-4.613 9.7-2.628 2.054-6.15 3.185-9.915 3.185"/><path id="L" d="M955.23 335.544h-36.47a1.42 1.42 0 0 1-1.418-1.419v-2.262a1.42 1.42 0 0 1 1.418-1.418h36.47a1.42 1.42 0 0 1 1.418 1.418v2.262a1.42 1.42 0 0 1-1.418 1.419"/></defs></svg>