<?xml version="1.0" encoding="UTF-8" standalone="no"?>
<!DOCTYPE svg PUBLIC "-//W3C//DTD SVG 1.1//EN" "http://www.w3.org/Graphics/SVG/1.1/DTD/svg11.dtd">
<svg width="100%" height="100%" viewBox="0 0 1000 500" version="1.1" xmlns="http://www.w3.org/2000/svg" xmlns:xlink="http://www.w3.org/1999/xlink" xml:space="preserve" xmlns:serif="http://www.serif.com/" style="fill-rule:evenodd;clip-rule:evenodd;stroke-linejoin:round;stroke-miterlimit:2;">
    <rect x="0" y="0" width="1000" height="500" style="fill:url(#_Linear1);"/>
    <g transform="matrix(0.378,0,0,0.378,500,250)">
        <g transform="matrix(1,0,0,1,-250,-250)">
            <path d="M500,0L500,500L0,500L0,419.189C1.941,434.972 6.15,448.487 12.626,459.735C20.206,472.9 30.949,482.902 44.855,489.741C58.762,496.58 78.367,500 103.672,500C127.609,500 147.243,494.814 162.574,484.441C177.905,474.068 188.107,461.416 193.179,446.484C198.252,431.552 200.788,409.78 200.788,381.17L200.788,244.9L123.164,244.9L123.164,399.465C123.164,414.739 121.14,425.596 117.094,432.036C113.047,438.476 106.693,441.696 98.03,441.696C92.558,441.696 88.341,440.613 85.377,438.448C81.046,435.142 77.968,430.811 76.144,425.453C74.321,420.096 74.434,421.057 74.32,410L0,410.812L0,0L500,0ZM500,500L462.556,422.889C460.732,419.241 457.113,414.055 451.699,407.33C446.284,400.605 442.152,396.216 439.303,394.164C435.085,391.087 428.36,388.009 419.127,384.932C430.64,382.31 439.702,379.004 446.313,375.015C456.685,368.746 464.835,360.567 470.763,350.479C476.69,340.392 479.654,328.395 479.654,314.488C479.654,298.53 475.778,284.995 468.027,273.881C460.276,262.767 450.074,255.159 437.422,251.055C424.769,246.952 406.475,244.9 382.538,244.9L253.449,244.9L257.895,500L331.244,500L331.244,393.822L338.083,393.822C345.151,393.823 351.477,395.76 357.062,399.636C361.166,402.599 365.839,409.039 371.082,418.956L414.86,500L500,500ZM365.269,295.51C379.404,295.51 389.035,297.676 394.164,302.007C399.294,306.338 401.858,312.551 401.858,320.644C401.858,326.115 400.234,330.959 396.985,335.177C393.737,339.394 389.548,342.016 384.419,343.042C374.274,345.322 367.435,346.461 363.901,346.461L331.244,346.461L331.244,295.51L365.269,295.51Z" style="fill:white;"/>
        </g>
    </g>
    <g transform="matrix(2.5625,0,0,2.5625,245.734,250)">
        <g transform="matrix(1,0,0,1,-32,-32)">
            <g>
                <path d="M20.5,59.7L27.5,52.5C25,52 22.7,51 20.6,49.6L20.5,59.7" style="fill:rgb(255,230,46);fill-rule:nonzero;"/>
                <path d="M43.5,4.3L36.5,11.5C39,12 41.3,13 43.4,14.4L43.5,4.3" style="fill:rgb(255,230,46);fill-rule:nonzero;"/>
                <path d="M4.3,43.5L14.4,43.4C13,41.3 12,39 11.5,36.5L4.3,43.5" style="fill:rgb(255,230,46);fill-rule:nonzero;"/>
                <path d="M59.7,20.5L49.6,20.6C50.9,22.7 51.9,25 52.5,27.5L59.7,20.5" style="fill:rgb(255,230,46);fill-rule:nonzero;"/>
                <path d="M4.3,20.5L11.5,27.5C12,25 13,22.7 14.4,20.6L4.3,20.5" style="fill:rgb(255,230,46);fill-rule:nonzero;"/>
                <path d="M59.7,43.5L52.5,36.5C52,39 51,41.3 49.6,43.4L59.7,43.5" style="fill:rgb(255,230,46);fill-rule:nonzero;"/>
                <path d="M20.5,4.3L20.6,14.4C22.7,13.1 25,12.1 27.5,11.5L20.5,4.3" style="fill:rgb(255,230,46);fill-rule:nonzero;"/>
                <path d="M43.5,59.7L43.4,49.6C41.3,51 39,52 36.5,52.5L43.5,59.7" style="fill:rgb(255,230,46);fill-rule:nonzero;"/>
            </g>
            <g>
                <path d="M14.8,44L10.8,53.3L20.1,49.3C18,47.8 16.2,46 14.8,44" style="fill:rgb(255,206,49);fill-rule:nonzero;"/>
                <path d="M49.2,20L53.2,10.7L44,14.7C46,16.2 47.8,18 49.2,20" style="fill:rgb(255,206,49);fill-rule:nonzero;"/>
                <path d="M11.4,28.3L2,32L11.4,35.7C11.1,34.5 11,33.3 11,32C11,30.7 11.1,29.5 11.4,28.3" style="fill:rgb(255,206,49);fill-rule:nonzero;"/>
                <path d="M52.6,35.7L62,32L52.6,28.3C52.8,29.5 53,30.8 53,32C53,33.3 52.9,34.5 52.6,35.7" style="fill:rgb(255,206,49);fill-rule:nonzero;"/>
                <path d="M20,14.8L10.7,10.8L14.7,20.1C16.2,18 18,16.2 20,14.8" style="fill:rgb(255,206,49);fill-rule:nonzero;"/>
                <path d="M44,49.2L53.3,53.2L49.3,43.9C47.8,46 46,47.8 44,49.2" style="fill:rgb(255,206,49);fill-rule:nonzero;"/>
                <path d="M35.7,11.4L32,2L28.3,11.4C29.5,11.2 30.8,11 32,11C33.2,11 34.5,11.1 35.7,11.4" style="fill:rgb(255,206,49);fill-rule:nonzero;"/>
                <path d="M28.3,52.6L32,62L35.7,52.6C34.5,52.9 33.3,53 32,53C30.7,53 29.5,52.9 28.3,52.6" style="fill:rgb(255,206,49);fill-rule:nonzero;"/>
                <circle cx="32" cy="32" r="19" style="fill:rgb(255,206,49);"/>
            </g>
        </g>
    </g>
    <g transform="matrix(1.28125,0,0,1.28125,754.266,250)">
        <g transform="matrix(1,0,0,1,-64,-64)">
            <path d="M105.87,14.99C102.13,11.6 97.96,8.61 93.45,6.1C92.58,5.61 91.45,5.75 90.74,6.43C90.03,7.11 89.91,8.16 90.45,8.96C106.08,31.89 102.74,61.48 82.34,80.93C70.44,92.28 54.49,98.53 37.43,98.53C26.04,98.53 14.89,95.67 5.19,90.26C4.32,89.77 3.19,89.9 2.48,90.59C1.77,91.27 1.65,92.31 2.2,93.12C5.01,97.24 8.32,101.05 12.06,104.44C24.67,115.89 41.33,122.2 58.96,122.2C77.23,122.2 94.3,115.5 107.05,103.34C119.58,91.4 126.36,75.63 126.14,58.94C125.92,42.25 118.72,26.64 105.87,14.99Z" style="fill:rgb(252,194,27);fill-rule:nonzero;"/>
        </g>
    </g>
    <defs>
        <linearGradient id="_Linear1" x1="0" y1="0" x2="1" y2="0" gradientUnits="userSpaceOnUse" gradientTransform="matrix(1000,0,0,500,0,250)"><stop offset="0" style="stop-color:rgb(28,30,69);stop-opacity:1"/><stop offset="1" style="stop-color:black;stop-opacity:1"/></linearGradient>
    </defs>
</svg>
