<svg fill-rule="evenodd" stroke-linejoin="round" stroke-miterlimit="2" viewBox="0 0 2000 500" xmlns="http://www.w3.org/2000/svg" xmlns:xlink="http://www.w3.org/1999/xlink"><linearGradient id="a" x1="0" x2="2000" xlink:href="none" y1="250" y2="250"><stop offset="0"/><stop offset=".26" stop-color="#12142d"/><stop offset=".5" stop-color="#191b3e"/><stop offset=".74" stop-color="#12142d"/><stop offset="1"/></linearGradient><linearGradient id="b" x1="345.037" x2="551.822" xlink:href="none" y1="218.705" y2="218.705"><stop offset="0" stop-color="#fff" stop-opacity=".2"/><stop offset=".52" stop-color="#fff" stop-opacity=".05"/><stop offset="1" stop-color="#fff" stop-opacity="0"/></linearGradient><linearGradient id="c" x1="1660.61" x2="1755.256" xlink:href="none" y1="272.553" y2="272.553"><stop offset="0" stop-color="#fff" stop-opacity=".2"/><stop offset=".52" stop-color="#fff" stop-opacity=".05"/><stop offset="1" stop-color="#fff" stop-opacity="0"/></linearGradient><linearGradient id="d" x1="1573.479" x2="1621.617" xlink:href="none" y1="231.702" y2="411.353"><stop offset="0" stop-color="#fff" stop-opacity=".2"/><stop offset=".52" stop-color="#fff" stop-opacity=".05"/><stop offset="1" stop-color="#fff" stop-opacity="0"/></linearGradient><linearGradient id="e" x1="541.672" x2="541.672" xlink:href="none" y1="383.498" y2="197.012"><stop offset="0" stop-color="#fff" stop-opacity=".2"/><stop offset=".52" stop-color="#fff" stop-opacity=".05"/><stop offset="1" stop-color="#fff" stop-opacity="0"/></linearGradient><linearGradient id="f" x1="262.165" x2="100.664" xlink:href="none" y1="296.623" y2="389.865"><stop offset="0" stop-color="#fff" stop-opacity=".2"/><stop offset=".52" stop-color="#fff" stop-opacity=".05"/><stop offset="1" stop-color="#fff" stop-opacity="0"/></linearGradient><linearGradient id="g" x1="1765.42" x2="1765.42" xlink:href="none" y1="162.822" y2="84.165"><stop offset="0" stop-color="#fff" stop-opacity=".2"/><stop offset=".52" stop-color="#fff" stop-opacity=".05"/><stop offset="1" stop-color="#fff" stop-opacity="0"/></linearGradient><linearGradient id="h" x1="1458.578" x2="1381.83" xlink:href="none" y1="144.234" y2="127.01"><stop offset="0" stop-color="#fff" stop-opacity=".2"/><stop offset=".52" stop-color="#fff" stop-opacity=".05"/><stop offset="1" stop-color="#fff" stop-opacity="0"/></linearGradient><path d="m0 0h2000v500h-2000z" fill="url(#a)"/><g fill-rule="nonzero"><path d="m1000 478.374c204.226 0 369.785-10.142 369.785-22.654s-165.56-22.655-369.785-22.655-369.785 10.143-369.785 22.655 165.558 22.654 369.785 22.654z" fill="#3f3d56" fill-opacity=".1"/><path d="m1000.03 463.395c168.798 0 305.636-5.137 305.636-11.474s-136.838-11.475-305.636-11.475-305.636 5.138-305.636 11.475 136.838 11.474 305.636 11.474z" fill-opacity=".03"/><path d="m730.335 21.626h549.562v431.17h-549.562z" fill="#3f3d56"/><path d="m974.992 80.528h-206.632c-1.337 0-2.563-.73-2.563-1.608s1.115-1.68 2.452-1.68h206.63c1.338 0 2.452.73 2.452 1.68.223.878-.892 1.608-2.34 1.608zm95.008 18.124h-194.84c-.802 0-1.535-.73-1.535-1.68s.667-1.68 1.535-1.68h194.84c.8 0 1.535.732 1.535 1.68s-.667 1.68-1.535 1.68zm-94.005 18.124h-206.633c-1.336 0-2.56-.73-2.56-1.68s1.114-1.68 2.56-1.68h206.633c1.337 0 2.563.73 2.563 1.68s-1.114 1.68-2.563 1.68zm94.585.292h-77.58c-.502 0-.962-.73-.962-1.68s.418-1.68.962-1.68h77.58c.502 0 .962.73.962 1.68s-.418 1.68-.962 1.68zm-94.025 17.76h-206.633c-1.338 0-2.562-.73-2.562-1.682s1.113-1.68 2.562-1.68h206.633c1.335 0 2.56.73 2.56 1.68s-1.226 1.682-2.56 1.682zm.443 18.123h-206.633c-1.335 0-2.56-.73-2.56-1.68s1.114-1.682 2.56-1.682h206.633c1.338 0 2.562.73 2.562 1.682s-1.113 1.68-2.562 1.68zm93.792-72.057h-59.15c-1.336 0-2.562-.73-2.562-1.68s1.115-1.68 2.562-1.68h59.15c1.336 0 2.562.73 2.562 1.68s-1.115 1.68-2.562 1.68zm0 53.934h-59.15c-1.336 0-2.562-.73-2.562-1.682s1.115-1.68 2.562-1.68h59.15c1.336 0 2.562.73 2.562 1.68s-1.115 1.682-2.562 1.682zm0 17.758h-59.15c-1.336 0-2.562-.73-2.562-1.608s1.115-1.68 2.45-1.68h59.15c1.338 0 2.563.73 2.563 1.608s-1.003 1.68-2.45 1.68zm-243.726-53.934h-59.15c-1.336 0-2.56-.73-2.56-1.68s1.114-1.68 2.56-1.68h59.15c1.337 0 2.563.732 2.563 1.68s-1.226 1.68-2.563 1.68zm167.94 248.47h-226.119c-1.46 0-2.8-.73-2.8-1.68 0-.877 1.217-1.68 2.8-1.68h225.997c1.462 0 2.8.73 2.8 1.68s-1.217 1.68-2.68 1.68zm-1.097 36.174h-226.119c-1.46 0-2.8-.73-2.8-1.68 0-.877 1.22-1.68 2.8-1.68h226.118c1.463 0 2.803.73 2.803 1.68-.123.95-1.34 1.68-2.803 1.68zm.5 18.125h-226.007c-1.462 0-2.8-.73-2.8-1.68 0-.877 1.217-1.68 2.8-1.68h225.996c1.46 0 2.802.73 2.802 1.68 0 .877-1.22 1.68-2.802 1.68zm96.593-17.831h-64.694c-1.46 0-2.802-.732-2.802-1.682 0-.876 1.22-1.68 2.802-1.68h64.694c1.46 0 2.8.73 2.8 1.68-.122.95-1.34 1.682-2.8 1.682zm0 17.83h-64.694c-1.46 0-2.802-.73-2.802-1.68 0-.877 1.22-1.68 2.802-1.68h64.694c1.46 0 2.8.73 2.8 1.68-.122.877-1.34 1.68-2.8 1.68zm108.55-17.83h-64.692c-1.46 0-2.8-.732-2.8-1.682 0-.876 1.22-1.68 2.8-1.68h64.692c1.462 0 2.803.73 2.803 1.68s-1.22 1.682-2.803 1.682zm42.76-18.417h-355.37c-1.463 0-2.802-.73-2.802-1.68 0-.878 1.217-1.682 2.802-1.682h355.5c1.463 0 2.802.73 2.802 1.682-.122.95-1.34 1.68-2.924 1.68zm-409.228 0h-64.682c-1.462 0-2.8-.73-2.8-1.68 0-.878 1.217-1.682 2.8-1.682h64.692c1.463 0 2.802.73 2.802 1.682s-1.218 1.68-2.802 1.68zm409.228 54.664h-355.37c-1.463 0-2.802-.73-2.802-1.68 0-.877 1.217-1.68 2.802-1.68h355.5c1.463 0 2.802.73 2.802 1.68-.122.95-1.34 1.68-2.924 1.68zm-409.228 0h-64.682c-1.462 0-2.8-.73-2.8-1.68 0-.877 1.217-1.68 2.8-1.68h64.692c1.463 0 2.802.73 2.802 1.68s-1.218 1.68-2.802 1.68z" fill="#f2f2f2" fill-opacity=".5"/><path d="m1151.08 77.24-37.718 37.882 37.718 37.83 8.476-8.62-28.512-28.997 28.72-29.2-8.685-8.885zm56.44 0 37.72 37.882-37.72 37.83-8.476-8.62 28.512-28.997-28.72-29.2 8.685-8.885zm-465.142-40.483a4.172 4.172 0 1 0 0-8.344 4.172 4.172 0 0 0 0 8.344z" fill="#ff4a5a"/><path d="m755.677 36.75a4.172 4.172 0 1 0 0-8.345 4.172 4.172 0 0 0 0 8.345z" fill="#ffce31"/><path d="m769.16 36.75a4.173 4.173 0 1 0 0-8.346 4.173 4.173 0 0 0 0 8.346z" fill="#09bd00"/><path d="m730.335 43.55h549.562v2.193h-549.562z" fill-opacity=".1"/><path d="m810.447 301.383 12.99-13.36c-4.64-.928-8.907-2.784-12.804-5.382l-.185 18.743m42.68-102.805-12.99 13.36c4.64.928 8.907 2.784 12.804 5.382l.185-18.743m-72.742 72.743 18.742-.186c-2.598-3.897-4.453-8.165-5.38-12.804l-13.36 13m102.804-42.68-18.742.186c2.412 3.897 4.268 8.165 5.38 12.804l13.36-13m-102.804 0 13.36 13c.928-4.64 2.783-8.907 5.38-12.804l-18.742-.186m102.804 42.68-13.36-13c-.928 4.64-2.783 8.907-5.38 12.804l18.742.186m-72.742-72.743.185 18.743c3.897-2.413 8.165-4.268 12.804-5.382l-12.99-13.36m42.68 102.805-.185-18.743c-3.897 2.598-8.165 4.454-12.804 5.382l12.99 13.36" fill="#ffe62e"/></g><g fill="#ffce31"><path d="m799.87 272.25-7.422 17.257 17.257-7.422c-3.896-2.784-7.237-6.124-9.835-9.835m63.836-44.536 7.422-17.258-17.072 7.422c3.71 2.784 7.052 6.124 9.65 9.836m-70.145 15.402-17.443 6.866 17.443 6.866c-.557-2.227-.742-4.454-.742-6.866s.185-4.64.742-6.866m76.454 13.732 17.443-6.866-17.443-6.866c.37 2.226.742 4.64.742 6.866 0 2.412-.185 4.64-.742 6.866m-60.495-38.784-17.258-7.423 7.423 17.258c2.783-3.897 6.124-7.237 9.835-9.835m44.536 63.835 17.258 7.423-7.423-17.258c-2.783 3.897-6.124 7.237-9.835 9.835m-15.402-70.144-6.866-17.444-6.866 17.444c2.227-.37 4.64-.743 6.866-.743s4.64.186 6.866.743m-13.732 76.453 6.866 17.444 6.866-17.444c-2.227.557-4.454.743-6.866.743s-4.64-.186-6.866-.743" fill-rule="nonzero"/><circle cx="831.787" cy="249.981" r="35.258"/></g><path d="m957.938 262.464 9.075-9.335c-3.24-.648-6.223-1.945-8.946-3.76l-.13 13.095m29.82-71.827-9.076 9.335c3.24.648 6.223 1.945 8.946 3.76zm-50.824 50.823 13.095-.13c-1.815-2.723-3.112-5.705-3.76-8.946l-9.335 9.075m71.826-29.82-13.095.13c1.686 2.723 2.982 5.705 3.76 8.946zm-71.826 0 9.335 9.076c.648-3.24 1.945-6.223 3.76-8.946zm71.826 29.82-9.335-9.075c-.648 3.24-1.945 6.223-3.76 8.946l13.095.13m-50.822-50.823.13 13.095c2.723-1.686 5.705-2.982 8.946-3.76l-9.075-9.335m29.82 71.827-.13-13.095c-2.723 1.815-5.705 3.112-8.946 3.76z" fill="#ffe62e" fill-rule="nonzero"/><g fill="#ffce31"><path d="m950.548 242.11-5.186 12.057 12.057-5.186c-2.723-1.945-5.056-4.278-6.87-6.87m44.6-31.117 5.186-12.057-11.928 5.186c2.593 1.944 4.927 4.278 6.742 6.87m-49.01 10.76-12.187 4.797 12.187 4.798c-.388-1.556-.518-3.112-.518-4.798s.13-3.24.518-4.797m53.417 9.595 12.187-4.798-12.187-4.797c.26 1.556.52 3.242.52 4.797 0 1.686-.13 3.242-.52 4.798m-42.256-27.098-12.058-5.186 5.186 12.058c1.945-2.723 4.278-5.057 6.872-6.872m31.116 44.6 12.057 5.187-5.186-12.058c-1.944 2.723-4.278 5.056-6.87 6.87m-10.76-49.008-4.797-12.187-4.797 12.187c1.555-.26 3.24-.518 4.797-.518s3.24.13 4.797.518m-9.594 53.417 4.797 12.187 4.797-12.187c-1.556.39-3.112.518-4.797.518s-3.242-.13-4.797-.518" fill-rule="nonzero"/><circle cx="972.848" cy="226.55" r="24.634"/></g><path d="m1207.06 205.16a62.38 62.38 0 0 0 -11.524-8.635 2.085 2.085 0 0 0 -2.515.32 1.968 1.968 0 0 0 -.269 2.458c14.502 22.274 11.403 51.018-7.524 69.91-11.042 11.026-25.84 17.097-41.67 17.097-10.568 0-20.913-2.778-29.913-8.034a2.07 2.07 0 0 0 -2.514.321 1.951 1.951 0 0 0 -.26 2.458 61.272 61.272 0 0 0 9.148 10.996c11.7 11.122 27.158 17.252 43.516 17.252 16.95 0 32.79-6.508 44.62-18.32 11.626-11.598 17.917-26.917 17.713-43.13s-6.885-31.376-18.807-42.693zm-152.76 36.518a43.535 43.535 0 0 0 -8.052-5.763 1.509 1.509 0 0 0 -1.756.214 1.27 1.27 0 0 0 -.188 1.641c10.132 14.864 7.967 34.046-5.258 46.655-7.714 7.357-18.054 11.41-29.113 11.41-7.384 0-14.612-1.854-20.9-5.36-.564-.318-1.296-.234-1.756.214a1.258 1.258 0 0 0 -.182 1.64 41.353 41.353 0 0 0 6.392 7.338c8.174 7.423 18.974 11.513 30.403 11.513 11.844 0 22.9-4.343 31.175-12.226 8.122-7.74 12.518-17.963 12.375-28.783s-4.8-20.938-13.14-28.49z" fill="#fcc21b" fill-rule="nonzero"/><path d="m1050.28 212.466-92.04 92.04 3.58 3.58 92.04-92.04z" fill="#ffce31"/><circle cx="448.429" cy="218.705" fill="url(#b)" r="103.393"/><circle cx="1707.94" cy="272.553" fill="url(#c)" r="47.323"/><path d="m1687.38 297.46c13.284 49.576-16.18 100.6-65.757 113.894s-100.6-16.18-113.894-65.757 16.18-100.6 65.757-113.894 100.6 16.18 113.894 65.757z" fill="url(#d)"/><path d="m448.43 290.256c0-51.463 41.78-93.243 93.243-93.243s93.243 41.78 93.243 93.243-41.78 93.242-93.243 93.242-93.243-41.78-93.243-93.242z" fill="url(#e)"/><path d="m228.05 423.995c-44.567 25.73-101.64 10.438-127.372-34.13s-10.438-101.64 34.13-127.372 101.64-10.44 127.372 34.13 10.44 101.64-34.13 127.372z" fill="url(#f)"/><path d="m1726.1 123.493c0-21.706 17.622-39.328 39.328-39.328s39.33 17.622 39.33 39.328-17.622 39.33-39.33 39.33-39.328-17.622-39.328-39.33z" fill="url(#g)"/><path d="m1411.6 173.992c-21.18-4.753-34.515-25.807-29.762-46.986s25.806-34.515 46.986-29.762 34.515 25.807 29.762 46.986-25.807 34.515-46.986 29.762z" fill="url(#h)"/><g fill="#fff" fill-opacity=".08"><circle cx="405.902" cy="123.493" r="32.934"/><circle cx="160.368" cy="236.241" r="45.396"/><circle cx="1720.31" cy="141.781" r="32.934"/><path d="m1396.04 176.42c3.98-17.736 21.61-28.903 39.347-24.923s28.903 21.61 24.923 39.347-21.61 28.903-39.346 24.923-28.904-21.61-24.924-39.347z"/></g></svg>