<svg clip-rule="evenodd" fill-rule="evenodd" stroke-linejoin="round" stroke-miterlimit="1.41421" viewBox="0 0 2500 2500" xmlns="http://www.w3.org/2000/svg"><path d="m1495.06 1617.96-613.135-128.125c-2.568 4.965-5.424 9.774-8.555 14.404l558.174 814.239 33.672-33.633 94.961-590.528c-32.52-13.737-56.691-42.085-65.117-76.367zm-223.672-801.504c-22.969 35.234-62.617 58.555-107.774 58.555-6.953 0-13.711-.703-20.351-1.758l-279.619 437.51 747.05-321.485c-.234-3.007-.898-5.82-.898-8.906 0-6.289.859-12.383 1.875-18.398l-340.283-145.508zm20.312-79.726 361.963 154.765c11.534-9.015 24.727-15.678 38.828-19.609l59.492-369.922-226.65-226.65-255.117 399.199c12.502 18.493 19.913 39.959 21.484 62.226zm758.447 63.398-227.148-227.188-49.375 306.719c12.517 6.294 23.761 14.85 33.164 25.235zm-544.228 737.041c18.041-32.752 51.475-54.249 88.76-57.07l65.234-405.743c-5.117-3.398-9.687-7.46-14.18-11.64l-751.347 323.359c1.914 7.852 3.242 15.86 3.867 24.18zm606.103-675.127-262.812 113.086 648.447 277.236 2.344-2.343zm-469.648 833.496-78.984 491.055 458.632-458.633-330.351-68.984c-12.668 16.577-29.757 29.251-49.297 36.562zm-891.465-126.25c-16.601 0-32.5-2.851-47.383-7.9l-152.343 238.408-58.868-58.828 144.297-225.781c-3.568-4.429-6.894-9.049-9.961-13.838l-261.406 112.548-61.963-61.962 286.133-123.164-517.295-107.969-70.752-70.781 22.383-22.383 596.533 124.531c6.86-13.014 15.644-24.919 26.055-35.313l-289.531-422.314 58.476-58.477 302.49 441.26c10.863-2.522 21.974-3.819 33.125-3.867 12.774 0 25.157 1.797 36.993 4.844l283.056-442.901c-23.036-23.896-35.914-55.831-35.898-89.023 0-10.156 1.289-20 3.515-29.453l-353.125-150.977 61.944-61.953 334.57 143.086c34.463-28.405 81.381-36.814 123.565-22.148l260.976-408.448-216.474-216.484-1250.02 1250.02 1250.02 1250.02 123.007-123.008-562.353-820.41c-18.82 8.343-39.179 12.658-59.766 12.666zm988.574-477.441-66.367 412.47c23.423 18.823 38.222 46.377 40.977 76.299l376.679 78.633 344.922-344.922-622.578-266.181c-17.807 23.707-44.293 39.43-73.633 43.71z" fill="#25c7b7" fill-rule="nonzero"/></svg>