<svg viewBox="0 0 750 375" xmlns="http://www.w3.org/2000/svg"><path fill="url(#_Linear1)" d="M0 0h750v375H0z"/><path d="M115.398 129.94c-30.651 0-55.493 25.768-55.493 57.56s24.842 57.56 55.493 57.56c30.65 0 55.492-25.768 55.492-57.56s-24.842-57.56-55.492-57.56zm-30.836 89.535c-8.37-8.682-12.541-20.022-12.671-31.399l42.952 44.551c-10.969-.134-21.901-4.461-30.281-13.152zm40.482 12.097l-52.135-54.078c4.393-20.155 21.734-35.217 42.489-35.217 14.511 0 27.33 7.387 35.256 18.697l-6.067 5.325c-6.456-9.546-17.12-15.801-29.189-15.801-15.511 0-28.699 10.332-33.601 24.703l45.467 47.161c11.413-4.192 20.162-14.217 22.9-26.631H131.25V187.5h27.746c0 21.537-14.52 39.515-33.952 44.072z" fill="#639"/><path d="M619.875 133.424c-34.639 0-62.72 21.841-62.72 48.783 0 15.22 8.969 28.809 23.011 37.753-1.826 8.046-6.08 19.98-16.042 31.935 20.063-3.345 32.89-13.105 40.824-22.356 4.794.913 9.774 1.45 14.927 1.45 34.639 0 62.72-21.841 62.72-48.782 0-26.942-28.081-48.783-62.72-48.783zm0 41.814a6.972 6.972 0 0 1 6.969 6.969 6.972 6.972 0 0 1-6.969 6.968 6.972 6.972 0 0 1-6.969-6.968 6.972 6.972 0 0 1 6.969-6.969zm27.876 0a6.971 6.971 0 0 1 6.968 6.969 6.971 6.971 0 0 1-6.968 6.968 6.971 6.971 0 0 1-6.969-6.968 6.971 6.971 0 0 1 6.969-6.969zm-55.752 0a6.971 6.971 0 0 1 6.969 6.969 6.971 6.971 0 0 1-6.969 6.968 6.971 6.971 0 0 1-6.968-6.968 6.971 6.971 0 0 1 6.968-6.969z" fill="#6565ff"/><text x="188.846" y="244.118" font-family="Arial, sans-serif" font-size="160.713" fill="#fff">+</text><path d="M361.983 244.882c-14.063 0-26.921-5.139-36.862-13.64l-24.466 3.343 9.452-23.328a57.608 57.608 0 0 1-5.14-23.842c0-31.736 25.527-57.467 57.016-57.467 31.486 0 57.011 25.731 57.011 57.467 0 31.742-25.524 57.467-57.011 57.467zm31.131-57.631v-.16c0-16.583-11.694-28.407-31.857-28.407h-21.778v57.467h21.455c20.32 0 32.18-12.318 32.18-28.9zm-31.617 14.78h-6.37v-29.224h6.37c9.355 0 15.565 5.334 15.565 14.533v.16c0 9.276-6.21 14.531-15.565 14.531z" fill="#2e9fff"/><text x="441.148" y="244.275" font-family="Arial, sans-serif" font-size="160.713" fill="#fff">=</text><defs><linearGradient id="_Linear1" x2="1" gradientUnits="userSpaceOnUse" gradientTransform="matrix(750 0 0 375 0 187.5)"><stop offset="0" stop-color="#f4da2b"/><stop offset="1" stop-color="#ff457b"/></linearGradient></defs></svg>