<?xml version="1.0" encoding="UTF-8" standalone="no"?><!DOCTYPE svg PUBLIC "-//W3C//DTD SVG 1.1//EN" "http://www.w3.org/Graphics/SVG/1.1/DTD/svg11.dtd"><svg width="100%" height="100%" viewBox="0 0 750 300" version="1.1" xmlns="http://www.w3.org/2000/svg" xmlns:xlink="http://www.w3.org/1999/xlink" xml:space="preserve" xmlns:serif="http://www.serif.com/" style="fill-rule:evenodd;clip-rule:evenodd;"><g><path id="path1308" d="M511.176,253.587c0,19.639 -15.92,35.559 -35.559,35.559c-19.638,0 -35.559,-15.92 -35.559,-35.559c0,-19.639 15.921,-35.559 35.559,-35.559c19.639,0 35.559,15.92 35.559,35.559Z" style="fill:none;stroke:#0580f8;stroke-width:6.75px;"/><g id="text12679"><text x="461.071px" y="270.707px" style="font-family:'LucidaGrande', 'Lucida Grande', sans-serif;font-weight:500;font-size:42.346px;fill:#026dfa;stroke:#0274fa;stroke-width:0.59px;">C</text></g></g><g><path id="path1306" d="M355.088,77.766c0,19.639 -15.921,35.559 -35.559,35.559c-19.639,0 -35.559,-15.92 -35.559,-35.559c0,-19.638 15.92,-35.559 35.559,-35.559c19.638,0 35.559,15.921 35.559,35.559Z" style="fill:none;stroke:#ff6454;stroke-width:6.75px;"/><g id="text7437"><text x="305.427px" y="93.202px" style="font-family:'LucidaGrande', 'Lucida Grande', sans-serif;font-weight:500;font-size:42.346px;fill:#ff6454;">A</text></g></g><g><path id="path13061" serif:id="path1306" d="M310.938,260.691c0,19.639 -15.921,35.559 -35.559,35.559c-19.639,0 -35.559,-15.92 -35.559,-35.559c0,-19.639 15.92,-35.559 35.559,-35.559c19.638,0 35.559,15.92 35.559,35.559Z" style="fill:none;stroke:#00a474;stroke-width:6.75px;"/><g id="text74371" serif:id="text7437"><text x="262.104px" y="275.992px" style="font-family:'LucidaGrande', 'Lucida Grande', sans-serif;font-weight:500;font-size:42.346px;fill:#00a474;">B</text></g></g><text x="237.804px" y="164.583px" style="font-family:'LucidaGrande', 'Lucida Grande', sans-serif;font-weight:500;font-size:17.76px;">0.3</text><text x="193.57px" y="229.858px" style="font-family:'LucidaGrande', 'Lucida Grande', sans-serif;font-weight:500;font-size:17.76px;">0.6</text><text x="522.565px" y="236.205px" style="font-family:'LucidaGrande', 'Lucida Grande', sans-serif;font-weight:500;font-size:17.76px;">0.1</text><text x="338.221px" y="25.216px" style="font-family:'LucidaGrande', 'Lucida Grande', sans-serif;font-weight:500;font-size:17.76px;">0.2</text><text x="306.179px" y="177.382px" style="font-family:'LucidaGrande', 'Lucida Grande', sans-serif;font-weight:500;font-size:17.76px;">0.4</text><g><g><path d="M286.58,121.123c-29.032,51.207 -19.517,91.807 -19.517,91.807" style="fill:none;stroke:#000;stroke-width:1.13px;stroke-linecap:round;stroke-linejoin:round;stroke-miterlimit:1.5;"/><path d="M290.86,113.325l-0.505,9.552l-7.295,-4.016l7.8,-5.536Z" style="stroke:#000;stroke-width:1.13px;stroke-linecap:round;stroke-linejoin:round;stroke-miterlimit:1.5;"/></g><g><path d="M227.791,239.555c-0.618,-2.861 -28.738,-13.432 -31.483,10.441c-2.93,25.494 33.695,16.871 33.695,16.871" style="fill:none;stroke:#000;stroke-width:1.13px;stroke-linecap:round;stroke-linejoin:round;stroke-miterlimit:1.5;"/><path d="M234.783,243.53l-9.56,0.295l3.392,-7.605l6.168,7.31Z" style="stroke:#000;stroke-width:1.12px;stroke-linecap:round;stroke-linejoin:round;stroke-miterlimit:1.5;"/></g><g><path d="M525.141,271.095c0.925,2.777 30.028,10.229 30.161,-13.8c0.142,-25.662 -35.328,-13.11 -35.328,-13.11" style="fill:none;stroke:#000;stroke-width:1.13px;stroke-linecap:round;stroke-linejoin:round;stroke-miterlimit:1.5;"/><path d="M517.758,267.903l9.472,-1.332l-2.545,7.929l-6.927,-6.597Z" style="stroke:#000;stroke-width:1.13px;stroke-linecap:round;stroke-linejoin:round;stroke-miterlimit:1.5;"/></g><g><path d="M329.715,29.156c2.664,-1.211 7.022,-30.935 -16.888,-28.547c-25.535,2.55 -9.332,36.508 -9.332,36.508" style="fill:none;stroke:#000;stroke-width:1.13px;stroke-linecap:round;stroke-linejoin:round;stroke-miterlimit:1.5;"/><path d="M327.315,36.833l-2.318,-9.28l8.151,1.7l-5.833,7.58Z" style="stroke:#000;stroke-width:1.13px;stroke-linecap:round;stroke-linejoin:round;stroke-miterlimit:1.5;"/></g><g><path d="M284.492,211.154c29.033,-51.208 19.518,-91.808 19.518,-91.808" style="fill:none;stroke:#000;stroke-width:1.13px;stroke-linecap:round;stroke-linejoin:round;stroke-miterlimit:1.5;"/><path d="M280.212,218.951l0.506,-9.552l7.294,4.016l-7.8,5.536Z" style="stroke:#000;stroke-width:1.13px;stroke-linecap:round;stroke-linejoin:round;stroke-miterlimit:1.5;"/></g><g><path d="M420.776,248.388c-60.301,-15.259 -98.829,4.192 -98.829,4.192" style="fill:none;stroke:#000;stroke-width:1.13px;stroke-linecap:round;stroke-linejoin:round;stroke-miterlimit:1.5;"/><path d="M429.918,250.576l-9.847,1.915l1.998,-8.085l7.849,6.17Z" style="stroke:#000;stroke-width:1.13px;stroke-linecap:round;stroke-linejoin:round;stroke-miterlimit:1.5;"/></g><g><path d="M328.425,261.833c60.301,15.259 98.829,-4.192 98.829,-4.192" style="fill:none;stroke:#000;stroke-width:1.13px;stroke-linecap:round;stroke-linejoin:round;stroke-miterlimit:1.5;"/><path d="M319.283,259.645l9.847,-1.915l-1.998,8.086l-7.849,-6.171Z" style="stroke:#000;stroke-width:1.13px;stroke-linecap:round;stroke-linejoin:round;stroke-miterlimit:1.5;"/></g><g><path d="M356.852,123.441c38.602,70.171 84.102,94.099 84.102,94.099" style="fill:none;stroke:#000;stroke-width:1.12px;stroke-linecap:round;stroke-linejoin:round;stroke-miterlimit:1.5;"/><path d="M350.909,112.893l9.449,8.304l-7.41,3.825l-2.039,-12.129Z" style="stroke:#000;stroke-width:1.12px;stroke-linecap:round;stroke-linejoin:round;stroke-miterlimit:1.5;"/></g><g><path d="M443.551,202.493c-36.552,-69.617 -81.19,-93.687 -81.19,-93.687" style="fill:none;stroke:#000;stroke-width:1.13px;stroke-linecap:round;stroke-linejoin:round;stroke-miterlimit:1.5;"/><path d="M449.184,212.958l-9.181,-8.287l7.473,-3.698l1.708,11.985Z" style="stroke:#000;stroke-width:1.13px;stroke-linecap:round;stroke-linejoin:round;stroke-miterlimit:1.5;"/></g></g><text x="360.346px" y="238.287px" style="font-family:'LucidaGrande', 'Lucida Grande', sans-serif;font-weight:500;font-size:17.76px;">0.1</text><text x="364.786px" y="285.35px" style="font-family:'LucidaGrande', 'Lucida Grande', sans-serif;font-weight:500;font-size:17.76px;">0.2</text><g><path d="M420.776,248.388c-60.301,-15.259 -98.829,4.192 -98.829,4.192" style="fill:none;stroke:#000;stroke-width:1.13px;stroke-linecap:round;stroke-linejoin:round;stroke-miterlimit:1.5;"/><path d="M429.918,250.576l-9.847,1.915l1.998,-8.085l7.849,6.17Z" style="stroke:#000;stroke-width:1.13px;stroke-linecap:round;stroke-linejoin:round;stroke-miterlimit:1.5;"/></g><text x="429.609px" y="172.25px" style="font-family:'LucidaGrande', 'Lucida Grande', sans-serif;font-weight:500;font-size:17.76px;">0.4</text><text x="361.652px" y="189.448px" style="font-family:'LucidaGrande', 'Lucida Grande', sans-serif;font-weight:500;font-size:17.76px;">0.7</text></svg>