<svg fill-rule="evenodd" stroke-linejoin="round" stroke-miterlimit="2" viewBox="0 0 1000 500" xmlns="http://www.w3.org/2000/svg"><path d="m0 0h1000v500h-1000z" fill="#00335d"/><g fill-rule="nonzero"><path d="m601.93 224.393v-85.793h-2v87.783h195.164v-2z" fill="#fff"/><path d="m661.766 172.847c-11.71 15.393-23.547 32.845-36.243 40.086-6.166 3.518-14.752 5.914-14.752 5.914l50.995.167z" fill="#f39c38"/><path d="m616.968 217.867 43.798.144v-42.185l-3.222 4.3c-10.06 13.453-20.46 27.363-31.526 33.674-2.88 1.645-6.242 3.037-9.05 4.066zm45.798 2.15-59.21-.196 6.948-1.94c.084-.022 8.54-2.403 14.525-5.818 10.703-6.105 20.978-19.846 30.914-33.135l5.028-6.687 1.796-2.36z" fill="#fff"/><path d="m729.51 219.23 52.573.172s-8.586-2.397-14.753-5.913c-13.49-7.697-25.687-27.082-37.82-43.263z" fill="#f39c38"/><path d="m730.51 218.234 45.265.147c-2.785-1.025-6.097-2.4-8.94-4.024-11.146-6.358-21.382-20.505-31.283-34.186l-5.042-6.923zm58.96 2.19-60.96-.2v-53l1.8 2.4 6.863 9.373c9.775 13.508 19.883 27.477 30.652 33.62 6 3.417 14.442 5.796 14.526 5.82z" fill="#fff"/><path d="m726.43 167.49c-9.604-12.484-19.216-22.427-29.45-22.427-11.013 0-21.542 11.397-32.137 25.078v48.88l61.586.202z" fill="#ee3435"/><g fill="#fff"><path d="m665.845 218.024 59.586.195v-50.4c-8.34-10.8-18.22-21.767-28.45-21.767-10.667 0-21.264 11.7-31.137 24.42zm61.586 2.202-63.586-.208v-50.22l.2-.27c11.84-15.285 21.97-25.465 32.928-25.465 11.15 0 21.125 10.966 30.243 22.816l.206.27zm-209.231-49.428-1.928.536.945 3.513 1.935-.504zm-2.135-7.04-1.896.633 1.095 3.454 1.914-.578-1.113-3.5zm4.8 17.332-.797-3.202-1.94.5.882 3.545 1.94-.48zm-15.665-36.647-1.357 1.47c.822.76 1.624 1.62 2.382 2.556l1.554-1.26a26.57 26.57 0 0 0 -2.579-2.766zm8.238 12.404-1.83.806 1.358 3.332 1.87-.708-1.4-3.43zm-3.468-6.6-1.686 1.077 1.778 3.085 1.774-.926zm25.205 68.372a35.93 35.93 0 0 0 2.948 2.325l1.154-1.634a33.02 33.02 0 0 1 -2.78-2.193zm-5.04-5.572a31.73 31.73 0 0 0 2.36 2.932l1.483-1.34a30.05 30.05 0 0 1 -2.213-2.75zm-32.065-70.863a18.23 18.23 0 0 1 3.046 1.588l1.088-1.678c-1.073-.695-2.2-1.288-3.382-1.763zm23.758 42.8-1.94.484.897 3.55 1.938-.5-.894-3.535zm20.448 36.23-.98 1.744a36.59 36.59 0 0 0 3.36 1.672l.797-1.836c-1.07-.462-2.138-.995-3.177-1.58zm-15.8-14.682 1.663 3.34 1.75-.97-1.6-3.2zm-2.822-14.493-1.93.527 1.004 3.535 1.917-.57-.992-3.492zm2.073 6.95-1.9.63 1.234 3.483 1.87-.7-1.204-3.4zm-34.382-58.178a20.79 20.79 0 0 1 3.435.396l.397-1.96c-1.202-.243-2.47-.4-3.763-.435zm-60.67 63.66 1.482 1.343 2.417-2.8-1.54-1.276-2.36 2.722zm-5.076 5.103 1.352 1.472 2.663-2.556-1.418-1.4-2.597 2.494zm13.874-16.537 1.66 1.113 2.008-3.07-1.685-1.078-1.984 3.034zm-4.195 5.9 1.6 1.214 2.18-2.964-1.63-1.158-2.14 2.908zm-15.2 15.292 1.227 1.58 2.866-2.317-1.288-1.53zm-17.476 9.72-.593 1.128 1.395.704 1.86-.838-.837-1.818zm11.507-5.765.997 1.734 3.167-1.93-1.094-1.675-3.07 1.872zm-6.405 3.382.883 1.796 3.282-1.668-.93-1.77-3.234 1.643zm35.677-34.626 1.7 1.053 1.908-3.118-1.7-1.037-1.898 3.102zm29.87-41.517 1.226 1.58 2.904-2.046-1.07-1.7-3.06 2.156zm6.346-3.987.868 1.802a26.3 26.3 0 0 1 3.255-1.311l-.617-1.9c-1.168.38-2.348.853-3.506 1.4zm7.512-.332a21.77 21.77 0 0 1 3.47-.28v-2a23.8 23.8 0 0 0 -3.791.306zm-19.364 9.318 1.44 1.384 2.564-2.5-1.347-1.477-2.658 2.594zm-9.167 11.56 1.658 1.12 2.072-2.966-1.618-1.175-2.112 3.02zm4.33-5.965 1.573 1.235 2.287-2.784-1.517-1.306zm-12.026 18.434 1.72 1.022 1.865-3.133-1.718-1.026zm3.744-6.27 1.7 1.036 1.912-3.083-1.687-1.074-1.936 3.12zm-5.607 9.406 1.72 1.02-1.868 3.137-1.716-1.028 1.865-3.13z"/><path d="m470.337 153.495 1.772.926 1.78-3.083-1.686-1.078-1.865 3.235zm-3.004 6.783 1.87.7 1.36-3.335-1.83-.805-1.4 3.43zm-2.35 6.99 1.915.578 1.095-3.456-1.897-.634zm22.014-28.02.395 1.96c1.098-.223 2.255-.356 3.436-.396l-.07-2c-1.29.044-2.557.192-3.762.435zm-23.997 35.096 1.935.506.944-3.516-1.926-.534zm16.96-32.24 1.086 1.678c.97-.626 1.996-1.16 3.047-1.588l-.752-1.853c-1.168.474-2.305 1.066-3.38 1.763zm-5.576 5.104 1.553 1.26a24.66 24.66 0 0 1 2.383-2.556l-1.358-1.47c-.9.823-1.757 1.753-2.578 2.766zm-26.202 67.443 1.483 1.342a32.02 32.02 0 0 0 2.36-2.931l-1.63-1.16c-.676.95-1.42 1.873-2.214 2.75zm-5.3 4.672 1.154 1.634a35.28 35.28 0 0 0 2.949-2.326l-1.32-1.5a33.38 33.38 0 0 1 -2.782 2.193zm9.39-10.417 1.75.97 1.665-3.34-1.825-.82-1.59 3.2zm-15.568 13.89.796 1.834c1.13-.49 2.262-1.052 3.362-1.672l-.98-1.742c-1.04.586-2.11 1.116-3.177 1.58zm24.506-41.355 1.94.48.883-3.547-1.94-.487-.884 3.553zm-1.77 7.08 1.936.5.897-3.55-1.94-.483-.894 3.535zm-4.208 13.872 1.87.7 1.232-3.484-1.898-.628-1.204 3.402zm2.285-6.86 1.917.57 1.004-3.538-1.93-.526-.99 3.495zm90.075 7.49 2.416 2.79 1.483-1.344-2.36-2.72zm-4.476-5.85 2.18 2.965 1.6-1.214-2.14-2.9zm-4.092-6.094 2.008 3.07 1.662-1.113-1.986-3.034zm24.86 26.895 3.168 1.93.996-1.736-3.07-1.87zm13.846 5.138-.838 1.815 1.873.845.797-1.836c-.006 0-.702-.303-1.832-.824zm-19.744-9.634 2.866 2.316 1.227-1.58-2.806-2.267zm-22.822-28.617 1.908 3.118 1.7-1.052-1.9-3.103zm17.387 23.627 2.663 2.556 1.352-1.474-2.597-2.492zm17.737 13.2 3.283 1.667.883-1.794-3.235-1.642zm-65.517-76.738c.968.612 1.944 1.302 2.904 2.047l1.227-1.58-3.06-2.156zm6.978 2.87-1.347 1.478 2.564 2.504 1.442-1.387-2.66-2.595zm-13.316-5.9c1.086.353 2.18.793 3.254 1.312l.87-1.8a27.6 27.6 0 0 0 -3.506-1.413zm-6.86-1.104a21.79 21.79 0 0 1 3.471.28l.32-1.974c-1.255-.203-2.53-.306-3.792-.306zm32.33 25.31 1.913 3.085 1.71-1.035-1.937-3.124zm-8.52-11.665 2.286 2.785 1.575-1.236-2.345-2.855zm12.304 17.874 1.865 3.132 1.72-1.023-1.867-3.134zm3.726 6.268 1.867 3.134 1.717-1.026-1.866-3.13zm-9.95-19.646 2.112 3.018-1.657 1.12-2.074-2.965z"/><path d="m580.8 226.56h-178.812v-89.12h2v87.12h176.812z"/></g><path d="m556.282 220.5c-11.755-4.8-18.003-20.715-24.62-37.568-2.335-5.948-4.75-12.1-7.425-17.697-8.616-18.027-19.06-26.423-32.87-26.423s-24.254 8.396-32.87 26.423c-2.675 5.598-5.1 11.75-7.425 17.697-6.616 16.853-12.865 32.77-24.62 37.568-3.482 1.42-7.722 2.593-7.764 2.605l.53 1.93c.178-.05 4.395-1.217 7.99-2.684 12.547-5.12 18.948-21.426 25.725-38.688 2.323-5.915 4.724-12.032 7.368-17.565 8.244-17.25 18.115-25.285 31.064-25.285s22.82 8.034 31.065 25.285c2.645 5.533 5.046 11.65 7.368 17.567 6.777 17.26 13.177 33.566 25.725 38.686 3.594 1.467 7.81 2.634 7.988 2.684l.532-1.93c-.043-.012-4.28-1.183-7.764-2.605z" fill="#f39c38"/><path d="m737.767 344.622-2 .006-.006-3.653 2-.002zm-2.007-10.95 2 .003v3.65h-2zm.008-7.237 2-.067-.005 3.654-2-.003zm2.032 25.485-2 .013-.02-3.653 2-.008zm.04 3.643.082 2.65-.884.125-.803.785c-.332-.338-.345-.35-.395-3.53zm-2.013-51.12 2 .004-.013 3.657-2-.008zm.056-14.62 2 .01-.015 3.655-2-.008zm2.015-3.644-2-.01.017-3.653 2 .007zm-2.045 10.954 2 .007-.013 3.653-2-.006zm-.07 21.942 2-.013-.008 3.654-2-.005zm.02-7.325 2 .006-.01 3.65-2-.004zm1.848-36.552-.094-.002.047-.855zm19.456 32.158c-7.033-18.98-12.604-34.02-19.312-34.02a4.03 4.03 0 0 0 -.245.007v.002c-6.754-.244-12.367 14.9-19.447 34.01-7.674 20.715-16.373 44.193-27.754 50.18l.932 1.77c12.058-6.343 20.898-30.203 28.697-51.255 5.42-14.627 11.006-29.698 15.97-32.312l-.015 3.12 2 .01.017-3.515c5.28.315 11.38 16.768 17.282 32.7 7.8 21.053 16.64 44.91 28.698 51.254l.932-1.77c-11.38-5.985-20.08-29.465-27.754-50.178z" fill="#ee3435"/><path d="m692.55 274.34.046.853h-.093zm18.653 32.808c-6.613-18.994-11.86-34.01-18.6-33.804v-.002c-.082-.005-.163-.007-.245-.007-6.706 0-12.28 15.04-19.3 34.02-7.676 20.713-16.375 44.193-27.755 50.178l.93 1.77c12.058-6.343 20.9-30.203 28.7-51.254 5.695-15.37 11.573-31.225 16.72-32.606l-.16 41.203.453 42.485.794-.794.885-.127c-.316-2.207-.09-60.157.026-82.71 5.017 1.72 10.428 17.25 15.67 32.306 7.366 21.153 15.716 45.13 27.825 51.498l.932-1.77c-11.412-6.004-19.623-29.582-26.868-50.385z" fill="#fff"/><path d="m645.997 333.67 2 .003-.001 3.65h-2zm.008-7.237 2-.067-.005 3.654-2-.003zm2 18.188-2 .006-.006-3.653 2-.002zm.032 7.297-2 .013-.02-3.653 2-.008zm.04 3.643.082 2.65-.884.125-.803.785c-.332-.338-.344-.35-.395-3.53zm-1.986-58.43 2 .007-.014 3.653-2-.006zm2.044-10.954-2-.01.017-3.653 2 .007zm-2.115 32.896 2-.013-.008 3.654-2-.005zm.044-14.63 2 .004-.012 3.657-2-.008zm.056-14.62 2 .01-.015 3.655-2-.008zm-.08 21.927 2 .006-.01 3.65-2-.004zm1.814-36.554h-.094l.047-.855zm19.456 32.162c-7.033-18.983-12.604-34.022-19.312-34.022a4.03 4.03 0 0 0 -.245.007v.002c-6.74-.244-12.368 14.9-19.447 34.01-7.675 20.713-16.375 44.193-27.755 50.178l.932 1.77c12.058-6.343 20.9-30.203 28.698-51.254 5.432-14.66 11.03-29.764 16.002-32.328l-.014 3.134 2 .01.016-3.51c5.273.38 11.36 16.798 17.25 32.697 7.8 21.05 16.64 44.91 28.698 51.252l.93-1.77c-11.38-5.985-20.078-29.463-27.753-50.176z" fill="#ee3435"/><path d="m785.036 360.413h-185.8l.79-98.742 2 .015-.775 96.727h183.794z" fill="#fff"/><path d="m317.3 225.16h-25.03v-87.317l-.34-.67c9.206 0 16.302 18.044 25.416 37.493l-.048.026z" fill="#f39c38"/><path d="m341.657 225.16h25.13l.79-2.447s-9.678 0-17.687-4.228c-2.955-1.56-5.715-3.575-8.31-5.945l.077.915z" fill="#ee3435"/><path d="m317.347 175.662-.048 49.663h24.358v-12.495l.028-.03c-10.255-9.322-17.892-24.19-24.48-38.27z" fill="#68cad3"/><path d="m265.504 196.588h2v3.65h-2zm0-7.298h2v3.648h-2zm0 21.894h2v3.65h-2zm0-29.194h2v3.65h-2zm0 21.896h2v3.65h-2zm0 14.598h2v3.648h-2zm-24.36 1.48h2v3.648h-2zm124.636 4.197h-23.123v-9.355c2.137 1.766 4.385 3.31 6.766 4.565 4.207 2.222 10.835 3.305 16.357 3.835zm-147.758-.948c5.534-.53 12.195-1.612 16.418-3.842 2.36-1.244 4.586-2.77 6.704-4.514v1.457h2v-3.19c9.377-8.626 16.492-21.694 22.74-34.782h1.62v-3.427l3.023-6.53c7.243-15.734 13.528-29.384 20.744-30.174v85.948h-73.25zm95.314-54.826 2.963 6.4v49.373h-23.029v-85.835c6.933 1.542 13.05 14.824 20.065 30.06zm27.32 44.68v11.093h-22.356v-45.15c6.158 12.836 13.172 25.578 22.358 34.056zm34.815 10.646v-2c-.173 0-17.42-.05-25.116-4.112-16.065-8.478-26.232-30.564-35.203-50.05-8.07-17.53-14.446-31.377-23.222-31.377s-15.15 13.847-23.22 31.377c-8.97 19.487-19.14 41.573-35.203 50.05-7.697 4.062-24.943 4.112-25.117 4.112v2c.303 0 3.464-.01 7.632-.33v.777h-6.953v2h166.403v-2h-7.692v-.782c4.198.326 7.388.335 7.692.335z" fill="#fff"/><path d="m516.586 337.128v23.278h-78.924l-.058-.79v-22.487l-.225-.995c17.338-25.147 26.286-63.714 39.746-63.714 13.422 0 22.36 38.358 39.604 63.507z" fill="#68cad3"/><path d="m515.586 336.06c-6.63-9.79-12.03-21.508-17.056-32.426-7.464-16.212-13.9-30.214-21.405-30.214s-13.942 14.002-21.404 30.214c-5.042 10.952-10.46 22.71-17.117 32.52v23.254h76.982zm2 2.84v20.508h43.08v2h-166.403v-2h42.34v-20.424c-4.89 6.648-10.44 12.19-16.97 15.635-8.134 4.292-25.323 4.34-26.05 4.34v-2c.173 0 17.42-.05 25.117-4.1 16.064-8.478 26.232-30.565 35.204-50.052 8.07-17.53 14.444-31.377 23.22-31.377s15.15 13.847 23.22 31.377c8.972 19.487 19.14 41.574 35.204 50.052 7.7 4.063 24.943 4.1 25.116 4.1v2c-.728 0-17.916-.05-26.05-4.34-6.556-3.46-12.126-9.034-17.03-15.72zm-39.488-13.92-2 .087-.002 3.566h2zm-1.935 29.218.07 3.683 1.998-.082c-.027-.674-.05-1.914-.07-3.622zm1.945-36.526-2 .09-.006 3.56 2 .002zm-.014 14.612h-2l.001 3.65h2zm.022 14.6-2 .007.018 3.653 2-.01zm-.018-7.3-2 .002.007 3.653 2-.006zm.058-43.83-2-.006-.01 3.655 2 .004zm.098-29.24-2-.01-.014 3.658 2 .008zm-.027 7.312-2-.008-.013 3.655 2 .01zm.057-14.638-2-.01-.015 3.67 2 .01zm-.147 43.87-2-.004-.008 3.65 2 .004zm-.016 7.304-2 .026-.007 3.625 2 .004zm.056-21.918-2-.006-.01 3.655 2 .006zm.012-3.655-2-.007.012-3.653 2 .005z" fill="#fff"/><path d="m231.003 362.827c14.8-.82 22.886-1.37 33.987-7.673 21.26-12.075 27.338-91.965 39.5-91.965s18.23 79.9 39.49 91.965c11.1 6.304 19.186 6.853 33.987 7.673z" fill="#ee3435"/><path d="m250.54 361.827h107.88c-4.93-1.06-9.63-2.787-14.944-5.804-12.052-6.845-19.1-33.737-25.3-57.46-4.422-16.9-8.996-34.373-13.697-34.373s-9.274 17.474-13.697 34.373c-6.21 23.726-13.247 50.616-25.3 57.46-5.314 3.017-10.014 4.743-14.944 5.804zm127.418 2h-146.955l-.055-1.998c14.48-.802 22.456-1.246 33.548-7.544 11.32-6.428 18.546-34.042 24.352-56.23 5.996-22.905 9.678-35.866 15.632-35.866s9.637 12.96 15.632 35.866c5.807 22.188 13.034 49.802 24.353 56.23 11.09 6.298 19.068 6.742 33.548 7.544z" fill="#fff"/><path d="m207.968 362.827c14.8-.82 22.887-1.37 33.987-7.673 21.26-12.075 27.34-91.965 39.49-91.965s18.23 79.9 39.5 91.965c11.1 6.304 19.186 6.853 33.987 7.673z" fill="#f39c38"/><path d="m227.505 361.827h107.88c-4.93-1.06-9.63-2.787-14.943-5.804-12.053-6.845-19.09-33.735-25.3-57.46-4.423-16.9-8.996-34.373-13.696-34.373s-9.275 17.474-13.698 34.373c-6.21 23.726-13.247 50.616-25.3 57.46-5.314 3.017-10.014 4.743-14.944 5.804zm127.418 2h-146.955l-.055-1.998c14.48-.802 22.456-1.246 33.55-7.544 11.318-6.428 18.545-34.042 24.352-56.23 5.995-22.905 9.677-35.866 15.632-35.866s9.636 12.96 15.63 35.866c5.807 22.188 13.035 49.802 24.353 56.23 11.092 6.298 19.068 6.742 33.548 7.544z" fill="#fff"/><path d="m205.905 362.827c11.46-.636 17.723-1.06 26.32-5.944 16.464-9.348 21.172-71.22 30.583-71.22s14.118 61.872 30.582 71.22c8.597 4.883 14.858 5.308 26.32 5.944z" fill="#68cad3"/><g fill="#fff"><path d="m222.943 361.827h79.73c-3.18-.843-6.31-2.104-9.776-4.074-9.416-5.347-14.88-26.222-19.7-44.64-3.246-12.398-6.923-26.45-10.39-26.45s-7.145 14.054-10.4 26.452c-4.82 18.416-10.283 39.29-19.7 44.638-3.467 1.97-6.598 3.23-9.776 4.074zm96.768 2h-113.806l-.056-1.998c11.18-.62 17.337-.964 25.882-5.815 8.682-4.93 14.266-26.263 18.752-43.405 4.672-17.847 7.547-27.946 12.325-27.946s7.652 10.1 12.323 27.944c4.486 17.142 10.07 38.476 18.753 43.407 8.544 4.85 14.703 5.194 25.882 5.815z"/><path d="m204.905 258.264h2v104.564h-2z"/></g></g></svg>