<svg clip-rule="evenodd" fill-rule="evenodd" stroke-miterlimit="10" viewBox="0 0 750 338" xmlns="http://www.w3.org/2000/svg" xmlns:xlink="http://www.w3.org/1999/xlink"><clipPath id="a"><path clip-rule="evenodd" d="m0-9.25h236.881v197.4h-236.881z"/></clipPath><clipPath id="b"><path clip-rule="evenodd" d="m256.561-9.25h236.881v197.4h-236.881z"/></clipPath><clipPath id="c"><path clip-rule="evenodd" d="m513.121-9.25h236.881v197.4h-236.881z"/></clipPath><path d="m19.738 89.45c0-148.05 49.35-49.35 98.7-49.35s98.7-29.612 98.7 49.35c0 78.957-49.35 29.607-98.7 29.607s-98.7 19.743-98.7-29.607" fill="none" stroke="#8f2626" stroke-width=".17"/><path d="m19.738 89.45c0-148.05 49.35-49.35 98.7-49.35s98.7-29.612 98.7 49.35c0 78.957-49.35 29.607-98.7 29.607s-98.7 19.743-98.7-29.607" fill="none" stroke="#8f2626" stroke-opacity=".667" stroke-width="2.08"/><g clip-path="url(#a)" fill="none" stroke="#8f2626"><path d="m19.738 89.45c0-148.05 49.35-49.35 98.7-49.35s98.7-29.612 98.7 49.35c0 78.957-49.35 29.607-98.7 29.607s-98.7 19.743-98.7-29.607" stroke-opacity=".447" stroke-width="4.16"/><path d="m19.738 89.45c0-148.05 49.35-49.35 98.7-49.35s98.7-29.612 98.7 49.35c0 78.957-49.35 29.607-98.7 29.607s-98.7 19.743-98.7-29.607" stroke-opacity=".298" stroke-width="6.24"/><path d="m19.738 89.45c0-148.05 49.35-49.35 98.7-49.35s98.7-29.612 98.7 49.35c0 78.957-49.35 29.607-98.7 29.607s-98.7 19.743-98.7-29.607" stroke-opacity=".2" stroke-width="8.33"/><path d="m19.738 89.45c0-148.05 49.35-49.35 98.7-49.35s98.7-29.612 98.7 49.35c0 78.957-49.35 29.607-98.7 29.607s-98.7 19.743-98.7-29.607" stroke-opacity=".133" stroke-width="10.41"/><path d="m19.738 89.45c0-148.05 49.35-49.35 98.7-49.35s98.7-29.612 98.7 49.35c0 78.957-49.35 29.607-98.7 29.607s-98.7 19.743-98.7-29.607" stroke-opacity=".09" stroke-width="12.49"/><path d="m19.738 89.45c0-148.05 49.35-49.35 98.7-49.35s98.7-29.612 98.7 49.35c0 78.957-49.35 29.607-98.7 29.607s-98.7 19.743-98.7-29.607" stroke-opacity=".059" stroke-width="14.57"/><path d="m19.738 89.45c0-148.05 49.35-49.35 98.7-49.35s98.7-29.612 98.7 49.35c0 78.957-49.35 29.607-98.7 29.607s-98.7 19.743-98.7-29.607" stroke-opacity=".039" stroke-width="16.65"/><path d="m19.738 89.45c0-148.05 49.35-49.35 98.7-49.35s98.7-29.612 98.7 49.35c0 78.957-49.35 29.607-98.7 29.607s-98.7 19.743-98.7-29.607" stroke-opacity=".024" stroke-width="18.73"/><path d="m19.738 89.45c0-148.05 49.35-49.35 98.7-49.35s98.7-29.612 98.7 49.35c0 78.957-49.35 29.607-98.7 29.607s-98.7 19.743-98.7-29.607" stroke-opacity=".016" stroke-width="20.81"/><path d="m19.738 89.45c0-148.05 49.35-49.35 98.7-49.35s98.7-29.612 98.7 49.35c0 78.957-49.35 29.607-98.7 29.607s-98.7 19.743-98.7-29.607" stroke-opacity=".012" stroke-width="22.9"/><path d="m19.738 89.45c0-148.05 49.35-49.35 98.7-49.35s98.7-29.612 98.7 49.35c0 78.957-49.35 29.607-98.7 29.607s-98.7 19.743-98.7-29.607" stroke-opacity=".008" stroke-width="24.98"/><path d="m19.738 89.45c0-148.05 49.35-49.35 98.7-49.35s98.7-29.612 98.7 49.35c0 78.957-49.35 29.607-98.7 29.607s-98.7 19.743-98.7-29.607" stroke-opacity=".004" stroke-width="27.06"/></g><path d="m22.17 153.603a2.426 2.426 0 0 0 -2.432-2.426 2.425 2.425 0 0 0 -2.427 2.426 2.43 2.43 0 0 0 4.859 0z" fill="#8f2626" fill-rule="nonzero"/><path d="m21.473 153.603a1.732 1.732 0 1 0 -3.465 0 1.732 1.732 0 1 0 3.465 0z" fill="#dcbcbc" fill-rule="nonzero"/><path d="m32.039 156.073a2.43 2.43 0 1 0 -4.86-.004 2.43 2.43 0 0 0 4.86.004z" fill="#8f2626" fill-rule="nonzero"/><path d="m31.342 156.073c0-.963-.772-1.735-1.73-1.735-.963 0-1.735.772-1.735 1.735 0 .958.772 1.73 1.735 1.73.958 0 1.73-.772 1.73-1.73z" fill="#dcbcbc" fill-rule="nonzero"/><path d="m39.443 138.8a2.43 2.43 0 1 0 0 0z" fill="#8f2626" fill-rule="nonzero"/><path d="m38.747 138.8c0-.958-.778-1.736-1.736-1.736a1.732 1.732 0 1 0 0 3.466c.958 0 1.736-.773 1.736-1.73z" fill="#dcbcbc" fill-rule="nonzero"/><path d="m46.842 128.925a2.425 2.425 0 1 0 -4.853 0 2.427 2.427 0 1 0 4.853 0z" fill="#8f2626" fill-rule="nonzero"/><path d="m46.151 128.925c0-.957-.778-1.73-1.735-1.73a1.733 1.733 0 1 0 0 3.466c.957 0 1.735-.773 1.735-1.736z" fill="#dcbcbc" fill-rule="nonzero"/><path d="m51.776 123.991a2.428 2.428 0 0 0 -2.426-2.426 2.425 2.425 0 0 0 -2.426 2.426 2.426 2.426 0 1 0 4.852 0z" fill="#8f2626" fill-rule="nonzero"/><path d="m51.085 123.991c0-.958-.777-1.73-1.735-1.73a1.732 1.732 0 1 0 0 3.465c.958 0 1.735-.778 1.735-1.735z" fill="#dcbcbc" fill-rule="nonzero"/><path d="m56.711 124.981a2.427 2.427 0 1 0 -4.853 0 2.426 2.426 0 1 0 4.853 0z" fill="#8f2626" fill-rule="nonzero"/><path d="m56.02 124.981a1.737 1.737 0 1 0 -1.736 1.736c.958 0 1.736-.778 1.736-1.736z" fill="#dcbcbc" fill-rule="nonzero"/><path d="m31.784 188.15v106.417h205.097" fill="none" stroke="#000" stroke-miterlimit="3.8" stroke-width="1.49"/><path d="m31.784 197.809h2.062l2.096.024 2.062.054 2.068.048 2.062.078 2.096.102 2.061.126 2.062.15 2.069.173 2.089.228 2.068.3 2.062.353 2.061.426 2.096.533 2.062.629 2.068.803 2.062.929 2.089 1.163 2.069 1.384 2.061 1.66 2.096 1.959 2.062 2.289 2.061 2.643 2.069 3.02 2.089 3.422 2.068 3.775 2.062 4.104 2.062 4.351 2.096 4.584 2.061 4.656 2.069 4.68 2.062 4.578 2.095 4.404 2.062 4.153 2.062 3.823 2.068 3.5 2.089 3.116 2.069 2.798 2.061 2.415 2.096 2.115 2.062 1.81 2.062 1.558 2.068 1.312 2.089 1.103 2.069.959 2.061.779 2.062.683 2.096.551 2.062.48 2.068.401 2.062.324 2.089.305 2.068.228 2.062.222 2.068.179 2.089.15 2.062.126 2.069.126 2.061.102 2.096.102 2.062.072 2.061.077 2.096.072 2.062.054 2.068.072 2.062.054 2.096.048 2.062.054 2.061.024 2.069.048 2.089.054 2.068.024 2.062.048 2.062.024 2.096.054 2.061.024 2.069.024 2.061.054 2.096.023 4.124.048 2.095.024 2.062.054 2.069.024 2.061.024 2.089.024 2.069.03 2.061.024 2.069.024 2.089.024 2.062.024 2.068.03 2.062.024 2.096.024 4.123.048 2.069.03 2.089.024h2.068" fill="none" stroke="#bfbfbf" stroke-dasharray="7.43 7.43" stroke-miterlimit="3.8" stroke-width="1.49"/><path d="m31.784 197.809h2.062l2.096.024 2.062.054 2.068.048 2.062.078 2.096.102 2.061.126 2.062.15 2.069.173 2.089.228 2.068.3 2.062.353 2.061.426 2.096.533 2.062.629 2.068.803 2.062.929 2.089 1.163 2.069 1.384 2.061 1.66 2.096 1.959 2.062 2.289" fill="none" stroke="#000" stroke-miterlimit="3.8" stroke-width="1.49"/><path d="m31.784 188.15v106.417h205.097" fill="none" stroke="#000" stroke-miterlimit="3.8" stroke-width="1.49"/><path d="m100.836 313.769c0 .863.144.671-1.102.719v.839h3.955v-.839c-1.223-.048-1.103.12-1.103-.719v-5.009c0-.839-.144-.671 1.103-.719v-.839h-3.955v.839c1.27.072 1.102-.12 1.102.719z" fill-rule="nonzero"/><path d="m106.477 309.599h-.839v-.983c0-.12-.312-.479-.528-.479-.143.215-.215.311-.287.431-.432.623-.695 1.055-1.007 1.127-.216.167-.383.455-.383.503s.119.288.287.407h.36v3.092c0 .935.647 1.75 1.318 1.75.551 0 1.199-.359 1.75-1.246l-.575-.48c-.408.48-.384.504-.648.504-.407 0-.287 0-.287-.719v-2.901h1.15v-1.006z" fill-rule="nonzero"/><path d="m111.159 312.93c-.552.863-.815 1.103-1.558 1.103-.623 0-.911-.24-1.438-1.294.072.191 0-.168 0-.552h3.499c-.12-1.054-.335-1.582-.623-1.941-.336-.408-1.055-.767-1.654-.767-.551 0-1.294.311-1.726.695-.527.479-.935 1.486-.935 2.421 0 1.558 1.127 2.852 2.421 2.852 1.079 0 2.23-.983 2.757-2.373l-.671-.287zm-2.996-1.414c.119-.887.215-.983.91-.983.696 0 .648 0 .744.672h-1.606z" fill-rule="nonzero"/><path d="m111.848 310.917c.168-.024.264-.048.408-.048.287 0 .072-.144.072.36v2.828c0 .575.239.336-.791.527v.743h3.307v-.791c-1.054-.048-.958.096-.958-.551v-2.541c0-.359.191-.599.503-.599.048 0-.048-.048.072.072.168.168.527.312.671.312.264 0 .719-.504.719-.815 0-.384-.527-.935-.911-.935-.479 0-1.006.383-1.558 1.174l.504.216v-1.222l-.36-.168c-.599.263-1.007.407-1.965.719v.791zm8.493 3.14c-.192.144-.12.096-.288.096-.263 0-.048.168-.048-.336v-2.205c0-.575-.143-1.126-.311-1.39-.264-.408-.935-.743-1.606-.743-1.079 0-2.205.887-2.205 1.606 0 .239.527.791.791.791.263 0 .791-.552.791-.791 0-.048 0-.096-.024-.192s-.024-.192-.024-.264c0-.311.072-.239.527-.239.551 0 .551.024.551.623v.503c-1.438.575-1.845.767-2.349 1.199-.239.215-.479.815-.479 1.198 0 .719.791 1.534 1.486 1.534.503 0 1.175-.335 1.414-.527 0-.024.504.527.959.527.384 0 .839-.24 1.318-.767v-1.054zm-1.846-.431c0 .335.024.239-.215.359-.264.168-.36.168-.6.168-.407 0-.431-.072-.431-.551v-.048c0-.672.168-.767 1.246-1.151zm4.956-4.027h-.839v-.983c0-.12-.311-.479-.527-.479-.144.215-.216.311-.288.431-.431.623-.695 1.055-1.006 1.127-.216.167-.384.455-.384.503s.12.288.288.407h.359v3.092c0 .935.648 1.75 1.319 1.75.551 0 1.198-.359 1.749-1.246l-.575-.48c-.407.48-.383.504-.647.504-.408 0-.288 0-.288-.719v-2.901h1.151v-1.006z" fill-rule="nonzero"/><path d="m125.712 309.479-2.061.743v.743l.384-.072c.143 0 .287-.024.383-.024.288 0 .072-.144.072.36v2.636c0 .815.192.623-.887.671v.791h3.284v-.791c-1.055-.072-.839.144-.839-.671v-4.17l-.288-.216zm-.551-2.517c-.287 0-.863.575-.863.887 0 .335.552.911.863.911.336 0 .887-.576.887-.911 0-.312-.551-.887-.887-.887zm4.538 2.517c-1.462 0-2.804 1.414-2.804 2.972 0 1.534 1.366 2.996 2.78 2.996 1.439 0 2.805-1.534 2.805-3.092 0-1.462-1.342-2.876-2.781-2.876zm-.143.959c.958 0 1.318.767 1.318 2.325 0 1.27-.216 1.725-1.055 1.725-.455 0-.671-.167-.911-.623-.311-.575-.407-1.174-.407-1.965 0-1.079.24-1.462 1.055-1.462z" fill-rule="nonzero"/><path d="m132.917 310.725c.071-.024-.024.048.095.048.336 0 .12-.144.12.408v2.804c0 .647.192.503-.695.551v.791h2.996v-.791c-.887-.048-.743.12-.743-.287v-3.02c.456-.432.48-.48.863-.48.551 0 .527.024.527.767v2.373c0 .719.144.599-.719.647v.791h2.949v-.767c-.839-.096-.695.096-.695-.455v-2.613c0-1.054-.791-2.013-1.63-2.013-.504 0-1.079.311-1.343.551v-.431l-.359-.12c-.552.216-.935.335-1.87.599v.911zm-132.414-36.158c-.215 0-.503 0-.503.288 0 .311.288.311.503.311h7.862c.216 0 .528 0 .528-.287 0-.312-.288-.312-.528-.312z" fill-rule="nonzero"/><path d="m8.756 274.567c-.215 0-.503 0-.503.288 0 .311.288.311.503.311h7.862c.216 0 .528 0 .528-.287 0-.312-.288-.312-.528-.312z" fill-rule="nonzero"/><path d="m17.008 274.567c-.216 0-.503 0-.503.288 0 .311.287.311.503.311h7.862c.216 0 .527 0 .527-.287 0-.312-.287-.312-.527-.312zm-5.505-5.623c0-.336 0-1.007.288-1.487.431-.647 1.174-.719 1.246-.719.192 0 .383 0 .383-.239 0-.24-.191-.24-.431-.24h-3.739c-.216 0-.432 0-.432.24 0 .239.192.239.312.239 1.774.096 1.87 1.487 1.87 2.206h-2.901c-.911 0-.911-.264-.911-.576v-.671c0-1.845.959-2.78 1.894-2.852.12-.024.312-.024.312-.264 0-.216-.216-.216-.456-.216h-1.773c-.432 0-.456.024-.456.456v7.023c0 .264 0 .479.24.479.239 0 .239-.263.239-.383 0-.767.096-.839.791-.839h6.88c.647 0 .791.048.791.791 0 .192 0 .431.239.431.24 0 .24-.215.24-.479v-7.287c0-.263 0-.383-.192-.431-.024-.024-2.301-.408-2.373-.408-.167 0-.263.12-.263.24 0 .192.191.24.191.24.36.096.935.215 1.534 1.222.432.719.624 1.438.624 2.181v.767c0 .312 0 .576-.935.576zm-4.315-4.099h.648c-.24.216-.48.479-.648.767zm4.027 2.684c-.096-.239-.311-.527-.599-.791h1.175c-.384.336-.552.767-.552.791zm-3.283 3.092c-.144 0-.504 0-.744.12v-1.462c.312.144.767.144.887.144h6.688c.479 0 .767-.096.887-.144v1.462c-.24-.12-.6-.12-.767-.12zm7.718-5.105h-.024c-.216-.455-.504-.815-.743-1.103.048.024.647.12.767.144zm3.931-5.767h-.6v1.342h-12.584v-1.342h-.599v1.942h13.783zm-8.965-5.485v-1.222c0-.288 0-.432-.24-.432-.167 0-.167.144-.167.408v1.174c-.839-.144-1.966-.335-2.709-.527-.527-.12-.719-.456-.719-.719 0-.096.024-.408.192-.647.048.287.287.671.743.671.359 0 .503-.264.503-.504 0-.383-.311-.767-.815-.767-.623 0-.983.6-.983 1.247 0 .623.456 1.246 1.007 1.534.599.311 1.127.407 2.781.695v.983c0 .263 0 .431.239.431.168 0 .168-.168.168-.407v-.935c2.014.383 4.746.863 6.184 1.174.767.168 1.798.384 1.798 1.031 0 .216-.072.503-.192.623-.048-.335-.335-.671-.743-.671-.359 0-.503.264-.503.503 0 .384.311.767.815.767.647 0 .982-.623.982-1.222 0-1.39-2.301-2.037-3.475-2.253zm8.965-5.457h-13.783v1.941h.599v-1.342h12.584v1.342h.6zm-6.592-14.092c0-.264 0-.527-.312-.527-.287 0-.287.287-.287.527v7.574c0 .24 0 .528.287.528.312 0 .312-.264.312-.528zm-10.029-11.408 1.845 1.918.288-.264-1.39-1.654 1.39-1.63-.288-.24zm7.656 1.395v-1.223c0-.287 0-.431-.24-.431-.167 0-.167.144-.167.407v1.175c-.839-.144-1.966-.336-2.709-.528-.527-.119-.719-.455-.719-.719 0-.095.024-.407.192-.647.048.288.287.671.743.671.359 0 .503-.263.503-.503 0-.384-.311-.767-.815-.767-.623 0-.983.599-.983 1.246 0 .624.456 1.247 1.007 1.534.599.312 1.127.408 2.781.696v.982c0 .264 0 .432.239.432.168 0 .168-.168.168-.408v-.935c2.014.384 4.746.863 6.184 1.175.767.168 1.798.383 1.798 1.031 0 .215-.072.503-.192.623-.048-.336-.335-.671-.743-.671-.359 0-.503.263-.503.503 0 .384.311.767.815.767.647 0 .982-.623.982-1.222 0-1.391-2.301-2.038-3.475-2.254zm-10.113-5.865c-.215 0-.503 0-.503.288 0 .311.288.311.503.311h7.862c.216 0 .528 0 .528-.287 0-.312-.288-.312-.528-.312z" fill-rule="nonzero"/><path d="m8.756 218.837c-.215 0-.503 0-.503.288 0 .311.288.311.503.311h7.862c.216 0 .528 0 .528-.287 0-.312-.288-.312-.528-.312z" fill-rule="nonzero"/><path d="m17.008 218.837c-.216 0-.503 0-.503.288 0 .311.287.311.503.311h7.862c.216 0 .527 0 .527-.287 0-.312-.287-.312-.527-.312zm97.503 118.532c0-.065-.044-.108-.109-.195-1.61-1.48-2.111-3.722-2.111-5.92 0-1.915.37-4.265 2.133-5.941.065-.065.087-.087.087-.152a.148.148 0 0 0 -.152-.152c-.153 0-1.284.914-1.959 2.263-.588 1.197-.892 2.503-.892 3.982 0 .893.109 2.329.805 3.787.74 1.545 1.893 2.459 2.046 2.459.087 0 .152-.044.152-.131zm4.991-3.873c.066.522.436.957.98.957.304 0 1.088-.174 1.088-1.175v-.696h-.349v.674c0 .153 0 .762-.457.762-.435 0-.435-.587-.435-.783v-2.198c0-.718 0-1.132-.566-1.654-.457-.414-1.066-.588-1.697-.588-1.045 0-1.915.523-1.915 1.328 0 .37.261.587.588.587a.548.548 0 0 0 .565-.565c0-.544-.544-.61-.565-.61.348-.326.957-.435 1.305-.435.631 0 1.349.479 1.349 1.589v.391c-.674.044-1.61.087-2.437.501-.914.435-1.175 1.088-1.175 1.588 0 1.023 1.197 1.35 2.046 1.35 1.022 0 1.501-.675 1.675-1.023zm-.109-.871c0 1.219-.935 1.589-1.479 1.589-.588 0-1.132-.435-1.132-1.045 0-.827.696-1.697 2.611-1.784zm5.98-1.371c0-1.022-.152-2.393-.805-3.786-.74-1.545-1.893-2.459-2.045-2.459-.131 0-.153.109-.153.152 0 .065.022.087.109.174.74.653 2.111 2.35 2.111 5.919 0 1.785-.327 4.266-2.133 5.963-.022.022-.087.087-.087.152 0 .022.022.131.153.131.152 0 1.283-.892 1.958-2.263.588-1.197.892-2.481.892-3.983z" fill-rule="nonzero"/><path d="m276.298 89.45c0-148.05 49.35-49.35 98.7-49.35s98.7-29.607 98.7 49.35c0 78.962-49.35 29.612-98.7 29.612s-98.7 19.738-98.7-29.612" fill="none" stroke="#8f2626" stroke-width=".17"/><path d="m276.298 89.45c0-148.05 49.35-49.35 98.7-49.35s98.7-29.607 98.7 49.35c0 78.962-49.35 29.612-98.7 29.612s-98.7 19.738-98.7-29.612" fill="none" stroke="#8f2626" stroke-opacity=".667" stroke-width="2.08"/><g clip-path="url(#b)" fill="none" stroke="#8f2626"><path d="m276.298 89.45c0-148.05 49.35-49.35 98.7-49.35s98.7-29.607 98.7 49.35c0 78.962-49.35 29.612-98.7 29.612s-98.7 19.738-98.7-29.612" stroke-opacity=".447" stroke-width="4.16"/><path d="m276.298 89.45c0-148.05 49.35-49.35 98.7-49.35s98.7-29.607 98.7 49.35c0 78.962-49.35 29.612-98.7 29.612s-98.7 19.738-98.7-29.612" stroke-opacity=".298" stroke-width="6.24"/><path d="m276.298 89.45c0-148.05 49.35-49.35 98.7-49.35s98.7-29.607 98.7 49.35c0 78.962-49.35 29.612-98.7 29.612s-98.7 19.738-98.7-29.612" stroke-opacity=".2" stroke-width="8.33"/><path d="m276.298 89.45c0-148.05 49.35-49.35 98.7-49.35s98.7-29.607 98.7 49.35c0 78.962-49.35 29.612-98.7 29.612s-98.7 19.738-98.7-29.612" stroke-opacity=".133" stroke-width="10.41"/><path d="m276.298 89.45c0-148.05 49.35-49.35 98.7-49.35s98.7-29.607 98.7 49.35c0 78.962-49.35 29.612-98.7 29.612s-98.7 19.738-98.7-29.612" stroke-opacity=".09" stroke-width="12.49"/><path d="m276.298 89.45c0-148.05 49.35-49.35 98.7-49.35s98.7-29.607 98.7 49.35c0 78.962-49.35 29.612-98.7 29.612s-98.7 19.738-98.7-29.612" stroke-opacity=".059" stroke-width="14.57"/><path d="m276.298 89.45c0-148.05 49.35-49.35 98.7-49.35s98.7-29.607 98.7 49.35c0 78.962-49.35 29.612-98.7 29.612s-98.7 19.738-98.7-29.612" stroke-opacity=".039" stroke-width="16.65"/><path d="m276.298 89.45c0-148.05 49.35-49.35 98.7-49.35s98.7-29.607 98.7 49.35c0 78.962-49.35 29.612-98.7 29.612s-98.7 19.738-98.7-29.612" stroke-opacity=".024" stroke-width="18.73"/><path d="m276.298 89.45c0-148.05 49.35-49.35 98.7-49.35s98.7-29.607 98.7 49.35c0 78.962-49.35 29.612-98.7 29.612s-98.7 19.738-98.7-29.612" stroke-opacity=".016" stroke-width="20.81"/><path d="m276.298 89.45c0-148.05 49.35-49.35 98.7-49.35s98.7-29.607 98.7 49.35c0 78.962-49.35 29.612-98.7 29.612s-98.7 19.738-98.7-29.612" stroke-opacity=".012" stroke-width="22.9"/><path d="m276.298 89.45c0-148.05 49.35-49.35 98.7-49.35s98.7-29.607 98.7 49.35c0 78.962-49.35 29.612-98.7 29.612s-98.7 19.738-98.7-29.612" stroke-opacity=".008" stroke-width="24.98"/><path d="m276.298 89.45c0-148.05 49.35-49.35 98.7-49.35s98.7-29.607 98.7 49.35c0 78.962-49.35 29.612-98.7 29.612s-98.7 19.738-98.7-29.612" stroke-opacity=".004" stroke-width="27.06"/></g><g fill-rule="nonzero"><path d="m278.73 153.609a2.43 2.43 0 1 0 0 0z" fill="#8f2626"/><path d="m278.034 153.609a1.733 1.733 0 1 0 -3.466 0c0 .957.773 1.73 1.73 1.73.958 0 1.736-.773 1.736-1.73z" fill="#dcbcbc"/><path d="m288.599 156.073a2.428 2.428 0 0 0 -4.858 0 2.427 2.427 0 0 0 2.432 2.427 2.425 2.425 0 0 0 2.426-2.427z" fill="#8f2626"/><path d="m287.903 156.073a1.732 1.732 0 1 0 -3.466 0 1.734 1.734 0 1 0 3.466 0z" fill="#dcbcbc"/><path d="m296.004 138.8a2.43 2.43 0 1 0 -4.86.006 2.43 2.43 0 0 0 4.86-.006z" fill="#8f2626"/><path d="m295.307 138.8c0-.958-.778-1.736-1.735-1.736-.958 0-1.736.778-1.736 1.736a1.737 1.737 0 0 0 3.471 0z" fill="#dcbcbc"/><path d="m303.403 128.931a2.425 2.425 0 1 0 -4.853 0 2.42 2.42 0 0 0 2.426 2.426 2.425 2.425 0 0 0 2.427-2.426z" fill="#8f2626"/><path d="m302.712 128.931c0-.958-.778-1.736-1.736-1.736a1.737 1.737 0 1 0 1.736 1.736z" fill="#dcbcbc"/><path d="m308.337 123.996a2.425 2.425 0 0 0 -2.426-2.426 2.422 2.422 0 0 0 -2.427 2.426 2.426 2.426 0 1 0 4.853 0z" fill="#8f2626"/><path d="m307.646 123.996a1.737 1.737 0 0 0 -3.471 0c0 .958.778 1.736 1.736 1.736.957 0 1.735-.778 1.735-1.736z" fill="#dcbcbc"/><path d="m313.271 124.981a2.425 2.425 0 0 0 -2.426-2.426 2.428 2.428 0 0 0 0 4.858 2.426 2.426 0 0 0 2.426-2.432z" fill="#8f2626"/><path d="m312.581 124.981c0-.957-.778-1.73-1.736-1.73a1.732 1.732 0 1 0 0 3.466c.958 0 1.736-.778 1.736-1.736z" fill="#dcbcbc"/><path d="m318.206 119.062a2.422 2.422 0 0 0 -2.427-2.426 2.425 2.425 0 0 0 -2.426 2.426 2.425 2.425 0 1 0 4.853 0z" fill="#8f2626"/><path d="m317.515 119.062c0-.958-.778-1.736-1.736-1.736a1.737 1.737 0 1 0 1.736 1.736z" fill="#dcbcbc"/><path d="m330.545 121.526a2.429 2.429 0 0 0 -2.427-2.426 2.425 2.425 0 0 0 -2.426 2.426 2.426 2.426 0 1 0 4.853 0z" fill="#8f2626"/><path d="m329.854 121.526c0-.957-.778-1.73-1.736-1.73a1.732 1.732 0 1 0 0 3.466c.958 0 1.736-.778 1.736-1.736z" fill="#dcbcbc"/><path d="m347.818 123.996a2.425 2.425 0 0 0 -2.426-2.426 2.426 2.426 0 1 0 0 4.853 2.429 2.429 0 0 0 2.426-2.427z" fill="#8f2626"/><path d="m347.127 123.996a1.737 1.737 0 0 0 -3.471 0c0 .958.778 1.736 1.736 1.736.957 0 1.735-.778 1.735-1.736z" fill="#dcbcbc"/><path d="m357.687 123.996a2.425 2.425 0 0 0 -2.426-2.426 2.422 2.422 0 0 0 -2.427 2.426 2.426 2.426 0 1 0 4.853 0z" fill="#8f2626"/><path d="m356.996 123.996a1.737 1.737 0 0 0 -3.471 0c0 .958.778 1.736 1.736 1.736.957 0 1.735-.778 1.735-1.736z" fill="#dcbcbc"/><path d="m374.465 119.062a2.42 2.42 0 0 0 -2.426-2.426 2.425 2.425 0 0 0 -2.427 2.426 2.429 2.429 0 0 0 2.427 2.426 2.425 2.425 0 0 0 2.426-2.426z" fill="#8f2626"/><path d="m373.774 119.062c0-.958-.778-1.736-1.735-1.736-.958 0-1.736.778-1.736 1.736a1.737 1.737 0 0 0 3.471 0z" fill="#dcbcbc"/><path d="m381.375 123.012a2.426 2.426 0 1 0 -4.853 0 2.425 2.425 0 0 0 2.426 2.426 2.43 2.43 0 0 0 2.427-2.426z" fill="#8f2626"/><path d="m380.684 123.012c0-.963-.778-1.736-1.736-1.736a1.734 1.734 0 1 0 0 3.466c.958 0 1.736-.773 1.736-1.73z" fill="#dcbcbc"/><path d="m406.052 121.037a2.43 2.43 0 1 0 0 0z" fill="#8f2626"/><path d="m405.356 121.037a1.734 1.734 0 1 0 -3.466 0 1.732 1.732 0 1 0 3.466 0z" fill="#dcbcbc"/><path d="m416.906 129.921a2.427 2.427 0 1 0 -4.853 0 2.425 2.425 0 1 0 4.853 0z" fill="#8f2626"/><path d="m416.215 129.921c0-.963-.778-1.735-1.736-1.735a1.733 1.733 0 1 0 0 3.465c.958 0 1.736-.772 1.736-1.73z" fill="#dcbcbc"/><path d="m441.584 136.825a2.43 2.43 0 1 0 -4.859.005 2.43 2.43 0 0 0 4.859-.005z" fill="#8f2626"/><path d="m440.887 136.825c0-.958-.772-1.73-1.73-1.73a1.732 1.732 0 1 0 0 3.465c.958 0 1.73-.772 1.73-1.735z" fill="#dcbcbc"/><path d="m444.543 135.84a2.425 2.425 0 1 0 -4.853 0 2.422 2.422 0 0 0 2.427 2.427 2.425 2.425 0 0 0 2.426-2.427z" fill="#8f2626"/><path d="m443.852 135.84a1.737 1.737 0 0 0 -3.471 0c0 .958.778 1.736 1.736 1.736.957 0 1.735-.778 1.735-1.736z" fill="#dcbcbc"/><path d="m462.312 136.335a2.43 2.43 0 1 0 0 0z" fill="#8f2626"/><path d="m461.615 136.335a1.732 1.732 0 1 0 -3.465 0 1.732 1.732 0 1 0 3.465 0z" fill="#dcbcbc"/><path d="m472.676 116.592a2.43 2.43 0 0 0 -4.859 0 2.43 2.43 0 1 0 4.859 0z" fill="#8f2626"/><path d="m471.979 116.592c0-.958-.778-1.73-1.735-1.73a1.732 1.732 0 1 0 0 3.466c.957 0 1.735-.778 1.735-1.736z" fill="#dcbcbc"/><path d="m474.645 97.349a2.426 2.426 0 1 0 -4.853 0 2.425 2.425 0 1 0 4.853 0z" fill="#8f2626"/><path d="m473.954 97.349a1.737 1.737 0 0 0 -3.471 0c0 .958.778 1.73 1.736 1.73.957 0 1.735-.772 1.735-1.73z" fill="#dcbcbc"/><path d="m476.13 82.54a2.43 2.43 0 1 0 -4.86.007 2.43 2.43 0 0 0 4.86-.007z" fill="#8f2626"/><path d="m475.434 82.54c0-.957-.778-1.73-1.736-1.73a1.732 1.732 0 1 0 0 3.466c.958 0 1.736-.778 1.736-1.736z" fill="#dcbcbc"/><path d="m474.155 67.242a2.43 2.43 0 1 0 -4.859.007 2.43 2.43 0 0 0 4.859-.007z" fill="#8f2626"/><path d="m473.459 67.242a1.73 1.73 0 0 0 -1.735-1.73 1.733 1.733 0 1 0 1.735 1.73z" fill="#dcbcbc"/><path d="m472.181 52.439a2.43 2.43 0 0 0 -4.859 0 2.426 2.426 0 0 0 2.432 2.426 2.426 2.426 0 0 0 2.427-2.426z" fill="#8f2626"/><path d="m471.484 52.439a1.732 1.732 0 1 0 -3.465 0 1.732 1.732 0 1 0 3.465 0z" fill="#dcbcbc"/><path d="m461.321 42.57a2.425 2.425 0 1 0 -4.852 0 2.425 2.425 0 0 0 2.426 2.426 2.428 2.428 0 0 0 2.426-2.426z" fill="#8f2626"/><path d="m460.631 42.57a1.736 1.736 0 1 0 -3.47 0 1.736 1.736 0 0 0 3.47 0z" fill="#dcbcbc"/><path d="m449.478 37.14a2.429 2.429 0 0 0 -2.427-2.426 2.425 2.425 0 0 0 -2.426 2.426 2.422 2.422 0 0 0 2.426 2.427 2.426 2.426 0 0 0 2.427-2.427z" fill="#8f2626"/><path d="m448.787 37.14a1.737 1.737 0 1 0 -1.736 1.736c.958 0 1.736-.778 1.736-1.736z" fill="#dcbcbc"/><path d="m429.245 35.66a2.425 2.425 0 0 0 -2.427-2.426 2.422 2.422 0 0 0 -2.426 2.426 2.425 2.425 0 1 0 4.853 0z" fill="#8f2626"/><path d="m428.554 35.66a1.737 1.737 0 1 0 -1.736 1.736c.958 0 1.736-.778 1.736-1.736z" fill="#dcbcbc"/><path d="m426.78 33.686a2.43 2.43 0 0 0 -4.858 0 2.425 2.425 0 0 0 2.426 2.426 2.426 2.426 0 0 0 2.432-2.426z" fill="#8f2626"/><path d="m426.084 33.686c0-.958-.778-1.736-1.736-1.736a1.737 1.737 0 1 0 1.736 1.736z" fill="#dcbcbc"/><path d="m399.638 42.075a2.43 2.43 0 0 0 -4.858 0 2.425 2.425 0 0 0 2.426 2.426 2.426 2.426 0 0 0 2.432-2.426z" fill="#8f2626"/><path d="m398.942 42.075c0-.958-.778-1.736-1.736-1.736a1.737 1.737 0 1 0 1.736 1.736z" fill="#dcbcbc"/><path d="m392.234 39.115a2.425 2.425 0 0 0 -2.427-2.426 2.426 2.426 0 1 0 0 4.853 2.43 2.43 0 0 0 2.427-2.427z" fill="#8f2626"/><path d="m391.537 39.115a1.732 1.732 0 1 0 -3.465 0 1.732 1.732 0 1 0 3.465 0z" fill="#dcbcbc"/><path d="m371.506 40.1a2.429 2.429 0 1 0 -4.858.004 2.429 2.429 0 0 0 4.858-.004z" fill="#8f2626"/><path d="m370.815 40.1c0-.958-.778-1.73-1.736-1.73a1.732 1.732 0 1 0 0 3.465c.958 0 1.736-.778 1.736-1.735z" fill="#dcbcbc"/><path d="m359.167 40.1a2.426 2.426 0 1 0 -4.853 0 2.427 2.427 0 0 0 4.853 0z" fill="#8f2626"/><path d="m358.476 40.1c0-.958-.778-1.73-1.736-1.73a1.732 1.732 0 1 0 0 3.465c.958 0 1.736-.778 1.736-1.735z" fill="#dcbcbc"/><path d="m335.479 25.296a2.425 2.425 0 1 0 -4.853 0 2.422 2.422 0 0 0 2.427 2.427 2.425 2.425 0 0 0 2.426-2.427z" fill="#8f2626"/><path d="m334.788 25.296a1.737 1.737 0 0 0 -3.471 0c0 .958.778 1.736 1.736 1.736.957 0 1.735-.778 1.735-1.736z" fill="#dcbcbc"/><path d="m320.676 16.412a2.429 2.429 0 1 0 -4.857.005 2.429 2.429 0 0 0 4.857-.005z" fill="#8f2626"/><path d="m319.979 16.412a1.732 1.732 0 1 0 -3.465 0 1.732 1.732 0 1 0 3.465 0z" fill="#dcbcbc"/><path d="m313.271 15.428a2.425 2.425 0 1 0 -2.426 2.426 2.425 2.425 0 0 0 2.426-2.426z" fill="#8f2626"/><path d="m312.581 15.428c0-.958-.778-1.736-1.736-1.736a1.737 1.737 0 1 0 1.736 1.736z" fill="#dcbcbc"/><path d="m296.004 10.493a2.43 2.43 0 1 0 0 0z" fill="#8f2626"/><path d="m295.307 10.493a1.737 1.737 0 0 0 -3.471 0c0 .958.778 1.736 1.736 1.736.957 0 1.735-.778 1.735-1.736z" fill="#dcbcbc"/><path d="m286.624 20.362a2.425 2.425 0 0 0 -2.426-2.426 2.426 2.426 0 1 0 0 4.852 2.428 2.428 0 0 0 2.426-2.426z" fill="#8f2626"/><path d="m285.933 20.362c0-.958-.778-1.736-1.735-1.736-.958 0-1.736.778-1.736 1.736a1.737 1.737 0 0 0 3.471 0z" fill="#dcbcbc"/><path d="m281.69 37.14a2.429 2.429 0 0 0 -4.858 0 2.426 2.426 0 0 0 2.431 2.427 2.426 2.426 0 0 0 2.427-2.427z" fill="#8f2626"/><path d="m280.993 37.14a1.732 1.732 0 1 0 -3.465 0 1.732 1.732 0 1 0 3.465 0z" fill="#dcbcbc"/><path d="m277.74 49.974a2.427 2.427 0 0 0 -4.853 0 2.426 2.426 0 1 0 4.853 0z" fill="#8f2626"/><path d="m277.049 49.974c0-.963-.778-1.735-1.735-1.735a1.733 1.733 0 1 0 0 3.465c.957 0 1.735-.772 1.735-1.73z" fill="#dcbcbc"/><path d="m278.73 67.737a2.43 2.43 0 0 0 -4.858 0 2.425 2.425 0 0 0 2.426 2.427 2.427 2.427 0 0 0 2.432-2.427z" fill="#8f2626"/><path d="m278.034 67.737a1.732 1.732 0 1 0 -3.466 0 1.733 1.733 0 1 0 3.466 0z" fill="#dcbcbc"/><path d="m276.755 75.631a2.428 2.428 0 1 0 -4.857.005 2.428 2.428 0 0 0 4.857-.005z" fill="#8f2626"/><path d="m276.059 75.631c0-.957-.773-1.73-1.73-1.73a1.73 1.73 0 0 0 -1.736 1.73 1.73 1.73 0 0 0 1.736 1.736 1.73 1.73 0 0 0 1.73-1.736z" fill="#dcbcbc"/><path d="m279.715 90.44a2.43 2.43 0 1 0 -4.86-.005 2.43 2.43 0 0 0 4.86.005z" fill="#8f2626"/><path d="m279.024 90.44c0-.958-.778-1.736-1.735-1.736-.958 0-1.736.778-1.736 1.736a1.737 1.737 0 0 0 3.471 0z" fill="#dcbcbc"/><path d="m283.665 107.218a2.426 2.426 0 0 0 -2.432-2.426 2.425 2.425 0 1 0 0 4.853 2.43 2.43 0 0 0 2.432-2.427z" fill="#8f2626"/><path d="m282.968 107.218a1.733 1.733 0 1 0 -3.465 0 1.732 1.732 0 1 0 3.465 0z" fill="#dcbcbc"/><path d="m295.509 119.062a2.426 2.426 0 0 0 -2.432-2.426 2.425 2.425 0 0 0 -2.427 2.426 2.429 2.429 0 0 0 4.859 0z" fill="#8f2626"/><path d="m294.812 119.062a1.733 1.733 0 1 0 -3.465 0 1.732 1.732 0 1 0 3.465 0z" fill="#dcbcbc"/></g><path d="m288.345 188.15v106.423h205.097" fill="none" stroke="#000" stroke-miterlimit="3.8" stroke-width="1.49"/><path d="m288.345 197.815h2.062l2.096.024 2.061.048 2.069.054 2.061.072 2.096.102 2.062.126 2.062.15 2.068.179 2.089.228 2.069.3 2.061.353 2.062.426 2.096.527 2.062.629 2.068.809 2.062.929 2.089 1.157 2.068 1.384 2.062 1.66 2.096 1.965 2.061 2.289 2.062 2.643 2.069 3.02 2.089 3.422 2.068 3.775 2.062 4.098 2.061 4.357 2.096 4.578 2.062 4.656 2.068 4.68 2.062 4.584 2.096 4.398 2.062 4.153 2.061 3.829 2.069 3.494 2.089 3.122 2.068 2.792 2.062 2.415 2.096 2.115 2.062 1.81 2.061 1.564 2.069 1.306 2.089 1.109 2.068.959 2.062.779 2.062.677 2.095.557 2.062.474 2.069.401 2.061.33 2.089.299 2.069.228 2.061.228 2.069.173 2.089.156 2.062.126 2.068.126 2.062.096 2.096.102 2.061.078 2.062.071 2.096.078 2.062.048 2.068.078 2.062.048 2.096.054 2.061.048 2.062.024 2.068.054 2.089.048 2.069.024 2.062.054 2.061.024 2.096.048 2.062.03 2.068.024 2.062.048 2.096.023 2.061.03 2.062.024 2.096.024 2.062.048 2.068.03 2.062.024 2.089.024 2.068.024 2.062.024 2.069.03 2.089.024 2.061.024 2.069.024 2.061.024 2.096.03 4.124.048 2.068.024 2.089.024h2.069" fill="none" stroke="#bfbfbf" stroke-dasharray="7.43 7.43" stroke-miterlimit="3.8" stroke-width="1.49"/><path d="m288.345 197.815h2.062l2.096.024 2.061.048 2.069.054 2.061.072 2.096.102 2.062.126 2.062.15 2.068.179 2.089.228 2.069.3 2.061.353 2.062.426 2.096.527 2.062.629 2.068.809 2.062.929 2.089 1.157 2.068 1.384 2.062 1.66 2.096 1.965 2.061 2.289 2.062 2.643 2.069 3.02 2.089 3.422 2.068 3.775 2.062 4.098 2.061 4.357 2.096 4.578 2.062 4.656 2.068 4.68 2.062 4.584 2.096 4.398 2.062 4.153 2.061 3.829 2.069 3.494 2.089 3.122 2.068 2.792 2.062 2.415 2.096 2.115 2.062 1.81 2.061 1.564 2.069 1.306 2.089 1.109" fill="none" stroke="#000" stroke-miterlimit="3.8" stroke-width="1.49"/><path d="m288.345 188.15v106.423h205.097" fill="none" stroke="#000" stroke-miterlimit="3.8" stroke-width="1.49"/><path d="m357.397 313.773c0 .863.144.671-1.103.719v.839h3.955v-.839c-1.222-.048-1.102.12-1.102-.719v-5.01c0-.839-.144-.671 1.102-.719v-.839h-3.955v.839c1.271.072 1.103-.12 1.103.719z" fill-rule="nonzero"/><path d="m363.037 309.602h-.839v-.982c0-.12-.311-.48-.527-.48-.144.216-.216.312-.288.432-.431.623-.695 1.054-1.006 1.126-.216.168-.384.456-.384.503 0 .048.12.288.288.408h.359v3.092c0 .935.648 1.75 1.319 1.75.551 0 1.198-.36 1.749-1.247l-.575-.479c-.407.479-.383.503-.647.503-.407 0-.288 0-.288-.719v-2.9h1.151v-1.007z" fill-rule="nonzero"/><path d="m367.719 312.934c-.551.863-.815 1.103-1.558 1.103-.623 0-.91-.24-1.438-1.295.072.192 0-.168 0-.551h3.5c-.12-1.055-.336-1.582-.623-1.942-.336-.407-1.055-.767-1.654-.767-.552 0-1.295.312-1.726.696-.527.479-.935 1.486-.935 2.42 0 1.558 1.127 2.853 2.421 2.853 1.079 0 2.229-.983 2.756-2.373l-.671-.288zm-2.996-1.414c.12-.887.216-.983.911-.983s.647 0 .743.671h-1.606z" fill-rule="nonzero"/><path d="m368.409 310.921c.168-.024.263-.048.407-.048.288 0 .072-.144.072.359v2.829c0 .575.24.335-.791.527v.743h3.308v-.791c-1.055-.048-.959.096-.959-.551v-2.541c0-.36.192-.599.504-.599.047 0-.048-.048.071.072.168.167.528.311.672.311.263 0 .719-.503.719-.815 0-.383-.528-.935-.911-.935-.48 0-1.007.384-1.558 1.175l.503.216v-1.223l-.359-.168c-.6.264-1.007.408-1.966.719v.791zm8.493 3.14c-.192.143-.12.095-.288.095-.264 0-.048.168-.048-.335v-2.205c0-.576-.144-1.127-.312-1.391-.263-.407-.934-.743-1.606-.743-1.078 0-2.205.887-2.205 1.606 0 .24.528.791.791.791.264 0 .791-.551.791-.791 0-.048 0-.096-.024-.191-.024-.096-.024-.192-.024-.264 0-.312.072-.24.528-.24.551 0 .551.024.551.623v.504c-1.438.575-1.846.767-2.349 1.198-.24.216-.479.815-.479 1.199 0 .719.791 1.534 1.486 1.534.503 0 1.174-.336 1.414-.528 0-.024.503.528.959.528.383 0 .839-.24 1.318-.767v-1.055zm-1.846-.432c0 .336.024.24-.216.36-.263.167-.359.167-.599.167-.407 0-.431-.071-.431-.551v-.048c0-.671.167-.767 1.246-1.15zm4.956-4.027h-.839v-.982c0-.12-.312-.48-.527-.48-.144.216-.216.312-.288.432-.431.623-.695 1.054-1.007 1.126-.215.168-.383.456-.383.503 0 .048.12.288.287.408h.36v3.092c0 .935.647 1.75 1.318 1.75.552 0 1.199-.36 1.75-1.247l-.575-.479c-.408.479-.384.503-.647.503-.408 0-.288 0-.288-.719v-2.9h1.15v-1.007z" fill-rule="nonzero"/><path d="m382.273 309.482-2.061.743v.744l.383-.072c.144 0 .288-.024.384-.024.287 0 .072-.144.072.359v2.637c0 .815.191.623-.887.671v.791h3.284v-.791c-1.055-.072-.839.144-.839-.671v-4.171l-.288-.216zm-.551-2.516c-.288 0-.863.575-.863.887 0 .335.551.91.863.91.335 0 .887-.575.887-.91 0-.312-.552-.887-.887-.887zm4.538 2.516c-1.462 0-2.804 1.415-2.804 2.973 0 1.534 1.366 2.996 2.78 2.996 1.438 0 2.804-1.534 2.804-3.092 0-1.462-1.342-2.877-2.78-2.877zm-.144.959c.959 0 1.319.767 1.319 2.325 0 1.271-.216 1.726-1.055 1.726-.456 0-.671-.168-.911-.623-.312-.575-.407-1.175-.407-1.966 0-1.078.239-1.462 1.054-1.462z" fill-rule="nonzero"/><path d="m389.477 310.729c.072-.024-.024.048.096.048.336 0 .12-.144.12.407v2.805c0 .647.192.503-.695.551v.791h2.996v-.791c-.887-.048-.743.12-.743-.288v-3.02c.455-.431.479-.479.863-.479.551 0 .527.024.527.767v2.373c0 .719.144.599-.719.647v.791h2.948v-.767c-.839-.096-.695.096-.695-.456v-2.612c0-1.055-.791-2.014-1.63-2.014-.503 0-1.078.312-1.342.552v-.432l-.36-.12c-.551.216-.934.336-1.869.6v.91zm-132.413-36.158c-.216 0-.503 0-.503.287 0 .312.287.312.503.312h7.862c.216 0 .527 0 .527-.288 0-.311-.287-.311-.527-.311z" fill-rule="nonzero"/><path d="m265.317 274.571c-.216 0-.503 0-.503.287 0 .312.287.312.503.312h7.862c.216 0 .527 0 .527-.288 0-.311-.287-.311-.527-.311z" fill-rule="nonzero"/><path d="m273.57 274.571c-.216 0-.503 0-.503.287 0 .312.287.312.503.312h7.862c.216 0 .527 0 .527-.288 0-.311-.287-.311-.527-.311zm-5.506-5.624c0-.335 0-1.007.287-1.486.432-.647 1.175-.719 1.247-.719.191 0 .383 0 .383-.24 0-.239-.192-.239-.431-.239h-3.74c-.215 0-.431 0-.431.239 0 .24.192.24.312.24 1.773.096 1.869 1.486 1.869 2.205h-2.9c-.911 0-.911-.263-.911-.575v-.671c0-1.846.959-2.781 1.894-2.853.119-.024.311-.024.311-.263 0-.216-.215-.216-.455-.216h-1.774c-.431 0-.455.024-.455.455v7.023c0 .264 0 .48.239.48.24 0 .24-.264.24-.384 0-.767.096-.839.791-.839h6.879c.647 0 .791.048.791.791 0 .192 0 .432.24.432s.24-.216.24-.48v-7.286c0-.264 0-.384-.192-.432-.024-.024-2.301-.407-2.373-.407-.168 0-.264.12-.264.24 0 .191.192.239.192.239.36.096.935.216 1.534 1.223.431.719.623 1.438.623 2.181v.767c0 .312 0 .575-.935.575zm-4.315-4.099h.647c-.239.216-.479.48-.647.767zm4.027 2.685c-.096-.24-.312-.527-.599-.791h1.174c-.383.336-.551.767-.551.791zm-3.284 3.092c-.144 0-.503 0-.743.12v-1.462c.312.144.767.144.887.144h6.687c.48 0 .767-.096.887-.144v1.462c-.239-.12-.599-.12-.767-.12zm7.718-5.105h-.024c-.215-.456-.503-.815-.743-1.103.048.024.647.12.767.144zm3.931-5.767h-.599v1.342h-12.584v-1.342h-.599v1.941h13.782zm-8.964-5.485v-1.223c0-.287 0-.431-.24-.431-.168 0-.168.144-.168.407v1.175c-.839-.144-1.965-.336-2.708-.528-.528-.119-.719-.455-.719-.719 0-.096.024-.407.191-.647.048.288.288.671.743.671.36 0 .504-.263.504-.503 0-.384-.312-.767-.815-.767-.623 0-.983.599-.983 1.246 0 .624.455 1.247 1.007 1.534.599.312 1.126.408 2.78.695v.983c0 .264 0 .432.24.432.168 0 .168-.168.168-.408v-.935c2.013.384 4.746.863 6.184 1.175.767.168 1.797.383 1.797 1.031 0 .215-.071.503-.191.623-.048-.336-.336-.671-.743-.671-.36 0-.504.263-.504.503 0 .383.312.767.815.767.647 0 .983-.623.983-1.222 0-1.391-2.301-2.038-3.476-2.254zm8.964-5.457h-13.782v1.941h.599v-1.342h12.584v1.342h.599zm-6.591-14.092c0-.264 0-.528-.312-.528-.288 0-.288.288-.288.528v7.574c0 .24 0 .527.288.527.312 0 .312-.263.312-.527zm-10.03-11.408 1.846 1.917.288-.263-1.391-1.654 1.391-1.63-.288-.24zm7.657 1.394v-1.222c0-.288 0-.432-.24-.432-.168 0-.168.144-.168.408v1.174c-.839-.143-1.965-.335-2.708-.527-.528-.12-.719-.455-.719-.719 0-.096.024-.407.191-.647.048.287.288.671.743.671.36 0 .504-.264.504-.503 0-.384-.312-.767-.815-.767-.623 0-.983.599-.983 1.246 0 .623.455 1.246 1.007 1.534.599.312 1.126.407 2.78.695v.983c0 .264 0 .431.24.431.168 0 .168-.167.168-.407v-.935c2.013.384 4.746.863 6.184 1.175.767.167 1.797.383 1.797 1.03 0 .216-.071.504-.191.623-.048-.335-.336-.671-.743-.671-.36 0-.504.264-.504.504 0 .383.312.767.815.767.647 0 .983-.624.983-1.223 0-1.39-2.301-2.037-3.476-2.253zm-10.113-5.864c-.216 0-.503 0-.503.287 0 .312.287.312.503.312h7.862c.216 0 .527 0 .527-.288 0-.311-.287-.311-.527-.311z" fill-rule="nonzero"/><path d="m265.317 218.841c-.216 0-.503 0-.503.287 0 .312.287.312.503.312h7.862c.216 0 .527 0 .527-.288 0-.311-.287-.311-.527-.311z" fill-rule="nonzero"/><path d="m273.57 218.841c-.216 0-.503 0-.503.287 0 .312.287.312.503.312h7.862c.216 0 .527 0 .527-.288 0-.311-.287-.311-.527-.311zm97.146 118.528c0-.065-.044-.108-.109-.195-1.611-1.48-2.111-3.722-2.111-5.92 0-1.915.37-4.265 2.133-5.941.065-.065.087-.087.087-.152a.15.15 0 0 0 -.153-.152c-.152 0-1.284.914-1.958 2.263-.588 1.197-.893 2.503-.893 3.982 0 .893.109 2.329.806 3.787.74 1.545 1.893 2.459 2.045 2.459.087 0 .153-.044.153-.131zm2.989-6.963c0-.24 0-.261.13-.457a1.925 1.925 0 0 1 1.524-.762c.522 0 1.023.283 1.349.827.326.522.348 1.262.348 1.654 0 .587-.065 1.262-.392 1.763-.282.391-.783.783-1.458.783-.544 0-1.022-.305-1.327-.762-.174-.261-.174-.283-.174-.522zm-.109 3.22c.392.544 1.001.893 1.676.893 1.501 0 2.872-1.197 2.872-2.829 0-1.567-1.24-2.829-2.742-2.829-.848 0-1.436.435-1.741.783v-3.917l-1.849.131v.391c.848 0 .957.087.957.697v7.442h.348zm8.694-2.372c0-1.022-.153-2.393-.805-3.786-.74-1.545-1.894-2.459-2.046-2.459-.131 0-.152.109-.152.152 0 .065.021.087.108.174.74.653 2.111 2.35 2.111 5.919 0 1.785-.326 4.266-2.132 5.963-.022.022-.087.087-.087.152a.14.14 0 0 0 .152.131c.152 0 1.284-.892 1.959-2.263.587-1.197.892-2.481.892-3.983z" fill-rule="nonzero"/><path d="m532.859 89.45c0-148.05 49.35-49.35 98.7-49.35s98.7-29.612 98.7 49.35c0 78.957-49.35 29.607-98.7 29.607s-98.7 19.743-98.7-29.607" fill="none" stroke="#8f2626" stroke-width=".17"/><path d="m532.859 89.45c0-148.05 49.35-49.35 98.7-49.35s98.7-29.612 98.7 49.35c0 78.957-49.35 29.607-98.7 29.607s-98.7 19.743-98.7-29.607" fill="none" stroke="#8f2626" stroke-opacity=".667" stroke-width="2.08"/><g clip-path="url(#c)" fill="none" stroke="#8f2626"><path d="m532.859 89.45c0-148.05 49.35-49.35 98.7-49.35s98.7-29.612 98.7 49.35c0 78.957-49.35 29.607-98.7 29.607s-98.7 19.743-98.7-29.607" stroke-opacity=".447" stroke-width="4.16"/><path d="m532.859 89.45c0-148.05 49.35-49.35 98.7-49.35s98.7-29.612 98.7 49.35c0 78.957-49.35 29.607-98.7 29.607s-98.7 19.743-98.7-29.607" stroke-opacity=".298" stroke-width="6.24"/><path d="m532.859 89.45c0-148.05 49.35-49.35 98.7-49.35s98.7-29.612 98.7 49.35c0 78.957-49.35 29.607-98.7 29.607s-98.7 19.743-98.7-29.607" stroke-opacity=".2" stroke-width="8.33"/><path d="m532.859 89.45c0-148.05 49.35-49.35 98.7-49.35s98.7-29.612 98.7 49.35c0 78.957-49.35 29.607-98.7 29.607s-98.7 19.743-98.7-29.607" stroke-opacity=".133" stroke-width="10.41"/><path d="m532.859 89.45c0-148.05 49.35-49.35 98.7-49.35s98.7-29.612 98.7 49.35c0 78.957-49.35 29.607-98.7 29.607s-98.7 19.743-98.7-29.607" stroke-opacity=".09" stroke-width="12.49"/><path d="m532.859 89.45c0-148.05 49.35-49.35 98.7-49.35s98.7-29.612 98.7 49.35c0 78.957-49.35 29.607-98.7 29.607s-98.7 19.743-98.7-29.607" stroke-opacity=".059" stroke-width="14.57"/><path d="m532.859 89.45c0-148.05 49.35-49.35 98.7-49.35s98.7-29.612 98.7 49.35c0 78.957-49.35 29.607-98.7 29.607s-98.7 19.743-98.7-29.607" stroke-opacity=".039" stroke-width="16.65"/><path d="m532.859 89.45c0-148.05 49.35-49.35 98.7-49.35s98.7-29.612 98.7 49.35c0 78.957-49.35 29.607-98.7 29.607s-98.7 19.743-98.7-29.607" stroke-opacity=".024" stroke-width="18.73"/><path d="m532.859 89.45c0-148.05 49.35-49.35 98.7-49.35s98.7-29.612 98.7 49.35c0 78.957-49.35 29.607-98.7 29.607s-98.7 19.743-98.7-29.607" stroke-opacity=".016" stroke-width="20.81"/><path d="m532.859 89.45c0-148.05 49.35-49.35 98.7-49.35s98.7-29.612 98.7 49.35c0 78.957-49.35 29.607-98.7 29.607s-98.7 19.743-98.7-29.607" stroke-opacity=".012" stroke-width="22.9"/><path d="m532.859 89.45c0-148.05 49.35-49.35 98.7-49.35s98.7-29.612 98.7 49.35c0 78.957-49.35 29.607-98.7 29.607s-98.7 19.743-98.7-29.607" stroke-opacity=".008" stroke-width="24.98"/><path d="m532.859 89.45c0-148.05 49.35-49.35 98.7-49.35s98.7-29.612 98.7 49.35c0 78.957-49.35 29.607-98.7 29.607s-98.7 19.743-98.7-29.607" stroke-opacity=".004" stroke-width="27.06"/></g><g fill-rule="nonzero"><path d="m535.291 153.603a2.43 2.43 0 0 0 -4.858 0 2.425 2.425 0 0 0 2.426 2.427 2.427 2.427 0 0 0 2.432-2.427z" fill="#8f2626"/><path d="m534.595 153.603c0-.957-.778-1.735-1.736-1.735s-1.73.778-1.73 1.735a1.732 1.732 0 1 0 3.466 0z" fill="#dcbcbc"/><path d="m545.16 156.073a2.43 2.43 0 1 0 -4.86-.004 2.43 2.43 0 0 0 4.86.004z" fill="#8f2626"/><path d="m544.463 156.073a1.732 1.732 0 1 0 -3.465 0 1.733 1.733 0 1 0 3.465 0z" fill="#dcbcbc"/><path d="m552.564 138.8a2.427 2.427 0 0 0 -2.432-2.427 2.425 2.425 0 1 0 0 4.853 2.43 2.43 0 0 0 2.432-2.426z" fill="#8f2626"/><path d="m551.868 138.8c0-.958-.778-1.736-1.736-1.736a1.737 1.737 0 1 0 1.736 1.736z" fill="#dcbcbc"/><path d="m559.963 128.931a2.427 2.427 0 0 0 -4.853 0 2.425 2.425 0 1 0 4.853 0z" fill="#8f2626"/><path d="m559.272 128.931c0-.958-.778-1.736-1.735-1.736a1.733 1.733 0 1 0 0 3.466c.957 0 1.735-.773 1.735-1.73z" fill="#dcbcbc"/><path d="m564.898 123.996a2.426 2.426 0 1 0 -4.853 0 2.425 2.425 0 0 0 2.426 2.427 2.429 2.429 0 0 0 2.427-2.427z" fill="#8f2626"/><path d="m564.207 123.996a1.737 1.737 0 0 0 -3.471 0c0 .958.778 1.73 1.735 1.73.958 0 1.736-.772 1.736-1.73z" fill="#dcbcbc"/><path d="m569.832 124.981a2.421 2.421 0 0 0 -2.426-2.426 2.425 2.425 0 0 0 -2.427 2.426 2.426 2.426 0 1 0 4.853 0z" fill="#8f2626"/><path d="m569.141 124.981a1.737 1.737 0 0 0 -3.471 0c0 .958.778 1.736 1.736 1.736.957 0 1.735-.778 1.735-1.736z" fill="#dcbcbc"/><path d="m574.767 119.057a2.426 2.426 0 1 0 -4.853 0 2.426 2.426 0 1 0 4.853 0z" fill="#8f2626"/><path d="m574.076 119.057c0-.958-.778-1.731-1.736-1.731a1.733 1.733 0 1 0 0 3.466c.958 0 1.736-.773 1.736-1.735z" fill="#dcbcbc"/><path d="m579.706 123.996a2.43 2.43 0 1 0 0 0z" fill="#8f2626"/><path d="m579.01 123.996a1.737 1.737 0 0 0 -3.471 0c0 .958.778 1.73 1.736 1.73.957 0 1.735-.772 1.735-1.73z" fill="#dcbcbc"/><path d="m584.641 126.461a2.43 2.43 0 0 0 -4.858 0 2.425 2.425 0 0 0 2.426 2.426 2.426 2.426 0 0 0 2.432-2.426z" fill="#8f2626"/><path d="m583.944 126.461a1.732 1.732 0 1 0 -3.465 0 1.732 1.732 0 1 0 3.465 0z" fill="#dcbcbc"/><path d="m587.105 121.526a2.428 2.428 0 0 0 -2.426-2.426 2.425 2.425 0 0 0 -2.426 2.426 2.425 2.425 0 1 0 4.852 0z" fill="#8f2626"/><path d="m586.414 121.526a1.737 1.737 0 0 0 -3.471 0c0 .958.778 1.736 1.736 1.736.957 0 1.735-.778 1.735-1.736z" fill="#dcbcbc"/><path d="m584.641 123.996a2.43 2.43 0 1 0 0 0z" fill="#8f2626"/><path d="m583.944 123.996a1.732 1.732 0 1 0 -3.465 0c0 .958.772 1.73 1.73 1.73s1.735-.772 1.735-1.73z" fill="#dcbcbc"/><path d="m594.51 126.956a2.425 2.425 0 0 0 -2.427-2.426 2.426 2.426 0 1 0 0 4.852 2.429 2.429 0 0 0 2.427-2.426z" fill="#8f2626"/><path d="m593.813 126.956a1.732 1.732 0 1 0 -3.465 0 1.732 1.732 0 1 0 3.465 0z" fill="#dcbcbc"/><path d="m604.379 123.996a2.43 2.43 0 1 0 -4.86-.003 2.43 2.43 0 0 0 4.86.003z" fill="#8f2626"/><path d="m603.688 123.996a1.737 1.737 0 0 0 -3.471 0c0 .958.778 1.73 1.735 1.73.958 0 1.736-.772 1.736-1.73z" fill="#dcbcbc"/><path d="m606.354 119.057a2.43 2.43 0 1 0 -4.859.005 2.43 2.43 0 0 0 4.859-.005z" fill="#8f2626"/><path d="m605.657 119.057c0-.958-.772-1.731-1.73-1.731-.963 0-1.735.773-1.735 1.731a1.73 1.73 0 0 0 1.735 1.735c.958 0 1.73-.773 1.73-1.735z" fill="#dcbcbc"/><path d="m605.363 122.022a2.426 2.426 0 1 0 -4.852 0 2.428 2.428 0 0 0 2.426 2.426 2.425 2.425 0 0 0 2.426-2.426z" fill="#8f2626"/><path d="m604.672 122.022c0-.958-.778-1.736-1.735-1.736-.958 0-1.736.778-1.736 1.736a1.737 1.737 0 0 0 3.471 0z" fill="#dcbcbc"/><path d="m614.248 123.996a2.426 2.426 0 1 0 -4.853 0 2.425 2.425 0 0 0 2.426 2.427 2.429 2.429 0 0 0 2.427-2.427z" fill="#8f2626"/><path d="m613.557 123.996a1.737 1.737 0 0 0 -3.471 0c0 .958.778 1.73 1.735 1.73.958 0 1.736-.772 1.736-1.73z" fill="#dcbcbc"/><path d="m621.652 119.057a2.429 2.429 0 1 0 -4.857.003 2.429 2.429 0 0 0 4.857-.003z" fill="#8f2626"/><path d="m620.956 119.057c0-.958-.773-1.731-1.73-1.731a1.73 1.73 0 0 0 -1.736 1.731 1.73 1.73 0 0 0 1.736 1.735 1.73 1.73 0 0 0 1.73-1.735z" fill="#dcbcbc"/><path d="m629.056 116.592a2.426 2.426 0 0 0 -2.431-2.426 2.425 2.425 0 0 0 -2.427 2.426 2.429 2.429 0 0 0 4.858 0z" fill="#8f2626"/><path d="m628.36 116.592a1.736 1.736 0 1 0 -3.472.002 1.736 1.736 0 0 0 3.472-.002z" fill="#dcbcbc"/><path d="m631.026 119.057a2.426 2.426 0 1 0 -4.853 0 2.426 2.426 0 1 0 4.853 0z" fill="#8f2626"/><path d="m630.335 119.057c0-.958-.778-1.731-1.736-1.731a1.733 1.733 0 1 0 0 3.466c.958 0 1.736-.773 1.736-1.735z" fill="#dcbcbc"/><path d="m634.976 116.592a2.425 2.425 0 0 0 -2.427-2.426 2.426 2.426 0 1 0 0 4.852 2.43 2.43 0 0 0 2.427-2.426z" fill="#8f2626"/><path d="m634.285 116.592a1.736 1.736 0 1 0 -3.472.002 1.736 1.736 0 0 0 3.472-.002z" fill="#dcbcbc"/><path d="m635.471 120.047a2.427 2.427 0 0 0 -2.432-2.427 2.426 2.426 0 1 0 0 4.853 2.43 2.43 0 0 0 2.432-2.426z" fill="#8f2626"/><path d="m634.774 120.047a1.732 1.732 0 1 0 -3.465 0 1.732 1.732 0 1 0 3.465 0z" fill="#dcbcbc"/><path d="m637.935 123.006a2.425 2.425 0 1 0 -4.853 0 2.422 2.422 0 0 0 2.427 2.427 2.425 2.425 0 0 0 2.426-2.427z" fill="#8f2626"/><path d="m637.244 123.006a1.737 1.737 0 0 0 -3.471 0c0 .958.778 1.736 1.736 1.736.957 0 1.735-.778 1.735-1.736z" fill="#dcbcbc"/><path d="m644.844 121.526a2.428 2.428 0 0 0 -2.426-2.426 2.425 2.425 0 0 0 -2.426 2.426 2.425 2.425 0 1 0 4.852 0z" fill="#8f2626"/><path d="m644.154 121.526a1.737 1.737 0 1 0 -1.736 1.736c.958 0 1.736-.778 1.736-1.736z" fill="#dcbcbc"/><path d="m660.638 123.501a2.425 2.425 0 0 0 -2.426-2.426 2.426 2.426 0 1 0 0 4.853 2.429 2.429 0 0 0 2.426-2.427z" fill="#8f2626"/><path d="m659.942 123.501a1.732 1.732 0 1 0 -3.466 0 1.733 1.733 0 1 0 3.466 0z" fill="#dcbcbc"/><path d="m662.613 121.031a2.43 2.43 0 1 0 -4.86.007 2.43 2.43 0 0 0 4.86-.007z" fill="#8f2626"/><path d="m661.916 121.031c0-.957-.772-1.73-1.735-1.73-.958 0-1.73.773-1.73 1.73a1.732 1.732 0 1 0 3.465 0z" fill="#dcbcbc"/><path d="m664.588 125.966a2.43 2.43 0 0 0 -4.859 0 2.43 2.43 0 1 0 4.859 0z" fill="#8f2626"/><path d="m663.891 125.966c0-.958-.778-1.73-1.735-1.73-.958 0-1.73.772-1.73 1.73a1.732 1.732 0 1 0 3.465 0z" fill="#dcbcbc"/><path d="m675.441 127.941a2.429 2.429 0 0 0 -2.426-2.427 2.425 2.425 0 0 0 -2.426 2.427 2.426 2.426 0 1 0 4.852 0z" fill="#8f2626"/><path d="m674.75 127.941c0-.958-.778-1.736-1.735-1.736-.958 0-1.736.778-1.736 1.736a1.737 1.737 0 0 0 3.471 0z" fill="#dcbcbc"/><path d="m673.466 129.916a2.425 2.425 0 0 0 -2.426-2.427 2.429 2.429 0 0 0 -2.426 2.427 2.425 2.425 0 0 0 2.426 2.426 2.421 2.421 0 0 0 2.426-2.426z" fill="#8f2626"/><path d="m672.776 129.916c0-.958-.778-1.736-1.736-1.736a1.737 1.737 0 1 0 1.736 1.736z" fill="#dcbcbc"/><path d="m683.341 128.931a2.43 2.43 0 1 0 0 0z" fill="#8f2626"/><path d="m682.644 128.931c0-.958-.778-1.736-1.735-1.736a1.733 1.733 0 1 0 0 3.466c.957 0 1.735-.773 1.735-1.73z" fill="#dcbcbc"/><path d="m691.235 131.89a2.425 2.425 0 0 0 -2.427-2.426 2.426 2.426 0 1 0 0 4.853 2.429 2.429 0 0 0 2.427-2.427z" fill="#8f2626"/><path d="m690.539 131.89a1.733 1.733 0 1 0 -3.466 0 1.733 1.733 0 1 0 3.466 0z" fill="#dcbcbc"/><path d="m698.144 136.825a2.43 2.43 0 0 0 -4.858 0 2.426 2.426 0 0 0 2.432 2.426 2.425 2.425 0 0 0 2.426-2.426z" fill="#8f2626"/><path d="m697.448 136.825a1.733 1.733 0 1 0 -3.466 0 1.732 1.732 0 1 0 3.466 0z" fill="#dcbcbc"/><path d="m701.104 133.865a2.427 2.427 0 0 0 -4.853 0 2.425 2.425 0 1 0 4.853 0z" fill="#8f2626"/><path d="m700.413 133.865a1.737 1.737 0 1 0 -1.736 1.736c.958 0 1.736-.778 1.736-1.736z" fill="#dcbcbc"/><path d="m703.079 134.85a2.43 2.43 0 1 0 -2.427 2.432 2.43 2.43 0 0 0 2.427-2.432z" fill="#8f2626"/><path d="m702.382 134.85a1.732 1.732 0 1 0 -3.465 0 1.732 1.732 0 1 0 3.465 0z" fill="#dcbcbc"/><path d="m701.104 135.84a2.426 2.426 0 1 0 -4.853 0 2.425 2.425 0 1 0 4.853 0z" fill="#8f2626"/><path d="m700.413 135.84a1.737 1.737 0 0 0 -3.471 0c0 .958.778 1.73 1.735 1.73.958 0 1.736-.772 1.736-1.73z" fill="#dcbcbc"/><path d="m710.483 130.906a2.43 2.43 0 1 0 0 0z" fill="#8f2626"/><path d="m709.787 130.906a1.734 1.734 0 1 0 -3.468-.004 1.734 1.734 0 0 0 3.468.004z" fill="#dcbcbc"/><path d="m717.882 131.395a2.425 2.425 0 1 0 -4.853 0 2.427 2.427 0 1 0 4.853 0z" fill="#8f2626"/><path d="m717.191 131.395a1.737 1.737 0 0 0 -3.471 0c0 .958.778 1.736 1.736 1.736.957 0 1.735-.778 1.735-1.736z" fill="#dcbcbc"/><path d="m718.872 136.33a2.43 2.43 0 1 0 -4.86.006 2.43 2.43 0 0 0 4.86-.006z" fill="#8f2626"/><path d="m718.176 136.33c0-.958-.778-1.73-1.736-1.73a1.732 1.732 0 1 0 1.736 1.73z" fill="#dcbcbc"/><path d="m720.847 133.865a2.432 2.432 0 0 0 -2.432-2.432 2.43 2.43 0 0 0 0 4.859 2.43 2.43 0 0 0 2.432-2.427z" fill="#8f2626"/><path d="m720.151 133.865a1.737 1.737 0 1 0 -1.736 1.736c.958 0 1.736-.778 1.736-1.736z" fill="#dcbcbc"/><path d="m725.286 123.996a2.43 2.43 0 1 0 -4.859-.003 2.43 2.43 0 0 0 4.859.003z" fill="#8f2626"/><path d="m724.59 123.996a1.732 1.732 0 1 0 -3.465 0c0 .958.777 1.73 1.735 1.73s1.73-.772 1.73-1.73z" fill="#dcbcbc"/><path d="m729.236 116.592a2.426 2.426 0 0 0 -2.432-2.426 2.425 2.425 0 0 0 -2.426 2.426 2.428 2.428 0 0 0 4.858 0z" fill="#8f2626"/><path d="m728.54 116.592a1.736 1.736 0 1 0 -3.472.002 1.736 1.736 0 0 0 3.472-.002z" fill="#dcbcbc"/><path d="m727.751 109.188a2.425 2.425 0 1 0 -4.853 0 2.426 2.426 0 1 0 4.853 0z" fill="#8f2626"/><path d="m727.06 109.188c0-.958-.778-1.736-1.735-1.736-.958 0-1.736.778-1.736 1.736a1.737 1.737 0 0 0 3.471 0z" fill="#dcbcbc"/><path d="m730.716 119.057a2.43 2.43 0 1 0 -4.86.006 2.43 2.43 0 0 0 4.86-.006z" fill="#8f2626"/><path d="m730.02 119.057a1.73 1.73 0 0 0 -1.736-1.731c-.957 0-1.73.773-1.73 1.731a1.73 1.73 0 0 0 1.73 1.735 1.73 1.73 0 0 0 1.736-1.735z" fill="#dcbcbc"/><path d="m731.206 97.344a2.426 2.426 0 1 0 -4.853 0 2.427 2.427 0 0 0 4.853 0z" fill="#8f2626"/><path d="m730.515 97.344c0-.958-.778-1.736-1.736-1.736a1.737 1.737 0 1 0 1.736 1.736z" fill="#dcbcbc"/><path d="m733.676 93.4a2.43 2.43 0 1 0 -4.859 0 2.43 2.43 0 0 0 4.859 0z" fill="#8f2626"/><path d="m732.985 93.4c0-.963-.778-1.736-1.736-1.736a1.734 1.734 0 1 0 0 3.466c.958 0 1.736-.773 1.736-1.73z" fill="#dcbcbc"/><path d="m735.155 86.49a2.43 2.43 0 1 0 -4.86-.005 2.43 2.43 0 0 0 4.86.005z" fill="#8f2626"/><path d="m734.464 86.49a1.737 1.737 0 0 0 -3.471 0c0 .958.778 1.73 1.736 1.73.957 0 1.735-.772 1.735-1.73z" fill="#dcbcbc"/><path d="m732.691 82.54a2.426 2.426 0 0 0 -2.432-2.426 2.425 2.425 0 0 0 -2.426 2.426 2.429 2.429 0 0 0 4.858 0z" fill="#8f2626"/><path d="m731.994 82.54a1.737 1.737 0 0 0 -3.471 0c0 .958.778 1.736 1.736 1.736.957 0 1.735-.778 1.735-1.736z" fill="#dcbcbc"/><path d="m729.726 80.566a2.426 2.426 0 1 0 -4.853 0 2.425 2.425 0 0 0 2.426 2.426 2.422 2.422 0 0 0 2.427-2.426z" fill="#8f2626"/><path d="m729.035 80.566c0-.958-.778-1.736-1.736-1.736a1.737 1.737 0 1 0 1.736 1.736z" fill="#dcbcbc"/><path d="m735.65 75.631a2.428 2.428 0 0 0 -4.858 0 2.427 2.427 0 0 0 2.432 2.427 2.425 2.425 0 0 0 2.426-2.427z" fill="#8f2626"/><path d="m734.954 75.631a1.732 1.732 0 1 0 -3.465 0 1.733 1.733 0 1 0 3.465 0z" fill="#dcbcbc"/><path d="m730.716 67.242a2.426 2.426 0 0 0 -2.432-2.426 2.425 2.425 0 0 0 -2.426 2.426 2.428 2.428 0 0 0 4.858 0z" fill="#8f2626"/><path d="m730.02 67.242a1.734 1.734 0 1 0 -3.466 0 1.733 1.733 0 1 0 3.466 0z" fill="#dcbcbc"/><path d="m732.691 64.772a2.43 2.43 0 1 0 -4.86.007 2.43 2.43 0 0 0 4.86-.007z" fill="#8f2626"/><path d="m731.994 64.772c0-.957-.778-1.73-1.735-1.73a1.733 1.733 0 1 0 0 3.466c.957 0 1.735-.778 1.735-1.736z" fill="#dcbcbc"/><path d="m732.691 59.838a2.43 2.43 0 1 0 -4.86.006 2.43 2.43 0 0 0 4.86-.006z" fill="#8f2626"/><path d="m731.994 59.838c0-.958-.778-1.736-1.735-1.736-.958 0-1.736.778-1.736 1.736a1.737 1.737 0 0 0 3.471 0z" fill="#dcbcbc"/><path d="m728.741 52.439a2.43 2.43 0 1 0 -4.86-.005 2.43 2.43 0 0 0 4.86.005z" fill="#8f2626"/><path d="m728.045 52.439a1.733 1.733 0 1 0 -1.73 1.73c.957 0 1.73-.773 1.73-1.73z" fill="#dcbcbc"/><path d="m723.807 46.019a2.43 2.43 0 1 0 -4.86.007 2.43 2.43 0 0 0 4.86-.007z" fill="#8f2626"/><path d="m723.11 46.019c0-.958-.772-1.73-1.735-1.73-.958 0-1.73.772-1.73 1.73 0 .963.772 1.735 1.73 1.735.963 0 1.735-.772 1.735-1.735z" fill="#dcbcbc"/><path d="m723.807 48.984a2.43 2.43 0 1 0 0 0z" fill="#8f2626"/><path d="m723.11 48.984a1.732 1.732 0 1 0 -3.465 0c0 .958.772 1.73 1.73 1.73.963 0 1.735-.772 1.735-1.73z" fill="#dcbcbc"/><path d="m717.882 42.564a2.425 2.425 0 1 0 -4.853 0 2.427 2.427 0 1 0 4.853 0z" fill="#8f2626"/><path d="m717.191 42.564c0-.957-.778-1.73-1.735-1.73a1.733 1.733 0 1 0 0 3.466c.957 0 1.735-.773 1.735-1.736z" fill="#dcbcbc"/><path d="m713.938 32.695a2.43 2.43 0 1 0 -4.86.007 2.43 2.43 0 0 0 4.86-.007z" fill="#8f2626"/><path d="m713.241 32.695a1.732 1.732 0 1 0 -3.465 0 1.732 1.732 0 1 0 3.465 0z" fill="#dcbcbc"/><path d="m709.988 38.125a2.428 2.428 0 0 0 -4.858 0 2.426 2.426 0 0 0 2.432 2.426 2.425 2.425 0 0 0 2.426-2.426z" fill="#8f2626"/><path d="m709.292 38.125a1.733 1.733 0 1 0 -3.466 0 1.732 1.732 0 1 0 3.466 0z" fill="#dcbcbc"/><path d="m706.038 37.14a2.427 2.427 0 0 0 -4.853 0 2.426 2.426 0 1 0 4.853 0z" fill="#8f2626"/><path d="m705.347 37.14a1.737 1.737 0 0 0 -3.471 0c0 .958.778 1.73 1.736 1.73.957 0 1.735-.772 1.735-1.73z" fill="#dcbcbc"/><path d="m699.129 32.206a2.427 2.427 0 1 0 -4.853 0 2.425 2.425 0 1 0 4.853 0z" fill="#8f2626"/><path d="m698.438 32.206c0-.963-.778-1.736-1.736-1.736a1.734 1.734 0 1 0 0 3.466c.958 0 1.736-.773 1.736-1.73z" fill="#dcbcbc"/><path d="m693.21 30.231a2.43 2.43 0 0 0 -4.859 0 2.43 2.43 0 0 0 4.859 0z" fill="#8f2626"/><path d="m692.513 30.231a1.733 1.733 0 1 0 -3.465 0 1.732 1.732 0 1 0 3.465 0z" fill="#dcbcbc"/><path d="m685.805 35.66a2.426 2.426 0 1 0 -4.852 0 2.425 2.425 0 0 0 2.426 2.427 2.429 2.429 0 0 0 2.426-2.427z" fill="#8f2626"/><path d="m685.114 35.66c0-.963-.778-1.735-1.735-1.735a1.733 1.733 0 1 0 0 3.465c.957 0 1.735-.772 1.735-1.73z" fill="#dcbcbc"/><path d="m680.871 32.695a2.429 2.429 0 1 0 -4.857.005 2.429 2.429 0 0 0 4.857-.005z" fill="#8f2626"/><path d="m680.18 32.695a1.737 1.737 0 1 0 -1.736 1.736c.958 0 1.736-.778 1.736-1.736z" fill="#dcbcbc"/><path d="m668.532 37.336a2.421 2.421 0 0 0 -2.426-2.426 2.425 2.425 0 1 0 0 4.852 2.425 2.425 0 0 0 2.426-2.426z" fill="#8f2626"/><path d="m667.841 37.336a1.737 1.737 0 0 0 -3.471 0c0 .958.778 1.736 1.736 1.736.957 0 1.735-.778 1.735-1.736z" fill="#dcbcbc"/><path d="m683.341 33.686a2.43 2.43 0 1 0 0 0z" fill="#8f2626"/><path d="m682.644 33.686c0-.958-.778-1.736-1.735-1.736-.958 0-1.736.778-1.736 1.736a1.737 1.737 0 0 0 3.471 0z" fill="#dcbcbc"/><path d="m663.598 35.165a2.426 2.426 0 1 0 -4.853 0 2.425 2.425 0 0 0 2.426 2.427 2.429 2.429 0 0 0 2.427-2.427z" fill="#8f2626"/><path d="m662.907 35.165a1.737 1.737 0 1 0 -1.736 1.736c.958 0 1.736-.778 1.736-1.736z" fill="#dcbcbc"/><path d="m661.133 37.14a2.43 2.43 0 1 0 0 0z" fill="#8f2626"/><path d="m660.437 37.14a1.732 1.732 0 1 0 -1.736 1.73c.958 0 1.736-.772 1.736-1.73z" fill="#dcbcbc"/><path d="m656.199 42.075a2.43 2.43 0 1 0 0 0z" fill="#8f2626"/><path d="m655.502 42.075c0-.958-.778-1.736-1.735-1.736-.958 0-1.736.778-1.736 1.736a1.737 1.737 0 0 0 3.471 0z" fill="#dcbcbc"/><path d="m653.729 38.125a2.43 2.43 0 0 0 -4.859 0 2.426 2.426 0 0 0 2.432 2.426 2.425 2.425 0 0 0 2.427-2.426z" fill="#8f2626"/><path d="m653.032 38.125a1.732 1.732 0 1 0 -3.465 0 1.732 1.732 0 1 0 3.465 0z" fill="#dcbcbc"/><path d="m651.259 41.085a2.426 2.426 0 1 0 -4.853 0 2.426 2.426 0 1 0 4.853 0z" fill="#8f2626"/><path d="m650.568 41.085c0-.958-.778-1.731-1.736-1.731a1.733 1.733 0 1 0 0 3.466c.958 0 1.736-.778 1.736-1.735z" fill="#dcbcbc"/><path d="m648.794 39.11a2.429 2.429 0 1 0 -4.857.003 2.429 2.429 0 0 0 4.857-.003z" fill="#8f2626"/><path d="m648.098 39.11c0-.958-.773-1.73-1.73-1.73a1.732 1.732 0 1 0 0 3.465c.957 0 1.73-.772 1.73-1.735z" fill="#dcbcbc"/><path d="m641.885 38.125a2.429 2.429 0 0 0 -4.858 0 2.426 2.426 0 0 0 2.431 2.426 2.425 2.425 0 0 0 2.427-2.426z" fill="#8f2626"/><path d="m641.189 38.125a1.733 1.733 0 1 0 -3.466 0 1.733 1.733 0 1 0 3.466 0z" fill="#dcbcbc"/><path d="m633.991 43.059a2.43 2.43 0 1 0 -4.86.007 2.43 2.43 0 0 0 4.86-.007z" fill="#8f2626"/><path d="m633.294 43.059a1.736 1.736 0 1 0 -3.472.002 1.736 1.736 0 0 0 3.472-.002z" fill="#dcbcbc"/><path d="m628.066 40.1a2.425 2.425 0 0 0 -2.426-2.427 2.427 2.427 0 1 0 0 4.853 2.428 2.428 0 0 0 2.426-2.426z" fill="#8f2626"/><path d="m627.375 40.1c0-.958-.778-1.736-1.735-1.736-.958 0-1.736.778-1.736 1.736a1.737 1.737 0 0 0 3.471 0z" fill="#dcbcbc"/><path d="m621.652 38.125a2.428 2.428 0 0 0 -4.858 0 2.426 2.426 0 0 0 2.432 2.426 2.425 2.425 0 0 0 2.426-2.426z" fill="#8f2626"/><path d="m620.956 38.125a1.733 1.733 0 1 0 -3.466 0 1.734 1.734 0 1 0 3.466 0z" fill="#dcbcbc"/><path d="m618.692 36.15a2.43 2.43 0 1 0 -4.859.007 2.43 2.43 0 0 0 4.859-.007z" fill="#8f2626"/><path d="m617.996 36.15a1.733 1.733 0 1 0 -3.466 0 1.733 1.733 0 1 0 3.466 0z" fill="#dcbcbc"/><path d="m615.727 40.1a2.425 2.425 0 1 0 -2.426 2.426 2.425 2.425 0 0 0 2.426-2.426z" fill="#8f2626"/><path d="m615.036 40.1c0-.958-.778-1.736-1.735-1.736-.958 0-1.736.778-1.736 1.736a1.737 1.737 0 0 0 3.471 0z" fill="#dcbcbc"/><path d="m606.849 35.165a2.43 2.43 0 1 0 -2.432 2.427 2.43 2.43 0 0 0 2.432-2.427z" fill="#8f2626"/><path d="m606.152 35.165a1.737 1.737 0 0 0 -3.471 0c0 .958.778 1.736 1.736 1.736.957 0 1.735-.778 1.735-1.736z" fill="#dcbcbc"/><path d="m599.444 24.306a2.428 2.428 0 1 0 -4.857.005 2.428 2.428 0 0 0 4.857-.005z" fill="#8f2626"/><path d="m598.748 24.306a1.732 1.732 0 1 0 -3.466 0 1.733 1.733 0 1 0 3.466 0z" fill="#dcbcbc"/><path d="m592.04 25.296a2.426 2.426 0 1 0 -4.853 0 2.425 2.425 0 1 0 4.853 0z" fill="#8f2626"/><path d="m591.349 25.296a1.737 1.737 0 0 0 -3.471 0c0 .958.778 1.73 1.735 1.73.958 0 1.736-.772 1.736-1.73z" fill="#dcbcbc"/><path d="m585.626 18.387a2.43 2.43 0 1 0 -4.859 0 2.43 2.43 0 0 0 4.859 0z" fill="#8f2626"/><path d="m584.935 18.387a1.737 1.737 0 0 0 -3.471 0c0 .958.778 1.73 1.735 1.73.958 0 1.736-.772 1.736-1.73z" fill="#dcbcbc"/><path d="m582.666 20.362a2.43 2.43 0 1 0 -4.86-.005 2.43 2.43 0 0 0 4.86.005z" fill="#8f2626"/><path d="m581.97 20.362a1.73 1.73 0 0 0 -1.73-1.736 1.73 1.73 0 0 0 -1.736 1.736c0 .957.773 1.73 1.736 1.73.957 0 1.73-.773 1.73-1.73z" fill="#dcbcbc"/><path d="m577.236 16.412a2.425 2.425 0 0 0 -2.426-2.426 2.426 2.426 0 1 0 0 4.853 2.429 2.429 0 0 0 2.426-2.427z" fill="#8f2626"/><path d="m576.54 16.412a1.732 1.732 0 1 0 -3.465 0 1.732 1.732 0 1 0 3.465 0z" fill="#dcbcbc"/><path d="m574.767 11.478a2.427 2.427 0 1 0 -4.853 0 2.425 2.425 0 1 0 4.853 0z" fill="#8f2626"/><path d="m574.076 11.478c0-.958-.778-1.736-1.736-1.736a1.737 1.737 0 1 0 1.736 1.736z" fill="#dcbcbc"/><path d="m572.302 12.462a2.428 2.428 0 0 0 -4.858 0 2.427 2.427 0 0 0 2.432 2.427 2.425 2.425 0 0 0 2.426-2.427z" fill="#8f2626"/><path d="m571.606 12.462a1.732 1.732 0 1 0 -3.466 0 1.733 1.733 0 1 0 3.466 0z" fill="#dcbcbc"/><path d="m569.832 15.422a2.425 2.425 0 0 0 -2.426-2.426 2.429 2.429 0 0 0 0 4.858 2.426 2.426 0 0 0 2.426-2.432z" fill="#8f2626"/><path d="m569.141 15.422c0-.957-.778-1.73-1.735-1.73a1.733 1.733 0 1 0 0 3.466c.957 0 1.735-.778 1.735-1.736z" fill="#dcbcbc"/><path d="m567.368 10.488a2.43 2.43 0 1 0 -4.859.005 2.43 2.43 0 0 0 4.859-.005z" fill="#8f2626"/><path d="m566.671 10.488c0-.958-.772-1.73-1.73-1.73a1.733 1.733 0 1 0 1.73 1.73z" fill="#dcbcbc"/><path d="m559.963 5.553a2.425 2.425 0 1 0 -4.853 0 2.427 2.427 0 1 0 4.853 0z" fill="#8f2626"/><path d="m559.272 5.553a1.737 1.737 0 0 0 -3.471 0c0 .958.778 1.736 1.736 1.736.957 0 1.735-.778 1.735-1.736z" fill="#dcbcbc"/><path d="m552.564 10.488a2.43 2.43 0 1 0 -4.86.006 2.43 2.43 0 0 0 4.86-.006z" fill="#8f2626"/><path d="m551.868 10.488c0-.958-.778-1.73-1.736-1.73a1.732 1.732 0 1 0 0 3.465c.958 0 1.736-.778 1.736-1.735z" fill="#dcbcbc"/><path d="m548.614 12.462a2.428 2.428 0 0 0 -4.858 0 2.427 2.427 0 0 0 2.432 2.427 2.425 2.425 0 0 0 2.426-2.427z" fill="#8f2626"/><path d="m547.918 12.462a1.732 1.732 0 1 0 -3.465 0 1.733 1.733 0 1 0 3.465 0z" fill="#dcbcbc"/><path d="m551.079 13.453a2.426 2.426 0 1 0 -4.853 0 2.429 2.429 0 0 0 2.427 2.426 2.425 2.425 0 0 0 2.426-2.426z" fill="#8f2626"/><path d="m550.388 13.453c0-.958-.778-1.736-1.735-1.736a1.733 1.733 0 1 0 0 3.466c.957 0 1.735-.773 1.735-1.73z" fill="#dcbcbc"/><path d="m543.185 20.362a2.43 2.43 0 1 0 -4.86-.004 2.43 2.43 0 0 0 4.86.004z" fill="#8f2626"/><path d="m542.494 20.362c0-.963-.778-1.736-1.736-1.736a1.734 1.734 0 1 0 0 3.466c.958 0 1.736-.773 1.736-1.73z" fill="#dcbcbc"/><path d="m540.225 22.826a2.43 2.43 0 0 0 -4.858 0 2.425 2.425 0 0 0 2.426 2.427 2.427 2.427 0 0 0 2.432-2.427z" fill="#8f2626"/><path d="m539.529 22.826a1.734 1.734 0 1 0 -3.466 0 1.733 1.733 0 1 0 3.466 0z" fill="#dcbcbc"/><path d="m535.291 30.231a2.43 2.43 0 1 0 0 0z" fill="#8f2626"/><path d="m534.595 30.231a1.732 1.732 0 1 0 -3.466 0c0 .957.772 1.735 1.73 1.735s1.736-.778 1.736-1.735z" fill="#dcbcbc"/><path d="m538.25 37.14a2.43 2.43 0 1 0 -4.86-.005 2.43 2.43 0 0 0 4.86.005z" fill="#8f2626"/><path d="m537.554 37.14a1.732 1.732 0 1 0 -3.465 0c0 .958.778 1.73 1.735 1.73.958 0 1.73-.772 1.73-1.73z" fill="#dcbcbc"/><path d="m539.235 40.1a2.422 2.422 0 0 0 -2.426-2.427 2.426 2.426 0 1 0 0 4.853 2.425 2.425 0 0 0 2.426-2.426z" fill="#8f2626"/><path d="m538.544 40.1c0-.958-.778-1.736-1.735-1.736-.958 0-1.736.778-1.736 1.736a1.737 1.737 0 0 0 3.471 0z" fill="#dcbcbc"/><path d="m536.276 42.564a2.43 2.43 0 1 0 -2.427 2.432 2.43 2.43 0 0 0 2.427-2.432z" fill="#8f2626"/><path d="m535.585 42.564c0-.957-.778-1.73-1.736-1.73a1.732 1.732 0 1 0 0 3.466c.958 0 1.736-.773 1.736-1.736z" fill="#dcbcbc"/><path d="m534.301 49.969a2.425 2.425 0 1 0 -4.853 0 2.422 2.422 0 0 0 2.426 2.426 2.425 2.425 0 0 0 2.427-2.426z" fill="#8f2626"/><path d="m533.61 49.969c0-.958-.778-1.736-1.736-1.736a1.737 1.737 0 1 0 1.736 1.736z" fill="#dcbcbc"/><path d="m538.25 54.903a2.428 2.428 0 1 0 -4.857.005 2.428 2.428 0 0 0 4.857-.005z" fill="#8f2626"/><path d="m537.554 54.903a1.732 1.732 0 1 0 -3.465 0 1.732 1.732 0 1 0 3.465 0z" fill="#dcbcbc"/><path d="m537.266 59.838a2.43 2.43 0 1 0 -4.86.006 2.43 2.43 0 0 0 4.86-.006z" fill="#8f2626"/><path d="m536.569 59.838c0-.958-.778-1.736-1.735-1.736-.958 0-1.736.778-1.736 1.736a1.737 1.737 0 0 0 3.471 0z" fill="#dcbcbc"/><path d="m535.291 67.737a2.43 2.43 0 1 0 0 0z" fill="#8f2626"/><path d="m534.595 67.737c0-.957-.778-1.735-1.736-1.735s-1.73.778-1.73 1.735c0 .958.772 1.73 1.73 1.73s1.736-.772 1.736-1.73z" fill="#dcbcbc"/><path d="m532.821 70.697a2.425 2.425 0 0 0 -2.426-2.427 2.427 2.427 0 1 0 0 4.853 2.428 2.428 0 0 0 2.426-2.426z" fill="#8f2626"/><path d="m532.13 70.697c0-.958-.778-1.736-1.735-1.736-.958 0-1.736.778-1.736 1.736a1.737 1.737 0 0 0 3.471 0z" fill="#dcbcbc"/><path d="m538.25 71.681a2.428 2.428 0 1 0 -4.857.005 2.428 2.428 0 0 0 4.857-.005z" fill="#8f2626"/><path d="m537.554 71.681a1.732 1.732 0 1 0 -1.73 1.736c.958 0 1.73-.778 1.73-1.736z" fill="#dcbcbc"/><path d="m533.316 75.631a2.428 2.428 0 0 0 -4.858 0 2.427 2.427 0 0 0 2.432 2.427 2.425 2.425 0 0 0 2.426-2.427z" fill="#8f2626"/><path d="m532.62 75.631a1.732 1.732 0 1 0 -3.466 0 1.734 1.734 0 1 0 3.466 0z" fill="#dcbcbc"/><path d="m537.266 82.54a2.426 2.426 0 0 0 -2.432-2.426 2.426 2.426 0 1 0 0 4.853 2.43 2.43 0 0 0 2.432-2.427z" fill="#8f2626"/><path d="m536.569 82.54a1.737 1.737 0 0 0 -3.471 0c0 .958.778 1.736 1.736 1.736.957 0 1.735-.778 1.735-1.736z" fill="#dcbcbc"/><path d="m533.316 88.46a2.429 2.429 0 1 0 -4.857.003 2.429 2.429 0 0 0 4.857-.003z" fill="#8f2626"/><path d="m532.62 88.46c0-.958-.773-1.73-1.73-1.73-.963 0-1.736.772-1.736 1.73a1.73 1.73 0 0 0 1.736 1.735c.957 0 1.73-.772 1.73-1.735z" fill="#dcbcbc"/><path d="m536.276 90.435a2.429 2.429 0 1 0 -4.858.004 2.429 2.429 0 0 0 4.858-.004z" fill="#8f2626"/><path d="m535.585 90.435c0-.958-.778-1.731-1.736-1.731a1.733 1.733 0 1 0 0 3.466c.958 0 1.736-.778 1.736-1.735z" fill="#dcbcbc"/><path d="m535.291 98.334a2.43 2.43 0 1 0 0 0z" fill="#8f2626"/><path d="m534.595 98.334a1.732 1.732 0 1 0 -3.466 0c0 .957.772 1.73 1.73 1.73s1.736-.773 1.736-1.73z" fill="#dcbcbc"/><path d="m539.235 104.253a2.425 2.425 0 0 0 -2.426-2.426 2.429 2.429 0 0 0 0 4.858 2.426 2.426 0 0 0 2.426-2.432z" fill="#8f2626"/><path d="m538.544 104.253a1.737 1.737 0 0 0 -3.471 0c0 .958.778 1.736 1.736 1.736.957 0 1.735-.778 1.735-1.736z" fill="#dcbcbc"/><path d="m540.225 107.213a2.43 2.43 0 1 0 -4.86.006 2.43 2.43 0 0 0 4.86-.006z" fill="#8f2626"/><path d="m539.529 107.213c0-.958-.773-1.73-1.736-1.73-.957 0-1.73.772-1.73 1.73 0 .963.773 1.735 1.73 1.735a1.73 1.73 0 0 0 1.736-1.735z" fill="#dcbcbc"/><path d="m538.25 110.178a2.43 2.43 0 1 0 -4.86-.005 2.43 2.43 0 0 0 4.86.005z" fill="#8f2626"/><path d="m537.554 110.178a1.732 1.732 0 1 0 -3.465 0 1.732 1.732 0 1 0 3.465 0z" fill="#dcbcbc"/><path d="m542.2 117.087a2.43 2.43 0 1 0 0 0z" fill="#8f2626"/><path d="m541.504 117.087a1.737 1.737 0 0 0 -3.471 0c0 .958.778 1.73 1.735 1.73.958 0 1.736-.772 1.736-1.73z" fill="#dcbcbc"/><path d="m552.069 119.057a2.43 2.43 0 1 0 -4.86.006 2.43 2.43 0 0 0 4.86-.006z" fill="#8f2626"/><path d="m551.373 119.057a1.73 1.73 0 0 0 -1.736-1.731c-.957 0-1.73.773-1.73 1.731a1.73 1.73 0 0 0 1.73 1.735 1.73 1.73 0 0 0 1.736-1.735z" fill="#dcbcbc"/><path d="m557.004 123.006a2.43 2.43 0 0 0 -4.859 0 2.427 2.427 0 0 0 2.432 2.427 2.426 2.426 0 0 0 2.427-2.427z" fill="#8f2626"/><path d="m556.307 123.006a1.732 1.732 0 1 0 -3.465 0 1.732 1.732 0 1 0 3.465 0z" fill="#dcbcbc"/><path d="m558.978 119.057a2.43 2.43 0 1 0 -4.86.005 2.43 2.43 0 0 0 4.86-.005z" fill="#8f2626"/><path d="m558.282 119.057a1.733 1.733 0 0 0 -3.465 0 1.733 1.733 0 0 0 3.465 0z" fill="#dcbcbc"/></g><path d="m544.903 188.15v106.416h205.097" fill="none" stroke="#000" stroke-miterlimit="3.8" stroke-width="1.39"/><path d="m544.903 197.809h2.062l2.096.03 2.062.048 2.068.048 2.062.078 2.096.102 2.061.126 2.062.15 2.069.173 2.088.228 2.069.3 2.062.353 2.061.432 2.096.527 2.062.629 2.068.803 2.062.935 2.089 1.156 2.069 1.385 2.061 1.659 2.096 1.96 2.062 2.295 2.061 2.643 2.069 3.014 2.089 3.427 2.068 3.775 2.062 4.099 2.062 4.356 2.096 4.579 2.061 4.655 2.069 4.68 2.062 4.579 2.095 4.404 2.062 4.152 2.062 3.824 2.068 3.499 2.089 3.122 2.069 2.792 2.061 2.415 2.096 2.116 2.062 1.809 2.062 1.558 2.068 1.312 2.089 1.109 2.069.953 2.061.779 2.062.683 2.096.551 2.061.48 2.069.401 2.062.33 2.089.299 2.068.228 2.062.228 2.068.173 2.089.15 2.062.126 2.069.126 2.061.102 2.096.102 2.062.072 2.061.077 2.096.078 2.062.048 2.068.078 2.062.048 2.096.048 2.062.054 2.061.024 2.069.048 2.089.054 2.068.024 2.062.048 2.062.03 2.095.048 2.062.024 2.069.024 2.061.054 2.096.024 4.124.047 2.095.03 2.062.048 2.069.024 2.061.024 2.089.03 2.069.024 2.061.024 2.069.024 2.089.024 2.062.03 2.068.024 2.062.024 2.096.024 2.061.024 2.062.03 2.068.024 2.089.024h2.069" fill="none" stroke="#000" stroke-miterlimit="3.8" stroke-width="1.39"/><path d="m544.903 188.15v106.416h205.097" fill="none" stroke="#000" stroke-miterlimit="3.8" stroke-width="1.39"/><path d="m637.633 313.769c0 .863.144.671-1.103.719v.839h3.955v-.839c-1.222-.048-1.102.12-1.102-.719v-5.009c0-.839-.144-.671 1.102-.719v-.839h-3.955v.839c1.271.072 1.103-.12 1.103.719z" fill-rule="nonzero"/><path d="m643.273 309.599h-.839v-.983c0-.12-.311-.479-.527-.479-.144.215-.216.311-.288.431-.431.623-.695 1.055-1.006 1.127-.216.167-.384.455-.384.503s.12.287.288.407h.359v3.092c0 .935.648 1.75 1.319 1.75.551 0 1.198-.359 1.749-1.246l-.575-.48c-.407.48-.383.504-.647.504-.407 0-.288 0-.288-.719v-2.901h1.151v-1.006z" fill-rule="nonzero"/><path d="m647.955 312.93c-.551.863-.815 1.103-1.558 1.103-.623 0-.91-.24-1.438-1.294.072.191 0-.168 0-.552h3.5c-.12-1.054-.336-1.582-.623-1.941-.336-.408-1.055-.767-1.654-.767-.552 0-1.295.311-1.726.695-.527.479-.935 1.486-.935 2.421 0 1.558 1.127 2.852 2.421 2.852 1.079 0 2.229-.983 2.756-2.373l-.671-.287zm-2.996-1.414c.12-.887.216-.983.911-.983s.647 0 .743.672h-1.606z" fill-rule="nonzero"/><path d="m648.645 310.917c.168-.024.263-.048.407-.048.288 0 .072-.144.072.36v2.828c0 .575.24.335-.791.527v.743h3.308v-.791c-1.055-.048-.959.096-.959-.551v-2.541c0-.359.192-.599.503-.599.048 0-.047-.048.072.072.168.168.528.312.671.312.264 0 .72-.504.72-.815 0-.384-.528-.935-.911-.935-.48 0-1.007.383-1.558 1.174l.503.216v-1.222l-.359-.168c-.6.263-1.007.407-1.966.719v.791zm8.492 3.14c-.191.144-.119.096-.287.096-.264 0-.048.168-.048-.336v-2.205c0-.575-.144-1.127-.312-1.39-.263-.408-.934-.743-1.606-.743-1.078 0-2.205.887-2.205 1.606 0 .239.528.791.791.791.264 0 .791-.552.791-.791 0-.048 0-.096-.024-.192s-.024-.192-.024-.264c0-.311.072-.239.528-.239.551 0 .551.024.551.623v.503c-1.438.575-1.846.767-2.349 1.199-.24.215-.48.815-.48 1.198 0 .719.791 1.534 1.487 1.534.503 0 1.174-.335 1.414-.527 0-.024.503.527.959.527.383 0 .838-.24 1.318-.767v-1.055zm-1.845-.432c0 .336.024.24-.216.36-.264.168-.359.168-.599.168-.408 0-.432-.072-.432-.552v-.047c0-.672.168-.767 1.247-1.151zm4.956-4.026h-.839v-.983c0-.12-.312-.479-.528-.479-.143.215-.215.311-.287.431-.432.623-.695 1.055-1.007 1.127-.216.167-.383.455-.383.503s.119.287.287.407h.36v3.092c0 .935.647 1.75 1.318 1.75.551 0 1.199-.359 1.75-1.246l-.575-.48c-.408.48-.384.504-.648.504-.407 0-.287 0-.287-.719v-2.901h1.15v-1.006z" fill-rule="nonzero"/><path d="m662.509 309.479-2.061.743v.743l.383-.072c.144 0 .288-.024.384-.024.287 0 .071-.144.071.36v2.636c0 .815.192.623-.886.671v.791h3.283v-.791c-1.054-.072-.839.144-.839-.671v-4.17l-.287-.216zm-.551-2.517c-.288 0-.863.575-.863.887 0 .335.551.911.863.911.335 0 .886-.576.886-.911 0-.312-.551-.887-.886-.887zm4.538 2.517c-1.462 0-2.805 1.414-2.805 2.972 0 1.534 1.367 2.996 2.781 2.996 1.438 0 2.804-1.534 2.804-3.092 0-1.462-1.342-2.876-2.78-2.876zm-.144.959c.959 0 1.318.767 1.318 2.325 0 1.27-.215 1.725-1.054 1.725-.456 0-.671-.167-.911-.623-.312-.575-.408-1.174-.408-1.965 0-1.079.24-1.462 1.055-1.462z" fill-rule="nonzero"/><path d="m669.713 310.725c.072-.024-.024.048.096.048.335 0 .12-.144.12.408v2.804c0 .647.191.503-.695.551v.791h2.996v-.791c-.887-.048-.743.12-.743-.287v-3.02c.455-.432.479-.48.862-.48.552 0 .528.024.528.767v2.373c0 .719.144.599-.719.647v.791h2.948v-.767c-.839-.096-.695.096-.695-.455v-2.613c0-1.054-.791-2.013-1.63-2.013-.503 0-1.079.311-1.342.551v-.431l-.36-.12c-.551.216-.935.335-1.869.599v.911zm-156.088-36.158c-.216 0-.504 0-.504.288 0 .312.288.312.504.312h7.861c.216 0 .528 0 .528-.288 0-.312-.288-.312-.528-.312z" fill-rule="nonzero"/><path d="m521.878 274.567c-.216 0-.504 0-.504.288 0 .312.288.312.504.312h7.861c.216 0 .528 0 .528-.288 0-.312-.288-.312-.528-.312z" fill-rule="nonzero"/><path d="m530.131 274.567c-.216 0-.504 0-.504.288 0 .312.288.312.504.312h7.861c.216 0 .528 0 .528-.288 0-.312-.288-.312-.528-.312zm-5.507-5.623c0-.336 0-1.007.288-1.486.431-.647 1.174-.719 1.246-.719.192 0 .384 0 .384-.24s-.192-.24-.432-.24h-3.739c-.216 0-.432 0-.432.24s.192.24.312.24c1.774.096 1.87 1.486 1.87 2.205h-2.901c-.91 0-.91-.264-.91-.575v-.671c0-1.846.958-2.781 1.893-2.853.12-.024.312-.024.312-.263 0-.216-.216-.216-.456-.216h-1.773c-.432 0-.456.024-.456.455v7.023c0 .264 0 .48.24.48s.24-.264.24-.384c0-.767.095-.839.791-.839h6.879c.647 0 .791.048.791.791 0 .192 0 .432.239.432.24 0 .24-.216.24-.48v-7.286c0-.264 0-.384-.192-.432-.024-.024-2.301-.407-2.373-.407-.167 0-.263.12-.263.239 0 .192.191.24.191.24.36.096.935.216 1.534 1.223.432.719.624 1.438.624 2.181v.767c0 .311 0 .575-.935.575zm-4.314-4.099h.647c-.24.216-.48.48-.647.767zm4.026 2.685c-.095-.24-.311-.527-.599-.791h1.175c-.384.335-.552.767-.552.791zm-3.283 3.092c-.144 0-.504 0-.743.12v-1.462c.311.143.767.143.886.143h6.688c.479 0 .767-.095.887-.143v1.462c-.24-.12-.6-.12-.767-.12zm7.718-5.106h-.024c-.216-.455-.504-.814-.743-1.102.048.024.647.12.767.144zm3.931-5.766h-.6v1.342h-12.583v-1.342h-.6v1.941h13.783zm-8.965-5.485v-1.223c0-.287 0-.431-.24-.431-.167 0-.167.144-.167.407v1.175c-.839-.144-1.966-.336-2.709-.528-.527-.119-.719-.455-.719-.719 0-.096.024-.407.192-.647.048.288.288.671.743.671.359 0 .503-.263.503-.503 0-.384-.311-.767-.815-.767-.623 0-.982.599-.982 1.246 0 .624.455 1.247 1.006 1.534.6.312 1.127.408 2.781.695v.983c0 .264 0 .432.239.432.168 0 .168-.168.168-.408v-.935c2.014.384 4.746.863 6.184 1.175.767.168 1.798.383 1.798 1.031 0 .215-.072.503-.192.623-.048-.336-.335-.671-.743-.671-.359 0-.503.263-.503.503 0 .383.311.767.815.767.647 0 .982-.623.982-1.222 0-1.391-2.301-2.038-3.475-2.254zm8.965-5.457h-13.783v1.941h.6v-1.342h12.583v1.342h.6zm-6.592-14.092c0-.264 0-.527-.311-.527-.288 0-.288.287-.288.527v7.574c0 .24 0 .527.288.527.311 0 .311-.263.311-.527zm-10.029-11.408 1.846 1.917.287-.263-1.39-1.654 1.39-1.63-.287-.24zm7.656 1.395v-1.223c0-.287 0-.431-.24-.431-.167 0-.167.144-.167.407v1.175c-.839-.144-1.966-.336-2.709-.528-.527-.12-.719-.455-.719-.719 0-.096.024-.407.192-.647.048.288.288.671.743.671.359 0 .503-.263.503-.503 0-.384-.311-.767-.815-.767-.623 0-.982.599-.982 1.246 0 .623.455 1.247 1.006 1.534.6.312 1.127.408 2.781.695v.983c0 .264 0 .432.239.432.168 0 .168-.168.168-.408v-.935c2.014.384 4.746.863 6.184 1.175.767.168 1.798.383 1.798 1.03 0 .216-.072.504-.192.624-.048-.336-.335-.672-.743-.672-.359 0-.503.264-.503.504 0 .383.311.767.815.767.647 0 .982-.623.982-1.223 0-1.39-2.301-2.037-3.475-2.253zm-10.112-5.865c-.216 0-.504 0-.504.288 0 .311.288.311.504.311h7.861c.216 0 .528 0 .528-.287 0-.312-.288-.312-.528-.312z" fill-rule="nonzero"/><path d="m521.878 218.838c-.216 0-.504 0-.504.288 0 .311.288.311.504.311h7.861c.216 0 .528 0 .528-.287 0-.312-.288-.312-.528-.312z" fill-rule="nonzero"/><path d="m530.131 218.838c-.216 0-.504 0-.504.288 0 .311.288.311.504.311h7.861c.216 0 .528 0 .528-.287 0-.312-.288-.312-.528-.312zm123.967 118.531c0-.065-.044-.108-.109-.195-1.611-1.48-2.111-3.722-2.111-5.92 0-1.915.37-4.265 2.133-5.941.065-.065.087-.087.087-.152a.15.15 0 0 0 -.153-.152c-.152 0-1.284.914-1.958 2.263-.588 1.197-.892 2.503-.892 3.982 0 .893.108 2.329.805 3.787.74 1.545 1.893 2.459 2.045 2.459.087 0 .153-.044.153-.131zm5.274-7.899c-.261.065-.522.239-.522.588 0 .326.261.587.587.587.327 0 .588-.218.588-.609 0-.762-.871-1.241-1.98-1.241-1.589 0-2.786 1.328-2.786 2.895 0 1.61 1.284 2.829 2.764 2.829 1.741 0 2.132-1.502 2.132-1.611 0-.152-.13-.152-.174-.152-.13 0-.13.022-.217.239-.283.849-.98 1.175-1.611 1.175-.805 0-1.828-.652-1.828-2.502 0-1.937 1.001-2.524 1.741-2.524.174 0 .849.021 1.306.326zm4.876 1.784c0-1.022-.152-2.393-.805-3.786-.74-1.545-1.893-2.459-2.046-2.459-.13 0-.152.109-.152.152 0 .065.022.087.109.174.74.653 2.111 2.35 2.111 5.919 0 1.785-.327 4.266-2.133 5.963-.022.022-.087.087-.087.152 0 .022.022.131.152.131.153 0 1.284-.892 1.959-2.263.588-1.197.892-2.481.892-3.983z" fill-rule="nonzero"/></svg>