<svg clip-rule="evenodd" fill-rule="evenodd" stroke-miterlimit="10" viewBox="0 0 1000 300" xmlns="http://www.w3.org/2000/svg" xmlns:xlink="http://www.w3.org/1999/xlink"><radialGradient id="a" cx="141.975" cy="140.025" gradientUnits="userSpaceOnUse" r="59.9749"><stop offset="0" stop-color="#fff" stop-opacity="0"/><stop offset=".58" stop-color="#ffe3e3" stop-opacity=".133333"/><stop offset=".74" stop-color="#ff9494" stop-opacity=".517647"/><stop offset=".87" stop-color="#ff3131"/><stop offset=".87" stop-color="#ff1a1a"/><stop offset=".88" stop-color="#ff0707"/><stop offset=".88" stop-color="#f00"/><stop offset=".9" stop-color="#840000" stop-opacity=".517647"/><stop offset=".92" stop-color="#200" stop-opacity=".133333"/><stop offset="1" stop-opacity="0"/></radialGradient><circle cx="141.975" cy="140.025" fill="url(#a)" r="59.975" transform="matrix(4.7210069586 0 -.01810729364 2.0728285456 -167.7302171 -111.26072962)"/><path d="m-11.627-11.627h23.254" fill="none" stroke="#dcbcbc" stroke-dasharray="2.55 2.55" stroke-width="1.7" transform="matrix(0 2.3285295496 2.3679925118 0 564.79776878 233.29693848)"/><path d="m4.384 0-7.014-3.507 2.63 3.507-2.63 3.507" fill="#dcbcbc" fill-rule="nonzero" transform="matrix(0 2.3285295496 -2.3679925118 0 537.26412884 260.3716279)"/><path d="m35.499 66.681h23.963" fill="none" stroke="#dcbcbc" stroke-dasharray="2.55 2.55" stroke-width="1.7" transform="matrix(0 2.3285295496 2.3679925118 0 491.79863644 -59.605509468)"/><path d="m4.384 0-7.014-3.507 2.63 3.507-2.63 3.507" fill="#dcbcbc" fill-rule="nonzero" transform="matrix(0 2.3285295496 -2.3679925118 0 649.6990933 78.854323358)"/><ellipse cy="-31.181" fill="#dcbcbc" rx="1.993" ry="1.993" transform="matrix(0 -2.3285295496 -2.3679925118 0 463.42735528 278.82912566)"/><path d="m-3.736 38.958c39.399-58.905 111.563-78.843 92.797 0" fill="none" stroke="#0f0" stroke-width="1.72" transform="matrix(1.3165097404 -1.9354825156 -1.968287304 -1.2945682882 618.86462696 322.03264764)"/><path d="m4.384 0-7.014-3.507 2.63 3.507-2.63 3.507" fill="#0f0" fill-rule="nonzero" transform="matrix(-2.2208683488 -.81170034184 .82545755324 -2.183858398 659.43427034 99.22064833)"/><circle fill="#8f2727" r="1.993" transform="matrix(0 -2.3285295496 -2.3679925118 0 537.26412884 206.22337948)"/><path d="m-15.449 77.96c50.309-51.884 158.459-49.62 95.294 0" fill="none" stroke="#8f2727" stroke-width="1.72" transform="matrix(1.2829927874 -1.9571300586 -1.9902965814 -1.2616165452 712.250884 274.34248868)"/><path d="m4.384 0-7.014-3.507 2.63 3.507-2.63 3.507" fill="#8f2727" fill-rule="nonzero" transform="matrix(-2.241961986 .7608913541 -.77378831588 -2.204601605 659.52696478 19.720018402)"/></svg>