<svg viewBox="0 0 750 375" xmlns="http://www.w3.org/2000/svg" fill-rule="evenodd" clip-rule="evenodd" stroke-miterlimit="3.8"><path fill="none" stroke="#000" stroke-width="1.88px" d="M91.487 1.974H658.512V332.748H91.487z"/><path fill="#ededed" d="M247.41 2.032H474.25800000000004V332.74699999999996H247.41z"/><text x="121.113" y="265.624" font-family="'ArialMT', 'Arial', sans-serif" font-size="24.017px" fill="#0017c3">π(q)</text><text x="431.665" y="57.203" font-family="'ArialMT', 'Arial', sans-serif" font-size="24.017px" fill="#e4c900">dq</text><text x="479.866" y="280.407" font-family="'ArialMT', 'Arial', sans-serif" font-size="24.017px" fill="#da0000">π(q) dq</text><text x="264.529" y="295.644" font-family="'ArialMT', 'Arial', sans-serif" font-size="7.68px" transform="translate(-512.548 -559.672) scale(3.12721)">|q - q</text><text x="281.891" y="298.794" font-family="'ArialMT', 'Arial', sans-serif" font-size="7.68px" transform="translate(-512.548 -559.672) scale(3.12721)">mode</text><text x="301.102" y="295.644" font-family="'ArialMT', 'Arial', sans-serif" font-size="7.68px" transform="translate(-512.548 -559.672) scale(3.12721)">|</text><text x="112.649" y="54.189" font-family="'ArialMT', 'Arial', sans-serif" font-size="24.017px">Ty<tspan x="139.328" y="54.189">p</tspan>ical Set</text><path d="M97.21 329.745h51.599l5.723-.057h5.723l5.723-.058 5.722-.115 5.723-.173 5.723-.231 5.723-.404 5.722-.577 5.723-.865 5.723-1.096 5.723-1.557 5.723-2.019 5.722-2.537 5.723-3.288 5.723-3.922 5.723-4.787 5.723-5.653 5.722-6.575 5.723-7.498 5.817-8.421 5.723-9.229 5.722-10.093 5.723-10.728 5.723-11.247 5.723-11.651 5.722-11.766 5.723-11.767 5.723-11.478 5.723-10.958 5.723-10.267 5.722-9.286 5.723-8.19 5.723-6.922 5.723-5.479 5.723-3.922 5.722-2.365 5.723-.75 5.723.866 5.723 2.422 5.816 3.864 5.723 5.191 5.723 6.345 5.723 7.44 5.722 8.306 5.723 8.998 5.723 9.516 5.723 9.806 11.445 20.072 5.723 9.862 5.723 9.69 5.723 9.286 5.723 8.825 5.722 8.363 5.723 7.844 5.723 7.21 5.723 6.633 5.722 5.999 5.723 5.421 5.817 4.845 5.723 4.326 5.722 3.807 5.723 3.287 5.723 2.884 5.723 2.48 5.723 2.134 5.722 1.788 5.723 1.558 5.723 1.269 5.723 1.038 5.723.923 5.722.692 5.723.634 5.723.462 5.723.403 11.445.577 11.446.346 5.816.116 5.723.115 17.169.173h5.722l5.723.058h17.169" fill="none" stroke="#da0000" stroke-width="4.5px"/><path d="M91.487 329.745h108.827l5.723-.058h11.446l5.722-.057 5.723-.058 5.723-.058 5.723-.116 5.723-.116 5.722-.174 5.723-.231 5.817-.348 5.723-.405 5.722-.522 5.723-.695 5.723-.868 5.723-1.101 5.722-1.39 5.723-1.738 5.723-2.201 5.723-2.664 5.723-3.244 5.722-3.996 5.723-4.865 5.723-5.85 5.723-7.125 5.723-8.456 5.722-10.136 5.723-12.047 5.723-14.307 5.723-16.913 5.816-19.866 5.723-23.342 5.723-27.281 5.723-31.856 5.722-37.011 2.552-19.14 3.171-23.779 5.254-45.757" fill="none" stroke="#e4c900" stroke-width="4.5px"/><path d="M91.487 277.208l5.723.076h5.723l17.168.229 17.169.457 5.723.228 5.816.229 11.446.457 17.168.914 28.614 1.904 17.168 1.37 11.446 1.066 5.723.457 5.723.534 5.722.609 5.723.533 5.817.609 5.723.533 11.445 1.219 5.723.685 11.445 1.219 11.446 1.37 5.723.61 40.059 4.797 5.723.762 11.446 1.371 5.816.685 5.723.686 5.723.761 57.228 6.854 5.723.609 5.722.686 5.723.609 5.723.685 17.168 1.828 5.817.609 11.445 1.219 5.723.533 5.723.609 11.446 1.066 5.722.61 5.723.533 5.723.457 11.446 1.066 11.445.914 5.723.533 11.445.914 5.723.38 11.446.914 5.816.381 28.614 1.904 5.723.305 5.723.38 11.446.61" fill="none" stroke="#0017c3" stroke-width="4.5px"/><path fill="none" stroke="#000" stroke-width="1.5px" d="M91.487 1.974H658.512V332.748H91.487z"/><path d="M154.346 58.832l1.295-2.1 106.176 65.473 1.203-1.951 1.15 4.851-4.85 1.151 1.202-1.951-106.176-65.473z"/></svg>