<?xml version="1.0" encoding="UTF-8" standalone="no"?><!DOCTYPE svg PUBLIC "-//W3C//DTD SVG 1.1//EN" "http://www.w3.org/Graphics/SVG/1.1/DTD/svg11.dtd"><svg width="100%" height="100%" viewBox="0 0 2100 863" version="1.1" xmlns="http://www.w3.org/2000/svg" xmlns:xlink="http://www.w3.org/1999/xlink" xml:space="preserve" xmlns:serif="http://www.serif.com/" style="fill-rule:evenodd;clip-rule:evenodd;stroke-miterlimit:10;"><g><clipPath id="_clip1"><rect x="0" y="0" width="656.457" height="547.048" clip-rule="nonzero"/></clipPath><g clip-path="url(#_clip1)"><path d="M54.705,273.524c0,-410.286 136.762,-136.762 273.524,-136.762c136.762,0 273.523,-82.057 273.523,136.762c0,218.819 -136.761,82.057 -273.523,82.057c-136.762,0 -273.524,54.705 -273.524,-82.057" style="fill:none;stroke:#8f2727;stroke-width:0.63px;"/><path d="M54.705,273.524c0,-410.286 136.762,-136.762 273.524,-136.762c136.762,0 273.523,-82.057 273.523,136.762c0,218.819 -136.761,82.057 -273.523,82.057c-136.762,0 -273.524,54.705 -273.524,-82.057" style="fill:none;stroke:#8f2727;stroke-opacity:0.670588;stroke-width:9.34px;"/><path d="M54.705,273.524c0,-410.286 136.762,-136.762 273.524,-136.762c136.762,0 273.523,-82.057 273.523,136.762c0,218.819 -136.761,82.057 -273.523,82.057c-136.762,0 -273.524,54.705 -273.524,-82.057" style="fill:none;stroke:#8f2727;stroke-opacity:0.45098;stroke-width:18.68px;"/><path d="M54.705,273.524c0,-410.286 136.762,-136.762 273.524,-136.762c136.762,0 273.523,-82.057 273.523,136.762c0,218.819 -136.761,82.057 -273.523,82.057c-136.762,0 -273.524,54.705 -273.524,-82.057" style="fill:none;stroke:#8f2727;stroke-opacity:0.301961;stroke-width:28.02px;"/><path d="M54.705,273.524c0,-410.286 136.762,-136.762 273.524,-136.762c136.762,0 273.523,-82.057 273.523,136.762c0,218.819 -136.761,82.057 -273.523,82.057c-136.762,0 -273.524,54.705 -273.524,-82.057" style="fill:none;stroke:#8f2727;stroke-opacity:0.2;stroke-width:37.36px;"/><path d="M54.705,273.524c0,-410.286 136.762,-136.762 273.524,-136.762c136.762,0 273.523,-82.057 273.523,136.762c0,218.819 -136.761,82.057 -273.523,82.057c-136.762,0 -273.524,54.705 -273.524,-82.057" style="fill:none;stroke:#8f2727;stroke-opacity:0.137255;stroke-width:46.7px;"/><path d="M54.705,273.524c0,-410.286 136.762,-136.762 273.524,-136.762c136.762,0 273.523,-82.057 273.523,136.762c0,218.819 -136.761,82.057 -273.523,82.057c-136.762,0 -273.524,54.705 -273.524,-82.057" style="fill:none;stroke:#8f2727;stroke-opacity:0.0901961;stroke-width:56.04px;"/><path d="M54.705,273.524c0,-410.286 136.762,-136.762 273.524,-136.762c136.762,0 273.523,-82.057 273.523,136.762c0,218.819 -136.761,82.057 -273.523,82.057c-136.762,0 -273.524,54.705 -273.524,-82.057" style="fill:none;stroke:#8f2727;stroke-opacity:0.0627451;stroke-width:65.38px;"/><path d="M54.705,273.524c0,-410.286 136.762,-136.762 273.524,-136.762c136.762,0 273.523,-82.057 273.523,136.762c0,218.819 -136.761,82.057 -273.523,82.057c-136.762,0 -273.524,54.705 -273.524,-82.057" style="fill:none;stroke:#8f2727;stroke-opacity:0.0392157;stroke-width:74.73px;"/><path d="M54.705,273.524c0,-410.286 136.762,-136.762 273.524,-136.762c136.762,0 273.523,-82.057 273.523,136.762c0,218.819 -136.761,82.057 -273.523,82.057c-136.762,0 -273.524,54.705 -273.524,-82.057" style="fill:none;stroke:#8f2727;stroke-opacity:0.027451;stroke-width:84.07px;"/><path d="M54.705,273.524c0,-410.286 136.762,-136.762 273.524,-136.762c136.762,0 273.523,-82.057 273.523,136.762c0,218.819 -136.761,82.057 -273.523,82.057c-136.762,0 -273.524,54.705 -273.524,-82.057" style="fill:none;stroke:#8f2727;stroke-opacity:0.0196078;stroke-width:93.41px;"/><path d="M54.705,273.524c0,-410.286 136.762,-136.762 273.524,-136.762c136.762,0 273.523,-82.057 273.523,136.762c0,218.819 -136.761,82.057 -273.523,82.057c-136.762,0 -273.524,54.705 -273.524,-82.057" style="fill:none;stroke:#8f2727;stroke-opacity:0.0117647;stroke-width:102.75px;"/><path d="M54.705,273.524c0,-410.286 136.762,-136.762 273.524,-136.762c136.762,0 273.523,-82.057 273.523,136.762c0,218.819 -136.761,82.057 -273.523,82.057c-136.762,0 -273.524,54.705 -273.524,-82.057" style="fill:none;stroke:#8f2727;stroke-opacity:0.00784314;stroke-width:112.09px;"/><path d="M54.705,273.524c0,-410.286 136.762,-136.762 273.524,-136.762c136.762,0 273.523,-82.057 273.523,136.762c0,218.819 -136.761,82.057 -273.523,82.057c-136.762,0 -273.524,54.705 -273.524,-82.057" style="fill:none;stroke:#8f2727;stroke-opacity:0.00392157;stroke-width:121.43px;"/><path d="M54.705,273.524c0,-410.286 136.762,-136.762 273.524,-136.762c136.762,0 273.523,-82.057 273.523,136.762c0,218.819 -136.761,82.057 -273.523,82.057c-136.762,0 -273.524,54.705 -273.524,-82.057" style="fill:none;stroke:#8f2727;stroke-opacity:0.00392157;stroke-width:130.77px;"/><path d="M54.705,273.524c0,-410.286 136.762,-136.762 273.524,-136.762c136.762,0 273.523,-82.057 273.523,136.762c0,218.819 -136.761,82.057 -273.523,82.057c-136.762,0 -273.524,54.705 -273.524,-82.057" style="fill:none;stroke:#8f2727;stroke-opacity:0.00392157;stroke-width:140.11px;"/><path d="M54.705,273.524c0,-410.286 136.762,-136.762 273.524,-136.762c136.762,0 273.523,-82.057 273.523,136.762c0,218.819 -136.761,82.057 -273.523,82.057c-136.762,0 -273.524,54.705 -273.524,-82.057" style="fill:none;stroke:#8f2727;stroke-opacity:0;stroke-width:149.45px;"/><path d="M54.705,273.524c0,-410.286 136.762,-136.762 273.524,-136.762c136.762,0 273.523,-82.057 273.523,136.762c0,218.819 -136.761,82.057 -273.523,82.057c-136.762,0 -273.524,54.705 -273.524,-82.057" style="fill:none;stroke:#8f2727;stroke-opacity:0;stroke-width:158.79px;"/><path d="M54.705,273.524c0,-410.286 136.762,-136.762 273.524,-136.762c136.762,0 273.523,-82.057 273.523,136.762c0,218.819 -136.761,82.057 -273.523,82.057c-136.762,0 -273.524,54.705 -273.524,-82.057" style="fill:none;stroke:#8f2727;stroke-opacity:0;stroke-width:168.13px;"/><path d="M54.705,273.524c0,-410.286 136.762,-136.762 273.524,-136.762c136.762,0 273.523,-82.057 273.523,136.762c0,218.819 -136.761,82.057 -273.523,82.057c-136.762,0 -273.524,54.705 -273.524,-82.057" style="fill:none;stroke:#8f2727;stroke-opacity:0;stroke-width:177.47px;"/><path d="M61.434,451.314c0,-3.714 -3.015,-6.729 -6.729,-6.729c-3.714,0 -6.729,3.015 -6.729,6.729c0,3.714 3.015,6.73 6.729,6.73c3.714,0 6.729,-3.016 6.729,-6.73Z" style="fill:#8f2727;"/><path d="M59.511,451.314c0,-2.653 -2.153,-4.806 -4.806,-4.806c-2.653,0 -4.807,2.153 -4.807,4.806c0,2.653 2.154,4.807 4.807,4.807c2.653,0 4.806,-2.154 4.806,-4.807Z" style="fill:#dcbcbc;"/><path d="M88.786,458.152c0,-3.714 -3.015,-6.729 -6.729,-6.729c-3.714,0 -6.729,3.015 -6.729,6.729c0,3.714 3.015,6.73 6.729,6.73c3.714,0 6.729,-3.016 6.729,-6.73Z" style="fill:#8f2727;"/><path d="M86.864,458.152c0,-2.652 -2.154,-4.806 -4.807,-4.806c-2.653,0 -4.806,2.154 -4.806,4.806c0,2.653 2.153,4.807 4.806,4.807c2.653,0 4.807,-2.154 4.807,-4.807Z" style="fill:#dcbcbc;"/><path d="M109.301,410.286c0,-3.714 -3.016,-6.73 -6.73,-6.73c-3.714,0 -6.729,3.016 -6.729,6.73c0,3.714 3.015,6.729 6.729,6.729c3.714,0 6.73,-3.015 6.73,-6.729Z" style="fill:#8f2727;"/><path d="M107.378,410.286c0,-2.653 -2.154,-4.807 -4.807,-4.807c-2.652,0 -4.806,2.154 -4.806,4.807c0,2.653 2.154,4.806 4.806,4.806c2.653,0 4.807,-2.153 4.807,-4.806Z" style="fill:#dcbcbc;"/><path d="M129.815,382.933c0,-3.714 -3.015,-6.729 -6.729,-6.729c-3.714,0 -6.73,3.015 -6.73,6.729c0,3.714 3.016,6.73 6.73,6.73c3.714,0 6.729,-3.016 6.729,-6.73Z" style="fill:#8f2727;"/><path d="M127.892,382.933c0,-2.652 -2.153,-4.806 -4.806,-4.806c-2.653,0 -4.807,2.154 -4.807,4.806c0,2.653 2.154,4.807 4.807,4.807c2.653,0 4.806,-2.154 4.806,-4.807Z" style="fill:#dcbcbc;"/><path d="M143.491,369.257c0,-3.714 -3.015,-6.729 -6.729,-6.729c-3.714,0 -6.729,3.015 -6.729,6.729c0,3.714 3.015,6.729 6.729,6.729c3.714,0 6.729,-3.015 6.729,-6.729Z" style="fill:#8f2727;"/><path d="M141.569,369.257c0,-2.653 -2.154,-4.806 -4.807,-4.806c-2.653,0 -4.807,2.153 -4.807,4.806c0,2.653 2.154,4.807 4.807,4.807c2.653,0 4.807,-2.154 4.807,-4.807Z" style="fill:#dcbcbc;"/><path d="M157.167,371.993c0,-3.714 -3.015,-6.73 -6.729,-6.73c-3.714,0 -6.729,3.016 -6.729,6.73c0,3.713 3.015,6.729 6.729,6.729c3.714,0 6.729,-3.016 6.729,-6.729Z" style="fill:#8f2727;"/><path d="M155.245,371.993c0,-2.653 -2.154,-4.807 -4.807,-4.807c-2.653,0 -4.806,2.154 -4.806,4.807c0,2.652 2.153,4.806 4.806,4.806c2.653,0 4.807,-2.154 4.807,-4.806Z" style="fill:#dcbcbc;"/></g></g><g><text x="279.966px" y="813.628px" style="font-family:'ArialMT', 'Arial', sans-serif;font-size:28.491px;">iteration</text><g><path d="M54.705,493.639l0,267.755l547.047,0" style="fill:none;stroke:#000;stroke-width:1.03px;stroke-miterlimit:3.8;"/><path d="M54.705,517.951l5.505,0l5.583,0.064l11.011,0.253l5.506,0.19l5.582,0.253l5.505,0.317l5.506,0.38l5.506,0.443l5.582,0.57l5.505,0.759l5.506,0.887l5.506,1.076l5.582,1.33l5.505,1.583l5.506,2.026l5.506,2.342l5.582,2.913l5.506,3.482l5.505,4.179l5.582,4.938l5.506,5.762l5.506,6.648l5.505,7.597l5.582,8.611l5.506,9.497l5.506,10.321l5.505,10.953l5.582,11.523l5.506,11.713l5.506,11.777l5.505,11.523l5.583,11.08l5.505,10.447l5.506,9.623l5.506,8.801l5.582,7.851l5.505,7.028l5.506,6.078l5.582,5.318l5.506,4.559l5.505,3.926l5.506,3.292l5.582,2.786l5.506,2.406l5.505,1.962l5.506,1.71l5.582,1.393l5.506,1.203l5.505,1.013l5.506,0.823l5.582,0.76l11.012,1.139l5.505,0.443l5.582,0.38l11.012,0.633l5.505,0.254l5.582,0.253l11.012,0.38l5.582,0.19l5.505,0.126l5.506,0.19l5.506,0.127l5.582,0.127l5.506,0.126l5.505,0.064l5.506,0.126l5.582,0.127l5.506,0.063l5.505,0.127l5.506,0.063l5.582,0.127l11.011,0.126l5.506,0.127l5.582,0.063l11.011,0.127l5.583,0.063l5.505,0.127l11.012,0.126l5.582,0.064l16.517,0.19l5.582,0.063l16.517,0.19l5.582,0.063l16.517,0.19l5.582,0.064l5.505,0" style="fill:none;stroke:#bfbfbf;stroke-width:3.08px;stroke-miterlimit:3.8;stroke-dasharray:15.38,15.38;"/><path d="M54.705,517.951l5.505,0l5.583,0.064l11.011,0.253l5.506,0.19l5.582,0.253l5.505,0.317l5.506,0.38l5.506,0.443l5.582,0.57l5.505,0.759l5.506,0.887l5.506,1.076l5.582,1.33l5.505,1.583l5.506,2.026l5.506,2.342l5.582,2.913l5.506,3.482l5.505,4.179l5.582,4.938l5.506,5.762" style="fill:none;stroke:#000;stroke-width:3.08px;stroke-miterlimit:3.8;"/><path d="M54.705,493.639l0,267.755l547.047,0" style="fill:none;stroke:#000;stroke-width:1.03px;stroke-miterlimit:3.8;"/></g></g><g><clipPath id="_clip2"><rect x="720.297" y="0" width="656.457" height="547.048" clip-rule="nonzero"/></clipPath><g clip-path="url(#_clip2)"><path d="M775.002,273.524c0,-410.286 136.762,-136.762 273.524,-136.762c136.762,0 273.524,-82.057 273.524,136.762c0,218.819 -136.762,82.057 -273.524,82.057c-136.762,0 -273.524,54.705 -273.524,-82.057" style="fill:none;stroke:#8f2727;stroke-width:0.63px;"/><path d="M775.002,273.524c0,-410.286 136.762,-136.762 273.524,-136.762c136.762,0 273.524,-82.057 273.524,136.762c0,218.819 -136.762,82.057 -273.524,82.057c-136.762,0 -273.524,54.705 -273.524,-82.057" style="fill:none;stroke:#8f2727;stroke-opacity:0.670588;stroke-width:9.34px;"/><path d="M775.002,273.524c0,-410.286 136.762,-136.762 273.524,-136.762c136.762,0 273.524,-82.057 273.524,136.762c0,218.819 -136.762,82.057 -273.524,82.057c-136.762,0 -273.524,54.705 -273.524,-82.057" style="fill:none;stroke:#8f2727;stroke-opacity:0.45098;stroke-width:18.68px;"/><path d="M775.002,273.524c0,-410.286 136.762,-136.762 273.524,-136.762c136.762,0 273.524,-82.057 273.524,136.762c0,218.819 -136.762,82.057 -273.524,82.057c-136.762,0 -273.524,54.705 -273.524,-82.057" style="fill:none;stroke:#8f2727;stroke-opacity:0.301961;stroke-width:28.02px;"/><path d="M775.002,273.524c0,-410.286 136.762,-136.762 273.524,-136.762c136.762,0 273.524,-82.057 273.524,136.762c0,218.819 -136.762,82.057 -273.524,82.057c-136.762,0 -273.524,54.705 -273.524,-82.057" style="fill:none;stroke:#8f2727;stroke-opacity:0.2;stroke-width:37.36px;"/><path d="M775.002,273.524c0,-410.286 136.762,-136.762 273.524,-136.762c136.762,0 273.524,-82.057 273.524,136.762c0,218.819 -136.762,82.057 -273.524,82.057c-136.762,0 -273.524,54.705 -273.524,-82.057" style="fill:none;stroke:#8f2727;stroke-opacity:0.137255;stroke-width:46.7px;"/><path d="M775.002,273.524c0,-410.286 136.762,-136.762 273.524,-136.762c136.762,0 273.524,-82.057 273.524,136.762c0,218.819 -136.762,82.057 -273.524,82.057c-136.762,0 -273.524,54.705 -273.524,-82.057" style="fill:none;stroke:#8f2727;stroke-opacity:0.0901961;stroke-width:56.04px;"/><path d="M775.002,273.524c0,-410.286 136.762,-136.762 273.524,-136.762c136.762,0 273.524,-82.057 273.524,136.762c0,218.819 -136.762,82.057 -273.524,82.057c-136.762,0 -273.524,54.705 -273.524,-82.057" style="fill:none;stroke:#8f2727;stroke-opacity:0.0627451;stroke-width:65.38px;"/><path d="M775.002,273.524c0,-410.286 136.762,-136.762 273.524,-136.762c136.762,0 273.524,-82.057 273.524,136.762c0,218.819 -136.762,82.057 -273.524,82.057c-136.762,0 -273.524,54.705 -273.524,-82.057" style="fill:none;stroke:#8f2727;stroke-opacity:0.0392157;stroke-width:74.73px;"/><path d="M775.002,273.524c0,-410.286 136.762,-136.762 273.524,-136.762c136.762,0 273.524,-82.057 273.524,136.762c0,218.819 -136.762,82.057 -273.524,82.057c-136.762,0 -273.524,54.705 -273.524,-82.057" style="fill:none;stroke:#8f2727;stroke-opacity:0.027451;stroke-width:84.07px;"/><path d="M775.002,273.524c0,-410.286 136.762,-136.762 273.524,-136.762c136.762,0 273.524,-82.057 273.524,136.762c0,218.819 -136.762,82.057 -273.524,82.057c-136.762,0 -273.524,54.705 -273.524,-82.057" style="fill:none;stroke:#8f2727;stroke-opacity:0.0196078;stroke-width:93.41px;"/><path d="M775.002,273.524c0,-410.286 136.762,-136.762 273.524,-136.762c136.762,0 273.524,-82.057 273.524,136.762c0,218.819 -136.762,82.057 -273.524,82.057c-136.762,0 -273.524,54.705 -273.524,-82.057" style="fill:none;stroke:#8f2727;stroke-opacity:0.0117647;stroke-width:102.75px;"/><path d="M775.002,273.524c0,-410.286 136.762,-136.762 273.524,-136.762c136.762,0 273.524,-82.057 273.524,136.762c0,218.819 -136.762,82.057 -273.524,82.057c-136.762,0 -273.524,54.705 -273.524,-82.057" style="fill:none;stroke:#8f2727;stroke-opacity:0.00784314;stroke-width:112.09px;"/><path d="M775.002,273.524c0,-410.286 136.762,-136.762 273.524,-136.762c136.762,0 273.524,-82.057 273.524,136.762c0,218.819 -136.762,82.057 -273.524,82.057c-136.762,0 -273.524,54.705 -273.524,-82.057" style="fill:none;stroke:#8f2727;stroke-opacity:0.00392157;stroke-width:121.43px;"/><path d="M775.002,273.524c0,-410.286 136.762,-136.762 273.524,-136.762c136.762,0 273.524,-82.057 273.524,136.762c0,218.819 -136.762,82.057 -273.524,82.057c-136.762,0 -273.524,54.705 -273.524,-82.057" style="fill:none;stroke:#8f2727;stroke-opacity:0.00392157;stroke-width:130.77px;"/><path d="M775.002,273.524c0,-410.286 136.762,-136.762 273.524,-136.762c136.762,0 273.524,-82.057 273.524,136.762c0,218.819 -136.762,82.057 -273.524,82.057c-136.762,0 -273.524,54.705 -273.524,-82.057" style="fill:none;stroke:#8f2727;stroke-opacity:0.00392157;stroke-width:140.11px;"/><path d="M775.002,273.524c0,-410.286 136.762,-136.762 273.524,-136.762c136.762,0 273.524,-82.057 273.524,136.762c0,218.819 -136.762,82.057 -273.524,82.057c-136.762,0 -273.524,54.705 -273.524,-82.057" style="fill:none;stroke:#8f2727;stroke-opacity:0;stroke-width:149.45px;"/><path d="M775.002,273.524c0,-410.286 136.762,-136.762 273.524,-136.762c136.762,0 273.524,-82.057 273.524,136.762c0,218.819 -136.762,82.057 -273.524,82.057c-136.762,0 -273.524,54.705 -273.524,-82.057" style="fill:none;stroke:#8f2727;stroke-opacity:0;stroke-width:158.79px;"/><path d="M775.002,273.524c0,-410.286 136.762,-136.762 273.524,-136.762c136.762,0 273.524,-82.057 273.524,136.762c0,218.819 -136.762,82.057 -273.524,82.057c-136.762,0 -273.524,54.705 -273.524,-82.057" style="fill:none;stroke:#8f2727;stroke-opacity:0;stroke-width:168.13px;"/><path d="M775.002,273.524c0,-410.286 136.762,-136.762 273.524,-136.762c136.762,0 273.524,-82.057 273.524,136.762c0,218.819 -136.762,82.057 -273.524,82.057c-136.762,0 -273.524,54.705 -273.524,-82.057" style="fill:none;stroke:#8f2727;stroke-opacity:0;stroke-width:177.47px;"/><path d="M781.731,451.314c0,-3.714 -3.015,-6.729 -6.729,-6.729c-3.714,0 -6.729,3.015 -6.729,6.729c0,3.714 3.015,6.73 6.729,6.73c3.714,0 6.729,-3.016 6.729,-6.73Z" style="fill:#8f2727;"/><path d="M779.809,451.314c0,-2.653 -2.154,-4.806 -4.807,-4.806c-2.653,0 -4.807,2.153 -4.807,4.806c0,2.653 2.154,4.807 4.807,4.807c2.653,0 4.807,-2.154 4.807,-4.807Z" style="fill:#dcbcbc;"/><path d="M809.084,458.152c0,-3.714 -3.016,-6.729 -6.73,-6.729c-3.714,0 -6.729,3.015 -6.729,6.729c0,3.714 3.015,6.73 6.729,6.73c3.714,0 6.73,-3.016 6.73,-6.73Z" style="fill:#8f2727;"/><path d="M807.161,458.152c0,-2.652 -2.154,-4.806 -4.807,-4.806c-2.652,0 -4.806,2.154 -4.806,4.806c0,2.653 2.154,4.807 4.806,4.807c2.653,0 4.807,-2.154 4.807,-4.807Z" style="fill:#dcbcbc;"/><path d="M829.598,410.286c0,-3.714 -3.015,-6.73 -6.729,-6.73c-3.714,0 -6.73,3.016 -6.73,6.73c0,3.714 3.016,6.729 6.73,6.729c3.714,0 6.729,-3.015 6.729,-6.729Z" style="fill:#8f2727;"/><path d="M827.675,410.286c0,-2.653 -2.153,-4.807 -4.806,-4.807c-2.653,0 -4.807,2.154 -4.807,4.807c0,2.653 2.154,4.806 4.807,4.806c2.653,0 4.806,-2.153 4.806,-4.806Z" style="fill:#dcbcbc;"/><path d="M850.112,382.933c0,-3.714 -3.015,-6.729 -6.729,-6.729c-3.714,0 -6.729,3.015 -6.729,6.729c0,3.714 3.015,6.73 6.729,6.73c3.714,0 6.729,-3.016 6.729,-6.73Z" style="fill:#8f2727;"/><path d="M848.19,382.933c0,-2.652 -2.154,-4.806 -4.807,-4.806c-2.653,0 -4.807,2.154 -4.807,4.806c0,2.653 2.154,4.807 4.807,4.807c2.653,0 4.807,-2.154 4.807,-4.807Z" style="fill:#dcbcbc;"/><path d="M863.788,369.257c0,-3.714 -3.015,-6.729 -6.729,-6.729c-3.714,0 -6.729,3.015 -6.729,6.729c0,3.714 3.015,6.729 6.729,6.729c3.714,0 6.729,-3.015 6.729,-6.729Z" style="fill:#8f2727;"/><path d="M861.866,369.257c0,-2.653 -2.154,-4.806 -4.807,-4.806c-2.653,0 -4.806,2.153 -4.806,4.806c0,2.653 2.153,4.807 4.806,4.807c2.653,0 4.807,-2.154 4.807,-4.807Z" style="fill:#dcbcbc;"/><path d="M877.465,371.993c0,-3.714 -3.016,-6.73 -6.73,-6.73c-3.714,0 -6.729,3.016 -6.729,6.73c0,3.713 3.015,6.729 6.729,6.729c3.714,0 6.73,-3.016 6.73,-6.729Z" style="fill:#8f2727;"/><path d="M875.542,371.993c0,-2.653 -2.154,-4.807 -4.807,-4.807c-2.652,0 -4.806,2.154 -4.806,4.807c0,2.652 2.154,4.806 4.806,4.806c2.653,0 4.807,-2.154 4.807,-4.806Z" style="fill:#dcbcbc;"/><path d="M891.141,355.581c0,-3.714 -3.015,-6.729 -6.729,-6.729c-3.714,0 -6.73,3.015 -6.73,6.729c0,3.714 3.016,6.729 6.73,6.729c3.714,0 6.729,-3.015 6.729,-6.729Z" style="fill:#8f2727;"/><path d="M889.218,355.581c0,-2.653 -2.154,-4.807 -4.806,-4.807c-2.653,0 -4.807,2.154 -4.807,4.807c0,2.653 2.154,4.807 4.807,4.807c2.652,0 4.806,-2.154 4.806,-4.807Z" style="fill:#dcbcbc;"/><path d="M925.331,362.419c0,-3.714 -3.015,-6.729 -6.729,-6.729c-3.714,0 -6.729,3.015 -6.729,6.729c0,3.714 3.015,6.729 6.729,6.729c3.714,0 6.729,-3.015 6.729,-6.729Z" style="fill:#8f2727;"/><path d="M923.409,362.419c0,-2.653 -2.154,-4.807 -4.807,-4.807c-2.653,0 -4.807,2.154 -4.807,4.807c0,2.653 2.154,4.807 4.807,4.807c2.653,0 4.807,-2.154 4.807,-4.807Z" style="fill:#dcbcbc;"/><path d="M973.198,369.257c0,-3.714 -3.015,-6.729 -6.729,-6.729c-3.714,0 -6.73,3.015 -6.73,6.729c0,3.714 3.016,6.729 6.73,6.729c3.714,0 6.729,-3.015 6.729,-6.729Z" style="fill:#8f2727;"/><path d="M971.275,369.257c0,-2.653 -2.153,-4.806 -4.806,-4.806c-2.653,0 -4.807,2.153 -4.807,4.806c0,2.653 2.154,4.807 4.807,4.807c2.653,0 4.806,-2.154 4.806,-4.807Z" style="fill:#dcbcbc;"/><path d="M1000.55,369.257c0,-3.714 -3.015,-6.729 -6.729,-6.729c-3.714,0 -6.729,3.015 -6.729,6.729c0,3.714 3.015,6.729 6.729,6.729c3.714,0 6.729,-3.015 6.729,-6.729Z" style="fill:#8f2727;"/><path d="M998.628,369.257c0,-2.653 -2.154,-4.806 -4.807,-4.806c-2.653,0 -4.806,2.153 -4.806,4.806c0,2.653 2.153,4.807 4.806,4.807c2.653,0 4.807,-2.154 4.807,-4.807Z" style="fill:#dcbcbc;"/><path d="M1047.05,355.581c0,-3.714 -3.015,-6.729 -6.729,-6.729c-3.714,0 -6.729,3.015 -6.729,6.729c0,3.714 3.015,6.729 6.729,6.729c3.714,0 6.729,-3.015 6.729,-6.729Z" style="fill:#8f2727;"/><path d="M1045.13,355.581c0,-2.653 -2.154,-4.807 -4.807,-4.807c-2.653,0 -4.807,2.154 -4.807,4.807c0,2.653 2.154,4.807 4.807,4.807c2.653,0 4.807,-2.154 4.807,-4.807Z" style="fill:#dcbcbc;"/><path d="M1066.2,366.522c0,-3.714 -3.015,-6.73 -6.729,-6.73c-3.714,0 -6.73,3.016 -6.73,6.73c0,3.714 3.016,6.729 6.73,6.729c3.714,0 6.729,-3.015 6.729,-6.729Z" style="fill:#8f2727;"/><path d="M1064.27,366.522c0,-2.653 -2.154,-4.807 -4.806,-4.807c-2.653,0 -4.807,2.154 -4.807,4.807c0,2.653 2.154,4.806 4.807,4.806c2.652,0 4.806,-2.153 4.806,-4.806Z" style="fill:#dcbcbc;"/><path d="M1134.58,361.051c0,-3.714 -3.015,-6.729 -6.729,-6.729c-3.714,0 -6.73,3.015 -6.73,6.729c0,3.714 3.016,6.73 6.73,6.73c3.714,0 6.729,-3.016 6.729,-6.73Z" style="fill:#8f2727;"/><path d="M1132.65,361.051c0,-2.652 -2.154,-4.806 -4.806,-4.806c-2.653,0 -4.807,2.154 -4.807,4.806c0,2.653 2.154,4.807 4.807,4.807c2.652,0 4.806,-2.154 4.806,-4.807Z" style="fill:#dcbcbc;"/><path d="M1164.66,385.669c0,-3.714 -3.016,-6.73 -6.73,-6.73c-3.714,0 -6.729,3.016 -6.729,6.73c0,3.714 3.015,6.729 6.729,6.729c3.714,0 6.73,-3.015 6.73,-6.729Z" style="fill:#8f2727;"/><path d="M1162.74,385.669c0,-2.653 -2.154,-4.807 -4.807,-4.807c-2.652,0 -4.806,2.154 -4.806,4.807c0,2.653 2.154,4.806 4.806,4.806c2.653,0 4.807,-2.153 4.807,-4.806Z" style="fill:#dcbcbc;"/><path d="M1233.05,404.815c0,-3.714 -3.016,-6.729 -6.73,-6.729c-3.714,0 -6.729,3.015 -6.729,6.729c0,3.714 3.015,6.73 6.729,6.73c3.714,0 6.73,-3.016 6.73,-6.73Z" style="fill:#8f2727;"/><path d="M1231.12,404.815c0,-2.652 -2.154,-4.806 -4.807,-4.806c-2.653,0 -4.806,2.154 -4.806,4.806c0,2.653 2.153,4.807 4.806,4.807c2.653,0 4.807,-2.154 4.807,-4.807Z" style="fill:#dcbcbc;"/><path d="M1241.25,402.08c0,-3.714 -3.015,-6.729 -6.729,-6.729c-3.714,0 -6.729,3.015 -6.729,6.729c0,3.714 3.015,6.729 6.729,6.729c3.714,0 6.729,-3.015 6.729,-6.729Z" style="fill:#8f2727;"/><path d="M1239.33,402.08c0,-2.653 -2.154,-4.807 -4.807,-4.807c-2.653,0 -4.807,2.154 -4.807,4.807c0,2.653 2.154,4.807 4.807,4.807c2.653,0 4.807,-2.154 4.807,-4.807Z" style="fill:#dcbcbc;"/><path d="M1290.49,403.448c0,-3.714 -3.015,-6.73 -6.729,-6.73c-3.714,0 -6.73,3.016 -6.73,6.73c0,3.714 3.016,6.729 6.73,6.729c3.714,0 6.729,-3.015 6.729,-6.729Z" style="fill:#8f2727;"/><path d="M1288.56,403.448c0,-2.653 -2.154,-4.807 -4.806,-4.807c-2.653,0 -4.807,2.154 -4.807,4.807c0,2.652 2.154,4.806 4.807,4.806c2.652,0 4.806,-2.154 4.806,-4.806Z" style="fill:#dcbcbc;"/><path d="M1319.21,348.743c0,-3.714 -3.016,-6.729 -6.73,-6.729c-3.714,0 -6.729,3.015 -6.729,6.729c0,3.714 3.015,6.729 6.729,6.729c3.714,0 6.73,-3.015 6.73,-6.729Z" style="fill:#8f2727;"/><path d="M1317.28,348.743c0,-2.653 -2.154,-4.807 -4.807,-4.807c-2.653,0 -4.806,2.154 -4.806,4.807c0,2.653 2.153,4.806 4.806,4.806c2.653,0 4.807,-2.153 4.807,-4.806Z" style="fill:#dcbcbc;"/><path d="M1324.68,295.406c0,-3.714 -3.015,-6.729 -6.729,-6.729c-3.714,0 -6.729,3.015 -6.729,6.729c0,3.714 3.015,6.729 6.729,6.729c3.714,0 6.729,-3.015 6.729,-6.729Z" style="fill:#8f2727;"/><path d="M1322.75,295.406c0,-2.653 -2.154,-4.807 -4.807,-4.807c-2.653,0 -4.807,2.154 -4.807,4.807c0,2.653 2.154,4.806 4.807,4.806c2.653,0 4.807,-2.153 4.807,-4.806Z" style="fill:#dcbcbc;"/><path d="M1328.78,254.377c0,-3.714 -3.015,-6.729 -6.729,-6.729c-3.714,0 -6.73,3.015 -6.73,6.729c0,3.714 3.016,6.73 6.73,6.73c3.714,0 6.729,-3.016 6.729,-6.73Z" style="fill:#8f2727;"/><path d="M1326.86,254.377c0,-2.653 -2.153,-4.806 -4.806,-4.806c-2.653,0 -4.807,2.153 -4.807,4.806c0,2.653 2.154,4.807 4.807,4.807c2.653,0 4.806,-2.154 4.806,-4.807Z" style="fill:#dcbcbc;"/><path d="M1323.31,211.981c0,-3.714 -3.016,-6.729 -6.73,-6.729c-3.714,0 -6.729,3.015 -6.729,6.729c0,3.714 3.015,6.729 6.729,6.729c3.714,0 6.73,-3.015 6.73,-6.729Z" style="fill:#8f2727;"/><path d="M1321.39,211.981c0,-2.653 -2.154,-4.807 -4.807,-4.807c-2.653,0 -4.806,2.154 -4.806,4.807c0,2.653 2.153,4.807 4.806,4.807c2.653,0 4.807,-2.154 4.807,-4.807Z" style="fill:#dcbcbc;"/><path d="M1317.84,170.952c0,-3.714 -3.015,-6.729 -6.729,-6.729c-3.714,0 -6.729,3.015 -6.729,6.729c0,3.714 3.015,6.73 6.729,6.73c3.714,0 6.729,-3.016 6.729,-6.73Z" style="fill:#8f2727;"/><path d="M1315.92,170.952c0,-2.652 -2.154,-4.806 -4.807,-4.806c-2.653,0 -4.807,2.154 -4.807,4.806c0,2.653 2.154,4.807 4.807,4.807c2.653,0 4.807,-2.154 4.807,-4.807Z" style="fill:#dcbcbc;"/><path d="M1287.75,143.6c0,-3.714 -3.015,-6.729 -6.729,-6.729c-3.714,0 -6.729,3.015 -6.729,6.729c0,3.714 3.015,6.729 6.729,6.729c3.714,0 6.729,-3.015 6.729,-6.729Z" style="fill:#8f2727;"/><path d="M1285.83,143.6c0,-2.653 -2.154,-4.807 -4.807,-4.807c-2.653,0 -4.806,2.154 -4.806,4.807c0,2.653 2.153,4.807 4.806,4.807c2.653,0 4.807,-2.154 4.807,-4.807Z" style="fill:#dcbcbc;"/><path d="M1254.93,128.556c0,-3.714 -3.016,-6.729 -6.73,-6.729c-3.714,0 -6.729,3.015 -6.729,6.729c0,3.714 3.015,6.729 6.729,6.729c3.714,0 6.73,-3.015 6.73,-6.729Z" style="fill:#8f2727;"/><path d="M1253.01,128.556c0,-2.653 -2.154,-4.807 -4.807,-4.807c-2.653,0 -4.806,2.154 -4.806,4.807c0,2.653 2.153,4.807 4.806,4.807c2.653,0 4.807,-2.154 4.807,-4.807Z" style="fill:#dcbcbc;"/><path d="M1198.86,124.453c0,-3.714 -3.015,-6.729 -6.729,-6.729c-3.714,0 -6.729,3.015 -6.729,6.729c0,3.714 3.015,6.73 6.729,6.73c3.714,0 6.729,-3.016 6.729,-6.73Z" style="fill:#8f2727;"/><path d="M1196.93,124.453c0,-2.652 -2.154,-4.806 -4.807,-4.806c-2.653,0 -4.807,2.154 -4.807,4.806c0,2.653 2.154,4.807 4.807,4.807c2.653,0 4.807,-2.154 4.807,-4.807Z" style="fill:#dcbcbc;"/><path d="M1192.02,118.983c0,-3.714 -3.015,-6.729 -6.729,-6.729c-3.714,0 -6.73,3.015 -6.73,6.729c0,3.714 3.016,6.729 6.73,6.729c3.714,0 6.729,-3.015 6.729,-6.729Z" style="fill:#8f2727;"/><path d="M1190.09,118.983c0,-2.653 -2.153,-4.807 -4.806,-4.807c-2.653,0 -4.807,2.154 -4.807,4.807c0,2.653 2.154,4.807 4.807,4.807c2.653,0 4.806,-2.154 4.806,-4.807Z" style="fill:#dcbcbc;"/><path d="M1116.8,142.232c0,-3.714 -3.015,-6.729 -6.729,-6.729c-3.714,0 -6.73,3.015 -6.73,6.729c0,3.714 3.016,6.73 6.73,6.73c3.714,0 6.729,-3.016 6.729,-6.73Z" style="fill:#8f2727;"/><path d="M1114.88,142.232c0,-2.653 -2.154,-4.806 -4.806,-4.806c-2.653,0 -4.807,2.153 -4.807,4.806c0,2.653 2.154,4.807 4.807,4.807c2.652,0 4.806,-2.154 4.806,-4.807Z" style="fill:#dcbcbc;"/><path d="M1096.28,134.027c0,-3.714 -3.016,-6.73 -6.73,-6.73c-3.714,0 -6.729,3.016 -6.729,6.73c0,3.713 3.015,6.729 6.729,6.729c3.714,0 6.73,-3.016 6.73,-6.729Z" style="fill:#8f2727;"/><path d="M1094.36,134.027c0,-2.653 -2.154,-4.807 -4.807,-4.807c-2.652,0 -4.806,2.154 -4.806,4.807c0,2.652 2.154,4.806 4.806,4.806c2.653,0 4.807,-2.154 4.807,-4.806Z" style="fill:#dcbcbc;"/><path d="M1038.84,136.762c0,-3.714 -3.016,-6.729 -6.73,-6.729c-3.714,0 -6.729,3.015 -6.729,6.729c0,3.714 3.015,6.729 6.729,6.729c3.714,0 6.73,-3.015 6.73,-6.729Z" style="fill:#8f2727;"/><path d="M1036.92,136.762c0,-2.653 -2.154,-4.807 -4.807,-4.807c-2.653,0 -4.806,2.154 -4.806,4.807c0,2.653 2.153,4.807 4.806,4.807c2.653,0 4.807,-2.154 4.807,-4.807Z" style="fill:#dcbcbc;"/><path d="M1004.65,136.762c0,-3.714 -3.015,-6.729 -6.729,-6.729c-3.714,0 -6.729,3.015 -6.729,6.729c0,3.714 3.015,6.729 6.729,6.729c3.714,0 6.729,-3.015 6.729,-6.729Z" style="fill:#8f2727;"/><path d="M1002.73,136.762c0,-2.653 -2.153,-4.807 -4.806,-4.807c-2.653,0 -4.807,2.154 -4.807,4.807c0,2.653 2.154,4.807 4.807,4.807c2.653,0 4.806,-2.154 4.806,-4.807Z" style="fill:#dcbcbc;"/><path d="M939.008,95.733c0,-3.714 -3.016,-6.729 -6.73,-6.729c-3.714,0 -6.729,3.015 -6.729,6.729c0,3.714 3.015,6.73 6.729,6.73c3.714,0 6.73,-3.016 6.73,-6.73Z" style="fill:#8f2727;"/><path d="M937.085,95.733c0,-2.653 -2.154,-4.806 -4.807,-4.806c-2.653,0 -4.806,2.153 -4.806,4.806c0,2.653 2.153,4.807 4.806,4.807c2.653,0 4.807,-2.154 4.807,-4.807Z" style="fill:#dcbcbc;"/><path d="M897.979,71.116c0,-3.714 -3.015,-6.729 -6.729,-6.729c-3.714,0 -6.73,3.015 -6.73,6.729c0,3.714 3.016,6.73 6.73,6.73c3.714,0 6.729,-3.016 6.729,-6.73Z" style="fill:#8f2727;"/><path d="M896.056,71.116c0,-2.653 -2.154,-4.806 -4.806,-4.806c-2.653,0 -4.807,2.153 -4.807,4.806c0,2.653 2.154,4.807 4.807,4.807c2.652,0 4.806,-2.154 4.806,-4.807Z" style="fill:#dcbcbc;"/><path d="M877.465,68.381c0,-3.714 -3.016,-6.729 -6.73,-6.729c-3.714,0 -6.729,3.015 -6.729,6.729c0,3.714 3.015,6.729 6.729,6.729c3.714,0 6.73,-3.015 6.73,-6.729Z" style="fill:#8f2727;"/><path d="M875.542,68.381c0,-2.653 -2.154,-4.807 -4.807,-4.807c-2.652,0 -4.806,2.154 -4.806,4.807c0,2.653 2.154,4.807 4.806,4.807c2.653,0 4.807,-2.154 4.807,-4.807Z" style="fill:#dcbcbc;"/><path d="M829.598,54.705c0,-3.714 -3.015,-6.73 -6.729,-6.73c-3.714,0 -6.73,3.016 -6.73,6.73c0,3.714 3.016,6.729 6.73,6.729c3.714,0 6.729,-3.015 6.729,-6.729Z" style="fill:#8f2727;"/><path d="M827.675,54.705c0,-2.653 -2.153,-4.807 -4.806,-4.807c-2.653,0 -4.807,2.154 -4.807,4.807c0,2.653 2.154,4.806 4.807,4.806c2.653,0 4.806,-2.153 4.806,-4.806Z" style="fill:#dcbcbc;"/><path d="M803.613,82.057c0,-3.714 -3.015,-6.729 -6.729,-6.729c-3.714,0 -6.729,3.015 -6.729,6.729c0,3.714 3.015,6.729 6.729,6.729c3.714,0 6.729,-3.015 6.729,-6.729Z" style="fill:#8f2727;"/><path d="M801.691,82.057c0,-2.653 -2.154,-4.807 -4.807,-4.807c-2.653,0 -4.807,2.154 -4.807,4.807c0,2.653 2.154,4.807 4.807,4.807c2.653,0 4.807,-2.154 4.807,-4.807Z" style="fill:#dcbcbc;"/><path d="M789.937,128.556c0,-3.714 -3.015,-6.729 -6.729,-6.729c-3.714,0 -6.73,3.015 -6.73,6.729c0,3.714 3.016,6.729 6.73,6.729c3.714,0 6.729,-3.015 6.729,-6.729Z" style="fill:#8f2727;"/><path d="M788.014,128.556c0,-2.653 -2.153,-4.807 -4.806,-4.807c-2.653,0 -4.807,2.154 -4.807,4.807c0,2.653 2.154,4.807 4.807,4.807c2.653,0 4.806,-2.154 4.806,-4.807Z" style="fill:#dcbcbc;"/><path d="M778.996,164.114c0,-3.714 -3.015,-6.729 -6.729,-6.729c-3.714,0 -6.73,3.015 -6.73,6.729c0,3.714 3.016,6.73 6.73,6.73c3.714,0 6.729,-3.016 6.729,-6.73Z" style="fill:#8f2727;"/><path d="M777.073,164.114c0,-2.653 -2.154,-4.806 -4.806,-4.806c-2.653,0 -4.807,2.153 -4.807,4.806c0,2.653 2.154,4.807 4.807,4.807c2.652,0 4.806,-2.154 4.806,-4.807Z" style="fill:#dcbcbc;"/><path d="M781.731,213.349c0,-3.714 -3.015,-6.73 -6.729,-6.73c-3.714,0 -6.729,3.016 -6.729,6.73c0,3.714 3.015,6.729 6.729,6.729c3.714,0 6.729,-3.015 6.729,-6.729Z" style="fill:#8f2727;"/><path d="M779.809,213.349c0,-2.653 -2.154,-4.807 -4.807,-4.807c-2.653,0 -4.807,2.154 -4.807,4.807c0,2.653 2.154,4.806 4.807,4.806c2.653,0 4.807,-2.153 4.807,-4.806Z" style="fill:#dcbcbc;"/><path d="M776.261,235.231c0,-3.714 -3.015,-6.73 -6.729,-6.73c-3.714,0 -6.73,3.016 -6.73,6.73c0,3.714 3.016,6.729 6.73,6.729c3.714,0 6.729,-3.015 6.729,-6.729Z" style="fill:#8f2727;"/><path d="M774.338,235.231c0,-2.653 -2.154,-4.807 -4.806,-4.807c-2.653,0 -4.807,2.154 -4.807,4.807c0,2.653 2.154,4.806 4.807,4.806c2.652,0 4.806,-2.153 4.806,-4.806Z" style="fill:#dcbcbc;"/><path d="M784.467,276.259c0,-3.714 -3.016,-6.729 -6.73,-6.729c-3.714,0 -6.729,3.015 -6.729,6.729c0,3.714 3.015,6.729 6.729,6.729c3.714,0 6.73,-3.015 6.73,-6.729Z" style="fill:#8f2727;"/><path d="M782.544,276.259c0,-2.653 -2.154,-4.806 -4.807,-4.806c-2.652,0 -4.806,2.153 -4.806,4.806c0,2.653 2.154,4.807 4.806,4.807c2.653,0 4.807,-2.154 4.807,-4.807Z" style="fill:#dcbcbc;"/><path d="M795.407,322.758c0,-3.714 -3.015,-6.729 -6.729,-6.729c-3.714,0 -6.729,3.015 -6.729,6.729c0,3.714 3.015,6.729 6.729,6.729c3.714,0 6.729,-3.015 6.729,-6.729Z" style="fill:#8f2727;"/><path d="M793.485,322.758c0,-2.653 -2.154,-4.807 -4.807,-4.807c-2.653,0 -4.806,2.154 -4.806,4.807c0,2.653 2.153,4.807 4.806,4.807c2.653,0 4.807,-2.154 4.807,-4.807Z" style="fill:#dcbcbc;"/><path d="M828.23,355.581c0,-3.714 -3.015,-6.729 -6.729,-6.729c-3.714,0 -6.729,3.015 -6.729,6.729c0,3.714 3.015,6.729 6.729,6.729c3.714,0 6.729,-3.015 6.729,-6.729Z" style="fill:#8f2727;"/><path d="M826.308,355.581c0,-2.653 -2.154,-4.807 -4.807,-4.807c-2.653,0 -4.807,2.154 -4.807,4.807c0,2.653 2.154,4.807 4.807,4.807c2.653,0 4.807,-2.154 4.807,-4.807Z" style="fill:#dcbcbc;"/></g></g><g><g><text x="1000.26px" y="813.628px" style="font-family:'ArialMT', 'Arial', sans-serif;font-size:28.491px;">iteration</text><g><path d="M765,493.639l0,267.755l581.25,0" style="fill:none;stroke:#000;stroke-width:1.03px;stroke-miterlimit:3.8;"/><path d="M765,517.951l5.85,0l5.931,0.064l11.7,0.253l5.85,0.19l5.931,0.253l5.85,0.317l5.849,0.38l5.85,0.443l5.931,0.57l5.85,0.759l5.85,0.887l5.85,1.076l5.931,1.33l5.85,1.583l5.85,2.026l5.85,2.342l5.931,2.913l5.85,3.482l5.85,4.179l5.931,4.938l5.85,5.762l5.85,6.648l5.849,7.597l5.932,8.611l5.849,9.497l5.85,10.321l5.85,10.953l5.931,11.523l5.85,11.713l5.85,11.777l5.85,11.523l5.931,11.08l5.85,10.447l5.85,9.623l5.85,8.801l5.931,7.851l5.85,7.028l5.85,6.078l5.931,5.318l5.85,4.559l5.849,3.926l5.85,3.292l5.931,2.786l5.85,2.406l5.85,1.962l5.85,1.71l5.931,1.393l5.85,1.203l5.85,1.013l5.85,0.823l5.931,0.76l11.7,1.139l5.85,0.443l5.931,0.38l11.699,0.633l5.85,0.254l5.931,0.253l11.7,0.38l5.931,0.19l5.85,0.126l5.85,0.19l5.85,0.127l5.931,0.127l5.85,0.126l5.85,0.064l5.85,0.126l5.931,0.127l5.85,0.063l5.85,0.127l5.849,0.063l5.932,0.127l11.699,0.126l5.85,0.127l5.931,0.063l11.7,0.127l5.931,0.063l5.85,0.127l11.7,0.126l5.931,0.064l17.55,0.19l5.931,0.063l17.549,0.19l5.931,0.063l17.55,0.19l5.931,0.064l5.85,0" style="fill:none;stroke:#bfbfbf;stroke-width:3.08px;stroke-miterlimit:3.8;stroke-dasharray:15.38,15.38;"/><path d="M765,517.951l5.85,0l5.931,0.064l11.7,0.253l5.85,0.19l5.931,0.253l5.85,0.317l5.849,0.38l5.85,0.443l5.931,0.57l5.85,0.759l5.85,0.887l5.85,1.076l5.931,1.33l5.85,1.583l5.85,2.026l5.85,2.342l5.931,2.913l5.85,3.482l5.85,4.179l5.931,4.938l5.85,5.762l5.85,6.648l5.849,7.597l5.932,8.611l5.849,9.497l5.85,10.321l5.85,10.953l5.931,11.523l5.85,11.713l5.85,11.777l5.85,11.523l5.931,11.08l5.85,10.447l5.85,9.623l5.85,8.801l5.931,7.851l5.85,7.028l5.85,6.078l5.931,5.318l5.85,4.559l5.849,3.926l5.85,3.292l5.931,2.786" style="fill:none;stroke:#000;stroke-width:3.08px;stroke-miterlimit:3.8;"/><path d="M765,493.639l0,267.755l581.25,0" style="fill:none;stroke:#000;stroke-width:1.03px;stroke-miterlimit:3.8;"/></g></g></g><g><clipPath id="_clip3"><rect x="1442.55" y="0" width="656.457" height="547.048" clip-rule="nonzero"/></clipPath><g clip-path="url(#_clip3)"><path d="M1497.25,273.524c0,-410.286 136.762,-136.762 273.524,-136.762c136.762,0 273.524,-82.057 273.524,136.762c0,218.819 -136.762,82.057 -273.524,82.057c-136.762,0 -273.524,54.705 -273.524,-82.057" style="fill:none;stroke:#8f2727;stroke-width:0.63px;"/><path d="M1497.25,273.524c0,-410.286 136.762,-136.762 273.524,-136.762c136.762,0 273.524,-82.057 273.524,136.762c0,218.819 -136.762,82.057 -273.524,82.057c-136.762,0 -273.524,54.705 -273.524,-82.057" style="fill:none;stroke:#8f2727;stroke-opacity:0.670588;stroke-width:9.34px;"/><path d="M1497.25,273.524c0,-410.286 136.762,-136.762 273.524,-136.762c136.762,0 273.524,-82.057 273.524,136.762c0,218.819 -136.762,82.057 -273.524,82.057c-136.762,0 -273.524,54.705 -273.524,-82.057" style="fill:none;stroke:#8f2727;stroke-opacity:0.45098;stroke-width:18.68px;"/><path d="M1497.25,273.524c0,-410.286 136.762,-136.762 273.524,-136.762c136.762,0 273.524,-82.057 273.524,136.762c0,218.819 -136.762,82.057 -273.524,82.057c-136.762,0 -273.524,54.705 -273.524,-82.057" style="fill:none;stroke:#8f2727;stroke-opacity:0.301961;stroke-width:28.02px;"/><path d="M1497.25,273.524c0,-410.286 136.762,-136.762 273.524,-136.762c136.762,0 273.524,-82.057 273.524,136.762c0,218.819 -136.762,82.057 -273.524,82.057c-136.762,0 -273.524,54.705 -273.524,-82.057" style="fill:none;stroke:#8f2727;stroke-opacity:0.2;stroke-width:37.36px;"/><path d="M1497.25,273.524c0,-410.286 136.762,-136.762 273.524,-136.762c136.762,0 273.524,-82.057 273.524,136.762c0,218.819 -136.762,82.057 -273.524,82.057c-136.762,0 -273.524,54.705 -273.524,-82.057" style="fill:none;stroke:#8f2727;stroke-opacity:0.137255;stroke-width:46.7px;"/><path d="M1497.25,273.524c0,-410.286 136.762,-136.762 273.524,-136.762c136.762,0 273.524,-82.057 273.524,136.762c0,218.819 -136.762,82.057 -273.524,82.057c-136.762,0 -273.524,54.705 -273.524,-82.057" style="fill:none;stroke:#8f2727;stroke-opacity:0.0901961;stroke-width:56.04px;"/><path d="M1497.25,273.524c0,-410.286 136.762,-136.762 273.524,-136.762c136.762,0 273.524,-82.057 273.524,136.762c0,218.819 -136.762,82.057 -273.524,82.057c-136.762,0 -273.524,54.705 -273.524,-82.057" style="fill:none;stroke:#8f2727;stroke-opacity:0.0627451;stroke-width:65.38px;"/><path d="M1497.25,273.524c0,-410.286 136.762,-136.762 273.524,-136.762c136.762,0 273.524,-82.057 273.524,136.762c0,218.819 -136.762,82.057 -273.524,82.057c-136.762,0 -273.524,54.705 -273.524,-82.057" style="fill:none;stroke:#8f2727;stroke-opacity:0.0392157;stroke-width:74.73px;"/><path d="M1497.25,273.524c0,-410.286 136.762,-136.762 273.524,-136.762c136.762,0 273.524,-82.057 273.524,136.762c0,218.819 -136.762,82.057 -273.524,82.057c-136.762,0 -273.524,54.705 -273.524,-82.057" style="fill:none;stroke:#8f2727;stroke-opacity:0.027451;stroke-width:84.07px;"/><path d="M1497.25,273.524c0,-410.286 136.762,-136.762 273.524,-136.762c136.762,0 273.524,-82.057 273.524,136.762c0,218.819 -136.762,82.057 -273.524,82.057c-136.762,0 -273.524,54.705 -273.524,-82.057" style="fill:none;stroke:#8f2727;stroke-opacity:0.0196078;stroke-width:93.41px;"/><path d="M1497.25,273.524c0,-410.286 136.762,-136.762 273.524,-136.762c136.762,0 273.524,-82.057 273.524,136.762c0,218.819 -136.762,82.057 -273.524,82.057c-136.762,0 -273.524,54.705 -273.524,-82.057" style="fill:none;stroke:#8f2727;stroke-opacity:0.0117647;stroke-width:102.75px;"/><path d="M1497.25,273.524c0,-410.286 136.762,-136.762 273.524,-136.762c136.762,0 273.524,-82.057 273.524,136.762c0,218.819 -136.762,82.057 -273.524,82.057c-136.762,0 -273.524,54.705 -273.524,-82.057" style="fill:none;stroke:#8f2727;stroke-opacity:0.00784314;stroke-width:112.09px;"/><path d="M1497.25,273.524c0,-410.286 136.762,-136.762 273.524,-136.762c136.762,0 273.524,-82.057 273.524,136.762c0,218.819 -136.762,82.057 -273.524,82.057c-136.762,0 -273.524,54.705 -273.524,-82.057" style="fill:none;stroke:#8f2727;stroke-opacity:0.00392157;stroke-width:121.43px;"/><path d="M1497.25,273.524c0,-410.286 136.762,-136.762 273.524,-136.762c136.762,0 273.524,-82.057 273.524,136.762c0,218.819 -136.762,82.057 -273.524,82.057c-136.762,0 -273.524,54.705 -273.524,-82.057" style="fill:none;stroke:#8f2727;stroke-opacity:0.00392157;stroke-width:130.77px;"/><path d="M1497.25,273.524c0,-410.286 136.762,-136.762 273.524,-136.762c136.762,0 273.524,-82.057 273.524,136.762c0,218.819 -136.762,82.057 -273.524,82.057c-136.762,0 -273.524,54.705 -273.524,-82.057" style="fill:none;stroke:#8f2727;stroke-opacity:0.00392157;stroke-width:140.11px;"/><path d="M1497.25,273.524c0,-410.286 136.762,-136.762 273.524,-136.762c136.762,0 273.524,-82.057 273.524,136.762c0,218.819 -136.762,82.057 -273.524,82.057c-136.762,0 -273.524,54.705 -273.524,-82.057" style="fill:none;stroke:#8f2727;stroke-opacity:0;stroke-width:149.45px;"/><path d="M1497.25,273.524c0,-410.286 136.762,-136.762 273.524,-136.762c136.762,0 273.524,-82.057 273.524,136.762c0,218.819 -136.762,82.057 -273.524,82.057c-136.762,0 -273.524,54.705 -273.524,-82.057" style="fill:none;stroke:#8f2727;stroke-opacity:0;stroke-width:158.79px;"/><path d="M1497.25,273.524c0,-410.286 136.762,-136.762 273.524,-136.762c136.762,0 273.524,-82.057 273.524,136.762c0,218.819 -136.762,82.057 -273.524,82.057c-136.762,0 -273.524,54.705 -273.524,-82.057" style="fill:none;stroke:#8f2727;stroke-opacity:0;stroke-width:168.13px;"/><path d="M1497.25,273.524c0,-410.286 136.762,-136.762 273.524,-136.762c136.762,0 273.524,-82.057 273.524,136.762c0,218.819 -136.762,82.057 -273.524,82.057c-136.762,0 -273.524,54.705 -273.524,-82.057" style="fill:none;stroke:#8f2727;stroke-opacity:0;stroke-width:177.47px;"/><path d="M1503.98,451.314c0,-3.714 -3.015,-6.729 -6.729,-6.729c-3.714,0 -6.729,3.015 -6.729,6.729c0,3.714 3.015,6.73 6.729,6.73c3.714,0 6.729,-3.016 6.729,-6.73Z" style="fill:#8f2727;"/><path d="M1502.06,451.314c0,-2.653 -2.154,-4.806 -4.807,-4.806c-2.653,0 -4.807,2.153 -4.807,4.806c0,2.653 2.154,4.807 4.807,4.807c2.653,0 4.807,-2.154 4.807,-4.807Z" style="fill:#dcbcbc;"/><path d="M1531.33,458.152c0,-3.714 -3.016,-6.729 -6.73,-6.729c-3.714,0 -6.729,3.015 -6.729,6.729c0,3.714 3.015,6.73 6.729,6.73c3.714,0 6.73,-3.016 6.73,-6.73Z" style="fill:#8f2727;"/><path d="M1529.41,458.152c0,-2.652 -2.154,-4.806 -4.807,-4.806c-2.652,0 -4.806,2.154 -4.806,4.806c0,2.653 2.154,4.807 4.806,4.807c2.653,0 4.807,-2.154 4.807,-4.807Z" style="fill:#dcbcbc;"/><path d="M1551.85,410.286c0,-3.714 -3.015,-6.73 -6.729,-6.73c-3.714,0 -6.73,3.016 -6.73,6.73c0,3.714 3.016,6.729 6.73,6.729c3.714,0 6.729,-3.015 6.729,-6.729Z" style="fill:#8f2727;"/><path d="M1549.92,410.286c0,-2.653 -2.153,-4.807 -4.806,-4.807c-2.653,0 -4.807,2.154 -4.807,4.807c0,2.653 2.154,4.806 4.807,4.806c2.653,0 4.806,-2.153 4.806,-4.806Z" style="fill:#dcbcbc;"/><path d="M1572.36,382.933c0,-3.714 -3.015,-6.729 -6.729,-6.729c-3.714,0 -6.729,3.015 -6.729,6.729c0,3.714 3.015,6.73 6.729,6.73c3.714,0 6.729,-3.016 6.729,-6.73Z" style="fill:#8f2727;"/><path d="M1570.44,382.933c0,-2.652 -2.154,-4.806 -4.807,-4.806c-2.653,0 -4.807,2.154 -4.807,4.806c0,2.653 2.154,4.807 4.807,4.807c2.653,0 4.807,-2.154 4.807,-4.807Z" style="fill:#dcbcbc;"/><path d="M1586.04,369.257c0,-3.714 -3.015,-6.729 -6.729,-6.729c-3.714,0 -6.729,3.015 -6.729,6.729c0,3.714 3.015,6.729 6.729,6.729c3.714,0 6.729,-3.015 6.729,-6.729Z" style="fill:#8f2727;"/><path d="M1584.12,369.257c0,-2.653 -2.154,-4.806 -4.807,-4.806c-2.653,0 -4.806,2.153 -4.806,4.806c0,2.653 2.153,4.807 4.806,4.807c2.653,0 4.807,-2.154 4.807,-4.807Z" style="fill:#dcbcbc;"/><path d="M1599.72,371.993c0,-3.714 -3.016,-6.73 -6.73,-6.73c-3.714,0 -6.729,3.016 -6.729,6.73c0,3.713 3.015,6.729 6.729,6.729c3.714,0 6.73,-3.016 6.73,-6.729Z" style="fill:#8f2727;"/><path d="M1597.79,371.993c0,-2.653 -2.154,-4.807 -4.807,-4.807c-2.652,0 -4.806,2.154 -4.806,4.807c0,2.652 2.154,4.806 4.806,4.806c2.653,0 4.807,-2.154 4.807,-4.806Z" style="fill:#dcbcbc;"/><path d="M1613.39,355.581c0,-3.714 -3.015,-6.729 -6.729,-6.729c-3.714,0 -6.73,3.015 -6.73,6.729c0,3.714 3.016,6.729 6.73,6.729c3.714,0 6.729,-3.015 6.729,-6.729Z" style="fill:#8f2727;"/><path d="M1611.47,355.581c0,-2.653 -2.154,-4.807 -4.806,-4.807c-2.653,0 -4.807,2.154 -4.807,4.807c0,2.653 2.154,4.807 4.807,4.807c2.652,0 4.806,-2.154 4.806,-4.807Z" style="fill:#dcbcbc;"/><path d="M1627.07,369.257c0,-3.714 -3.015,-6.729 -6.729,-6.729c-3.714,0 -6.73,3.015 -6.73,6.729c0,3.714 3.016,6.729 6.73,6.729c3.714,0 6.729,-3.015 6.729,-6.729Z" style="fill:#8f2727;"/><path d="M1625.14,369.257c0,-2.653 -2.153,-4.806 -4.806,-4.806c-2.653,0 -4.807,2.153 -4.807,4.806c0,2.653 2.154,4.807 4.807,4.807c2.653,0 4.806,-2.154 4.806,-4.807Z" style="fill:#dcbcbc;"/><path d="M1640.74,376.095c0,-3.714 -3.015,-6.729 -6.729,-6.729c-3.714,0 -6.729,3.015 -6.729,6.729c0,3.714 3.015,6.73 6.729,6.73c3.714,0 6.729,-3.016 6.729,-6.73Z" style="fill:#8f2727;"/><path d="M1638.82,376.095c0,-2.653 -2.154,-4.806 -4.807,-4.806c-2.653,0 -4.807,2.153 -4.807,4.806c0,2.653 2.154,4.807 4.807,4.807c2.653,0 4.807,-2.154 4.807,-4.807Z" style="fill:#dcbcbc;"/><path d="M1647.58,362.419c0,-3.714 -3.015,-6.729 -6.729,-6.729c-3.714,0 -6.729,3.015 -6.729,6.729c0,3.714 3.015,6.729 6.729,6.729c3.714,0 6.729,-3.015 6.729,-6.729Z" style="fill:#8f2727;"/><path d="M1645.66,362.419c0,-2.653 -2.154,-4.807 -4.807,-4.807c-2.653,0 -4.807,2.154 -4.807,4.807c0,2.653 2.154,4.807 4.807,4.807c2.653,0 4.807,-2.154 4.807,-4.807Z" style="fill:#dcbcbc;"/><path d="M1640.74,369.257c0,-3.714 -3.015,-6.729 -6.729,-6.729c-3.714,0 -6.729,3.015 -6.729,6.729c0,3.714 3.015,6.729 6.729,6.729c3.714,0 6.729,-3.015 6.729,-6.729Z" style="fill:#8f2727;"/><path d="M1638.82,369.257c0,-2.653 -2.154,-4.806 -4.807,-4.806c-2.653,0 -4.807,2.153 -4.807,4.806c0,2.653 2.154,4.807 4.807,4.807c2.653,0 4.807,-2.154 4.807,-4.807Z" style="fill:#dcbcbc;"/><path d="M1668.1,377.463c0,-3.714 -3.016,-6.729 -6.73,-6.729c-3.714,0 -6.729,3.015 -6.729,6.729c0,3.714 3.015,6.729 6.729,6.729c3.714,0 6.73,-3.015 6.73,-6.729Z" style="fill:#8f2727;"/><path d="M1666.17,377.463c0,-2.653 -2.154,-4.807 -4.807,-4.807c-2.653,0 -4.806,2.154 -4.806,4.807c0,2.653 2.153,4.807 4.806,4.807c2.653,0 4.807,-2.154 4.807,-4.807Z" style="fill:#dcbcbc;"/><path d="M1695.45,369.257c0,-3.714 -3.015,-6.729 -6.729,-6.729c-3.714,0 -6.73,3.015 -6.73,6.729c0,3.714 3.016,6.729 6.73,6.729c3.714,0 6.729,-3.015 6.729,-6.729Z" style="fill:#8f2727;"/><path d="M1693.53,369.257c0,-2.653 -2.153,-4.806 -4.806,-4.806c-2.653,0 -4.807,2.153 -4.807,4.806c0,2.653 2.154,4.807 4.807,4.807c2.653,0 4.806,-2.154 4.806,-4.807Z" style="fill:#dcbcbc;"/><path d="M1700.92,355.581c0,-3.714 -3.015,-6.729 -6.729,-6.729c-3.714,0 -6.729,3.015 -6.729,6.729c0,3.714 3.015,6.729 6.729,6.729c3.714,0 6.729,-3.015 6.729,-6.729Z" style="fill:#8f2727;"/><path d="M1699,355.581c0,-2.653 -2.154,-4.807 -4.807,-4.807c-2.653,0 -4.807,2.154 -4.807,4.807c0,2.653 2.154,4.807 4.807,4.807c2.653,0 4.807,-2.154 4.807,-4.807Z" style="fill:#dcbcbc;"/><path d="M1698.18,363.787c0,-3.714 -3.015,-6.73 -6.729,-6.73c-3.714,0 -6.729,3.016 -6.729,6.73c0,3.714 3.015,6.729 6.729,6.729c3.714,0 6.729,-3.015 6.729,-6.729Z" style="fill:#8f2727;"/><path d="M1696.26,363.787c0,-2.653 -2.154,-4.807 -4.807,-4.807c-2.653,0 -4.806,2.154 -4.806,4.807c0,2.653 2.153,4.806 4.806,4.806c2.653,0 4.807,-2.153 4.807,-4.806Z" style="fill:#dcbcbc;"/><path d="M1722.8,369.257c0,-3.714 -3.015,-6.729 -6.729,-6.729c-3.714,0 -6.729,3.015 -6.729,6.729c0,3.714 3.015,6.729 6.729,6.729c3.714,0 6.729,-3.015 6.729,-6.729Z" style="fill:#8f2727;"/><path d="M1720.88,369.257c0,-2.653 -2.154,-4.806 -4.807,-4.806c-2.653,0 -4.806,2.153 -4.806,4.806c0,2.653 2.153,4.807 4.806,4.807c2.653,0 4.807,-2.154 4.807,-4.807Z" style="fill:#dcbcbc;"/><path d="M1743.32,355.581c0,-3.714 -3.016,-6.729 -6.73,-6.729c-3.714,0 -6.729,3.015 -6.729,6.729c0,3.714 3.015,6.729 6.729,6.729c3.714,0 6.73,-3.015 6.73,-6.729Z" style="fill:#8f2727;"/><path d="M1741.39,355.581c0,-2.653 -2.154,-4.807 -4.807,-4.807c-2.652,0 -4.806,2.154 -4.806,4.807c0,2.653 2.154,4.807 4.806,4.807c2.653,0 4.807,-2.154 4.807,-4.807Z" style="fill:#dcbcbc;"/><path d="M1763.83,348.743c0,-3.714 -3.015,-6.729 -6.729,-6.729c-3.714,0 -6.73,3.015 -6.73,6.729c0,3.714 3.016,6.729 6.73,6.729c3.714,0 6.729,-3.015 6.729,-6.729Z" style="fill:#8f2727;"/><path d="M1761.91,348.743c0,-2.653 -2.153,-4.807 -4.806,-4.807c-2.653,0 -4.807,2.154 -4.807,4.807c0,2.653 2.154,4.806 4.807,4.806c2.653,0 4.806,-2.153 4.806,-4.806Z" style="fill:#dcbcbc;"/><path d="M1769.3,355.581c0,-3.714 -3.015,-6.729 -6.729,-6.729c-3.714,0 -6.729,3.015 -6.729,6.729c0,3.714 3.015,6.729 6.729,6.729c3.714,0 6.729,-3.015 6.729,-6.729Z" style="fill:#8f2727;"/><path d="M1767.38,355.581c0,-2.653 -2.154,-4.807 -4.807,-4.807c-2.653,0 -4.807,2.154 -4.807,4.807c0,2.653 2.154,4.807 4.807,4.807c2.653,0 4.807,-2.154 4.807,-4.807Z" style="fill:#dcbcbc;"/><path d="M1780.24,348.743c0,-3.714 -3.015,-6.729 -6.729,-6.729c-3.714,0 -6.729,3.015 -6.729,6.729c0,3.714 3.015,6.729 6.729,6.729c3.714,0 6.729,-3.015 6.729,-6.729Z" style="fill:#8f2727;"/><path d="M1778.32,348.743c0,-2.653 -2.154,-4.807 -4.807,-4.807c-2.653,0 -4.806,2.154 -4.806,4.807c0,2.653 2.153,4.806 4.806,4.806c2.653,0 4.807,-2.153 4.807,-4.806Z" style="fill:#dcbcbc;"/><path d="M1781.61,358.316c0,-3.714 -3.016,-6.729 -6.729,-6.729c-3.714,0 -6.73,3.015 -6.73,6.729c0,3.714 3.016,6.73 6.73,6.73c3.713,0 6.729,-3.016 6.729,-6.73Z" style="fill:#8f2727;"/><path d="M1779.68,358.316c0,-2.652 -2.154,-4.806 -4.806,-4.806c-2.653,0 -4.807,2.154 -4.807,4.806c0,2.653 2.154,4.807 4.807,4.807c2.652,0 4.806,-2.154 4.806,-4.807Z" style="fill:#dcbcbc;"/><path d="M1788.45,366.522c0,-3.714 -3.015,-6.73 -6.729,-6.73c-3.714,0 -6.73,3.016 -6.73,6.73c0,3.714 3.016,6.729 6.73,6.729c3.714,0 6.729,-3.015 6.729,-6.729Z" style="fill:#8f2727;"/><path d="M1786.52,366.522c0,-2.653 -2.154,-4.807 -4.806,-4.807c-2.653,0 -4.807,2.154 -4.807,4.807c0,2.653 2.154,4.806 4.807,4.806c2.652,0 4.806,-2.153 4.806,-4.806Z" style="fill:#dcbcbc;"/><path d="M1807.59,362.419c0,-3.714 -3.015,-6.729 -6.729,-6.729c-3.714,0 -6.73,3.015 -6.73,6.729c0,3.714 3.016,6.729 6.73,6.729c3.714,0 6.729,-3.015 6.729,-6.729Z" style="fill:#8f2727;"/><path d="M1805.67,362.419c0,-2.653 -2.154,-4.807 -4.806,-4.807c-2.653,0 -4.807,2.154 -4.807,4.807c0,2.653 2.154,4.807 4.807,4.807c2.652,0 4.806,-2.154 4.806,-4.807Z" style="fill:#dcbcbc;"/><path d="M1851.36,367.889c0,-3.714 -3.015,-6.729 -6.729,-6.729c-3.714,0 -6.729,3.015 -6.729,6.729c0,3.714 3.015,6.73 6.729,6.73c3.714,0 6.729,-3.016 6.729,-6.73Z" style="fill:#8f2727;"/><path d="M1849.43,367.889c0,-2.652 -2.154,-4.806 -4.807,-4.806c-2.653,0 -4.807,2.154 -4.807,4.806c0,2.653 2.154,4.807 4.807,4.807c2.653,0 4.807,-2.154 4.807,-4.807Z" style="fill:#dcbcbc;"/><path d="M1856.83,361.051c0,-3.714 -3.015,-6.729 -6.729,-6.729c-3.714,0 -6.73,3.015 -6.73,6.729c0,3.714 3.016,6.73 6.73,6.73c3.714,0 6.729,-3.016 6.729,-6.73Z" style="fill:#8f2727;"/><path d="M1854.9,361.051c0,-2.652 -2.154,-4.806 -4.806,-4.806c-2.653,0 -4.807,2.154 -4.807,4.806c0,2.653 2.154,4.807 4.807,4.807c2.652,0 4.806,-2.154 4.806,-4.807Z" style="fill:#dcbcbc;"/><path d="M1862.3,374.728c0,-3.714 -3.016,-6.73 -6.73,-6.73c-3.714,0 -6.729,3.016 -6.729,6.73c0,3.714 3.015,6.729 6.729,6.729c3.714,0 6.73,-3.015 6.73,-6.729Z" style="fill:#8f2727;"/><path d="M1860.38,374.728c0,-2.653 -2.154,-4.807 -4.807,-4.807c-2.652,0 -4.806,2.154 -4.806,4.807c0,2.652 2.154,4.806 4.806,4.806c2.653,0 4.807,-2.154 4.807,-4.806Z" style="fill:#dcbcbc;"/><path d="M1892.38,380.198c0,-3.714 -3.015,-6.729 -6.729,-6.729c-3.714,0 -6.73,3.015 -6.73,6.729c0,3.714 3.016,6.729 6.73,6.729c3.714,0 6.729,-3.015 6.729,-6.729Z" style="fill:#8f2727;"/><path d="M1890.46,380.198c0,-2.653 -2.153,-4.807 -4.806,-4.807c-2.653,0 -4.807,2.154 -4.807,4.807c0,2.653 2.154,4.807 4.807,4.807c2.653,0 4.806,-2.154 4.806,-4.807Z" style="fill:#dcbcbc;"/><path d="M1886.91,385.669c0,-3.714 -3.016,-6.73 -6.73,-6.73c-3.714,0 -6.729,3.016 -6.729,6.73c0,3.714 3.015,6.729 6.729,6.729c3.714,0 6.73,-3.015 6.73,-6.729Z" style="fill:#8f2727;"/><path d="M1884.99,385.669c0,-2.653 -2.154,-4.807 -4.807,-4.807c-2.652,0 -4.806,2.154 -4.806,4.807c0,2.653 2.154,4.806 4.806,4.806c2.653,0 4.807,-2.153 4.807,-4.806Z" style="fill:#dcbcbc;"/><path d="M1914.27,382.933c0,-3.714 -3.015,-6.729 -6.729,-6.729c-3.714,0 -6.73,3.015 -6.73,6.729c0,3.714 3.016,6.73 6.73,6.73c3.714,0 6.729,-3.016 6.729,-6.73Z" style="fill:#8f2727;"/><path d="M1912.34,382.933c0,-2.652 -2.153,-4.806 -4.806,-4.806c-2.653,0 -4.807,2.154 -4.807,4.806c0,2.653 2.154,4.807 4.807,4.807c2.653,0 4.806,-2.154 4.806,-4.807Z" style="fill:#dcbcbc;"/><path d="M1936.15,391.139c0,-3.714 -3.015,-6.729 -6.729,-6.729c-3.714,0 -6.73,3.015 -6.73,6.729c0,3.714 3.016,6.729 6.73,6.729c3.714,0 6.729,-3.015 6.729,-6.729Z" style="fill:#8f2727;"/><path d="M1934.23,391.139c0,-2.653 -2.153,-4.806 -4.806,-4.806c-2.653,0 -4.807,2.153 -4.807,4.806c0,2.653 2.154,4.807 4.807,4.807c2.653,0 4.806,-2.154 4.806,-4.807Z" style="fill:#dcbcbc;"/><path d="M1955.3,404.815c0,-3.714 -3.016,-6.729 -6.73,-6.729c-3.714,0 -6.729,3.015 -6.729,6.729c0,3.714 3.015,6.73 6.729,6.73c3.714,0 6.73,-3.016 6.73,-6.73Z" style="fill:#8f2727;"/><path d="M1953.37,404.815c0,-2.652 -2.154,-4.806 -4.807,-4.806c-2.653,0 -4.806,2.154 -4.806,4.806c0,2.653 2.153,4.807 4.806,4.807c2.653,0 4.807,-2.154 4.807,-4.807Z" style="fill:#dcbcbc;"/><path d="M1963.5,396.609c0,-3.714 -3.015,-6.729 -6.729,-6.729c-3.714,0 -6.729,3.015 -6.729,6.729c0,3.714 3.015,6.73 6.729,6.73c3.714,0 6.729,-3.016 6.729,-6.73Z" style="fill:#8f2727;"/><path d="M1961.58,396.609c0,-2.652 -2.154,-4.806 -4.807,-4.806c-2.653,0 -4.807,2.154 -4.807,4.806c0,2.653 2.154,4.807 4.807,4.807c2.653,0 4.807,-2.154 4.807,-4.807Z" style="fill:#dcbcbc;"/><path d="M1968.97,399.345c0,-3.714 -3.015,-6.729 -6.729,-6.729c-3.714,0 -6.73,3.015 -6.73,6.729c0,3.714 3.016,6.729 6.73,6.729c3.714,0 6.729,-3.015 6.729,-6.729Z" style="fill:#8f2727;"/><path d="M1967.05,399.345c0,-2.653 -2.154,-4.807 -4.806,-4.807c-2.653,0 -4.807,2.154 -4.807,4.807c0,2.653 2.154,4.807 4.807,4.807c2.652,0 4.806,-2.154 4.806,-4.807Z" style="fill:#dcbcbc;"/><path d="M1963.5,402.08c0,-3.714 -3.015,-6.729 -6.729,-6.729c-3.714,0 -6.729,3.015 -6.729,6.729c0,3.714 3.015,6.729 6.729,6.729c3.714,0 6.729,-3.015 6.729,-6.729Z" style="fill:#8f2727;"/><path d="M1961.58,402.08c0,-2.653 -2.154,-4.807 -4.807,-4.807c-2.653,0 -4.807,2.154 -4.807,4.807c0,2.653 2.154,4.807 4.807,4.807c2.653,0 4.807,-2.154 4.807,-4.807Z" style="fill:#dcbcbc;"/><path d="M1989.49,388.404c0,-3.714 -3.015,-6.73 -6.729,-6.73c-3.714,0 -6.729,3.016 -6.729,6.73c0,3.714 3.015,6.729 6.729,6.729c3.714,0 6.729,-3.015 6.729,-6.729Z" style="fill:#8f2727;"/><path d="M1987.56,388.404c0,-2.653 -2.153,-4.807 -4.806,-4.807c-2.653,0 -4.807,2.154 -4.807,4.807c0,2.653 2.154,4.806 4.807,4.806c2.653,0 4.806,-2.153 4.806,-4.806Z" style="fill:#dcbcbc;"/><path d="M2010,389.771c0,-3.714 -3.015,-6.729 -6.729,-6.729c-3.714,0 -6.729,3.015 -6.729,6.729c0,3.714 3.015,6.73 6.729,6.73c3.714,0 6.729,-3.016 6.729,-6.73Z" style="fill:#8f2727;"/><path d="M2008.08,389.771c0,-2.652 -2.154,-4.806 -4.807,-4.806c-2.653,0 -4.806,2.154 -4.806,4.806c0,2.653 2.153,4.807 4.806,4.807c2.653,0 4.807,-2.154 4.807,-4.807Z" style="fill:#dcbcbc;"/><path d="M2012.74,403.448c0,-3.714 -3.015,-6.73 -6.729,-6.73c-3.714,0 -6.73,3.016 -6.73,6.73c0,3.714 3.016,6.729 6.73,6.729c3.714,0 6.729,-3.015 6.729,-6.729Z" style="fill:#8f2727;"/><path d="M2010.81,403.448c0,-2.653 -2.154,-4.807 -4.806,-4.807c-2.653,0 -4.807,2.154 -4.807,4.807c0,2.652 2.154,4.806 4.807,4.806c2.652,0 4.806,-2.154 4.806,-4.806Z" style="fill:#dcbcbc;"/><path d="M2018.21,396.609c0,-3.714 -3.015,-6.729 -6.729,-6.729c-3.714,0 -6.729,3.015 -6.729,6.729c0,3.714 3.015,6.73 6.729,6.73c3.714,0 6.729,-3.016 6.729,-6.73Z" style="fill:#8f2727;"/><path d="M2016.28,396.609c0,-2.652 -2.154,-4.806 -4.807,-4.806c-2.653,0 -4.807,2.154 -4.807,4.806c0,2.653 2.154,4.807 4.807,4.807c2.653,0 4.807,-2.154 4.807,-4.807Z" style="fill:#dcbcbc;"/><path d="M2030.52,369.257c0,-3.714 -3.016,-6.729 -6.73,-6.729c-3.714,0 -6.729,3.015 -6.729,6.729c0,3.714 3.015,6.729 6.729,6.729c3.714,0 6.73,-3.015 6.73,-6.729Z" style="fill:#8f2727;"/><path d="M2028.59,369.257c0,-2.653 -2.154,-4.806 -4.807,-4.806c-2.652,0 -4.806,2.153 -4.806,4.806c0,2.653 2.154,4.807 4.806,4.807c2.653,0 4.807,-2.154 4.807,-4.807Z" style="fill:#dcbcbc;"/><path d="M2041.46,348.743c0,-3.714 -3.016,-6.729 -6.73,-6.729c-3.714,0 -6.729,3.015 -6.729,6.729c0,3.714 3.015,6.729 6.729,6.729c3.714,0 6.73,-3.015 6.73,-6.729Z" style="fill:#8f2727;"/><path d="M2039.53,348.743c0,-2.653 -2.154,-4.807 -4.807,-4.807c-2.653,0 -4.806,2.154 -4.806,4.807c0,2.653 2.153,4.806 4.806,4.806c2.653,0 4.807,-2.153 4.807,-4.806Z" style="fill:#dcbcbc;"/><path d="M2037.35,328.229c0,-3.714 -3.015,-6.73 -6.729,-6.73c-3.714,0 -6.73,3.016 -6.73,6.73c0,3.714 3.016,6.729 6.73,6.729c3.714,0 6.729,-3.015 6.729,-6.729Z" style="fill:#8f2727;"/><path d="M2035.43,328.229c0,-2.653 -2.154,-4.807 -4.806,-4.807c-2.653,0 -4.807,2.154 -4.807,4.807c0,2.652 2.154,4.806 4.807,4.806c2.652,0 4.806,-2.154 4.806,-4.806Z" style="fill:#dcbcbc;"/><path d="M2045.56,355.581c0,-3.714 -3.016,-6.729 -6.73,-6.729c-3.714,0 -6.729,3.015 -6.729,6.729c0,3.714 3.015,6.729 6.729,6.729c3.714,0 6.73,-3.015 6.73,-6.729Z" style="fill:#8f2727;"/><path d="M2043.64,355.581c0,-2.653 -2.154,-4.807 -4.807,-4.807c-2.653,0 -4.806,2.154 -4.806,4.807c0,2.653 2.153,4.807 4.806,4.807c2.653,0 4.807,-2.154 4.807,-4.807Z" style="fill:#dcbcbc;"/><path d="M2046.93,295.406c0,-3.714 -3.015,-6.729 -6.729,-6.729c-3.714,0 -6.729,3.015 -6.729,6.729c0,3.714 3.015,6.729 6.729,6.729c3.714,0 6.729,-3.015 6.729,-6.729Z" style="fill:#8f2727;"/><path d="M2045,295.406c0,-2.653 -2.154,-4.807 -4.807,-4.807c-2.653,0 -4.807,2.154 -4.807,4.807c0,2.653 2.154,4.806 4.807,4.806c2.653,0 4.807,-2.153 4.807,-4.806Z" style="fill:#dcbcbc;"/><path d="M2053.76,284.465c0,-3.714 -3.015,-6.73 -6.729,-6.73c-3.714,0 -6.729,3.016 -6.729,6.73c0,3.714 3.015,6.729 6.729,6.729c3.714,0 6.729,-3.015 6.729,-6.729Z" style="fill:#8f2727;"/><path d="M2051.84,284.465c0,-2.653 -2.154,-4.807 -4.807,-4.807c-2.653,0 -4.806,2.154 -4.806,4.807c0,2.652 2.153,4.806 4.806,4.806c2.653,0 4.807,-2.154 4.807,-4.806Z" style="fill:#dcbcbc;"/><path d="M2057.87,265.318c0,-3.714 -3.015,-6.729 -6.729,-6.729c-3.714,0 -6.73,3.015 -6.73,6.729c0,3.714 3.016,6.729 6.73,6.729c3.714,0 6.729,-3.015 6.729,-6.729Z" style="fill:#8f2727;"/><path d="M2055.94,265.318c0,-2.653 -2.153,-4.807 -4.806,-4.807c-2.653,0 -4.807,2.154 -4.807,4.807c0,2.653 2.154,4.807 4.807,4.807c2.653,0 4.806,-2.154 4.806,-4.807Z" style="fill:#dcbcbc;"/><path d="M2051.03,254.377c0,-3.714 -3.015,-6.729 -6.729,-6.729c-3.714,0 -6.73,3.015 -6.73,6.729c0,3.714 3.016,6.73 6.73,6.73c3.714,0 6.729,-3.016 6.729,-6.73Z" style="fill:#8f2727;"/><path d="M2049.11,254.377c0,-2.653 -2.153,-4.806 -4.806,-4.806c-2.653,0 -4.807,2.153 -4.807,4.806c0,2.653 2.154,4.807 4.807,4.807c2.653,0 4.806,-2.154 4.806,-4.807Z" style="fill:#dcbcbc;"/><path d="M2042.82,248.907c0,-3.714 -3.015,-6.729 -6.729,-6.729c-3.714,0 -6.729,3.015 -6.729,6.729c0,3.714 3.015,6.729 6.729,6.729c3.714,0 6.729,-3.015 6.729,-6.729Z" style="fill:#8f2727;"/><path d="M2040.9,248.907c0,-2.653 -2.154,-4.807 -4.807,-4.807c-2.653,0 -4.807,2.154 -4.807,4.807c0,2.653 2.154,4.807 4.807,4.807c2.653,0 4.807,-2.154 4.807,-4.807Z" style="fill:#dcbcbc;"/><path d="M2059.24,235.231c0,-3.714 -3.015,-6.73 -6.729,-6.73c-3.714,0 -6.73,3.016 -6.73,6.73c0,3.714 3.016,6.729 6.73,6.729c3.714,0 6.729,-3.015 6.729,-6.729Z" style="fill:#8f2727;"/><path d="M2057.31,235.231c0,-2.653 -2.154,-4.807 -4.806,-4.807c-2.653,0 -4.807,2.154 -4.807,4.807c0,2.653 2.154,4.806 4.807,4.806c2.652,0 4.806,-2.153 4.806,-4.806Z" style="fill:#dcbcbc;"/><path d="M2045.56,211.981c0,-3.714 -3.016,-6.729 -6.73,-6.729c-3.714,0 -6.729,3.015 -6.729,6.729c0,3.714 3.015,6.729 6.729,6.729c3.714,0 6.73,-3.015 6.73,-6.729Z" style="fill:#8f2727;"/><path d="M2043.64,211.981c0,-2.653 -2.154,-4.807 -4.807,-4.807c-2.653,0 -4.806,2.154 -4.806,4.807c0,2.653 2.153,4.807 4.806,4.807c2.653,0 4.807,-2.154 4.807,-4.807Z" style="fill:#dcbcbc;"/><path d="M2051.03,205.143c0,-3.714 -3.015,-6.729 -6.729,-6.729c-3.714,0 -6.73,3.015 -6.73,6.729c0,3.714 3.016,6.729 6.73,6.729c3.714,0 6.729,-3.015 6.729,-6.729Z" style="fill:#8f2727;"/><path d="M2049.11,205.143c0,-2.653 -2.153,-4.807 -4.806,-4.807c-2.653,0 -4.807,2.154 -4.807,4.807c0,2.653 2.154,4.807 4.807,4.807c2.653,0 4.806,-2.154 4.806,-4.807Z" style="fill:#dcbcbc;"/><path d="M2051.03,191.467c0,-3.714 -3.015,-6.73 -6.729,-6.73c-3.714,0 -6.73,3.016 -6.73,6.73c0,3.714 3.016,6.729 6.73,6.729c3.714,0 6.729,-3.015 6.729,-6.729Z" style="fill:#8f2727;"/><path d="M2049.11,191.467c0,-2.653 -2.153,-4.807 -4.806,-4.807c-2.653,0 -4.807,2.154 -4.807,4.807c0,2.653 2.154,4.806 4.807,4.806c2.653,0 4.806,-2.153 4.806,-4.806Z" style="fill:#dcbcbc;"/><path d="M2040.09,170.952c0,-3.714 -3.015,-6.729 -6.729,-6.729c-3.714,0 -6.729,3.015 -6.729,6.729c0,3.714 3.015,6.73 6.729,6.73c3.714,0 6.729,-3.016 6.729,-6.73Z" style="fill:#8f2727;"/><path d="M2038.17,170.952c0,-2.652 -2.154,-4.806 -4.807,-4.806c-2.653,0 -4.807,2.154 -4.807,4.806c0,2.653 2.154,4.807 4.807,4.807c2.653,0 4.807,-2.154 4.807,-4.807Z" style="fill:#dcbcbc;"/><path d="M2026.41,153.173c0,-3.714 -3.015,-6.729 -6.729,-6.729c-3.714,0 -6.73,3.015 -6.73,6.729c0,3.714 3.016,6.73 6.73,6.73c3.714,0 6.729,-3.016 6.729,-6.73Z" style="fill:#8f2727;"/><path d="M2024.49,153.173c0,-2.652 -2.153,-4.806 -4.806,-4.806c-2.653,0 -4.807,2.154 -4.807,4.806c0,2.653 2.154,4.807 4.807,4.807c2.653,0 4.806,-2.154 4.806,-4.807Z" style="fill:#dcbcbc;"/><path d="M2026.41,161.379c0,-3.714 -3.015,-6.729 -6.729,-6.729c-3.714,0 -6.73,3.015 -6.73,6.729c0,3.714 3.016,6.729 6.73,6.729c3.714,0 6.729,-3.015 6.729,-6.729Z" style="fill:#8f2727;"/><path d="M2024.49,161.379c0,-2.653 -2.153,-4.807 -4.806,-4.807c-2.653,0 -4.807,2.154 -4.807,4.807c0,2.653 2.154,4.807 4.807,4.807c2.653,0 4.806,-2.154 4.806,-4.807Z" style="fill:#dcbcbc;"/><path d="M2010,143.6c0,-3.714 -3.015,-6.729 -6.729,-6.729c-3.714,0 -6.729,3.015 -6.729,6.729c0,3.714 3.015,6.729 6.729,6.729c3.714,0 6.729,-3.015 6.729,-6.729Z" style="fill:#8f2727;"/><path d="M2008.08,143.6c0,-2.653 -2.154,-4.807 -4.807,-4.807c-2.653,0 -4.806,2.154 -4.806,4.807c0,2.653 2.153,4.807 4.806,4.807c2.653,0 4.807,-2.154 4.807,-4.807Z" style="fill:#dcbcbc;"/><path d="M1999.06,116.248c0,-3.714 -3.016,-6.73 -6.73,-6.73c-3.714,0 -6.729,3.016 -6.729,6.73c0,3.714 3.015,6.729 6.729,6.729c3.714,0 6.73,-3.015 6.73,-6.729Z" style="fill:#8f2727;"/><path d="M1997.14,116.248c0,-2.653 -2.154,-4.807 -4.807,-4.807c-2.653,0 -4.806,2.154 -4.806,4.807c0,2.652 2.153,4.806 4.806,4.806c2.653,0 4.807,-2.154 4.807,-4.806Z" style="fill:#dcbcbc;"/><path d="M1988.12,131.292c0,-3.714 -3.015,-6.73 -6.729,-6.73c-3.714,0 -6.729,3.016 -6.729,6.73c0,3.714 3.015,6.729 6.729,6.729c3.714,0 6.729,-3.015 6.729,-6.729Z" style="fill:#8f2727;"/><path d="M1986.2,131.292c0,-2.653 -2.154,-4.807 -4.807,-4.807c-2.653,0 -4.807,2.154 -4.807,4.807c0,2.652 2.154,4.806 4.807,4.806c2.653,0 4.807,-2.154 4.807,-4.806Z" style="fill:#dcbcbc;"/><path d="M1977.18,128.556c0,-3.714 -3.016,-6.729 -6.73,-6.729c-3.714,0 -6.729,3.015 -6.729,6.729c0,3.714 3.015,6.729 6.729,6.729c3.714,0 6.73,-3.015 6.73,-6.729Z" style="fill:#8f2727;"/><path d="M1975.26,128.556c0,-2.653 -2.154,-4.807 -4.807,-4.807c-2.653,0 -4.806,2.154 -4.806,4.807c0,2.653 2.153,4.807 4.806,4.807c2.653,0 4.807,-2.154 4.807,-4.807Z" style="fill:#dcbcbc;"/><path d="M1958.03,114.88c0,-3.714 -3.015,-6.729 -6.729,-6.729c-3.714,0 -6.73,3.015 -6.73,6.729c0,3.714 3.016,6.729 6.73,6.729c3.714,0 6.729,-3.015 6.729,-6.729Z" style="fill:#8f2727;"/><path d="M1956.11,114.88c0,-2.653 -2.153,-4.807 -4.806,-4.807c-2.653,0 -4.807,2.154 -4.807,4.807c0,2.653 2.154,4.807 4.807,4.807c2.653,0 4.806,-2.154 4.806,-4.807Z" style="fill:#dcbcbc;"/><path d="M1941.62,109.41c0,-3.714 -3.015,-6.73 -6.729,-6.73c-3.714,0 -6.729,3.016 -6.729,6.73c0,3.714 3.015,6.729 6.729,6.729c3.714,0 6.729,-3.015 6.729,-6.729Z" style="fill:#8f2727;"/><path d="M1939.7,109.41c0,-2.653 -2.154,-4.807 -4.807,-4.807c-2.653,0 -4.806,2.154 -4.806,4.807c0,2.652 2.153,4.806 4.806,4.806c2.653,0 4.807,-2.154 4.807,-4.806Z" style="fill:#dcbcbc;"/><path d="M1921.11,124.453c0,-3.714 -3.015,-6.729 -6.729,-6.729c-3.714,0 -6.729,3.015 -6.729,6.729c0,3.714 3.015,6.73 6.729,6.73c3.714,0 6.729,-3.016 6.729,-6.73Z" style="fill:#8f2727;"/><path d="M1919.18,124.453c0,-2.652 -2.154,-4.806 -4.807,-4.806c-2.653,0 -4.807,2.154 -4.807,4.806c0,2.653 2.154,4.807 4.807,4.807c2.653,0 4.807,-2.154 4.807,-4.807Z" style="fill:#dcbcbc;"/><path d="M1907.43,116.248c0,-3.714 -3.015,-6.73 -6.729,-6.73c-3.714,0 -6.73,3.016 -6.73,6.73c0,3.714 3.016,6.729 6.73,6.729c3.714,0 6.729,-3.015 6.729,-6.729Z" style="fill:#8f2727;"/><path d="M1905.51,116.248c0,-2.653 -2.153,-4.807 -4.806,-4.807c-2.653,0 -4.807,2.154 -4.807,4.807c0,2.652 2.154,4.806 4.807,4.806c2.653,0 4.806,-2.154 4.806,-4.806Z" style="fill:#dcbcbc;"/><path d="M1873.24,129.103c0,-3.714 -3.016,-6.729 -6.73,-6.729c-3.714,0 -6.729,3.015 -6.729,6.729c0,3.714 3.015,6.73 6.729,6.73c3.714,0 6.73,-3.016 6.73,-6.73Z" style="fill:#8f2727;"/><path d="M1871.32,129.103c0,-2.653 -2.154,-4.806 -4.807,-4.806c-2.653,0 -4.806,2.153 -4.806,4.806c0,2.653 2.153,4.807 4.806,4.807c2.653,0 4.807,-2.154 4.807,-4.807Z" style="fill:#dcbcbc;"/><path d="M1914.27,118.983c0,-3.714 -3.015,-6.729 -6.729,-6.729c-3.714,0 -6.73,3.015 -6.73,6.729c0,3.714 3.016,6.729 6.73,6.729c3.714,0 6.729,-3.015 6.729,-6.729Z" style="fill:#8f2727;"/><path d="M1912.34,118.983c0,-2.653 -2.153,-4.807 -4.806,-4.807c-2.653,0 -4.807,2.154 -4.807,4.807c0,2.653 2.154,4.807 4.807,4.807c2.653,0 4.806,-2.154 4.806,-4.807Z" style="fill:#dcbcbc;"/><path d="M1859.56,123.086c0,-3.714 -3.015,-6.73 -6.729,-6.73c-3.714,0 -6.729,3.016 -6.729,6.73c0,3.714 3.015,6.729 6.729,6.729c3.714,0 6.729,-3.015 6.729,-6.729Z" style="fill:#8f2727;"/><path d="M1857.64,123.086c0,-2.653 -2.154,-4.807 -4.807,-4.807c-2.653,0 -4.807,2.154 -4.807,4.807c0,2.653 2.154,4.806 4.807,4.806c2.653,0 4.807,-2.153 4.807,-4.806Z" style="fill:#dcbcbc;"/><path d="M1852.72,128.556c0,-3.714 -3.015,-6.729 -6.729,-6.729c-3.714,0 -6.729,3.015 -6.729,6.729c0,3.714 3.015,6.729 6.729,6.729c3.714,0 6.729,-3.015 6.729,-6.729Z" style="fill:#8f2727;"/><path d="M1850.8,128.556c0,-2.653 -2.154,-4.807 -4.807,-4.807c-2.653,0 -4.807,2.154 -4.807,4.807c0,2.653 2.154,4.807 4.807,4.807c2.653,0 4.807,-2.154 4.807,-4.807Z" style="fill:#dcbcbc;"/><path d="M1839.05,142.232c0,-3.714 -3.015,-6.729 -6.729,-6.729c-3.714,0 -6.73,3.015 -6.73,6.729c0,3.714 3.016,6.73 6.73,6.73c3.714,0 6.729,-3.016 6.729,-6.73Z" style="fill:#8f2727;"/><path d="M1837.12,142.232c0,-2.653 -2.154,-4.806 -4.806,-4.806c-2.653,0 -4.807,2.153 -4.807,4.806c0,2.653 2.154,4.807 4.807,4.807c2.652,0 4.806,-2.154 4.806,-4.807Z" style="fill:#dcbcbc;"/><path d="M1832.21,131.292c0,-3.714 -3.015,-6.73 -6.729,-6.73c-3.714,0 -6.73,3.016 -6.73,6.73c0,3.714 3.016,6.729 6.73,6.729c3.714,0 6.729,-3.015 6.729,-6.729Z" style="fill:#8f2727;"/><path d="M1830.29,131.292c0,-2.653 -2.154,-4.807 -4.806,-4.807c-2.653,0 -4.807,2.154 -4.807,4.807c0,2.652 2.154,4.806 4.807,4.806c2.652,0 4.806,-2.154 4.806,-4.806Z" style="fill:#dcbcbc;"/><path d="M1825.37,139.497c0,-3.714 -3.016,-6.729 -6.73,-6.729c-3.714,0 -6.729,3.015 -6.729,6.729c0,3.714 3.015,6.73 6.729,6.73c3.714,0 6.73,-3.016 6.73,-6.73Z" style="fill:#8f2727;"/><path d="M1823.45,139.497c0,-2.652 -2.154,-4.806 -4.807,-4.806c-2.652,0 -4.806,2.154 -4.806,4.806c0,2.653 2.154,4.807 4.806,4.807c2.653,0 4.807,-2.154 4.807,-4.807Z" style="fill:#dcbcbc;"/><path d="M1818.53,134.027c0,-3.714 -3.016,-6.73 -6.73,-6.73c-3.714,0 -6.729,3.016 -6.729,6.73c0,3.713 3.015,6.729 6.729,6.729c3.714,0 6.73,-3.016 6.73,-6.729Z" style="fill:#8f2727;"/><path d="M1816.61,134.027c0,-2.653 -2.154,-4.807 -4.807,-4.807c-2.652,0 -4.806,2.154 -4.806,4.807c0,2.652 2.154,4.806 4.806,4.806c2.653,0 4.807,-2.154 4.807,-4.806Z" style="fill:#dcbcbc;"/><path d="M1799.39,131.292c0,-3.714 -3.015,-6.73 -6.729,-6.73c-3.714,0 -6.729,3.016 -6.729,6.73c0,3.714 3.015,6.729 6.729,6.729c3.714,0 6.729,-3.015 6.729,-6.729Z" style="fill:#8f2727;"/><path d="M1797.46,131.292c0,-2.653 -2.153,-4.807 -4.806,-4.807c-2.653,0 -4.807,2.154 -4.807,4.807c0,2.652 2.154,4.806 4.807,4.806c2.653,0 4.806,-2.154 4.806,-4.806Z" style="fill:#dcbcbc;"/><path d="M1777.51,144.968c0,-3.714 -3.015,-6.73 -6.729,-6.73c-3.714,0 -6.729,3.016 -6.729,6.73c0,3.714 3.015,6.729 6.729,6.729c3.714,0 6.729,-3.015 6.729,-6.729Z" style="fill:#8f2727;"/><path d="M1775.58,144.968c0,-2.653 -2.154,-4.807 -4.807,-4.807c-2.653,0 -4.807,2.154 -4.807,4.807c0,2.653 2.154,4.806 4.807,4.806c2.653,0 4.807,-2.153 4.807,-4.806Z" style="fill:#dcbcbc;"/><path d="M1761.09,136.762c0,-3.714 -3.016,-6.729 -6.73,-6.729c-3.714,0 -6.729,3.015 -6.729,6.729c0,3.714 3.015,6.729 6.729,6.729c3.714,0 6.73,-3.015 6.73,-6.729Z" style="fill:#8f2727;"/><path d="M1759.17,136.762c0,-2.653 -2.154,-4.807 -4.807,-4.807c-2.653,0 -4.806,2.154 -4.806,4.807c0,2.653 2.153,4.807 4.806,4.807c2.653,0 4.807,-2.154 4.807,-4.807Z" style="fill:#dcbcbc;"/><path d="M1743.32,131.292c0,-3.714 -3.016,-6.73 -6.73,-6.73c-3.714,0 -6.729,3.016 -6.729,6.73c0,3.714 3.015,6.729 6.729,6.729c3.714,0 6.73,-3.015 6.73,-6.729Z" style="fill:#8f2727;"/><path d="M1741.39,131.292c0,-2.653 -2.154,-4.807 -4.807,-4.807c-2.652,0 -4.806,2.154 -4.806,4.807c0,2.652 2.154,4.806 4.806,4.806c2.653,0 4.807,-2.154 4.807,-4.806Z" style="fill:#dcbcbc;"/><path d="M1735.11,125.821c0,-3.714 -3.015,-6.729 -6.729,-6.729c-3.714,0 -6.73,3.015 -6.73,6.729c0,3.714 3.016,6.729 6.73,6.729c3.714,0 6.729,-3.015 6.729,-6.729Z" style="fill:#8f2727;"/><path d="M1733.19,125.821c0,-2.653 -2.153,-4.806 -4.806,-4.806c-2.653,0 -4.807,2.153 -4.807,4.806c0,2.653 2.154,4.807 4.807,4.807c2.653,0 4.806,-2.154 4.806,-4.807Z" style="fill:#dcbcbc;"/><path d="M1726.9,136.762c0,-3.714 -3.015,-6.729 -6.729,-6.729c-3.714,0 -6.729,3.015 -6.729,6.729c0,3.714 3.015,6.729 6.729,6.729c3.714,0 6.729,-3.015 6.729,-6.729Z" style="fill:#8f2727;"/><path d="M1724.98,136.762c0,-2.653 -2.153,-4.807 -4.806,-4.807c-2.653,0 -4.807,2.154 -4.807,4.807c0,2.653 2.154,4.807 4.807,4.807c2.653,0 4.806,-2.154 4.806,-4.807Z" style="fill:#dcbcbc;"/><path d="M1702.29,123.086c0,-3.714 -3.015,-6.73 -6.729,-6.73c-3.714,0 -6.729,3.016 -6.729,6.73c0,3.714 3.015,6.729 6.729,6.729c3.714,0 6.729,-3.015 6.729,-6.729Z" style="fill:#8f2727;"/><path d="M1700.36,123.086c0,-2.653 -2.153,-4.807 -4.806,-4.807c-2.653,0 -4.807,2.154 -4.807,4.807c0,2.653 2.154,4.806 4.807,4.806c2.653,0 4.806,-2.153 4.806,-4.806Z" style="fill:#dcbcbc;"/><path d="M1681.77,92.998c0,-3.714 -3.016,-6.729 -6.73,-6.729c-3.713,0 -6.729,3.015 -6.729,6.729c0,3.714 3.016,6.729 6.729,6.729c3.714,0 6.73,-3.015 6.73,-6.729Z" style="fill:#8f2727;"/><path d="M1679.85,92.998c0,-2.653 -2.154,-4.807 -4.806,-4.807c-2.653,0 -4.807,2.154 -4.807,4.807c0,2.653 2.154,4.807 4.807,4.807c2.652,0 4.806,-2.154 4.806,-4.807Z" style="fill:#dcbcbc;"/><path d="M1661.26,95.733c0,-3.714 -3.016,-6.729 -6.73,-6.729c-3.714,0 -6.729,3.015 -6.729,6.729c0,3.714 3.015,6.73 6.729,6.73c3.714,0 6.73,-3.016 6.73,-6.73Z" style="fill:#8f2727;"/><path d="M1659.34,95.733c0,-2.653 -2.154,-4.806 -4.807,-4.806c-2.653,0 -4.806,2.153 -4.806,4.806c0,2.653 2.153,4.807 4.806,4.807c2.653,0 4.807,-2.154 4.807,-4.807Z" style="fill:#dcbcbc;"/><path d="M1643.48,76.587c0,-3.714 -3.016,-6.73 -6.73,-6.73c-3.714,0 -6.729,3.016 -6.729,6.73c0,3.714 3.015,6.729 6.729,6.729c3.714,0 6.73,-3.015 6.73,-6.729Z" style="fill:#8f2727;"/><path d="M1641.56,76.587c0,-2.653 -2.154,-4.807 -4.807,-4.807c-2.652,0 -4.806,2.154 -4.806,4.807c0,2.653 2.154,4.806 4.806,4.806c2.653,0 4.807,-2.153 4.807,-4.806Z" style="fill:#dcbcbc;"/><path d="M1635.27,82.057c0,-3.714 -3.015,-6.729 -6.729,-6.729c-3.714,0 -6.73,3.015 -6.73,6.729c0,3.714 3.016,6.729 6.73,6.729c3.714,0 6.729,-3.015 6.729,-6.729Z" style="fill:#8f2727;"/><path d="M1633.35,82.057c0,-2.653 -2.154,-4.807 -4.806,-4.807c-2.653,0 -4.807,2.154 -4.807,4.807c0,2.653 2.154,4.807 4.807,4.807c2.652,0 4.806,-2.154 4.806,-4.807Z" style="fill:#dcbcbc;"/><path d="M1620.23,71.116c0,-3.714 -3.015,-6.729 -6.729,-6.729c-3.714,0 -6.73,3.015 -6.73,6.729c0,3.714 3.016,6.73 6.73,6.73c3.714,0 6.729,-3.016 6.729,-6.73Z" style="fill:#8f2727;"/><path d="M1618.31,71.116c0,-2.653 -2.154,-4.806 -4.806,-4.806c-2.653,0 -4.807,2.153 -4.807,4.806c0,2.653 2.154,4.807 4.807,4.807c2.652,0 4.806,-2.154 4.806,-4.807Z" style="fill:#dcbcbc;"/><path d="M1613.39,57.44c0,-3.714 -3.015,-6.729 -6.729,-6.729c-3.714,0 -6.73,3.015 -6.73,6.729c0,3.714 3.016,6.729 6.73,6.729c3.714,0 6.729,-3.015 6.729,-6.729Z" style="fill:#8f2727;"/><path d="M1611.47,57.44c0,-2.653 -2.154,-4.806 -4.806,-4.806c-2.653,0 -4.807,2.153 -4.807,4.806c0,2.653 2.154,4.807 4.807,4.807c2.652,0 4.806,-2.154 4.806,-4.807Z" style="fill:#dcbcbc;"/><path d="M1606.55,60.175c0,-3.714 -3.016,-6.729 -6.73,-6.729c-3.714,0 -6.729,3.015 -6.729,6.729c0,3.714 3.015,6.729 6.729,6.729c3.714,0 6.73,-3.015 6.73,-6.729Z" style="fill:#8f2727;"/><path d="M1604.63,60.175c0,-2.653 -2.154,-4.807 -4.807,-4.807c-2.652,0 -4.806,2.154 -4.806,4.807c0,2.653 2.154,4.807 4.806,4.807c2.653,0 4.807,-2.154 4.807,-4.807Z" style="fill:#dcbcbc;"/><path d="M1599.72,68.381c0,-3.714 -3.016,-6.729 -6.73,-6.729c-3.714,0 -6.729,3.015 -6.729,6.729c0,3.714 3.015,6.729 6.729,6.729c3.714,0 6.73,-3.015 6.73,-6.729Z" style="fill:#8f2727;"/><path d="M1597.79,68.381c0,-2.653 -2.154,-4.807 -4.807,-4.807c-2.652,0 -4.806,2.154 -4.806,4.807c0,2.653 2.154,4.807 4.806,4.807c2.653,0 4.807,-2.154 4.807,-4.807Z" style="fill:#dcbcbc;"/><path d="M1592.88,54.705c0,-3.714 -3.016,-6.73 -6.73,-6.73c-3.714,0 -6.729,3.016 -6.729,6.73c0,3.714 3.015,6.729 6.729,6.729c3.714,0 6.73,-3.015 6.73,-6.729Z" style="fill:#8f2727;"/><path d="M1590.95,54.705c0,-2.653 -2.154,-4.807 -4.807,-4.807c-2.653,0 -4.806,2.154 -4.806,4.807c0,2.653 2.153,4.806 4.806,4.806c2.653,0 4.807,-2.153 4.807,-4.806Z" style="fill:#dcbcbc;"/><path d="M1572.36,41.029c0,-3.714 -3.015,-6.73 -6.729,-6.73c-3.714,0 -6.729,3.016 -6.729,6.73c0,3.714 3.015,6.729 6.729,6.729c3.714,0 6.729,-3.015 6.729,-6.729Z" style="fill:#8f2727;"/><path d="M1570.44,41.029c0,-2.653 -2.154,-4.807 -4.807,-4.807c-2.653,0 -4.807,2.154 -4.807,4.807c0,2.652 2.154,4.806 4.807,4.806c2.653,0 4.807,-2.154 4.807,-4.806Z" style="fill:#dcbcbc;"/><path d="M1551.85,54.705c0,-3.714 -3.015,-6.73 -6.729,-6.73c-3.714,0 -6.73,3.016 -6.73,6.73c0,3.714 3.016,6.729 6.73,6.729c3.714,0 6.729,-3.015 6.729,-6.729Z" style="fill:#8f2727;"/><path d="M1549.92,54.705c0,-2.653 -2.153,-4.807 -4.806,-4.807c-2.653,0 -4.807,2.154 -4.807,4.807c0,2.653 2.154,4.806 4.807,4.806c2.653,0 4.806,-2.153 4.806,-4.806Z" style="fill:#dcbcbc;"/><path d="M1540.91,60.175c0,-3.714 -3.015,-6.729 -6.729,-6.729c-3.714,0 -6.729,3.015 -6.729,6.729c0,3.714 3.015,6.729 6.729,6.729c3.714,0 6.729,-3.015 6.729,-6.729Z" style="fill:#8f2727;"/><path d="M1538.99,60.175c0,-2.653 -2.154,-4.807 -4.807,-4.807c-2.653,0 -4.807,2.154 -4.807,4.807c0,2.653 2.154,4.807 4.807,4.807c2.653,0 4.807,-2.154 4.807,-4.807Z" style="fill:#dcbcbc;"/><path d="M1547.75,62.911c0,-3.714 -3.015,-6.73 -6.729,-6.73c-3.714,0 -6.729,3.016 -6.729,6.73c0,3.714 3.015,6.729 6.729,6.729c3.714,0 6.729,-3.015 6.729,-6.729Z" style="fill:#8f2727;"/><path d="M1545.82,62.911c0,-2.653 -2.154,-4.807 -4.807,-4.807c-2.653,0 -4.807,2.154 -4.807,4.807c0,2.652 2.154,4.806 4.807,4.806c2.653,0 4.807,-2.154 4.807,-4.806Z" style="fill:#dcbcbc;"/><path d="M1525.86,82.057c0,-3.714 -3.015,-6.729 -6.729,-6.729c-3.714,0 -6.729,3.015 -6.729,6.729c0,3.714 3.015,6.729 6.729,6.729c3.714,0 6.729,-3.015 6.729,-6.729Z" style="fill:#8f2727;"/><path d="M1523.94,82.057c0,-2.653 -2.154,-4.807 -4.807,-4.807c-2.653,0 -4.807,2.154 -4.807,4.807c0,2.653 2.154,4.807 4.807,4.807c2.653,0 4.807,-2.154 4.807,-4.807Z" style="fill:#dcbcbc;"/><path d="M1517.66,88.895c0,-3.714 -3.015,-6.729 -6.729,-6.729c-3.714,0 -6.729,3.015 -6.729,6.729c0,3.714 3.015,6.73 6.729,6.73c3.714,0 6.729,-3.016 6.729,-6.73Z" style="fill:#8f2727;"/><path d="M1515.74,88.895c0,-2.653 -2.154,-4.806 -4.807,-4.806c-2.653,0 -4.806,2.153 -4.806,4.806c0,2.653 2.153,4.807 4.806,4.807c2.653,0 4.807,-2.154 4.807,-4.807Z" style="fill:#dcbcbc;"/><path d="M1503.98,109.41c0,-3.714 -3.015,-6.73 -6.729,-6.73c-3.714,0 -6.729,3.016 -6.729,6.73c0,3.714 3.015,6.729 6.729,6.729c3.714,0 6.729,-3.015 6.729,-6.729Z" style="fill:#8f2727;"/><path d="M1502.06,109.41c0,-2.653 -2.154,-4.807 -4.807,-4.807c-2.653,0 -4.807,2.154 -4.807,4.807c0,2.652 2.154,4.806 4.807,4.806c2.653,0 4.807,-2.154 4.807,-4.806Z" style="fill:#dcbcbc;"/><path d="M1512.19,128.556c0,-3.714 -3.015,-6.729 -6.729,-6.729c-3.714,0 -6.73,3.015 -6.73,6.729c0,3.714 3.016,6.729 6.73,6.729c3.714,0 6.729,-3.015 6.729,-6.729Z" style="fill:#8f2727;"/><path d="M1510.26,128.556c0,-2.653 -2.153,-4.807 -4.806,-4.807c-2.653,0 -4.807,2.154 -4.807,4.807c0,2.653 2.154,4.807 4.807,4.807c2.653,0 4.806,-2.154 4.806,-4.807Z" style="fill:#dcbcbc;"/><path d="M1514.92,136.762c0,-3.714 -3.015,-6.729 -6.729,-6.729c-3.714,0 -6.73,3.015 -6.73,6.729c0,3.714 3.016,6.729 6.73,6.729c3.714,0 6.729,-3.015 6.729,-6.729Z" style="fill:#8f2727;"/><path d="M1513,136.762c0,-2.653 -2.153,-4.807 -4.806,-4.807c-2.653,0 -4.807,2.154 -4.807,4.807c0,2.653 2.154,4.807 4.807,4.807c2.653,0 4.806,-2.154 4.806,-4.807Z" style="fill:#dcbcbc;"/><path d="M1506.72,143.6c0,-3.714 -3.016,-6.729 -6.73,-6.729c-3.714,0 -6.729,3.015 -6.729,6.729c0,3.714 3.015,6.729 6.729,6.729c3.714,0 6.73,-3.015 6.73,-6.729Z" style="fill:#8f2727;"/><path d="M1504.79,143.6c0,-2.653 -2.154,-4.807 -4.807,-4.807c-2.652,0 -4.806,2.154 -4.806,4.807c0,2.653 2.154,4.807 4.806,4.807c2.653,0 4.807,-2.154 4.807,-4.807Z" style="fill:#dcbcbc;"/><path d="M1501.25,164.114c0,-3.714 -3.015,-6.729 -6.729,-6.729c-3.714,0 -6.73,3.015 -6.73,6.729c0,3.714 3.016,6.73 6.73,6.73c3.714,0 6.729,-3.016 6.729,-6.73Z" style="fill:#8f2727;"/><path d="M1499.32,164.114c0,-2.653 -2.154,-4.806 -4.806,-4.806c-2.653,0 -4.807,2.153 -4.807,4.806c0,2.653 2.154,4.807 4.807,4.807c2.652,0 4.806,-2.154 4.806,-4.807Z" style="fill:#dcbcbc;"/><path d="M1512.19,177.79c0,-3.714 -3.015,-6.729 -6.729,-6.729c-3.714,0 -6.73,3.015 -6.73,6.729c0,3.714 3.016,6.73 6.73,6.73c3.714,0 6.729,-3.016 6.729,-6.73Z" style="fill:#8f2727;"/><path d="M1510.26,177.79c0,-2.652 -2.153,-4.806 -4.806,-4.806c-2.653,0 -4.807,2.154 -4.807,4.806c0,2.653 2.154,4.807 4.807,4.807c2.653,0 4.806,-2.154 4.806,-4.807Z" style="fill:#dcbcbc;"/><path d="M1509.45,191.467c0,-3.714 -3.016,-6.73 -6.73,-6.73c-3.714,0 -6.729,3.016 -6.729,6.73c0,3.714 3.015,6.729 6.729,6.729c3.714,0 6.73,-3.015 6.73,-6.729Z" style="fill:#8f2727;"/><path d="M1507.53,191.467c0,-2.653 -2.154,-4.807 -4.807,-4.807c-2.652,0 -4.806,2.154 -4.806,4.807c0,2.653 2.154,4.806 4.806,4.806c2.653,0 4.807,-2.153 4.807,-4.806Z" style="fill:#dcbcbc;"/><path d="M1503.98,213.349c0,-3.714 -3.015,-6.73 -6.729,-6.73c-3.714,0 -6.729,3.016 -6.729,6.73c0,3.714 3.015,6.729 6.729,6.729c3.714,0 6.729,-3.015 6.729,-6.729Z" style="fill:#8f2727;"/><path d="M1502.06,213.349c0,-2.653 -2.154,-4.807 -4.807,-4.807c-2.653,0 -4.807,2.154 -4.807,4.807c0,2.653 2.154,4.806 4.807,4.806c2.653,0 4.807,-2.153 4.807,-4.806Z" style="fill:#dcbcbc;"/><path d="M1497.14,221.555c0,-3.714 -3.015,-6.73 -6.729,-6.73c-3.714,0 -6.729,3.016 -6.729,6.73c0,3.714 3.015,6.729 6.729,6.729c3.714,0 6.729,-3.015 6.729,-6.729Z" style="fill:#8f2727;"/><path d="M1495.22,221.555c0,-2.653 -2.154,-4.807 -4.807,-4.807c-2.653,0 -4.807,2.154 -4.807,4.807c0,2.652 2.154,4.806 4.807,4.806c2.653,0 4.807,-2.154 4.807,-4.806Z" style="fill:#dcbcbc;"/><path d="M1512.19,224.29c0,-3.714 -3.015,-6.73 -6.729,-6.73c-3.714,0 -6.73,3.016 -6.73,6.73c0,3.714 3.016,6.729 6.73,6.729c3.714,0 6.729,-3.015 6.729,-6.729Z" style="fill:#8f2727;"/><path d="M1510.26,224.29c0,-2.653 -2.153,-4.807 -4.806,-4.807c-2.653,0 -4.807,2.154 -4.807,4.807c0,2.652 2.154,4.806 4.807,4.806c2.653,0 4.806,-2.154 4.806,-4.806Z" style="fill:#dcbcbc;"/><path d="M1498.51,235.231c0,-3.714 -3.015,-6.73 -6.729,-6.73c-3.714,0 -6.73,3.016 -6.73,6.73c0,3.714 3.016,6.729 6.73,6.729c3.714,0 6.729,-3.015 6.729,-6.729Z" style="fill:#8f2727;"/><path d="M1496.59,235.231c0,-2.653 -2.154,-4.807 -4.806,-4.807c-2.653,0 -4.807,2.154 -4.807,4.807c0,2.653 2.154,4.806 4.807,4.806c2.652,0 4.806,-2.153 4.806,-4.806Z" style="fill:#dcbcbc;"/><path d="M1509.45,254.377c0,-3.714 -3.016,-6.729 -6.73,-6.729c-3.714,0 -6.729,3.015 -6.729,6.729c0,3.714 3.015,6.73 6.729,6.73c3.714,0 6.73,-3.016 6.73,-6.73Z" style="fill:#8f2727;"/><path d="M1507.53,254.377c0,-2.653 -2.154,-4.806 -4.807,-4.806c-2.652,0 -4.806,2.153 -4.806,4.806c0,2.653 2.154,4.807 4.806,4.807c2.653,0 4.807,-2.154 4.807,-4.807Z" style="fill:#dcbcbc;"/><path d="M1498.51,270.788c0,-3.714 -3.015,-6.729 -6.729,-6.729c-3.714,0 -6.73,3.015 -6.73,6.729c0,3.714 3.016,6.73 6.73,6.73c3.714,0 6.729,-3.016 6.729,-6.73Z" style="fill:#8f2727;"/><path d="M1496.59,270.788c0,-2.652 -2.154,-4.806 -4.806,-4.806c-2.653,0 -4.807,2.154 -4.807,4.806c0,2.653 2.154,4.807 4.807,4.807c2.652,0 4.806,-2.154 4.806,-4.807Z" style="fill:#dcbcbc;"/><path d="M1506.72,276.259c0,-3.714 -3.016,-6.729 -6.73,-6.729c-3.714,0 -6.729,3.015 -6.729,6.729c0,3.714 3.015,6.729 6.729,6.729c3.714,0 6.73,-3.015 6.73,-6.729Z" style="fill:#8f2727;"/><path d="M1504.79,276.259c0,-2.653 -2.154,-4.806 -4.807,-4.806c-2.652,0 -4.806,2.153 -4.806,4.806c0,2.653 2.154,4.807 4.806,4.807c2.653,0 4.807,-2.154 4.807,-4.807Z" style="fill:#dcbcbc;"/><path d="M1503.98,298.141c0,-3.714 -3.015,-6.73 -6.729,-6.73c-3.714,0 -6.729,3.016 -6.729,6.73c0,3.714 3.015,6.729 6.729,6.729c3.714,0 6.729,-3.015 6.729,-6.729Z" style="fill:#8f2727;"/><path d="M1502.06,298.141c0,-2.653 -2.154,-4.807 -4.807,-4.807c-2.653,0 -4.807,2.154 -4.807,4.807c0,2.653 2.154,4.806 4.807,4.806c2.653,0 4.807,-2.153 4.807,-4.806Z" style="fill:#dcbcbc;"/><path d="M1514.92,314.552c0,-3.714 -3.015,-6.729 -6.729,-6.729c-3.714,0 -6.73,3.015 -6.73,6.729c0,3.714 3.016,6.73 6.73,6.73c3.714,0 6.729,-3.016 6.729,-6.73Z" style="fill:#8f2727;"/><path d="M1513,314.552c0,-2.653 -2.153,-4.806 -4.806,-4.806c-2.653,0 -4.807,2.153 -4.807,4.806c0,2.653 2.154,4.807 4.807,4.807c2.653,0 4.806,-2.154 4.806,-4.807Z" style="fill:#dcbcbc;"/><path d="M1517.66,322.758c0,-3.714 -3.015,-6.729 -6.729,-6.729c-3.714,0 -6.729,3.015 -6.729,6.729c0,3.714 3.015,6.729 6.729,6.729c3.714,0 6.729,-3.015 6.729,-6.729Z" style="fill:#8f2727;"/><path d="M1515.74,322.758c0,-2.653 -2.154,-4.807 -4.807,-4.807c-2.653,0 -4.806,2.154 -4.806,4.807c0,2.653 2.153,4.807 4.806,4.807c2.653,0 4.807,-2.154 4.807,-4.807Z" style="fill:#dcbcbc;"/><path d="M1512.19,330.964c0,-3.714 -3.015,-6.729 -6.729,-6.729c-3.714,0 -6.73,3.015 -6.73,6.729c0,3.714 3.016,6.729 6.73,6.729c3.714,0 6.729,-3.015 6.729,-6.729Z" style="fill:#8f2727;"/><path d="M1510.26,330.964c0,-2.653 -2.153,-4.807 -4.806,-4.807c-2.653,0 -4.807,2.154 -4.807,4.807c0,2.653 2.154,4.807 4.807,4.807c2.653,0 4.806,-2.154 4.806,-4.807Z" style="fill:#dcbcbc;"/><path d="M1523.13,350.111c0,-3.714 -3.015,-6.73 -6.729,-6.73c-3.714,0 -6.73,3.016 -6.73,6.73c0,3.714 3.016,6.729 6.73,6.729c3.714,0 6.729,-3.015 6.729,-6.729Z" style="fill:#8f2727;"/><path d="M1521.2,350.111c0,-2.653 -2.154,-4.807 -4.806,-4.807c-2.653,0 -4.807,2.154 -4.807,4.807c0,2.652 2.154,4.806 4.807,4.806c2.652,0 4.806,-2.154 4.806,-4.806Z" style="fill:#dcbcbc;"/><path d="M1550.48,355.581c0,-3.714 -3.015,-6.729 -6.729,-6.729c-3.714,0 -6.729,3.015 -6.729,6.729c0,3.714 3.015,6.729 6.729,6.729c3.714,0 6.729,-3.015 6.729,-6.729Z" style="fill:#8f2727;"/><path d="M1548.56,355.581c0,-2.653 -2.154,-4.807 -4.807,-4.807c-2.653,0 -4.807,2.154 -4.807,4.807c0,2.653 2.154,4.807 4.807,4.807c2.653,0 4.807,-2.154 4.807,-4.807Z" style="fill:#dcbcbc;"/><path d="M1564.16,366.522c0,-3.714 -3.015,-6.73 -6.729,-6.73c-3.714,0 -6.729,3.016 -6.729,6.73c0,3.714 3.015,6.729 6.729,6.729c3.714,0 6.729,-3.015 6.729,-6.729Z" style="fill:#8f2727;"/><path d="M1562.23,366.522c0,-2.653 -2.154,-4.807 -4.807,-4.807c-2.653,0 -4.806,2.154 -4.806,4.807c0,2.653 2.153,4.806 4.806,4.806c2.653,0 4.807,-2.153 4.807,-4.806Z" style="fill:#dcbcbc;"/><path d="M1569.63,355.581c0,-3.714 -3.015,-6.729 -6.729,-6.729c-3.714,0 -6.73,3.015 -6.73,6.729c0,3.714 3.016,6.729 6.73,6.729c3.714,0 6.729,-3.015 6.729,-6.729Z" style="fill:#8f2727;"/><path d="M1567.7,355.581c0,-2.653 -2.154,-4.807 -4.806,-4.807c-2.653,0 -4.807,2.154 -4.807,4.807c0,2.653 2.154,4.807 4.807,4.807c2.652,0 4.806,-2.154 4.806,-4.807Z" style="fill:#dcbcbc;"/></g></g><g><text x="1722.51px" y="813.628px" style="font-family:'ArialMT', 'Arial', sans-serif;font-size:28.491px;">iteration</text><g><path d="M1488,493.639l0,267.755l570,0" style="fill:none;stroke:#000;stroke-width:1.03px;stroke-miterlimit:3.8;"/><path d="M1488,517.951l5.737,0l5.816,0.064l11.473,0.253l5.737,0.19l5.816,0.253l5.737,0.317l5.737,0.38l5.736,0.443l5.817,0.57l5.736,0.759l5.737,0.887l5.736,1.076l5.817,1.33l5.736,1.583l5.737,2.026l5.737,2.342l5.816,2.913l5.737,3.482l5.736,4.179l5.817,4.938l5.736,5.762l5.737,6.648l5.737,7.597l5.816,8.611l5.737,9.497l5.736,10.321l5.737,10.953l5.816,11.523l5.737,11.713l5.737,11.777l5.736,11.523l5.817,11.08l5.736,10.447l5.737,9.623l5.737,8.801l5.816,7.851l5.736,7.028l5.737,6.078l5.816,5.318l5.737,4.559l5.737,3.926l5.736,3.292l5.817,2.786l5.736,2.406l5.737,1.962l5.737,1.71l5.816,1.393l5.737,1.203l5.736,1.013l5.737,0.823l5.816,0.76l11.474,1.139l5.736,0.443l5.817,0.38l11.473,0.633l5.737,0.254l5.816,0.253l11.473,0.38l5.816,0.19l5.737,0.126l5.737,0.19l5.736,0.127l5.817,0.127l5.736,0.126l5.737,0.064l5.737,0.126l5.816,0.127l5.737,0.063l5.736,0.127l5.737,0.063l5.816,0.127l11.474,0.126l5.736,0.127l5.817,0.063l11.473,0.127l5.816,0.063l5.737,0.127l11.473,0.126l5.817,0.064l17.209,0.19l5.817,0.063l17.21,0.19l5.816,0.063l17.21,0.19l5.816,0.064l5.737,0" style="fill:none;stroke:#000;stroke-width:3.08px;stroke-miterlimit:3.8;"/><path d="M1488,493.639l0,267.755l570,0" style="fill:none;stroke:#000;stroke-width:1.03px;stroke-miterlimit:3.8;"/></g></g><text x="295.969px" y="857.071px" style="font-family:'ArialMT', 'Arial', sans-serif;font-size:34.607px;">(<tspan x="310.002px 331.758px " y="857.071px 857.071px ">a)</tspan></text><text x="174.341px" y="247.392px" style="font-family:'ArialMT', 'Arial', sans-serif;font-size:34.607px;">t<tspan x="186.465px 206.278px 228.033px 238.231px 258.043px 279.799px 289.997px 302.12px 321.933px 343.689px " y="247.392px 247.392px 247.392px 247.392px 247.392px 247.392px 247.392px 247.392px 247.392px 247.392px ">ypical set</tspan></text><text x="1023.87px" y="857.071px" style="font-family:'ArialMT', 'Arial', sans-serif;font-size:34.607px;">(<tspan x="1037.9px 1059.66px " y="857.071px 857.071px ">b)</tspan></text><text x="1748.15px" y="857.071px" style="font-family:'ArialMT', 'Arial', sans-serif;font-size:34.607px;">(<tspan x="1762.18px 1782px " y="857.071px 857.071px ">c)</tspan></text><path d="M254.213,257.574l3.503,-1.503l29.059,67.719l3.253,-1.395l-2.857,7.151l-7.151,-2.857l3.252,-1.395l-29.059,-67.72Z"/></svg>