<?xml version="1.0" encoding="UTF-8" standalone="no"?><!DOCTYPE svg PUBLIC "-//W3C//DTD SVG 1.1//EN" "http://www.w3.org/Graphics/SVG/1.1/DTD/svg11.dtd"><svg width="100%" height="100%" viewBox="0 0 750 375" version="1.1" xmlns="http://www.w3.org/2000/svg" xmlns:xlink="http://www.w3.org/1999/xlink" xml:space="preserve" xmlns:serif="http://www.serif.com/" style="fill-rule:evenodd;clip-rule:evenodd;stroke-miterlimit:3.8;"><g><rect x="91.487" y="1.974" width="567.025" height="330.774" style="fill:none;stroke:#000;stroke-width:1.88px;"/><rect x="247.41" y="2.032" width="226.848" height="330.715" style="fill:#ededed;"/><text x="121.113px" y="265.624px" style="font-family:'ArialMT', 'Arial', sans-serif;font-size:24.017px;fill:#0017c3;">π(q)</text><text x="431.665px" y="57.203px" style="font-family:'ArialMT', 'Arial', sans-serif;font-size:24.017px;fill:#e4c900;">dq</text><text x="479.866px" y="280.407px" style="font-family:'ArialMT', 'Arial', sans-serif;font-size:24.017px;fill:#da0000;">π(q) dq</text><g transform="matrix(3.12721,0,0,3.12721,-512.548,-559.672)"><text x="264.529px" y="295.644px" style="font-family:'ArialMT', 'Arial', sans-serif;font-size:7.68px;">|q - q</text><text x="281.891px" y="298.794px" style="font-family:'ArialMT', 'Arial', sans-serif;font-size:7.68px;">mode</text><text x="301.102px" y="295.644px" style="font-family:'ArialMT', 'Arial', sans-serif;font-size:7.68px;">|</text></g><text x="112.649px" y="54.189px" style="font-family:'ArialMT', 'Arial', sans-serif;font-size:24.017px;">Ty<tspan x="139.328px " y="54.189px ">p</tspan>ical Set</text><path d="M97.21,329.745l51.599,0l5.723,-0.057l5.723,0l5.723,-0.058l5.722,-0.115l5.723,-0.173l5.723,-0.231l5.723,-0.404l5.722,-0.577l5.723,-0.865l5.723,-1.096l5.723,-1.557l5.723,-2.019l5.722,-2.537l5.723,-3.288l5.723,-3.922l5.723,-4.787l5.723,-5.653l5.722,-6.575l5.723,-7.498l5.817,-8.421l5.723,-9.229l5.722,-10.093l5.723,-10.728l5.723,-11.247l5.723,-11.651l5.722,-11.766l5.723,-11.767l5.723,-11.478l5.723,-10.958l5.723,-10.267l5.722,-9.286l5.723,-8.19l5.723,-6.922l5.723,-5.479l5.723,-3.922l5.722,-2.365l5.723,-0.75l5.723,0.866l5.723,2.422l5.816,3.864l5.723,5.191l5.723,6.345l5.723,7.44l5.722,8.306l5.723,8.998l5.723,9.516l5.723,9.806l11.445,20.072l5.723,9.862l5.723,9.69l5.723,9.286l5.723,8.825l5.722,8.363l5.723,7.844l5.723,7.21l5.723,6.633l5.722,5.999l5.723,5.421l5.817,4.845l5.723,4.326l5.722,3.807l5.723,3.287l5.723,2.884l5.723,2.48l5.723,2.134l5.722,1.788l5.723,1.558l5.723,1.269l5.723,1.038l5.723,0.923l5.722,0.692l5.723,0.634l5.723,0.462l5.723,0.403l11.445,0.577l11.446,0.346l5.816,0.116l5.723,0.115l17.169,0.173l5.722,0l5.723,0.058l17.169,0" style="fill:none;stroke:#da0000;stroke-width:4.5px;"/><path d="M91.487,329.745l108.827,0l5.723,-0.058l11.446,0l5.722,-0.057l5.723,-0.058l5.723,-0.058l5.723,-0.116l5.723,-0.116l5.722,-0.174l5.723,-0.231l5.817,-0.348l5.723,-0.405l5.722,-0.522l5.723,-0.695l5.723,-0.868l5.723,-1.101l5.722,-1.39l5.723,-1.738l5.723,-2.201l5.723,-2.664l5.723,-3.244l5.722,-3.996l5.723,-4.865l5.723,-5.85l5.723,-7.125l5.723,-8.456l5.722,-10.136l5.723,-12.047l5.723,-14.307l5.723,-16.913l5.816,-19.866l5.723,-23.342l5.723,-27.281l5.723,-31.856l5.722,-37.011l2.552,-19.14l3.171,-23.779l5.254,-45.757" style="fill:none;stroke:#e4c900;stroke-width:4.5px;"/><path d="M91.487,277.208l5.723,0.076l5.723,0l17.168,0.229l17.169,0.457l5.723,0.228l5.816,0.229l11.446,0.457l17.168,0.914l28.614,1.904l17.168,1.37l11.446,1.066l5.723,0.457l5.723,0.534l5.722,0.609l5.723,0.533l5.817,0.609l5.723,0.533l11.445,1.219l5.723,0.685l11.445,1.219l11.446,1.37l5.723,0.61l40.059,4.797l5.723,0.762l11.446,1.371l5.816,0.685l5.723,0.686l5.723,0.761l57.228,6.854l5.723,0.609l5.722,0.686l5.723,0.609l5.723,0.685l17.168,1.828l5.817,0.609l11.445,1.219l5.723,0.533l5.723,0.609l11.446,1.066l5.722,0.61l5.723,0.533l5.723,0.457l11.446,1.066l11.445,0.914l5.723,0.533l11.445,0.914l5.723,0.38l11.446,0.914l5.816,0.381l28.614,1.904l5.723,0.305l5.723,0.38l11.446,0.61" style="fill:none;stroke:#0017c3;stroke-width:4.5px;"/><rect x="91.487" y="1.974" width="567.025" height="330.774" style="fill:none;stroke:#000;stroke-width:1.5px;"/></g><path d="M154.346,58.832l1.295,-2.1l106.176,65.473l1.203,-1.951l1.15,4.851l-4.85,1.151l1.202,-1.951l-106.176,-65.473Z"/></svg>