<svg viewBox="0 0 2408 849" xmlns="http://www.w3.org/2000/svg" fill-rule="evenodd" clip-rule="evenodd" stroke-miterlimit="10"><path d="M769.147 25.031v744.116H25.031V25.031h744.116z" fill="none" stroke="#000f6f" stroke-width="4.98px"/><path d="M397.089 707.138V211.06" fill="none" stroke="#9a9a9a" stroke-width="4.98px" stroke-dasharray="18.68,18.68"/><path d="M87.041 459.099h620.097" fill="none" stroke="#000" stroke-width="4.98px"/><path d="M108.211 521.109h261.506" fill="none" stroke="#dcbcbc" stroke-width="4.98px"/><path d="M92.022 521.109l25.902 12.951-9.713-12.951 9.713-12.952" fill="#dcbcbc" fill-rule="nonzero"/><path d="M89.531 501.183v39.851" fill="none" stroke="#dcbcbc" stroke-width="4.98px" stroke-linecap="square"/><path d="M385.907 521.109l-25.903-12.952 9.713 12.952-9.713 12.951" fill="#dcbcbc" fill-rule="nonzero"/><path d="M388.397 541.034v-39.851" fill="none" stroke="#dcbcbc" stroke-width="4.98px" stroke-linecap="square"/><path d="M685.967 521.109H424.461" fill="none" stroke="#dcbcbc" stroke-width="4.98px"/><path d="M702.156 521.109l-25.902-12.952 9.713 12.952-9.713 12.951" fill="#dcbcbc" fill-rule="nonzero"/><path d="M704.647 541.034v-39.851" fill="none" stroke="#dcbcbc" stroke-width="4.98px" stroke-linecap="square"/><path d="M408.272 521.109l25.902 12.951-9.713-12.951 9.713-12.952" fill="#dcbcbc" fill-rule="nonzero"/><path d="M405.781 501.183v39.851" fill="none" stroke="#dcbcbc" stroke-width="4.98px" stroke-linecap="square"/><path d="M1575.84 25.032v744.117H831.723V25.032h744.117z" fill="none" stroke="#000f6f" stroke-width="4.98px"/><path d="M1389.81 707.139c0-273.979-222.099-496.078-496.078-496.078" fill="none" stroke="#9a9a9a" stroke-width="4.98px" stroke-dasharray="18.68,18.68"/><path d="M1058.48 542.392l455.677-263.085M1058.48 542.392l263.085-455.677m192.595 192.592a526.276 526.276 0 0 0-192.593-192.594" fill="none" stroke="#000" stroke-width="4.98px"/><path d="M1107.88 562.778l183.459-105.919" fill="none" stroke="#dcbcbc" stroke-width="4.98px"/><path d="M1093.81 570.898l28.999-1.741-14.935-6.379 1.943-16.124" fill="#dcbcbc" fill-rule="nonzero"/><path d="M1081.65 554.837l19.989 34.621" fill="none" stroke="#dcbcbc" stroke-width="5px" stroke-linecap="square"/><path d="M1305.4 448.738l-29 1.741 14.935 6.38-1.942 16.124" fill="#dcbcbc" fill-rule="nonzero"/><path d="M1317.56 464.8l-19.989-34.622" fill="none" stroke="#dcbcbc" stroke-width="5px" stroke-linecap="square"/><path d="M1343.31 435.621l183.459-105.919" fill="none" stroke="#dcbcbc" stroke-width="4.98px"/><path d="M1329.25 443.741l29-1.741-14.935-6.379 1.943-16.124" fill="#dcbcbc" fill-rule="nonzero"/><path d="M1317.09 427.68l19.989 34.621" fill="none" stroke="#dcbcbc" stroke-width="5px" stroke-linecap="square"/><path d="M1540.83 321.581l-29 1.741 14.935 6.38-1.942 16.124" fill="#dcbcbc" fill-rule="nonzero"/><path d="M1552.99 337.643l-19.989-34.622" fill="none" stroke="#dcbcbc" stroke-width="5px" stroke-linecap="square"/><path d="M2382.52 25.032v744.117h-744.117V25.032h744.117z" fill="none" stroke="#000f6f" stroke-width="4.98px"/><path d="M1855.44 487.902l80.553-161.107m-80.553 161.107l46.508-161.107m-46.508 161.107l139.522-93.015m-139.522 93.015l80.553-93.015" fill="none" stroke="#000" stroke-width="4.98px"/><path d="M1935.99 326.795l3.019 2.075 2.984 2.146 2.943 2.211 2.903 2.288 2.854 2.368 2.81 2.438 2.765 2.501 2.72 2.571 2.664 2.646 2.614 2.711 2.566 2.77 2.515 2.833 2.455 2.904 2.398 2.963 2.349 3.018 2.289 3.077 2.227 3.139 2.171 3.194 2.109 3.244 2.05 3.293 1.982 3.352 1.918 3.398 1.855 3.443 1.797 3.489m-92.997-68.072l1.742 2.075 1.723 2.146 1.699 2.211 1.677 2.288 1.647 2.368 1.623 2.438 1.596 2.501 1.57 2.571 1.538 2.646 1.509 2.711 1.482 2.77 1.452 2.833 1.418 2.904 1.383 2.963 1.357 3.018 1.322 3.077 1.286 3.139 1.252 3.194 1.218 3.244 1.184 3.293 1.144 3.352 1.107 3.398 1.072 3.443 1.037 3.489m.002-68.072h-34.036m93.006 68.092H1936.009" fill="none" stroke="#9a9a9a" stroke-width="4.98px" stroke-dasharray="18.68,18.68"/><path d="M1935.99 326.795l80.554-161.106M1901.95 326.795l46.507-161.106m46.503 229.198l139.522-93.015m-198.492 93.015l80.554-93.015m.006-136.183l6.036 4.15 5.97 4.292 5.884 4.422 5.807 4.576 5.709 4.735 5.619 4.876 5.531 5.002 5.438 5.143 5.329 5.292 5.227 5.421 5.133 5.541 5.029 5.666 4.912 5.808 4.794 5.927 4.7 6.034 4.578 6.154 4.453 6.279 4.342 6.387 4.219 6.489 4.1 6.586 3.963 6.704 3.835 6.796 3.712 6.886 3.593 6.978M1948.45 165.689l3.486 4.15 3.446 4.292 3.397 4.422 3.353 4.576 3.295 4.735 3.245 4.876 3.193 5.002 3.14 5.143 3.077 5.292 3.017 5.421 2.964 5.541 2.904 5.666 2.835 5.808 2.768 5.927 2.714 6.034 2.642 6.154 2.572 6.279 2.507 6.387 2.435 6.489 2.367 6.586 2.288 6.704 2.214 6.796 2.144 6.886 2.075 6.978m.022-136.144h-68.072m186.002 136.183h-117.904" fill="none" stroke="#000" stroke-width="4.98px"/><path d="M1700.41 211.061l32.428 1.083 32.299 3.179 32.027 5.291 31.603 7.35 31.058 9.432 30.361 11.437 29.567 13.383 28.635 15.283 27.553 17.145 26.38 18.901 25.101 20.582 23.693 22.179 22.186 23.685 20.589 25.085 18.909 26.373 17.153 27.545 15.298 28.628 13.398 29.559 11.452 30.369 9.432 31.051 7.373 31.603 5.291 32.019 3.194 32.291 1.09 32.436m-496.07-495.889V706.95m496.08.189h-495.889" fill="none" stroke="#9a9a9a" stroke-width="4.98px" stroke-dasharray="18.68,18.68"/><path d="M1888.61 491.625l99.533-66.356" fill="none" stroke="#dcbcbc" stroke-width="4.98px"/><path d="M1875.1 500.632l28.825-3.602-15.313-5.405.901-16.214" fill="#dcbcbc" fill-rule="nonzero"/><path d="M1861.93 485.388l22.173 33.26" fill="none" stroke="#dcbcbc" stroke-width="5px" stroke-linecap="square"/><path d="M2001.65 416.262l-28.825 3.603 15.313 5.404-.901 16.214" fill="#dcbcbc" fill-rule="nonzero"/><path d="M2014.82 431.506l-22.173-33.26" fill="none" stroke="#dcbcbc" stroke-width="5px" stroke-linecap="square"/><path d="M2032.78 402.995l104.184-69.456" fill="none" stroke="#dcbcbc" stroke-width="4.98px"/><path d="M2019.27 412.002l28.824-3.603-15.313-5.404.901-16.214" fill="#dcbcbc" fill-rule="nonzero"/><path d="M2006.11 396.758l22.173 33.26" fill="none" stroke="#dcbcbc" stroke-width="5px" stroke-linecap="square"/><path d="M2150.48 324.531l-28.825 3.603 15.313 5.405-.901 16.214" fill="#dcbcbc" fill-rule="nonzero"/><path d="M2163.64 339.775l-22.173-33.26" fill="none" stroke="#dcbcbc" stroke-width="5px" stroke-linecap="square"/><text x="349.045" y="840.127" font-family="'LucidaGrande', 'Lucida Grande', sans-serif" font-weight="500" font-size="56.04px">(<tspan x="371.332px 406.342px" y="840.127px 840.127px">a)</tspan></text><text x="1154.13" y="840.127" font-family="'LucidaGrande', 'Lucida Grande', sans-serif" font-weight="500" font-size="56.04px">(<tspan x="1176.41px 1215.75px" y="840.127px 840.127px">b)</tspan></text><text x="1991.63" y="840.127" font-family="'LucidaGrande', 'Lucida Grande', sans-serif" font-weight="500" font-size="56.04px">(<tspan x="2013.92px 2046.69px" y="840.127px 840.127px">c)</tspan></text></svg>