<?xml version="1.0" encoding="UTF-8" standalone="no"?><!DOCTYPE svg PUBLIC "-//W3C//DTD SVG 1.1//EN" "http://www.w3.org/Graphics/SVG/1.1/DTD/svg11.dtd"><svg width="100%" height="100%" viewBox="0 0 2408 849" version="1.1" xmlns="http://www.w3.org/2000/svg" xmlns:xlink="http://www.w3.org/1999/xlink" xml:space="preserve" xmlns:serif="http://www.serif.com/" style="fill-rule:evenodd;clip-rule:evenodd;stroke-miterlimit:10;"><path d="M769.147,25.031l0,744.116l-744.116,0l0,-744.116l744.116,0Z" style="fill:none;stroke:#000f6f;stroke-width:4.98px;"/><path d="M397.089,707.138l0,-496.078" style="fill:none;stroke:#9a9a9a;stroke-width:4.98px;stroke-dasharray:18.68,18.68;"/><path d="M87.041,459.099l620.097,0" style="fill:none;stroke:#000;stroke-width:4.98px;"/><path d="M108.211,521.109l261.506,0" style="fill:none;stroke:#dcbcbc;stroke-width:4.98px;"/><path d="M92.022,521.109l25.902,12.951l-9.713,-12.951l9.713,-12.952" style="fill:#dcbcbc;fill-rule:nonzero;"/><path d="M89.531,501.183l0,39.851" style="fill:none;stroke:#dcbcbc;stroke-width:4.98px;stroke-linecap:square;"/><path d="M385.907,521.109l-25.903,-12.952l9.713,12.952l-9.713,12.951" style="fill:#dcbcbc;fill-rule:nonzero;"/><path d="M388.397,541.034l0,-39.851" style="fill:none;stroke:#dcbcbc;stroke-width:4.98px;stroke-linecap:square;"/><path d="M685.967,521.109l-261.506,0" style="fill:none;stroke:#dcbcbc;stroke-width:4.98px;"/><path d="M702.156,521.109l-25.902,-12.952l9.713,12.952l-9.713,12.951" style="fill:#dcbcbc;fill-rule:nonzero;"/><path d="M704.647,541.034l0,-39.851" style="fill:none;stroke:#dcbcbc;stroke-width:4.98px;stroke-linecap:square;"/><path d="M408.272,521.109l25.902,12.951l-9.713,-12.951l9.713,-12.952" style="fill:#dcbcbc;fill-rule:nonzero;"/><path d="M405.781,501.183l0,39.851" style="fill:none;stroke:#dcbcbc;stroke-width:4.98px;stroke-linecap:square;"/><path d="M1575.84,25.032l0,744.117l-744.117,0l0,-744.117l744.117,0Z" style="fill:none;stroke:#000f6f;stroke-width:4.98px;"/><path d="M1389.81,707.139c0,-273.979 -222.099,-496.078 -496.078,-496.078" style="fill:none;stroke:#9a9a9a;stroke-width:4.98px;stroke-dasharray:18.68,18.68;"/><path d="M1058.48,542.392l455.677,-263.085" style="fill:none;stroke:#000;stroke-width:4.98px;"/><path d="M1058.48,542.392l263.085,-455.677" style="fill:none;stroke:#000;stroke-width:4.98px;"/><path d="M1514.16,279.307c-46.165,-79.966 -112.627,-146.428 -192.593,-192.594" style="fill:none;stroke:#000;stroke-width:4.98px;"/><path d="M1107.88,562.778l183.459,-105.919" style="fill:none;stroke:#dcbcbc;stroke-width:4.98px;"/><path d="M1093.81,570.898l28.999,-1.741l-14.935,-6.379l1.943,-16.124" style="fill:#dcbcbc;fill-rule:nonzero;"/><path d="M1081.65,554.837l19.989,34.621" style="fill:none;stroke:#dcbcbc;stroke-width:5px;stroke-linecap:square;"/><path d="M1305.4,448.738l-29,1.741l14.935,6.38l-1.942,16.124" style="fill:#dcbcbc;fill-rule:nonzero;"/><path d="M1317.56,464.8l-19.989,-34.622" style="fill:none;stroke:#dcbcbc;stroke-width:5px;stroke-linecap:square;"/><path d="M1343.31,435.621l183.459,-105.919" style="fill:none;stroke:#dcbcbc;stroke-width:4.98px;"/><path d="M1329.25,443.741l29,-1.741l-14.935,-6.379l1.943,-16.124" style="fill:#dcbcbc;fill-rule:nonzero;"/><path d="M1317.09,427.68l19.989,34.621" style="fill:none;stroke:#dcbcbc;stroke-width:5px;stroke-linecap:square;"/><path d="M1540.83,321.581l-29,1.741l14.935,6.38l-1.942,16.124" style="fill:#dcbcbc;fill-rule:nonzero;"/><path d="M1552.99,337.643l-19.989,-34.622" style="fill:none;stroke:#dcbcbc;stroke-width:5px;stroke-linecap:square;"/><path d="M2382.52,25.032l0,744.117l-744.117,0l0,-744.117l744.117,0Z" style="fill:none;stroke:#000f6f;stroke-width:4.98px;"/><path d="M1855.44,487.902l80.553,-161.107" style="fill:none;stroke:#000;stroke-width:4.98px;"/><path d="M1855.44,487.902l46.508,-161.107" style="fill:none;stroke:#000;stroke-width:4.98px;"/><path d="M1855.44,487.902l139.522,-93.015" style="fill:none;stroke:#000;stroke-width:4.98px;"/><path d="M1855.44,487.902l80.553,-93.015" style="fill:none;stroke:#000;stroke-width:4.98px;"/><path d="M1935.99,326.795l3.019,2.075l2.984,2.146l2.943,2.211l2.903,2.288l2.854,2.368l2.81,2.438l2.765,2.501l2.72,2.571l2.664,2.646l2.614,2.711l2.566,2.77l2.515,2.833l2.455,2.904l2.398,2.963l2.349,3.018l2.289,3.077l2.227,3.139l2.171,3.194l2.109,3.244l2.05,3.293l1.982,3.352l1.918,3.398l1.855,3.443l1.797,3.489" style="fill:none;stroke:#9a9a9a;stroke-width:4.98px;stroke-dasharray:18.68,18.68;"/><path d="M1901.95,326.795l1.742,2.075l1.723,2.146l1.699,2.211l1.677,2.288l1.647,2.368l1.623,2.438l1.596,2.501l1.57,2.571l1.538,2.646l1.509,2.711l1.482,2.77l1.452,2.833l1.418,2.904l1.383,2.963l1.357,3.018l1.322,3.077l1.286,3.139l1.252,3.194l1.218,3.244l1.184,3.293l1.144,3.352l1.107,3.398l1.072,3.443l1.037,3.489" style="fill:none;stroke:#9a9a9a;stroke-width:4.98px;stroke-dasharray:18.68,18.68;"/><path d="M1935.99,326.795l-1.037,0l-1.073,0l-1.106,0l-1.144,0l-1.183,0l-1.22,0l-1.25,0l-1.286,0l-1.323,0l-1.355,0l-1.386,0l-1.416,0l-1.451,0l-1.482,0l-1.509,0l-1.539,0l-1.57,0l-1.596,0l-1.623,0l-1.646,0l-1.676,0l-1.699,0l-1.721,0l-1.745,0" style="fill:none;stroke:#9a9a9a;stroke-width:4.98px;stroke-dasharray:18.68,18.68;"/><path d="M1994.96,394.887l-1.797,0l-1.858,0l-1.915,0l-1.981,0l-2.051,0l-2.112,0l-2.165,0l-2.227,0l-2.292,0l-2.347,0l-2.4,0l-2.453,0l-2.514,0l-2.567,0l-2.614,0l-2.664,0l-2.718,0l-2.766,0l-2.81,0l-2.852,0l-2.903,0l-2.943,0l-2.981,0l-3.021,0" style="fill:none;stroke:#9a9a9a;stroke-width:4.98px;stroke-dasharray:18.68,18.68;"/><path d="M1935.99,326.795l80.554,-161.106" style="fill:none;stroke:#000;stroke-width:4.98px;"/><path d="M1901.95,326.795l46.507,-161.106" style="fill:none;stroke:#000;stroke-width:4.98px;"/><path d="M1994.96,394.887l139.522,-93.015" style="fill:none;stroke:#000;stroke-width:4.98px;"/><path d="M1935.99,394.887l80.554,-93.015" style="fill:none;stroke:#000;stroke-width:4.98px;"/><path d="M2016.55,165.689l6.036,4.15l5.97,4.292l5.884,4.422l5.807,4.576l5.709,4.735l5.619,4.876l5.531,5.002l5.438,5.143l5.329,5.292l5.227,5.421l5.133,5.541l5.029,5.666l4.912,5.808l4.794,5.927l4.7,6.034l4.578,6.154l4.453,6.279l4.342,6.387l4.219,6.489l4.1,6.586l3.963,6.704l3.835,6.796l3.712,6.886l3.593,6.978" style="fill:none;stroke:#000;stroke-width:4.98px;"/><path d="M1948.45,165.689l3.486,4.15l3.446,4.292l3.397,4.422l3.353,4.576l3.295,4.735l3.245,4.876l3.193,5.002l3.14,5.143l3.077,5.292l3.017,5.421l2.964,5.541l2.904,5.666l2.835,5.808l2.768,5.927l2.714,6.034l2.642,6.154l2.572,6.279l2.507,6.387l2.435,6.489l2.367,6.586l2.288,6.704l2.214,6.796l2.144,6.886l2.075,6.978" style="fill:none;stroke:#000;stroke-width:4.98px;"/><path d="M2016.55,165.689l-2.075,0l-2.146,0l-2.211,0l-2.288,0l-2.368,0l-2.438,0l-2.501,0l-2.572,0l-2.645,0l-2.711,0l-2.77,0l-2.833,0l-2.904,0l-2.964,0l-3.017,0l-3.077,0l-3.14,0l-3.193,0l-3.245,0l-3.292,0l-3.353,0l-3.397,0l-3.444,0l-3.488,0" style="fill:none;stroke:#000;stroke-width:4.98px;"/><path d="M2134.48,301.872l-3.594,0l-3.717,0l-3.829,0l-3.963,0l-4.101,0l-4.224,0l-4.33,0l-4.455,0l-4.583,0l-4.695,0l-4.799,0l-4.907,0l-5.029,0l-5.133,0l-5.227,0l-5.328,0l-5.438,0l-5.532,0l-5.619,0l-5.704,0l-5.806,0l-5.885,0l-5.964,0l-6.042,0" style="fill:none;stroke:#000;stroke-width:4.98px;"/><path d="M1700.41,211.061l32.428,1.083l32.299,3.179l32.027,5.291l31.603,7.35l31.058,9.432l30.361,11.437l29.567,13.383l28.635,15.283l27.553,17.145l26.38,18.901l25.101,20.582l23.693,22.179l22.186,23.685l20.589,25.085l18.909,26.373l17.153,27.545l15.298,28.628l13.398,29.559l11.452,30.369l9.432,31.051l7.373,31.603l5.291,32.019l3.194,32.291l1.09,32.436" style="fill:none;stroke:#9a9a9a;stroke-width:4.98px;stroke-dasharray:18.68,18.68;"/><path d="M1700.41,211.061l0,495.889" style="fill:none;stroke:#9a9a9a;stroke-width:4.98px;stroke-dasharray:18.68,18.68;"/><path d="M2196.49,707.139l-1.083,0l-3.179,0l-5.291,0l-7.35,0l-9.432,0l-11.437,0l-13.383,0l-15.283,0l-17.145,0l-18.901,0l-20.582,0l-22.179,0l-23.685,0l-25.085,0l-26.373,0l-27.545,0l-28.628,0l-29.559,0l-30.369,0l-31.05,0l-31.603,0l-32.02,0l-32.291,0l-32.436,0" style="fill:none;stroke:#9a9a9a;stroke-width:4.98px;stroke-dasharray:18.68,18.68;"/><path d="M1888.61,491.625l99.533,-66.356" style="fill:none;stroke:#dcbcbc;stroke-width:4.98px;"/><path d="M1875.1,500.632l28.825,-3.602l-15.313,-5.405l0.901,-16.214" style="fill:#dcbcbc;fill-rule:nonzero;"/><path d="M1861.93,485.388l22.173,33.26" style="fill:none;stroke:#dcbcbc;stroke-width:5px;stroke-linecap:square;"/><path d="M2001.65,416.262l-28.825,3.603l15.313,5.404l-0.901,16.214" style="fill:#dcbcbc;fill-rule:nonzero;"/><path d="M2014.82,431.506l-22.173,-33.26" style="fill:none;stroke:#dcbcbc;stroke-width:5px;stroke-linecap:square;"/><path d="M2032.78,402.995l104.184,-69.456" style="fill:none;stroke:#dcbcbc;stroke-width:4.98px;"/><path d="M2019.27,412.002l28.824,-3.603l-15.313,-5.404l0.901,-16.214" style="fill:#dcbcbc;fill-rule:nonzero;"/><path d="M2006.11,396.758l22.173,33.26" style="fill:none;stroke:#dcbcbc;stroke-width:5px;stroke-linecap:square;"/><path d="M2150.48,324.531l-28.825,3.603l15.313,5.405l-0.901,16.214" style="fill:#dcbcbc;fill-rule:nonzero;"/><path d="M2163.64,339.775l-22.173,-33.26" style="fill:none;stroke:#dcbcbc;stroke-width:5px;stroke-linecap:square;"/><text x="349.045px" y="840.127px" style="font-family:'LucidaGrande', 'Lucida Grande', sans-serif;font-weight:500;font-size:56.04px;">(<tspan x="371.332px 406.342px " y="840.127px 840.127px ">a)</tspan></text><text x="1154.13px" y="840.127px" style="font-family:'LucidaGrande', 'Lucida Grande', sans-serif;font-weight:500;font-size:56.04px;">(<tspan x="1176.41px 1215.75px " y="840.127px 840.127px ">b)</tspan></text><text x="1991.63px" y="840.127px" style="font-family:'LucidaGrande', 'Lucida Grande', sans-serif;font-weight:500;font-size:56.04px;">(<tspan x="2013.92px 2046.69px " y="840.127px 840.127px ">c)</tspan></text></svg>