<?xml version="1.0" encoding="UTF-8" standalone="no"?><!DOCTYPE svg PUBLIC "-//W3C//DTD SVG 1.1//EN" "http://www.w3.org/Graphics/SVG/1.1/DTD/svg11.dtd"><svg width="100%" height="100%" viewBox="0 0 317 113" version="1.1" xmlns="http://www.w3.org/2000/svg" xmlns:xlink="http://www.w3.org/1999/xlink" xml:space="preserve" xmlns:serif="http://www.serif.com/" style="fill-rule:evenodd;clip-rule:evenodd;stroke-miterlimit:10;"><path d="M101.648,3.005l0,98.645l-98.644,0l0,-98.645l98.644,0Z" style="fill:none;stroke:#000f6f;stroke-width:0.6px;"/><path d="M15.783,52.327l73.086,0" style="fill:none;stroke:#9a9a9a;stroke-width:0.6px;stroke-dasharray:2.24,2.24;"/><path d="M15.633,49.936l0,4.782" style="fill:none;stroke:#9a9a9a;stroke-width:0.6px;stroke-linecap:square;"/><path d="M89.019,54.718l0,-4.782" style="fill:none;stroke:#9a9a9a;stroke-width:0.6px;stroke-linecap:square;"/><path d="M40.444,52.327l23.764,0" style="fill:none;stroke:#000;stroke-width:0.6px;"/><path d="M40.294,49.936l0,4.782" style="fill:none;stroke:#000;stroke-width:0.6px;stroke-linecap:square;"/><path d="M64.358,54.718l0,-4.782" style="fill:none;stroke:#000;stroke-width:0.6px;stroke-linecap:square;"/><path d="M207.801,3.005l0,98.645l-98.645,0l0,-98.645l98.645,0Z" style="fill:none;stroke:#000f6f;stroke-width:0.6px;"/><path d="M121.487,89.319l0,-73.983" style="fill:none;stroke:#9a9a9a;stroke-width:0.6px;stroke-dasharray:2.24,2.24;"/><path d="M121.487,89.319l73.983,0" style="fill:none;stroke:#9a9a9a;stroke-width:0.6px;stroke-dasharray:2.24,2.24;"/><path d="M146.148,89.319l0,-73.983" style="fill:none;stroke:#9a9a9a;stroke-width:0.6px;stroke-dasharray:2.24,2.24;"/><path d="M121.487,64.658l73.983,0" style="fill:none;stroke:#9a9a9a;stroke-width:0.6px;stroke-dasharray:2.24,2.24;"/><path d="M170.809,89.319l0,-73.983" style="fill:none;stroke:#9a9a9a;stroke-width:0.6px;stroke-dasharray:2.24,2.24;"/><path d="M121.487,39.997l73.983,0" style="fill:none;stroke:#9a9a9a;stroke-width:0.6px;stroke-dasharray:2.24,2.24;"/><path d="M195.47,89.319l0,-73.983" style="fill:none;stroke:#9a9a9a;stroke-width:0.6px;stroke-dasharray:2.24,2.24;"/><path d="M121.487,15.336l73.983,0" style="fill:none;stroke:#9a9a9a;stroke-width:0.6px;stroke-dasharray:2.24,2.24;"/><path d="M146.148,64.658l0,-24.661l24.661,0l0,24.661l-24.661,0" style="fill:none;stroke:#000;stroke-width:0.6px;"/><path d="M313.955,3.004l0,98.646l-98.646,0l0,-98.646l98.646,0Z" style="fill:none;stroke:#000f6f;stroke-width:0.6px;"/><path d="M242.213,74.746l0,-53.807" style="fill:none;stroke:#9a9a9a;stroke-width:0.6px;stroke-dasharray:2.24,2.24;"/><path d="M242.213,74.746l53.807,0" style="fill:none;stroke:#9a9a9a;stroke-width:0.6px;stroke-dasharray:2.24,2.24;"/><path d="M251.181,65.778l0,-53.806" style="fill:none;stroke:#9a9a9a;stroke-width:0.6px;stroke-dasharray:2.24,2.24;"/><path d="M251.181,65.778l53.806,0" style="fill:none;stroke:#9a9a9a;stroke-width:0.6px;stroke-dasharray:2.24,2.24;"/><path d="M260.148,74.746l0,-53.807" style="fill:none;stroke:#9a9a9a;stroke-width:0.6px;stroke-dasharray:2.24,2.24;"/><path d="M242.213,56.811l53.807,0" style="fill:none;stroke:#9a9a9a;stroke-width:0.6px;stroke-dasharray:2.24,2.24;"/><path d="M269.116,65.778l0,-53.806" style="fill:none;stroke:#9a9a9a;stroke-width:0.6px;stroke-dasharray:2.24,2.24;"/><path d="M251.181,47.843l53.806,0" style="fill:none;stroke:#9a9a9a;stroke-width:0.6px;stroke-dasharray:2.24,2.24;"/><path d="M278.084,74.746l0,-53.807" style="fill:none;stroke:#9a9a9a;stroke-width:0.6px;stroke-dasharray:2.24,2.24;"/><path d="M242.213,38.875l53.807,0" style="fill:none;stroke:#9a9a9a;stroke-width:0.6px;stroke-dasharray:2.24,2.24;"/><path d="M287.052,65.778l0,-53.806" style="fill:none;stroke:#9a9a9a;stroke-width:0.6px;stroke-dasharray:2.24,2.24;"/><path d="M251.181,29.907l53.806,0" style="fill:none;stroke:#9a9a9a;stroke-width:0.6px;stroke-dasharray:2.24,2.24;"/><path d="M296.02,74.746l0,-53.807" style="fill:none;stroke:#9a9a9a;stroke-width:0.6px;stroke-dasharray:2.24,2.24;"/><path d="M242.213,20.939l53.807,0" style="fill:none;stroke:#9a9a9a;stroke-width:0.6px;stroke-dasharray:2.24,2.24;"/><path d="M304.987,65.778l0,-53.806" style="fill:none;stroke:#9a9a9a;stroke-width:0.6px;stroke-dasharray:2.24,2.24;"/><path d="M251.181,11.972l53.806,0" style="fill:none;stroke:#9a9a9a;stroke-width:0.6px;stroke-dasharray:2.24,2.24;"/><path d="M224.277,92.682l26.904,-26.904" style="fill:none;stroke:#9a9a9a;stroke-width:0.6px;stroke-dasharray:2.24,2.24;"/><path d="M224.277,74.746l26.904,-26.903" style="fill:none;stroke:#9a9a9a;stroke-width:0.6px;stroke-dasharray:2.24,2.24;"/><path d="M224.277,56.811l26.904,-26.904" style="fill:none;stroke:#9a9a9a;stroke-width:0.6px;stroke-dasharray:2.24,2.24;"/><path d="M224.277,38.875l26.904,-26.903" style="fill:none;stroke:#9a9a9a;stroke-width:0.6px;stroke-dasharray:2.24,2.24;"/><path d="M242.213,92.682l26.903,-26.904" style="fill:none;stroke:#9a9a9a;stroke-width:0.6px;stroke-dasharray:2.24,2.24;"/><path d="M242.213,74.746l26.903,-26.903" style="fill:none;stroke:#9a9a9a;stroke-width:0.6px;stroke-dasharray:2.24,2.24;"/><path d="M242.213,56.811l26.903,-26.904" style="fill:none;stroke:#9a9a9a;stroke-width:0.6px;stroke-dasharray:2.24,2.24;"/><path d="M242.213,38.875l26.903,-26.903" style="fill:none;stroke:#9a9a9a;stroke-width:0.6px;stroke-dasharray:2.24,2.24;"/><path d="M260.148,92.682l26.904,-26.904" style="fill:none;stroke:#9a9a9a;stroke-width:0.6px;stroke-dasharray:2.24,2.24;"/><path d="M260.148,74.746l26.904,-26.903" style="fill:none;stroke:#9a9a9a;stroke-width:0.6px;stroke-dasharray:2.24,2.24;"/><path d="M260.148,56.811l26.904,-26.904" style="fill:none;stroke:#9a9a9a;stroke-width:0.6px;stroke-dasharray:2.24,2.24;"/><path d="M260.148,38.875l26.904,-26.903" style="fill:none;stroke:#9a9a9a;stroke-width:0.6px;stroke-dasharray:2.24,2.24;"/><path d="M278.084,92.682l26.903,-26.904" style="fill:none;stroke:#9a9a9a;stroke-width:0.6px;stroke-dasharray:2.24,2.24;"/><path d="M278.084,74.746l26.903,-26.903" style="fill:none;stroke:#9a9a9a;stroke-width:0.6px;stroke-dasharray:2.24,2.24;"/><path d="M278.084,56.811l26.903,-26.904" style="fill:none;stroke:#9a9a9a;stroke-width:0.6px;stroke-dasharray:2.24,2.24;"/><path d="M278.084,38.875l26.903,-26.903" style="fill:none;stroke:#9a9a9a;stroke-width:0.6px;stroke-dasharray:2.24,2.24;"/><path d="M260.148,56.811l0,-17.936l17.936,0l0,17.936l-17.936,0" style="fill:#fff;fill-rule:nonzero;stroke:#000;stroke-width:0.6px;"/><path d="M269.116,47.843l8.968,-8.968l0,17.936l-8.968,8.967l0,-17.935" style="fill:#fff;fill-rule:nonzero;stroke:#000;stroke-width:0.6px;"/><path d="M260.148,38.875l17.936,0l-8.968,8.968l-17.935,0l8.967,-8.968" style="fill:#fff;fill-rule:nonzero;stroke:#000;stroke-width:0.6px;"/><path d="M233.245,83.714l0,-53.807" style="fill:none;stroke:#9a9a9a;stroke-width:0.6px;stroke-dasharray:2.24,2.24;"/><path d="M233.245,83.714l53.807,0" style="fill:none;stroke:#9a9a9a;stroke-width:0.6px;stroke-dasharray:2.24,2.24;"/><path d="M251.181,83.714l0,-53.807" style="fill:none;stroke:#9a9a9a;stroke-width:0.6px;stroke-dasharray:2.24,2.24;"/><path d="M233.245,65.778l53.807,0" style="fill:none;stroke:#9a9a9a;stroke-width:0.6px;stroke-dasharray:2.24,2.24;"/><path d="M269.116,83.714l0,-53.807" style="fill:none;stroke:#9a9a9a;stroke-width:0.6px;stroke-dasharray:2.24,2.24;"/><path d="M233.245,47.843l53.807,0" style="fill:none;stroke:#9a9a9a;stroke-width:0.6px;stroke-dasharray:2.24,2.24;"/><path d="M287.052,83.714l0,-53.807" style="fill:none;stroke:#9a9a9a;stroke-width:0.6px;stroke-dasharray:2.24,2.24;"/><path d="M233.245,29.907l53.807,0" style="fill:none;stroke:#9a9a9a;stroke-width:0.6px;stroke-dasharray:2.24,2.24;"/><path d="M251.181,65.778l0,-17.935l17.935,0l0,17.935l-17.935,0" style="fill:#fff;fill-rule:nonzero;stroke:#000;stroke-width:0.6px;"/><path d="M224.277,92.682l0,-53.807" style="fill:none;stroke:#9a9a9a;stroke-width:0.6px;stroke-dasharray:2.24,2.24;"/><path d="M224.277,92.682l53.807,0" style="fill:none;stroke:#9a9a9a;stroke-width:0.6px;stroke-dasharray:2.24,2.24;"/><path d="M242.213,92.682l0,-53.807" style="fill:none;stroke:#9a9a9a;stroke-width:0.6px;stroke-dasharray:2.24,2.24;"/><path d="M224.277,74.746l53.807,0" style="fill:none;stroke:#9a9a9a;stroke-width:0.6px;stroke-dasharray:2.24,2.24;"/><path d="M260.148,92.682l0,-53.807" style="fill:none;stroke:#9a9a9a;stroke-width:0.6px;stroke-dasharray:2.24,2.24;"/><path d="M224.277,56.811l53.807,0" style="fill:none;stroke:#9a9a9a;stroke-width:0.6px;stroke-dasharray:2.24,2.24;"/><path d="M278.084,92.682l0,-53.807" style="fill:none;stroke:#9a9a9a;stroke-width:0.6px;stroke-dasharray:2.24,2.24;"/><path d="M224.277,38.875l53.807,0" style="fill:none;stroke:#9a9a9a;stroke-width:0.6px;stroke-dasharray:2.24,2.24;"/><text x="151.576px" y="110.167px" style="font-family:'ArialMT', 'Arial', sans-serif;font-size:9px;">(b)</text><text x="257.749px" y="110.167px" style="font-family:'ArialMT', 'Arial', sans-serif;font-size:9px;">(c)</text><text x="45.504px" y="110.533px" style="font-family:'ArialMT', 'Arial', sans-serif;font-size:9px;">(a)</text></svg>