<svg viewBox="0 0 1000 500" xmlns="http://www.w3.org/2000/svg" fill-rule="evenodd" clip-rule="evenodd"><path fill="url(#_Linear1)" d="M0 0H1000V500H0z"/><path d="M196.005 190.174c-31.857 0-57.677 26.782-57.677 59.826s25.82 59.826 57.677 59.826 57.677-26.782 57.677-59.826-25.82-59.826-57.677-59.826zm-32.049 93.06c-8.7-9.024-13.035-20.81-13.17-32.636l44.643 46.306c-11.401-.14-22.764-4.637-31.473-13.67zm42.076 12.573L151.844 239.6c4.566-20.949 22.59-36.603 44.161-36.603 15.083 0 28.406 7.677 36.645 19.433l-6.306 5.534c-6.71-9.92-17.794-16.422-30.339-16.422-16.12 0-29.828 10.739-34.923 25.675l47.257 49.018c11.862-4.357 20.956-14.777 23.801-27.68h-19.658V250h28.838c0 22.385-15.092 41.07-35.288 45.807z" fill="rgb(102,51,153)" fill-rule="nonzero"/><g transform="matrix(1.96774 0 0 1.96774 613.74 192.936)"><clipPath id="a"><path d="M0 0H126V58H0z"/></clipPath><g clip-path="url(#a)"><path d="M137.25 5.168c0-2.438-2.229-4.418-4.974-4.418H5.724C2.979.75.75 2.73.75 5.168v46.664c0 2.438 2.229 4.418 4.974 4.418h126.552c2.745 0 4.974-1.98 4.974-4.418V5.168z" fill="white" stroke="rgb(234,234,234)" stroke-width="1.5px" transform="matrix(.90477 0 0 1.01846 .13 -.261)"/><path d="M70.5 36V13.836" fill="none" stroke="black" stroke-width="6px" stroke-linecap="square" transform="matrix(1.06009 0 0 1.09897 -11.265 -1.17)"/><path d="M57 27.239L70.611 40.85l13.415-13.414" fill="none" stroke="black" stroke-width="6px" transform="matrix(1.06009 0 0 1.09897 -11.265 -1.17)"/><path d="M16.45 43.928V18.964L30.3 32.815l13.932-13.931v24.865" fill="none" stroke="black" stroke-width="6px" transform="matrix(1.06009 0 0 1.09897 -8.085 -1.17)"/><g><path d="M122.439 41.268L93.17 12m.391 29.268L122.83 12" fill="none" stroke="rgb(249,172,0)" stroke-width="6px" transform="matrix(1.06009 0 0 1.09897 -14.445 -1.17)"/></g></g></g><text x="275.346" y="219.852" font-family="'Arial-BoldMT', 'Arial', sans-serif" font-weight="700" font-size="96px" fill="white" transform="translate(11.246 66.186)">+</text><text x="275.346" y="219.852" font-family="'Arial-BoldMT', 'Arial', sans-serif" font-weight="700" font-size="96px" fill="white" transform="translate(249.422 64.507)">+</text><g transform="translate(375.564 193.532) scale(1.19891)"><clipPath id="b"><path d="M0 0H97V97H0z"/></clipPath><g clip-path="url(#b)" fill-rule="nonzero"><path d="M0 4.362A4.353 4.353 0 0 1 4.363 0h87.275A4.353 4.353 0 0 1 96 4.362v87.275A4.353 4.353 0 0 1 91.638 96H4.363A4.354 4.354 0 0 1 0 91.637V4.362z" fill="rgb(17,157,255)"/><path d="M52.364 39.273a4.354 4.354 0 0 1 4.363-4.363 4.354 4.354 0 0 1 4.363 4.363 4.354 4.354 0 0 1-4.363 4.363 4.354 4.354 0 0 1-4.363-4.363z" fill="rgb(37,254,253)"/><path d="M17.456 39.273a4.354 4.354 0 0 1 4.363-4.363 4.354 4.354 0 0 1 4.363 4.363 4.354 4.354 0 0 1-4.363 4.363 4.354 4.354 0 0 1-4.363-4.363z" fill="rgb(37,254,253)"/><path d="M21.819 52.364c-2.393 0-4.362 1.97-4.362 4.363v17.45c0 2.394 1.97 4.365 4.364 4.365s4.364-1.97 4.364-4.364V56.727c0-2.394-1.97-4.363-4.363-4.363h-.003zm34.911 0c-2.394 0-4.363 1.97-4.363 4.363v17.45c0 2.394 1.97 4.365 4.364 4.365 2.395 0 4.364-1.97 4.364-4.364V56.727c0-2.394-1.97-4.363-4.362-4.363h-.003zM39.273 34.913c-2.393 0-4.363 1.97-4.363 4.363v34.91c.059 2.352 2.01 4.256 4.363 4.255 2.353 0 4.305-1.903 4.363-4.255v-34.91c0-2.394-1.97-4.363-4.363-4.363zm34.908 0c-2.394 0-4.363 1.97-4.363 4.363v34.91c0 2.393 1.97 4.364 4.364 4.364 2.395 0 4.364-1.97 4.364-4.364v-34.91c0-2.394-1.97-4.363-4.362-4.363h-.003z" fill="white"/><path d="M68.401 20.403a4.354 4.354 0 0 1 4.363-4.363 4.354 4.354 0 0 1 4.363 4.363 4.354 4.354 0 0 1-4.363 4.363 4.354 4.354 0 0 1-4.363-4.363z" fill="rgb(37,254,253)"/><path d="M50.948 20.403a4.354 4.354 0 0 1 4.363-4.363 4.354 4.354 0 0 1 4.363 4.363 4.354 4.354 0 0 1-4.363 4.363 4.354 4.354 0 0 1-4.363-4.363z" fill="rgb(37,254,253)"/><path d="M33.494 20.403a4.354 4.354 0 0 1 4.363-4.363 4.354 4.354 0 0 1 4.363 4.363 4.354 4.354 0 0 1-4.363 4.363 4.354 4.354 0 0 1-4.363-4.363z" fill="rgb(37,254,253)"/><path d="M16.04 20.403a4.354 4.354 0 0 1 4.363-4.363 4.354 4.354 0 0 1 4.363 4.363 4.354 4.354 0 0 1-4.363 4.363 4.354 4.354 0 0 1-4.363-4.363z" fill="rgb(37,254,253)"/></g></g><defs><linearGradient id="_Linear1" x2="1" gradientUnits="userSpaceOnUse" gradientTransform="matrix(1000 0 0 500 0 250)"><stop offset="0" stop-color="rgb(16,230,216)"/><stop offset=".43" stop-color="rgb(17,166,179)"/><stop offset="1" stop-color="rgb(19,23,96)"/></linearGradient></defs></svg>