<?xml version="1.0" encoding="UTF-8" standalone="no"?>
<!DOCTYPE svg PUBLIC "-//W3C//DTD SVG 1.1//EN" "http://www.w3.org/Graphics/SVG/1.1/DTD/svg11.dtd">
<svg width="100%" height="100%" viewBox="0 0 1000 500" version="1.1" xmlns="http://www.w3.org/2000/svg" xmlns:xlink="http://www.w3.org/1999/xlink" xml:space="preserve" xmlns:serif="http://www.serif.com/" style="fill-rule:evenodd;clip-rule:evenodd;">
    <rect x="0" y="0" width="1000" height="500" style="fill:url(#_Linear1);"/>
    <g transform="matrix(1.19891,0,0,1.19891,-107.597,-49.7273)">
        <g transform="matrix(0.0801799,0,0,0.0831674,253.232,250)">
            <g transform="matrix(1,0,0,1,-600,-600)">
                <path d="M600,0C268.6,0 0,268.6 0,600C0,931.4 268.6,1200 600,1200C931.4,1200 1200,931.4 1200,600C1200,268.6 931.4,0 600,0ZM266.6,933.3C176.1,842.8 131,724.6 129.6,606L594,1070.4C475.4,1069 357.2,1023.9 266.6,933.3ZM704.3,1059.4L140.6,495.7C188.1,285.6 375.6,128.6 600,128.6C756.9,128.6 895.5,205.6 981.2,323.5L915.6,379C845.8,279.5 730.5,214.3 600,214.3C432.3,214.3 289.7,322 236.7,471.8L728.3,963.4C851.7,919.7 946.3,815.2 975.9,685.8L771.4,685.8L771.4,600L1071.4,600C1071.4,824.5 914.4,1011.9 704.3,1059.4Z" style="fill:rgb(102,51,153);fill-rule:nonzero;"/>
            </g>
        </g>
        <g transform="matrix(1.64127,0,0,1.64127,705.06,250)">
            <g transform="matrix(1,0,0,1,-63,-29)">
                <clipPath id="_clip2">
                    <rect x="0" y="0" width="126" height="58"/>
                </clipPath>
                <g clip-path="url(#_clip2)">
                    <g transform="matrix(1.06009,0,0,1.09897,-8.0848,-1.16976)">
                        <g transform="matrix(0.85348,0,0,0.92674,7.74989,0.826912)">
                            <path d="M137.25,5.168C137.25,2.73 135.021,0.75 132.276,0.75L5.724,0.75C2.979,0.75 0.75,2.73 0.75,5.168L0.75,51.832C0.75,54.27 2.979,56.25 5.724,56.25L132.276,56.25C135.021,56.25 137.25,54.27 137.25,51.832L137.25,5.168Z" style="fill:white;stroke:rgb(234,234,234);stroke-width:1.5px;"/>
                        </g>
                        <g>
                            <g transform="matrix(1,0,0,1,-3,0)">
                                <path d="M70.5,36L70.5,13.836" style="fill:none;stroke:black;stroke-width:6px;stroke-linecap:square;"/>
                                <path d="M57,27.239L70.611,40.85L84.026,27.436" style="fill:none;stroke:black;stroke-width:6px;"/>
                            </g>
                            <path d="M16.45,43.928L16.45,18.964L30.3,32.815L44.232,18.884L44.232,43.749" style="fill:none;stroke:black;stroke-width:6px;"/>
                            <g transform="matrix(1,0,0,1,-6,0)">
                                <path d="M122.439,41.268L93.17,12M93.561,41.268L122.83,12" style="fill:none;stroke:rgb(249,172,0);stroke-width:6px;"/>
                            </g>
                        </g>
                    </g>
                </g>
            </g>
        </g>
        <g transform="matrix(0.834092,0,0,0.834092,99.1258,96.6825)">
            <text x="275.346px" y="219.852px" style="font-family:'Arial-BoldMT', 'Arial', sans-serif;font-weight:700;font-size:96px;fill:white;">+</text>
        </g>
        <g transform="matrix(0.834092,0,0,0.834092,297.786,95.2821)">
            <text x="275.346px" y="219.852px" style="font-family:'Arial-BoldMT', 'Arial', sans-serif;font-weight:700;font-size:96px;fill:white;">+</text>
        </g>
        <g transform="matrix(1,0,0,1,451.5,251.4)">
            <g transform="matrix(1,0,0,1,-48.5,-48.5)">
                <clipPath id="_clip3">
                    <rect x="0" y="0" width="97" height="97"/>
                </clipPath>
                <g clip-path="url(#_clip3)">
                    <g transform="matrix(1.01042,0,0,1.01042,1.61538e-14,-101.987)">
                        <path d="M0,105.252C0,102.861 1.926,100.935 4.318,100.935L90.693,100.935C93.084,100.935 95.01,102.861 95.01,105.252L95.01,191.627C95.01,194.019 93.084,195.945 90.693,195.945L4.318,195.945C1.926,195.945 0,194.019 0,191.627L0,105.252Z" style="fill:rgb(17,157,255);fill-rule:nonzero;"/>
                    </g>
                    <g transform="matrix(1.01042,0,0,1.01042,1.61538e-14,-101.987)">
                        <path d="M51.824,139.803C51.824,137.411 53.75,135.485 56.142,135.485C58.534,135.485 60.46,137.411 60.46,139.803C60.46,142.194 58.534,144.121 56.142,144.121C53.75,144.121 51.824,142.194 51.824,139.803Z" style="fill:rgb(37,254,253);fill-rule:nonzero;"/>
                    </g>
                    <g transform="matrix(1.01042,0,0,1.01042,-34.9077,-101.987)">
                        <path d="M51.824,139.803C51.824,137.411 53.75,135.485 56.142,135.485C58.534,135.485 60.46,137.411 60.46,139.803C60.46,142.194 58.534,144.121 56.142,144.121C53.75,144.121 51.824,142.194 51.824,139.803Z" style="fill:rgb(37,254,253);fill-rule:nonzero;"/>
                    </g>
                    <g transform="matrix(1.01042,0,0,1.01042,1.61538e-14,-101.987)">
                        <path d="M21.594,152.759C19.226,152.759 17.277,154.708 17.277,157.077L17.277,174.348C17.277,176.717 19.226,178.667 21.596,178.667C23.965,178.667 25.915,176.717 25.915,174.348L25.915,157.077C25.915,154.708 23.966,152.759 21.597,152.759L21.594,152.759ZM56.145,152.759C53.776,152.759 51.827,154.708 51.827,157.077L51.827,174.348C51.827,176.717 53.777,178.667 56.146,178.667C58.516,178.667 60.465,176.717 60.465,174.348L60.465,157.077C60.465,154.708 58.516,152.759 56.148,152.759L56.145,152.759ZM38.868,135.488C36.5,135.488 34.55,137.437 34.55,139.806L34.55,174.356C34.608,176.684 36.539,178.568 38.868,178.567C41.197,178.568 43.129,176.684 43.186,174.356L43.186,139.806C43.186,137.437 41.237,135.488 38.868,135.488ZM73.416,135.488C71.047,135.488 69.098,137.437 69.098,139.806L69.098,174.356C69.098,176.725 71.048,178.675 73.417,178.675C75.787,178.675 77.736,176.725 77.736,174.356L77.736,139.806C77.736,137.437 75.787,135.488 73.419,135.488L73.416,135.488Z" style="fill:white;fill-rule:nonzero;"/>
                    </g>
                    <g transform="matrix(1.01042,0,0,1.01042,16.0373,-120.857)">
                        <path d="M51.824,139.803C51.824,137.411 53.75,135.485 56.142,135.485C58.534,135.485 60.46,137.411 60.46,139.803C60.46,142.194 58.534,144.121 56.142,144.121C53.75,144.121 51.824,142.194 51.824,139.803Z" style="fill:rgb(37,254,253);fill-rule:nonzero;"/>
                    </g>
                    <g transform="matrix(1.01042,0,0,1.01042,-1.41648,-120.857)">
                        <path d="M51.824,139.803C51.824,137.411 53.75,135.485 56.142,135.485C58.534,135.485 60.46,137.411 60.46,139.803C60.46,142.194 58.534,144.121 56.142,144.121C53.75,144.121 51.824,142.194 51.824,139.803Z" style="fill:rgb(37,254,253);fill-rule:nonzero;"/>
                    </g>
                    <g transform="matrix(1.01042,0,0,1.01042,-18.8703,-120.857)">
                        <path d="M51.824,139.803C51.824,137.411 53.75,135.485 56.142,135.485C58.534,135.485 60.46,137.411 60.46,139.803C60.46,142.194 58.534,144.121 56.142,144.121C53.75,144.121 51.824,142.194 51.824,139.803Z" style="fill:rgb(37,254,253);fill-rule:nonzero;"/>
                    </g>
                    <g transform="matrix(1.01042,0,0,1.01042,-36.3242,-120.857)">
                        <path d="M51.824,139.803C51.824,137.411 53.75,135.485 56.142,135.485C58.534,135.485 60.46,137.411 60.46,139.803C60.46,142.194 58.534,144.121 56.142,144.121C53.75,144.121 51.824,142.194 51.824,139.803Z" style="fill:rgb(37,254,253);fill-rule:nonzero;"/>
                    </g>
                </g>
            </g>
        </g>
    </g>
    <defs>
        <linearGradient id="_Linear1" x1="0" y1="0" x2="1" y2="0" gradientUnits="userSpaceOnUse" gradientTransform="matrix(1000,0,0,500,0,250)"><stop offset="0" style="stop-color:rgb(16,230,216);stop-opacity:1"/><stop offset="0.43" style="stop-color:rgb(17,166,179);stop-opacity:1"/><stop offset="1" style="stop-color:rgb(19,23,96);stop-opacity:1"/></linearGradient>
    </defs>
</svg>
