<svg xmlns="http://www.w3.org/2000/svg" xmlns:xlink="http://www.w3.org/1999/xlink" fill-rule="evenodd" stroke-linecap="round" stroke-linejoin="round" stroke-miterlimit="10" viewBox="0 0 2000 500"><style>.B{fill-opacity:.3}.C{fill-rule:nonzero}.D{fill:#fff}.E{fill:#00b3ff}.F{fill:#0042c0}.G{stroke-width:2}.H{fill:#cfcfe5}.I{fill-opacity:.4}.J{fill:#00e6ff}.K{fill:#ff4f92}.L{fill:#ffd600}.M{fill:#00da8f}.N{fill:#00fcff}.O{fill:#e9ffff}.P{fill:#00dbff}.Q{fill:#008bef}.R{fill:#00fbd0}.S{fill:#0060ff}.T{fill-opacity:.2}.U{fill:#ff3d40}.V{fill:#c32717}.W{fill:#ffcd00}.X{fill:#ffa600}.Y{fill:#45d788}.Z{fill:#11ab6b}</style><linearGradient id="A" gradientUnits="userSpaceOnUse" x1="1000" x2="1000" y1="500" y2="-.058"><stop offset="0" stop-color="#22115b"/><stop offset="1" stop-color="#401b89"/></linearGradient><linearGradient id="B" gradientUnits="userSpaceOnUse" x1="993.438" x2="993.438" y1="500" y2="137.41"><stop offset="0" stop-color="#fff" stop-opacity="0"/><stop offset="1" stop-color="#1f0f4f"/></linearGradient><linearGradient id="C" gradientUnits="userSpaceOnUse"><stop offset="0" stop-color="#eaf1ff" stop-opacity="0"/><stop offset="1" stop-color="#eaf1ff"/></linearGradient><linearGradient id="D" x1="810.909" x2="787.834" xlink:href="#C" y1="329.883" y2="306.808"/><linearGradient id="E" x1="805.573" x2="794.847" xlink:href="#C" y1="336.563" y2="325.837"/><linearGradient id="F" x1="826.638" x2="819.931" xlink:href="#C" y1="339.628" y2="332.921"/><linearGradient id="G" gradientUnits="userSpaceOnUse"><stop offset="0" stop-color="#22115b" stop-opacity=".8"/><stop offset="1" stop-color="#401b89" stop-opacity=".8"/></linearGradient><linearGradient id="H" x1="669.454" x2="826.941" xlink:href="#G" y1="197.984" y2="197.984"/><linearGradient id="I" x1="1170.7" x2="1246.182" xlink:href="#G" y1="190.041" y2="190.041"/><linearGradient id="J" x1="936.604" x2="1033.704" xlink:href="#G" y1="135.575" y2="135.575"/><path d="M0 0h2000v500H0z" fill="url(#A)"/><g class="C"><path d="M897.1 268.2L786.3 500h414.3l-108.3-236.3h-75.9l-62.6 13.135z" fill="url(#B)"/><path d="M1077 382.2H913c-7.5 0-13.6-6.1-13.6-13.6v-92.7c0-7.5 6.1-13.6 13.6-13.6h164c7.5 0 13.6 6.1 13.6 13.6v92.7c.1 7.5-6 13.6-13.6 13.6z" fill="#2d1269" fill-opacity=".28"/><path d="M1079.3 378.9H910.7c-7.5 0-13.6-6.1-13.6-13.6v-95.5c0-7.5 6.1-13.6 13.6-13.6h168.5c7.5 0 13.6 6.1 13.6 13.6v95.5c.1 7.5-6 13.6-13.5 13.6z" fill="#d8e3ff"/><path d="M1081.6 377.4H908.4c-6.2 0-11.3-5.1-11.3-11.3v1.5c0 6.2 5.1 11.3 11.3 11.3h173.2c6.2 0 11.3-5.1 11.3-11.3v-1.5c0 6.2-5.1 11.3-11.3 11.3z" fill="#def5ff"/><path d="M1072.3 341.6H917.7c-2.7 0-4.8-2.2-4.8-4.8v-62.6c0-2.7 2.2-4.8 4.8-4.8h154.6c2.7 0 4.8 2.2 4.8 4.8v62.6c0 2.6-2.2 4.8-4.8 4.8z" class="O"/><path d="M1072.3 340.5H917.7c-2.7 0-4.8-2.2-4.8-4.8v-61.5c0-2.7 2.2-4.8 4.8-4.8h154.6c2.7 0 4.8 2.2 4.8 4.8v61.5c0 2.6-2.2 4.8-4.8 4.8z" fill="#c9ccec"/><path d="M984.9 324.8h7.9c.5 0 .8-.4.8-.8v-7.3c0-.5-.4-.8-.8-.8h-7.9c-.5 0-.8.4-.8.8v7.3c0 .5.4.8.8.8zm-13 0h7.9c.5 0 .8-.4.8-.8v-7.3c0-.5-.4-.8-.8-.8h-7.9c-.5 0-.8.4-.8.8v7.3c0 .5.3.8.8.8zm-52.1-34.4h7.9c.5 0 .8-.4.8-.8v-7.3c0-.5-.4-.8-.8-.8h-7.9c-.5 0-.8.4-.8.8v7.3c0 .4.3.8.8.8zm52.1 10.8h7.9c.5 0 .8-.4.8-.8v-7.3c0-.5-.4-.8-.8-.8h-7.9c-.5 0-.8.4-.8.8v7.3c0 .5.3.8.8.8zm0 11.8h7.9c.5 0 .8-.4.8-.8v-7.3c0-.5-.4-.8-.8-.8h-7.9c-.5 0-.8.4-.8.8v7.3c0 .5.3.8.8.8zm0-33.2h7.9c.5 0 .8-.4.8-.8v-3.8c0-.5-.4-.8-.8-.8h-7.9c-.5 0-.8.4-.8.8v3.8c0 .5.3.8.8.8zm0 10.6h7.9c.5 0 .8-.4.8-.8v-7.3c0-.5-.4-.8-.8-.8h-7.9c-.5 0-.8.4-.8.8v7.3c0 .4.3.8.8.8zm-52.1-10.6h7.9c.5 0 .8-.4.8-.8v-3.8c0-.5-.4-.8-.8-.8h-7.9c-.5 0-.8.4-.8.8v3.8c0 .5.3.8.8.8zm21 12.5h-21c-.5 0-.8.4-.8.8v7.3c0 .5.4.8.8.8h21c.5 0 .8-.4.8-.8v-7.3c0-.4-.4-.8-.8-.8zm0 11.8h-7.9c-.5 0-.8.4-.8.8v7.3c0 .5.4.8.8.8h7.9c.5 0 .8-.4.8-.8v-7.3c0-.4-.4-.8-.8-.8zm-13.1 11.8h-7.9c-.5 0-.8.4-.8.8v7.3c0 .5.4.8.8.8h7.9c.5 0 .8-.4.8-.8v-7.3c.1-.4-.3-.8-.8-.8zm13.1-34.5h-7.9c-.5 0-.8.4-.8.8v7.3c0 .5.4.8.8.8h7.9c.5 0 .8-.4.8-.8v-7.3c0-.4-.4-.8-.8-.8zm0 34.5h-7.9c-.5 0-.8.4-.8.8v7.3c0 .5.4.8.8.8h7.9c.5 0 .8-.4.8-.8v-7.3c0-.4-.4-.8-.8-.8zm-13.1-11.8h-7.9c-.5 0-.8.4-.8.8v7.3c0 .5.4.8.8.8h7.9c.5 0 .8-.4.8-.8v-7.3c.1-.4-.3-.8-.8-.8zm13.1 23.6h-7.9c-.5 0-.8.4-.8.8v7.3c0 .5.4.8.8.8h7.9c.5 0 .8-.4.8-.8v-7.3c0-.5-.4-.8-.8-.8zM1011 313h7.9c.5 0 .8-.4.8-.8v-7.3c0-.5-.4-.8-.8-.8h-7.9c-.5 0-.8.4-.8.8v7.3c-.1.5.3.8.8.8zm-26.1 0h7.9c.5 0 .8-.4.8-.8v-7.3c0-.5-.4-.8-.8-.8h-7.9c-.5 0-.8.4-.8.8v7.3c0 .5.4.8.8.8zm26.1-11.8h7.9c.5 0 .8-.4.8-.8v-7.3c0-.5-.4-.8-.8-.8h-7.9c-.5 0-.8.4-.8.8v7.3c-.1.5.3.8.8.8zm-13.1-21.4h7.9c.5 0 .8-.4.8-.8v-3.8c0-.5-.4-.8-.8-.8h-7.9c-.5 0-.8.4-.8.8v3.8c0 .5.4.8.8.8zm13.1 45h7.9c.5 0 .8-.4.8-.8v-7.3c0-.5-.4-.8-.8-.8h-7.9c-.5 0-.8.4-.8.8v7.3c-.1.5.3.8.8.8zm39.1-45h7.9c.5 0 .8-.4.8-.8v-3.8c0-.5-.4-.8-.8-.8h-7.9c-.5 0-.8.4-.8.8v3.8c-.1.5.3.8.8.8zm-39.1 0h7.9c.5 0 .8-.4.8-.8v-3.8c0-.5-.4-.8-.8-.8h-7.9c-.5 0-.8.4-.8.8v3.8c-.1.5.3.8.8.8zm0 10.6h7.9c.5 0 .8-.4.8-.8v-7.3c0-.5-.4-.8-.8-.8h-7.9c-.5 0-.8.4-.8.8v7.3c-.1.4.3.8.8.8zm-70.2-16h-7.9c-.5 0-.8.4-.8.8v3.8c0 .5.4.8.8.8h7.9c.5 0 .8-.4.8-.8v-3.8c0-.5-.4-.8-.8-.8zm44.1 16h7.9c.5 0 .8-.4.8-.8v-7.3c0-.5-.4-.8-.8-.8h-7.9c-.5 0-.8.4-.8.8v7.3c0 .4.4.8.8.8zm13 0h7.9c.5 0 .8-.4.8-.8v-7.3c0-.5-.4-.8-.8-.8h-7.9c-.5 0-.8.4-.8.8v7.3c0 .4.4.8.8.8zm-13 10.8h7.9c.5 0 .8-.4.8-.8v-7.3c0-.5-.4-.8-.8-.8h-7.9c-.5 0-.8.4-.8.8v7.3c0 .5.4.8.8.8zm0-21.4h7.9c.5 0 .8-.4.8-.8v-3.8c0-.5-.4-.8-.8-.8h-7.9c-.5 0-.8.4-.8.8v3.8c0 .5.4.8.8.8zm13 45h7.9c.5 0 .8-.4.8-.8v-7.3c0-.5-.4-.8-.8-.8h-7.9c-.5 0-.8.4-.8.8v7.3c0 .5.4.8.8.8zm0-23.6h7.9c.5 0 .8-.4.8-.8v-7.3c0-.5-.4-.8-.8-.8h-7.9c-.5 0-.8.4-.8.8v7.3c0 .5.4.8.8.8zm0 11.8h7.9c.5 0 .8-.4.8-.8v-7.3c0-.5-.4-.8-.8-.8h-7.9c-.5 0-.8.4-.8.8v7.3c0 .5.4.8.8.8zm-70.2 14.7h-7.9c-.5 0-.8.4-.8.8v7.3c0 .5.4.8.8.8h7.9c.5 0 .8-.4.8-.8v-7.3c.1-.5-.3-.8-.8-.8zm117.3-23.6h-8c-.5 0-.8.4-.8.8v7.3c0 .5.4.8.8.8h7.9c.5 0 .8-.4.8-.8v-7.3c.1-.4-.3-.8-.7-.8zm0-11.8h-8c-.5 0-.8.4-.8.8v7.3c0 .5.4.8.8.8h7.9c.5 0 .8-.4.8-.8v-7.3c.1-.4-.3-.8-.7-.8zm13 35.4h-7.9c-.5 0-.8.4-.8.8v7.3c0 .5.4.8.8.8h7.9c.5 0 .8-.4.8-.8v-7.3c0-.5-.3-.8-.8-.8zm-13-53.3h-8c-.5 0-.8.4-.8.8v3.8c0 .5.4.8.8.8h7.9c.5 0 .8-.4.8-.8v-3.8c.1-.5-.3-.8-.7-.8zm0 7h-8c-.5 0-.8.4-.8.8v7.3c0 .5.4.8.8.8h7.9c.5 0 .8-.4.8-.8v-7.3c.1-.4-.3-.8-.7-.8zm-13.1 0h-7.9c-.5 0-.8.4-.8.8v7.3c0 .5.4.8.8.8h7.9c.5 0 .8-.4.8-.8v-7.3c.1-.4-.3-.8-.8-.8zm0-7h-7.9c-.5 0-.8.4-.8.8v3.8c0 .5.4.8.8.8h7.9c.5 0 .8-.4.8-.8v-3.8c.1-.5-.3-.8-.8-.8zm13.1 53.3h-8c-.5 0-.8.4-.8.8v7.3c0 .5.4.8.8.8h7.9c.5 0 .8-.4.8-.8v-7.3c.1-.5-.3-.8-.7-.8zm0-11.8h-8c-.5 0-.8.4-.8.8v7.3c0 .5.4.8.8.8h7.9c.5 0 .8-.4.8-.8v-7.3c.1-.4-.3-.8-.7-.8zm26-34.5h-21c-.5 0-.8.4-.8.8v7.3c0 .5.4.8.8.8h21c.5 0 .8-.4.8-.8v-7.3c.1-.4-.3-.8-.8-.8zm0-7h-7.9c-.5 0-.8.4-.8.8v3.8c0 .5.4.8.8.8h7.9c.5 0 .8-.4.8-.8v-3.8c.1-.5-.3-.8-.8-.8zm0 17.9h-21c-.5 0-.8.4-.8.8v7.3c0 .5.4.8.8.8h11.4c.5 0 .8.4.8.8v10.1c0 .5.4.8.8.8h7.9c.5 0 .8-.4.8-.8V293c.2-.3-.2-.7-.7-.7zm-117.2 35.4h-7.9c-.5 0-.8.4-.8.8v7.3c0 .5.4.8.8.8h7.9c.5 0 .8-.4.8-.8v-7.3c0-.5-.4-.8-.8-.8zm104.2-11.8h-7.9c-.5 0-.8.4-.8.8v7.3c0 .5.4.8.8.8h7.9c.5 0 .8-.4.8-.8v-7.3c0-.4-.3-.8-.8-.8zm0-11.8h-7.9c-.5 0-.8.4-.8.8v7.3c0 .5.4.8.8.8h7.9c.5 0 .8-.4.8-.8v-7.3c0-.4-.3-.8-.8-.8zm13 23.6h-7.9c-.5 0-.8.4-.8.8v7.3c0 .5.4.8.8.8h7.9c.5 0 .8-.4.8-.8v-7.3c.1-.5-.3-.8-.8-.8zm0-11.8h-7.9c-.5 0-.8.4-.8.8v7.3c0 .5.4.8.8.8h7.9c.5 0 .8-.4.8-.8v-7.3c.1-.4-.3-.8-.8-.8zm-104.2 0h-7.9c-.5 0-.8.4-.8.8v7.3c0 .5.4.8.8.8h7.9c.5 0 .8-.4.8-.8v-7.3c0-.4-.3-.8-.8-.8zm-13-34.5h-7.9c-.5 0-.8.4-.8.8v7.3c0 .5.4.8.8.8h7.9c.5 0 .8-.4.8-.8v-7.3c0-.4-.4-.8-.8-.8zm13 46.3h-7.9c-.5 0-.8.4-.8.8v7.3c0 .5.4.8.8.8h7.9c.5 0 .8-.4.8-.8v-7.3c0-.5-.3-.8-.8-.8zm-13-53.3h-7.9c-.5 0-.8.4-.8.8v3.8c0 .5.4.8.8.8h7.9c.5 0 .8-.4.8-.8v-3.8c0-.5-.4-.8-.8-.8zm78.1 17.9h-7.9c-.5 0-.8.4-.8.8v7.3c0 .5.4.8.8.8h7.9c.5 0 .8-.4.8-.8v-7.3c.1-.4-.3-.8-.8-.8zm-78.1 23.6h-7.9c-.5 0-.8.4-.8.8v7.3c0 .5.4.8.8.8h7.9c.5 0 .8-.4.8-.8v-7.3c0-.4-.4-.8-.8-.8zm0-11.8h-7.9c-.5 0-.8.4-.8.8v7.3c0 .5.4.8.8.8h7.9c.5 0 .8-.4.8-.8v-7.3c0-.4-.4-.8-.8-.8zm0-11.8h-7.9c-.5 0-.8.4-.8.8v7.3c0 .5.4.8.8.8h7.9c.5 0 .8-.4.8-.8v-7.3c0-.4-.4-.8-.8-.8zm13 11.8h-7.9c-.5 0-.8.4-.8.8v7.3c0 .5.4.8.8.8h7.9c.5 0 .8-.4.8-.8v-7.3c0-.4-.3-.8-.8-.8zm65.1 0h-7.9c-.5 0-.8.4-.8.8v7.3c0 .5.4.8.8.8h7.9c.5 0 .8-.4.8-.8v-7.3c.1-.4-.3-.8-.8-.8zm0 23.6h-60.1c-.5 0-.8.4-.8.8v7.3c0 .5.4.8.8.8h60.1c.5 0 .8-.4.8-.8v-7.3c.1-.5-.3-.8-.8-.8zm0-11.8h-7.9c-.5 0-.8.4-.8.8v7.3c0 .5.4.8.8.8h7.9c.5 0 .8-.4.8-.8v-7.3c.1-.4-.3-.8-.8-.8zm-65.1-23.6h-7.9c-.5 0-.8.4-.8.8v7.3c0 .5.4.8.8.8h7.9c.5 0 .8-.4.8-.8v-7.3c0-.4-.3-.8-.8-.8zm0-10.9h-7.9c-.5 0-.8.4-.8.8v7.3c0 .5.4.8.8.8h7.9c.5 0 .8-.4.8-.8v-7.3c0-.4-.3-.8-.8-.8zm0-7h-7.9c-.5 0-.8.4-.8.8v3.8c0 .5.4.8.8.8h7.9c.5 0 .8-.4.8-.8v-3.8c0-.5-.3-.8-.8-.8z" fill="#00074a"/><g fill="#004695"><use xlink:href="#L"/><use xlink:href="#L" y="7.1"/><use xlink:href="#L" x="52.1" y="41.5"/><use xlink:href="#L" x="52.1" y="17.9"/><use xlink:href="#L" x="52.1" y="7.1"/><use xlink:href="#L" x="52.1" y="29.7"/><use xlink:href="#M"/><use xlink:href="#N"/><use xlink:href="#O"/><use xlink:href="#L" x="52.1"/><use xlink:href="#N" y="-22.7"/><path d="M940.8 292.3h-21c-.5 0-.8.4-.8.8v.2c0-.5.4-.8.8-.8h21c.5 0 .8.4.8.8v-.2c0-.4-.4-.8-.8-.8z"/><use xlink:href="#O" y="-11.8"/><use xlink:href="#P"/><use xlink:href="#N" y="11.8"/><use xlink:href="#Q"/><use xlink:href="#Q" y="-23.6"/><use xlink:href="#Q" y="-11.8"/><use xlink:href="#P" y="-53.3"/><use xlink:href="#R"/><use xlink:href="#R" y="7.1"/><use xlink:href="#Q" x="39.1" y="-41.5"/><use xlink:href="#Q" y="-34.4"/><use xlink:href="#Q" y="-41.5"/><use xlink:href="#R" y="17.9"/><use xlink:href="#R" x="-13" y="7.1"/><use xlink:href="#R" x="-13" y="17.9"/><use xlink:href="#R" x="-13" y="29.7"/><use xlink:href="#R" y="29.7"/><use xlink:href="#R" x="-13" y="41.5"/><use xlink:href="#R" x="-13"/><use xlink:href="#R" y="41.5"/><path d="M1031.9 327.7h-60.1c-.5 0-.8.4-.8.8v.2c0-.5.4-.8.8-.8h60.1c.5 0 .8.4.8.8v-.2c.1-.5-.3-.8-.8-.8z"/><use xlink:href="#S"/><use xlink:href="#T"/><use xlink:href="#U"/><use xlink:href="#U" y="-10.9"/><use xlink:href="#U" y="11.8"/><use xlink:href="#T" y="53.3"/><use xlink:href="#U" y="23.6"/><use xlink:href="#M" x="143.3" y="-53.3"/><use xlink:href="#V"/><use xlink:href="#M" x="104.2" y="-53.3"/><use xlink:href="#W"/><use xlink:href="#W" y="-10.9"/><use xlink:href="#O" x="143.3"/><use xlink:href="#V" y="-11.8"/><use xlink:href="#M" x="143.3"/><use xlink:href="#V" x="-91.2"/><use xlink:href="#P" x="13" y="-53.3"/><use xlink:href="#S" x="-91.2"/><use xlink:href="#P" x="13"/><use xlink:href="#N" x="13" y="-22.7"/><use xlink:href="#N" x="13" y="11.8"/><use xlink:href="#N" x="13" y="-11.8"/><use xlink:href="#N" x="13"/><use xlink:href="#O" x="104.2" y="-11.8"/><use xlink:href="#O" x="104.2"/><use xlink:href="#O" x="104.2" y="-34.5"/><use xlink:href="#O" x="104.2" y="-23.6"/><use xlink:href="#S" x="-91.2" y="-53.3"/><use xlink:href="#V" x="-91.2" y="-23.6"/><use xlink:href="#V" x="-91.2" y="-34.5"/><use xlink:href="#V" x="-91.2" y="-11.8"/></g><path d="M1014.6 373.2H975c-2.7 0-4.8-2.2-4.8-4.8v-19.2c0-2.7 2.2-4.8 4.8-4.8h39.6c2.7 0 4.8 2.2 4.8 4.8v19.2c0 2.7-2.1 4.8-4.8 4.8z" class="O"/><path d="M1014.6 373H975c-2.7 0-4.8-2.2-4.8-4.8v-19c0-2.7 2.2-4.8 4.8-4.8h39.6c2.7 0 4.8 2.2 4.8 4.8v19c0 2.6-2.1 4.8-4.8 4.8z" fill="#c9ccec"/></g><path d="M970.2 367.7h49.2v.6h-49.2z" class="O"/><path d="M970.2 367.6h49.2v.6h-49.2z" fill="#a3b4d2"/><g class="C"><path d="M1088.5 254.2H901.4c-1.8 0-3.4-1.1-4-2.8l-16.9-43.6c-.5-3.5 2.1-5.9 5.1-5.9h218.8c3.4 0 5.7 3.2 5 6.5l-16.9 43.1c-.6 1.6-2.2 2.7-4 2.7z" fill="#b1c6de"/><path d="M885.6 202h218.8c3 0 5 2.4 5.1 5.2 0-2.8-2.1-5.3-5.1-5.3H885.6c-2.8 0-5.2 2.1-5.1 5.3-.1-3.1 2.4-5.2 5.1-5.2z" class="D"/><path d="M1089.2 256.1H900.8c-1.8 0-3.4-1.1-4-2.8l-16-44.2c-1-2.8 1.1-5.7 4-5.7h220.4c2.9 0 5 2.9 4 5.7l-16 44.2c-.6 1.7-2.2 2.8-4 2.8z" fill="#c6cfe6"/><path d="M1105.2 203.5H884.8c-2.9 0-5 2.9-4 5.7l15.3 42.3h197.8l15.3-42.3c1-2.8-1.1-5.7-4-5.7z" fill="#00074a"/><path d="M885.3 208.6l14.5 41.4h189.5l15.3-41.4z" fill="#e6f3ff"/><path d="M1098.1 237.3l11.2-28.5c.9-2.7-1.1-5.6-4-5.6H884.8c-2.6 0-4.5 2.2-4.2 4.7l10.7 27.5-9.7-26.7c-.4-1.1-.2-2.2.4-3.1.7-.9 1.7-1.5 2.8-1.5h220.4c1.1 0 2.2.5 2.8 1.5.7.9.8 2.1.4 3.1z" class="D"/><path d="M1105.2 204.3c1.1 0 2.2.5 2.8 1.5.7.9.8 2.1.4 3.1l-16 44.2c-.5 1.4-1.8 2.3-3.2 2.3H900.8c-1.4 0-2.7-.9-3.2-2.3l-16-44.2c-.4-1.1-.2-2.2.4-3.1.7-.9 1.7-1.5 2.8-1.5zm0-.8H884.8c-2.9 0-5 2.9-4 5.7l16 44.2c.6 1.7 2.2 2.8 4 2.8h188.5c1.8 0 3.4-1.1 4-2.8l16-44.2c.9-2.8-1.2-5.7-4.1-5.7z" fill="#e9f2ff"/></g><ellipse cx="1078.3" cy="263.9" fill="#e5f4ff" rx="4.2" ry="4.3"/><circle cx="1078.3" cy="263.8" fill="#c2c6de" r="4.2"/><circle cx="1078.3" cy="263.8" fill="#d8e3ff" r="3.5"/><g class="C"><path d="M1078.3 267.2c-1.9 0-3.5-1.5-3.5-3.4 0 1.9 1.6 3.5 3.5 3.4 1.9.1 3.5-1.5 3.5-3.4 0 1.9-1.6 3.4-3.5 3.4z" fill="#e5f4ff"/><path d="M889.2 219.7h211.3l4.1-11.1H885.3z" class="E"/><path d="M1104.5 209l.1-.4H885.3l.1.4z" fill="#37f0ff"/></g><path d="M890.634 212.4c.816-1.112 2.707-1.115 4.22-.005s2.08 2.914 1.263 4.027-2.707 1.115-4.22.005-2.08-2.914-1.264-4.027z" class="P"/><use xlink:href="#X" class="Q"/><path d="M891.425 213.015c.526-.777 1.844-.804 2.94-.06s1.56 1.977 1.033 2.754-1.844.803-2.94.06-1.56-1.977-1.032-2.753z" fill="#ffe400"/><use xlink:href="#Y" fill="#fffb5f" class="C"/><path d="M898.332 212.386c.816-1.113 2.707-1.115 4.22-.005s2.08 2.914 1.264 4.026-2.707 1.115-4.22.006-2.08-2.914-1.263-4.027z" class="P"/><path d="M898.295 212.45c.774-1.142 2.663-1.214 4.217-.16s2.185 2.835 1.41 3.977-2.664 1.214-4.217.16-2.185-2.835-1.41-3.977z" class="Q"/><path d="M899.122 213c.527-.776 1.844-.803 2.94-.06s1.56 1.977 1.032 2.754-1.844.803-2.94.06-1.56-1.977-1.033-2.754z" fill="#ff3d5b"/><use xlink:href="#Y" x="7.7" fill="#ff6d9a" class="C"/><path d="M906.03 212.38c.816-1.112 2.707-1.115 4.22-.005s2.08 2.914 1.263 4.027-2.707 1.115-4.22.005-2.08-2.914-1.263-4.027z" class="P"/><use xlink:href="#X" x="15.395" y="-.008" class="Q"/><path d="M906.82 213.006c.526-.776 1.844-.803 2.94-.06s1.56 1.977 1.033 2.754-1.844.803-2.94.06-1.56-1.977-1.033-2.754z" fill="#00e4a0"/><g class="C"><path d="M908.2 212.5c1.2 0 2.4.9 2.7 1.9-.4-1.1-1.6-2-2.7-1.9-1.2-.1-1.9.8-1.5 1.9-.4-1.1.3-1.9 1.5-1.9z" fill="#4cfbd0"/><path d="M985.1 227.1h-86.3c-.7 0-1.2-.6-1.2-1.2s.6-1.2 1.2-1.2h86.3c.7 0 1.2.6 1.2 1.2s-.5 1.2-1.2 1.2z" class="R"/><path d="M1001.9 227.1h-10.1c-.7 0-1.2-.6-1.2-1.2s.6-1.2 1.2-1.2h10.1c.7 0 1.2.6 1.2 1.2s-.5 1.2-1.2 1.2z" class="S"/><path d="M1036.2 227.1h-28c-.7 0-1.2-.6-1.2-1.2s.6-1.2 1.2-1.2h28c.7 0 1.2.6 1.2 1.2s-.5 1.2-1.2 1.2z" class="R"/><g fill="#ff61e3"><use xlink:href="#Z"/><use xlink:href="#Z" x="9.7"/></g><path d="M915.6 232.9H901c-.7 0-1.2-.6-1.2-1.2 0-.7.6-1.2 1.2-1.2h14.6c.7 0 1.2.6 1.2 1.2s-.5 1.2-1.2 1.2z" class="S"/><path d="M953 232.9h-29.3c-.7 0-1.2-.6-1.2-1.2 0-.7.6-1.2 1.2-1.2H953c.7 0 1.2.6 1.2 1.2.1.6-.5 1.2-1.2 1.2z" class="R"/><path d="M1010.1 232.9h-48.8c-.7 0-1.2-.6-1.2-1.2 0-.7.6-1.2 1.2-1.2h48.8c.7 0 1.2.6 1.2 1.2.1.6-.5 1.2-1.2 1.2z" class="S"/><path d="M934.5 240h-31.4c-.7 0-1.2-.6-1.2-1.2 0-.7.6-1.2 1.2-1.2h31.4c.7 0 1.2.6 1.2 1.2.1.7-.5 1.2-1.2 1.2zm10.5 0h-3.4c-.7 0-1.2-.6-1.2-1.2 0-.7.6-1.2 1.2-1.2h3.4c.7 0 1.2.6 1.2 1.2.1.7-.5 1.2-1.2 1.2zm13 0h-5c-.7 0-1.2-.6-1.2-1.2 0-.7.6-1.2 1.2-1.2h5c.7 0 1.2.6 1.2 1.2.1.7-.5 1.2-1.2 1.2zm13.1 0h-7.2c-.7 0-1.2-.6-1.2-1.2 0-.7.6-1.2 1.2-1.2h7.2c.7 0 1.2.6 1.2 1.2 0 .7-.5 1.2-1.2 1.2zm54.2-7.1h-9.2c-.7 0-1.2-.6-1.2-1.2 0-.7.6-1.2 1.2-1.2h9.2c.7 0 1.2.6 1.2 1.2s-.5 1.2-1.2 1.2zm25.9 0h-20.1c-.7 0-1.2-.6-1.2-1.2 0-.7.6-1.2 1.2-1.2h20.1c.7 0 1.2.6 1.2 1.2.1.6-.5 1.2-1.2 1.2z" fill="#ff648f"/><path d="M927.4 246.5H905c-.7 0-1.2-.6-1.2-1.2 0-.7.6-1.2 1.2-1.2h22.4c.7 0 1.2.6 1.2 1.2s-.5 1.2-1.2 1.2zm159.1-5.1h-50.3c-.7 0-1.2-.6-1.2-1.2s.6-1.2 1.2-1.2h50.3c.7 0 1.2.6 1.2 1.2s-.5 1.2-1.2 1.2zm-2.8 5.1h-7.9c-.7 0-1.2-.6-1.2-1.2 0-.7.6-1.2 1.2-1.2h7.9c.7 0 1.2.6 1.2 1.2.1.6-.5 1.2-1.2 1.2zm-11.8 0h-6.9c-.7 0-1.2-.6-1.2-1.2 0-.7.6-1.2 1.2-1.2h6.8c.7 0 1.2.6 1.2 1.2.1.6-.5 1.2-1.1 1.2z" fill="#fc0"/><path d="M1027.4 208.6h-75L911 250h75zm54.6 0h-31.1l-41.3 41.4h31zm22.2 1.1l.4-1.1h-7.9l-41.3 41.4h8.5z" fill="#e6f3ff" opacity=".34"/><path d="M1219.09 381.709h-45.9v-69.8h45.9c2.7 0 4.9 2.2 4.9 4.9v60c0 2.7-2.2 4.9-4.9 4.9z" fill="#ff3666"/><path d="M1219.9 311.91h-.2c2.2 0 4.1 1.8 4.1 4.1v61.7c0 2.2-1.8 4.1-4.1 4.1h.2c2.2 0 4.1-1.8 4.1-4.1v-61.7c0-2.2-1.8-4.1-4.1-4.1z" fill="#ff5eb7"/></g><path d="M1173.1 311.91h8.6v69.8h-8.6z" fill="#c32638"/><path d="M1181.73 311.984h.9v69.8h-.9z" fill="#ff639b"/><path d="M1210.2 311.91h5.8v69.8h-5.8z" fill="#e7274c"/><path d="M1210.9 311.31h5.8v71.1h-5.8z" fill="#e4e9ff"/><g class="D"><path d="M1210.9 311.31h.4v71.1h-.4z"/><use xlink:href="#a"/></g><use xlink:href="#a" class="H"/><use xlink:href="#a" x=".8" class="D"/><use xlink:href="#a" x=".9" class="H"/><use xlink:href="#a" x="1.6" class="D"/><use xlink:href="#a" x="1.7" class="H"/><use xlink:href="#a" x="2.4" class="D"/><use xlink:href="#a" x="2.5" class="H"/><use xlink:href="#a" x="3.3" class="D"/><use xlink:href="#a" x="3.3" class="H"/><use xlink:href="#a" x="4.1" class="D"/><use xlink:href="#a" x="4.1" class="H"/><path d="M1185 371h14.3v7.3H1185zm0-2.7h14.3v1.7H1185z" fill="#ffd800"/><path d="M1185 365.61h7.1v1.7h-7.1z" fill="#00f700"/><circle cx="811.753" cy="331.8" fill="#dde4ee" r="30.5"/><g class="C"><path d="M836.253 328.5c-2.2-11.4-12.3-20.1-24.4-20.1a24.8 24.8 0 1 0 0 49.6c12.1 0 22.1-8.6 24.4-20h3.2c.8 0 1.6-.2 2.2-.5.4-1.9.6-3.9.6-5.9 0-.8 0-1.6-.1-2.4-.8-.5-1.7-.8-2.7-.8h-3.2z" fill="#c7d3d4"/><path d="M811.753 301.7c16.8 0 30.4 13.5 30.5 30.3v-.3c0-16.9-13.7-30.5-30.5-30.5s-30.5 13.7-30.5 30.5v.3c.1-16.7 13.7-30.3 30.5-30.3z" fill="#ecf3ee"/><path d="M839.853 336.6h-8.2c-2.5 0-4.5-2-4.5-4.5v-.7c0-2.5 2-4.5 4.5-4.5h8.2c2.5 0 4.5 2 4.5 4.5v.7c-.1 2.5-2.1 4.5-4.5 4.5z" class="D"/></g><circle cx="811.853" cy="331.8" fill="#eaf8ff" r="24.8"/><g class="D"><path d="M811.853 307.2c13.7 0 24.8 11.1 24.8 24.7v-.1a24.8 24.8 0 1 0-49.6 0v.1c.1-13.7 11.2-24.7 24.8-24.7z" class="C"/><ellipse cx="811.853" cy="331.9" rx="21.8" ry="22"/></g><g fill="#d8e3f0"><circle cx="811.853" cy="331.8" r="21.8"/><circle cx="811.853" cy="331.8" r="20.1"/></g><circle cx="811.853" cy="331.8" fill="#7c2f1f" r="19.7"/><path d="M811.853 312.3c10.8 0 19.6 8.8 19.7 19.6v-.1c0-10.9-8.8-19.7-19.7-19.7s-19.7 8.8-19.7 19.7v.1c.1-10.9 8.9-19.6 19.7-19.6z" fill="#ab411f" class="C"/><circle cx="811.853" cy="331.8" fill="#923f1f" r="15.3"/><path d="M811.853 316.6c8.4 0 15.2 6.8 15.3 15.2v-.1c0-8.4-6.8-15.3-15.3-15.3s-15.3 6.8-15.3 15.3v.1c.1-8.4 6.9-15.2 15.3-15.2z" fill="#c26e1e" class="C"/><circle cx="811.853" cy="331.8" fill="#ac561f" r="9.2"/><path d="M811.853 322.7c5 0 9.1 4.1 9.2 9.1 0-5.1-4.1-9.2-9.2-9.1-5.1-.1-9.2 4-9.2 9.1.1-5 4.2-9.1 9.2-9.1z" fill="#cf721e" class="C"/><circle cx="811.853" cy="331.8" fill="#c2641e" r="3.7"/><path d="M811.853 328.2c2 0 3.7 1.6 3.7 3.7v-.1c0-2.1-1.7-3.7-3.7-3.7s-3.7 1.7-3.7 3.7v.1c.1-2.1 1.7-3.7 3.7-3.7z" fill="#e4771d" class="C"/><circle cx="806.553" cy="325.5" fill="url(#D)" r="9.9"/><circle cx="803.553" cy="334.5" fill="url(#E)" r="4.6"/><circle cx="825.353" cy="338.4" fill="url(#F)" r="2.9"/><g class="C"><path d="M1221.4 399.31h-4.9a3.8 3.8 0 0 1-3.8-3.8v-.6a3.8 3.8 0 0 1 3.8-3.8h4.9a3.8 3.8 0 0 1 3.8 3.8v.6c0 2-1.7 3.8-3.8 3.8z" fill="#ff547a"/><use xlink:href="#b" fill="#d8f2ff"/><use xlink:href="#c" fill="#c8d1f5"/><use xlink:href="#d" fill="#a9ade4"/><path d="M1171.7 391.21l-10.7 3.3c-.7.2-.7 1.2 0 1.4l10.7 3.3 1.9-4z" fill="#ffefbd"/><use xlink:href="#b" x="-2.3" fill="#fffa00"/><use xlink:href="#c" x="-2.3" class="L"/><use xlink:href="#d" x="-2.3" fill="#ffb300"/><path d="M1160.7 396.01l5.2 1.5c.3-.5.5-1.6.5-2.2 0-.7-.2-1.5-.4-2l-5.3 1.3c-.7.2-.7 1.2 0 1.4z" fill="#ffde00"/><path d="M1160.7 395.21c-.1 0-.1.2.1.2l5.7.5v-.6z" fill="#fffb7e"/><path d="M1160.69 394.609h-.1s-.1 0-.1.1c-.1 0-.1.1-.2.2v.2c.1-.1.3-.2.4-.2l5.6-.9c-.1-.2-.3-.7-.3-.9z" fill="#ffc200"/><g fill="#fffb7e"><path d="M1170.9 398.01c0 .8.6 1.4 1.4 1.4l43.6-.1.4-1.4z"/><use xlink:href="#e"/><use xlink:href="#e" y="-2.8"/><path d="M1170.9 392.51c0 .8.6 1.4 1.4 1.4h.1c-.8-.1-1.4-.7-1.5-1.4.1-.8.7-1.4 1.5-1.4h-.1c-.8 0-1.4.6-1.4 1.4z"/><path d="M1170.9 395.21c0 .8.6 1.4 1.4 1.4h.1c-.8 0-1.4-.6-1.5-1.4.1-.8.7-1.4 1.5-1.4h-.1c-.8.1-1.4.7-1.4 1.4zm0 2.8c0 .8.6 1.4 1.4 1.4h.1c-.8 0-1.4-.6-1.5-1.4.1-.8.7-1.4 1.5-1.4h-.1c-.8 0-1.4.6-1.4 1.4z"/></g><g class="D"><path d="M828.4 244.8H667.6c-2.8 0-5.1-2.3-5.1-5.1V138.8c0-2.8 2.3-5.1 5.1-5.1h160.8c2.8 0 5.1 2.3 5.1 5.1v100.8c0 2.9-2.3 5.2-5.1 5.2z" class="T"/><path d="M829.299 244.201h-162.6c-2.3 0-4.2-1.9-4.2-4.2v.6c0 2.3 1.9 4.2 4.2 4.2h162.5c2.3 0 4.2-1.9 4.2-4.2v-.6c.1 2.3-1.8 4.2-4.1 4.2z" fill-opacity=".53"/></g><g class="E B"><path d="M828.599 132.701h-161.2c-2.7 0-4.9 2.2-4.9 4.9v1c0-2.7 2.2-4.9 4.9-4.9h161.2c2.7 0 4.9 2.2 4.9 4.9v-1c0-2.7-2.2-4.9-4.9-4.9z"/><path d="M828.6 133.8H667.4a4.91 4.91 0 0 0-4.9 4.9v13h170.9v-13c.1-2.7-2.1-4.9-4.8-4.9z"/></g><path d="M828.599 133.801h-161.2c-2.7 0-4.9 2.2-4.9 4.9v.2c0-2.7 2.2-4.9 4.9-4.9h161.2c2.7 0 4.9 2.2 4.9 4.9v-.2c0-2.7-2.2-4.9-4.9-4.9z" class="I J"/></g><path d="M662.5 151h170.9v.7H662.5z" class="I J"/><path d="M822.799 238.901h-149.2c-2.3 0-4.2-1.9-4.2-4.2v-73.5c0-2.3 1.9-4.2 4.2-4.2h149.1c2.3 0 4.2 1.9 4.2 4.2v73.5c0 2.3-1.8 4.2-4.1 4.2z" fill="url(#H)" class="C"/><circle cx="672.099" cy="142.701" r="4.8" class="B F"/><circle cx="672.099" cy="142.701" r="3.8" class="B E"/><circle cx="672.099" cy="142.701" r="3.1" class="U"/><circle cx="672.099" cy="142.701" r="1.8" class="V"/><circle cx="686.099" cy="142.701" r="4.8" class="B F"/><circle cx="686.099" cy="142.701" r="3.8" class="B E"/><circle cx="686.099" cy="142.701" r="3.1" class="W"/><circle cx="686.099" cy="142.701" r="1.8" class="X"/><circle cx="700.199" cy="142.701" r="4.8" class="B F"/><circle cx="700.199" cy="142.701" r="3.8" class="B E"/><circle cx="700.199" cy="142.701" r="3.1" class="Y"/><circle cx="700.199" cy="142.701" r="1.8" class="Z"/><path d="M677.8 161.9l-3.8 3.7 3.8 3.8m9.4-7.5l3.8 3.7-3.8 3.8m-6.3.6l3-8.1" fill="none" stroke="#00da8f" class="G"/><g class="M"><circle cx="694.999" cy="170.101" r="1.1"/><circle cx="699.399" cy="170.101" r="1.1"/><circle cx="703.799" cy="170.101" r="1.1"/></g><g fill="none" class="G"><path d="M675.9 177.7H789m6.9 0h8.7m4.9 0h11.1" stroke="#00da8f"/><path d="M675.9 186.6h70.7m10.6 0h12.7m0 5.2h-34.5m-4.7 0h-6.9m-5.6 0h-6.9m-5.5 0h-6.9m-5.6 0h-6.9" stroke="#00fcff"/><path d="M793.7 198H686.4" stroke="#ff4f92"/><path d="M678.4 191.8h-2.5m2.5 6.2h-2.5m2.5 6.2h-2.5m2.5 6.2h-2.5" stroke="#00fcff"/><path d="M800.2 198H815m-128.9 6.2h29.7m-29.7 6.4h29.7m-29.7 6.4h29.7m-29.7 6.3h29.7" stroke="#ff4f92"/><path d="M735.4 223.3h60.5m-24.7-6.3h24.7m-9.8-6.6h9.8" stroke="#ffd600"/></g><g class="C"><g class="D"><path d="M1245.36 249.9h-74.1c-2.9 0-5.2-2.3-5.2-5.2v-121c0-2.9 2.3-5.2 5.2-5.2h74.1c2.9 0 5.2 2.3 5.2 5.2v121.1c0 2.8-2.3 5.1-5.2 5.1z" class="T"/><path d="M1246.36 249.5h-76c-2.3 0-4.2-1.9-4.2-4.2v.5c0 2.3 1.9 4.2 4.2 4.2h76c2.3 0 4.2-1.9 4.2-4.2v-.5c0 2.3-1.9 4.2-4.2 4.2z" fill-opacity=".28"/></g><g class="E B"><path d="M1247.26 117.8h-78c-1.8 0-3.2 1.4-3.2 3.2v.7c0-1.8 1.4-3.2 3.2-3.2h78c1.8 0 3.2 1.4 3.2 3.2v-.7c.1-1.7-1.4-3.2-3.2-3.2z"/><path d="M1247.26 118.5h-78c-1.8 0-3.2 1.4-3.2 3.2v8.7h84.5v-8.7c0-1.7-1.5-3.2-3.3-3.2z"/></g><path d="M1247.26 118.5h-78c-1.8 0-3.2 1.4-3.2 3.2v.1c0-1.8 1.4-3.2 3.2-3.2h78c1.8 0 3.2 1.4 3.2 3.2v-.1c.1-1.7-1.4-3.2-3.2-3.2z" class="I J"/></g><path d="M1166.06 130h84.4v.5h-84.4z" class="I J"/><path d="M1241.95 246.1h-67.1c-2.3 0-4.2-1.9-4.2-4.2V138.2c0-2.3 1.9-4.2 4.2-4.2h67.1c2.3 0 4.2 1.9 4.2 4.2v103.7c0 2.3-1.8 4.2-4.2 4.2z" fill="url(#I)" class="C"/><circle cx="1172.45" cy="124.5" r="3.2" class="B F"/><circle cx="1172.45" cy="124.5" r="2.5" class="B E"/><circle cx="1172.45" cy="124.5" r="2" class="U"/><circle cx="1172.45" cy="124.5" r="1.2" class="V"/><circle cx="1181.76" cy="124.5" r="3.2" class="B F"/><circle cx="1181.76" cy="124.5" r="2.5" class="B E"/><circle cx="1181.76" cy="124.5" r="2" class="W"/><circle cx="1181.76" cy="124.5" r="1.2" class="X"/><circle cx="1191.15" cy="124.5" r="3.2" class="B F"/><circle cx="1191.15" cy="124.5" r="2.5" class="B E"/><circle cx="1191.15" cy="124.5" r="2" class="Y"/><circle cx="1191.15" cy="124.5" r="1.2" class="Z"/><g class="C"><path d="M1227.36 148.4h-52.3c-.4 0-.6-.3-.6-.6 0-.4.3-.6.6-.6h52.3c.4 0 .6.3.6.6a.65.65 0 0 1-.6.6zm8.4 0h-3.9c-.4 0-.6-.3-.6-.6 0-.4.3-.6.6-.6h3.9c.4 0 .6.3.6.6s-.2.6-.6.6zm6.2 0h-2.9c-.4 0-.6-.3-.6-.6 0-.4.3-.6.6-.6h2.9c.4 0 .6.3.6.6s-.2.6-.6.6z" class="M"/><path d="M1204.36 154.3h-29.4c-.4 0-.6-.3-.6-.6 0-.4.3-.6.6-.6h29.4c.4 0 .6.3.6.6.1.3-.2.6-.6.6zm10.2 0h-8.4c-.4 0-.6-.3-.6-.6 0-.4.3-.6.6-.6h8.4c.4 0 .6.3.6.6.1.3-.2.6-.6.6zm0 3.4h-5.2c-.4 0-.6-.3-.6-.6 0-.4.3-.6.6-.6h5.2c.4 0 .6.3.6.6.1.4-.2.6-.6.6zm-7.7 0h-.6c-.4 0-.6-.3-.6-.6 0-.4.3-.6.6-.6h.6c.4 0 .6.3.6.6 0 .4-.3.6-.6.6zm-3.7 0h-4.6c-.4 0-.6-.3-.6-.6 0-.4.3-.6.6-.6h4.6c.4 0 .6.3.6.6 0 .4-.3.6-.6.6zm-8.3 0h-4.6c-.4 0-.6-.3-.6-.6 0-.4.3-.6.6-.6h4.6c.4 0 .6.3.6.6 0 .4-.2.6-.6.6zm-8.3 0h-4.6c-.4 0-.6-.3-.6-.6 0-.4.3-.6.6-.6h4.6c.4 0 .6.3.6.6.1.4-.2.6-.6.6z" class="N"/><path d="M1230.45 161.9h-48.5c-.4 0-.6-.3-.6-.6 0-.4.3-.6.6-.6h48.5c.4 0 .6.3.6.6s-.2.6-.6.6z" class="K"/><g class="N"><path d="M1176.65 157.7h-1.7c-.4 0-.6-.3-.6-.6 0-.4.3-.6.6-.6h1.7c.4 0 .6.3.6.6 0 .4-.3.6-.6.6z"/><use xlink:href="#f"/><use xlink:href="#f" y="4.1"/><path d="M1176.65 170.2h-1.7c-.4 0-.6-.3-.6-.6s.3-.6.6-.6h1.7c.4 0 .6.3.6.6s-.3.6-.6.6z"/></g><path d="M1240.86 161.9h-6c-.4 0-.6-.3-.6-.6 0-.4.3-.6.6-.6h6c.4 0 .6.3.6.6a.65.65 0 0 1-.6.6zm-39.3 4.1h-19.7c-.4 0-.6-.3-.6-.6 0-.4.3-.6.6-.6h19.7c.4 0 .6.3.6.6a.65.65 0 0 1-.6.6z" class="K"/><path d="M1231.86 178.7h-22.5c-.4 0-.6-.3-.6-.6 0-.4.3-.6.6-.6h22.5c.4 0 .6.3.6.6.1.3-.2.6-.6.6zm0-4.2h-16.3c-.4 0-.6-.3-.6-.6a.65.65 0 0 1 .6-.6h16.4c.4 0 .6.3.6.6s-.3.6-.7.6zm0-4.3h-6.5c-.4 0-.6-.3-.6-.6a.65.65 0 0 1 .6-.6h6.5c.4 0 .6.3.6.6s-.2.6-.6.6z" class="L"/><path d="M1198.56 142.7h-23.6c-.4 0-.6-.3-.6-.6s.3-.6.6-.6h23.6c.4 0 .6.3.6.6s-.3.6-.6.6z" class="K"/><g class="L"><use xlink:href="#g"/><use xlink:href="#g" y="5.1"/><use xlink:href="#g" y="10.2"/><path d="M1213.86 229.5h-38.8c-.4 0-.6-.3-.6-.6 0-.4.3-.6.6-.6h38.8c.4 0 .6.3.6.6s-.3.6-.6.6z"/></g><g class="M"><path d="M1222.15 182.9h-10.6c-.4 0-.6-.3-.6-.6s.3-.6.6-.6h10.6c.4 0 .6.3.6.6s-.3.6-.6.6z"/><use xlink:href="#h"/><use xlink:href="#h" y="5.9"/><use xlink:href="#i"/><use xlink:href="#i" y="3.9"/><path d="M1218.65 241.1h-36.1c-.4 0-.6-.3-.6-.6 0-.4.3-.6.6-.6h36.1c.4 0 .6.3.6.6.1.3-.2.6-.6.6z"/><use xlink:href="#j"/><use xlink:href="#j" x="9.41"/><use xlink:href="#j" x="18.8"/><path d="M1217.26 237.2h-4.7c-.4 0-.6-.3-.6-.6 0-.4.3-.6.6-.6h4.8c.4 0 .6.3.6.6s-.3.6-.7.6zm9.4 0h-4.8c-.4 0-.6-.3-.6-.6 0-.4.3-.6.6-.6h4.8c.4 0 .6.3.6.6.1.3-.2.6-.6.6zm7.5 0h-2.9c-.4 0-.6-.3-.6-.6 0-.4.3-.6.6-.6h2.9c.4 0 .6.3.6.6a.65.65 0 0 1-.6.6z"/></g><path d="M1034.07 177.828h-98.075c-2.845 0-5.355-2.344-5.355-5.356v-88.87c0-2.845 2.343-5.356 5.355-5.356h98.075c2.846 0 5.356 2.343 5.356 5.356v89.037c-.167 2.845-2.5 5.19-5.356 5.19z" class="D T"/><g class="E B"><path d="M1035.08 77.41H934.83a4.14 4.14 0 0 0-4.184 4.184v.837a4.14 4.14 0 0 1 4.184-4.184h100.25a4.14 4.14 0 0 1 4.184 4.184v-.837a4.14 4.14 0 0 0-4.184-4.184z"/><path d="M1035.08 78.414H934.83a4.14 4.14 0 0 0-4.184 4.184V93.81h108.62V82.598a4.14 4.14 0 0 0-4.184-4.184z"/></g><path d="M1035.08 78.414H934.83a4.14 4.14 0 0 0-4.184 4.184v.167a4.14 4.14 0 0 1 4.184-4.184l100.25-.167c2.343.167 4.184 2.008 4.184 4.35v-.167a4.14 4.14 0 0 0-4.184-4.184z" class="I J"/></g><path d="M930.643 92.974h108.62v.67h-108.62z" class="I J"/><path d="M1029.72 172.974h-89.038c-2.175 0-4.016-1.84-4.016-4.017v-66.6c0-2.176 1.84-4.017 4.016-4.017h89.038c2.176 0 4.017 1.84 4.017 4.017v66.6c0 2.176-1.84 4.017-4.017 4.017z" fill="url(#J)" class="C"/><circle cx="938.843" cy="85.945" r="4.184" class="B F"/><circle cx="938.843" cy="85.945" r="3.18" class="B E"/><circle cx="938.843" cy="85.945" r="2.678" class="U"/><circle cx="938.843" cy="85.945" r="1.506" class="V"/><circle cx="950.894" cy="85.945" r="4.184" class="B F"/><circle cx="950.894" cy="85.945" r="3.18" class="B E"/><circle cx="950.894" cy="85.945" r="2.678" class="W"/><circle cx="950.894" cy="85.945" r="1.506" class="X"/><circle cx="962.944" cy="85.945" r="4.184" class="B F"/><circle cx="962.944" cy="85.945" r="3.18" class="B E"/><circle cx="962.944" cy="85.945" r="2.678" class="Y"/><circle cx="962.944" cy="85.945" r="1.506" class="Z"/><g class="C"><path d="M1009.47 116.74H942.2c-.502 0-.837-.335-.837-.837s.335-.837.837-.837h67.28c.502 0 .837.335.837.837s-.335.837-.837.837zm10.88 0h-5.02c-.502 0-.837-.335-.837-.837s.335-.837.837-.837h5.02c.502 0 .836.335.836.837s-.502.837-.836.837zm7.87 0h-3.85c-.502 0-.837-.335-.837-.837s.335-.837.837-.837h3.85c.502 0 .836.335.836.837s-.334.837-.836.837z" class="M"/><path d="M979.847 124.44h-37.824c-.502 0-.837-.335-.837-.837s.335-.837.837-.837h37.824c.503 0 .837.335.837.837 0 .334-.334.837-.837.837zm13.223 0H982.2c-.503 0-.837-.335-.837-.837s.334-.837.837-.837h10.878c.502 0 .837.335.837.837 0 .334-.335.837-.837.837zm0 4.36h-6.694c-.502 0-.837-.335-.837-.837s.335-.837.837-.837h6.694c.502 0 .837.335.837.837s-.335.837-.837.837zm-10.043 0h-.836c-.503 0-.837-.335-.837-.837s.334-.837.837-.837h.836c.502 0 .837.335.837.837s-.335.837-.837.837zm-4.687 0h-5.858c-.502 0-.836-.335-.836-.837s.334-.837.836-.837h5.858c.502 0 .837.335.837.837s-.335.837-.837.837zm-10.7 0h-5.858c-.502 0-.837-.335-.837-.837s.335-.837.837-.837h5.858c.502 0 .837.335.837.837s-.335.837-.837.837zm-10.544 0h-5.858c-.502 0-.837-.335-.837-.837s.335-.837.837-.837h5.858c.502 0 .837.335.837.837s-.502.837-.837.837z" class="N"/><path d="M1013.5 134.146h-62.427c-.502 0-.837-.335-.837-.837s.335-.837.837-.837h62.427c.502 0 .836.335.836.837 0 .335-.334.837-.836.837z" class="K"/><g class="N"><use xlink:href="#k"/><path d="M944.2 134.146h-2.176c-.502 0-.837-.335-.837-.837s.335-.837.837-.837h2.176c.502 0 .837.335.837.837 0 .335-.335.837-.837.837z"/><use xlink:href="#k" y="10.534"/></g><path d="M1026.7 134.146h-7.698c-.502 0-.837-.335-.837-.837s.335-.837.837-.837h7.698c.502 0 .837.335.837.837 0 .335-.335.837-.837.837zm-50.367 5.188h-25.44c-.503 0-.837-.335-.837-.837s.334-.837.837-.837h25.44c.502 0 .837.335.837.837s-.502.837-.837.837z" class="K"/><path d="M1015.33 146.363h-28.954c-.502 0-.837-.335-.837-.837s.335-.836.837-.836h28.954c.502 0 .836.334.836.836s-.334.837-.836.837zm0-3.683h-8.37c-.502 0-.836-.335-.836-.837s.334-.836.836-.836h8.37c.502 0 .836.334.836.836s-.334.837-.836.837z" class="L"/><path d="M972.483 109.376H942.19c-.502 0-.837-.335-.837-.837s.335-.837.837-.837h30.292c.503 0 .837.335.837.837s-.502.837-.837.837z" class="K"/><path d="M992.065 161.26h-50.042c-.502 0-.837-.335-.837-.837s.335-.837.837-.837h50.042c.502 0 .837.335.837.837s-.335.837-.837.837z" class="L"/><path d="M1002.78 151.72h-13.724c-.502 0-.836-.335-.836-.837s.334-.837.836-.837h13.724c.502 0 .837.335.837.837s-.335.837-.837.837zm25.44 0h-18.745c-.502 0-.837-.335-.837-.837s.335-.837.837-.837h18.745c.502 0 .836.335.836.837s-.334.837-.836.837zm0 7.53h-18.745c-.502 0-.837-.335-.837-.837s.335-.836.837-.836h18.745c.502 0 .836.334.836.836s-.334.837-.836.837zm-80.004 7.197h-6.193c-.502 0-.837-.335-.837-.837s.335-.837.837-.837h6.193c.502 0 .837.335.837.837s-.335.837-.837.837zm50.04 0h-46.36c-.502 0-.837-.335-.837-.837s.335-.837.837-.837h46.36c.503 0 .837.335.837.837s-.334.837-.837.837z" class="M"/></g><defs><path id="L" d="M919.8 274.5h7.9c.5 0 .8.4.8.8v-.2c0-.5-.4-.8-.8-.8h-7.9c-.5 0-.8.4-.8.8v.2c0-.4.3-.8.8-.8z"/><path id="M" d="M927.7 327.7h-7.9c-.5 0-.8.4-.8.8v.2c0-.5.4-.8.8-.8h7.9c.5 0 .8.4.8.8v-.2c.1-.5-.3-.8-.8-.8z"/><path id="N" d="M940.8 304.1h-7.9c-.5 0-.8.4-.8.8v.2c0-.5.4-.8.8-.8h7.9c.5 0 .8.4.8.8v-.2c0-.4-.4-.8-.8-.8z"/><path id="O" d="M927.7 315.9h-7.9c-.5 0-.8.4-.8.8v.2c0-.5.4-.8.8-.8h7.9c.5 0 .8.4.8.8v-.2c.1-.4-.3-.8-.8-.8z"/><path id="P" d="M940.8 327.7h-7.9c-.5 0-.8.4-.8.8v.2c0-.5.4-.8.8-.8h7.9c.5 0 .8.4.8.8v-.2c0-.5-.4-.8-.8-.8z"/><path id="Q" d="M1011 316h7.9c.5 0 .8.4.8.8v-.2c0-.5-.4-.8-.8-.8h-7.9c-.5 0-.8.4-.8.8v.2c-.1-.4.3-.8.8-.8z"/><path id="R" d="M997.9 274.5h7.9c.5 0 .8.4.8.8v-.2c0-.5-.4-.8-.8-.8h-7.9c-.5 0-.8.4-.8.8v.2c0-.4.4-.8.8-.8z"/><path id="S" d="M1058 327.7h-7.9c-.5 0-.8.4-.8.8v.2c0-.5.4-.8.8-.8h7.9c.5 0 .8.4.8.8v-.2c0-.5-.3-.8-.8-.8z"/><path id="T" d="M1045 274.4h-8c-.5 0-.8.4-.8.8v.2c0-.5.4-.8.8-.8h7.9c.5 0 .8.4.8.8v-.2c.1-.5-.3-.8-.7-.8z"/><path id="U" d="M1045 292.3h-8c-.5 0-.8.4-.8.8v.2c0-.5.4-.8.8-.8h7.9c.5 0 .8.4.8.8v-.2c.1-.4-.3-.8-.7-.8z"/><path id="V" d="M1058 315.9h-7.9c-.5 0-.8.4-.8.8v.2c0-.5.4-.8.8-.8h7.9c.5 0 .8.4.8.8v-.2c0-.4-.3-.8-.8-.8z"/><path id="W" d="M1071 292.3h-21c-.5 0-.8.4-.8.8v.2c0-.5.4-.8.8-.8h21c.5 0 .8.4.8.8v-.2c.1-.4-.3-.8-.8-.8z"/><path id="X" d="M890.597 212.453c.774-1.142 2.664-1.214 4.217-.16s2.186 2.835 1.412 3.977-2.664 1.214-4.217.16-2.186-2.835-1.412-3.977z"/><path id="Y" d="M892.8 212.5c1.2 0 2.4.9 2.7 1.9-.4-1.1-1.6-2-2.7-1.9-1.2-.1-1.9.8-1.5 1.9-.3-1.1.3-1.9 1.5-1.9z"/><path id="Z" d="M1054 227.1h-5.6c-.7 0-1.2-.6-1.2-1.2s.6-1.2 1.2-1.2h5.6c.7 0 1.2.6 1.2 1.2s-.5 1.2-1.2 1.2z"/><path id="a" d="M1211.9 311.31h.1v71.1h-.1z"/><path id="b" d="M1219.1 396.51l-.9 2.8-43.6.1c-.8 0-1.4-.6-1.4-1.4s.6-1.4 1.4-1.4z"/><path id="c" d="M1219.1 393.71v2.8l-44.5.1c-.8 0-1.4-.6-1.4-1.4s.6-1.4 1.4-1.4z"/><path id="d" d="M1218.2 391.01l.9 2.8-44.5.1c-.8 0-1.4-.6-1.4-1.4s.6-1.4 1.4-1.4z"/><path id="e" d="M1172.3 396.61l44.5-.1v-.1l-45.1.1c.2.1.4.1.6.1z"/><path id="f" d="M1176.65 161.9h-1.7c-.4 0-.6-.3-.6-.6 0-.4.3-.6.6-.6h1.7c.4 0 .6.3.6.6s-.3.6-.6.6z"/><path id="g" d="M1213.86 188.8h-38.8c-.4 0-.6-.3-.6-.6s.3-.6.6-.6h38.8c.4 0 .6.3.6.6s-.3.6-.6.6z"/><path id="h" d="M1241.95 182.9h-14.6c-.4 0-.6-.3-.6-.6s.3-.6.6-.6h14.6c.4 0 .6.3.6.6s-.2.6-.6.6z"/><path id="i" d="M1179.76 237.2h-4.8c-.4 0-.6-.3-.6-.6 0-.4.3-.6.6-.6h4.8c.4 0 .6.3.6.6s-.2.6-.6.6z"/><path id="j" d="M1189.15 237.2h-4.8c-.4 0-.6-.3-.6-.6 0-.4.3-.6.6-.6h4.8c.4 0 .6.3.6.6s-.3.6-.6.6z"/><path id="k" d="M944.2 128.8h-2.176c-.502 0-.837-.335-.837-.837s.335-.837.837-.837h2.176c.502 0 .837.335.837.837s-.335.837-.837.837z"/></defs></svg>